<svg width="233" height="232" viewBox="0 0 233 232" fill="none" xmlns="http://www.w3.org/2000/svg">
<mask id="mask0_4_271" style="mask-type:luminance" maskUnits="userSpaceOnUse" x="0" y="0" width="233" height="232">
<path d="M232.57 0H0V231.49H232.57V0Z" fill="white"/>
</mask>
<g mask="url(#mask0_4_271)">
<path d="M115.37 24.78L145.65 86.13L213.35 95.97L164.36 143.72L175.92 211.15L115.37 179.31L54.82 211.15L66.38 143.72L17.39 95.97L85.09 86.13L115.37 24.78Z" fill="black"/>
<mask id="mask1_4_271" style="mask-type:luminance" maskUnits="userSpaceOnUse" x="18" y="24" width="197" height="188">
<path d="M116.37 24.78L146.65 86.13L214.35 95.97L165.36 143.72L176.92 211.15L116.37 179.31L55.82 211.15L67.38 143.72L18.39 95.97L86.09 86.13L116.37 24.78Z" fill="white"/>
</mask>
<g mask="url(#mask1_4_271)">
<path d="M115.69 264.47V126.05L72.92 257.7L71.82 257.34L114.6 125.69L33.23 237.68L32.3 237L113.67 125.02L1.68004 206.38L1.00004 205.45L112.99 124.08L-18.66 166.86L-19.02 165.77L112.64 122.99H-25.79V121.84H112.64L-19.02 79.06L-18.66 77.97L112.99 120.75L1.00004 39.38L1.68004 38.45L113.67 119.82L32.3 7.82998L33.23 7.14998L114.6 119.14L71.82 -12.51L72.92 -12.86L115.69 118.79V-19.64H116.84V118.79L159.62 -12.86L160.71 -12.51L117.94 119.14L199.3 7.14998L200.23 7.82998L118.87 119.82L230.85 38.45L231.53 39.38L119.54 120.75L251.19 77.97L251.55 79.06L119.9 121.84H258.32V122.99H119.9L251.55 165.77L251.19 166.86L119.54 124.08L231.53 205.45L230.85 206.38L118.87 125.02L200.23 237L199.3 237.68L117.94 125.69L160.71 257.34L159.62 257.7L116.84 126.05V264.47H115.69Z" fill="url(#paint0_linear_4_271)"/>
<path d="M258.12 122.04H118.63L251.3 78.94L251.06 78.22L118.4 121.33L231.25 39.34L230.81 38.73L117.96 120.72L199.95 7.87L199.34 7.43L117.36 120.28L160.46 -12.38L159.75 -12.61L116.64 120.05V-19.44H115.89V120.05L72.79 -12.61L72.07 -12.38L115.18 120.28L33.19 7.43L32.58 7.87L114.57 120.72L1.72006 38.73L1.28008 39.34L114.13 121.33L-18.53 78.22L-18.76 78.94L113.9 122.04H-25.59V122.79H113.9L-18.76 165.9L-18.53 166.61L114.13 123.5L1.28008 205.49L1.72006 206.1L114.57 124.11L32.58 236.96L33.19 237.4L115.18 124.55L72.07 257.21L72.79 257.44L115.89 124.78V264.27H116.64V124.78L159.75 257.44L160.46 257.21L117.36 124.55L199.34 237.4L199.95 236.96L117.96 124.11L230.81 206.1L231.25 205.49L118.4 123.5L251.06 166.61L251.3 165.9L118.63 122.79H258.12V122.04Z" fill="url(#paint1_linear_4_271)"/>
</g>
<path d="M185.47 225.46L117.18 187.89C116.884 187.727 116.552 187.642 116.215 187.642C115.878 187.642 115.546 187.727 115.25 187.89L47 225.45C46.6758 225.642 46.304 225.739 45.9273 225.729C45.5507 225.719 45.1845 225.603 44.871 225.394C44.5574 225.185 44.3094 224.891 44.1553 224.547C44.0012 224.203 43.9473 223.823 44 223.45L55.16 148.45C55.2051 148.143 55.178 147.829 55.0808 147.534C54.9836 147.239 54.8189 146.97 54.6 146.75L1.47998 93.54C1.22288 93.2856 1.03956 92.9663 0.949542 92.6161C0.859522 92.2658 0.866167 91.8976 0.968772 91.5508C1.07138 91.204 1.2661 90.8915 1.53221 90.6466C1.79833 90.4017 2.12587 90.2335 2.47998 90.16L75.48 75.39C75.7641 75.3312 76.032 75.2113 76.2651 75.0386C76.4982 74.866 76.6909 74.6446 76.83 74.39L114.55 6.8C114.721 6.48249 114.975 6.21726 115.285 6.0324C115.595 5.84754 115.949 5.74994 116.31 5.74994C116.671 5.74994 117.025 5.84754 117.335 6.0324C117.645 6.21726 117.899 6.48249 118.07 6.8L154.65 75.28C154.794 75.5404 154.995 75.7652 155.237 75.9382C155.479 76.1112 155.757 76.228 156.05 76.28L230 90C230.36 90.0652 230.696 90.228 230.97 90.4707C231.244 90.7134 231.446 91.0266 231.554 91.3763C231.662 91.7259 231.673 92.0986 231.584 92.4537C231.495 92.8087 231.31 93.1326 231.05 93.39L177.55 146.61C177.328 146.833 177.162 147.104 177.064 147.403C176.967 147.702 176.942 148.019 176.99 148.33L188.37 223.33C188.438 223.699 188.4 224.08 188.262 224.429C188.123 224.778 187.889 225.081 187.587 225.303C187.284 225.525 186.925 225.658 186.551 225.685C186.177 225.713 185.802 225.635 185.47 225.46ZM27.81 101.46L68.46 142.08C68.6783 142.304 68.841 142.577 68.9348 142.876C69.0286 143.174 69.0509 143.491 69 143.8L60.74 199.36C60.6954 199.725 60.7521 200.094 60.9039 200.429C61.0556 200.763 61.2966 201.05 61.6003 201.256C61.904 201.463 62.2587 201.582 62.6256 201.6C62.9924 201.618 63.3572 201.535 63.68 201.36L115.23 173C115.526 172.837 115.858 172.752 116.195 172.752C116.532 172.752 116.864 172.837 117.16 173L168.65 201.33C168.973 201.505 169.338 201.588 169.704 201.57C170.071 201.552 170.426 201.433 170.73 201.226C171.033 201.02 171.274 200.733 171.426 200.399C171.578 200.064 171.635 199.695 171.59 199.33L163.17 143.8C163.123 143.491 163.15 143.175 163.247 142.878C163.344 142.582 163.51 142.311 163.73 142.09L204.33 101.69C204.587 101.436 204.77 101.116 204.86 100.766C204.95 100.416 204.944 100.048 204.841 99.7008C204.739 99.354 204.544 99.0415 204.278 98.7966C204.012 98.5517 203.684 98.3835 203.33 98.31L147.53 88C147.237 87.948 146.959 87.8312 146.717 87.6582C146.475 87.4852 146.274 87.2604 146.13 87L117.81 34C117.638 33.685 117.384 33.4221 117.075 33.2389C116.766 33.0558 116.414 32.9592 116.055 32.9592C115.696 32.9592 115.344 33.0558 115.035 33.2389C114.726 33.4221 114.472 33.685 114.3 34L85.3 86C85.1609 86.2546 84.9682 86.476 84.7351 86.6486C84.502 86.8213 84.2341 86.9412 83.95 87L28.83 98.1C28.4762 98.1719 28.1486 98.3382 27.8817 98.5813C27.6148 98.8243 27.4187 99.1351 27.3141 99.4806C27.2095 99.826 27.2004 100.193 27.2877 100.544C27.375 100.894 27.5555 101.214 27.81 101.47V101.46Z" fill="url(#paint2_linear_4_271)"/>
<mask id="mask2_4_271" style="mask-type:luminance" maskUnits="userSpaceOnUse" x="0" y="5" width="232" height="221">
<path d="M185.47 225.46L117.18 187.89C116.884 187.727 116.552 187.642 116.215 187.642C115.878 187.642 115.546 187.727 115.25 187.89L47 225.45C46.6758 225.642 46.304 225.739 45.9273 225.729C45.5507 225.719 45.1845 225.603 44.871 225.394C44.5574 225.185 44.3094 224.891 44.1553 224.547C44.0012 224.203 43.9473 223.823 44 223.45L55.16 148.45C55.2051 148.143 55.178 147.829 55.0808 147.534C54.9836 147.239 54.8189 146.97 54.6 146.75L1.47998 93.54C1.22288 93.2856 1.03956 92.9663 0.949542 92.6161C0.859522 92.2658 0.866167 91.8976 0.968772 91.5508C1.07138 91.204 1.2661 90.8915 1.53221 90.6466C1.79833 90.4017 2.12587 90.2335 2.47998 90.16L75.48 75.39C75.7641 75.3312 76.032 75.2113 76.2651 75.0386C76.4982 74.866 76.6909 74.6446 76.83 74.39L114.55 6.8C114.721 6.48249 114.975 6.21726 115.285 6.0324C115.595 5.84754 115.949 5.74994 116.31 5.74994C116.671 5.74994 117.025 5.84754 117.335 6.0324C117.645 6.21726 117.899 6.48249 118.07 6.8L154.65 75.28C154.794 75.5404 154.995 75.7652 155.237 75.9382C155.479 76.1112 155.757 76.228 156.05 76.28L230 90C230.36 90.0652 230.696 90.228 230.97 90.4707C231.244 90.7134 231.446 91.0266 231.554 91.3763C231.662 91.7259 231.673 92.0986 231.584 92.4537C231.495 92.8087 231.31 93.1326 231.05 93.39L177.55 146.61C177.328 146.833 177.162 147.104 177.064 147.403C176.967 147.702 176.942 148.019 176.99 148.33L188.37 223.33C188.438 223.699 188.4 224.08 188.262 224.429C188.123 224.778 187.889 225.081 187.587 225.303C187.284 225.525 186.925 225.658 186.551 225.685C186.177 225.713 185.802 225.635 185.47 225.46ZM27.81 101.46L68.46 142.08C68.6783 142.304 68.841 142.577 68.9348 142.876C69.0286 143.174 69.0509 143.491 69 143.8L60.74 199.36C60.6954 199.725 60.7521 200.094 60.9039 200.429C61.0556 200.763 61.2966 201.05 61.6003 201.256C61.904 201.463 62.2587 201.582 62.6256 201.6C62.9924 201.618 63.3572 201.535 63.68 201.36L115.23 173C115.526 172.837 115.858 172.752 116.195 172.752C116.532 172.752 116.864 172.837 117.16 173L168.65 201.33C168.973 201.505 169.338 201.588 169.704 201.57C170.071 201.552 170.426 201.433 170.73 201.226C171.033 201.02 171.274 200.733 171.426 200.399C171.578 200.064 171.635 199.695 171.59 199.33L163.17 143.8C163.123 143.491 163.15 143.175 163.247 142.878C163.344 142.582 163.51 142.311 163.73 142.09L204.33 101.69C204.587 101.436 204.77 101.116 204.86 100.766C204.95 100.416 204.944 100.048 204.841 99.7008C204.739 99.354 204.544 99.0415 204.278 98.7966C204.012 98.5517 203.684 98.3835 203.33 98.31L147.53 88C147.237 87.948 146.959 87.8312 146.717 87.6582C146.475 87.4852 146.274 87.2604 146.13 87L117.81 34C117.638 33.685 117.384 33.4221 117.075 33.2389C116.766 33.0558 116.414 32.9592 116.055 32.9592C115.696 32.9592 115.344 33.0558 115.035 33.2389C114.726 33.4221 114.472 33.685 114.3 34L85.3 86C85.1609 86.2546 84.9682 86.476 84.7351 86.6486C84.502 86.8213 84.2341 86.9412 83.95 87L28.83 98.1C28.4762 98.1719 28.1486 98.3382 27.8817 98.5813C27.6148 98.8243 27.4187 99.1351 27.3141 99.4806C27.2095 99.826 27.2004 100.193 27.2877 100.544C27.375 100.894 27.5555 101.214 27.81 101.47V101.46Z" fill="white"/>
</mask>
<g mask="url(#mask2_4_271)">
<path d="M116.64 -19.26H115.89V264.45H116.64V-19.26Z" fill="#C89E3F"/>
<path d="M109.212 -19.0881L108.463 -19.0488L123.311 264.272L124.06 264.233L109.212 -19.0881Z" fill="#C89E3F"/>
<path d="M101.808 -18.5267L101.062 -18.4483L130.718 263.708L131.464 263.629L101.808 -18.5267Z" fill="#C89E3F"/>
<path d="M94.441 -17.5694L93.7003 -17.4521L138.082 262.765L138.823 262.648L94.441 -17.5694Z" fill="#C89E3F"/>
<path d="M87.1367 -16.2399L86.4031 -16.084L145.39 261.426L146.123 261.27L87.1367 -16.2399Z" fill="#C89E3F"/>
<path d="M79.9107 -14.5224L79.1863 -14.3283L152.616 259.715L153.34 259.52L79.9107 -14.5224Z" fill="#C89E3F"/>
<path d="M72.7895 -12.4311L72.0762 -12.1993L159.747 257.625L160.461 257.393L72.7895 -12.4311Z" fill="#C89E3F"/>
<path d="M65.7806 -9.97083L65.0804 -9.70205L166.753 255.164L167.453 254.895L65.7806 -9.97083Z" fill="#C89E3F"/>
<path d="M58.9121 -7.14667L58.227 -6.84161L173.622 252.34L174.307 252.035L58.9121 -7.14667Z" fill="#C89E3F"/>
<path d="M52.1931 -3.96423L51.5248 -3.62373L180.326 249.164L180.995 248.823L52.1931 -3.96423Z" fill="#C89E3F"/>
<path d="M46.1267 -0.516174L45.4742 -0.141174L187.329 246.687L187.982 246.312L46.1267 -0.516174Z" fill="#C89E3F"/>
<path d="M39.3227 3.42053L38.6937 3.829L193.213 241.768L193.842 241.36L39.3227 3.42053Z" fill="#C89E3F"/>
<path d="M33.183 7.60907L32.5762 8.04991L199.337 237.576L199.944 237.135L33.183 7.60907Z" fill="#C89E3F"/>
<path d="M27.2856 12.1183L26.7027 12.5902L205.247 233.074L205.83 232.602L27.2856 12.1183Z" fill="#C89E3F"/>
<path d="M21.6229 16.9296L21.0656 17.4315L210.905 228.269L211.462 227.767L21.6229 16.9296Z" fill="#C89E3F"/>
<path d="M16.218 22.0242L15.6877 22.5545L216.301 223.168L216.831 222.637L16.218 22.0242Z" fill="#C89E3F"/>
<path d="M11.0944 27.4021L10.5925 27.9595L221.43 217.799L221.932 217.241L11.0944 27.4021Z" fill="#C89E3F"/>
<path d="M6.25605 33.033L5.78406 33.6159L226.268 212.16L226.74 211.577L6.25605 33.033Z" fill="#C89E3F"/>
<path d="M1.71757 38.9155L1.27673 39.5223L230.803 206.283L231.244 205.676L1.71757 38.9155Z" fill="#C89E3F"/>
<path d="M-2.50613 45.0277L-2.91461 45.6567L235.025 200.176L235.433 199.547L-2.50613 45.0277Z" fill="#C89E3F"/>
<path d="M-6.39966 51.3468L-6.77466 51.9963L238.925 193.851L239.3 193.202L-6.39966 51.3468Z" fill="#C89E3F"/>
<path d="M-9.95737 57.8591L-10.2979 58.5274L242.49 187.329L242.83 186.661L-9.95737 57.8591Z" fill="#C89E3F"/>
<path d="M-13.1732 64.5603L-13.4782 65.2455L245.704 180.641L246.009 179.956L-13.1732 64.5603Z" fill="#C89E3F"/>
<path d="M-16.0308 71.415L-16.2995 72.1152L248.567 173.788L248.835 173.088L-16.0308 71.415Z" fill="#C89E3F"/>
<path d="M251.06 166.79L-18.76 79.12L-18.53 78.41L251.3 166.08L251.06 166.79Z" fill="#C89E3F"/>
<path d="M253.19 159.68L-20.85 86.25L-20.66 85.52L253.39 158.95L253.19 159.68Z" fill="#C89E3F"/>
<path d="M-22.4183 92.7345L-22.5743 93.4681L254.936 152.455L255.092 151.721L-22.4183 92.7345Z" fill="#C89E3F"/>
<path d="M-23.7864 100.033L-23.9037 100.774L256.313 145.156L256.431 144.415L-23.7864 100.033Z" fill="#C89E3F"/>
<path d="M-24.7723 107.396L-24.8507 108.142L257.305 137.797L257.384 137.052L-24.7723 107.396Z" fill="#C89E3F"/>
<path d="M-25.3793 114.802L-25.4185 115.551L257.903 130.399L257.942 129.65L-25.3793 114.802Z" fill="#C89E3F"/>
<path d="M258.12 122.22H-25.59V122.97H258.12V122.22Z" fill="#C89E3F"/>
<path d="M257.914 114.81L-25.41 129.608L-25.3709 130.357L257.953 115.559L257.914 114.81Z" fill="#C89E3F"/>
<path d="M257.308 107.444L-24.8577 137.001L-24.7796 137.747L257.387 108.19L257.308 107.444Z" fill="#C89E3F"/>
<path d="M256.313 100.092L-23.9191 144.376L-23.802 145.117L256.43 100.833L256.313 100.092Z" fill="#C89E3F"/>
<path d="M254.935 92.6575L-22.5446 151.789L-22.3882 152.523L255.091 93.3911L254.935 92.6575Z" fill="#C89E3F"/>
<path d="M-20.66 159.68L-20.85 158.95L253.19 85.52L253.39 86.25L-20.66 159.68Z" fill="#C89E3F"/>
<path d="M-18.53 166.79L-18.76 166.08L251.06 78.41L251.3 79.12L-18.53 166.79Z" fill="#C89E3F"/>
<path d="M248.514 71.3017L-16.2631 173.205L-15.9937 173.905L248.784 72.0017L248.514 71.3017Z" fill="#C89E3F"/>
<path d="M245.741 64.656L-13.5215 179.87L-13.2169 180.556L246.046 65.3414L245.741 64.656Z" fill="#C89E3F"/>
<path d="M242.528 57.9143L-10.3273 186.584L-9.98716 187.252L242.868 58.5827L242.528 57.9143Z" fill="#C89E3F"/>
<path d="M238.918 51.3556L-6.78162 193.211L-6.40662 193.86L239.293 52.0052L238.918 51.3556Z" fill="#C89E3F"/>
<path d="M235.05 45.0295L-2.91614 199.508L-2.50777 200.137L235.458 45.6586L235.05 45.0295Z" fill="#C89E3F"/>
<path d="M230.736 38.814L1.35571 205.775L1.79708 206.381L231.178 39.4204L230.736 38.814Z" fill="#C89E3F"/>
<path d="M226.217 32.9873L5.82648 211.647L6.29877 212.23L226.689 33.5699L226.217 32.9873Z" fill="#C89E3F"/>
<path d="M221.446 27.4289L10.5752 217.231L11.0769 217.789L221.948 27.9864L221.446 27.4289Z" fill="#C89E3F"/>
<path d="M216.217 21.9495L15.7789 222.738L16.3097 223.268L216.748 22.4794L216.217 21.9495Z" fill="#C89E3F"/>
<path d="M210.98 16.9846L20.9937 227.69L21.5507 228.192L211.537 17.4869L210.98 16.9846Z" fill="#C89E3F"/>
<path d="M205.286 12.1485L26.6647 232.57L27.2474 233.042L205.869 12.6207L205.286 12.1485Z" fill="#C89E3F"/>
<path d="M199.237 7.55707L32.6772 237.229L33.2844 237.669L199.845 7.99738L199.237 7.55707Z" fill="#C89E3F"/>
<path d="M193.188 3.42572L38.7103 241.392L39.3394 241.8L193.817 3.83409L193.188 3.42572Z" fill="#C89E3F"/>
<path d="M186.801 -0.471436L45.0742 245.303L45.7239 245.678L187.45 -0.0967753L186.801 -0.471436Z" fill="#C89E3F"/>
<path d="M180.394 -3.94147L51.4602 248.779L52.1283 249.119L181.062 -3.60063L180.394 -3.94147Z" fill="#C89E3F"/>
<path d="M173.53 -7.19421L58.316 252.068L59.0014 252.373L174.216 -6.88964L173.53 -7.19421Z" fill="#C89E3F"/>
<path d="M166.695 -9.99817L65.1152 254.903L65.8155 255.172L167.396 -9.72964L166.695 -9.99817Z" fill="#C89E3F"/>
<path d="M159.725 -12.4228L72.1012 257.417L72.8145 257.648L160.439 -12.1912L159.725 -12.4228Z" fill="#C89E3F"/>
<path d="M152.64 -14.5196L79.1624 259.51L79.8868 259.705L153.364 -14.3254L152.64 -14.5196Z" fill="#C89E3F"/>
<path d="M145.415 -16.2282L86.3799 261.272L87.1135 261.428L146.149 -16.0722L145.415 -16.2282Z" fill="#C89E3F"/>
<path d="M139.297 -17.7236L93.9034 263.149L94.6459 263.269L140.039 -17.6036L139.297 -17.7236Z" fill="#C89E3F"/>
<path d="M130.676 -18.5223L101.119 263.644L101.865 263.722L131.422 -18.4442L130.676 -18.5223Z" fill="#C89E3F"/>
<path d="M123.288 -19.0834L108.489 264.24L109.238 264.279L124.037 -19.0443L123.288 -19.0834Z" fill="#C89E3F"/>
</g>
<path d="M116.3 6.76997C116.481 6.77046 116.658 6.82 116.813 6.91334C116.968 7.00667 117.095 7.1403 117.18 7.29997L153.76 75.78C153.972 76.178 154.271 76.5231 154.634 76.7897C154.998 77.0564 155.417 77.2376 155.86 77.32L229.86 91.03C230.038 91.0631 230.203 91.1438 230.339 91.2636C230.475 91.3833 230.575 91.5376 230.63 91.71C230.683 91.8837 230.688 92.0685 230.644 92.2447C230.6 92.4209 230.509 92.5817 230.38 92.71L176.89 145.93C176.555 146.263 176.304 146.67 176.156 147.118C176.009 147.567 175.969 148.043 176.04 148.51L187.42 223.51C187.443 223.651 187.435 223.796 187.397 223.934C187.359 224.072 187.292 224.2 187.2 224.31C187.105 224.421 186.987 224.51 186.854 224.57C186.721 224.631 186.576 224.661 186.43 224.66C186.263 224.658 186.098 224.617 185.95 224.54L117.66 187C117.217 186.757 116.72 186.629 116.215 186.629C115.71 186.629 115.213 186.757 114.77 187L46.51 224.57C46.3605 224.655 46.1918 224.699 46.02 224.7C45.8747 224.699 45.7315 224.666 45.6003 224.604C45.469 224.542 45.3529 224.452 45.26 224.34C45.1678 224.232 45.0996 224.106 45.06 223.97C45.0203 223.834 45.0101 223.69 45.03 223.55L56.19 148.55C56.258 148.087 56.2165 147.614 56.0689 147.169C55.9213 146.725 55.6717 146.321 55.34 145.99L2.17997 92.83C2.05143 92.7017 1.96024 92.5409 1.9162 92.3647C1.87215 92.1885 1.87692 92.0037 1.92997 91.83C1.98092 91.6552 2.07863 91.4976 2.21256 91.3742C2.34649 91.2509 2.51156 91.1664 2.68997 91.13L75.69 76.36C76.1098 76.2707 76.5056 76.0924 76.8506 75.8371C77.1957 75.5818 77.4819 75.2554 77.69 74.88L115.43 7.27997C115.517 7.12551 115.643 6.99689 115.796 6.90728C115.949 6.81766 116.123 6.77028 116.3 6.76997ZM62.74 202.66C63.2468 202.661 63.7457 202.534 64.19 202.29L115.73 173.93C115.882 173.842 116.054 173.796 116.23 173.796C116.406 173.796 116.578 173.842 116.73 173.93L168.22 202.26C168.661 202.502 169.157 202.629 169.66 202.63C170.089 202.636 170.515 202.55 170.909 202.378C171.302 202.205 171.654 201.95 171.94 201.63C172.221 201.303 172.427 200.919 172.547 200.505C172.666 200.091 172.694 199.656 172.63 199.23L164.2 143.7C164.177 143.544 164.191 143.385 164.242 143.235C164.292 143.086 164.377 142.95 164.49 142.84L205.08 102.45C205.466 102.064 205.74 101.579 205.871 101.049C206.002 100.519 205.986 99.9632 205.824 99.4415C205.663 98.9197 205.362 98.452 204.954 98.0887C204.546 97.7255 204.047 97.4804 203.51 97.38L147.71 87C147.562 86.9718 147.422 86.9104 147.3 86.8203C147.179 86.7303 147.08 86.6139 147.01 86.48L118.7 33.48C118.444 32.9995 118.062 32.5976 117.595 32.3175C117.129 32.0374 116.594 31.8896 116.05 31.89C115.516 31.8901 114.991 32.033 114.531 32.3037C114.07 32.5744 113.69 32.9633 113.43 33.43L84.38 85.43C84.3099 85.5549 84.2138 85.6633 84.0982 85.7478C83.9826 85.8323 83.8502 85.8911 83.71 85.92L28.63 97.12C28.0984 97.2273 27.6058 97.4766 27.2046 97.8416C26.8035 98.2065 26.5087 98.6733 26.3517 99.1925C26.1948 99.7116 26.1815 100.264 26.3132 100.79C26.445 101.316 26.7169 101.796 27.1 102.18L67.75 142.8C67.8595 142.91 67.9418 143.044 67.9904 143.192C68.039 143.339 68.0525 143.496 68.03 143.65L59.77 199.22C59.7073 199.645 59.7365 200.078 59.8556 200.49C59.9746 200.902 60.1807 201.284 60.46 201.61C60.7463 201.93 61.098 202.185 61.4913 202.358C61.8847 202.53 62.3105 202.616 62.74 202.61M116.3 5.76997C115.948 5.76858 115.601 5.86032 115.295 6.03593C114.99 6.21154 114.736 6.46477 114.56 6.76997L76.82 74.4C76.6809 74.6546 76.4882 74.876 76.2551 75.0486C76.0219 75.2213 75.7541 75.3412 75.47 75.4L2.46997 90.17C2.11586 90.2435 1.78832 90.4117 1.5222 90.6566C1.25609 90.9015 1.06137 91.214 0.958762 91.5608C0.856157 91.9076 0.849512 92.2758 0.939532 92.6261C1.02955 92.9763 1.21287 93.2957 1.46997 93.55L54.63 146.66C54.8504 146.881 55.0159 147.152 55.1131 147.448C55.2104 147.745 55.2367 148.061 55.19 148.37L44 223.4C43.9565 223.687 43.9758 223.979 44.0566 224.258C44.1375 224.536 44.2779 224.794 44.4681 225.012C44.6584 225.231 44.8939 225.406 45.1584 225.525C45.4229 225.643 45.7101 225.703 46 225.7C46.3491 225.703 46.6932 225.617 47 225.45L115.26 187.89C115.556 187.727 115.888 187.642 116.225 187.642C116.562 187.642 116.894 187.727 117.19 187.89L185.48 225.46C185.784 225.633 186.13 225.72 186.48 225.71C186.77 225.713 187.057 225.654 187.322 225.535C187.586 225.416 187.822 225.241 188.012 225.022C188.202 224.804 188.342 224.546 188.423 224.268C188.504 223.989 188.523 223.697 188.48 223.41L177.1 148.41C177.052 148.099 177.077 147.782 177.174 147.483C177.272 147.184 177.438 146.913 177.66 146.69L231.16 93.47C231.447 93.209 231.651 92.8704 231.749 92.4953C231.846 92.1202 231.833 91.7248 231.71 91.3572C231.587 90.9896 231.36 90.6656 231.057 90.4247C230.753 90.1837 230.386 90.0362 230 90L156 76.3C155.707 76.248 155.429 76.1312 155.187 75.9582C154.945 75.7852 154.744 75.5604 154.6 75.3L118.07 6.82997C117.899 6.50912 117.644 6.24089 117.332 6.05413C117.02 5.86737 116.663 5.76913 116.3 5.76997ZM62.74 201.66C62.4501 201.663 62.1629 201.604 61.8984 201.485C61.6339 201.366 61.3984 201.191 61.2081 200.972C61.0179 200.754 60.8775 200.496 60.7966 200.218C60.7158 199.939 60.6965 199.647 60.74 199.36L69 143.8C69.0467 143.491 69.0204 143.175 68.9231 142.878C68.8259 142.582 68.6604 142.311 68.44 142.09L27.81 101.47C27.5556 101.215 27.3746 100.897 27.2862 100.548C27.1978 100.199 27.2051 99.8326 27.3075 99.4875C27.4099 99.1425 27.6035 98.8314 27.868 98.5872C28.1324 98.343 28.4579 98.1747 28.81 98.1L83.9 86.94C84.1841 86.8812 84.4519 86.7613 84.6851 86.5886C84.9182 86.416 85.1109 86.1946 85.25 85.94L114.3 33.94C114.472 33.625 114.726 33.3621 115.035 33.1789C115.344 32.9958 115.696 32.8992 116.055 32.8992C116.414 32.8992 116.766 32.9958 117.075 33.1789C117.384 33.3621 117.638 33.625 117.81 33.94L146.13 86.94C146.274 87.2004 146.475 87.4252 146.717 87.5982C146.959 87.7712 147.237 87.888 147.53 87.94L203.3 98.31C203.654 98.3835 203.982 98.5517 204.248 98.7966C204.514 99.0415 204.709 99.354 204.811 99.7008C204.914 100.048 204.92 100.416 204.83 100.766C204.74 101.116 204.557 101.436 204.3 101.69L163.7 142.09C163.48 142.311 163.314 142.582 163.217 142.878C163.12 143.175 163.093 143.491 163.14 143.8L171.56 199.33C171.605 199.695 171.548 200.064 171.396 200.399C171.244 200.733 171.003 201.02 170.7 201.226C170.396 201.433 170.041 201.552 169.674 201.57C169.308 201.588 168.943 201.505 168.62 201.33L117.13 173C116.834 172.837 116.502 172.752 116.165 172.752C115.828 172.752 115.496 172.837 115.2 173L63.7 201.41C63.3942 201.579 63.0494 201.665 62.7 201.66H62.74Z" fill="url(#paint3_linear_4_271)"/>
<path d="M116.21 165.99C118.844 165.99 120.98 163.854 120.98 161.22C120.98 158.586 118.844 156.45 116.21 156.45C113.576 156.45 111.44 158.586 111.44 161.22C111.44 163.854 113.576 165.99 116.21 165.99Z" fill="black" stroke="url(#paint4_linear_4_271)" stroke-miterlimit="10"/>
<path d="M116.34 86.27C118.974 86.27 121.11 84.1344 121.11 81.5C121.11 78.8656 118.974 76.73 116.34 76.73C113.706 76.73 111.57 78.8656 111.57 81.5C111.57 84.1344 113.706 86.27 116.34 86.27Z" fill="black" stroke="url(#paint5_linear_4_271)" stroke-miterlimit="10"/>
<path d="M137.74 140.61C136.566 140.607 135.441 140.14 134.61 139.31C133.78 138.479 133.313 137.354 133.31 136.18V134.1C131.904 136.268 129.937 138.015 127.617 139.153C125.297 140.291 122.711 140.778 120.136 140.563C117.561 140.347 115.093 139.437 112.994 137.929C110.896 136.421 109.246 134.372 108.22 132C107.197 134.376 105.549 136.429 103.451 137.94C101.352 139.452 98.8825 140.366 96.3054 140.583C93.7284 140.801 91.1406 140.315 88.8183 139.176C86.496 138.038 84.5265 136.29 83.12 134.12V136.2C83.12 137.373 82.6547 138.498 81.826 139.329C80.9974 140.159 79.8732 140.627 78.7 140.63H73.89C72.7159 140.627 71.5907 140.16 70.7605 139.33C69.9302 138.499 69.4627 137.374 69.46 136.2V122H67.81C66.6368 121.997 65.5126 121.529 64.684 120.699C63.8554 119.868 63.39 118.743 63.39 117.57V115.33C63.393 114.321 63.739 113.342 64.3714 112.555C65.0038 111.768 65.8848 111.22 66.87 111C67.8207 110.829 68.7161 110.431 69.48 109.84C70.0494 109.321 70.447 108.641 70.62 107.89C70.8779 106.955 71.4349 106.13 72.206 105.541C72.9771 104.952 73.9199 104.632 74.89 104.63H78.7C79.8732 104.633 80.9974 105.101 81.826 105.931C82.6547 106.762 83.12 107.887 83.12 109.06V111.14C84.5265 108.97 86.496 107.222 88.8183 106.084C91.1406 104.945 93.7284 104.459 96.3054 104.677C98.8825 104.894 101.352 105.808 103.451 107.32C105.549 108.831 107.197 110.884 108.22 113.26C109.244 110.887 110.892 108.836 112.989 107.326C115.087 105.816 117.555 104.904 120.13 104.686C122.705 104.468 125.291 104.954 127.613 106.09C129.934 107.227 131.903 108.972 133.31 111.14V109.14C133.313 107.966 133.78 106.841 134.61 106.01C135.441 105.18 136.566 104.713 137.74 104.71H142.57C143.605 104.71 144.608 105.073 145.403 105.736C146.198 106.4 146.735 107.321 146.92 108.34L147.81 106.87C148.202 106.216 148.756 105.674 149.418 105.296C150.08 104.918 150.828 104.716 151.59 104.71H157.19C158.362 104.71 159.487 105.174 160.319 106C161.151 106.826 161.622 107.948 161.63 109.12C161.64 109.99 161.389 110.843 160.91 111.57L154.43 121.44L162.43 133.82C163.062 134.809 163.277 136.008 163.028 137.154C162.779 138.301 162.086 139.303 161.1 139.94C160.391 140.399 159.564 140.642 158.72 140.64H153.09C152.334 140.642 151.591 140.45 150.931 140.083C150.27 139.715 149.716 139.184 149.32 138.54L147 134.82V136.18C146.997 137.354 146.53 138.479 145.7 139.31C144.869 140.14 143.744 140.607 142.57 140.61H137.74ZM121.33 118.33C121.268 118.327 121.207 118.337 121.149 118.358C121.091 118.379 121.037 118.412 120.992 118.453C120.946 118.495 120.909 118.546 120.883 118.602C120.857 118.658 120.843 118.718 120.84 118.78V126.47C120.84 126.603 120.893 126.73 120.986 126.824C121.08 126.917 121.207 126.97 121.34 126.97C121.473 126.97 121.6 126.917 121.694 126.824C121.787 126.73 121.84 126.603 121.84 126.47V118.78C121.838 118.716 121.822 118.654 121.795 118.597C121.768 118.539 121.729 118.488 121.681 118.446C121.634 118.404 121.578 118.372 121.518 118.352C121.457 118.332 121.393 118.325 121.33 118.33ZM95.11 118.33C95.0483 118.327 94.9866 118.337 94.9286 118.358C94.8705 118.379 94.8172 118.412 94.7717 118.453C94.7262 118.495 94.6894 118.546 94.6633 118.602C94.6373 118.658 94.6226 118.718 94.62 118.78V126.47C94.6226 126.532 94.6373 126.592 94.6633 126.648C94.6894 126.704 94.7262 126.755 94.7717 126.797C94.8172 126.838 94.8705 126.871 94.9286 126.892C94.9866 126.913 95.0483 126.923 95.11 126.92C95.1713 126.923 95.2324 126.913 95.2899 126.892C95.3474 126.871 95.4 126.838 95.4447 126.796C95.4894 126.754 95.5253 126.704 95.5503 126.648C95.5752 126.592 95.5887 126.531 95.59 126.47V118.78C95.5887 118.719 95.5752 118.658 95.5503 118.602C95.5253 118.546 95.4894 118.496 95.4447 118.454C95.4 118.412 95.3474 118.379 95.2899 118.358C95.2324 118.337 95.1713 118.327 95.11 118.33Z" fill="url(#paint6_linear_4_271)"/>
<path d="M74.89 107.64H78.7C79.0775 107.643 79.4387 107.794 79.7047 108.062C79.9707 108.33 80.12 108.692 80.12 109.07V136.18C80.12 136.558 79.9707 136.92 79.7047 137.188C79.4387 137.456 79.0775 137.607 78.7 137.61H73.89C73.7022 137.61 73.5163 137.573 73.3428 137.501C73.1693 137.429 73.0116 137.324 72.8789 137.191C72.7461 137.058 72.6407 136.901 72.5689 136.727C72.497 136.554 72.46 136.368 72.46 136.18V120.44C72.4614 120.249 72.4244 120.059 72.3513 119.883C72.2782 119.706 72.1703 119.546 72.0342 119.412C71.8981 119.277 71.7364 119.172 71.5588 119.101C71.3812 119.03 71.1912 118.996 71 119H67.81C67.4325 118.997 67.0713 118.846 66.8053 118.578C66.5393 118.31 66.39 117.948 66.39 117.57V115.33C66.3891 115.004 66.4997 114.687 66.7034 114.433C66.9071 114.178 67.1917 114.001 67.51 113.93C68.9385 113.661 70.2782 113.042 71.41 112.13C72.4503 111.225 73.184 110.02 73.51 108.68C73.6023 108.387 73.7863 108.132 74.0348 107.952C74.2833 107.772 74.5831 107.677 74.89 107.68M121.33 107.68C124.297 107.669 127.147 108.836 129.254 110.925C131.362 113.014 132.554 115.853 132.57 118.82V126.51C132.57 129.491 131.386 132.35 129.278 134.458C127.17 136.566 124.311 137.75 121.33 137.75C118.349 137.75 115.49 136.566 113.382 134.458C111.274 132.35 110.09 129.491 110.09 126.51V118.82C110.097 117.351 110.392 115.897 110.961 114.542C111.529 113.186 112.359 111.957 113.403 110.922C114.447 109.888 115.684 109.069 117.044 108.513C118.404 107.956 119.861 107.673 121.33 107.68ZM121.33 129.96C121.786 129.963 122.237 129.875 122.659 129.704C123.081 129.532 123.465 129.278 123.79 128.958C124.114 128.637 124.371 128.256 124.548 127.836C124.725 127.416 124.817 126.966 124.82 126.51V118.82C124.82 117.892 124.451 117.002 123.795 116.345C123.139 115.689 122.248 115.32 121.32 115.32C120.392 115.32 119.502 115.689 118.845 116.345C118.189 117.002 117.82 117.892 117.82 118.82V126.51C117.823 126.966 117.915 127.416 118.092 127.836C118.269 128.256 118.526 128.637 118.85 128.958C119.175 129.278 119.559 129.532 119.981 129.704C120.403 129.875 120.854 129.963 121.31 129.96M95.11 107.64C98.0761 107.629 100.925 108.797 103.031 110.886C105.137 112.975 106.327 115.814 106.34 118.78V126.47C106.253 129.392 105.031 132.164 102.933 134.2C100.836 136.236 98.028 137.375 95.105 137.375C92.182 137.375 89.374 136.236 87.2766 134.2C85.1791 132.164 83.9572 129.392 83.87 126.47V118.78C83.8766 117.311 84.1725 115.857 84.7409 114.502C85.3093 113.146 86.1391 111.917 87.1828 110.882C88.2265 109.848 89.4638 109.029 90.824 108.473C92.1841 107.916 93.6405 107.633 95.11 107.64ZM95.11 129.92C95.5652 129.923 96.0165 129.835 96.4379 129.663C96.8594 129.491 97.2427 129.238 97.566 128.917C97.8893 128.597 98.1461 128.216 98.3219 127.796C98.4976 127.376 98.5887 126.925 98.59 126.47V118.78C98.59 117.852 98.2213 116.962 97.5649 116.305C96.9085 115.649 96.0183 115.28 95.09 115.28C94.1618 115.28 93.2715 115.649 92.6151 116.305C91.9588 116.962 91.59 117.852 91.59 118.78V126.47C91.5926 126.926 91.685 127.376 91.8618 127.796C92.0386 128.216 92.2964 128.597 92.6205 128.918C92.9446 129.238 93.3286 129.492 93.7506 129.664C94.1726 129.835 94.6243 129.923 95.08 129.92M157.18 107.65C157.556 107.653 157.915 107.803 158.181 108.069C158.447 108.335 158.597 108.694 158.6 109.07C158.605 109.351 158.525 109.626 158.37 109.86L150.84 121.34V121.44L150.92 121.59L159.8 135.38C159.904 135.539 159.975 135.718 160.01 135.905C160.045 136.092 160.042 136.284 160.002 136.47C159.962 136.656 159.885 136.832 159.777 136.988C159.669 137.144 159.53 137.278 159.37 137.38C159.138 137.522 158.872 137.598 158.6 137.6H152.97C152.726 137.599 152.486 137.535 152.273 137.417C152.059 137.298 151.88 137.127 151.75 136.92L144.68 125.52L144.29 124.9C144.045 125.175 143.913 125.532 143.92 125.9V136.2C143.92 136.388 143.883 136.574 143.811 136.747C143.739 136.921 143.634 137.078 143.501 137.211C143.368 137.344 143.211 137.449 143.037 137.521C142.864 137.593 142.678 137.63 142.49 137.63H137.66C137.472 137.63 137.286 137.593 137.113 137.521C136.939 137.449 136.782 137.344 136.649 137.211C136.516 137.078 136.411 136.921 136.339 136.747C136.267 136.574 136.23 136.388 136.23 136.2V109.11C136.23 108.922 136.267 108.736 136.339 108.563C136.411 108.389 136.516 108.232 136.649 108.099C136.782 107.966 136.939 107.861 137.113 107.789C137.286 107.717 137.472 107.68 137.66 107.68H142.49C142.678 107.68 142.864 107.717 143.037 107.789C143.211 107.861 143.368 107.966 143.501 108.099C143.634 108.232 143.739 108.389 143.811 108.563C143.883 108.736 143.92 108.922 143.92 109.11V116.49C143.919 116.568 143.933 116.645 143.962 116.717C143.991 116.79 144.035 116.855 144.09 116.91C144.145 116.965 144.21 117.009 144.283 117.038C144.355 117.067 144.432 117.081 144.51 117.08C144.69 117.084 144.867 117.04 145.024 116.952C145.18 116.864 145.31 116.736 145.4 116.58L150.3 108.37C150.428 108.161 150.607 107.987 150.82 107.867C151.034 107.746 151.275 107.682 151.52 107.68H157.12M121.24 101.68C118.751 101.674 116.29 102.207 114.027 103.243C111.764 104.279 109.752 105.792 108.13 107.68C105.298 104.401 101.337 102.306 97.0325 101.809C92.7281 101.313 88.3943 102.452 84.89 105C84.215 103.975 83.2962 103.133 82.2159 102.55C81.1356 101.967 79.9276 101.661 78.7 101.66H74.89C73.2656 101.664 71.6868 102.198 70.3943 103.182C69.1017 104.166 68.1661 105.545 67.73 107.11C67.6952 107.277 67.6308 107.436 67.54 107.58C67.1448 107.851 66.6936 108.028 66.22 108.1C64.5699 108.471 63.0946 109.392 62.0355 110.711C60.9764 112.029 60.3963 113.669 60.39 115.36V117.6C60.3907 119.335 60.9977 121.015 62.1061 122.35C63.2145 123.685 64.7546 124.591 66.46 124.91V136.2C66.46 138.171 67.2428 140.06 68.6362 141.454C70.0296 142.847 71.9195 143.63 73.89 143.63H78.7C79.9276 143.629 81.1356 143.323 82.2159 142.74C83.2962 142.157 84.215 141.315 84.89 140.29C88.4023 142.863 92.7567 144.016 97.0822 143.517C101.408 143.019 105.386 140.905 108.22 137.6C111.053 140.905 115.029 143.018 119.353 143.516C123.677 144.015 128.029 142.863 131.54 140.29C132.217 141.316 133.137 142.158 134.219 142.741C135.301 143.324 136.511 143.63 137.74 143.63H142.57C143.542 143.63 144.504 143.439 145.401 143.067C146.299 142.694 147.114 142.148 147.8 141.46C148.488 142.151 149.307 142.698 150.208 143.07C151.109 143.443 152.075 143.633 153.05 143.63H158.71C160.04 143.622 161.343 143.257 162.484 142.574C163.624 141.89 164.561 140.913 165.195 139.745C165.829 138.576 166.139 137.259 166.09 135.93C166.042 134.601 165.638 133.309 164.92 132.19L158 121.39L163.41 113.15C164.144 112.03 164.561 110.732 164.617 109.394C164.674 108.056 164.368 106.728 163.732 105.55C163.095 104.371 162.152 103.387 161.003 102.701C159.853 102.014 158.539 101.651 157.2 101.65H151.6C149.979 101.665 148.407 102.205 147.12 103.19C145.824 102.193 144.235 101.652 142.6 101.65H137.77C136.547 101.651 135.343 101.953 134.265 102.53C133.187 103.108 132.268 103.942 131.59 104.96C128.625 102.78 125.04 101.606 121.36 101.61L121.24 101.68Z" fill="black"/>
<path d="M80.12 109.07V136.18C80.12 136.558 79.9707 136.92 79.7047 137.188C79.4387 137.456 79.0775 137.607 78.7 137.61H73.89C73.7022 137.61 73.5163 137.573 73.3428 137.501C73.1693 137.429 73.0116 137.324 72.8789 137.191C72.7461 137.058 72.6407 136.901 72.5689 136.727C72.497 136.554 72.46 136.368 72.46 136.18V120.44C72.4614 120.249 72.4244 120.059 72.3513 119.883C72.2782 119.706 72.1703 119.546 72.0342 119.412C71.8981 119.277 71.7364 119.172 71.5588 119.101C71.3812 119.03 71.1912 118.996 71 119H67.81C67.4325 118.997 67.0713 118.846 66.8053 118.578C66.5393 118.31 66.39 117.948 66.39 117.57V115.33C66.3891 115.004 66.4997 114.687 66.7034 114.433C66.9071 114.178 67.1917 114.001 67.51 113.93C68.9385 113.661 70.2782 113.042 71.41 112.13C72.4503 111.225 73.184 110.02 73.51 108.68C73.6023 108.387 73.7863 108.132 74.0348 107.952C74.2833 107.772 74.5831 107.677 74.89 107.68H78.7C79.0707 107.682 79.426 107.829 79.6909 108.088C79.9558 108.347 80.1097 108.699 80.12 109.07ZM95.12 107.64C98.0861 107.629 100.935 108.797 103.041 110.886C105.147 112.975 106.337 115.814 106.35 118.78V126.47C106.263 129.392 105.041 132.164 102.943 134.2C100.846 136.236 98.038 137.375 95.115 137.375C92.192 137.375 89.384 136.236 87.2866 134.2C85.1891 132.164 83.9672 129.392 83.88 126.47V118.78C83.8933 115.814 85.0835 112.975 87.1893 110.886C89.295 108.797 92.144 107.629 95.11 107.64H95.12ZM95.12 115.33C94.6643 115.327 94.2126 115.415 93.7906 115.586C93.3686 115.758 92.9846 116.012 92.6605 116.332C92.3364 116.653 92.0786 117.034 91.9018 117.454C91.725 117.874 91.6326 118.324 91.63 118.78V126.47C91.63 127.398 91.9988 128.288 92.6551 128.945C93.3115 129.601 94.2018 129.97 95.13 129.97C96.0583 129.97 96.9485 129.601 97.6049 128.945C98.2613 128.288 98.63 127.398 98.63 126.47V118.78C98.6288 118.321 98.5363 117.868 98.3581 117.445C98.1799 117.022 97.9195 116.639 97.5919 116.318C97.2644 115.997 96.8763 115.745 96.4502 115.575C96.0241 115.405 95.5686 115.322 95.11 115.33H95.12ZM121.34 107.64C124.307 107.629 127.157 108.796 129.264 110.885C131.372 112.974 132.564 115.813 132.58 118.78V126.47C132.58 129.451 131.396 132.31 129.288 134.418C127.18 136.526 124.321 137.71 121.34 137.71C118.359 137.71 115.5 136.526 113.392 134.418C111.284 132.31 110.1 129.451 110.1 126.47V118.78C110.113 115.814 111.304 112.975 113.409 110.886C115.515 108.797 118.364 107.629 121.33 107.64H121.34ZM121.34 115.33C120.884 115.327 120.433 115.415 120.011 115.586C119.589 115.758 119.205 116.012 118.88 116.332C118.556 116.653 118.299 117.034 118.122 117.454C117.945 117.874 117.853 118.324 117.85 118.78V126.47C117.85 127.398 118.219 128.288 118.875 128.945C119.532 129.601 120.422 129.97 121.35 129.97C122.278 129.97 123.169 129.601 123.825 128.945C124.481 128.288 124.85 127.398 124.85 126.47V118.78C124.847 118.322 124.754 117.869 124.575 117.447C124.397 117.025 124.136 116.642 123.809 116.321C123.482 116.001 123.094 115.748 122.669 115.578C122.243 115.408 121.788 115.323 121.33 115.33H121.34ZM157.21 107.65C157.588 107.65 157.95 107.799 158.218 108.065C158.486 108.331 158.637 108.692 158.64 109.07C158.641 109.35 158.561 109.624 158.41 109.86L150.88 121.34V121.44C150.903 121.492 150.929 121.542 150.96 121.59L159.84 135.38C159.944 135.539 160.015 135.718 160.05 135.905C160.085 136.092 160.082 136.284 160.042 136.47C160.002 136.656 159.925 136.832 159.817 136.988C159.709 137.144 159.57 137.278 159.41 137.38C159.178 137.522 158.912 137.598 158.64 137.6H153.01C152.766 137.598 152.527 137.534 152.313 137.415C152.1 137.297 151.92 137.126 151.79 136.92L144.72 125.52L144.33 124.9C144.085 125.175 143.953 125.532 143.96 125.9V136.2C143.96 136.579 143.809 136.943 143.541 137.211C143.273 137.479 142.909 137.63 142.53 137.63H137.7C137.321 137.63 136.957 137.479 136.689 137.211C136.421 136.943 136.27 136.579 136.27 136.2V109.11C136.27 108.731 136.421 108.367 136.689 108.099C136.957 107.831 137.321 107.68 137.7 107.68H142.53C142.909 107.68 143.273 107.831 143.541 108.099C143.809 108.367 143.96 108.731 143.96 109.11V116.49C143.959 116.568 143.973 116.645 144.002 116.717C144.031 116.79 144.075 116.855 144.13 116.91C144.185 116.965 144.25 117.009 144.323 117.038C144.395 117.067 144.472 117.081 144.55 117.08C144.73 117.084 144.907 117.04 145.064 116.952C145.22 116.864 145.35 116.736 145.44 116.58L150.34 108.37C150.468 108.161 150.647 107.987 150.86 107.867C151.074 107.746 151.315 107.682 151.56 107.68L157.21 107.65Z" fill="url(#paint7_linear_4_271)"/>
<path d="M157.21 107.65V108.4C157.389 108.403 157.559 108.475 157.684 108.603C157.81 108.73 157.88 108.901 157.88 109.08C157.884 109.212 157.845 109.342 157.77 109.45L150.25 120.93L150.01 121.28L150.2 121.66V121.76L150.33 121.99L159.21 135.79C159.304 135.942 159.336 136.125 159.3 136.3C159.282 136.388 159.246 136.472 159.195 136.546C159.143 136.62 159.077 136.683 159 136.73C158.892 136.798 158.767 136.833 158.64 136.83H153.01C152.894 136.831 152.78 136.801 152.678 136.745C152.577 136.689 152.491 136.608 152.43 136.51L145.35 125.1L144.97 124.49L144.45 123.65L143.78 124.37C143.412 124.775 143.208 125.303 143.21 125.85V136.15C143.21 136.33 143.138 136.503 143.011 136.631C142.883 136.758 142.71 136.83 142.53 136.83H137.7C137.52 136.83 137.347 136.758 137.219 136.631C137.092 136.503 137.02 136.33 137.02 136.15V109.11C137.023 108.93 137.095 108.759 137.222 108.632C137.349 108.505 137.52 108.433 137.7 108.43H142.53C142.71 108.433 142.881 108.505 143.008 108.632C143.135 108.759 143.207 108.93 143.21 109.11V116.49C143.21 116.666 143.245 116.84 143.312 117.003C143.379 117.165 143.478 117.313 143.602 117.438C143.727 117.562 143.875 117.661 144.037 117.728C144.2 117.795 144.374 117.83 144.55 117.83C144.859 117.828 145.163 117.747 145.433 117.595C145.702 117.442 145.928 117.224 146.09 116.96L150.99 108.76C151.049 108.661 151.133 108.579 151.232 108.521C151.332 108.464 151.445 108.432 151.56 108.43H157.16V107.68M121.28 108.42C124.048 108.409 126.707 109.497 128.674 111.445C130.641 113.393 131.754 116.042 131.77 118.81V126.5C131.77 129.285 130.664 131.955 128.695 133.925C126.725 135.894 124.055 137 121.27 137C118.485 137 115.815 135.894 113.845 133.925C111.876 131.955 110.77 129.285 110.77 126.5V118.81C110.786 116.042 111.899 113.393 113.866 111.445C115.833 109.497 118.492 108.409 121.26 108.42M121.26 130.7C122.378 130.703 123.452 130.262 124.247 129.475C125.042 128.688 125.492 127.618 125.5 126.5V118.81C125.5 117.685 125.053 116.607 124.258 115.812C123.463 115.017 122.385 114.57 121.26 114.57C120.135 114.57 119.057 115.017 118.262 115.812C117.467 116.607 117.02 117.685 117.02 118.81V126.5C117.023 127.054 117.134 127.602 117.349 128.113C117.563 128.624 117.876 129.088 118.27 129.478C118.664 129.868 119.131 130.177 119.644 130.386C120.157 130.596 120.706 130.703 121.26 130.7ZM95.11 108.39C97.8763 108.382 100.533 109.471 102.498 111.419C104.462 113.367 105.574 116.014 105.59 118.78V126.47C105.59 129.255 104.484 131.925 102.515 133.895C100.545 135.864 97.8748 136.97 95.09 136.97C92.3052 136.97 89.6345 135.864 87.6654 133.895C85.6962 131.925 84.59 129.255 84.59 126.47V118.78C84.6059 116.012 85.7193 113.363 87.686 111.415C89.6527 109.467 92.3119 108.379 95.08 108.39M95.08 130.67C96.1975 130.673 97.2704 130.232 98.0634 129.445C98.8564 128.657 99.3047 127.587 99.31 126.47V118.78C99.2571 117.692 98.7879 116.667 97.9994 115.916C97.211 115.165 96.1639 114.746 95.075 114.746C93.9861 114.746 92.939 115.165 92.1505 115.916C91.3621 116.667 90.8929 117.692 90.84 118.78V126.47C90.8426 127.024 90.9544 127.572 91.1689 128.083C91.3834 128.594 91.6964 129.058 92.0901 129.448C92.4839 129.838 92.9505 130.147 93.4635 130.356C93.9765 130.566 94.5258 130.673 95.08 130.67ZM78.7 108.39C78.7888 108.39 78.8768 108.408 78.9587 108.442C79.0407 108.476 79.115 108.526 79.1773 108.59C79.2397 108.653 79.2888 108.728 79.3219 108.811C79.355 108.893 79.3713 108.981 79.37 109.07V136.18C79.3713 136.269 79.355 136.357 79.3219 136.439C79.2888 136.522 79.2397 136.597 79.1773 136.66C79.115 136.724 79.0407 136.774 78.9587 136.808C78.8768 136.842 78.7888 136.86 78.7 136.86H73.89C73.8003 136.861 73.7113 136.845 73.6282 136.811C73.5451 136.777 73.4696 136.727 73.4062 136.664C73.3427 136.6 73.2927 136.525 73.259 136.442C73.2253 136.359 73.2086 136.27 73.21 136.18V120.44C73.2087 120.152 73.1504 119.866 73.0385 119.6C72.9266 119.334 72.7633 119.093 72.558 118.891C72.3526 118.688 72.1093 118.528 71.8419 118.42C71.5745 118.312 71.2884 118.257 71 118.26H67.81C67.7212 118.26 67.6332 118.242 67.5513 118.208C67.4693 118.174 67.395 118.124 67.3327 118.06C67.2703 117.997 67.2212 117.922 67.1881 117.839C67.155 117.757 67.1387 117.669 67.14 117.58V115.34C67.1389 115.186 67.191 115.036 67.2876 114.916C67.3841 114.795 67.5192 114.712 67.67 114.68C69.2205 114.364 70.6717 113.678 71.9 112.68C73.053 111.674 73.8668 110.336 74.23 108.85C74.2711 108.706 74.3577 108.58 74.4767 108.49C74.5957 108.4 74.7407 108.351 74.89 108.35H78.7M74.89 107.6C74.5831 107.597 74.2833 107.692 74.0348 107.872C73.7862 108.052 73.6023 108.307 73.51 108.6C73.184 109.94 72.4502 111.145 71.41 112.05C70.2782 112.962 68.9385 113.581 67.51 113.85C67.1917 113.921 66.9071 114.098 66.7034 114.353C66.4996 114.607 66.3891 114.924 66.39 115.25V117.49C66.3791 117.684 66.4078 117.877 66.4741 118.059C66.5405 118.242 66.6432 118.408 66.776 118.55C66.9088 118.691 67.069 118.804 67.2467 118.881C67.4245 118.958 67.6161 118.999 67.81 119H71C71.3793 119 71.743 119.151 72.0112 119.419C72.2793 119.687 72.43 120.051 72.43 120.43V136.17C72.43 136.549 72.5807 136.913 72.8488 137.181C73.117 137.449 73.4807 137.6 73.86 137.6H78.7C79.0775 137.597 79.4387 137.446 79.7047 137.178C79.9707 136.91 80.12 136.548 80.12 136.17V109.07C80.12 108.692 79.9707 108.33 79.7047 108.062C79.4387 107.794 79.0775 107.643 78.7 107.64L74.89 107.6ZM121.33 107.6C119.861 107.593 118.404 107.876 117.044 108.433C115.684 108.989 114.447 109.808 113.403 110.842C112.359 111.877 111.529 113.106 110.961 114.462C110.392 115.817 110.097 117.271 110.09 118.74V126.43C110.09 129.411 111.274 132.27 113.382 134.378C115.49 136.486 118.349 137.67 121.33 137.67C124.311 137.67 127.17 136.486 129.278 134.378C131.386 132.27 132.57 129.411 132.57 126.43V118.74C132.554 115.773 131.362 112.934 129.254 110.845C127.147 108.756 124.297 107.589 121.33 107.6ZM121.33 129.88C120.874 129.883 120.423 129.795 120.001 129.624C119.579 129.452 119.195 129.198 118.87 128.878C118.546 128.557 118.289 128.176 118.112 127.756C117.935 127.336 117.843 126.886 117.84 126.43V118.74C117.84 117.812 118.209 116.922 118.865 116.265C119.522 115.609 120.412 115.24 121.34 115.24C122.268 115.24 123.158 115.609 123.815 116.265C124.471 116.922 124.84 117.812 124.84 118.74V126.43C124.837 126.886 124.745 127.336 124.568 127.756C124.391 128.176 124.134 128.557 123.81 128.878C123.485 129.198 123.101 129.452 122.679 129.624C122.257 129.795 121.806 129.883 121.35 129.88H121.33ZM95.11 107.64C93.6405 107.633 92.1841 107.916 90.8239 108.473C89.4638 109.029 88.2265 109.848 87.1828 110.882C86.1391 111.917 85.3093 113.146 84.7409 114.502C84.1725 115.857 83.8766 117.311 83.87 118.78V126.47C83.9572 129.392 85.1791 132.164 87.2765 134.2C89.374 136.236 92.182 137.375 95.105 137.375C98.028 137.375 100.836 136.236 102.933 134.2C105.031 132.164 106.253 129.392 106.34 126.47V118.78C106.327 115.814 105.136 112.975 103.031 110.886C100.925 108.797 98.0761 107.629 95.11 107.64ZM95.11 129.92C94.6543 129.923 94.2026 129.835 93.7806 129.664C93.3585 129.492 92.9745 129.238 92.6505 128.918C92.3264 128.597 92.0686 128.216 91.8918 127.796C91.715 127.376 91.6226 126.926 91.62 126.47V118.78C91.62 117.852 91.9887 116.962 92.6451 116.305C93.3015 115.649 94.1917 115.28 95.12 115.28C96.0483 115.28 96.9385 115.649 97.5949 116.305C98.2512 116.962 98.62 117.852 98.62 118.78V126.47C98.6187 126.925 98.5276 127.376 98.3518 127.796C98.1761 128.216 97.9193 128.597 97.596 128.917C97.2727 129.238 96.8894 129.491 96.4679 129.663C96.0465 129.835 95.5952 129.923 95.14 129.92H95.11ZM157.21 107.65H151.61C151.365 107.652 151.124 107.716 150.91 107.837C150.697 107.957 150.518 108.131 150.39 108.34L145.49 116.55C145.4 116.706 145.27 116.834 145.114 116.922C144.957 117.01 144.78 117.054 144.6 117.05C144.522 117.051 144.445 117.037 144.373 117.008C144.3 116.979 144.235 116.935 144.18 116.88C144.125 116.825 144.081 116.76 144.052 116.687C144.023 116.615 144.009 116.538 144.01 116.46V109.08C144.01 108.892 143.973 108.706 143.901 108.533C143.829 108.359 143.724 108.202 143.591 108.069C143.458 107.936 143.301 107.831 143.127 107.759C142.954 107.687 142.768 107.65 142.58 107.65H137.75C137.371 107.65 137.007 107.801 136.739 108.069C136.471 108.337 136.32 108.701 136.32 109.08V136.15C136.32 136.529 136.471 136.893 136.739 137.161C137.007 137.429 137.371 137.58 137.75 137.58H142.58C142.768 137.58 142.954 137.543 143.127 137.471C143.301 137.399 143.458 137.294 143.591 137.161C143.724 137.028 143.829 136.871 143.901 136.697C143.973 136.524 144.01 136.338 144.01 136.15V125.85C144.003 125.482 144.135 125.125 144.38 124.85L144.77 125.47L151.84 136.87C151.97 137.077 152.149 137.248 152.363 137.367C152.576 137.485 152.816 137.549 153.06 137.55H158.69C158.962 137.548 159.228 137.472 159.46 137.33C159.62 137.228 159.759 137.094 159.867 136.938C159.975 136.782 160.052 136.606 160.092 136.42C160.132 136.234 160.135 136.042 160.1 135.855C160.065 135.668 159.994 135.489 159.89 135.33L151 121.59L150.92 121.44V121.34L158.45 109.86C158.605 109.626 158.685 109.351 158.68 109.07C158.677 108.694 158.527 108.335 158.261 108.069C157.995 107.803 157.636 107.653 157.26 107.65H157.21Z" fill="url(#paint8_linear_4_271)"/>
</g>
<defs>
<linearGradient id="paint0_linear_4_271" x1="140.71" y1="-16.2" x2="91.83" y2="261.03" gradientUnits="userSpaceOnUse">
<stop offset="0.25" stop-color="#F6E594"/>
<stop offset="0.38" stop-color="#F5E492"/>
<stop offset="0.43" stop-color="#F2DE8B"/>
<stop offset="0.47" stop-color="#ECD580"/>
<stop offset="0.49" stop-color="#E4C86F"/>
<stop offset="0.5" stop-color="#E2C46A"/>
<stop offset="0.61" stop-color="#C89E3F"/>
<stop offset="0.72" stop-color="#E8D17E"/>
<stop offset="0.76" stop-color="#E5CE7C"/>
<stop offset="0.79" stop-color="#DCC574"/>
<stop offset="0.81" stop-color="#CDB568"/>
<stop offset="0.83" stop-color="#B79F57"/>
<stop offset="0.86" stop-color="#9B8240"/>
<stop offset="0.88" stop-color="#684E18"/>
</linearGradient>
<linearGradient id="paint1_linear_4_271" x1="140.67" y1="-15.98" x2="91.86" y2="260.81" gradientUnits="userSpaceOnUse">
<stop offset="0.25" stop-color="#F6E594"/>
<stop offset="0.38" stop-color="#F5E492"/>
<stop offset="0.43" stop-color="#F2DE8B"/>
<stop offset="0.47" stop-color="#ECD580"/>
<stop offset="0.49" stop-color="#E4C86F"/>
<stop offset="0.5" stop-color="#E2C46A"/>
<stop offset="0.61" stop-color="#C89E3F"/>
<stop offset="0.72" stop-color="#E8D17E"/>
<stop offset="0.76" stop-color="#E5CE7C"/>
<stop offset="0.79" stop-color="#DCC574"/>
<stop offset="0.81" stop-color="#CDB568"/>
<stop offset="0.83" stop-color="#B79F57"/>
<stop offset="0.86" stop-color="#9B8240"/>
<stop offset="0.88" stop-color="#684E18"/>
</linearGradient>
<linearGradient id="paint2_linear_4_271" x1="146.14" y1="16.5" x2="67.15" y2="233.51" gradientUnits="userSpaceOnUse">
<stop stop-color="#F6E594"/>
<stop offset="0.33" stop-color="#F6E492"/>
<stop offset="0.45" stop-color="#F4DF8B"/>
<stop offset="0.53" stop-color="#F2D880"/>
<stop offset="0.6" stop-color="#EFCD6F"/>
<stop offset="0.65" stop-color="#EBC15C"/>
<stop offset="0.7" stop-color="#C89D47"/>
<stop offset="0.82" stop-color="#7A4D18"/>
<stop offset="0.97" stop-color="#C1914C"/>
</linearGradient>
<linearGradient id="paint3_linear_4_271" x1="166.09" y1="34.2" x2="53.02" y2="230.04" gradientUnits="userSpaceOnUse">
<stop stop-color="#FFFFAD"/>
<stop offset="0.26" stop-color="#F6E594"/>
<stop offset="0.34" stop-color="#F5E492"/>
<stop offset="0.37" stop-color="#F2DE8B"/>
<stop offset="0.39" stop-color="#ECD580"/>
<stop offset="0.41" stop-color="#E2C46A"/>
<stop offset="0.51" stop-color="#A68C46"/>
<stop offset="0.66" stop-color="#564217"/>
<stop offset="0.68" stop-color="#75612D"/>
<stop offset="0.73" stop-color="#C7B167"/>
<stop offset="0.75" stop-color="#E8D17E"/>
<stop offset="0.78" stop-color="#E5CE7C"/>
<stop offset="0.81" stop-color="#DDC574"/>
<stop offset="0.83" stop-color="#CFB568"/>
<stop offset="0.85" stop-color="#BB9F56"/>
<stop offset="0.86" stop-color="#A2823F"/>
<stop offset="0.88" stop-color="#825E23"/>
<stop offset="0.9" stop-color="#5B3200"/>
</linearGradient>
<linearGradient id="paint4_linear_4_271" x1="116.21" y1="155.95" x2="116.21" y2="166.49" gradientUnits="userSpaceOnUse">
<stop stop-color="#F6E594"/>
<stop offset="0.21" stop-color="#F5E492"/>
<stop offset="0.29" stop-color="#F2DE8B"/>
<stop offset="0.34" stop-color="#ECD580"/>
<stop offset="0.39" stop-color="#E4C86F"/>
<stop offset="0.4" stop-color="#E2C46A"/>
<stop offset="0.49" stop-color="#BA9D4E"/>
<stop offset="0.69" stop-color="#6A4E17"/>
<stop offset="0.72" stop-color="#6F531B"/>
<stop offset="0.75" stop-color="#7D6227"/>
<stop offset="0.79" stop-color="#957B3A"/>
<stop offset="0.83" stop-color="#B69D55"/>
<stop offset="0.86" stop-color="#E0C977"/>
<stop offset="0.87" stop-color="#E8D17E"/>
<stop offset="0.9" stop-color="#E5CE7C"/>
<stop offset="0.92" stop-color="#DCC574"/>
<stop offset="0.94" stop-color="#CDB568"/>
<stop offset="0.96" stop-color="#B79F57"/>
<stop offset="0.98" stop-color="#9B8240"/>
<stop offset="0.99" stop-color="#785F25"/>
<stop offset="1" stop-color="#684E18"/>
</linearGradient>
<linearGradient id="paint5_linear_4_271" x1="116.34" y1="76.23" x2="116.34" y2="86.77" gradientUnits="userSpaceOnUse">
<stop stop-color="#F6E594"/>
<stop offset="0.21" stop-color="#F5E492"/>
<stop offset="0.29" stop-color="#F2DE8B"/>
<stop offset="0.34" stop-color="#ECD580"/>
<stop offset="0.39" stop-color="#E4C86F"/>
<stop offset="0.4" stop-color="#E2C46A"/>
<stop offset="0.49" stop-color="#BA9D4E"/>
<stop offset="0.69" stop-color="#6A4E17"/>
<stop offset="0.72" stop-color="#6F531B"/>
<stop offset="0.75" stop-color="#7D6227"/>
<stop offset="0.79" stop-color="#957B3A"/>
<stop offset="0.83" stop-color="#B69D55"/>
<stop offset="0.86" stop-color="#E0C977"/>
<stop offset="0.87" stop-color="#E8D17E"/>
<stop offset="0.9" stop-color="#E5CE7C"/>
<stop offset="0.92" stop-color="#DCC574"/>
<stop offset="0.94" stop-color="#CDB568"/>
<stop offset="0.96" stop-color="#B79F57"/>
<stop offset="0.98" stop-color="#9B8240"/>
<stop offset="0.99" stop-color="#785F25"/>
<stop offset="1" stop-color="#684E18"/>
</linearGradient>
<linearGradient id="paint6_linear_4_271" x1="133.67" y1="90.38" x2="96.68" y2="154.45" gradientUnits="userSpaceOnUse">
<stop stop-color="#F6E594"/>
<stop offset="0.36" stop-color="#F6E492"/>
<stop offset="0.5" stop-color="#F4DF8B"/>
<stop offset="0.59" stop-color="#F2D880"/>
<stop offset="0.66" stop-color="#EFCD6F"/>
<stop offset="0.72" stop-color="#EBC15C"/>
<stop offset="0.77" stop-color="#C89D47"/>
<stop offset="0.88" stop-color="#7A4D18"/>
<stop offset="0.95" stop-color="#C1914C"/>
<stop offset="0.96" stop-color="#BE8F4A"/>
<stop offset="0.97" stop-color="#B58742"/>
<stop offset="0.98" stop-color="#A57B36"/>
<stop offset="0.99" stop-color="#8F6924"/>
<stop offset="1" stop-color="#624600"/>
</linearGradient>
<linearGradient id="paint7_linear_4_271" x1="113.25" y1="104.44" x2="113.25" y2="151.99" gradientUnits="userSpaceOnUse">
<stop stop-color="#F6E594"/>
<stop offset="0.17" stop-color="#F6E492"/>
<stop offset="0.24" stop-color="#F4DF8B"/>
<stop offset="0.28" stop-color="#F2D880"/>
<stop offset="0.32" stop-color="#EFCD6F"/>
<stop offset="0.35" stop-color="#EBC15C"/>
<stop offset="0.4" stop-color="#C89D47"/>
<stop offset="0.54" stop-color="#7A4D18"/>
<stop offset="0.66" stop-color="#B68644"/>
<stop offset="0.77" stop-color="#C1914C"/>
<stop offset="0.8" stop-color="#C3944E"/>
<stop offset="0.82" stop-color="#C99D56"/>
<stop offset="0.84" stop-color="#D3AD63"/>
<stop offset="0.86" stop-color="#E2C375"/>
<stop offset="0.88" stop-color="#F5E08C"/>
</linearGradient>
<linearGradient id="paint8_linear_4_271" x1="113.25" y1="107.64" x2="113.25" y2="137.61" gradientUnits="userSpaceOnUse">
<stop stop-color="#FFF7AB"/>
<stop offset="0.41" stop-color="#F6E594"/>
<stop offset="0.57" stop-color="#F6E492"/>
<stop offset="0.62" stop-color="#F4DF8B"/>
<stop offset="0.66" stop-color="#F2D880"/>
<stop offset="0.7" stop-color="#EFCD6F"/>
<stop offset="0.72" stop-color="#EBC15C"/>
<stop offset="0.77" stop-color="#C89D47"/>
<stop offset="0.88" stop-color="#7A4D18"/>
<stop offset="0.91" stop-color="#C1914C"/>
<stop offset="0.92" stop-color="#BE8E4A"/>
<stop offset="0.94" stop-color="#B58643"/>
<stop offset="0.95" stop-color="#A57838"/>
<stop offset="0.96" stop-color="#724A14"/>
<stop offset="0.97" stop-color="#553000"/>
</linearGradient>
</defs>
</svg>
