<svg width="233" height="232" viewBox="0 0 233 232" fill="none" xmlns="http://www.w3.org/2000/svg">
<mask id="mask0_4_1099" style="mask-type:luminance" maskUnits="userSpaceOnUse" x="0" y="0" width="233" height="232">
<path d="M232.57 0H0V231.49H232.57V0Z" fill="white"/>
</mask>
<g mask="url(#mask0_4_1099)">
<path d="M115 25L145.595 86.2282L214 96.0487L164.5 143.704L176.18 211L115 179.223L53.8197 211L65.5 143.704L16 96.0487L84.4048 86.2282L115 25Z" fill="black"/>
<mask id="mask1_4_1099" style="mask-type:luminance" maskUnits="userSpaceOnUse" x="18" y="24" width="197" height="188">
<path d="M116.37 24.78L146.65 86.13L214.35 95.97L165.36 143.72L176.92 211.15L116.37 179.31L55.82 211.15L67.38 143.72L18.39 95.97L84.5 86.5L116.37 24.78Z" fill="white"/>
</mask>
<g mask="url(#mask1_4_1099)">
<path d="M143.08 142.61L143.2 142.45C143.342 142.253 143.469 142.046 143.58 141.83L143.68 141.62L231.53 205.45L230.85 206.38L143.08 142.61Z" fill="url(#paint0_linear_4_1099)"/>
<path d="M143.36 142.56L230.81 206.1L231.25 205.49L143.75 141.92C143.642 142.146 143.511 142.36 143.36 142.56Z" fill="url(#paint1_linear_4_1099)"/>
<path d="M115.69 264.47V126.05L72.92 257.7L71.82 257.34L114.6 125.69L33.23 237.69L32.3 237L113.67 125L1.67002 206.36L1.00002 205.45L113 124.08L-18.66 166.86L-19.01 165.77L112.64 123H-25.79V121.85H112.64L-19 79.06L-18.65 77.97L113 120.75L1.00002 39.38L1.68002 38.45L113.68 119.82L32.3 7.83003L33.23 7.15004L114.6 119.15L71.82 -12.51L72.92 -12.86L115.69 118.79V-19.64H116.84V118.79L159.62 -12.86L160.71 -12.51L117.94 119.14L199.3 7.14003L200.23 7.82003L118.87 119.82L230.87 38.45L231.55 39.38L119.55 120.75L251.19 78L251.55 79.09L119.9 121.84H258.32V123H119.9L251.55 165.78L251.19 166.87L119.54 124.08L136.07 136.08L135.94 136.24C135.789 136.43 135.652 136.63 135.53 136.84L135.42 137.03L118.87 125.03L200.23 237.03L199.3 237.71L117.94 125.71L160.71 257.36L159.62 257.72L116.84 126.05V264.47H115.69Z" fill="url(#paint2_linear_4_1099)"/>
<path d="M258.12 122H118.63L251.3 78.9401L251.06 78.2201L118.4 121.33L231.25 39.3301L230.81 38.7201L118 120.72L200 7.87002L199.39 7.43002L117.39 120.28L160.46 -12.3799L159.75 -12.6099L116.64 120.05V-19.4399H115.89V120.05L72.79 -12.6099L72.07 -12.3799L115.18 120.28L33.19 7.43002L32.58 7.87002L114.58 120.72L1.72003 38.7301L1.28004 39.3401L114.13 121.34L-18.53 78.2201L-18.76 78.9401L113.9 122H-25.59V122.75H113.9L-18.76 165.9L-18.53 166.61L114.13 123.5L1.28004 205.5L1.72003 206.11L114.57 124.11L32.58 237L33.19 237.44L115.19 124.59L72.07 257.21L72.79 257.45L115.89 124.78V264.27H116.64V124.78L159.75 257.45L160.46 257.21L117.35 124.55L199.35 237.4L200 237L118 124.11L135.4 136.75C135.521 136.531 135.662 136.324 135.82 136.13L118.4 123.5L251.06 166.61L251.3 165.9L118.63 122.79H258.12V122Z" fill="url(#paint3_linear_4_1099)"/>
</g>
<path d="M185.47 225.46L117.18 187.89C116.884 187.727 116.552 187.642 116.215 187.642C115.878 187.642 115.546 187.727 115.25 187.89L47 225.45C46.6759 225.642 46.304 225.739 45.9274 225.729C45.5507 225.719 45.1845 225.603 44.871 225.394C44.5575 225.184 44.3094 224.891 44.1553 224.547C44.0012 224.203 43.9474 223.823 44 223.45L55.16 148.45C55.2051 148.143 55.178 147.829 55.0808 147.534C54.9836 147.239 54.819 146.97 54.6 146.75L1.48001 93.5401C1.22291 93.2857 1.03959 92.9664 0.949573 92.6161C0.859552 92.2659 0.866198 91.8977 0.968802 91.5509C1.07141 91.2041 1.26613 90.8916 1.53224 90.6467C1.79836 90.4018 2.1259 90.2336 2.48001 90.1601L75.48 75.3901C75.7641 75.3313 76.032 75.2114 76.2651 75.0387C76.4982 74.866 76.691 74.6447 76.83 74.3901L114.55 6.80005C114.721 6.48255 114.975 6.21732 115.285 6.03246C115.595 5.8476 115.949 5.75 116.31 5.75C116.671 5.75 117.025 5.8476 117.335 6.03246C117.645 6.21732 117.899 6.48255 118.07 6.80005L154.65 75.2801C154.794 75.5404 154.995 75.7653 155.237 75.9383C155.479 76.1113 155.757 76.2281 156.05 76.2801L230 90.0001C230.36 90.0653 230.696 90.2281 230.97 90.4708C231.244 90.7135 231.446 91.0267 231.554 91.3764C231.662 91.726 231.673 92.0987 231.584 92.4537C231.495 92.8088 231.31 93.1327 231.05 93.3901L177.55 146.61C177.328 146.833 177.162 147.104 177.064 147.403C176.967 147.702 176.942 148.019 176.99 148.33L188.37 223.33C188.438 223.699 188.4 224.08 188.262 224.429C188.123 224.778 187.889 225.081 187.587 225.303C187.284 225.525 186.925 225.658 186.551 225.685C186.177 225.713 185.802 225.635 185.47 225.46ZM27.81 101.46L68.46 142.08C68.6784 142.304 68.841 142.577 68.9348 142.876C69.0286 143.174 69.0509 143.491 69 143.8L60.74 199.36C60.6955 199.725 60.7522 200.094 60.9039 200.429C61.0557 200.763 61.2966 201.05 61.6003 201.256C61.904 201.463 62.2587 201.582 62.6256 201.6C62.9924 201.618 63.3573 201.535 63.68 201.36L115.23 173C115.526 172.837 115.858 172.752 116.195 172.752C116.532 172.752 116.864 172.837 117.16 173L168.65 201.33C168.973 201.505 169.338 201.588 169.704 201.57C170.071 201.552 170.426 201.433 170.73 201.226C171.033 201.02 171.274 200.733 171.426 200.399C171.578 200.064 171.635 199.695 171.59 199.33L163.17 143.8C163.123 143.491 163.15 143.175 163.247 142.878C163.344 142.581 163.51 142.311 163.73 142.09L204.33 101.69C204.587 101.436 204.77 101.116 204.86 100.766C204.95 100.416 204.944 100.048 204.841 99.7009C204.739 99.3541 204.544 99.0416 204.278 98.7967C204.012 98.5518 203.684 98.3836 203.33 98.3101L147.53 88.0001C147.237 87.9481 146.959 87.8313 146.717 87.6583C146.475 87.4853 146.274 87.2604 146.13 87.0001L117.81 34.0001C117.638 33.6851 117.384 33.4222 117.075 33.239C116.766 33.0559 116.414 32.9592 116.055 32.9592C115.696 32.9592 115.344 33.0559 115.035 33.239C114.726 33.4222 114.472 33.6851 114.3 34.0001L85.3 86.0001C85.161 86.2547 84.9682 86.476 84.7351 86.6487C84.502 86.8214 84.2341 86.9413 83.95 87.0001L28.83 98.1001C28.4763 98.172 28.1486 98.3383 27.8817 98.5813C27.6148 98.8244 27.4187 99.1351 27.3141 99.4806C27.2095 99.8261 27.2004 100.193 27.2877 100.544C27.375 100.894 27.5555 101.214 27.81 101.47V101.46Z" fill="url(#paint4_linear_4_1099)"/>
<mask id="mask2_4_1099" style="mask-type:luminance" maskUnits="userSpaceOnUse" x="0" y="5" width="232" height="221">
<path d="M185.47 225.46L117.18 187.89C116.884 187.727 116.552 187.642 116.215 187.642C115.878 187.642 115.546 187.727 115.25 187.89L47 225.45C46.6759 225.642 46.304 225.739 45.9274 225.729C45.5507 225.719 45.1845 225.603 44.871 225.394C44.5575 225.184 44.3094 224.891 44.1553 224.547C44.0012 224.203 43.9474 223.823 44 223.45L55.16 148.45C55.2051 148.143 55.178 147.829 55.0808 147.534C54.9836 147.239 54.819 146.97 54.6 146.75L1.48001 93.5401C1.22291 93.2857 1.03959 92.9664 0.949573 92.6161C0.859552 92.2659 0.866198 91.8977 0.968802 91.5509C1.07141 91.2041 1.26613 90.8916 1.53224 90.6467C1.79836 90.4018 2.1259 90.2336 2.48001 90.1601L75.48 75.3901C75.7641 75.3313 76.032 75.2114 76.2651 75.0387C76.4982 74.866 76.691 74.6447 76.83 74.3901L114.55 6.80005C114.721 6.48255 114.975 6.21732 115.285 6.03246C115.595 5.8476 115.949 5.75 116.31 5.75C116.671 5.75 117.025 5.8476 117.335 6.03246C117.645 6.21732 117.899 6.48255 118.07 6.80005L154.65 75.2801C154.794 75.5404 154.995 75.7653 155.237 75.9383C155.479 76.1113 155.757 76.2281 156.05 76.2801L230 90.0001C230.36 90.0653 230.696 90.2281 230.97 90.4708C231.244 90.7135 231.446 91.0267 231.554 91.3764C231.662 91.726 231.673 92.0987 231.584 92.4537C231.495 92.8088 231.31 93.1327 231.05 93.3901L177.55 146.61C177.328 146.833 177.162 147.104 177.064 147.403C176.967 147.702 176.942 148.019 176.99 148.33L188.37 223.33C188.438 223.699 188.4 224.08 188.262 224.429C188.123 224.778 187.889 225.081 187.587 225.303C187.284 225.525 186.925 225.658 186.551 225.685C186.177 225.713 185.802 225.635 185.47 225.46ZM27.81 101.46L68.46 142.08C68.6784 142.304 68.841 142.577 68.9348 142.876C69.0286 143.174 69.0509 143.491 69 143.8L60.74 199.36C60.6955 199.725 60.7522 200.094 60.9039 200.429C61.0557 200.763 61.2966 201.05 61.6003 201.256C61.904 201.463 62.2587 201.582 62.6256 201.6C62.9924 201.618 63.3573 201.535 63.68 201.36L115.23 173C115.526 172.837 115.858 172.752 116.195 172.752C116.532 172.752 116.864 172.837 117.16 173L168.65 201.33C168.973 201.505 169.338 201.588 169.704 201.57C170.071 201.552 170.426 201.433 170.73 201.226C171.033 201.02 171.274 200.733 171.426 200.399C171.578 200.064 171.635 199.695 171.59 199.33L163.17 143.8C163.123 143.491 163.15 143.175 163.247 142.878C163.344 142.581 163.51 142.311 163.73 142.09L204.33 101.69C204.587 101.436 204.77 101.116 204.86 100.766C204.95 100.416 204.944 100.048 204.841 99.7009C204.739 99.3541 204.544 99.0416 204.278 98.7967C204.012 98.5518 203.684 98.3836 203.33 98.3101L147.53 88.0001C147.237 87.9481 146.959 87.8313 146.717 87.6583C146.475 87.4853 146.274 87.2604 146.13 87.0001L117.81 34.0001C117.638 33.6851 117.384 33.4222 117.075 33.239C116.766 33.0559 116.414 32.9592 116.055 32.9592C115.696 32.9592 115.344 33.0559 115.035 33.239C114.726 33.4222 114.472 33.6851 114.3 34.0001L85.3 86.0001C85.161 86.2547 84.9682 86.476 84.7351 86.6487C84.502 86.8214 84.2341 86.9413 83.95 87.0001L28.83 98.1001C28.4763 98.172 28.1486 98.3383 27.8817 98.5813C27.6148 98.8244 27.4187 99.1351 27.3141 99.4806C27.2095 99.8261 27.2004 100.193 27.2877 100.544C27.375 100.894 27.5555 101.214 27.81 101.47V101.46Z" fill="white"/>
</mask>
<g mask="url(#mask2_4_1099)">
<path d="M116.64 -19.2599H115.89V264.45H116.64V-19.2599Z" fill="#C89E3F"/>
<path d="M109.212 -19.088L108.463 -19.0487L123.311 264.272L124.06 264.233L109.212 -19.088Z" fill="#C89E3F"/>
<path d="M101.808 -18.5266L101.062 -18.4482L130.718 263.708L131.464 263.629L101.808 -18.5266Z" fill="#C89E3F"/>
<path d="M94.441 -17.5693L93.7003 -17.452L138.082 262.765L138.823 262.648L94.441 -17.5693Z" fill="#C89E3F"/>
<path d="M87.1368 -16.2399L86.4032 -16.0839L145.39 261.426L146.123 261.27L87.1368 -16.2399Z" fill="#C89E3F"/>
<path d="M79.9107 -14.5223L79.1863 -14.3282L152.616 259.715L153.34 259.52L79.9107 -14.5223Z" fill="#C89E3F"/>
<path d="M72.7896 -12.431L72.0763 -12.1992L159.747 257.625L160.461 257.393L72.7896 -12.431Z" fill="#C89E3F"/>
<path d="M65.7807 -9.9707L65.0805 -9.70193L166.753 255.164L167.453 254.895L65.7807 -9.9707Z" fill="#C89E3F"/>
<path d="M58.9122 -7.14661L58.227 -6.84155L173.622 252.34L174.307 252.035L58.9122 -7.14661Z" fill="#C89E3F"/>
<path d="M52.1931 -3.96411L51.5249 -3.62362L180.327 249.164L180.995 248.823L52.1931 -3.96411Z" fill="#C89E3F"/>
<path d="M46.1268 -0.516113L45.4743 -0.141113L187.329 246.686L187.982 246.311L46.1268 -0.516113Z" fill="#C89E3F"/>
<path d="M39.3228 3.42065L38.6938 3.82913L193.213 241.768L193.842 241.36L39.3228 3.42065Z" fill="#C89E3F"/>
<path d="M33.183 7.60913L32.5762 8.04997L199.337 237.576L199.944 237.135L33.183 7.60913Z" fill="#C89E3F"/>
<path d="M27.2856 12.1183L26.7027 12.5903L205.247 233.074L205.83 232.602L27.2856 12.1183Z" fill="#C89E3F"/>
<path d="M21.623 16.9297L21.0656 17.4316L210.905 228.269L211.462 227.767L21.623 16.9297Z" fill="#C89E3F"/>
<path d="M16.2181 22.0243L15.6877 22.5546L216.301 223.168L216.831 222.637L16.2181 22.0243Z" fill="#C89E3F"/>
<path d="M11.0944 27.4022L10.5926 27.9596L221.43 217.799L221.932 217.241L11.0944 27.4022Z" fill="#C89E3F"/>
<path d="M6.25611 33.0331L5.78412 33.6159L226.268 212.16L226.74 211.577L6.25611 33.0331Z" fill="#C89E3F"/>
<path d="M1.7176 38.9156L1.27676 39.5224L230.803 206.283L231.244 205.676L1.7176 38.9156Z" fill="#C89E3F"/>
<path d="M-2.5061 45.0278L-2.91458 45.6568L235.025 200.176L235.433 199.547L-2.5061 45.0278Z" fill="#C89E3F"/>
<path d="M-6.39966 51.3469L-6.77466 51.9964L238.925 193.851L239.3 193.202L-6.39966 51.3469Z" fill="#C89E3F"/>
<path d="M-9.95733 57.8593L-10.2978 58.5276L242.49 187.329L242.83 186.661L-9.95733 57.8593Z" fill="#C89E3F"/>
<path d="M-13.1731 64.5604L-13.4782 65.2456L245.704 180.641L246.009 179.956L-13.1731 64.5604Z" fill="#C89E3F"/>
<path d="M-16.0307 71.4152L-16.2995 72.1154L248.567 173.788L248.835 173.088L-16.0307 71.4152Z" fill="#C89E3F"/>
<path d="M251.06 166.79L-18.76 79.1202L-18.53 78.4102L251.3 166.08L251.06 166.79Z" fill="#C89E3F"/>
<path d="M253.19 159.68L-20.85 86.2501L-20.66 85.5201L253.39 158.95L253.19 159.68Z" fill="#C89E3F"/>
<path d="M-22.4183 92.7346L-22.5742 93.4682L254.936 152.455L255.092 151.721L-22.4183 92.7346Z" fill="#C89E3F"/>
<path d="M-23.7864 100.033L-23.9037 100.774L256.313 145.156L256.431 144.415L-23.7864 100.033Z" fill="#C89E3F"/>
<path d="M-24.7723 107.396L-24.8507 108.142L257.305 137.797L257.384 137.051L-24.7723 107.396Z" fill="#C89E3F"/>
<path d="M-25.3791 114.802L-25.4184 115.551L257.903 130.399L257.942 129.65L-25.3791 114.802Z" fill="#C89E3F"/>
<path d="M258.12 122.22H-25.59V122.97H258.12V122.22Z" fill="#C89E3F"/>
<path d="M257.914 114.81L-25.41 129.608L-25.3709 130.357L257.953 115.559L257.914 114.81Z" fill="#C89E3F"/>
<path d="M257.308 107.444L-24.8577 137.001L-24.7796 137.747L257.387 108.19L257.308 107.444Z" fill="#C89E3F"/>
<path d="M256.313 100.092L-23.9191 144.376L-23.802 145.117L256.431 100.833L256.313 100.092Z" fill="#C89E3F"/>
<path d="M254.935 92.6576L-22.5444 151.789L-22.3881 152.523L255.091 93.3911L254.935 92.6576Z" fill="#C89E3F"/>
<path d="M-20.66 159.68L-20.85 158.95L253.19 85.5201L253.39 86.2501L-20.66 159.68Z" fill="#C89E3F"/>
<path d="M-18.53 166.79L-18.76 166.08L251.06 78.4102L251.3 79.1202L-18.53 166.79Z" fill="#C89E3F"/>
<path d="M248.514 71.3018L-16.263 173.205L-15.9936 173.905L248.784 72.0018L248.514 71.3018Z" fill="#C89E3F"/>
<path d="M245.741 64.6561L-13.5215 179.87L-13.2169 180.556L246.046 65.3414L245.741 64.6561Z" fill="#C89E3F"/>
<path d="M242.528 57.9143L-10.3272 186.583L-9.9871 187.252L242.868 58.5828L242.528 57.9143Z" fill="#C89E3F"/>
<path d="M238.918 51.3557L-6.78159 193.211L-6.40659 193.86L239.293 52.0053L238.918 51.3557Z" fill="#C89E3F"/>
<path d="M235.05 45.0297L-2.91611 199.508L-2.50774 200.137L235.458 45.6588L235.05 45.0297Z" fill="#C89E3F"/>
<path d="M230.736 38.8141L1.35577 205.775L1.79714 206.381L231.178 39.4205L230.736 38.8141Z" fill="#C89E3F"/>
<path d="M226.217 32.9874L5.82654 211.647L6.29883 212.23L226.689 33.57L226.217 32.9874Z" fill="#C89E3F"/>
<path d="M221.446 27.429L10.5752 217.231L11.077 217.789L221.948 27.9865L221.446 27.429Z" fill="#C89E3F"/>
<path d="M216.217 21.9496L15.7789 222.738L16.3097 223.268L216.748 22.4795L216.217 21.9496Z" fill="#C89E3F"/>
<path d="M210.98 16.9847L20.9937 227.69L21.5507 228.192L211.537 17.4869L210.98 16.9847Z" fill="#C89E3F"/>
<path d="M205.286 12.1486L26.6647 232.57L27.2474 233.042L205.869 12.6208L205.286 12.1486Z" fill="#C89E3F"/>
<path d="M199.238 7.55713L32.6774 237.229L33.2845 237.669L199.845 7.99744L199.238 7.55713Z" fill="#C89E3F"/>
<path d="M193.188 3.42578L38.7104 241.392L39.3395 241.8L193.817 3.83415L193.188 3.42578Z" fill="#C89E3F"/>
<path d="M186.801 -0.471313L45.0742 245.303L45.7239 245.678L187.45 -0.0966534L186.801 -0.471313Z" fill="#C89E3F"/>
<path d="M180.394 -3.94141L51.4602 248.779L52.1283 249.119L181.062 -3.60057L180.394 -3.94141Z" fill="#C89E3F"/>
<path d="M173.53 -7.19409L58.3161 252.068L59.0015 252.373L174.216 -6.88952L173.53 -7.19409Z" fill="#C89E3F"/>
<path d="M166.695 -9.99805L65.1152 254.903L65.8155 255.172L167.396 -9.72952L166.695 -9.99805Z" fill="#C89E3F"/>
<path d="M159.725 -12.4227L72.1012 257.417L72.8146 257.648L160.439 -12.1911L159.725 -12.4227Z" fill="#C89E3F"/>
<path d="M152.64 -14.5195L79.1624 259.51L79.8869 259.705L153.364 -14.3253L152.64 -14.5195Z" fill="#C89E3F"/>
<path d="M145.415 -16.228L86.3799 261.272L87.1135 261.428L146.149 -16.072L145.415 -16.228Z" fill="#C89E3F"/>
<path d="M139.297 -17.7235L93.9034 263.149L94.6459 263.269L140.04 -17.6035L139.297 -17.7235Z" fill="#C89E3F"/>
<path d="M130.676 -18.5222L101.119 263.644L101.865 263.722L131.422 -18.4441L130.676 -18.5222Z" fill="#C89E3F"/>
<path d="M123.288 -19.0833L108.489 264.24L109.238 264.279L124.037 -19.0442L123.288 -19.0833Z" fill="#C89E3F"/>
</g>
<path d="M116.3 6.77004C116.481 6.77053 116.658 6.82007 116.813 6.91341C116.968 7.00674 117.095 7.14037 117.18 7.30004L153.76 75.7801C153.972 76.1781 154.271 76.5232 154.634 76.7898C154.998 77.0564 155.417 77.2377 155.86 77.3201L229.86 91.0301C230.038 91.0632 230.203 91.1439 230.339 91.2636C230.475 91.3834 230.575 91.5377 230.63 91.7101C230.683 91.8838 230.688 92.0686 230.644 92.2448C230.6 92.4209 230.509 92.5818 230.38 92.7101L176.89 145.93C176.555 146.263 176.304 146.67 176.156 147.118C176.009 147.567 175.969 148.043 176.04 148.51L187.42 223.51C187.443 223.651 187.435 223.796 187.397 223.934C187.359 224.072 187.292 224.2 187.2 224.31C187.105 224.421 186.987 224.51 186.854 224.57C186.721 224.631 186.576 224.661 186.43 224.66C186.263 224.658 186.098 224.617 185.95 224.54L117.66 187C117.217 186.757 116.72 186.629 116.215 186.629C115.71 186.629 115.213 186.757 114.77 187L46.51 224.57C46.3605 224.655 46.1918 224.699 46.02 224.7C45.8748 224.699 45.7316 224.666 45.6003 224.604C45.4691 224.542 45.3529 224.452 45.26 224.34C45.1678 224.232 45.0996 224.106 45.06 223.97C45.0203 223.834 45.0101 223.69 45.03 223.55L56.19 148.55C56.258 148.087 56.2166 147.614 56.069 147.169C55.9213 146.725 55.6717 146.321 55.34 145.99L2.19 92.8301C2.05973 92.7029 1.96666 92.5425 1.92084 92.3663C1.87502 92.19 1.87819 92.0046 1.93 91.8301C1.98094 91.6553 2.07865 91.4977 2.21259 91.3743C2.34652 91.251 2.51159 91.1665 2.69 91.1301L75.69 76.3601C76.1098 76.2708 76.5056 76.0925 76.8507 75.8372C77.1957 75.5819 77.4819 75.2555 77.69 74.8801L115.43 7.28004C115.517 7.12558 115.643 6.99696 115.796 6.90734C115.949 6.81773 116.123 6.77035 116.3 6.77004ZM62.74 202.66C63.2468 202.661 63.7457 202.534 64.19 202.29L115.73 173.93C115.882 173.842 116.054 173.796 116.23 173.796C116.406 173.796 116.578 173.842 116.73 173.93L168.22 202.26C168.661 202.502 169.157 202.629 169.66 202.63C170.089 202.636 170.515 202.55 170.909 202.378C171.302 202.205 171.654 201.95 171.94 201.63C172.221 201.303 172.428 200.919 172.547 200.505C172.666 200.091 172.694 199.656 172.63 199.23L164.2 143.7C164.177 143.544 164.191 143.385 164.242 143.235C164.292 143.086 164.377 142.95 164.49 142.84L205.08 102.45C205.466 102.064 205.74 101.579 205.871 101.049C206.002 100.519 205.986 99.9632 205.824 99.4415C205.663 98.9198 205.362 98.4521 204.954 98.0888C204.546 97.7255 204.047 97.4805 203.51 97.3801L147.71 87.0001C147.562 86.9719 147.422 86.9105 147.3 86.8204C147.179 86.7303 147.08 86.614 147.01 86.4801L118.7 33.4801C118.444 32.9995 118.062 32.5977 117.595 32.3176C117.129 32.0375 116.594 31.8897 116.05 31.8901C115.516 31.8902 114.991 32.033 114.531 32.3038C114.07 32.5745 113.69 32.9633 113.43 33.4301L84.38 85.4301C84.3099 85.555 84.2138 85.6633 84.0982 85.7479C83.9827 85.8324 83.8503 85.8911 83.71 85.9201L28.63 97.1201C28.0984 97.2273 27.6058 97.4767 27.2046 97.8416C26.8035 98.2066 26.5087 98.6734 26.3518 99.1925C26.1948 99.7116 26.1815 100.263 26.3133 100.79C26.445 101.316 26.7169 101.796 27.1 102.18L67.75 142.8C67.8595 142.91 67.9418 143.044 67.9904 143.192C68.039 143.339 68.0526 143.496 68.03 143.65L59.77 199.22C59.7074 199.645 59.7366 200.078 59.8556 200.49C59.9746 200.902 60.1807 201.284 60.46 201.61C60.7463 201.93 61.098 202.185 61.4914 202.358C61.8847 202.53 62.3105 202.616 62.74 202.61M116.3 5.77004C115.948 5.76865 115.601 5.86039 115.295 6.036C114.99 6.21161 114.736 6.46484 114.56 6.77004L76.82 74.4001C76.681 74.6547 76.4882 74.876 76.2551 75.0487C76.022 75.2214 75.7541 75.3413 75.47 75.4001L2.5 90.1601C2.14589 90.2336 1.81835 90.4018 1.55223 90.6467C1.28612 90.8916 1.0914 91.2041 0.988791 91.5509C0.886187 91.8977 0.879541 92.2658 0.969562 92.6161C1.05958 92.9664 1.2429 93.2857 1.5 93.5401L54.66 146.66C54.879 146.88 55.0436 147.149 55.1408 147.444C55.238 147.739 55.2651 148.053 55.22 148.36L44 223.4C43.9565 223.687 43.9758 223.979 44.0567 224.258C44.1375 224.536 44.2779 224.794 44.4681 225.012C44.6584 225.231 44.8939 225.406 45.1584 225.525C45.4229 225.643 45.7101 225.703 46 225.7C46.3491 225.703 46.6932 225.617 47 225.45L115.26 187.89C115.556 187.727 115.888 187.642 116.225 187.642C116.562 187.642 116.894 187.727 117.19 187.89L185.48 225.46C185.784 225.633 186.13 225.72 186.48 225.71C186.77 225.713 187.057 225.653 187.322 225.535C187.586 225.416 187.822 225.241 188.012 225.022C188.202 224.804 188.343 224.546 188.423 224.268C188.504 223.989 188.524 223.697 188.48 223.41L177.1 148.41C177.052 148.099 177.077 147.782 177.174 147.483C177.272 147.184 177.438 146.913 177.66 146.69L231.16 93.4701C231.447 93.2091 231.651 92.8705 231.749 92.4954C231.847 92.1203 231.833 91.7249 231.71 91.3573C231.587 90.9896 231.36 90.6657 231.057 90.4247C230.753 90.1838 230.386 90.0362 230 90.0001L156 76.3001C155.707 76.2481 155.429 76.1313 155.187 75.9583C154.945 75.7853 154.744 75.5604 154.6 75.3001L118.07 6.83004C117.899 6.50919 117.644 6.24096 117.332 6.0542C117.02 5.86743 116.664 5.7692 116.3 5.77004ZM62.74 201.66C62.4501 201.663 62.1629 201.603 61.8984 201.485C61.6339 201.366 61.3984 201.191 61.2081 200.972C61.0179 200.754 60.8775 200.496 60.7967 200.218C60.7158 199.939 60.6965 199.647 60.74 199.36L69 143.8C69.0467 143.491 69.0204 143.175 68.9232 142.878C68.8259 142.581 68.6604 142.311 68.44 142.09L27.81 101.47C27.5556 101.215 27.3746 100.897 27.2862 100.548C27.1978 100.199 27.2052 99.8327 27.3075 99.4876C27.4099 99.1425 27.6036 98.8315 27.868 98.5873C28.1324 98.3431 28.4579 98.1747 28.81 98.1001L83.9 86.9401C84.1841 86.8813 84.452 86.7614 84.6851 86.5887C84.9182 86.416 85.111 86.1947 85.25 85.9401L114.3 33.9401C114.472 33.625 114.726 33.3622 115.035 33.179C115.344 32.9959 115.696 32.8992 116.055 32.8992C116.414 32.8992 116.766 32.9959 117.075 33.179C117.384 33.3622 117.638 33.625 117.81 33.9401L146.13 86.9401C146.274 87.2004 146.475 87.4253 146.717 87.5983C146.959 87.7713 147.237 87.8881 147.53 87.9401L203.3 98.3101C203.654 98.3836 203.982 98.5518 204.248 98.7967C204.514 99.0416 204.709 99.3541 204.811 99.7009C204.914 100.048 204.92 100.416 204.83 100.766C204.74 101.116 204.557 101.436 204.3 101.69L163.7 142.09C163.48 142.311 163.314 142.581 163.217 142.878C163.12 143.175 163.093 143.491 163.14 143.8L171.56 199.33C171.605 199.695 171.548 200.064 171.396 200.399C171.244 200.733 171.003 201.02 170.7 201.226C170.396 201.433 170.041 201.552 169.674 201.57C169.308 201.588 168.943 201.505 168.62 201.33L117.13 173C116.834 172.837 116.502 172.752 116.165 172.752C115.828 172.752 115.496 172.837 115.2 173L63.7 201.41C63.3942 201.579 63.0495 201.665 62.7 201.66H62.74Z" fill="url(#paint5_linear_4_1099)"/>
<path d="M116.21 165.99C118.844 165.99 120.98 163.854 120.98 161.22C120.98 158.586 118.844 156.45 116.21 156.45C113.576 156.45 111.44 158.586 111.44 161.22C111.44 163.854 113.576 165.99 116.21 165.99Z" fill="black" stroke="url(#paint6_linear_4_1099)" stroke-miterlimit="10"/>
<path d="M116.34 86.2701C118.974 86.2701 121.11 84.1345 121.11 81.5001C121.11 78.8657 118.974 76.7301 116.34 76.7301C113.706 76.7301 111.57 78.8657 111.57 81.5001C111.57 84.1345 113.706 86.2701 116.34 86.2701Z" fill="black" stroke="url(#paint7_linear_4_1099)" stroke-miterlimit="10"/>
<path d="M146.22 149.94C145.034 149.937 143.897 149.464 143.059 148.624C142.221 147.784 141.75 146.646 141.75 145.46V137C141.333 137.55 140.795 137.996 140.177 138.305C139.56 138.614 138.88 138.776 138.19 138.78C137.507 138.781 136.834 138.624 136.222 138.322C135.609 138.021 135.075 137.582 134.66 137.04L134.36 136.66V145.45C134.361 146.037 134.247 146.619 134.024 147.161C133.8 147.704 133.472 148.198 133.058 148.614C132.644 149.03 132.152 149.36 131.61 149.586C131.068 149.812 130.487 149.929 129.9 149.93H122C120.814 149.927 119.677 149.454 118.839 148.614C118.001 147.774 117.53 146.636 117.53 145.45V139.11C116.517 141.88 114.777 144.325 112.494 146.191C110.21 148.057 107.466 149.273 104.55 149.713C101.634 150.153 98.6533 149.8 95.9208 148.691C93.1883 147.582 90.8047 145.758 89.02 143.41V145.19C89.0174 146.446 88.5171 147.65 87.6288 148.539C86.7404 149.427 85.5363 149.927 84.28 149.93H77.49C76.2346 149.927 75.0315 149.427 74.1448 148.538C73.258 147.65 72.76 146.445 72.76 145.19V127.71H70.12C68.8689 127.707 67.6693 127.211 66.7818 126.329C65.8943 125.448 65.3905 124.251 65.38 123V119.47C65.3809 118.37 65.7645 117.304 66.4651 116.456C67.1658 115.607 68.1397 115.029 69.22 114.82C70.5003 114.624 71.7127 114.116 72.75 113.34C73.5064 112.659 74.0192 111.75 74.21 110.75C74.4646 109.722 75.0559 108.81 75.8896 108.157C76.7233 107.505 77.7514 107.15 78.81 107.15H84.32C85.5754 107.15 86.7795 107.648 87.6682 108.535C88.5568 109.422 89.0574 110.625 89.06 111.88V113.29C90.8447 110.942 93.2283 109.118 95.9608 108.009C98.6933 106.9 101.674 106.547 104.59 106.987C107.506 107.427 110.25 108.643 112.534 110.509C114.817 112.375 116.557 114.82 117.57 117.59V111.59C117.57 110.404 118.041 109.266 118.879 108.426C119.717 107.586 120.854 107.113 122.04 107.11H129.83C130.534 107.112 131.227 107.28 131.854 107.6C132.481 107.919 133.025 108.382 133.44 108.95L138.17 115.48L142.63 109.03C143.041 108.437 143.589 107.953 144.229 107.618C144.868 107.284 145.579 107.109 146.3 107.11H154.08C154.667 107.111 155.248 107.228 155.79 107.454C156.332 107.68 156.824 108.01 157.238 108.426C157.652 108.842 157.98 109.336 158.204 109.879C158.427 110.421 158.541 111.003 158.54 111.59V145.45C158.541 146.037 158.427 146.619 158.204 147.161C157.98 147.704 157.652 148.198 157.238 148.614C156.824 149.03 156.332 149.36 155.79 149.586C155.248 149.812 154.667 149.929 154.08 149.93L146.22 149.94Z" fill="url(#paint8_linear_4_1099)"/>
<path d="M102.14 110.27C103.835 110.269 105.514 110.601 107.081 111.249C108.648 111.896 110.072 112.846 111.272 114.044C112.471 115.242 113.423 116.665 114.073 118.23C114.723 119.796 115.059 121.475 115.06 123.17V133.51C114.966 136.876 113.564 140.072 111.15 142.42C108.736 144.767 105.502 146.08 102.135 146.08C98.768 146.08 95.5338 144.767 93.1201 142.42C90.7064 140.072 89.3036 136.876 89.21 133.51V123.17C89.2153 119.745 90.5802 116.463 93.0048 114.044C95.4293 111.625 98.7151 110.267 102.14 110.27ZM102.14 137.52C103.201 137.52 104.218 137.099 104.968 136.348C105.719 135.598 106.14 134.581 106.14 133.52V123.17C106.14 122.109 105.719 121.092 104.968 120.342C104.218 119.591 103.201 119.17 102.14 119.17C101.079 119.17 100.062 119.591 99.3116 120.342C98.5614 121.092 98.14 122.109 98.14 123.17V133.51C98.14 134.571 98.5614 135.588 99.3116 136.338C100.062 137.089 101.079 137.51 102.14 137.51M154.08 110.61C154.345 110.61 154.6 110.715 154.787 110.903C154.975 111.09 155.08 111.345 155.08 111.61V145.47C155.08 145.735 154.975 145.99 154.787 146.177C154.6 146.365 154.345 146.47 154.08 146.47H146.22C145.955 146.47 145.7 146.365 145.513 146.177C145.325 145.99 145.22 145.735 145.22 145.47V129.35C145.22 129.085 145.115 128.83 144.927 128.643C144.74 128.455 144.485 128.35 144.22 128.35C144.071 128.35 143.925 128.385 143.793 128.453C143.66 128.52 143.546 128.619 143.46 128.74L139 134.89C138.912 135.01 138.796 135.107 138.664 135.175C138.531 135.242 138.384 135.277 138.235 135.277C138.086 135.277 137.939 135.242 137.806 135.175C137.674 135.107 137.558 135.01 137.47 134.89L132.63 128.63C132.543 128.513 132.43 128.417 132.3 128.351C132.17 128.286 132.026 128.251 131.88 128.25C131.615 128.25 131.36 128.355 131.173 128.543C130.985 128.73 130.88 128.985 130.88 129.25V145.45C130.88 145.715 130.775 145.97 130.587 146.157C130.4 146.345 130.145 146.45 129.88 146.45H122C121.735 146.45 121.48 146.345 121.293 146.157C121.105 145.97 121 145.715 121 145.45V111.6C121 111.335 121.105 111.08 121.293 110.893C121.48 110.705 121.735 110.6 122 110.6H129.79C129.943 110.598 130.094 110.634 130.229 110.704C130.365 110.773 130.482 110.875 130.57 111L137.4 120.43C137.494 120.549 137.613 120.644 137.749 120.71C137.885 120.776 138.034 120.811 138.185 120.811C138.336 120.811 138.485 120.776 138.621 120.71C138.757 120.644 138.876 120.549 138.97 120.43L145.47 111.03C145.561 110.905 145.68 110.803 145.817 110.732C145.954 110.661 146.106 110.623 146.26 110.62H154.04M84.28 110.62C84.4424 110.619 84.6034 110.65 84.7538 110.711C84.9042 110.772 85.0409 110.862 85.1562 110.977C85.2715 111.091 85.363 111.227 85.4254 111.377C85.4879 111.527 85.52 111.688 85.52 111.85V145.2C85.5213 145.363 85.4902 145.525 85.4283 145.676C85.3665 145.827 85.2752 145.964 85.1598 146.08C85.0444 146.195 84.9071 146.287 84.7561 146.348C84.6051 146.41 84.4432 146.441 84.28 146.44H77.49C77.3276 146.44 77.1669 146.408 77.017 146.345C76.8671 146.283 76.7311 146.192 76.6167 146.076C76.5024 145.961 76.412 145.824 76.3507 145.674C76.2895 145.523 76.2587 145.362 76.26 145.2V125.44C76.2587 125.276 76.225 125.115 76.1609 124.964C76.0967 124.813 76.0034 124.677 75.8862 124.563C75.7691 124.448 75.6305 124.358 75.4784 124.298C75.3263 124.237 75.1637 124.207 75 124.21H70.1C69.7805 124.203 69.476 124.073 69.2491 123.848C69.0222 123.623 68.8901 123.319 68.88 123V119.47C68.8792 119.182 68.9785 118.903 69.161 118.681C69.3434 118.458 69.5976 118.306 69.88 118.25C71.7496 117.945 73.5113 117.171 75 116C76.343 114.851 77.2678 113.29 77.63 111.56C77.6952 111.291 77.8491 111.052 78.0668 110.882C78.2846 110.711 78.5534 110.619 78.83 110.62H84.34M102.16 103.27C98.1154 103.268 94.1664 104.499 90.84 106.8C90.0715 105.809 89.086 105.007 87.9592 104.455C86.8325 103.904 85.5944 103.618 84.34 103.62H78.81C76.9675 103.614 75.1767 104.229 73.7256 105.364C72.2746 106.5 71.2476 108.09 70.81 109.88C70.7589 110.142 70.6533 110.391 70.5 110.61C69.9045 111.018 69.2175 111.272 68.5 111.35C66.6228 111.716 64.9312 112.723 63.7145 114.199C62.4978 115.675 61.8317 117.527 61.83 119.44V123C61.8335 125.035 62.5889 126.997 63.9512 128.509C65.3134 130.02 67.1864 130.975 69.21 131.19V145.19C69.2126 147.373 70.0803 149.466 71.6228 151.01C73.1654 152.555 75.2572 153.425 77.44 153.43H84.27C85.5841 153.437 86.8809 153.129 88.0518 152.533C89.2226 151.936 90.2336 151.068 91 150C94.5646 152.403 98.8111 153.587 103.105 153.376C107.398 153.165 111.508 151.57 114.82 148.83C115.463 150.2 116.482 151.36 117.759 152.174C119.035 152.989 120.516 153.424 122.03 153.43H129.89C132.012 153.43 134.047 152.587 135.547 151.087C137.047 149.587 137.89 147.552 137.89 145.43V142.25H138.28V145.42C138.28 147.542 139.123 149.577 140.623 151.077C142.123 152.577 144.158 153.42 146.28 153.42H154.14C156.262 153.42 158.297 152.577 159.797 151.077C161.297 149.577 162.14 147.542 162.14 145.42V111.6C162.14 109.478 161.297 107.443 159.797 105.943C158.297 104.443 156.262 103.6 154.14 103.6H146.3C145.013 103.603 143.745 103.916 142.605 104.513C141.465 105.11 140.485 105.974 139.75 107.03L138.1 109.41L136.28 106.89C135.539 105.873 134.569 105.045 133.449 104.474C132.328 103.902 131.088 103.603 129.83 103.6H122C120.543 103.626 119.121 104.05 117.888 104.826C116.654 105.601 115.655 106.699 115 108C111.414 104.975 106.872 103.317 102.18 103.32L102.16 103.27Z" fill="black"/>
<path d="M102.14 110.27C98.7151 110.267 95.4293 111.625 93.0048 114.044C90.5802 116.463 89.2153 119.745 89.21 123.17V133.51C89.3036 136.876 90.7064 140.072 93.1201 142.42C95.5338 144.767 98.768 146.08 102.135 146.08C105.502 146.08 108.736 144.767 111.15 142.42C113.564 140.072 114.966 136.876 115.06 133.51V123.17C115.059 121.475 114.723 119.796 114.073 118.23C113.423 116.665 112.471 115.242 111.272 114.044C110.072 112.846 108.648 111.896 107.081 111.249C105.514 110.601 103.835 110.269 102.14 110.27ZM106.14 133.51C106.14 134.571 105.719 135.588 104.968 136.338C104.218 137.089 103.201 137.51 102.14 137.51C101.079 137.51 100.062 137.089 99.3116 136.338C98.5614 135.588 98.14 134.571 98.14 133.51V123.17C98.14 122.109 98.5614 121.092 99.3116 120.342C100.062 119.591 101.079 119.17 102.14 119.17C103.201 119.17 104.218 119.591 104.968 120.342C105.719 121.092 106.14 122.109 106.14 123.17V133.51Z" fill="url(#paint9_linear_4_1099)"/>
<path d="M102.14 111C105.364 111 108.457 112.279 110.738 114.557C113.02 116.835 114.305 119.926 114.31 123.15V133.49C114.219 136.659 112.897 139.667 110.623 141.876C108.35 144.085 105.305 145.321 102.135 145.321C98.9651 145.321 95.9201 144.085 93.6467 141.876C91.3734 139.667 90.0508 136.659 89.96 133.49V123.17C89.9626 119.941 91.2471 116.846 93.531 114.564C95.8149 112.282 98.9114 111 102.14 111ZM102.14 138.25C103.402 138.247 104.611 137.745 105.503 136.853C106.395 135.961 106.897 134.752 106.9 133.49V123.17C106.9 121.908 106.398 120.697 105.506 119.804C104.613 118.912 103.402 118.41 102.14 118.41C100.878 118.41 99.6668 118.912 98.7742 119.804C97.8815 120.697 97.38 121.908 97.38 123.17V133.51C97.38 134.772 97.8815 135.983 98.7742 136.876C99.6668 137.769 100.878 138.27 102.14 138.27M102.14 110.27C98.7151 110.267 95.4293 111.625 93.0048 114.044C90.5802 116.463 89.2153 119.745 89.21 123.17V133.51C89.3036 136.876 90.7064 140.072 93.1201 142.42C95.5338 144.767 98.768 146.08 102.135 146.08C105.502 146.08 108.736 144.767 111.15 142.42C113.564 140.072 114.966 136.876 115.06 133.51V123.17C115.059 121.475 114.723 119.796 114.073 118.23C113.423 116.665 112.471 115.242 111.272 114.044C110.072 112.846 108.648 111.896 107.081 111.249C105.514 110.601 103.835 110.269 102.14 110.27ZM102.14 137.52C101.079 137.52 100.062 137.099 99.3116 136.348C98.5614 135.598 98.14 134.581 98.14 133.52V123.17C98.14 122.109 98.5614 121.092 99.3116 120.342C100.062 119.591 101.079 119.17 102.14 119.17C103.201 119.17 104.218 119.591 104.968 120.342C105.719 121.092 106.14 122.109 106.14 123.17V133.51C106.14 134.571 105.719 135.588 104.968 136.338C104.218 137.089 103.201 137.51 102.14 137.51V137.52Z" fill="url(#paint10_linear_4_1099)"/>
<path d="M84.32 110.62H78.81C78.5334 110.619 78.2646 110.711 78.0468 110.882C77.8291 111.052 77.6752 111.291 77.61 111.56C77.2532 113.287 76.3356 114.848 75 116C73.5139 117.157 71.7598 117.921 69.9 118.22C69.6176 118.276 69.3634 118.428 69.181 118.65C68.9985 118.873 68.8992 119.152 68.9 119.44V123C68.9026 123.328 69.0341 123.642 69.2661 123.874C69.4981 124.106 69.8119 124.237 70.14 124.24H75C75.3271 124.24 75.641 124.369 75.8733 124.6C76.1056 124.83 76.2374 125.143 76.24 125.47V145.2C76.2387 145.362 76.2695 145.523 76.3307 145.674C76.392 145.824 76.4824 145.961 76.5967 146.076C76.711 146.191 76.8471 146.283 76.997 146.345C77.1469 146.408 77.3076 146.44 77.47 146.44H84.3C84.4632 146.441 84.6251 146.41 84.7761 146.348C84.9271 146.286 85.0644 146.195 85.1798 146.08C85.2952 145.964 85.3865 145.827 85.4483 145.676C85.5102 145.525 85.5413 145.363 85.54 145.2V111.85C85.54 111.526 85.4118 111.214 85.1833 110.984C84.9548 110.753 84.6445 110.623 84.32 110.62Z" fill="url(#paint11_linear_4_1099)"/>
<path d="M84.32 111.37C84.3839 111.369 84.4474 111.38 84.5068 111.404C84.5662 111.427 84.6203 111.462 84.6659 111.507C84.7115 111.552 84.7478 111.605 84.7725 111.664C84.7973 111.723 84.81 111.786 84.81 111.85V145.2C84.81 145.33 84.7584 145.455 84.6665 145.547C84.5746 145.638 84.45 145.69 84.32 145.69H77.49C77.4261 145.69 77.3629 145.677 77.304 145.653C77.2451 145.628 77.1917 145.592 77.147 145.546C77.1023 145.5 77.0671 145.446 77.0436 145.387C77.0201 145.327 77.0087 145.264 77.01 145.2V125.44C77.01 124.91 76.7993 124.401 76.4242 124.026C76.0491 123.651 75.5404 123.44 75.01 123.44H70.11C69.98 123.44 69.8554 123.388 69.7635 123.297C69.6716 123.205 69.62 123.08 69.62 122.95V119.42C69.6321 119.319 69.6751 119.225 69.7432 119.15C69.8112 119.074 69.901 119.022 70 119C71.9875 118.68 73.8602 117.858 75.44 116.61C76.9041 115.36 77.9162 113.663 78.32 111.78C78.3449 111.674 78.4049 111.58 78.4903 111.513C78.5757 111.446 78.6813 111.409 78.79 111.41H84.3M84.3 110.66H78.81C78.5334 110.659 78.2646 110.751 78.0468 110.922C77.8291 111.092 77.6752 111.331 77.61 111.6C77.245 113.313 76.3281 114.859 75 116C73.5139 117.157 71.7598 117.921 69.9 118.22C69.6176 118.276 69.3634 118.428 69.181 118.651C68.9985 118.873 68.8992 119.152 68.9 119.44V123C68.9026 123.328 69.0341 123.642 69.2661 123.874C69.4981 124.106 69.8119 124.237 70.14 124.24H75C75.3271 124.24 75.641 124.369 75.8733 124.6C76.1056 124.83 76.2374 125.143 76.24 125.47V145.2C76.2387 145.362 76.2695 145.523 76.3307 145.674C76.392 145.824 76.4824 145.961 76.5967 146.076C76.711 146.192 76.8471 146.283 76.997 146.345C77.1469 146.408 77.3076 146.44 77.47 146.44H84.3C84.4632 146.441 84.6251 146.41 84.7761 146.348C84.9271 146.287 85.0644 146.195 85.1798 146.08C85.2952 145.964 85.3865 145.827 85.4483 145.676C85.5102 145.525 85.5413 145.363 85.54 145.2V111.85C85.54 111.688 85.5079 111.527 85.4454 111.377C85.383 111.227 85.2915 111.091 85.1762 110.977C85.0609 110.862 84.9242 110.772 84.7738 110.711C84.6234 110.65 84.4624 110.619 84.3 110.62V110.66Z" fill="url(#paint12_linear_4_1099)"/>
<path d="M154.08 110.62H146.3C146.146 110.623 145.994 110.661 145.857 110.732C145.72 110.803 145.601 110.905 145.51 111.03L139.01 120.43C138.916 120.549 138.797 120.644 138.661 120.71C138.525 120.776 138.376 120.81 138.225 120.81C138.074 120.81 137.925 120.776 137.789 120.71C137.653 120.644 137.534 120.549 137.44 120.43L130.61 111C130.522 110.875 130.405 110.773 130.269 110.703C130.134 110.634 129.983 110.598 129.83 110.6H122C121.735 110.6 121.48 110.705 121.293 110.893C121.105 111.08 121 111.335 121 111.6V145.46C121 145.725 121.105 145.98 121.293 146.167C121.48 146.355 121.735 146.46 122 146.46H129.86C130.125 146.46 130.38 146.355 130.567 146.167C130.755 145.98 130.86 145.725 130.86 145.46V129.26C130.874 129.066 130.944 128.879 131.062 128.725C131.18 128.57 131.341 128.452 131.525 128.388C131.709 128.323 131.907 128.313 132.097 128.36C132.286 128.406 132.457 128.507 132.59 128.65L137.43 134.91C137.524 135.021 137.641 135.111 137.773 135.173C137.905 135.234 138.049 135.266 138.195 135.266C138.341 135.266 138.485 135.234 138.617 135.173C138.749 135.111 138.866 135.021 138.96 134.91L143.51 128.78C143.641 128.635 143.811 128.531 144 128.482C144.19 128.432 144.389 128.439 144.574 128.502C144.759 128.565 144.922 128.681 145.042 128.835C145.162 128.989 145.235 129.175 145.25 129.37V145.48C145.25 145.745 145.355 146 145.543 146.187C145.73 146.375 145.985 146.48 146.25 146.48H154.11C154.375 146.48 154.63 146.375 154.817 146.187C155.005 146 155.11 145.745 155.11 145.48V111.6C155.107 111.468 155.079 111.337 155.025 111.216C154.972 111.095 154.895 110.986 154.799 110.895C154.704 110.804 154.591 110.733 154.467 110.685C154.344 110.638 154.212 110.616 154.08 110.62Z" fill="url(#paint13_linear_4_1099)"/>
<path d="M154.08 111.37C154.109 111.371 154.137 111.378 154.163 111.39C154.19 111.403 154.213 111.42 154.233 111.441C154.252 111.463 154.267 111.488 154.277 111.515C154.287 111.542 154.291 111.571 154.29 111.6V145.46C154.291 145.489 154.287 145.518 154.277 145.545C154.267 145.572 154.252 145.597 154.233 145.619C154.213 145.64 154.19 145.657 154.163 145.669C154.137 145.682 154.109 145.689 154.08 145.69H146.22C146.19 145.69 146.161 145.684 146.133 145.672C146.106 145.661 146.081 145.644 146.061 145.622C146.04 145.601 146.024 145.575 146.014 145.547C146.003 145.519 145.999 145.49 146 145.46V129.35C146.003 129.122 145.96 128.896 145.874 128.685C145.788 128.474 145.66 128.282 145.499 128.121C145.338 127.96 145.146 127.832 144.935 127.746C144.724 127.66 144.498 127.617 144.27 127.62C144.004 127.619 143.741 127.682 143.505 127.804C143.268 127.926 143.064 128.103 142.91 128.32L138.36 134.45C138.341 134.477 138.315 134.5 138.286 134.516C138.256 134.531 138.223 134.54 138.19 134.54C138.157 134.539 138.124 134.53 138.095 134.515C138.065 134.499 138.04 134.477 138.02 134.45L133.19 128.19C132.969 127.905 132.665 127.697 132.32 127.594C131.975 127.492 131.606 127.5 131.265 127.618C130.925 127.736 130.631 127.958 130.423 128.253C130.216 128.548 130.106 128.9 130.11 129.26V145.46C130.111 145.489 130.107 145.518 130.097 145.545C130.087 145.572 130.072 145.597 130.053 145.619C130.033 145.64 130.01 145.657 129.983 145.669C129.957 145.682 129.929 145.689 129.9 145.69H122C121.97 145.69 121.941 145.684 121.913 145.672C121.886 145.661 121.861 145.644 121.841 145.622C121.82 145.601 121.804 145.575 121.794 145.547C121.783 145.519 121.779 145.49 121.78 145.46V111.6C121.779 111.57 121.783 111.541 121.794 111.513C121.804 111.485 121.82 111.459 121.841 111.438C121.861 111.416 121.886 111.399 121.913 111.388C121.941 111.376 121.97 111.37 122 111.37H129.79C129.824 111.369 129.857 111.377 129.887 111.393C129.916 111.409 129.942 111.432 129.96 111.46L136.79 120.89C136.948 121.115 137.157 121.298 137.401 121.425C137.645 121.552 137.915 121.618 138.19 121.618C138.465 121.618 138.735 121.552 138.979 121.425C139.223 121.298 139.432 121.115 139.59 120.89L146.08 111.49C146.1 111.461 146.127 111.438 146.159 111.422C146.19 111.406 146.225 111.399 146.26 111.4H154.04M154.04 110.65H146.3C146.146 110.653 145.994 110.691 145.857 110.762C145.72 110.833 145.601 110.935 145.51 111.06L139.01 120.46C138.916 120.579 138.797 120.674 138.661 120.74C138.525 120.806 138.376 120.84 138.225 120.84C138.074 120.84 137.925 120.806 137.789 120.74C137.653 120.674 137.534 120.579 137.44 120.46L130.61 111C130.522 110.875 130.405 110.773 130.269 110.703C130.134 110.634 129.983 110.598 129.83 110.6H122C121.735 110.6 121.48 110.705 121.293 110.893C121.105 111.08 121 111.335 121 111.6V145.46C121 145.725 121.105 145.98 121.293 146.167C121.48 146.355 121.735 146.46 122 146.46H129.86C130.125 146.46 130.38 146.355 130.567 146.167C130.755 145.98 130.86 145.725 130.86 145.46V129.26C130.86 128.995 130.965 128.74 131.153 128.553C131.34 128.365 131.595 128.26 131.86 128.26C132.006 128.261 132.15 128.295 132.28 128.361C132.41 128.427 132.523 128.523 132.61 128.64L137.45 134.9C137.538 135.02 137.654 135.117 137.786 135.185C137.919 135.252 138.066 135.287 138.215 135.287C138.364 135.287 138.511 135.252 138.644 135.185C138.776 135.117 138.892 135.02 138.98 134.9L143.53 128.77C143.616 128.649 143.73 128.55 143.863 128.483C143.995 128.415 144.141 128.38 144.29 128.38C144.555 128.38 144.81 128.485 144.997 128.673C145.185 128.86 145.29 129.115 145.29 129.38V145.49C145.29 145.755 145.395 146.01 145.583 146.197C145.77 146.385 146.025 146.49 146.29 146.49H154.15C154.415 146.49 154.67 146.385 154.857 146.197C155.045 146.01 155.15 145.755 155.15 145.49V111.6C155.15 111.335 155.045 111.08 154.857 110.893C154.67 110.705 154.415 110.6 154.15 110.6L154.04 110.65Z" fill="url(#paint14_linear_4_1099)"/>
</g>
<defs>
<linearGradient id="paint0_linear_4_1099" x1="218.75" y1="-4.29" x2="169.39" y2="275.65" gradientUnits="userSpaceOnUse">
<stop offset="0.25" stop-color="#F6E594"/>
<stop offset="0.38" stop-color="#F5E492"/>
<stop offset="0.43" stop-color="#F2DE8B"/>
<stop offset="0.47" stop-color="#ECD580"/>
<stop offset="0.49" stop-color="#E4C86F"/>
<stop offset="0.5" stop-color="#E2C46A"/>
<stop offset="0.61" stop-color="#C89E3F"/>
<stop offset="0.72" stop-color="#E8D17E"/>
<stop offset="0.76" stop-color="#E5CE7C"/>
<stop offset="0.79" stop-color="#DCC574"/>
<stop offset="0.81" stop-color="#CDB568"/>
<stop offset="0.83" stop-color="#B79F57"/>
<stop offset="0.86" stop-color="#9B8240"/>
<stop offset="0.88" stop-color="#684E18"/>
</linearGradient>
<linearGradient id="paint1_linear_4_1099" x1="218.39" y1="-2.27007" x2="169.59" y2="274.51" gradientUnits="userSpaceOnUse">
<stop offset="0.25" stop-color="#F6E594"/>
<stop offset="0.38" stop-color="#F5E492"/>
<stop offset="0.43" stop-color="#F2DE8B"/>
<stop offset="0.47" stop-color="#ECD580"/>
<stop offset="0.49" stop-color="#E4C86F"/>
<stop offset="0.5" stop-color="#E2C46A"/>
<stop offset="0.61" stop-color="#C89E3F"/>
<stop offset="0.72" stop-color="#E8D17E"/>
<stop offset="0.76" stop-color="#E5CE7C"/>
<stop offset="0.79" stop-color="#DCC574"/>
<stop offset="0.81" stop-color="#CDB568"/>
<stop offset="0.83" stop-color="#B79F57"/>
<stop offset="0.86" stop-color="#9B8240"/>
<stop offset="0.88" stop-color="#684E18"/>
</linearGradient>
<linearGradient id="paint2_linear_4_1099" x1="185.95" y1="-0.549964" x2="44.62" y2="244.25" gradientUnits="userSpaceOnUse">
<stop offset="0.25" stop-color="#F6E594"/>
<stop offset="0.38" stop-color="#F5E492"/>
<stop offset="0.43" stop-color="#F2DE8B"/>
<stop offset="0.47" stop-color="#ECD580"/>
<stop offset="0.49" stop-color="#E4C86F"/>
<stop offset="0.5" stop-color="#E2C46A"/>
<stop offset="0.61" stop-color="#C89E3F"/>
<stop offset="0.72" stop-color="#E8D17E"/>
<stop offset="0.76" stop-color="#E5CE7C"/>
<stop offset="0.79" stop-color="#DCC574"/>
<stop offset="0.81" stop-color="#CDB568"/>
<stop offset="0.83" stop-color="#B79F57"/>
<stop offset="0.86" stop-color="#9B8240"/>
<stop offset="0.88" stop-color="#684E18"/>
</linearGradient>
<linearGradient id="paint3_linear_4_1099" x1="185.84" y1="-0.36999" x2="44.72" y2="244.06" gradientUnits="userSpaceOnUse">
<stop offset="0.25" stop-color="#F6E594"/>
<stop offset="0.38" stop-color="#F5E492"/>
<stop offset="0.43" stop-color="#F2DE8B"/>
<stop offset="0.47" stop-color="#ECD580"/>
<stop offset="0.49" stop-color="#E4C86F"/>
<stop offset="0.5" stop-color="#E2C46A"/>
<stop offset="0.61" stop-color="#C89E3F"/>
<stop offset="0.72" stop-color="#E8D17E"/>
<stop offset="0.76" stop-color="#E5CE7C"/>
<stop offset="0.79" stop-color="#DCC574"/>
<stop offset="0.81" stop-color="#CDB568"/>
<stop offset="0.83" stop-color="#B79F57"/>
<stop offset="0.86" stop-color="#9B8240"/>
<stop offset="0.88" stop-color="#684E18"/>
</linearGradient>
<linearGradient id="paint4_linear_4_1099" x1="146.14" y1="16.5001" x2="67.15" y2="233.51" gradientUnits="userSpaceOnUse">
<stop stop-color="#F6E594"/>
<stop offset="0.33" stop-color="#F6E492"/>
<stop offset="0.45" stop-color="#F4DF8B"/>
<stop offset="0.53" stop-color="#F2D880"/>
<stop offset="0.6" stop-color="#EFCD6F"/>
<stop offset="0.65" stop-color="#EBC15C"/>
<stop offset="0.7" stop-color="#C89D47"/>
<stop offset="0.82" stop-color="#7A4D18"/>
<stop offset="0.97" stop-color="#C1914C"/>
</linearGradient>
<linearGradient id="paint5_linear_4_1099" x1="166.09" y1="34.2001" x2="53.02" y2="230.04" gradientUnits="userSpaceOnUse">
<stop stop-color="#FFFFAD"/>
<stop offset="0.26" stop-color="#F6E594"/>
<stop offset="0.34" stop-color="#F5E492"/>
<stop offset="0.37" stop-color="#F2DE8B"/>
<stop offset="0.39" stop-color="#ECD580"/>
<stop offset="0.41" stop-color="#E2C46A"/>
<stop offset="0.51" stop-color="#A68C46"/>
<stop offset="0.66" stop-color="#564217"/>
<stop offset="0.68" stop-color="#75612D"/>
<stop offset="0.73" stop-color="#C7B167"/>
<stop offset="0.75" stop-color="#E8D17E"/>
<stop offset="0.78" stop-color="#E5CE7C"/>
<stop offset="0.81" stop-color="#DDC574"/>
<stop offset="0.83" stop-color="#CFB568"/>
<stop offset="0.85" stop-color="#BB9F56"/>
<stop offset="0.86" stop-color="#A2823F"/>
<stop offset="0.88" stop-color="#825E23"/>
<stop offset="0.9" stop-color="#5B3200"/>
</linearGradient>
<linearGradient id="paint6_linear_4_1099" x1="116.21" y1="155.95" x2="116.21" y2="166.49" gradientUnits="userSpaceOnUse">
<stop stop-color="#F6E594"/>
<stop offset="0.21" stop-color="#F5E492"/>
<stop offset="0.29" stop-color="#F2DE8B"/>
<stop offset="0.34" stop-color="#ECD580"/>
<stop offset="0.39" stop-color="#E4C86F"/>
<stop offset="0.4" stop-color="#E2C46A"/>
<stop offset="0.49" stop-color="#BA9D4E"/>
<stop offset="0.69" stop-color="#6A4E17"/>
<stop offset="0.72" stop-color="#6F531B"/>
<stop offset="0.75" stop-color="#7D6227"/>
<stop offset="0.79" stop-color="#957B3A"/>
<stop offset="0.83" stop-color="#B69D55"/>
<stop offset="0.86" stop-color="#E0C977"/>
<stop offset="0.87" stop-color="#E8D17E"/>
<stop offset="0.9" stop-color="#E5CE7C"/>
<stop offset="0.92" stop-color="#DCC574"/>
<stop offset="0.94" stop-color="#CDB568"/>
<stop offset="0.96" stop-color="#B79F57"/>
<stop offset="0.98" stop-color="#9B8240"/>
<stop offset="0.99" stop-color="#785F25"/>
<stop offset="1" stop-color="#684E18"/>
</linearGradient>
<linearGradient id="paint7_linear_4_1099" x1="116.34" y1="76.2301" x2="116.34" y2="86.7701" gradientUnits="userSpaceOnUse">
<stop stop-color="#F6E594"/>
<stop offset="0.21" stop-color="#F5E492"/>
<stop offset="0.29" stop-color="#F2DE8B"/>
<stop offset="0.34" stop-color="#ECD580"/>
<stop offset="0.39" stop-color="#E4C86F"/>
<stop offset="0.4" stop-color="#E2C46A"/>
<stop offset="0.49" stop-color="#BA9D4E"/>
<stop offset="0.69" stop-color="#6A4E17"/>
<stop offset="0.72" stop-color="#6F531B"/>
<stop offset="0.75" stop-color="#7D6227"/>
<stop offset="0.79" stop-color="#957B3A"/>
<stop offset="0.83" stop-color="#B69D55"/>
<stop offset="0.86" stop-color="#E0C977"/>
<stop offset="0.87" stop-color="#E8D17E"/>
<stop offset="0.9" stop-color="#E5CE7C"/>
<stop offset="0.92" stop-color="#DCC574"/>
<stop offset="0.94" stop-color="#CDB568"/>
<stop offset="0.96" stop-color="#B79F57"/>
<stop offset="0.98" stop-color="#9B8240"/>
<stop offset="0.99" stop-color="#785F25"/>
<stop offset="1" stop-color="#684E18"/>
</linearGradient>
<linearGradient id="paint8_linear_4_1099" x1="65.38" y1="128.35" x2="158.54" y2="128.35" gradientUnits="userSpaceOnUse">
<stop stop-color="#F6E594"/>
<stop offset="0.36" stop-color="#F6E492"/>
<stop offset="0.5" stop-color="#F4DF8B"/>
<stop offset="0.59" stop-color="#F2D880"/>
<stop offset="0.66" stop-color="#EFCD6F"/>
<stop offset="0.72" stop-color="#EBC15C"/>
<stop offset="0.77" stop-color="#C89D47"/>
<stop offset="0.88" stop-color="#7A4D18"/>
<stop offset="0.95" stop-color="#C1914C"/>
<stop offset="0.96" stop-color="#BE8F4A"/>
<stop offset="0.97" stop-color="#B58742"/>
<stop offset="0.98" stop-color="#A57B36"/>
<stop offset="0.99" stop-color="#8F6924"/>
<stop offset="1" stop-color="#624600"/>
</linearGradient>
<linearGradient id="paint9_linear_4_1099" x1="102.14" y1="110.27" x2="102.14" y2="151.95" gradientUnits="userSpaceOnUse">
<stop stop-color="#F6E594"/>
<stop offset="0.17" stop-color="#F6E492"/>
<stop offset="0.24" stop-color="#F4DF8B"/>
<stop offset="0.28" stop-color="#F2D880"/>
<stop offset="0.32" stop-color="#EFCD6F"/>
<stop offset="0.35" stop-color="#EBC15C"/>
<stop offset="0.4" stop-color="#C89D47"/>
<stop offset="0.54" stop-color="#7A4D18"/>
<stop offset="0.66" stop-color="#B68644"/>
<stop offset="0.77" stop-color="#C1914C"/>
<stop offset="0.8" stop-color="#C3944E"/>
<stop offset="0.82" stop-color="#C99D56"/>
<stop offset="0.84" stop-color="#D3AD63"/>
<stop offset="0.86" stop-color="#E2C375"/>
<stop offset="0.88" stop-color="#F5E08C"/>
</linearGradient>
<linearGradient id="paint10_linear_4_1099" x1="102.14" y1="110.27" x2="102.14" y2="146.41" gradientUnits="userSpaceOnUse">
<stop stop-color="#FFF7AB"/>
<stop offset="0.41" stop-color="#F6E594"/>
<stop offset="0.57" stop-color="#F6E492"/>
<stop offset="0.62" stop-color="#F4DF8B"/>
<stop offset="0.66" stop-color="#F2D880"/>
<stop offset="0.7" stop-color="#EFCD6F"/>
<stop offset="0.72" stop-color="#EBC15C"/>
<stop offset="0.77" stop-color="#C89D47"/>
<stop offset="0.88" stop-color="#7A4D18"/>
<stop offset="0.91" stop-color="#C1914C"/>
<stop offset="0.92" stop-color="#BE8E4A"/>
<stop offset="0.94" stop-color="#B58643"/>
<stop offset="0.95" stop-color="#A57838"/>
<stop offset="0.96" stop-color="#724A14"/>
<stop offset="0.97" stop-color="#553000"/>
</linearGradient>
<linearGradient id="paint11_linear_4_1099" x1="77.22" y1="110.62" x2="77.22" y2="154.62" gradientUnits="userSpaceOnUse">
<stop stop-color="#F6E594"/>
<stop offset="0.17" stop-color="#F6E492"/>
<stop offset="0.24" stop-color="#F4DF8B"/>
<stop offset="0.28" stop-color="#F2D880"/>
<stop offset="0.32" stop-color="#EFCD6F"/>
<stop offset="0.35" stop-color="#EBC15C"/>
<stop offset="0.4" stop-color="#C89D47"/>
<stop offset="0.54" stop-color="#7A4D18"/>
<stop offset="0.66" stop-color="#B68644"/>
<stop offset="0.77" stop-color="#C1914C"/>
<stop offset="0.8" stop-color="#C3944E"/>
<stop offset="0.82" stop-color="#C99D56"/>
<stop offset="0.84" stop-color="#D3AD63"/>
<stop offset="0.86" stop-color="#E2C375"/>
<stop offset="0.88" stop-color="#F5E08C"/>
</linearGradient>
<linearGradient id="paint12_linear_4_1099" x1="77.22" y1="110.62" x2="77.22" y2="146.44" gradientUnits="userSpaceOnUse">
<stop stop-color="#FFF7AB"/>
<stop offset="0.41" stop-color="#F6E594"/>
<stop offset="0.57" stop-color="#F6E492"/>
<stop offset="0.62" stop-color="#F4DF8B"/>
<stop offset="0.66" stop-color="#F2D880"/>
<stop offset="0.7" stop-color="#EFCD6F"/>
<stop offset="0.72" stop-color="#EBC15C"/>
<stop offset="0.77" stop-color="#C89D47"/>
<stop offset="0.88" stop-color="#7A4D18"/>
<stop offset="0.91" stop-color="#C1914C"/>
<stop offset="0.92" stop-color="#BE8E4A"/>
<stop offset="0.94" stop-color="#B58643"/>
<stop offset="0.95" stop-color="#A57838"/>
<stop offset="0.96" stop-color="#724A14"/>
<stop offset="0.97" stop-color="#553000"/>
</linearGradient>
<linearGradient id="paint13_linear_4_1099" x1="138.06" y1="110.62" x2="138.06" y2="152.2" gradientUnits="userSpaceOnUse">
<stop stop-color="#F6E594"/>
<stop offset="0.17" stop-color="#F6E492"/>
<stop offset="0.24" stop-color="#F4DF8B"/>
<stop offset="0.28" stop-color="#F2D880"/>
<stop offset="0.32" stop-color="#EFCD6F"/>
<stop offset="0.35" stop-color="#EBC15C"/>
<stop offset="0.4" stop-color="#C89D47"/>
<stop offset="0.54" stop-color="#7A4D18"/>
<stop offset="0.66" stop-color="#B68644"/>
<stop offset="0.77" stop-color="#C1914C"/>
<stop offset="0.8" stop-color="#C3944E"/>
<stop offset="0.82" stop-color="#C99D56"/>
<stop offset="0.84" stop-color="#D3AD63"/>
<stop offset="0.86" stop-color="#E2C375"/>
<stop offset="0.88" stop-color="#F5E08C"/>
</linearGradient>
<linearGradient id="paint14_linear_4_1099" x1="138.06" y1="110.62" x2="138.06" y2="146.44" gradientUnits="userSpaceOnUse">
<stop stop-color="#FFF7AB"/>
<stop offset="0.41" stop-color="#F6E594"/>
<stop offset="0.57" stop-color="#F6E492"/>
<stop offset="0.62" stop-color="#F4DF8B"/>
<stop offset="0.66" stop-color="#F2D880"/>
<stop offset="0.7" stop-color="#EFCD6F"/>
<stop offset="0.72" stop-color="#EBC15C"/>
<stop offset="0.77" stop-color="#C89D47"/>
<stop offset="0.88" stop-color="#7A4D18"/>
<stop offset="0.91" stop-color="#C1914C"/>
<stop offset="0.92" stop-color="#BE8E4A"/>
<stop offset="0.94" stop-color="#B58643"/>
<stop offset="0.95" stop-color="#A57838"/>
<stop offset="0.96" stop-color="#724A14"/>
<stop offset="0.97" stop-color="#553000"/>
</linearGradient>
</defs>
</svg>
