<svg width="233" height="232" viewBox="0 0 233 232" fill="none" xmlns="http://www.w3.org/2000/svg">
<mask id="mask0_4_91" style="mask-type:luminance" maskUnits="userSpaceOnUse" x="0" y="0" width="233" height="232">
<path d="M232.57 0H0V231.49H232.57V0Z" fill="white"/>
</mask>
<g mask="url(#mask0_4_91)">
<path d="M115.37 24.78L145.65 86.13L213.35 95.97L164.36 143.72L175.92 211.15L115.37 179.31L54.82 211.15L66.38 143.72L17.39 95.97L85.09 86.13L115.37 24.78Z" fill="black"/>
<mask id="mask1_4_91" style="mask-type:luminance" maskUnits="userSpaceOnUse" x="18" y="24" width="197" height="188">
<path d="M116.37 24.78L146.65 86.13L214.35 95.97L165.36 143.72L176.92 211.15L116.37 179.31L55.82 211.15L67.38 143.72L18.39 95.97L86.09 86.13L116.37 24.78Z" fill="white"/>
</mask>
<g mask="url(#mask1_4_91)">
<path d="M115.69 264.47V126.05L72.92 257.7L71.82 257.34L114.6 125.69L33.23 237.68L32.3 237L113.67 125.02L1.68002 206.38L1.00002 205.45L112.99 124.08L-18.66 166.86L-19.02 165.77L112.64 122.99H-25.79V121.84H112.64L-19.02 79.06L-18.66 77.97L112.99 120.75L1.00002 39.38L1.68002 38.45L113.67 119.82L32.3 7.82998L33.23 7.14998L114.6 119.14L71.82 -12.51L72.92 -12.86L115.69 118.79V-19.64H116.84V118.79L159.62 -12.86L160.71 -12.51L117.94 119.14L199.3 7.14998L200.23 7.82998L118.87 119.82L230.85 38.45L231.53 39.38L119.54 120.75L251.19 77.97L251.55 79.06L119.9 121.84H258.32V122.99H119.9L251.55 165.77L251.19 166.86L119.54 124.08L231.53 205.45L230.85 206.38L118.87 125.02L200.23 237L199.3 237.68L117.94 125.69L160.71 257.34L159.62 257.7L116.84 126.05V264.47H115.69Z" fill="url(#paint0_linear_4_91)"/>
<path d="M258.12 122.04H118.63L251.3 78.94L251.06 78.22L118.4 121.33L231.25 39.34L230.81 38.73L117.96 120.72L199.95 7.87L199.34 7.43L117.36 120.28L160.46 -12.38L159.75 -12.61L116.64 120.05V-19.44H115.89V120.05L72.79 -12.61L72.07 -12.38L115.18 120.28L33.19 7.43L32.58 7.87L114.57 120.72L1.72003 38.73L1.28004 39.34L114.13 121.33L-18.53 78.22L-18.76 78.94L113.9 122.04H-25.59V122.79H113.9L-18.76 165.9L-18.53 166.61L114.13 123.5L1.28004 205.49L1.72003 206.1L114.57 124.11L32.58 236.96L33.19 237.4L115.18 124.55L72.07 257.21L72.79 257.44L115.89 124.78V264.27H116.64V124.78L159.75 257.44L160.46 257.21L117.36 124.55L199.34 237.4L199.95 236.96L117.96 124.11L230.81 206.1L231.25 205.49L118.4 123.5L251.06 166.61L251.3 165.9L118.63 122.79H258.12V122.04Z" fill="url(#paint1_linear_4_91)"/>
</g>
<path d="M185.47 225.46L117.18 187.89C116.884 187.727 116.552 187.642 116.215 187.642C115.878 187.642 115.546 187.727 115.25 187.89L47 225.45C46.6758 225.642 46.304 225.739 45.9273 225.729C45.5507 225.719 45.1845 225.603 44.871 225.394C44.5575 225.185 44.3094 224.891 44.1553 224.547C44.0012 224.203 43.9474 223.823 44 223.45L55.16 148.45C55.2051 148.143 55.178 147.829 55.0808 147.534C54.9836 147.239 54.819 146.97 54.6 146.75L1.48001 93.54C1.22291 93.2856 1.03959 92.9663 0.949572 92.6161C0.859552 92.2658 0.866197 91.8976 0.968802 91.5508C1.07141 91.204 1.26613 90.8915 1.53224 90.6466C1.79836 90.4017 2.1259 90.2335 2.48001 90.16L75.48 75.39C75.7641 75.3312 76.032 75.2113 76.2651 75.0386C76.4982 74.866 76.691 74.6446 76.83 74.39L114.55 6.8C114.721 6.48249 114.975 6.21726 115.285 6.0324C115.595 5.84754 115.949 5.74994 116.31 5.74994C116.671 5.74994 117.025 5.84754 117.335 6.0324C117.645 6.21726 117.899 6.48249 118.07 6.8L154.65 75.28C154.794 75.5404 154.995 75.7652 155.237 75.9382C155.479 76.1112 155.757 76.228 156.05 76.28L230 90C230.36 90.0652 230.696 90.228 230.97 90.4707C231.244 90.7134 231.446 91.0266 231.554 91.3763C231.662 91.7259 231.673 92.0986 231.584 92.4537C231.495 92.8087 231.31 93.1326 231.05 93.39L177.55 146.61C177.328 146.833 177.162 147.104 177.064 147.403C176.967 147.702 176.942 148.019 176.99 148.33L188.37 223.33C188.438 223.699 188.4 224.08 188.262 224.429C188.123 224.778 187.889 225.081 187.587 225.303C187.284 225.525 186.925 225.658 186.551 225.685C186.177 225.713 185.802 225.635 185.47 225.46ZM27.81 101.46L68.46 142.08C68.6784 142.304 68.841 142.577 68.9348 142.876C69.0286 143.174 69.0509 143.491 69 143.8L60.74 199.36C60.6954 199.725 60.7522 200.094 60.9039 200.429C61.0557 200.763 61.2966 201.05 61.6003 201.256C61.904 201.463 62.2587 201.582 62.6256 201.6C62.9924 201.618 63.3572 201.535 63.68 201.36L115.23 173C115.526 172.837 115.858 172.752 116.195 172.752C116.532 172.752 116.864 172.837 117.16 173L168.65 201.33C168.973 201.505 169.338 201.588 169.704 201.57C170.071 201.552 170.426 201.433 170.73 201.226C171.033 201.02 171.274 200.733 171.426 200.399C171.578 200.064 171.635 199.695 171.59 199.33L163.17 143.8C163.123 143.491 163.15 143.175 163.247 142.878C163.344 142.582 163.51 142.311 163.73 142.09L204.33 101.69C204.587 101.436 204.77 101.116 204.86 100.766C204.95 100.416 204.944 100.048 204.841 99.7008C204.739 99.354 204.544 99.0415 204.278 98.7966C204.012 98.5517 203.684 98.3835 203.33 98.31L147.53 88C147.237 87.948 146.959 87.8312 146.717 87.6582C146.475 87.4852 146.274 87.2604 146.13 87L117.81 34C117.638 33.685 117.384 33.4221 117.075 33.2389C116.766 33.0558 116.414 32.9592 116.055 32.9592C115.696 32.9592 115.344 33.0558 115.035 33.2389C114.726 33.4221 114.472 33.685 114.3 34L85.3 86C85.161 86.2546 84.9682 86.476 84.7351 86.6486C84.502 86.8213 84.2341 86.9412 83.95 87L28.83 98.1C28.4763 98.1719 28.1486 98.3382 27.8817 98.5813C27.6148 98.8243 27.4187 99.1351 27.3141 99.4806C27.2095 99.826 27.2004 100.193 27.2877 100.544C27.375 100.894 27.5555 101.214 27.81 101.47V101.46Z" fill="url(#paint2_linear_4_91)"/>
<mask id="mask2_4_91" style="mask-type:luminance" maskUnits="userSpaceOnUse" x="0" y="5" width="232" height="221">
<path d="M185.47 225.46L117.18 187.89C116.884 187.727 116.552 187.642 116.215 187.642C115.878 187.642 115.546 187.727 115.25 187.89L47 225.45C46.6758 225.642 46.304 225.739 45.9273 225.729C45.5507 225.719 45.1845 225.603 44.871 225.394C44.5575 225.185 44.3094 224.891 44.1553 224.547C44.0012 224.203 43.9474 223.823 44 223.45L55.16 148.45C55.2051 148.143 55.178 147.829 55.0808 147.534C54.9836 147.239 54.819 146.97 54.6 146.75L1.48001 93.54C1.22291 93.2856 1.03959 92.9663 0.949572 92.6161C0.859552 92.2658 0.866197 91.8976 0.968802 91.5508C1.07141 91.204 1.26613 90.8915 1.53224 90.6466C1.79836 90.4017 2.1259 90.2335 2.48001 90.16L75.48 75.39C75.7641 75.3312 76.032 75.2113 76.2651 75.0386C76.4982 74.866 76.691 74.6446 76.83 74.39L114.55 6.8C114.721 6.48249 114.975 6.21726 115.285 6.0324C115.595 5.84754 115.949 5.74994 116.31 5.74994C116.671 5.74994 117.025 5.84754 117.335 6.0324C117.645 6.21726 117.899 6.48249 118.07 6.8L154.65 75.28C154.794 75.5404 154.995 75.7652 155.237 75.9382C155.479 76.1112 155.757 76.228 156.05 76.28L230 90C230.36 90.0652 230.696 90.228 230.97 90.4707C231.244 90.7134 231.446 91.0266 231.554 91.3763C231.662 91.7259 231.673 92.0986 231.584 92.4537C231.495 92.8087 231.31 93.1326 231.05 93.39L177.55 146.61C177.328 146.833 177.162 147.104 177.064 147.403C176.967 147.702 176.942 148.019 176.99 148.33L188.37 223.33C188.438 223.699 188.4 224.08 188.262 224.429C188.123 224.778 187.889 225.081 187.587 225.303C187.284 225.525 186.925 225.658 186.551 225.685C186.177 225.713 185.802 225.635 185.47 225.46ZM27.81 101.46L68.46 142.08C68.6784 142.304 68.841 142.577 68.9348 142.876C69.0286 143.174 69.0509 143.491 69 143.8L60.74 199.36C60.6954 199.725 60.7522 200.094 60.9039 200.429C61.0557 200.763 61.2966 201.05 61.6003 201.256C61.904 201.463 62.2587 201.582 62.6256 201.6C62.9924 201.618 63.3572 201.535 63.68 201.36L115.23 173C115.526 172.837 115.858 172.752 116.195 172.752C116.532 172.752 116.864 172.837 117.16 173L168.65 201.33C168.973 201.505 169.338 201.588 169.704 201.57C170.071 201.552 170.426 201.433 170.73 201.226C171.033 201.02 171.274 200.733 171.426 200.399C171.578 200.064 171.635 199.695 171.59 199.33L163.17 143.8C163.123 143.491 163.15 143.175 163.247 142.878C163.344 142.582 163.51 142.311 163.73 142.09L204.33 101.69C204.587 101.436 204.77 101.116 204.86 100.766C204.95 100.416 204.944 100.048 204.841 99.7008C204.739 99.354 204.544 99.0415 204.278 98.7966C204.012 98.5517 203.684 98.3835 203.33 98.31L147.53 88C147.237 87.948 146.959 87.8312 146.717 87.6582C146.475 87.4852 146.274 87.2604 146.13 87L117.81 34C117.638 33.685 117.384 33.4221 117.075 33.2389C116.766 33.0558 116.414 32.9592 116.055 32.9592C115.696 32.9592 115.344 33.0558 115.035 33.2389C114.726 33.4221 114.472 33.685 114.3 34L85.3 86C85.161 86.2546 84.9682 86.476 84.7351 86.6486C84.502 86.8213 84.2341 86.9412 83.95 87L28.83 98.1C28.4763 98.1719 28.1486 98.3382 27.8817 98.5813C27.6148 98.8243 27.4187 99.1351 27.3141 99.4806C27.2095 99.826 27.2004 100.193 27.2877 100.544C27.375 100.894 27.5555 101.214 27.81 101.47V101.46Z" fill="white"/>
</mask>
<g mask="url(#mask2_4_91)">
<path d="M116.64 -19.26H115.89V264.45H116.64V-19.26Z" fill="#C89E3F"/>
<path d="M109.212 -19.0881L108.463 -19.0488L123.311 264.272L124.06 264.233L109.212 -19.0881Z" fill="#C89E3F"/>
<path d="M101.808 -18.5267L101.062 -18.4483L130.718 263.708L131.464 263.629L101.808 -18.5267Z" fill="#C89E3F"/>
<path d="M94.441 -17.5694L93.7003 -17.4521L138.082 262.765L138.823 262.648L94.441 -17.5694Z" fill="#C89E3F"/>
<path d="M87.3126 -16.5192L86.5776 -16.3617L146.157 261.674L146.892 261.517L87.3126 -16.5192Z" fill="#C89E3F"/>
<path d="M79.9107 -14.5224L79.1863 -14.3283L152.616 259.715L153.34 259.52L79.9107 -14.5224Z" fill="#C89E3F"/>
<path d="M72.7896 -12.4311L72.0763 -12.1993L159.747 257.625L160.461 257.393L72.7896 -12.4311Z" fill="#C89E3F"/>
<path d="M65.7807 -9.97083L65.0805 -9.70205L166.753 255.164L167.453 254.895L65.7807 -9.97083Z" fill="#C89E3F"/>
<path d="M58.9122 -7.14667L58.227 -6.84161L173.622 252.34L174.307 252.035L58.9122 -7.14667Z" fill="#C89E3F"/>
<path d="M52.1931 -3.96423L51.5249 -3.62373L180.327 249.164L180.995 248.823L52.1931 -3.96423Z" fill="#C89E3F"/>
<path d="M45.6632 -0.439636L45.0137 -0.0646364L186.869 245.635L187.518 245.26L45.6632 -0.439636Z" fill="#C89E3F"/>
<path d="M39.3228 3.42053L38.6938 3.829L193.213 241.768L193.842 241.36L39.3228 3.42053Z" fill="#C89E3F"/>
<path d="M33.183 7.60907L32.5762 8.04991L199.337 237.576L199.944 237.135L33.183 7.60907Z" fill="#C89E3F"/>
<path d="M27.2856 12.1183L26.7027 12.5902L205.247 233.074L205.83 232.602L27.2856 12.1183Z" fill="#C89E3F"/>
<path d="M21.623 16.9296L21.0656 17.4315L210.905 228.269L211.462 227.767L21.623 16.9296Z" fill="#C89E3F"/>
<path d="M16.2181 22.0242L15.6877 22.5545L216.301 223.168L216.831 222.637L16.2181 22.0242Z" fill="#C89E3F"/>
<path d="M11.0944 27.4021L10.5926 27.9595L221.43 217.799L221.932 217.241L11.0944 27.4021Z" fill="#C89E3F"/>
<path d="M6.25611 33.033L5.78412 33.6159L226.268 212.16L226.74 211.577L6.25611 33.033Z" fill="#C89E3F"/>
<path d="M1.71759 38.9155L1.27676 39.5223L230.803 206.283L231.244 205.676L1.71759 38.9155Z" fill="#C89E3F"/>
<path d="M-2.5061 45.0277L-2.91458 45.6567L235.025 200.176L235.433 199.547L-2.5061 45.0277Z" fill="#C89E3F"/>
<path d="M-6.39966 51.3468L-6.77466 51.9963L238.925 193.851L239.3 193.202L-6.39966 51.3468Z" fill="#C89E3F"/>
<path d="M-9.95733 57.8591L-10.2978 58.5274L242.49 187.329L242.83 186.661L-9.95733 57.8591Z" fill="#C89E3F"/>
<path d="M-13.1731 64.5603L-13.4782 65.2455L245.704 180.641L246.009 179.956L-13.1731 64.5603Z" fill="#C89E3F"/>
<path d="M-16.0307 71.415L-16.2995 72.1152L248.567 173.788L248.835 173.088L-16.0307 71.415Z" fill="#C89E3F"/>
<path d="M251.06 166.79L-18.76 79.12L-18.53 78.41L251.3 166.08L251.06 166.79Z" fill="#C89E3F"/>
<path d="M253.19 159.68L-20.85 86.25L-20.66 85.52L253.39 158.95L253.19 159.68Z" fill="#C89E3F"/>
<path d="M-22.4183 92.7345L-22.5742 93.4681L254.936 152.455L255.092 151.721L-22.4183 92.7345Z" fill="#C89E3F"/>
<path d="M-23.7864 100.033L-23.9037 100.774L256.313 145.156L256.431 144.415L-23.7864 100.033Z" fill="#C89E3F"/>
<path d="M-24.7723 107.396L-24.8507 108.142L257.305 137.797L257.384 137.052L-24.7723 107.396Z" fill="#C89E3F"/>
<path d="M-25.3791 114.802L-25.4184 115.551L257.903 130.399L257.942 129.65L-25.3791 114.802Z" fill="#C89E3F"/>
<path d="M258.12 122.22H-25.59V122.97H258.12V122.22Z" fill="#C89E3F"/>
<path d="M257.914 114.81L-25.41 129.608L-25.3708 130.357L257.953 115.559L257.914 114.81Z" fill="#C89E3F"/>
<path d="M257.308 107.444L-24.8577 137.001L-24.7796 137.747L257.387 108.19L257.308 107.444Z" fill="#C89E3F"/>
<path d="M256.313 100.092L-23.9191 144.376L-23.802 145.117L256.431 100.833L256.313 100.092Z" fill="#C89E3F"/>
<path d="M254.935 92.6575L-22.5444 151.789L-22.3881 152.523L255.091 93.3911L254.935 92.6575Z" fill="#C89E3F"/>
<path d="M-20.66 159.68L-20.85 158.95L253.19 85.52L253.39 86.25L-20.66 159.68Z" fill="#C89E3F"/>
<path d="M-18.53 166.79L-18.76 166.08L251.06 78.41L251.3 79.12L-18.53 166.79Z" fill="#C89E3F"/>
<path d="M248.514 71.3017L-16.263 173.205L-15.9936 173.905L248.784 72.0017L248.514 71.3017Z" fill="#C89E3F"/>
<path d="M245.741 64.656L-13.5215 179.87L-13.2169 180.556L246.046 65.3414L245.741 64.656Z" fill="#C89E3F"/>
<path d="M242.528 57.9143L-10.3272 186.584L-9.98711 187.252L242.868 58.5827L242.528 57.9143Z" fill="#C89E3F"/>
<path d="M238.918 51.3556L-6.78159 193.211L-6.40659 193.86L239.293 52.0052L238.918 51.3556Z" fill="#C89E3F"/>
<path d="M235.05 45.0295L-2.91611 199.508L-2.50774 200.137L235.458 45.6586L235.05 45.0295Z" fill="#C89E3F"/>
<path d="M230.736 38.814L1.35577 205.775L1.79714 206.381L231.178 39.4204L230.736 38.814Z" fill="#C89E3F"/>
<path d="M226.217 32.9873L5.82654 211.647L6.29884 212.23L226.689 33.5699L226.217 32.9873Z" fill="#C89E3F"/>
<path d="M221.446 27.4289L10.5752 217.231L11.077 217.789L221.948 27.9864L221.446 27.4289Z" fill="#C89E3F"/>
<path d="M216.217 21.9495L15.7789 222.738L16.3097 223.268L216.748 22.4794L216.217 21.9495Z" fill="#C89E3F"/>
<path d="M210.98 16.9846L20.9937 227.69L21.5507 228.192L211.537 17.4869L210.98 16.9846Z" fill="#C89E3F"/>
<path d="M205.286 12.1485L26.6647 232.57L27.2474 233.042L205.869 12.6207L205.286 12.1485Z" fill="#C89E3F"/>
<path d="M199.238 7.55707L32.6774 237.229L33.2845 237.669L199.845 7.99738L199.238 7.55707Z" fill="#C89E3F"/>
<path d="M193.188 3.42572L38.7104 241.392L39.3394 241.8L193.817 3.83409L193.188 3.42572Z" fill="#C89E3F"/>
<path d="M186.801 -0.471436L45.0742 245.303L45.7239 245.678L187.45 -0.0967753L186.801 -0.471436Z" fill="#C89E3F"/>
<path d="M180.394 -3.94147L51.4602 248.779L52.1283 249.119L181.062 -3.60063L180.394 -3.94147Z" fill="#C89E3F"/>
<path d="M173.53 -7.19421L58.3161 252.068L59.0015 252.373L174.216 -6.88964L173.53 -7.19421Z" fill="#C89E3F"/>
<path d="M166.695 -9.99817L65.1152 254.903L65.8155 255.172L167.396 -9.72964L166.695 -9.99817Z" fill="#C89E3F"/>
<path d="M159.725 -12.4228L72.1012 257.417L72.8146 257.648L160.439 -12.1912L159.725 -12.4228Z" fill="#C89E3F"/>
<path d="M152.64 -14.5196L79.1624 259.51L79.8869 259.705L153.364 -14.3254L152.64 -14.5196Z" fill="#C89E3F"/>
<path d="M145.415 -16.2282L86.3799 261.272L87.1135 261.428L146.149 -16.0722L145.415 -16.2282Z" fill="#C89E3F"/>
<path d="M139.297 -17.7236L93.9034 263.149L94.6459 263.269L140.04 -17.6036L139.297 -17.7236Z" fill="#C89E3F"/>
<path d="M130.676 -18.5223L101.119 263.644L101.865 263.722L131.422 -18.4442L130.676 -18.5223Z" fill="#C89E3F"/>
<path d="M123.288 -19.0834L108.489 264.24L109.238 264.279L124.037 -19.0443L123.288 -19.0834Z" fill="#C89E3F"/>
</g>
<path d="M116.3 6.76997C116.481 6.77046 116.658 6.82 116.813 6.91334C116.968 7.00667 117.095 7.1403 117.18 7.29997L153.76 75.78C153.972 76.178 154.271 76.5231 154.634 76.7897C154.998 77.0564 155.417 77.2376 155.86 77.32L229.86 91.03C230.039 91.064 230.205 91.146 230.34 91.2673C230.476 91.3886 230.576 91.5445 230.629 91.7184C230.683 91.8922 230.688 92.0773 230.644 92.2538C230.6 92.4303 230.509 92.5915 230.38 92.72L176.89 145.94C176.555 146.273 176.304 146.68 176.156 147.128C176.009 147.577 175.969 148.053 176.04 148.52L187.42 223.52C187.443 223.661 187.435 223.806 187.397 223.944C187.359 224.082 187.292 224.21 187.2 224.32C187.105 224.431 186.987 224.52 186.854 224.58C186.721 224.641 186.576 224.671 186.43 224.67C186.263 224.668 186.098 224.627 185.95 224.55L117.66 187C117.217 186.757 116.72 186.629 116.215 186.629C115.71 186.629 115.213 186.757 114.77 187L46.51 224.57C46.3605 224.655 46.1918 224.699 46.02 224.7C45.8748 224.699 45.7316 224.666 45.6003 224.604C45.4691 224.542 45.3529 224.452 45.26 224.34C45.1678 224.232 45.0996 224.106 45.06 223.97C45.0203 223.834 45.0101 223.69 45.03 223.55L56.19 148.55C56.258 148.087 56.2166 147.614 56.0689 147.169C55.9213 146.725 55.6717 146.321 55.34 145.99L2.18 92.83C2.05146 92.7017 1.96027 92.5409 1.91623 92.3647C1.87218 92.1885 1.87694 92.0037 1.93 91.83C1.98094 91.6552 2.07865 91.4976 2.21259 91.3742C2.34652 91.2509 2.51159 91.1664 2.69 91.13L75.69 76.36C76.1098 76.2707 76.5056 76.0924 76.8507 75.8371C77.1957 75.5818 77.4819 75.2554 77.69 74.88L115.43 7.27997C115.517 7.12551 115.643 6.99689 115.796 6.90728C115.949 6.81766 116.123 6.77028 116.3 6.76997ZM62.74 202.66C63.2468 202.661 63.7457 202.534 64.19 202.29L115.73 173.93C115.882 173.842 116.054 173.796 116.23 173.796C116.406 173.796 116.578 173.842 116.73 173.93L168.22 202.26C168.661 202.502 169.157 202.629 169.66 202.63C170.089 202.636 170.515 202.55 170.909 202.378C171.302 202.205 171.654 201.95 171.94 201.63C172.221 201.303 172.428 200.919 172.547 200.505C172.666 200.091 172.694 199.656 172.63 199.23L164.2 143.7C164.177 143.544 164.191 143.385 164.242 143.235C164.292 143.086 164.377 142.95 164.49 142.84L205.08 102.45C205.466 102.064 205.74 101.579 205.871 101.049C206.002 100.519 205.986 99.9632 205.824 99.4415C205.663 98.9197 205.362 98.452 204.954 98.0887C204.546 97.7255 204.047 97.4804 203.51 97.38L147.71 87C147.562 86.9718 147.422 86.9104 147.3 86.8203C147.179 86.7303 147.08 86.6139 147.01 86.48L118.7 33.48C118.444 32.9995 118.062 32.5976 117.595 32.3175C117.129 32.0374 116.594 31.8896 116.05 31.89C115.516 31.8901 114.991 32.033 114.531 32.3037C114.07 32.5744 113.69 32.9633 113.43 33.43L84.38 85.43C84.3099 85.5549 84.2138 85.6633 84.0982 85.7478C83.9827 85.8323 83.8502 85.8911 83.71 85.92L28.63 97.12C28.0984 97.2273 27.6058 97.4766 27.2046 97.8416C26.8035 98.2065 26.5087 98.6733 26.3518 99.1925C26.1948 99.7116 26.1815 100.264 26.3133 100.79C26.445 101.316 26.7169 101.796 27.1 102.18L67.75 142.8C67.8595 142.91 67.9418 143.044 67.9904 143.192C68.039 143.339 68.0526 143.496 68.03 143.65L59.77 199.22C59.7074 199.645 59.7366 200.078 59.8556 200.49C59.9746 200.902 60.1807 201.284 60.46 201.61C60.7463 201.93 61.098 202.185 61.4914 202.358C61.8847 202.53 62.3105 202.616 62.74 202.61M116.3 5.76997C115.948 5.76858 115.601 5.86032 115.295 6.03593C114.99 6.21154 114.736 6.46477 114.56 6.76997L76.82 74.4C76.681 74.6546 76.4882 74.876 76.2551 75.0486C76.022 75.2213 75.7541 75.3412 75.47 75.4L2.47 90.17C2.11589 90.2435 1.78835 90.4117 1.52223 90.6566C1.25612 90.9015 1.06139 91.214 0.958793 91.5608C0.856188 91.9076 0.849542 92.2758 0.939563 92.6261C1.02958 92.9763 1.2129 93.2957 1.47 93.55L54.63 146.66C54.8504 146.881 55.0159 147.152 55.1132 147.448C55.2104 147.745 55.2367 148.061 55.19 148.37L44 223.4C43.9565 223.687 43.9758 223.979 44.0567 224.258C44.1375 224.536 44.2779 224.794 44.4681 225.012C44.6584 225.231 44.8939 225.406 45.1584 225.525C45.4229 225.643 45.7101 225.703 46 225.7C46.3491 225.703 46.6932 225.617 47 225.45L115.26 187.89C115.556 187.727 115.888 187.642 116.225 187.642C116.562 187.642 116.894 187.727 117.19 187.89L185.48 225.46C185.784 225.633 186.13 225.72 186.48 225.71C186.77 225.713 187.057 225.654 187.322 225.535C187.586 225.416 187.822 225.241 188.012 225.022C188.202 224.804 188.343 224.546 188.423 224.268C188.504 223.989 188.524 223.697 188.48 223.41L177.1 148.41C177.052 148.099 177.077 147.782 177.174 147.483C177.272 147.184 177.438 146.913 177.66 146.69L231.16 93.47C231.447 93.209 231.651 92.8704 231.749 92.4953C231.847 92.1202 231.833 91.7248 231.71 91.3572C231.587 90.9896 231.36 90.6656 231.057 90.4247C230.753 90.1837 230.386 90.0362 230 90L156 76.3C155.707 76.248 155.429 76.1312 155.187 75.9582C154.945 75.7852 154.744 75.5604 154.6 75.3L118.07 6.82997C117.899 6.50912 117.644 6.24089 117.332 6.05413C117.02 5.86737 116.664 5.76913 116.3 5.76997ZM62.74 201.66C62.4501 201.663 62.1629 201.604 61.8984 201.485C61.6339 201.366 61.3984 201.191 61.2081 200.972C61.0179 200.754 60.8775 200.496 60.7967 200.218C60.7158 199.939 60.6965 199.647 60.74 199.36L69 143.8C69.0467 143.491 69.0204 143.175 68.9232 142.878C68.8259 142.582 68.6604 142.311 68.44 142.09L27.81 101.47C27.5556 101.215 27.3746 100.897 27.2862 100.548C27.1978 100.199 27.2052 99.8326 27.3075 99.4875C27.4099 99.1425 27.6036 98.8314 27.868 98.5872C28.1324 98.343 28.4579 98.1747 28.81 98.1L83.9 86.94C84.1841 86.8812 84.452 86.7613 84.6851 86.5886C84.9182 86.416 85.111 86.1946 85.25 85.94L114.3 33.94C114.472 33.625 114.726 33.3621 115.035 33.1789C115.344 32.9958 115.696 32.8992 116.055 32.8992C116.414 32.8992 116.766 32.9958 117.075 33.1789C117.384 33.3621 117.638 33.625 117.81 33.94L146.13 86.94C146.274 87.2004 146.475 87.4252 146.717 87.5982C146.959 87.7712 147.237 87.888 147.53 87.94L203.3 98.31C203.654 98.3835 203.982 98.5517 204.248 98.7966C204.514 99.0415 204.709 99.354 204.811 99.7008C204.914 100.048 204.92 100.416 204.83 100.766C204.74 101.116 204.557 101.436 204.3 101.69L163.7 142.09C163.48 142.311 163.314 142.582 163.217 142.878C163.12 143.175 163.093 143.491 163.14 143.8L171.56 199.33C171.605 199.695 171.548 200.064 171.396 200.399C171.244 200.733 171.003 201.02 170.7 201.226C170.396 201.433 170.041 201.552 169.674 201.57C169.308 201.588 168.943 201.505 168.62 201.33L117.13 173C116.834 172.837 116.502 172.752 116.165 172.752C115.828 172.752 115.496 172.837 115.2 173L63.7 201.41C63.3942 201.579 63.0494 201.665 62.7 201.66H62.74Z" fill="url(#paint3_linear_4_91)"/>
<path d="M116.21 165.99C118.844 165.99 120.98 163.854 120.98 161.22C120.98 158.586 118.844 156.45 116.21 156.45C113.576 156.45 111.44 158.586 111.44 161.22C111.44 163.854 113.576 165.99 116.21 165.99Z" fill="black" stroke="url(#paint4_linear_4_91)" stroke-miterlimit="10"/>
<path d="M116.34 86.27C118.974 86.27 121.11 84.1344 121.11 81.5C121.11 78.8656 118.974 76.73 116.34 76.73C113.706 76.73 111.57 78.8656 111.57 81.5C111.57 84.1344 113.706 86.27 116.34 86.27Z" fill="black" stroke="url(#paint5_linear_4_91)" stroke-miterlimit="10"/>
<path d="M106 145.08C103.81 145.1 101.633 144.735 99.57 144C97.7219 143.33 95.9983 142.357 94.47 141.12C93.0798 139.985 91.9045 138.61 91 137.06V140.48C90.9974 141.625 90.5414 142.722 89.7318 143.532C88.9222 144.341 87.8249 144.797 86.68 144.8H79.39C78.246 144.797 77.1498 144.341 76.3418 143.531C75.5338 142.721 75.08 141.624 75.08 140.48V121.09H71.53C70.3851 121.087 69.2878 120.631 68.4782 119.822C67.6686 119.012 67.2126 117.915 67.21 116.77V113C67.2137 111.999 67.5631 111.03 68.1991 110.258C68.8351 109.485 69.7186 108.956 70.7 108.76C72.1912 108.521 73.5999 107.917 74.8 107C75.7337 106.178 76.3699 105.071 76.61 103.85C76.8386 102.911 77.376 102.077 78.1358 101.48C78.8957 100.883 79.8339 100.559 80.8 100.56H86.68C87.2495 100.561 87.8131 100.675 88.3386 100.894C88.8641 101.114 89.3411 101.435 89.7424 101.839C90.1437 102.243 90.4613 102.722 90.6771 103.249C90.8929 103.776 91.0026 104.341 91 104.91V116.3L92.24 104.81C92.3656 103.706 92.8944 102.687 93.7248 101.949C94.5552 101.211 95.6289 100.805 96.74 100.81H116.09C117.292 100.813 118.445 101.292 119.294 102.143C120.143 102.994 120.62 104.148 120.62 105.35V110.73C120.62 111.325 120.503 111.914 120.275 112.464C120.048 113.013 119.714 113.513 119.293 113.933C118.873 114.354 118.373 114.688 117.824 114.915C117.274 115.143 116.685 115.26 116.09 115.26H115.78C116.824 115.899 117.791 116.657 118.66 117.52C120.163 118.997 121.353 120.761 122.161 122.708C122.968 124.654 123.376 126.743 123.36 128.85C123.376 131.061 122.941 133.253 122.08 135.29C121.244 137.251 120.011 139.018 118.46 140.48C116.859 141.967 114.984 143.128 112.94 143.9C110.719 144.718 108.366 145.118 106 145.08ZM102.57 128.58C103.132 128.999 103.587 129.543 103.9 130.17C103.952 130.286 104.016 130.397 104.09 130.5C104.304 130.721 104.554 130.904 104.83 131.04C105.199 131.197 105.6 131.262 106 131.23C106.331 131.247 106.662 131.193 106.97 131.072C107.279 130.952 107.558 130.767 107.79 130.53C108.233 130.065 108.48 129.447 108.48 128.805C108.48 128.163 108.233 127.545 107.79 127.08C107.56 126.84 107.281 126.653 106.972 126.531C106.663 126.408 106.332 126.353 106 126.37C105.601 126.342 105.202 126.404 104.83 126.55C104.529 126.688 104.244 126.859 103.98 127.06C103.98 127.06 103.85 127.22 103.72 127.41C103.425 127.865 103.049 128.262 102.61 128.58H102.57ZM91 129.23C91.2984 128.956 91.6353 128.727 92 128.55C91.6163 128.271 91.2788 127.934 91 127.55V129.23ZM127.92 145.05C126.709 145.039 125.551 144.549 124.7 143.687C123.849 142.825 123.375 141.661 123.38 140.45V105.32C123.375 104.109 123.849 102.945 124.7 102.083C125.551 101.221 126.709 100.731 127.92 100.72H134.26C134.86 100.724 135.454 100.846 136.007 101.079C136.56 101.313 137.061 101.653 137.483 102.08C137.904 102.507 138.238 103.013 138.464 103.569C138.69 104.125 138.804 104.72 138.8 105.32V107L141.1 103C141.492 102.309 142.058 101.733 142.743 101.329C143.427 100.926 144.206 100.709 145 100.7H152.38C153.202 100.705 154.007 100.931 154.712 101.353C155.417 101.775 155.996 102.378 156.389 103.1C156.782 103.822 156.975 104.635 156.947 105.457C156.919 106.278 156.671 107.077 156.23 107.77L147.75 121.27L158.06 138C158.68 139.025 158.883 140.248 158.628 141.418C158.373 142.588 157.68 143.616 156.69 144.29C155.956 144.772 155.098 145.033 154.22 145.04H146.81C146.021 145.036 145.247 144.829 144.562 144.438C143.877 144.048 143.305 143.487 142.9 142.81L138.8 135.91V140.44C138.804 141.04 138.69 141.635 138.464 142.191C138.238 142.747 137.904 143.253 137.483 143.68C137.061 144.107 136.56 144.447 136.007 144.681C135.454 144.914 134.86 145.036 134.26 145.04L127.92 145.05Z" fill="url(#paint6_linear_4_91)"/>
<path d="M86.68 103.59C87.0301 103.59 87.3658 103.729 87.6134 103.977C87.8609 104.224 88 104.56 88 104.91V140.48C88 140.83 87.8609 141.166 87.6134 141.413C87.3658 141.661 87.0301 141.8 86.68 141.8H79.39C79.0416 141.797 78.7085 141.657 78.4631 141.41C78.2177 141.163 78.08 140.828 78.08 140.48V119.4C78.0774 119.052 77.9371 118.718 77.6899 118.473C77.4426 118.228 77.1084 118.09 76.76 118.09H71.53C71.1799 118.09 70.8442 117.951 70.5966 117.703C70.3491 117.456 70.21 117.12 70.21 116.77V113C70.2114 112.694 70.3189 112.399 70.514 112.163C70.7091 111.928 70.9799 111.768 71.28 111.71C73.2653 111.389 75.1369 110.57 76.72 109.33C78.1422 108.099 79.1251 106.439 79.52 104.6C79.5929 104.315 79.758 104.063 79.9896 103.882C80.2212 103.701 80.5061 103.602 80.8 103.6H86.68M152.41 103.69C152.824 103.7 153.217 103.873 153.505 104.17C153.793 104.468 153.953 104.866 153.95 105.28C153.949 105.591 153.862 105.895 153.7 106.16L144.24 121.22L144.3 121.36L144.39 121.53L155.5 139.53C155.722 139.888 155.798 140.318 155.71 140.73C155.622 141.142 155.379 141.504 155.03 141.74C154.787 141.902 154.502 141.989 154.21 141.99H146.8C146.535 141.987 146.275 141.915 146.045 141.782C145.816 141.649 145.624 141.459 145.49 141.23L136.75 126.52L136.25 125.69C135.968 125.995 135.81 126.395 135.81 126.81V140.39C135.814 140.596 135.777 140.801 135.702 140.993C135.627 141.185 135.514 141.36 135.371 141.509C135.228 141.658 135.058 141.777 134.869 141.859C134.68 141.942 134.476 141.986 134.27 141.99H127.93C127.724 141.986 127.52 141.942 127.331 141.859C127.142 141.777 126.972 141.658 126.829 141.509C126.686 141.36 126.573 141.185 126.498 140.993C126.423 140.801 126.386 140.596 126.39 140.39V105.32C126.386 105.114 126.423 104.909 126.498 104.717C126.573 104.525 126.686 104.35 126.829 104.201C126.972 104.052 127.142 103.933 127.331 103.851C127.52 103.768 127.724 103.724 127.93 103.72H134.27C134.476 103.724 134.68 103.768 134.869 103.851C135.058 103.933 135.228 104.052 135.371 104.201C135.514 104.35 135.627 104.525 135.702 104.717C135.777 104.909 135.814 105.114 135.81 105.32V115C135.809 115.097 135.827 115.194 135.862 115.284C135.898 115.374 135.952 115.457 136.02 115.526C136.087 115.596 136.168 115.651 136.258 115.69C136.347 115.728 136.443 115.749 136.54 115.75C136.764 115.747 136.984 115.686 137.177 115.572C137.37 115.458 137.53 115.295 137.64 115.1L143.71 104.49C143.842 104.255 144.034 104.058 144.265 103.92C144.497 103.781 144.76 103.705 145.03 103.7H152.41M116.09 103.79C116.496 103.79 116.885 103.951 117.172 104.238C117.459 104.525 117.62 104.914 117.62 105.32V110.7C117.62 111.106 117.459 111.495 117.172 111.782C116.885 112.069 116.496 112.23 116.09 112.23H104.09C103.717 112.23 103.356 112.366 103.076 112.612C102.796 112.859 102.616 113.2 102.57 113.57L102.07 117.36C102.535 117.072 103.028 116.831 103.54 116.64C104.06 116.41 104.598 116.226 105.15 116.09C105.841 115.923 106.549 115.842 107.26 115.85C108.98 115.837 110.686 116.163 112.281 116.81C113.875 117.456 115.326 118.412 116.55 119.62C117.747 120.804 118.702 122.21 119.36 123.76C120.036 125.36 120.377 127.083 120.36 128.82C120.389 130.62 120.048 132.407 119.36 134.07C118.684 135.657 117.686 137.088 116.43 138.27C115.113 139.49 113.571 140.441 111.89 141.07C110.03 141.764 108.055 142.103 106.07 142.07C104.22 142.097 102.38 141.789 100.64 141.16C99.1021 140.613 97.6683 139.808 96.4 138.78C95.2287 137.826 94.2482 136.658 93.51 135.34C93.1294 134.618 92.818 133.861 92.58 133.08C92.5078 132.858 92.4874 132.622 92.5203 132.391C92.5533 132.16 92.6386 131.94 92.7699 131.747C92.9011 131.554 93.0748 131.393 93.2776 131.278C93.4805 131.162 93.707 131.095 93.94 131.08L99.82 130.68H99.93C100.212 130.682 100.488 130.762 100.728 130.91C100.967 131.058 101.162 131.269 101.29 131.52C101.441 131.843 101.632 132.146 101.86 132.42C102.301 132.932 102.838 133.353 103.44 133.66C104.255 134.068 105.159 134.264 106.07 134.23C106.792 134.246 107.509 134.116 108.179 133.848C108.849 133.58 109.458 133.179 109.97 132.67C110.982 131.638 111.549 130.25 111.549 128.805C111.549 127.36 110.982 125.972 109.97 124.94C109.459 124.429 108.851 124.026 108.18 123.757C107.51 123.487 106.792 123.355 106.07 123.37C105.21 123.336 104.354 123.504 103.57 123.86C102.999 124.123 102.465 124.459 101.98 124.86C101.731 125.119 101.507 125.4 101.31 125.7C101.171 125.907 100.984 126.076 100.764 126.193C100.544 126.31 100.299 126.371 100.05 126.37H94.63C94.225 126.367 93.8374 126.205 93.551 125.919C93.2647 125.633 93.1026 125.245 93.1 124.84C93.0952 124.783 93.0952 124.727 93.1 124.67L95.21 105.11C95.2518 104.736 95.4299 104.391 95.7103 104.14C95.9907 103.889 96.3537 103.75 96.73 103.75H116.08M86.68 97.59H80.8C79.1639 97.59 77.5751 98.1388 76.2879 99.1486C75.0007 100.158 74.0894 101.571 73.7 103.16C73.6142 103.759 73.3246 104.31 72.88 104.72C72.0632 105.299 71.1208 105.676 70.13 105.82C68.4637 106.145 66.9621 107.038 65.8822 108.348C64.8023 109.658 64.2111 111.302 64.21 113V116.77C64.2126 118.711 64.9847 120.571 66.3569 121.943C67.7291 123.315 69.5894 124.087 71.53 124.09H72.08V140.48C72.08 142.42 72.8498 144.28 74.2204 145.652C75.591 147.025 77.4503 147.797 79.39 147.8H86.68C88.0119 147.798 89.318 147.432 90.4579 146.743C91.5979 146.055 92.5286 145.068 93.15 143.89C94.7898 145.115 96.5986 146.095 98.52 146.8C100.931 147.67 103.477 148.104 106.04 148.08C108.772 148.104 111.485 147.619 114.04 146.65C116.442 145.749 118.646 144.391 120.53 142.65L120.67 142.51C121.107 144.105 122.054 145.513 123.367 146.519C124.68 147.525 126.286 148.073 127.94 148.08H134.28C135.522 148.078 136.744 147.769 137.838 147.181C138.932 146.594 139.863 145.745 140.55 144.71C141.236 145.743 142.167 146.59 143.259 147.178C144.35 147.766 145.57 148.076 146.81 148.08H154.25C155.6 148.07 156.922 147.7 158.081 147.008C159.24 146.317 160.194 145.328 160.844 144.146C161.494 142.963 161.817 141.628 161.779 140.279C161.742 138.93 161.345 137.615 160.63 136.47L151.31 121.33L158.8 109.4C159.569 108.171 159.974 106.75 159.97 105.3C159.965 103.3 159.169 101.383 157.757 99.9671C156.345 98.5511 154.43 97.7505 152.43 97.74H145.05C144.051 97.7482 143.064 97.9549 142.145 98.3481C141.227 98.7412 140.396 99.3129 139.7 100.03C139.002 99.3079 138.167 98.7339 137.242 98.3421C136.318 97.9504 135.324 97.749 134.32 97.75H127.98C126.835 97.7517 125.706 98.0147 124.678 98.519C123.651 99.0233 122.752 99.7556 122.05 100.66C121.348 99.7671 120.452 99.0456 119.43 98.5501C118.407 98.0546 117.286 97.7981 116.15 97.8H96.74C94.9007 97.7909 93.1219 98.4562 91.74 99.67C90.3691 98.3714 88.5483 97.6545 86.66 97.67L86.68 97.59Z" fill="black"/>
<path d="M88 104.82V140.4C87.9974 140.748 87.8571 141.082 87.6099 141.327C87.3626 141.572 87.0284 141.71 86.68 141.71H79.39C79.0426 141.71 78.7094 141.572 78.4637 141.326C78.218 141.081 78.08 140.747 78.08 140.4V119.32C78.08 118.97 77.9409 118.634 77.6934 118.387C77.4458 118.139 77.1101 118 76.76 118H71.53C71.1799 118 70.8442 117.861 70.5966 117.613C70.3491 117.366 70.21 117.03 70.21 116.68V112.91C70.2114 112.604 70.3189 112.309 70.514 112.073C70.7091 111.838 70.9799 111.678 71.28 111.62C73.2631 111.298 75.1337 110.483 76.72 109.25C78.1446 108.017 79.1278 106.353 79.52 104.51C79.5913 104.224 79.7561 103.971 79.988 103.79C80.2199 103.609 80.5057 103.51 80.8 103.51H86.68C87.0284 103.51 87.3626 103.648 87.6099 103.893C87.8571 104.138 87.9974 104.472 88 104.82Z" fill="url(#paint7_linear_4_91)"/>
<path d="M86.68 104.26C86.8295 104.26 86.9729 104.319 87.0796 104.423C87.1862 104.528 87.2474 104.671 87.25 104.82V140.4C87.2474 140.549 87.1862 140.692 87.0796 140.797C86.9729 140.901 86.8295 140.96 86.68 140.96H79.39C79.3165 140.96 79.2436 140.946 79.1757 140.917C79.1078 140.889 79.046 140.848 78.994 140.796C78.942 140.744 78.9008 140.682 78.8726 140.614C78.8445 140.546 78.83 140.474 78.83 140.4V119.32C78.83 118.771 78.6119 118.244 78.2237 117.856C77.8355 117.468 77.309 117.25 76.76 117.25H71.53C71.3788 117.25 71.2338 117.19 71.1269 117.083C71.02 116.976 70.96 116.831 70.96 116.68V112.91C70.9602 112.779 71.0064 112.652 71.0904 112.552C71.1745 112.451 71.2911 112.383 71.42 112.36C73.5303 112.015 75.5187 111.141 77.2 109.82C78.7307 108.481 79.7838 106.68 80.2 104.69C80.231 104.567 80.3019 104.459 80.4015 104.381C80.501 104.303 80.6236 104.261 80.75 104.26H86.63M86.63 103.51H80.8C80.5057 103.51 80.2199 103.609 79.988 103.79C79.7561 103.971 79.5913 104.224 79.52 104.51C79.1278 106.353 78.1446 108.017 76.72 109.25C75.1337 110.483 73.2631 111.298 71.28 111.62C70.9799 111.678 70.7091 111.838 70.514 112.073C70.3189 112.309 70.2114 112.604 70.21 112.91V116.68C70.21 117.03 70.3491 117.366 70.5966 117.613C70.8442 117.861 71.1799 118 71.53 118H76.76C77.1101 118 77.4458 118.139 77.6934 118.387C77.9409 118.634 78.08 118.97 78.08 119.32V140.4C78.08 140.747 78.218 141.081 78.4637 141.326C78.7094 141.572 79.0426 141.71 79.39 141.71H86.68C87.0284 141.71 87.3626 141.572 87.6099 141.327C87.8571 141.082 87.9974 140.748 88 140.4V104.82C87.9974 104.472 87.8571 104.138 87.6099 103.893C87.3626 103.648 87.0284 103.51 86.68 103.51H86.63Z" fill="url(#paint8_linear_4_91)"/>
<path d="M152.4 103.59C152.817 103.598 153.215 103.771 153.505 104.07C153.795 104.37 153.955 104.773 153.95 105.19C153.948 105.501 153.861 105.805 153.7 106.07L144.24 121.12L144.3 121.26L144.39 121.43L155.5 139.43C155.722 139.788 155.798 140.218 155.71 140.63C155.622 141.042 155.379 141.404 155.03 141.64C154.787 141.802 154.502 141.889 154.21 141.89H146.8C146.533 141.891 146.27 141.821 146.038 141.687C145.806 141.554 145.614 141.362 145.48 141.13L136.74 126.42L136.24 125.59C135.958 125.895 135.8 126.295 135.8 126.71V140.3C135.804 140.506 135.767 140.711 135.692 140.903C135.617 141.095 135.504 141.27 135.361 141.419C135.218 141.568 135.048 141.687 134.859 141.769C134.67 141.852 134.466 141.896 134.26 141.9H127.92C127.714 141.896 127.51 141.852 127.321 141.769C127.132 141.687 126.962 141.568 126.819 141.419C126.676 141.27 126.563 141.095 126.488 140.903C126.413 140.711 126.376 140.506 126.38 140.3V105.23C126.376 105.024 126.413 104.819 126.488 104.627C126.563 104.435 126.676 104.26 126.819 104.111C126.962 103.962 127.132 103.843 127.321 103.761C127.51 103.678 127.714 103.634 127.92 103.63H134.26C134.466 103.634 134.67 103.678 134.859 103.761C135.048 103.843 135.218 103.962 135.361 104.111C135.504 104.26 135.617 104.435 135.692 104.627C135.767 104.819 135.804 105.024 135.8 105.23V114.92C135.797 115.117 135.872 115.308 136.009 115.45C136.146 115.592 136.333 115.675 136.53 115.68C136.754 115.678 136.974 115.616 137.167 115.502C137.36 115.388 137.52 115.225 137.63 115.03L143.7 104.41C143.833 104.176 144.024 103.981 144.256 103.844C144.488 103.707 144.751 103.633 145.02 103.63L152.4 103.59Z" fill="url(#paint9_linear_4_91)"/>
<path d="M152.41 103.59V104.34C152.627 104.35 152.831 104.445 152.978 104.604C153.126 104.763 153.205 104.973 153.2 105.19C153.2 105.36 153.151 105.526 153.06 105.67L143.6 120.67L143.39 121.02L143.56 121.39L143.62 121.53L143.76 121.78L154.86 139.78C154.981 139.973 155.024 140.205 154.979 140.428C154.934 140.651 154.806 140.849 154.62 140.98C154.497 141.057 154.355 141.099 154.21 141.1H146.79C146.655 141.1 146.523 141.064 146.406 140.996C146.29 140.927 146.195 140.828 146.13 140.71L137.38 126L136.89 125.17L136.38 124.31L135.7 125.04C135.281 125.479 135.048 126.063 135.05 126.67V140.26C135.055 140.477 134.976 140.687 134.828 140.846C134.681 141.005 134.477 141.1 134.26 141.11H127.92C127.703 141.1 127.499 141.005 127.352 140.846C127.204 140.687 127.125 140.477 127.13 140.26V105.23C127.125 105.013 127.204 104.803 127.352 104.644C127.499 104.485 127.703 104.39 127.92 104.38H134.26C134.368 104.384 134.474 104.409 134.572 104.454C134.67 104.499 134.758 104.562 134.831 104.641C134.905 104.72 134.962 104.813 134.999 104.914C135.037 105.015 135.054 105.122 135.05 105.23V114.92C135.047 115.316 135.201 115.697 135.479 115.98C135.756 116.263 136.134 116.425 136.53 116.43C136.884 116.433 137.233 116.342 137.54 116.167C137.848 115.991 138.103 115.737 138.28 115.43L144.35 104.81C144.418 104.691 144.515 104.592 144.632 104.521C144.75 104.451 144.883 104.413 145.02 104.41H152.4V103.66M152.4 103.66H145.02C144.751 103.663 144.488 103.737 144.256 103.874C144.024 104.011 143.833 104.206 143.7 104.44L137.63 115C137.52 115.195 137.36 115.358 137.167 115.472C136.974 115.586 136.754 115.648 136.53 115.65C136.333 115.645 136.146 115.562 136.009 115.42C135.872 115.278 135.797 115.087 135.8 114.89V105.2C135.804 104.994 135.767 104.789 135.692 104.597C135.617 104.405 135.504 104.23 135.361 104.081C135.218 103.932 135.048 103.813 134.859 103.731C134.67 103.648 134.466 103.604 134.26 103.6H127.92C127.714 103.604 127.51 103.648 127.321 103.731C127.132 103.813 126.962 103.932 126.819 104.081C126.676 104.23 126.563 104.405 126.488 104.597C126.413 104.789 126.376 104.994 126.38 105.2V140.34C126.376 140.546 126.413 140.751 126.488 140.943C126.563 141.135 126.676 141.31 126.819 141.459C126.962 141.608 127.132 141.727 127.321 141.809C127.51 141.892 127.714 141.936 127.92 141.94H134.26C134.466 141.936 134.67 141.892 134.859 141.809C135.048 141.727 135.218 141.608 135.361 141.459C135.504 141.31 135.617 141.135 135.692 140.943C135.767 140.751 135.804 140.546 135.8 140.34V126.78C135.8 126.365 135.958 125.965 136.24 125.66L136.74 126.49L145.48 141.2C145.613 141.43 145.804 141.621 146.034 141.755C146.263 141.888 146.524 141.959 146.79 141.96H154.2C154.492 141.959 154.777 141.872 155.02 141.71C155.369 141.474 155.612 141.112 155.7 140.7C155.788 140.288 155.712 139.858 155.49 139.5L144.38 121.5L144.29 121.33L144.23 121.19L153.69 106.14C153.851 105.875 153.938 105.571 153.94 105.26C153.945 104.844 153.787 104.443 153.499 104.144C153.21 103.844 152.816 103.67 152.4 103.66Z" fill="url(#paint10_linear_4_91)"/>
<path d="M107.25 115.75C108.973 115.731 110.682 116.054 112.278 116.701C113.875 117.349 115.327 118.307 116.55 119.52C117.772 120.718 118.74 122.15 119.394 123.731C120.049 125.312 120.377 127.009 120.36 128.72C120.389 130.52 120.048 132.307 119.36 133.97C118.684 135.554 117.686 136.981 116.43 138.16C115.114 139.383 113.572 140.337 111.89 140.97C110.028 141.659 108.055 141.998 106.07 141.97C104.221 141.995 102.382 141.691 100.64 141.07C99.1033 140.515 97.6702 139.708 96.4 138.68C95.2297 137.728 94.2492 136.565 93.51 135.25C93.1296 134.524 92.8183 133.764 92.58 132.98C92.5078 132.758 92.4874 132.522 92.5203 132.291C92.5533 132.06 92.6386 131.84 92.7699 131.647C92.9011 131.454 93.0748 131.293 93.2776 131.178C93.4805 131.062 93.707 130.994 93.94 130.98L99.82 130.58C100.121 130.558 100.421 130.627 100.683 130.776C100.945 130.926 101.156 131.15 101.29 131.42C101.445 131.741 101.637 132.042 101.86 132.32C102.307 132.826 102.842 133.246 103.44 133.56C104.255 133.968 105.159 134.164 106.07 134.13C106.793 134.147 107.511 134.017 108.182 133.747C108.852 133.477 109.461 133.073 109.97 132.56C110.981 131.53 111.548 130.144 111.548 128.7C111.548 127.256 110.981 125.87 109.97 124.84C109.461 124.327 108.852 123.923 108.182 123.653C107.511 123.383 106.793 123.253 106.07 123.27C105.211 123.238 104.356 123.402 103.57 123.75C102.999 124.013 102.465 124.349 101.98 124.75C101.731 125.009 101.507 125.29 101.31 125.59C101.171 125.797 100.984 125.966 100.764 126.083C100.544 126.2 100.299 126.261 100.05 126.26H94.63C94.2233 126.257 93.8342 126.094 93.5475 125.805C93.2609 125.517 93.1 125.127 93.1 124.72C93.095 124.667 93.095 124.613 93.1 124.56L95.21 105C95.2495 104.624 95.4266 104.276 95.7073 104.024C95.9879 103.771 96.3522 103.63 96.73 103.63H116.08C116.485 103.633 116.873 103.795 117.159 104.081C117.445 104.367 117.607 104.755 117.61 105.16V110.54C117.61 110.947 117.449 111.337 117.162 111.625C116.876 111.914 116.487 112.077 116.08 112.08H104.08C103.708 112.079 103.349 112.214 103.069 112.459C102.79 112.703 102.609 113.042 102.56 113.41L102.06 117.21C102.523 116.915 103.016 116.671 103.53 116.48C104.05 116.253 104.589 116.073 105.14 115.94C105.833 115.789 106.542 115.725 107.25 115.75Z" fill="url(#paint11_linear_4_91)"/>
<path d="M116.09 104.43C116.297 104.43 116.495 104.512 116.642 104.658C116.788 104.805 116.87 105.003 116.87 105.21V110.59C116.871 110.693 116.852 110.796 116.814 110.892C116.775 110.987 116.718 111.075 116.645 111.148C116.573 111.222 116.486 111.28 116.391 111.32C116.296 111.36 116.193 111.38 116.09 111.38H104.09C103.534 111.381 102.998 111.584 102.582 111.953C102.166 112.321 101.898 112.828 101.83 113.38L101.33 117.18L101.12 118.76L102.47 117.91C102.902 117.639 103.361 117.415 103.84 117.24C104.323 117.025 104.826 116.854 105.34 116.73C105.969 116.583 106.614 116.512 107.26 116.52C108.884 116.501 110.496 116.805 112.002 117.414C113.507 118.024 114.877 118.926 116.03 120.07C117.156 121.186 118.052 122.511 118.67 123.97C119.306 125.479 119.625 127.103 119.61 128.74C119.619 130.441 119.279 132.126 118.61 133.69C117.981 135.2 117.045 136.562 115.86 137.69C114.609 138.839 113.149 139.739 111.56 140.34C109.787 141.01 107.906 141.349 106.01 141.34C104.249 141.363 102.498 141.072 100.84 140.48C99.3925 139.954 98.0412 139.194 96.84 138.23C95.7409 137.331 94.8186 136.236 94.12 135C93.7639 134.319 93.4726 133.606 93.25 132.87C93.1752 132.677 93.1752 132.463 93.25 132.27C93.3478 132.088 93.5129 131.952 93.71 131.89H93.9L99.78 131.49H99.84C99.9839 131.489 100.125 131.529 100.247 131.605C100.369 131.681 100.468 131.79 100.53 131.92C100.713 132.276 100.935 132.611 101.19 132.92C101.696 133.499 102.306 133.978 102.99 134.33C103.918 134.802 104.95 135.033 105.99 135C106.811 135.017 107.627 134.867 108.389 134.559C109.15 134.252 109.841 133.793 110.42 133.21C111.572 132.037 112.218 130.459 112.218 128.815C112.218 127.171 111.572 125.593 110.42 124.42C109.839 123.841 109.148 123.384 108.386 123.079C107.625 122.773 106.81 122.624 105.99 122.64C105.013 122.609 104.042 122.8 103.15 123.2C102.509 123.509 101.911 123.899 101.37 124.36C101.084 124.667 100.829 125.002 100.61 125.36C100.539 125.465 100.444 125.551 100.332 125.61C100.221 125.669 100.096 125.7 99.97 125.7H94.63C94.4222 125.697 94.2238 125.613 94.0778 125.465C93.9318 125.317 93.85 125.118 93.85 124.91C93.8451 124.884 93.8451 124.856 93.85 124.83L96 105.13C96.022 104.938 96.1135 104.761 96.2572 104.632C96.4009 104.503 96.5869 104.431 96.78 104.43H116.13M116.13 103.68H96.74C96.3622 103.68 95.9979 103.821 95.7173 104.074C95.4366 104.326 95.2595 104.674 95.22 105.05L93.11 124.61C93.105 124.663 93.105 124.717 93.11 124.77C93.11 125.177 93.2709 125.567 93.5575 125.855C93.8442 126.144 94.2333 126.307 94.64 126.31H100C100.249 126.311 100.494 126.25 100.714 126.133C100.934 126.016 101.121 125.847 101.26 125.64C101.457 125.34 101.681 125.059 101.93 124.8C102.415 124.399 102.949 124.063 103.52 123.8C104.306 123.452 105.161 123.288 106.02 123.32C106.743 123.303 107.461 123.433 108.132 123.703C108.802 123.973 109.411 124.377 109.92 124.89C110.931 125.92 111.498 127.306 111.498 128.75C111.498 130.194 110.931 131.58 109.92 132.61C109.411 133.123 108.802 133.527 108.132 133.797C107.461 134.067 106.743 134.197 106.02 134.18C105.109 134.214 104.205 134.018 103.39 133.61C102.792 133.296 102.257 132.876 101.81 132.37C101.587 132.092 101.395 131.791 101.24 131.47C101.114 131.217 100.92 131.005 100.679 130.857C100.439 130.708 100.162 130.63 99.88 130.63H99.77L93.89 131.03C93.657 131.045 93.4304 131.112 93.2276 131.228C93.0248 131.343 92.8511 131.504 92.7199 131.697C92.5886 131.89 92.5033 132.11 92.4703 132.341C92.4374 132.572 92.4578 132.808 92.53 133.03C92.7683 133.814 93.0796 134.574 93.46 135.3C94.1992 136.615 95.1797 137.778 96.35 138.73C97.6202 139.758 99.0533 140.565 100.59 141.12C102.332 141.741 104.171 142.045 106.02 142.02C108.005 142.048 109.978 141.709 111.84 141.02C113.522 140.387 115.064 139.433 116.38 138.21C117.636 137.031 118.634 135.604 119.31 134.02C119.998 132.357 120.339 130.57 120.31 128.77C120.327 127.059 119.999 125.362 119.344 123.781C118.69 122.2 117.722 120.768 116.5 119.57C115.278 118.358 113.828 117.401 112.233 116.753C110.638 116.106 108.931 115.782 107.21 115.8C106.499 115.792 105.791 115.873 105.1 116.04C104.549 116.173 104.01 116.353 103.49 116.58C102.976 116.771 102.483 117.015 102.02 117.31L102.52 113.51C102.569 113.142 102.75 112.803 103.029 112.559C103.309 112.314 103.668 112.179 104.04 112.18H116.04C116.447 112.177 116.836 112.014 117.122 111.725C117.409 111.437 117.57 111.047 117.57 110.64V105.26C117.567 104.855 117.405 104.467 117.119 104.181C116.833 103.895 116.445 103.733 116.04 103.73L116.13 103.68Z" fill="url(#paint12_linear_4_91)"/>
</g>
<defs>
<linearGradient id="paint0_linear_4_91" x1="140.71" y1="-16.2" x2="91.83" y2="261.03" gradientUnits="userSpaceOnUse">
<stop offset="0.25" stop-color="#F6E594"/>
<stop offset="0.38" stop-color="#F5E492"/>
<stop offset="0.43" stop-color="#F2DE8B"/>
<stop offset="0.47" stop-color="#ECD580"/>
<stop offset="0.49" stop-color="#E4C86F"/>
<stop offset="0.5" stop-color="#E2C46A"/>
<stop offset="0.61" stop-color="#C89E3F"/>
<stop offset="0.72" stop-color="#E8D17E"/>
<stop offset="0.76" stop-color="#E5CE7C"/>
<stop offset="0.79" stop-color="#DCC574"/>
<stop offset="0.81" stop-color="#CDB568"/>
<stop offset="0.83" stop-color="#B79F57"/>
<stop offset="0.86" stop-color="#9B8240"/>
<stop offset="0.88" stop-color="#684E18"/>
</linearGradient>
<linearGradient id="paint1_linear_4_91" x1="140.67" y1="-15.98" x2="91.86" y2="260.81" gradientUnits="userSpaceOnUse">
<stop offset="0.25" stop-color="#F6E594"/>
<stop offset="0.38" stop-color="#F5E492"/>
<stop offset="0.43" stop-color="#F2DE8B"/>
<stop offset="0.47" stop-color="#ECD580"/>
<stop offset="0.49" stop-color="#E4C86F"/>
<stop offset="0.5" stop-color="#E2C46A"/>
<stop offset="0.61" stop-color="#C89E3F"/>
<stop offset="0.72" stop-color="#E8D17E"/>
<stop offset="0.76" stop-color="#E5CE7C"/>
<stop offset="0.79" stop-color="#DCC574"/>
<stop offset="0.81" stop-color="#CDB568"/>
<stop offset="0.83" stop-color="#B79F57"/>
<stop offset="0.86" stop-color="#9B8240"/>
<stop offset="0.88" stop-color="#684E18"/>
</linearGradient>
<linearGradient id="paint2_linear_4_91" x1="146.14" y1="16.5" x2="67.15" y2="233.51" gradientUnits="userSpaceOnUse">
<stop stop-color="#F6E594"/>
<stop offset="0.33" stop-color="#F6E492"/>
<stop offset="0.45" stop-color="#F4DF8B"/>
<stop offset="0.53" stop-color="#F2D880"/>
<stop offset="0.6" stop-color="#EFCD6F"/>
<stop offset="0.65" stop-color="#EBC15C"/>
<stop offset="0.7" stop-color="#C89D47"/>
<stop offset="0.82" stop-color="#7A4D18"/>
<stop offset="0.97" stop-color="#C1914C"/>
</linearGradient>
<linearGradient id="paint3_linear_4_91" x1="166.09" y1="34.2" x2="53.02" y2="230.04" gradientUnits="userSpaceOnUse">
<stop stop-color="#FFFFAD"/>
<stop offset="0.26" stop-color="#F6E594"/>
<stop offset="0.34" stop-color="#F5E492"/>
<stop offset="0.37" stop-color="#F2DE8B"/>
<stop offset="0.39" stop-color="#ECD580"/>
<stop offset="0.41" stop-color="#E2C46A"/>
<stop offset="0.51" stop-color="#A68C46"/>
<stop offset="0.66" stop-color="#564217"/>
<stop offset="0.68" stop-color="#75612D"/>
<stop offset="0.73" stop-color="#C7B167"/>
<stop offset="0.75" stop-color="#E8D17E"/>
<stop offset="0.78" stop-color="#E5CE7C"/>
<stop offset="0.81" stop-color="#DDC574"/>
<stop offset="0.83" stop-color="#CFB568"/>
<stop offset="0.85" stop-color="#BB9F56"/>
<stop offset="0.86" stop-color="#A2823F"/>
<stop offset="0.88" stop-color="#825E23"/>
<stop offset="0.9" stop-color="#5B3200"/>
</linearGradient>
<linearGradient id="paint4_linear_4_91" x1="116.21" y1="155.95" x2="116.21" y2="166.49" gradientUnits="userSpaceOnUse">
<stop stop-color="#F6E594"/>
<stop offset="0.21" stop-color="#F5E492"/>
<stop offset="0.29" stop-color="#F2DE8B"/>
<stop offset="0.34" stop-color="#ECD580"/>
<stop offset="0.39" stop-color="#E4C86F"/>
<stop offset="0.4" stop-color="#E2C46A"/>
<stop offset="0.49" stop-color="#BA9D4E"/>
<stop offset="0.69" stop-color="#6A4E17"/>
<stop offset="0.72" stop-color="#6F531B"/>
<stop offset="0.75" stop-color="#7D6227"/>
<stop offset="0.79" stop-color="#957B3A"/>
<stop offset="0.83" stop-color="#B69D55"/>
<stop offset="0.86" stop-color="#E0C977"/>
<stop offset="0.87" stop-color="#E8D17E"/>
<stop offset="0.9" stop-color="#E5CE7C"/>
<stop offset="0.92" stop-color="#DCC574"/>
<stop offset="0.94" stop-color="#CDB568"/>
<stop offset="0.96" stop-color="#B79F57"/>
<stop offset="0.98" stop-color="#9B8240"/>
<stop offset="0.99" stop-color="#785F25"/>
<stop offset="1" stop-color="#684E18"/>
</linearGradient>
<linearGradient id="paint5_linear_4_91" x1="116.34" y1="76.23" x2="116.34" y2="86.77" gradientUnits="userSpaceOnUse">
<stop stop-color="#F6E594"/>
<stop offset="0.21" stop-color="#F5E492"/>
<stop offset="0.29" stop-color="#F2DE8B"/>
<stop offset="0.34" stop-color="#ECD580"/>
<stop offset="0.39" stop-color="#E4C86F"/>
<stop offset="0.4" stop-color="#E2C46A"/>
<stop offset="0.49" stop-color="#BA9D4E"/>
<stop offset="0.69" stop-color="#6A4E17"/>
<stop offset="0.72" stop-color="#6F531B"/>
<stop offset="0.75" stop-color="#7D6227"/>
<stop offset="0.79" stop-color="#957B3A"/>
<stop offset="0.83" stop-color="#B69D55"/>
<stop offset="0.86" stop-color="#E0C977"/>
<stop offset="0.87" stop-color="#E8D17E"/>
<stop offset="0.9" stop-color="#E5CE7C"/>
<stop offset="0.92" stop-color="#DCC574"/>
<stop offset="0.94" stop-color="#CDB568"/>
<stop offset="0.96" stop-color="#B79F57"/>
<stop offset="0.98" stop-color="#9B8240"/>
<stop offset="0.99" stop-color="#785F25"/>
<stop offset="1" stop-color="#684E18"/>
</linearGradient>
<linearGradient id="paint6_linear_4_91" x1="112.92" y1="92.81" x2="113.03" y2="166.78" gradientUnits="userSpaceOnUse">
<stop stop-color="#F6E594"/>
<stop offset="0.36" stop-color="#F6E492"/>
<stop offset="0.5" stop-color="#F4DF8B"/>
<stop offset="0.59" stop-color="#F2D880"/>
<stop offset="0.66" stop-color="#EFCD6F"/>
<stop offset="0.72" stop-color="#EBC15C"/>
<stop offset="0.77" stop-color="#C89D47"/>
<stop offset="0.88" stop-color="#7A4D18"/>
<stop offset="0.95" stop-color="#C1914C"/>
<stop offset="0.96" stop-color="#BE8F4A"/>
<stop offset="0.97" stop-color="#B58742"/>
<stop offset="0.98" stop-color="#A57B36"/>
<stop offset="0.99" stop-color="#8F6924"/>
<stop offset="1" stop-color="#624600"/>
</linearGradient>
<linearGradient id="paint7_linear_4_91" x1="79.08" y1="96.88" x2="79.18" y2="160.32" gradientUnits="userSpaceOnUse">
<stop stop-color="#F6E594"/>
<stop offset="0.17" stop-color="#F6E492"/>
<stop offset="0.24" stop-color="#F4DF8B"/>
<stop offset="0.28" stop-color="#F2D880"/>
<stop offset="0.32" stop-color="#EFCD6F"/>
<stop offset="0.35" stop-color="#EBC15C"/>
<stop offset="0.4" stop-color="#C89D47"/>
<stop offset="0.54" stop-color="#7A4D18"/>
<stop offset="0.66" stop-color="#B68644"/>
<stop offset="0.77" stop-color="#C1914C"/>
<stop offset="0.8" stop-color="#C3944E"/>
<stop offset="0.82" stop-color="#C99D56"/>
<stop offset="0.84" stop-color="#D3AD63"/>
<stop offset="0.86" stop-color="#E2C375"/>
<stop offset="0.88" stop-color="#F5E08C"/>
</linearGradient>
<linearGradient id="paint8_linear_4_91" x1="79.1" y1="103.51" x2="79.1" y2="141.71" gradientUnits="userSpaceOnUse">
<stop stop-color="#FFF7AB"/>
<stop offset="0.41" stop-color="#F6E594"/>
<stop offset="0.57" stop-color="#F6E492"/>
<stop offset="0.62" stop-color="#F4DF8B"/>
<stop offset="0.66" stop-color="#F2D880"/>
<stop offset="0.7" stop-color="#EFCD6F"/>
<stop offset="0.72" stop-color="#EBC15C"/>
<stop offset="0.77" stop-color="#C89D47"/>
<stop offset="0.88" stop-color="#7A4D18"/>
<stop offset="0.91" stop-color="#C1914C"/>
<stop offset="0.92" stop-color="#BE8E4A"/>
<stop offset="0.94" stop-color="#B58643"/>
<stop offset="0.95" stop-color="#A57838"/>
<stop offset="0.96" stop-color="#724A14"/>
<stop offset="0.97" stop-color="#553000"/>
</linearGradient>
<linearGradient id="paint9_linear_4_91" x1="141.06" y1="161.16" x2="141.06" y2="108.94" gradientUnits="userSpaceOnUse">
<stop stop-color="#F6E594"/>
<stop offset="0.17" stop-color="#F6E492"/>
<stop offset="0.24" stop-color="#F4DF8B"/>
<stop offset="0.28" stop-color="#F2D880"/>
<stop offset="0.32" stop-color="#EFCD6F"/>
<stop offset="0.35" stop-color="#EBC15C"/>
<stop offset="0.4" stop-color="#C89D47"/>
<stop offset="0.54" stop-color="#7A4D18"/>
<stop offset="0.66" stop-color="#B68644"/>
<stop offset="0.88" stop-color="#F5E08C"/>
</linearGradient>
<linearGradient id="paint10_linear_4_91" x1="141.06" y1="103.59" x2="141.06" y2="141.97" gradientUnits="userSpaceOnUse">
<stop stop-color="#FFF7AB"/>
<stop offset="0.41" stop-color="#F6E594"/>
<stop offset="0.57" stop-color="#F6E492"/>
<stop offset="0.62" stop-color="#F4DF8B"/>
<stop offset="0.66" stop-color="#F2D880"/>
<stop offset="0.7" stop-color="#EFCD6F"/>
<stop offset="0.72" stop-color="#EBC15C"/>
<stop offset="0.77" stop-color="#C89D47"/>
<stop offset="0.88" stop-color="#7A4D18"/>
<stop offset="0.91" stop-color="#C1914C"/>
<stop offset="0.92" stop-color="#BE8E4A"/>
<stop offset="0.94" stop-color="#B58643"/>
<stop offset="0.95" stop-color="#A57838"/>
<stop offset="0.96" stop-color="#724A14"/>
<stop offset="0.97" stop-color="#553000"/>
</linearGradient>
<linearGradient id="paint11_linear_4_91" x1="106.42" y1="161.16" x2="106.42" y2="109.02" gradientUnits="userSpaceOnUse">
<stop stop-color="#F6E594"/>
<stop offset="0.17" stop-color="#F6E492"/>
<stop offset="0.24" stop-color="#F4DF8B"/>
<stop offset="0.28" stop-color="#F2D880"/>
<stop offset="0.32" stop-color="#EFCD6F"/>
<stop offset="0.35" stop-color="#EBC15C"/>
<stop offset="0.4" stop-color="#C89D47"/>
<stop offset="0.54" stop-color="#7A4D18"/>
<stop offset="0.66" stop-color="#B68644"/>
<stop offset="0.88" stop-color="#F5E08C"/>
</linearGradient>
<linearGradient id="paint12_linear_4_91" x1="106.42" y1="103.68" x2="106.42" y2="141.99" gradientUnits="userSpaceOnUse">
<stop stop-color="#FFF7AB"/>
<stop offset="0.41" stop-color="#F6E594"/>
<stop offset="0.57" stop-color="#F6E492"/>
<stop offset="0.62" stop-color="#F4DF8B"/>
<stop offset="0.66" stop-color="#F2D880"/>
<stop offset="0.7" stop-color="#EFCD6F"/>
<stop offset="0.72" stop-color="#EBC15C"/>
<stop offset="0.77" stop-color="#C89D47"/>
<stop offset="0.88" stop-color="#7A4D18"/>
<stop offset="0.91" stop-color="#C1914C"/>
<stop offset="0.92" stop-color="#BE8E4A"/>
<stop offset="0.94" stop-color="#B58643"/>
<stop offset="0.95" stop-color="#A57838"/>
<stop offset="0.96" stop-color="#724A14"/>
<stop offset="0.97" stop-color="#553000"/>
</linearGradient>
</defs>
</svg>
