<svg width="233" height="232" viewBox="0 0 233 232" fill="none" xmlns="http://www.w3.org/2000/svg">
<mask id="mask0_4_715" style="mask-type:luminance" maskUnits="userSpaceOnUse" x="0" y="0" width="233" height="232">
<path d="M232.57 0H0V231.49H232.57V0Z" fill="white"/>
</mask>
<g mask="url(#mask0_4_715)">
<path d="M115.37 24.78L145.65 86.13L213.35 95.97L164.36 143.72L175.92 211.15L115.37 179.31L54.82 211.15L66.38 143.72L17.39 95.97L85.09 86.13L115.37 24.78Z" fill="black"/>
<mask id="mask1_4_715" style="mask-type:luminance" maskUnits="userSpaceOnUse" x="18" y="24" width="197" height="188">
<path d="M116.37 24.78L146.65 86.13L214.35 95.97L165.36 143.72L176.92 211.15L116.37 179.31L55.82 211.15L67.38 143.72L18.39 95.97L86.09 86.13L116.37 24.78Z" fill="white"/>
</mask>
<g mask="url(#mask1_4_715)">
<path d="M141.25 141.28L230.85 206.38L231.53 205.45L141.81 140.26C141.676 140.626 141.487 140.97 141.25 141.28Z" fill="url(#paint0_linear_4_715)"/>
<path d="M258.32 121.84H119.9L251.55 79.07L251.19 77.97L119.54 120.75L231.54 39.38L230.86 38.45L118.86 119.82L200.22 7.81997L199.29 7.13997L117.92 119.14L160.71 -12.51L159.62 -12.86L116.84 118.79V-19.64H115.69V118.79L72.92 -12.86L71.82 -12.51L114.6 119.14L33.23 7.14997L32.3 7.82996L113.67 119.83L1.68002 38.45L1.00002 39.38L113 120.75L-18.66 78L-19.01 79.1L112.64 121.87H-25.79V123H112.64L-19 165.77L-18.65 166.86L113 124.08L1.00002 205.45L1.68002 206.38L113.68 125.02L32.3 237L33.23 237.68L114.6 125.68L71.82 257.34L72.92 257.7L115.69 126.05V264.47H116.84V126.05L159.62 257.7L160.71 257.34L117.93 125.69L199.3 237.69L200.23 237.01L118.87 125L134.87 136.62C135.057 136.284 135.297 135.98 135.58 135.72L119.58 124.06L251.23 166.84L251.59 165.75L119.9 123H258.32V121.84Z" fill="url(#paint1_linear_4_715)"/>
<path d="M146.79 145.06L230.79 206.06L231.23 205.45L147.23 144.45C147.096 144.662 146.949 144.866 146.79 145.06Z" fill="url(#paint2_linear_4_715)"/>
<path d="M258.12 122H118.63L251.3 78.9399L251.06 78.2199L118.4 121.33L231.25 39.3299L230.81 38.7199L118 120.72L200 7.86994L199.39 7.42994L117.39 120.28L160.46 -12.3801L159.75 -12.6101L116.64 120.05V-19.4401H115.89V120.05L72.79 -12.6101L72.07 -12.3801L115.18 120.28L33.19 7.42994L32.58 7.86994L114.58 120.72L1.72003 38.7299L1.28004 39.3399L114.13 121.34L-18.53 78.2199L-18.76 78.9399L113.9 122H-25.59V122.75H113.9L-18.76 165.9L-18.53 166.61L114.13 123.5L1.28004 205.5L1.72003 206.11L114.57 124.11L32.58 237L33.19 237.44L115.19 124.59L72.07 257.21L72.79 257.45L115.89 124.78V264.27H116.64V124.78L159.75 257.45L160.46 257.21L117.35 124.55L199.35 237.4L200 237L118 124.11L134.12 135.82C134.23 135.59 134.35 135.37 134.48 135.15L118.48 123.5L251.14 166.61L251.38 165.9L118.63 122.79H258.12V122Z" fill="url(#paint3_linear_4_715)"/>
</g>
<path d="M185.47 225.46L117.18 187.89C116.884 187.727 116.552 187.642 116.215 187.642C115.878 187.642 115.546 187.727 115.25 187.89L47 225.45C46.6759 225.642 46.304 225.739 45.9274 225.729C45.5507 225.719 45.1845 225.603 44.871 225.394C44.5575 225.184 44.3094 224.891 44.1553 224.547C44.0012 224.203 43.9474 223.823 44 223.45L55.16 148.45C55.2051 148.143 55.178 147.829 55.0808 147.534C54.9836 147.239 54.819 146.97 54.6 146.75L1.48001 93.5401C1.22291 93.2857 1.03959 92.9664 0.949573 92.6161C0.859552 92.2659 0.866198 91.8977 0.968802 91.5509C1.07141 91.2041 1.26613 90.8916 1.53224 90.6467C1.79836 90.4018 2.1259 90.2336 2.48001 90.1601L75.48 75.3901C75.7641 75.3313 76.032 75.2114 76.2651 75.0387C76.4982 74.866 76.691 74.6447 76.83 74.3901L114.55 6.80005C114.721 6.48255 114.975 6.21732 115.285 6.03246C115.595 5.8476 115.949 5.75 116.31 5.75C116.671 5.75 117.025 5.8476 117.335 6.03246C117.645 6.21732 117.899 6.48255 118.07 6.80005L154.65 75.2801C154.794 75.5404 154.995 75.7653 155.237 75.9383C155.479 76.1113 155.757 76.2281 156.05 76.2801L230 90.0001C230.36 90.0653 230.696 90.2281 230.97 90.4708C231.244 90.7135 231.446 91.0267 231.554 91.3764C231.662 91.726 231.673 92.0987 231.584 92.4537C231.495 92.8088 231.31 93.1327 231.05 93.3901L177.55 146.61C177.328 146.833 177.162 147.104 177.064 147.403C176.967 147.702 176.942 148.019 176.99 148.33L188.37 223.33C188.438 223.699 188.4 224.08 188.262 224.429C188.123 224.778 187.889 225.081 187.587 225.303C187.284 225.525 186.925 225.658 186.551 225.685C186.177 225.713 185.802 225.635 185.47 225.46ZM27.81 101.46L68.46 142.08C68.6784 142.304 68.841 142.577 68.9348 142.876C69.0286 143.174 69.0509 143.491 69 143.8L60.74 199.36C60.6955 199.725 60.7522 200.094 60.9039 200.429C61.0557 200.763 61.2966 201.05 61.6003 201.256C61.904 201.463 62.2587 201.582 62.6256 201.6C62.9924 201.618 63.3573 201.535 63.68 201.36L115.23 173C115.526 172.837 115.858 172.752 116.195 172.752C116.532 172.752 116.864 172.837 117.16 173L168.65 201.33C168.973 201.505 169.338 201.588 169.704 201.57C170.071 201.552 170.426 201.433 170.73 201.226C171.033 201.02 171.274 200.733 171.426 200.399C171.578 200.064 171.635 199.695 171.59 199.33L163.17 143.8C163.123 143.491 163.15 143.175 163.247 142.878C163.344 142.581 163.51 142.311 163.73 142.09L204.33 101.69C204.587 101.436 204.77 101.116 204.86 100.766C204.95 100.416 204.944 100.048 204.841 99.7009C204.739 99.3541 204.544 99.0416 204.278 98.7967C204.012 98.5518 203.684 98.3836 203.33 98.3101L147.53 88.0001C147.237 87.9481 146.959 87.8313 146.717 87.6583C146.475 87.4853 146.274 87.2604 146.13 87.0001L117.81 34.0001C117.638 33.6851 117.384 33.4222 117.075 33.239C116.766 33.0559 116.414 32.9592 116.055 32.9592C115.696 32.9592 115.344 33.0559 115.035 33.239C114.726 33.4222 114.472 33.6851 114.3 34.0001L85.3 86.0001C85.161 86.2547 84.9682 86.476 84.7351 86.6487C84.502 86.8214 84.2341 86.9413 83.95 87.0001L28.83 98.1001C28.4763 98.172 28.1486 98.3383 27.8817 98.5813C27.6148 98.8244 27.4187 99.1351 27.3141 99.4806C27.2095 99.8261 27.2004 100.193 27.2877 100.544C27.375 100.894 27.5555 101.214 27.81 101.47V101.46Z" fill="url(#paint4_linear_4_715)"/>
<mask id="mask2_4_715" style="mask-type:luminance" maskUnits="userSpaceOnUse" x="0" y="5" width="232" height="221">
<path d="M185.47 225.46L117.18 187.89C116.884 187.727 116.552 187.642 116.215 187.642C115.878 187.642 115.546 187.727 115.25 187.89L47 225.45C46.6759 225.642 46.304 225.739 45.9274 225.729C45.5507 225.719 45.1845 225.603 44.871 225.394C44.5575 225.184 44.3094 224.891 44.1553 224.547C44.0012 224.203 43.9474 223.823 44 223.45L55.16 148.45C55.2051 148.143 55.178 147.829 55.0808 147.534C54.9836 147.239 54.819 146.97 54.6 146.75L1.48001 93.5401C1.22291 93.2857 1.03959 92.9664 0.949573 92.6161C0.859552 92.2659 0.866198 91.8977 0.968802 91.5509C1.07141 91.2041 1.26613 90.8916 1.53224 90.6467C1.79836 90.4018 2.1259 90.2336 2.48001 90.1601L75.48 75.3901C75.7641 75.3313 76.032 75.2114 76.2651 75.0387C76.4982 74.866 76.691 74.6447 76.83 74.3901L114.55 6.80005C114.721 6.48255 114.975 6.21732 115.285 6.03246C115.595 5.8476 115.949 5.75 116.31 5.75C116.671 5.75 117.025 5.8476 117.335 6.03246C117.645 6.21732 117.899 6.48255 118.07 6.80005L154.65 75.2801C154.794 75.5404 154.995 75.7653 155.237 75.9383C155.479 76.1113 155.757 76.2281 156.05 76.2801L230 90.0001C230.36 90.0653 230.696 90.2281 230.97 90.4708C231.244 90.7135 231.446 91.0267 231.554 91.3764C231.662 91.726 231.673 92.0987 231.584 92.4537C231.495 92.8088 231.31 93.1327 231.05 93.3901L177.55 146.61C177.328 146.833 177.162 147.104 177.064 147.403C176.967 147.702 176.942 148.019 176.99 148.33L188.37 223.33C188.438 223.699 188.4 224.08 188.262 224.429C188.123 224.778 187.889 225.081 187.587 225.303C187.284 225.525 186.925 225.658 186.551 225.685C186.177 225.713 185.802 225.635 185.47 225.46ZM27.81 101.46L68.46 142.08C68.6784 142.304 68.841 142.577 68.9348 142.876C69.0286 143.174 69.0509 143.491 69 143.8L60.74 199.36C60.6955 199.725 60.7522 200.094 60.9039 200.429C61.0557 200.763 61.2966 201.05 61.6003 201.256C61.904 201.463 62.2587 201.582 62.6256 201.6C62.9924 201.618 63.3573 201.535 63.68 201.36L115.23 173C115.526 172.837 115.858 172.752 116.195 172.752C116.532 172.752 116.864 172.837 117.16 173L168.65 201.33C168.973 201.505 169.338 201.588 169.704 201.57C170.071 201.552 170.426 201.433 170.73 201.226C171.033 201.02 171.274 200.733 171.426 200.399C171.578 200.064 171.635 199.695 171.59 199.33L163.17 143.8C163.123 143.491 163.15 143.175 163.247 142.878C163.344 142.581 163.51 142.311 163.73 142.09L204.33 101.69C204.587 101.436 204.77 101.116 204.86 100.766C204.95 100.416 204.944 100.048 204.841 99.7009C204.739 99.3541 204.544 99.0416 204.278 98.7967C204.012 98.5518 203.684 98.3836 203.33 98.3101L147.53 88.0001C147.237 87.9481 146.959 87.8313 146.717 87.6583C146.475 87.4853 146.274 87.2604 146.13 87.0001L117.81 34.0001C117.638 33.6851 117.384 33.4222 117.075 33.239C116.766 33.0559 116.414 32.9592 116.055 32.9592C115.696 32.9592 115.344 33.0559 115.035 33.239C114.726 33.4222 114.472 33.6851 114.3 34.0001L85.3 86.0001C85.161 86.2547 84.9682 86.476 84.7351 86.6487C84.502 86.8214 84.2341 86.9413 83.95 87.0001L28.83 98.1001C28.4763 98.172 28.1486 98.3383 27.8817 98.5813C27.6148 98.8244 27.4187 99.1351 27.3141 99.4806C27.2095 99.8261 27.2004 100.193 27.2877 100.544C27.375 100.894 27.5555 101.214 27.81 101.47V101.46Z" fill="white"/>
</mask>
<g mask="url(#mask2_4_715)">
<path d="M116.64 -19.2599H115.89V264.45H116.64V-19.2599Z" fill="#C89E3F"/>
<path d="M109.212 -19.088L108.463 -19.0487L123.311 264.272L124.06 264.233L109.212 -19.088Z" fill="#C89E3F"/>
<path d="M101.808 -18.5266L101.062 -18.4482L130.718 263.708L131.464 263.629L101.808 -18.5266Z" fill="#C89E3F"/>
<path d="M94.441 -17.5693L93.7003 -17.452L138.082 262.765L138.823 262.648L94.441 -17.5693Z" fill="#C89E3F"/>
<path d="M87.3126 -16.519L86.5776 -16.3615L146.157 261.674L146.892 261.517L87.3126 -16.519Z" fill="#C89E3F"/>
<path d="M79.9107 -14.5223L79.1863 -14.3282L152.616 259.715L153.34 259.52L79.9107 -14.5223Z" fill="#C89E3F"/>
<path d="M72.7896 -12.431L72.0763 -12.1992L159.747 257.625L160.461 257.393L72.7896 -12.431Z" fill="#C89E3F"/>
<path d="M65.7807 -9.9707L65.0805 -9.70193L166.753 255.164L167.453 254.895L65.7807 -9.9707Z" fill="#C89E3F"/>
<path d="M58.9122 -7.14661L58.227 -6.84155L173.622 252.34L174.307 252.035L58.9122 -7.14661Z" fill="#C89E3F"/>
<path d="M52.1931 -3.96411L51.5249 -3.62362L180.327 249.164L180.995 248.823L52.1931 -3.96411Z" fill="#C89E3F"/>
<path d="M45.6632 -0.439575L45.0137 -0.0645749L186.869 245.635L187.518 245.26L45.6632 -0.439575Z" fill="#C89E3F"/>
<path d="M39.3228 3.42065L38.6938 3.82913L193.213 241.768L193.842 241.36L39.3228 3.42065Z" fill="#C89E3F"/>
<path d="M33.183 7.60913L32.5762 8.04997L199.337 237.576L199.944 237.135L33.183 7.60913Z" fill="#C89E3F"/>
<path d="M27.2856 12.1183L26.7027 12.5903L205.247 233.074L205.83 232.602L27.2856 12.1183Z" fill="#C89E3F"/>
<path d="M21.623 16.9297L21.0656 17.4316L210.905 228.269L211.462 227.767L21.623 16.9297Z" fill="#C89E3F"/>
<path d="M16.2181 22.0243L15.6877 22.5546L216.301 223.168L216.831 222.637L16.2181 22.0243Z" fill="#C89E3F"/>
<path d="M11.0944 27.4022L10.5926 27.9596L221.43 217.799L221.932 217.241L11.0944 27.4022Z" fill="#C89E3F"/>
<path d="M6.25611 33.0331L5.78412 33.6159L226.268 212.16L226.74 211.577L6.25611 33.0331Z" fill="#C89E3F"/>
<path d="M1.7176 38.9156L1.27676 39.5224L230.803 206.283L231.244 205.676L1.7176 38.9156Z" fill="#C89E3F"/>
<path d="M-2.5061 45.0278L-2.91458 45.6568L235.025 200.176L235.433 199.547L-2.5061 45.0278Z" fill="#C89E3F"/>
<path d="M-6.39966 51.3469L-6.77466 51.9964L238.925 193.851L239.3 193.202L-6.39966 51.3469Z" fill="#C89E3F"/>
<path d="M-9.95733 57.8593L-10.2978 58.5276L242.49 187.329L242.83 186.661L-9.95733 57.8593Z" fill="#C89E3F"/>
<path d="M-13.1731 64.5604L-13.4782 65.2456L245.704 180.641L246.009 179.956L-13.1731 64.5604Z" fill="#C89E3F"/>
<path d="M-16.0307 71.4152L-16.2995 72.1154L248.567 173.788L248.835 173.088L-16.0307 71.4152Z" fill="#C89E3F"/>
<path d="M251.06 166.79L-18.76 79.1202L-18.53 78.4102L251.3 166.08L251.06 166.79Z" fill="#C89E3F"/>
<path d="M253.19 159.68L-20.85 86.2501L-20.66 85.5201L253.39 158.95L253.19 159.68Z" fill="#C89E3F"/>
<path d="M-22.4183 92.7346L-22.5742 93.4682L254.936 152.455L255.092 151.721L-22.4183 92.7346Z" fill="#C89E3F"/>
<path d="M-23.7864 100.033L-23.9037 100.774L256.313 145.156L256.431 144.415L-23.7864 100.033Z" fill="#C89E3F"/>
<path d="M-24.7723 107.396L-24.8507 108.142L257.305 137.797L257.384 137.052L-24.7723 107.396Z" fill="#C89E3F"/>
<path d="M-25.3791 114.802L-25.4184 115.551L257.903 130.399L257.942 129.65L-25.3791 114.802Z" fill="#C89E3F"/>
<path d="M258.12 122.22H-25.59V122.97H258.12V122.22Z" fill="#C89E3F"/>
<path d="M257.914 114.81L-25.41 129.608L-25.3709 130.357L257.953 115.559L257.914 114.81Z" fill="#C89E3F"/>
<path d="M257.308 107.444L-24.8577 137.001L-24.7796 137.747L257.387 108.19L257.308 107.444Z" fill="#C89E3F"/>
<path d="M256.313 100.092L-23.9191 144.376L-23.802 145.117L256.431 100.833L256.313 100.092Z" fill="#C89E3F"/>
<path d="M254.935 92.6576L-22.5444 151.789L-22.3881 152.523L255.091 93.3911L254.935 92.6576Z" fill="#C89E3F"/>
<path d="M-20.66 159.68L-20.85 158.95L253.19 85.5201L253.39 86.2501L-20.66 159.68Z" fill="#C89E3F"/>
<path d="M-18.53 166.79L-18.76 166.08L251.06 78.4102L251.3 79.1202L-18.53 166.79Z" fill="#C89E3F"/>
<path d="M248.514 71.3018L-16.263 173.205L-15.9936 173.905L248.784 72.0018L248.514 71.3018Z" fill="#C89E3F"/>
<path d="M245.741 64.6561L-13.5215 179.87L-13.2169 180.556L246.046 65.3414L245.741 64.6561Z" fill="#C89E3F"/>
<path d="M242.528 57.9143L-10.3272 186.583L-9.9871 187.252L242.868 58.5828L242.528 57.9143Z" fill="#C89E3F"/>
<path d="M238.918 51.3557L-6.78159 193.211L-6.40659 193.86L239.293 52.0053L238.918 51.3557Z" fill="#C89E3F"/>
<path d="M235.05 45.0297L-2.91611 199.508L-2.50774 200.137L235.458 45.6588L235.05 45.0297Z" fill="#C89E3F"/>
<path d="M230.736 38.8141L1.35577 205.775L1.79714 206.381L231.178 39.4205L230.736 38.8141Z" fill="#C89E3F"/>
<path d="M226.217 32.9874L5.82654 211.647L6.29883 212.23L226.689 33.57L226.217 32.9874Z" fill="#C89E3F"/>
<path d="M221.446 27.429L10.5752 217.231L11.077 217.789L221.948 27.9865L221.446 27.429Z" fill="#C89E3F"/>
<path d="M216.217 21.9496L15.7789 222.738L16.3097 223.268L216.748 22.4795L216.217 21.9496Z" fill="#C89E3F"/>
<path d="M210.98 16.9847L20.9937 227.69L21.5507 228.192L211.537 17.4869L210.98 16.9847Z" fill="#C89E3F"/>
<path d="M205.286 12.1486L26.6647 232.57L27.2474 233.042L205.869 12.6208L205.286 12.1486Z" fill="#C89E3F"/>
<path d="M199.238 7.55713L32.6774 237.229L33.2845 237.669L199.845 7.99744L199.238 7.55713Z" fill="#C89E3F"/>
<path d="M193.188 3.42578L38.7104 241.392L39.3395 241.8L193.817 3.83415L193.188 3.42578Z" fill="#C89E3F"/>
<path d="M186.801 -0.471313L45.0742 245.303L45.7239 245.678L187.45 -0.0966534L186.801 -0.471313Z" fill="#C89E3F"/>
<path d="M180.394 -3.94141L51.4602 248.779L52.1283 249.119L181.062 -3.60057L180.394 -3.94141Z" fill="#C89E3F"/>
<path d="M173.53 -7.19409L58.3161 252.068L59.0015 252.373L174.216 -6.88952L173.53 -7.19409Z" fill="#C89E3F"/>
<path d="M166.695 -9.99805L65.1152 254.903L65.8155 255.172L167.396 -9.72952L166.695 -9.99805Z" fill="#C89E3F"/>
<path d="M159.725 -12.4227L72.1012 257.417L72.8146 257.648L160.439 -12.1911L159.725 -12.4227Z" fill="#C89E3F"/>
<path d="M152.64 -14.5195L79.1624 259.51L79.8869 259.705L153.364 -14.3253L152.64 -14.5195Z" fill="#C89E3F"/>
<path d="M145.415 -16.228L86.3799 261.272L87.1135 261.428L146.149 -16.072L145.415 -16.228Z" fill="#C89E3F"/>
<path d="M139.297 -17.7235L93.9034 263.149L94.6459 263.269L140.04 -17.6035L139.297 -17.7235Z" fill="#C89E3F"/>
<path d="M130.676 -18.5222L101.119 263.644L101.865 263.722L131.422 -18.4441L130.676 -18.5222Z" fill="#C89E3F"/>
<path d="M123.288 -19.0833L108.489 264.24L109.238 264.279L124.037 -19.0442L123.288 -19.0833Z" fill="#C89E3F"/>
</g>
<path d="M116.3 6.77004C116.481 6.77053 116.658 6.82007 116.813 6.91341C116.968 7.00674 117.095 7.14037 117.18 7.30004L153.76 75.78C153.972 76.178 154.271 76.5231 154.634 76.7897C154.998 77.0564 155.417 77.2376 155.86 77.32L229.86 91.03C230.039 91.064 230.205 91.146 230.34 91.2673C230.476 91.3886 230.576 91.5445 230.629 91.7184C230.683 91.8922 230.688 92.0773 230.644 92.2538C230.6 92.4303 230.509 92.5915 230.38 92.72L176.89 145.94C176.555 146.273 176.304 146.68 176.156 147.128C176.009 147.577 175.969 148.053 176.04 148.52L187.42 223.52C187.443 223.661 187.435 223.806 187.397 223.944C187.359 224.082 187.292 224.21 187.2 224.32C187.105 224.431 186.987 224.52 186.854 224.58C186.721 224.641 186.576 224.671 186.43 224.67C186.263 224.668 186.098 224.627 185.95 224.55L117.66 187C117.217 186.757 116.72 186.629 116.215 186.629C115.71 186.629 115.213 186.757 114.77 187L46.51 224.57C46.3605 224.655 46.1918 224.699 46.02 224.7C45.8748 224.699 45.7316 224.666 45.6003 224.604C45.4691 224.542 45.3529 224.452 45.26 224.34C45.1678 224.232 45.0996 224.106 45.06 223.97C45.0203 223.834 45.0101 223.69 45.03 223.55L56.19 148.55C56.258 148.087 56.2166 147.614 56.069 147.169C55.9213 146.725 55.6717 146.321 55.34 145.99L2.18 92.83C2.05146 92.7017 1.96027 92.5409 1.91623 92.3647C1.87219 92.1885 1.87695 92.0037 1.93 91.83C1.98095 91.6552 2.07866 91.4976 2.21259 91.3742C2.34652 91.2509 2.5116 91.1664 2.69 91.13L75.69 76.36C76.1098 76.2707 76.5056 76.0924 76.8507 75.8371C77.1957 75.5818 77.4819 75.2554 77.69 74.88L115.43 7.28004C115.517 7.12558 115.643 6.99696 115.796 6.90735C115.949 6.81773 116.123 6.77035 116.3 6.77004ZM62.74 202.66C63.2468 202.661 63.7457 202.534 64.19 202.29L115.73 173.93C115.882 173.842 116.054 173.796 116.23 173.796C116.406 173.796 116.578 173.842 116.73 173.93L168.22 202.26C168.661 202.502 169.157 202.629 169.66 202.63C170.089 202.636 170.515 202.55 170.909 202.378C171.302 202.205 171.654 201.95 171.94 201.63C172.221 201.303 172.428 200.919 172.547 200.505C172.666 200.091 172.694 199.656 172.63 199.23L164.2 143.7C164.177 143.544 164.191 143.385 164.242 143.235C164.292 143.086 164.377 142.95 164.49 142.84L205.08 102.45C205.466 102.064 205.74 101.579 205.871 101.049C206.002 100.519 205.986 99.9632 205.824 99.4415C205.663 98.9197 205.362 98.452 204.954 98.0887C204.546 97.7255 204.047 97.4804 203.51 97.38L147.71 87C147.562 86.9718 147.422 86.9104 147.3 86.8203C147.179 86.7303 147.08 86.6139 147.01 86.48L118.7 33.48C118.444 32.9995 118.062 32.5976 117.595 32.3175C117.129 32.0374 116.594 31.8896 116.05 31.89C115.516 31.8901 114.991 32.033 114.531 32.3037C114.07 32.5744 113.69 32.9633 113.43 33.43L84.38 85.43C84.3099 85.5549 84.2138 85.6633 84.0982 85.7478C83.9827 85.8323 83.8503 85.8911 83.71 85.92L28.63 97.12C28.0984 97.2273 27.6058 97.4766 27.2046 97.8416C26.8035 98.2065 26.5087 98.6733 26.3518 99.1925C26.1948 99.7116 26.1815 100.264 26.3133 100.79C26.445 101.316 26.7169 101.796 27.1 102.18L67.75 142.8C67.8595 142.91 67.9418 143.044 67.9904 143.192C68.039 143.339 68.0526 143.496 68.03 143.65L59.77 199.22C59.7074 199.645 59.7366 200.078 59.8556 200.49C59.9746 200.902 60.1807 201.284 60.46 201.61C60.7463 201.93 61.098 202.185 61.4914 202.358C61.8847 202.53 62.3105 202.616 62.74 202.61M116.3 5.77004C115.948 5.76865 115.601 5.86039 115.295 6.036C114.99 6.21161 114.736 6.46484 114.56 6.77004L76.82 74.4C76.681 74.6546 76.4882 74.876 76.2551 75.0486C76.022 75.2213 75.7541 75.3412 75.47 75.4L2.47 90.17C2.11589 90.2435 1.78835 90.4117 1.52223 90.6566C1.25612 90.9015 1.0614 91.214 0.958792 91.5608C0.856188 91.9076 0.849542 92.2758 0.939563 92.6261C1.02958 92.9763 1.2129 93.2957 1.47 93.55L54.63 146.66C54.8504 146.881 55.0159 147.152 55.1132 147.448C55.2104 147.745 55.2367 148.061 55.19 148.37L44 223.4C43.9565 223.687 43.9758 223.979 44.0567 224.258C44.1375 224.536 44.2779 224.794 44.4681 225.012C44.6584 225.231 44.8939 225.406 45.1584 225.525C45.4229 225.643 45.7101 225.703 46 225.7C46.3491 225.703 46.6932 225.617 47 225.45L115.26 187.89C115.556 187.727 115.888 187.642 116.225 187.642C116.562 187.642 116.894 187.727 117.19 187.89L185.48 225.46C185.784 225.633 186.13 225.72 186.48 225.71C186.77 225.713 187.057 225.654 187.322 225.535C187.586 225.416 187.822 225.241 188.012 225.022C188.202 224.804 188.343 224.546 188.423 224.268C188.504 223.989 188.524 223.697 188.48 223.41L177.1 148.41C177.052 148.099 177.077 147.782 177.174 147.483C177.272 147.184 177.438 146.913 177.66 146.69L231.16 93.47C231.447 93.209 231.651 92.8704 231.749 92.4953C231.847 92.1202 231.833 91.7248 231.71 91.3572C231.587 90.9896 231.36 90.6656 231.057 90.4247C230.753 90.1837 230.386 90.0362 230 90L156 76.3C155.707 76.248 155.429 76.1312 155.187 75.9582C154.945 75.7852 154.744 75.5604 154.6 75.3L118.07 6.83004C117.899 6.50919 117.644 6.24096 117.332 6.0542C117.02 5.86744 116.664 5.7692 116.3 5.77004ZM62.74 201.66C62.4501 201.663 62.1629 201.604 61.8984 201.485C61.6339 201.366 61.3984 201.191 61.2081 200.972C61.0179 200.754 60.8775 200.496 60.7967 200.218C60.7158 199.939 60.6965 199.647 60.74 199.36L69 143.8C69.0467 143.491 69.0204 143.175 68.9232 142.878C68.8259 142.582 68.6604 142.311 68.44 142.09L27.81 101.47C27.5556 101.215 27.3746 100.897 27.2862 100.548C27.1978 100.199 27.2052 99.8326 27.3076 99.4875C27.4099 99.1425 27.6036 98.8314 27.868 98.5872C28.1324 98.343 28.4579 98.1747 28.81 98.1L83.9 86.94C84.1841 86.8812 84.452 86.7613 84.6851 86.5886C84.9182 86.416 85.111 86.1946 85.25 85.94L114.3 33.94C114.472 33.625 114.726 33.3621 115.035 33.1789C115.344 32.9958 115.696 32.8992 116.055 32.8992C116.414 32.8992 116.766 32.9958 117.075 33.1789C117.384 33.3621 117.638 33.625 117.81 33.94L146.13 86.94C146.274 87.2004 146.475 87.4252 146.717 87.5982C146.959 87.7712 147.237 87.888 147.53 87.94L203.3 98.31C203.654 98.3835 203.982 98.5517 204.248 98.7966C204.514 99.0415 204.709 99.354 204.811 99.7008C204.914 100.048 204.92 100.416 204.83 100.766C204.74 101.116 204.557 101.436 204.3 101.69L163.7 142.09C163.48 142.311 163.314 142.582 163.217 142.878C163.12 143.175 163.093 143.491 163.14 143.8L171.56 199.33C171.605 199.695 171.548 200.064 171.396 200.399C171.244 200.733 171.003 201.02 170.7 201.226C170.396 201.433 170.041 201.552 169.674 201.57C169.308 201.588 168.943 201.505 168.62 201.33L117.13 173C116.834 172.837 116.502 172.752 116.165 172.752C115.828 172.752 115.496 172.837 115.2 173L63.7 201.41C63.3942 201.579 63.0495 201.665 62.7 201.66H62.74Z" fill="url(#paint5_linear_4_715)"/>
<path d="M116.21 165.99C118.844 165.99 120.98 163.854 120.98 161.22C120.98 158.586 118.844 156.45 116.21 156.45C113.576 156.45 111.44 158.586 111.44 161.22C111.44 163.854 113.576 165.99 116.21 165.99Z" fill="black" stroke="url(#paint6_linear_4_715)" stroke-miterlimit="10"/>
<path d="M116.34 86.2701C118.974 86.2701 121.11 84.1345 121.11 81.5001C121.11 78.8657 118.974 76.7301 116.34 76.7301C113.706 76.7301 111.57 78.8657 111.57 81.5001C111.57 84.1345 113.706 86.2701 116.34 86.2701Z" fill="black" stroke="url(#paint7_linear_4_715)" stroke-miterlimit="10"/>
<path d="M77.31 144C76.2217 143.997 75.1789 143.563 74.4103 142.793C73.6417 142.022 73.21 140.978 73.21 139.89V124.09H70.71C69.6242 124.087 68.5834 123.656 67.8137 122.89C67.0441 122.124 66.6079 121.086 66.6 120V116.84C66.6082 115.891 66.9442 114.975 67.5512 114.246C68.1581 113.517 68.9986 113.02 69.93 112.84C71.0992 112.66 72.2055 112.192 73.15 111.48C73.8713 110.831 74.3508 109.957 74.51 109C74.7299 108.107 75.244 107.313 75.9695 106.747C76.6951 106.181 77.5899 105.876 78.51 105.88H83.45C84.5383 105.885 85.5801 106.322 86.3468 107.094C87.1136 107.867 87.5427 108.912 87.54 110V139.86C87.544 140.402 87.4406 140.94 87.2358 141.442C87.031 141.944 86.7289 142.401 86.3469 142.786C85.9648 143.17 85.5104 143.476 85.0098 143.684C84.5092 143.893 83.9723 144 83.43 144H77.31Z" fill="url(#paint8_linear_4_715)"/>
<path d="M83.43 108.91C83.721 108.91 84.0003 109.024 84.2079 109.228C84.4155 109.432 84.5348 109.709 84.54 110V139.86C84.544 140.008 84.5183 140.156 84.4643 140.294C84.4103 140.432 84.3292 140.558 84.2257 140.664C84.1222 140.771 83.9985 140.855 83.8618 140.913C83.7252 140.97 83.5783 141 83.43 141H77.31C77.0174 140.997 76.7376 140.879 76.5316 140.671C76.3256 140.464 76.21 140.183 76.21 139.89V122.19C76.21 121.896 76.0931 121.613 75.8849 121.405C75.6767 121.197 75.3944 121.08 75.1 121.08H70.71C70.4207 121.08 70.1429 120.967 69.9355 120.766C69.7282 120.564 69.6078 120.289 69.6 120V116.84C69.6 116.582 69.6898 116.332 69.8541 116.133C70.0183 115.934 70.2467 115.799 70.5 115.75C72.1678 115.48 73.7401 114.792 75.07 113.75C76.2697 112.71 77.0952 111.304 77.42 109.75C77.4803 109.509 77.6195 109.296 77.8152 109.144C78.0109 108.992 78.252 108.909 78.5 108.91H83.43ZM83.43 102.91H78.5C76.9098 102.907 75.3649 103.439 74.1135 104.421C72.862 105.402 71.9768 106.775 71.6 108.32C71.54 108.612 71.4134 108.885 71.23 109.12C70.6731 109.504 70.0315 109.748 69.36 109.83C67.7371 110.148 66.2751 111.02 65.2243 112.297C64.1736 113.574 63.5993 115.176 63.6 116.83V120C63.603 121.798 64.2861 123.528 65.5122 124.844C66.7383 126.159 68.4166 126.961 70.21 127.09V139.91C70.21 141.794 70.9577 143.601 72.2889 144.934C73.6202 146.267 75.4261 147.017 77.31 147.02H83.43C85.3149 147.017 87.1218 146.267 88.4546 144.935C89.7874 143.602 90.5374 141.795 90.54 139.91V110C90.5374 108.115 89.7874 106.308 88.4546 104.975C87.1218 103.643 85.3149 102.893 83.43 102.89V102.91Z" fill="black"/>
<path d="M147.44 143.92C146.415 143.917 145.434 143.508 144.71 142.783C143.986 142.057 143.58 141.075 143.58 140.05V132.16L143.39 132.42C143.034 132.898 142.572 133.287 142.04 133.558C141.508 133.828 140.921 133.971 140.325 133.977C139.729 133.983 139.139 133.851 138.602 133.591C138.065 133.331 137.596 132.951 137.23 132.48L136.76 131.87V140.05C136.76 141.075 136.354 142.057 135.63 142.783C134.906 143.508 133.925 143.917 132.9 143.92H125.9C124.876 143.915 123.896 143.505 123.173 142.78C122.45 142.055 122.043 141.074 122.04 140.05V109.87C122.043 108.846 122.45 107.865 123.173 107.14C123.896 106.415 124.876 106.005 125.9 106H132.9C133.509 106.001 134.11 106.147 134.652 106.425C135.194 106.703 135.663 107.106 136.02 107.6L140.33 113.6L144.4 107.72C144.752 107.204 145.225 106.783 145.778 106.491C146.33 106.2 146.946 106.049 147.57 106.05H154.5C155.525 106.053 156.506 106.462 157.23 107.187C157.954 107.913 158.36 108.895 158.36 109.92V140.1C158.36 141.125 157.954 142.107 157.23 142.833C156.506 143.558 155.525 143.967 154.5 143.97L147.44 143.92Z" fill="url(#paint9_linear_4_715)"/>
<path d="M154.44 109C154.554 109 154.666 109.023 154.771 109.066C154.876 109.11 154.972 109.174 155.052 109.255C155.132 109.336 155.195 109.432 155.237 109.538C155.28 109.643 155.301 109.756 155.3 109.87V140.05C155.301 140.164 155.28 140.277 155.237 140.382C155.195 140.488 155.132 140.584 155.052 140.665C154.972 140.746 154.876 140.81 154.771 140.854C154.666 140.897 154.554 140.92 154.44 140.92H147.44C147.326 140.92 147.214 140.897 147.109 140.854C147.004 140.81 146.908 140.746 146.828 140.665C146.748 140.584 146.685 140.488 146.643 140.382C146.6 140.277 146.579 140.164 146.58 140.05V125.69C146.581 125.575 146.56 125.462 146.517 125.355C146.473 125.249 146.409 125.153 146.328 125.072C146.247 124.991 146.151 124.927 146.045 124.883C145.938 124.84 145.825 124.819 145.71 124.82C145.577 124.82 145.446 124.852 145.328 124.913C145.21 124.974 145.108 125.062 145.03 125.17L141 130.63C140.92 130.738 140.816 130.825 140.696 130.886C140.576 130.947 140.444 130.979 140.31 130.98C140.179 130.981 140.049 130.952 139.931 130.895C139.813 130.837 139.71 130.754 139.63 130.65L135.32 125.07C135.242 124.966 135.141 124.881 135.025 124.822C134.908 124.763 134.78 124.732 134.65 124.73C134.535 124.73 134.421 124.753 134.315 124.797C134.209 124.842 134.112 124.906 134.031 124.988C133.95 125.07 133.886 125.167 133.843 125.274C133.8 125.381 133.779 125.495 133.78 125.61V140.05C133.78 140.279 133.69 140.499 133.529 140.662C133.368 140.825 133.149 140.917 132.92 140.92H125.92C125.691 140.917 125.472 140.825 125.311 140.662C125.15 140.499 125.06 140.279 125.06 140.05V109.87C125.06 109.641 125.15 109.421 125.311 109.258C125.472 109.095 125.691 109.003 125.92 109H132.92C133.056 109 133.189 109.033 133.309 109.095C133.429 109.158 133.533 109.249 133.61 109.36L139.7 117.76C139.778 117.873 139.883 117.966 140.005 118.03C140.127 118.094 140.262 118.128 140.4 118.128C140.538 118.128 140.673 118.094 140.795 118.03C140.917 117.966 141.022 117.873 141.1 117.76L146.88 109.38C146.961 109.267 147.068 109.175 147.191 109.111C147.314 109.046 147.451 109.012 147.59 109.01H154.52M154.52 103.01H147.59C146.477 103.016 145.383 103.292 144.4 103.815C143.418 104.337 142.577 105.091 141.95 106.01L140.29 108.41L138.47 105.89C137.835 105.012 137.001 104.297 136.036 103.803C135.072 103.309 134.004 103.051 132.92 103.05H125.92C124.1 103.053 122.355 103.778 121.069 105.066C119.782 106.354 119.06 108.1 119.06 109.92V140.1C119.06 141.92 119.782 143.666 121.069 144.954C122.355 146.242 124.1 146.967 125.92 146.97H132.92C134.74 146.967 136.485 146.242 137.771 144.954C139.058 143.666 139.78 141.92 139.78 140.1V137H140.31H140.6V140.07C140.6 141.89 141.322 143.636 142.609 144.924C143.895 146.212 145.64 146.937 147.46 146.94H154.46C156.28 146.937 158.025 146.212 159.311 144.924C160.598 143.636 161.32 141.89 161.32 140.07V109.87C161.32 108.05 160.598 106.304 159.311 105.016C158.025 103.728 156.28 103.003 154.46 103L154.52 103.01Z" fill="black"/>
<path d="M91.3 143.45C90.4048 143.478 89.5132 143.323 88.6807 142.992C87.8481 142.662 87.0923 142.164 86.46 141.53C85.2601 140.235 84.6101 138.525 84.647 136.759C84.6838 134.994 85.4047 133.313 86.6576 132.069C87.9105 130.825 89.5975 130.116 91.3628 130.092C93.1281 130.068 94.8337 130.731 96.12 131.94C96.7351 132.578 97.2178 133.332 97.5405 134.157C97.8631 134.983 98.0193 135.864 98 136.75C98.0277 137.637 97.8734 138.521 97.5465 139.346C97.2196 140.172 96.7271 140.922 96.0994 141.549C95.4716 142.177 94.7219 142.67 93.8964 142.997C93.071 143.323 92.1874 143.478 91.3 143.45Z" fill="url(#paint10_linear_4_715)"/>
<path d="M91.3 133C91.7916 132.972 92.2836 133.047 92.7449 133.219C93.2061 133.391 93.6267 133.657 93.98 134C94.3196 134.36 94.5832 134.784 94.755 135.248C94.9268 135.712 95.0034 136.206 94.98 136.7C95.0061 137.203 94.9297 137.706 94.7553 138.178C94.5809 138.65 94.3122 139.082 93.9656 139.447C93.619 139.812 93.2017 140.103 92.7391 140.301C92.2766 140.5 91.7784 140.603 91.275 140.603C90.7716 140.603 90.2734 140.5 89.8109 140.301C89.3483 140.103 88.931 139.812 88.5844 139.447C88.2378 139.082 87.9691 138.65 87.7947 138.178C87.6203 137.706 87.5439 137.203 87.57 136.7C87.5472 136.206 87.624 135.712 87.7958 135.248C87.9676 134.785 88.2309 134.36 88.57 134C88.9233 133.657 89.3438 133.391 89.8051 133.219C90.2664 133.047 90.7584 132.972 91.25 133M91.25 127C89.9522 126.972 88.6622 127.208 87.4588 127.695C86.2553 128.181 85.1635 128.908 84.25 129.83C82.4951 131.699 81.5182 134.166 81.5182 136.73C81.5182 139.294 82.4951 141.761 84.25 143.63C85.3779 144.796 86.7774 145.664 88.3232 146.157C89.869 146.649 91.5128 146.751 93.1074 146.452C94.702 146.154 96.1977 145.464 97.4604 144.445C98.7232 143.427 99.7136 142.111 100.343 140.616C100.972 139.12 101.221 137.492 101.067 135.877C100.913 134.262 100.36 132.711 99.4594 131.362C98.5584 130.013 97.3368 128.908 95.9041 128.147C94.4714 127.385 92.8723 126.992 91.25 127Z" fill="black"/>
<path d="M109.4 143.41C105.03 143.41 101.51 142.31 98.94 140.13C97.5829 138.949 96.5101 137.477 95.8019 135.823C95.0937 134.169 94.7683 132.377 94.85 130.58C94.8313 128.732 95.2784 126.909 96.15 125.28C96.5086 124.634 96.92 124.018 97.38 123.44C97.21 123.15 97.05 122.86 96.9 122.55C96.2279 121.181 95.8854 119.675 95.9 118.15C95.8612 116.407 96.2024 114.677 96.9 113.08C97.5956 111.572 98.6208 110.239 99.9 109.18C101.183 108.113 102.66 107.305 104.25 106.8C105.929 106.273 107.68 106.014 109.44 106.03C111.171 106.014 112.893 106.277 114.54 106.81C116.108 107.321 117.559 108.136 118.81 109.21C120.048 110.277 121.043 111.597 121.73 113.08C122.428 114.677 122.769 116.407 122.73 118.15C122.743 119.614 122.465 121.065 121.91 122.42C121.759 122.794 121.585 123.158 121.39 123.51C121.82 124.089 122.198 124.705 122.52 125.35C123.314 126.978 123.714 128.769 123.69 130.58C123.718 132.409 123.378 134.225 122.69 135.92C122.004 137.538 120.95 138.973 119.61 140.11C118.246 141.238 116.673 142.084 114.98 142.6C113.172 143.15 111.29 143.424 109.4 143.41ZM108 130.91C108.441 131.112 108.928 131.191 109.41 131.14C109.897 131.183 110.387 131.096 110.83 130.89C110.881 130.858 110.921 130.811 110.946 130.756C110.971 130.701 110.979 130.64 110.97 130.58C110.979 130.517 110.97 130.454 110.945 130.396C110.921 130.338 110.881 130.287 110.83 130.25C109.911 129.924 108.904 129.946 108 130.31C107.85 130.43 107.85 130.46 107.85 130.58C107.841 130.644 107.851 130.708 107.877 130.767C107.904 130.825 107.946 130.875 108 130.91ZM108.48 118.24C108.785 118.309 109.097 118.339 109.41 118.33C109.723 118.345 110.037 118.311 110.34 118.23V118.11C110.064 118.03 109.777 117.996 109.49 118.01C109.15 117.986 108.808 118.037 108.49 118.16C108.479 118.185 108.472 118.212 108.47 118.24H108.48Z" fill="url(#paint11_linear_4_715)"/>
<path d="M109.48 109C110.888 108.984 112.29 109.197 113.63 109.63C114.828 110.012 115.937 110.631 116.89 111.45C117.806 112.238 118.543 113.213 119.05 114.31C119.578 115.51 119.841 116.809 119.82 118.12C119.837 119.189 119.636 120.251 119.23 121.24C118.846 122.164 118.293 123.008 117.6 123.73C118.573 124.53 119.364 125.529 119.92 126.66C120.512 127.87 120.807 129.203 120.78 130.55C120.804 131.974 120.543 133.389 120.01 134.71C119.511 135.901 118.736 136.956 117.75 137.79C116.692 138.667 115.467 139.32 114.15 139.71C112.611 140.177 111.008 140.403 109.4 140.38C105.74 140.38 102.91 139.53 100.88 137.81C99.8637 136.905 99.0657 135.782 98.5461 134.525C98.0265 133.267 97.7987 131.908 97.88 130.55C97.8621 129.201 98.1854 127.87 98.82 126.68C99.4556 125.507 100.335 124.484 101.4 123.68C100.674 122.953 100.073 122.112 99.62 121.19C99.1548 120.231 98.9186 119.176 98.93 118.11C98.9041 116.799 99.167 115.498 99.7 114.3C100.212 113.195 100.963 112.218 101.9 111.44C102.885 110.617 104.024 109.999 105.25 109.62C106.628 109.185 108.066 108.973 109.51 108.99M109.43 121.29C110.499 121.382 111.565 121.084 112.43 120.45C112.76 120.167 113.021 119.813 113.195 119.415C113.368 119.017 113.448 118.584 113.43 118.15C113.44 117.73 113.363 117.313 113.205 116.924C113.047 116.536 112.81 116.183 112.51 115.89C112.106 115.551 111.64 115.295 111.137 115.138C110.634 114.98 110.105 114.923 109.58 114.97C108.5 114.893 107.431 115.221 106.58 115.89C106.262 116.174 106.009 116.523 105.836 116.912C105.664 117.302 105.577 117.724 105.58 118.15C105.567 118.565 105.64 118.979 105.795 119.365C105.95 119.75 106.183 120.099 106.48 120.39C107.326 121.067 108.401 121.389 109.48 121.29M109.48 134.1C110.707 134.2 111.929 133.844 112.91 133.1C113.262 132.779 113.544 132.389 113.737 131.953C113.929 131.518 114.029 131.046 114.029 130.57C114.029 130.094 113.929 129.623 113.737 129.187C113.544 128.751 113.262 128.361 112.91 128.04C111.954 127.292 110.749 126.934 109.54 127.04C108.3 126.939 107.066 127.295 106.07 128.04C105.698 128.347 105.4 128.734 105.197 129.172C104.995 129.61 104.893 130.088 104.9 130.57C104.892 131.047 104.987 131.52 105.178 131.956C105.37 132.393 105.654 132.783 106.01 133.1C106.996 133.849 108.226 134.206 109.46 134.1M109.54 102.99C107.464 102.974 105.399 103.285 103.42 103.91C101.436 104.535 99.5947 105.545 98 106.88C96.3787 108.242 95.0836 109.951 94.21 111.88C93.3143 113.865 92.8638 116.022 92.89 118.2C92.8876 119.917 93.2276 121.616 93.89 123.2C93.76 123.42 93.64 123.64 93.52 123.86C92.4037 125.926 91.8292 128.242 91.85 130.59C91.767 132.822 92.1867 135.044 93.0781 137.091C93.9695 139.139 95.3099 140.96 97 142.42C100.13 145.07 104.3 146.42 109.4 146.42C111.622 146.44 113.835 146.12 115.96 145.47C118.032 144.839 119.957 143.798 121.62 142.41C123.324 140.973 124.664 139.154 125.53 137.1C126.381 135.036 126.806 132.822 126.78 130.59C126.804 128.314 126.294 126.063 125.29 124.02C125.17 123.77 125.04 123.52 124.9 123.28C125.52 121.645 125.831 119.909 125.82 118.16C125.842 115.978 125.388 113.818 124.49 111.83C123.625 109.957 122.37 108.29 120.81 106.94C119.261 105.607 117.468 104.588 115.53 103.94C113.592 103.313 111.567 102.999 109.53 103.01L109.54 102.99Z" fill="black"/>
<path d="M84.54 110V139.86C84.544 140.008 84.5183 140.156 84.4643 140.294C84.4103 140.432 84.3292 140.558 84.2257 140.664C84.1222 140.771 83.9985 140.855 83.8618 140.913C83.7252 140.97 83.5783 141 83.43 141H77.31C77.0174 140.997 76.7376 140.879 76.5316 140.671C76.3256 140.463 76.21 140.183 76.21 139.89V122.19C76.21 121.896 76.0931 121.613 75.8849 121.405C75.6767 121.197 75.3944 121.08 75.1 121.08H70.71C70.4207 121.08 70.1429 120.967 69.9355 120.766C69.7282 120.564 69.6078 120.289 69.6 120V116.84C69.6 116.582 69.6898 116.332 69.8541 116.133C70.0183 115.934 70.2467 115.799 70.5 115.75C72.1678 115.48 73.7401 114.792 75.07 113.75C76.2697 112.71 77.0952 111.304 77.42 109.75C77.4803 109.509 77.6194 109.296 77.8152 109.144C78.0109 108.992 78.252 108.909 78.5 108.91H83.43C83.721 108.91 84.0003 109.024 84.2079 109.228C84.4155 109.432 84.5348 109.709 84.54 110Z" fill="url(#paint12_linear_4_715)"/>
<path d="M83.43 109.66C83.5255 109.66 83.617 109.698 83.6846 109.765C83.7521 109.833 83.79 109.925 83.79 110.02V139.88C83.79 139.975 83.7521 140.067 83.6846 140.135C83.617 140.202 83.5255 140.24 83.43 140.24H77.31C77.2163 140.237 77.1273 140.198 77.0619 140.131C76.9965 140.064 76.96 139.974 76.96 139.88V122.19C76.96 121.697 76.764 121.224 76.4152 120.875C76.0664 120.526 75.5933 120.33 75.1 120.33H70.71C70.6145 120.33 70.523 120.292 70.4555 120.225C70.3879 120.157 70.35 120.065 70.35 119.97V116.81C70.3507 116.727 70.38 116.647 70.4328 116.583C70.4856 116.52 70.5588 116.476 70.64 116.46C72.4317 116.169 74.1207 115.429 75.55 114.31C76.8673 113.169 77.7796 111.633 78.15 109.93C78.1684 109.852 78.2132 109.782 78.277 109.733C78.3407 109.684 78.4195 109.658 78.5 109.66H83.43ZM83.43 108.91H78.5C78.252 108.909 78.0109 108.992 77.8152 109.144C77.6194 109.296 77.4803 109.509 77.42 109.75C77.0952 111.304 76.2697 112.71 75.07 113.75C73.7401 114.792 72.1678 115.48 70.5 115.75C70.2467 115.799 70.0183 115.934 69.8541 116.133C69.6898 116.332 69.6 116.582 69.6 116.84V120C69.6 120.294 69.717 120.577 69.9251 120.785C70.1333 120.993 70.4156 121.11 70.71 121.11H75.1C75.3944 121.11 75.6767 121.227 75.8849 121.435C76.0931 121.643 76.21 121.926 76.21 122.22V139.91C76.21 140.203 76.3256 140.484 76.5316 140.691C76.7376 140.899 77.0174 141.017 77.31 141.02H83.43C83.5758 141.02 83.7201 140.991 83.8548 140.936C83.9895 140.88 84.1118 140.798 84.2149 140.695C84.318 140.592 84.3997 140.469 84.4555 140.335C84.5113 140.2 84.54 140.056 84.54 139.91V110C84.54 109.706 84.4231 109.423 84.2149 109.215C84.0067 109.007 83.7244 108.89 83.43 108.89V108.91Z" fill="url(#paint13_linear_4_715)"/>
<path d="M132.84 109C132.976 109 133.109 109.033 133.229 109.095C133.349 109.158 133.453 109.249 133.53 109.36L139.62 117.76C139.698 117.873 139.803 117.966 139.925 118.03C140.047 118.094 140.182 118.128 140.32 118.128C140.458 118.128 140.593 118.094 140.715 118.03C140.837 117.966 140.942 117.873 141.02 117.76L146.8 109.38C146.881 109.267 146.988 109.175 147.111 109.111C147.234 109.046 147.371 109.012 147.51 109.01H154.44C154.554 109.01 154.666 109.033 154.771 109.076C154.876 109.12 154.972 109.184 155.052 109.265C155.132 109.346 155.195 109.442 155.237 109.548C155.28 109.653 155.301 109.766 155.3 109.88V140.06C155.301 140.174 155.28 140.287 155.237 140.392C155.195 140.498 155.132 140.594 155.052 140.675C154.972 140.756 154.876 140.82 154.771 140.864C154.666 140.907 154.554 140.93 154.44 140.93H147.44C147.326 140.93 147.214 140.907 147.109 140.864C147.004 140.82 146.908 140.756 146.828 140.675C146.748 140.594 146.685 140.498 146.643 140.392C146.6 140.287 146.579 140.174 146.58 140.06V125.69C146.581 125.509 146.525 125.331 146.42 125.184C146.315 125.036 146.166 124.926 145.994 124.868C145.822 124.81 145.636 124.808 145.463 124.863C145.29 124.917 145.138 125.024 145.03 125.17L141 130.63C140.92 130.736 140.816 130.821 140.697 130.88C140.579 130.939 140.448 130.97 140.315 130.97C140.182 130.97 140.051 130.939 139.933 130.88C139.814 130.821 139.71 130.736 139.63 130.63L135.32 125.05C135.21 124.907 135.057 124.803 134.884 124.752C134.711 124.7 134.526 124.705 134.355 124.765C134.185 124.825 134.038 124.936 133.934 125.085C133.831 125.233 133.777 125.409 133.78 125.59V140.03C133.78 140.259 133.69 140.479 133.529 140.642C133.368 140.805 133.149 140.897 132.92 140.9H125.92C125.691 140.897 125.472 140.805 125.311 140.642C125.15 140.479 125.06 140.259 125.06 140.03V109.87C125.06 109.641 125.15 109.421 125.311 109.258C125.472 109.095 125.691 109.003 125.92 109H132.84Z" fill="url(#paint14_linear_4_715)"/>
<path d="M154.44 109.75C154.455 109.75 154.47 109.753 154.485 109.759C154.499 109.765 154.511 109.774 154.522 109.786C154.532 109.797 154.54 109.81 154.545 109.825C154.55 109.839 154.551 109.855 154.55 109.87V140.05C154.55 140.08 154.539 140.109 154.518 140.131C154.498 140.154 154.47 140.167 154.44 140.17H147.44C147.41 140.167 147.382 140.154 147.362 140.131C147.341 140.109 147.33 140.08 147.33 140.05V125.69C147.334 125.349 147.231 125.016 147.035 124.737C146.838 124.458 146.559 124.249 146.237 124.138C145.914 124.027 145.565 124.021 145.239 124.12C144.913 124.219 144.626 124.419 144.42 124.69L140.42 130.16C140.408 130.166 140.394 130.169 140.38 130.169C140.366 130.169 140.352 130.166 140.34 130.16C140.326 130.167 140.311 130.171 140.295 130.171C140.279 130.171 140.264 130.167 140.25 130.16L135.94 124.58C135.792 124.385 135.602 124.227 135.384 124.118C135.165 124.009 134.924 123.951 134.68 123.95C134.466 123.949 134.254 123.99 134.056 124.072C133.858 124.153 133.679 124.273 133.528 124.425C133.377 124.577 133.258 124.757 133.178 124.955C133.097 125.154 133.057 125.366 133.06 125.58V140.02C133.06 140.05 133.049 140.079 133.028 140.101C133.008 140.124 132.98 140.137 132.95 140.14H125.95C125.92 140.137 125.892 140.124 125.872 140.101C125.851 140.079 125.84 140.05 125.84 140.02V109.87C125.839 109.855 125.84 109.839 125.845 109.825C125.85 109.81 125.858 109.797 125.868 109.786C125.879 109.774 125.891 109.765 125.905 109.759C125.919 109.753 125.935 109.75 125.95 109.75H132.95C132.963 109.744 132.976 109.742 132.99 109.742C133.004 109.742 133.017 109.744 133.03 109.75L139.12 118.15C139.267 118.358 139.461 118.528 139.688 118.644C139.914 118.761 140.165 118.821 140.42 118.82C140.682 118.819 140.939 118.755 141.171 118.634C141.403 118.512 141.601 118.335 141.75 118.12L147.53 109.75C147.559 109.738 147.591 109.738 147.62 109.75H154.55M154.55 109H147.62C147.481 109.002 147.344 109.036 147.221 109.101C147.098 109.165 146.991 109.257 146.91 109.37L141 117.75C140.922 117.863 140.817 117.956 140.695 118.02C140.573 118.084 140.438 118.118 140.3 118.118C140.162 118.118 140.027 118.084 139.905 118.02C139.783 117.956 139.678 117.863 139.6 117.75L133.51 109.35C133.433 109.239 133.329 109.148 133.209 109.085C133.089 109.023 132.956 108.99 132.82 108.99H125.82C125.591 108.993 125.372 109.085 125.211 109.248C125.05 109.411 124.96 109.631 124.96 109.86V140.04C124.96 140.269 125.05 140.489 125.211 140.652C125.372 140.815 125.591 140.907 125.82 140.91H132.82C133.049 140.907 133.268 140.815 133.429 140.652C133.59 140.489 133.68 140.269 133.68 140.04V125.61C133.679 125.495 133.7 125.381 133.743 125.274C133.786 125.167 133.85 125.07 133.931 124.988C134.012 124.906 134.109 124.842 134.215 124.797C134.321 124.753 134.435 124.73 134.55 124.73C134.68 124.732 134.808 124.763 134.925 124.822C135.041 124.881 135.142 124.966 135.22 125.07L139.53 130.65C139.61 130.754 139.713 130.837 139.831 130.895C139.949 130.952 140.079 130.981 140.21 130.98C140.344 130.979 140.476 130.947 140.596 130.886C140.716 130.825 140.82 130.738 140.9 130.63L144.95 125.17C145.028 125.062 145.13 124.974 145.248 124.913C145.366 124.852 145.497 124.82 145.63 124.82C145.745 124.819 145.858 124.84 145.965 124.883C146.071 124.927 146.167 124.991 146.248 125.072C146.329 125.153 146.393 125.249 146.437 125.355C146.48 125.462 146.501 125.575 146.5 125.69V140.05C146.499 140.164 146.52 140.277 146.563 140.382C146.605 140.488 146.668 140.584 146.748 140.665C146.828 140.745 146.924 140.81 147.029 140.854C147.134 140.897 147.246 140.92 147.36 140.92H154.36C154.474 140.92 154.586 140.897 154.691 140.854C154.796 140.81 154.892 140.745 154.972 140.665C155.052 140.584 155.115 140.488 155.157 140.382C155.2 140.277 155.221 140.164 155.22 140.05V109.87C155.221 109.756 155.2 109.643 155.157 109.538C155.115 109.432 155.052 109.336 154.972 109.255C154.892 109.174 154.796 109.11 154.691 109.066C154.586 109.023 154.474 109 154.36 109H154.55Z" fill="url(#paint15_linear_4_715)"/>
<path d="M87.59 136.75C87.5672 136.256 87.644 135.762 87.8158 135.298C87.9876 134.835 88.2509 134.41 88.59 134.05C89.325 133.387 90.2799 133.019 91.27 133.019C92.2601 133.019 93.215 133.387 93.95 134.05C94.2896 134.41 94.5532 134.834 94.725 135.298C94.8968 135.762 94.9734 136.256 94.95 136.75C94.9761 137.253 94.8997 137.756 94.7253 138.228C94.5509 138.7 94.2822 139.132 93.9356 139.497C93.589 139.862 93.1717 140.153 92.7091 140.351C92.2466 140.55 91.7484 140.653 91.245 140.653C90.7416 140.653 90.2434 140.55 89.7809 140.351C89.3183 140.153 88.901 139.862 88.5544 139.497C88.2078 139.132 87.9391 138.7 87.7647 138.228C87.5903 137.756 87.5139 137.253 87.54 136.75H87.59Z" fill="url(#paint16_linear_4_715)"/>
<path d="M91.3 133C91.7916 132.972 92.2836 133.047 92.7449 133.219C93.2061 133.391 93.6267 133.657 93.98 134C94.3196 134.36 94.5832 134.784 94.755 135.248C94.9268 135.712 95.0034 136.206 94.98 136.7C95.0061 137.203 94.9297 137.706 94.7553 138.178C94.5809 138.65 94.3122 139.082 93.9656 139.447C93.619 139.812 93.2017 140.103 92.7391 140.301C92.2766 140.5 91.7784 140.603 91.275 140.603C90.7716 140.603 90.2734 140.5 89.8109 140.301C89.3483 140.103 88.931 139.812 88.5844 139.447C88.2378 139.082 87.9691 138.65 87.7947 138.178C87.6203 137.706 87.5439 137.203 87.57 136.7C87.5472 136.206 87.624 135.712 87.7958 135.248C87.9676 134.785 88.2309 134.36 88.57 134C88.9233 133.657 89.3438 133.391 89.8051 133.219C90.2664 133.047 90.7584 132.972 91.25 133M91.25 132.25C90.6554 132.227 90.0625 132.327 89.5084 132.544C88.9543 132.761 88.451 133.09 88.03 133.51C87.6177 133.938 87.2954 134.444 87.0824 134.999C86.8694 135.554 86.77 136.146 86.79 136.74C86.7566 137.334 86.8491 137.928 87.0615 138.484C87.274 139.04 87.6015 139.544 88.0227 139.965C88.4438 140.385 88.9491 140.711 89.5053 140.922C90.0615 141.134 90.6561 141.225 91.25 141.19C91.8419 141.219 92.4333 141.123 92.9862 140.91C93.539 140.696 94.0411 140.369 94.4601 139.95C94.8792 139.531 95.206 139.029 95.4195 138.476C95.633 137.923 95.7286 137.332 95.7 136.74C95.7213 136.147 95.6235 135.555 95.4122 135C95.2009 134.446 94.8805 133.939 94.47 133.51C94.0483 133.091 93.5448 132.762 92.9909 132.545C92.437 132.329 91.8444 132.228 91.25 132.25Z" fill="url(#paint17_linear_4_715)"/>
<path d="M109.4 140.41C105.74 140.41 102.91 139.56 100.88 137.84C99.8637 136.935 99.0657 135.812 98.5461 134.555C98.0265 133.297 97.7987 131.938 97.88 130.58C97.8621 129.231 98.1855 127.9 98.82 126.71C99.4556 125.537 100.335 124.514 101.4 123.71C100.674 122.983 100.073 122.142 99.62 121.22C99.1548 120.261 98.9186 119.206 98.93 118.14C98.9041 116.829 99.167 115.528 99.7 114.33C100.212 113.225 100.963 112.248 101.9 111.47C102.885 110.647 104.024 110.029 105.25 109.65C106.628 109.215 108.066 109.003 109.51 109.02C110.918 109.004 112.32 109.217 113.66 109.65C114.858 110.032 115.967 110.651 116.92 111.47C117.836 112.258 118.573 113.233 119.08 114.33C119.608 115.53 119.871 116.829 119.85 118.14C119.867 119.209 119.666 120.271 119.26 121.26C118.876 122.184 118.323 123.028 117.63 123.75C118.603 124.553 119.397 125.551 119.96 126.68C120.544 127.892 120.835 129.225 120.81 130.57C120.834 131.994 120.573 133.409 120.04 134.73C119.541 135.921 118.766 136.976 117.78 137.81C116.722 138.687 115.497 139.34 114.18 139.73C112.632 140.204 111.019 140.433 109.4 140.41ZM109.4 134.14C110.627 134.24 111.849 133.884 112.83 133.14C113.182 132.819 113.464 132.429 113.657 131.993C113.849 131.557 113.949 131.086 113.949 130.61C113.949 130.134 113.849 129.663 113.657 129.227C113.464 128.791 113.182 128.401 112.83 128.08C111.874 127.332 110.669 126.974 109.46 127.08C108.22 126.979 106.986 127.335 105.99 128.08C105.618 128.387 105.32 128.774 105.117 129.212C104.915 129.65 104.813 130.128 104.82 130.61C104.812 131.087 104.907 131.56 105.098 131.996C105.29 132.433 105.574 132.823 105.93 133.14C106.922 133.894 108.159 134.251 109.4 134.14ZM109.4 121.33C110.469 121.422 111.535 121.124 112.4 120.49C112.73 120.207 112.991 119.853 113.165 119.455C113.338 119.057 113.418 118.624 113.4 118.19C113.41 117.77 113.333 117.353 113.175 116.964C113.017 116.576 112.78 116.223 112.48 115.93C112.076 115.591 111.61 115.335 111.107 115.178C110.604 115.02 110.075 114.963 109.55 115.01C108.47 114.933 107.401 115.261 106.55 115.93C106.232 116.214 105.979 116.563 105.806 116.952C105.634 117.342 105.547 117.764 105.55 118.19C105.537 118.605 105.61 119.019 105.765 119.405C105.92 119.79 106.153 120.139 106.45 120.43C107.283 121.094 108.338 121.416 109.4 121.33Z" fill="url(#paint18_linear_4_715)"/>
<path d="M109.48 109C110.888 108.984 112.29 109.197 113.63 109.63C114.828 110.012 115.937 110.631 116.89 111.45C117.806 112.238 118.543 113.213 119.05 114.31C119.578 115.51 119.841 116.809 119.82 118.12C119.837 119.189 119.636 120.251 119.23 121.24C118.846 122.164 118.293 123.008 117.6 123.73C118.573 124.53 119.364 125.529 119.92 126.66C120.512 127.87 120.807 129.203 120.78 130.55C120.804 131.974 120.543 133.389 120.01 134.71C119.511 135.901 118.736 136.956 117.75 137.79C116.692 138.667 115.467 139.32 114.15 139.71C112.611 140.177 111.008 140.403 109.4 140.38C105.74 140.38 102.91 139.53 100.88 137.81C99.8637 136.905 99.0657 135.782 98.5461 134.525C98.0265 133.267 97.7988 131.908 97.88 130.55C97.8621 129.201 98.1855 127.87 98.82 126.68C99.4556 125.507 100.335 124.484 101.4 123.68C100.674 122.953 100.073 122.112 99.62 121.19C99.1548 120.231 98.9186 119.176 98.93 118.11C98.9041 116.799 99.167 115.498 99.7 114.3C100.212 113.195 100.963 112.218 101.9 111.44C102.885 110.617 104.024 109.999 105.25 109.62C106.628 109.185 108.066 108.973 109.51 108.99M109.43 121.29C110.499 121.382 111.565 121.084 112.43 120.45C112.76 120.167 113.021 119.813 113.195 119.415C113.368 119.017 113.448 118.584 113.43 118.15C113.44 117.73 113.363 117.313 113.205 116.924C113.047 116.536 112.81 116.183 112.51 115.89C112.106 115.551 111.64 115.295 111.137 115.138C110.634 114.98 110.105 114.923 109.58 114.97C108.5 114.893 107.431 115.221 106.58 115.89C106.262 116.174 106.009 116.523 105.836 116.912C105.664 117.302 105.577 117.724 105.58 118.15C105.567 118.565 105.64 118.979 105.795 119.365C105.95 119.75 106.183 120.099 106.48 120.39C107.326 121.067 108.401 121.389 109.48 121.29M109.48 134.1C110.707 134.2 111.929 133.844 112.91 133.1C113.262 132.779 113.544 132.389 113.737 131.953C113.929 131.517 114.029 131.046 114.029 130.57C114.029 130.094 113.929 129.622 113.737 129.187C113.544 128.751 113.262 128.361 112.91 128.04C111.954 127.292 110.749 126.934 109.54 127.04C108.3 126.939 107.066 127.295 106.07 128.04C105.698 128.347 105.4 128.734 105.197 129.172C104.995 129.61 104.893 130.088 104.9 130.57C104.892 131.047 104.987 131.52 105.178 131.956C105.37 132.393 105.654 132.783 106.01 133.1C106.996 133.849 108.226 134.206 109.46 134.1M109.54 108.24C108.015 108.224 106.496 108.446 105.04 108.9C103.726 109.329 102.507 110.008 101.45 110.9C100.411 111.736 99.5732 112.796 99 114C98.4228 115.296 98.1361 116.702 98.16 118.12C98.1516 119.3 98.4114 120.466 98.92 121.53C99.2917 122.276 99.7517 122.974 100.29 123.61C99.4238 124.384 98.6967 125.301 98.14 126.32C97.459 127.624 97.1152 129.079 97.14 130.55C97.0628 132.02 97.3196 133.488 97.8912 134.844C98.4627 136.2 99.3342 137.409 100.44 138.38C102.59 140.21 105.62 141.13 109.44 141.13C111.133 141.155 112.819 140.919 114.44 140.43C115.849 140.004 117.158 139.301 118.29 138.36C119.345 137.444 120.171 136.293 120.7 135C121.271 133.583 121.553 132.067 121.53 130.54C121.553 129.077 121.234 127.629 120.6 126.31C120.11 125.322 119.453 124.426 118.66 123.66C119.178 123.007 119.605 122.287 119.93 121.52C120.362 120.436 120.58 119.277 120.57 118.11C120.594 116.692 120.307 115.286 119.73 113.99C119.18 112.793 118.379 111.729 117.38 110.87C116.351 109.976 115.155 109.296 113.86 108.87C112.445 108.417 110.966 108.194 109.48 108.21L109.54 108.24ZM109.46 120.54C108.571 120.636 107.678 120.394 106.96 119.86C106.734 119.638 106.557 119.371 106.44 119.077C106.323 118.782 106.268 118.467 106.28 118.15C106.274 117.828 106.339 117.509 106.47 117.215C106.602 116.921 106.796 116.66 107.04 116.45C107.755 115.907 108.645 115.647 109.54 115.72C110.4 115.636 111.26 115.887 111.94 116.42C112.169 116.645 112.35 116.915 112.47 117.212C112.59 117.51 112.648 117.829 112.64 118.15C112.661 118.474 112.609 118.798 112.488 119.1C112.367 119.401 112.179 119.671 111.94 119.89C111.214 120.387 110.337 120.617 109.46 120.54ZM109.46 133.35C108.411 133.445 107.364 133.15 106.52 132.52C106.236 132.272 106.011 131.964 105.86 131.618C105.71 131.272 105.638 130.897 105.65 130.52C105.64 130.139 105.717 129.762 105.875 129.415C106.032 129.069 106.267 128.763 106.56 128.52C107.426 127.888 108.491 127.589 109.56 127.68C110.583 127.59 111.604 127.886 112.42 128.51C112.702 128.761 112.927 129.07 113.082 129.414C113.236 129.759 113.316 130.132 113.316 130.51C113.316 130.888 113.236 131.261 113.082 131.606C112.927 131.95 112.702 132.259 112.42 132.51C111.577 133.134 110.535 133.429 109.49 133.34L109.46 133.35Z" fill="url(#paint19_linear_4_715)"/>
<path d="M94.66 110.14H89.89V125.53H94.66V110.14Z" fill="url(#paint20_linear_4_715)" stroke="black" stroke-width="6" stroke-miterlimit="10"/>
</g>
<defs>
<linearGradient id="paint0_linear_4_715" x1="217.43" y1="-2.67002" x2="168.55" y2="274.56" gradientUnits="userSpaceOnUse">
<stop offset="0.25" stop-color="#F6E594"/>
<stop offset="0.38" stop-color="#F5E492"/>
<stop offset="0.43" stop-color="#F2DE8B"/>
<stop offset="0.47" stop-color="#ECD580"/>
<stop offset="0.49" stop-color="#E4C86F"/>
<stop offset="0.5" stop-color="#E2C46A"/>
<stop offset="0.61" stop-color="#C89E3F"/>
<stop offset="0.72" stop-color="#E8D17E"/>
<stop offset="0.76" stop-color="#E5CE7C"/>
<stop offset="0.79" stop-color="#DCC574"/>
<stop offset="0.81" stop-color="#CDB568"/>
<stop offset="0.83" stop-color="#B79F57"/>
<stop offset="0.86" stop-color="#9B8240"/>
<stop offset="0.88" stop-color="#684E18"/>
</linearGradient>
<linearGradient id="paint1_linear_4_715" x1="140.71" y1="-16.2" x2="91.83" y2="261.03" gradientUnits="userSpaceOnUse">
<stop offset="0.25" stop-color="#F6E594"/>
<stop offset="0.38" stop-color="#F5E492"/>
<stop offset="0.43" stop-color="#F2DE8B"/>
<stop offset="0.47" stop-color="#ECD580"/>
<stop offset="0.49" stop-color="#E4C86F"/>
<stop offset="0.5" stop-color="#E2C46A"/>
<stop offset="0.61" stop-color="#C89E3F"/>
<stop offset="0.72" stop-color="#E8D17E"/>
<stop offset="0.76" stop-color="#E5CE7C"/>
<stop offset="0.79" stop-color="#DCC574"/>
<stop offset="0.81" stop-color="#CDB568"/>
<stop offset="0.83" stop-color="#B79F57"/>
<stop offset="0.86" stop-color="#9B8240"/>
<stop offset="0.88" stop-color="#684E18"/>
</linearGradient>
<linearGradient id="paint2_linear_4_715" x1="220.27" y1="-1.94011" x2="171.47" y2="274.84" gradientUnits="userSpaceOnUse">
<stop offset="0.25" stop-color="#F6E594"/>
<stop offset="0.38" stop-color="#F5E492"/>
<stop offset="0.43" stop-color="#F2DE8B"/>
<stop offset="0.47" stop-color="#ECD580"/>
<stop offset="0.49" stop-color="#E4C86F"/>
<stop offset="0.5" stop-color="#E2C46A"/>
<stop offset="0.61" stop-color="#C89E3F"/>
<stop offset="0.72" stop-color="#E8D17E"/>
<stop offset="0.76" stop-color="#E5CE7C"/>
<stop offset="0.79" stop-color="#DCC574"/>
<stop offset="0.81" stop-color="#CDB568"/>
<stop offset="0.83" stop-color="#B79F57"/>
<stop offset="0.86" stop-color="#9B8240"/>
<stop offset="0.88" stop-color="#684E18"/>
</linearGradient>
<linearGradient id="paint3_linear_4_715" x1="140.67" y1="-15.9801" x2="91.86" y2="260.81" gradientUnits="userSpaceOnUse">
<stop offset="0.25" stop-color="#F6E594"/>
<stop offset="0.38" stop-color="#F5E492"/>
<stop offset="0.43" stop-color="#F2DE8B"/>
<stop offset="0.47" stop-color="#ECD580"/>
<stop offset="0.49" stop-color="#E4C86F"/>
<stop offset="0.5" stop-color="#E2C46A"/>
<stop offset="0.61" stop-color="#C89E3F"/>
<stop offset="0.72" stop-color="#E8D17E"/>
<stop offset="0.76" stop-color="#E5CE7C"/>
<stop offset="0.79" stop-color="#DCC574"/>
<stop offset="0.81" stop-color="#CDB568"/>
<stop offset="0.83" stop-color="#B79F57"/>
<stop offset="0.86" stop-color="#9B8240"/>
<stop offset="0.88" stop-color="#684E18"/>
</linearGradient>
<linearGradient id="paint4_linear_4_715" x1="146.14" y1="16.5001" x2="67.15" y2="233.51" gradientUnits="userSpaceOnUse">
<stop stop-color="#F6E594"/>
<stop offset="0.33" stop-color="#F6E492"/>
<stop offset="0.45" stop-color="#F4DF8B"/>
<stop offset="0.53" stop-color="#F2D880"/>
<stop offset="0.6" stop-color="#EFCD6F"/>
<stop offset="0.65" stop-color="#EBC15C"/>
<stop offset="0.7" stop-color="#C89D47"/>
<stop offset="0.82" stop-color="#7A4D18"/>
<stop offset="0.97" stop-color="#C1914C"/>
</linearGradient>
<linearGradient id="paint5_linear_4_715" x1="166.09" y1="34.2" x2="53.02" y2="230.04" gradientUnits="userSpaceOnUse">
<stop stop-color="#FFFFAD"/>
<stop offset="0.26" stop-color="#F6E594"/>
<stop offset="0.34" stop-color="#F5E492"/>
<stop offset="0.37" stop-color="#F2DE8B"/>
<stop offset="0.39" stop-color="#ECD580"/>
<stop offset="0.41" stop-color="#E2C46A"/>
<stop offset="0.51" stop-color="#A68C46"/>
<stop offset="0.66" stop-color="#564217"/>
<stop offset="0.68" stop-color="#75612D"/>
<stop offset="0.73" stop-color="#C7B167"/>
<stop offset="0.75" stop-color="#E8D17E"/>
<stop offset="0.78" stop-color="#E5CE7C"/>
<stop offset="0.81" stop-color="#DDC574"/>
<stop offset="0.83" stop-color="#CFB568"/>
<stop offset="0.85" stop-color="#BB9F56"/>
<stop offset="0.86" stop-color="#A2823F"/>
<stop offset="0.88" stop-color="#825E23"/>
<stop offset="0.9" stop-color="#5B3200"/>
</linearGradient>
<linearGradient id="paint6_linear_4_715" x1="116.21" y1="155.95" x2="116.21" y2="166.49" gradientUnits="userSpaceOnUse">
<stop stop-color="#F6E594"/>
<stop offset="0.21" stop-color="#F5E492"/>
<stop offset="0.29" stop-color="#F2DE8B"/>
<stop offset="0.34" stop-color="#ECD580"/>
<stop offset="0.39" stop-color="#E4C86F"/>
<stop offset="0.4" stop-color="#E2C46A"/>
<stop offset="0.49" stop-color="#BA9D4E"/>
<stop offset="0.69" stop-color="#6A4E17"/>
<stop offset="0.72" stop-color="#6F531B"/>
<stop offset="0.75" stop-color="#7D6227"/>
<stop offset="0.79" stop-color="#957B3A"/>
<stop offset="0.83" stop-color="#B69D55"/>
<stop offset="0.86" stop-color="#E0C977"/>
<stop offset="0.87" stop-color="#E8D17E"/>
<stop offset="0.9" stop-color="#E5CE7C"/>
<stop offset="0.92" stop-color="#DCC574"/>
<stop offset="0.94" stop-color="#CDB568"/>
<stop offset="0.96" stop-color="#B79F57"/>
<stop offset="0.98" stop-color="#9B8240"/>
<stop offset="0.99" stop-color="#785F25"/>
<stop offset="1" stop-color="#684E18"/>
</linearGradient>
<linearGradient id="paint7_linear_4_715" x1="116.34" y1="76.2301" x2="116.34" y2="86.7701" gradientUnits="userSpaceOnUse">
<stop stop-color="#F6E594"/>
<stop offset="0.21" stop-color="#F5E492"/>
<stop offset="0.29" stop-color="#F2DE8B"/>
<stop offset="0.34" stop-color="#ECD580"/>
<stop offset="0.39" stop-color="#E4C86F"/>
<stop offset="0.4" stop-color="#E2C46A"/>
<stop offset="0.49" stop-color="#BA9D4E"/>
<stop offset="0.69" stop-color="#6A4E17"/>
<stop offset="0.72" stop-color="#6F531B"/>
<stop offset="0.75" stop-color="#7D6227"/>
<stop offset="0.79" stop-color="#957B3A"/>
<stop offset="0.83" stop-color="#B69D55"/>
<stop offset="0.86" stop-color="#E0C977"/>
<stop offset="0.87" stop-color="#E8D17E"/>
<stop offset="0.9" stop-color="#E5CE7C"/>
<stop offset="0.92" stop-color="#DCC574"/>
<stop offset="0.94" stop-color="#CDB568"/>
<stop offset="0.96" stop-color="#B79F57"/>
<stop offset="0.98" stop-color="#9B8240"/>
<stop offset="0.99" stop-color="#785F25"/>
<stop offset="1" stop-color="#684E18"/>
</linearGradient>
<linearGradient id="paint8_linear_4_715" x1="77.07" y1="105.91" x2="77.07" y2="158.07" gradientUnits="userSpaceOnUse">
<stop stop-color="#F6E594"/>
<stop offset="0.36" stop-color="#F6E492"/>
<stop offset="0.5" stop-color="#F4DF8B"/>
<stop offset="0.59" stop-color="#F2D880"/>
<stop offset="0.66" stop-color="#EFCD6F"/>
<stop offset="0.72" stop-color="#EBC15C"/>
<stop offset="0.77" stop-color="#C89D47"/>
<stop offset="0.88" stop-color="#7A4D18"/>
<stop offset="0.95" stop-color="#C1914C"/>
<stop offset="0.96" stop-color="#BE8F4A"/>
<stop offset="0.97" stop-color="#B58742"/>
<stop offset="0.98" stop-color="#A57B36"/>
<stop offset="0.99" stop-color="#8F6924"/>
<stop offset="1" stop-color="#624600"/>
</linearGradient>
<linearGradient id="paint9_linear_4_715" x1="140.17" y1="106" x2="140.17" y2="157.94" gradientUnits="userSpaceOnUse">
<stop stop-color="#F6E594"/>
<stop offset="0.36" stop-color="#F6E492"/>
<stop offset="0.5" stop-color="#F4DF8B"/>
<stop offset="0.59" stop-color="#F2D880"/>
<stop offset="0.66" stop-color="#EFCD6F"/>
<stop offset="0.72" stop-color="#EBC15C"/>
<stop offset="0.77" stop-color="#C89D47"/>
<stop offset="0.88" stop-color="#7A4D18"/>
<stop offset="0.95" stop-color="#C1914C"/>
<stop offset="0.96" stop-color="#BE8F4A"/>
<stop offset="0.97" stop-color="#B58742"/>
<stop offset="0.98" stop-color="#A57B36"/>
<stop offset="0.99" stop-color="#8F6924"/>
<stop offset="1" stop-color="#624600"/>
</linearGradient>
<linearGradient id="paint10_linear_4_715" x1="91.3" y1="130.01" x2="91.3" y2="148.43" gradientUnits="userSpaceOnUse">
<stop stop-color="#F6E594"/>
<stop offset="0.36" stop-color="#F6E492"/>
<stop offset="0.5" stop-color="#F4DF8B"/>
<stop offset="0.59" stop-color="#F2D880"/>
<stop offset="0.66" stop-color="#EFCD6F"/>
<stop offset="0.72" stop-color="#EBC15C"/>
<stop offset="0.77" stop-color="#C89D47"/>
<stop offset="0.88" stop-color="#7A4D18"/>
<stop offset="0.95" stop-color="#C1914C"/>
<stop offset="0.96" stop-color="#BE8F4A"/>
<stop offset="0.97" stop-color="#B58742"/>
<stop offset="0.98" stop-color="#A57B36"/>
<stop offset="0.99" stop-color="#8F6924"/>
<stop offset="1" stop-color="#624600"/>
</linearGradient>
<linearGradient id="paint11_linear_4_715" x1="109.32" y1="106.03" x2="109.32" y2="157.24" gradientUnits="userSpaceOnUse">
<stop stop-color="#F6E594"/>
<stop offset="0.36" stop-color="#F6E492"/>
<stop offset="0.5" stop-color="#F4DF8B"/>
<stop offset="0.59" stop-color="#F2D880"/>
<stop offset="0.66" stop-color="#EFCD6F"/>
<stop offset="0.72" stop-color="#EBC15C"/>
<stop offset="0.77" stop-color="#C89D47"/>
<stop offset="0.88" stop-color="#7A4D18"/>
<stop offset="0.95" stop-color="#C1914C"/>
<stop offset="0.96" stop-color="#BE8F4A"/>
<stop offset="0.97" stop-color="#B58742"/>
<stop offset="0.98" stop-color="#A57B36"/>
<stop offset="0.99" stop-color="#8F6924"/>
<stop offset="1" stop-color="#624600"/>
</linearGradient>
<linearGradient id="paint12_linear_4_715" x1="77.05" y1="103.34" x2="77.13" y2="156.61" gradientUnits="userSpaceOnUse">
<stop stop-color="#F6E594"/>
<stop offset="0.17" stop-color="#F6E492"/>
<stop offset="0.24" stop-color="#F4DF8B"/>
<stop offset="0.28" stop-color="#F2D880"/>
<stop offset="0.32" stop-color="#EFCD6F"/>
<stop offset="0.35" stop-color="#EBC15C"/>
<stop offset="0.4" stop-color="#C89D47"/>
<stop offset="0.54" stop-color="#7A4D18"/>
<stop offset="0.66" stop-color="#B68644"/>
<stop offset="0.77" stop-color="#C1914C"/>
<stop offset="0.8" stop-color="#C3944E"/>
<stop offset="0.82" stop-color="#C99D56"/>
<stop offset="0.84" stop-color="#D3AD63"/>
<stop offset="0.86" stop-color="#E2C375"/>
<stop offset="0.88" stop-color="#F5E08C"/>
</linearGradient>
<linearGradient id="paint13_linear_4_715" x1="77.07" y1="108.91" x2="77.07" y2="140.99" gradientUnits="userSpaceOnUse">
<stop stop-color="#FFF7AB"/>
<stop offset="0.41" stop-color="#F6E594"/>
<stop offset="0.57" stop-color="#F6E492"/>
<stop offset="0.62" stop-color="#F4DF8B"/>
<stop offset="0.66" stop-color="#F2D880"/>
<stop offset="0.7" stop-color="#EFCD6F"/>
<stop offset="0.72" stop-color="#EBC15C"/>
<stop offset="0.77" stop-color="#C89D47"/>
<stop offset="0.88" stop-color="#7A4D18"/>
<stop offset="0.91" stop-color="#C1914C"/>
<stop offset="0.92" stop-color="#BE8E4A"/>
<stop offset="0.94" stop-color="#B58643"/>
<stop offset="0.95" stop-color="#A57838"/>
<stop offset="0.96" stop-color="#724A14"/>
<stop offset="0.97" stop-color="#553000"/>
</linearGradient>
<linearGradient id="paint14_linear_4_715" x1="140.14" y1="103.43" x2="140.21" y2="156.5" gradientUnits="userSpaceOnUse">
<stop stop-color="#F6E594"/>
<stop offset="0.17" stop-color="#F6E492"/>
<stop offset="0.24" stop-color="#F4DF8B"/>
<stop offset="0.28" stop-color="#F2D880"/>
<stop offset="0.32" stop-color="#EFCD6F"/>
<stop offset="0.35" stop-color="#EBC15C"/>
<stop offset="0.4" stop-color="#C89D47"/>
<stop offset="0.54" stop-color="#7A4D18"/>
<stop offset="0.66" stop-color="#B68644"/>
<stop offset="0.77" stop-color="#C1914C"/>
<stop offset="0.8" stop-color="#C3944E"/>
<stop offset="0.82" stop-color="#C99D56"/>
<stop offset="0.84" stop-color="#D3AD63"/>
<stop offset="0.86" stop-color="#E2C375"/>
<stop offset="0.88" stop-color="#F5E08C"/>
</linearGradient>
<linearGradient id="paint15_linear_4_715" x1="140.17" y1="109" x2="140.17" y2="140.92" gradientUnits="userSpaceOnUse">
<stop stop-color="#FFF7AB"/>
<stop offset="0.41" stop-color="#F6E594"/>
<stop offset="0.57" stop-color="#F6E492"/>
<stop offset="0.62" stop-color="#F4DF8B"/>
<stop offset="0.66" stop-color="#F2D880"/>
<stop offset="0.7" stop-color="#EFCD6F"/>
<stop offset="0.72" stop-color="#EBC15C"/>
<stop offset="0.77" stop-color="#C89D47"/>
<stop offset="0.88" stop-color="#7A4D18"/>
<stop offset="0.91" stop-color="#C1914C"/>
<stop offset="0.92" stop-color="#BE8E4A"/>
<stop offset="0.94" stop-color="#B58643"/>
<stop offset="0.95" stop-color="#A57838"/>
<stop offset="0.96" stop-color="#724A14"/>
<stop offset="0.97" stop-color="#553000"/>
</linearGradient>
<linearGradient id="paint16_linear_4_715" x1="91.3" y1="131.08" x2="91.3" y2="146.73" gradientUnits="userSpaceOnUse">
<stop stop-color="#F6E594"/>
<stop offset="0.17" stop-color="#F6E492"/>
<stop offset="0.24" stop-color="#F4DF8B"/>
<stop offset="0.28" stop-color="#F2D880"/>
<stop offset="0.32" stop-color="#EFCD6F"/>
<stop offset="0.35" stop-color="#EBC15C"/>
<stop offset="0.4" stop-color="#C89D47"/>
<stop offset="0.54" stop-color="#7A4D18"/>
<stop offset="0.66" stop-color="#B68644"/>
<stop offset="0.77" stop-color="#C1914C"/>
<stop offset="0.8" stop-color="#C3944E"/>
<stop offset="0.82" stop-color="#C99D56"/>
<stop offset="0.84" stop-color="#D3AD63"/>
<stop offset="0.86" stop-color="#E2C375"/>
<stop offset="0.88" stop-color="#F5E08C"/>
</linearGradient>
<linearGradient id="paint17_linear_4_715" x1="91.3" y1="132.26" x2="91.3" y2="141.2" gradientUnits="userSpaceOnUse">
<stop stop-color="#FFF7AB"/>
<stop offset="0.41" stop-color="#F6E594"/>
<stop offset="0.57" stop-color="#F6E492"/>
<stop offset="0.62" stop-color="#F4DF8B"/>
<stop offset="0.66" stop-color="#F2D880"/>
<stop offset="0.7" stop-color="#EFCD6F"/>
<stop offset="0.72" stop-color="#EBC15C"/>
<stop offset="0.77" stop-color="#C89D47"/>
<stop offset="0.88" stop-color="#7A4D18"/>
<stop offset="0.91" stop-color="#C1914C"/>
<stop offset="0.92" stop-color="#BE8E4A"/>
<stop offset="0.94" stop-color="#B58643"/>
<stop offset="0.95" stop-color="#A57838"/>
<stop offset="0.96" stop-color="#724A14"/>
<stop offset="0.97" stop-color="#553000"/>
</linearGradient>
<linearGradient id="paint18_linear_4_715" x1="109.32" y1="109.03" x2="109.32" y2="152.02" gradientUnits="userSpaceOnUse">
<stop stop-color="#F6E594"/>
<stop offset="0.17" stop-color="#F6E492"/>
<stop offset="0.24" stop-color="#F4DF8B"/>
<stop offset="0.28" stop-color="#F2D880"/>
<stop offset="0.32" stop-color="#EFCD6F"/>
<stop offset="0.35" stop-color="#EBC15C"/>
<stop offset="0.4" stop-color="#C89D47"/>
<stop offset="0.54" stop-color="#7A4D18"/>
<stop offset="0.66" stop-color="#B68644"/>
<stop offset="0.77" stop-color="#C1914C"/>
<stop offset="0.8" stop-color="#C3944E"/>
<stop offset="0.82" stop-color="#C99D56"/>
<stop offset="0.84" stop-color="#D3AD63"/>
<stop offset="0.86" stop-color="#E2C375"/>
<stop offset="0.88" stop-color="#F5E08C"/>
</linearGradient>
<linearGradient id="paint19_linear_4_715" x1="109.32" y1="108.28" x2="109.32" y2="141.16" gradientUnits="userSpaceOnUse">
<stop stop-color="#FFF7AB"/>
<stop offset="0.41" stop-color="#F6E594"/>
<stop offset="0.57" stop-color="#F6E492"/>
<stop offset="0.62" stop-color="#F4DF8B"/>
<stop offset="0.66" stop-color="#F2D880"/>
<stop offset="0.7" stop-color="#EFCD6F"/>
<stop offset="0.72" stop-color="#EBC15C"/>
<stop offset="0.77" stop-color="#C89D47"/>
<stop offset="0.88" stop-color="#7A4D18"/>
<stop offset="0.91" stop-color="#C1914C"/>
<stop offset="0.92" stop-color="#BE8E4A"/>
<stop offset="0.94" stop-color="#B58643"/>
<stop offset="0.95" stop-color="#A57838"/>
<stop offset="0.96" stop-color="#724A14"/>
<stop offset="0.97" stop-color="#553000"/>
</linearGradient>
<linearGradient id="paint20_linear_4_715" x1="96.2" y1="111.03" x2="88.34" y2="124.64" gradientUnits="userSpaceOnUse">
<stop stop-color="#F6E594"/>
<stop offset="0.36" stop-color="#F6E492"/>
<stop offset="0.5" stop-color="#F4DF8B"/>
<stop offset="0.59" stop-color="#F2D880"/>
<stop offset="0.66" stop-color="#EFCD6F"/>
<stop offset="0.72" stop-color="#EBC15C"/>
<stop offset="0.77" stop-color="#C89D47"/>
<stop offset="0.88" stop-color="#7A4D18"/>
<stop offset="0.95" stop-color="#C1914C"/>
<stop offset="0.96" stop-color="#BE8F4A"/>
<stop offset="0.97" stop-color="#B58742"/>
<stop offset="0.98" stop-color="#A57B36"/>
<stop offset="0.99" stop-color="#8F6924"/>
<stop offset="1" stop-color="#624600"/>
</linearGradient>
</defs>
</svg>
