<svg width="233" height="232" viewBox="0 0 233 232" fill="none" xmlns="http://www.w3.org/2000/svg">
<mask id="mask0_4_631" style="mask-type:luminance" maskUnits="userSpaceOnUse" x="0" y="0" width="233" height="232">
<path d="M232.57 0H0V231.49H232.57V0Z" fill="white"/>
</mask>
<g mask="url(#mask0_4_631)">
<path d="M115.37 24.78L145.65 86.13L213.35 95.97L164.36 143.72L175.92 211.15L115.37 179.31L54.82 211.15L66.38 143.72L17.39 95.97L85.09 86.13L115.37 24.78Z" fill="black"/>
<mask id="mask1_4_631" style="mask-type:luminance" maskUnits="userSpaceOnUse" x="18" y="24" width="197" height="188">
<path d="M116.37 24.78L146.65 86.13L214.35 95.97L165.36 143.72L176.92 211.15L116.37 179.31L55.82 211.15L67.38 143.72L18.39 95.97L86.09 86.13L116.37 24.78Z" fill="white"/>
</mask>
<g mask="url(#mask1_4_631)">
<path d="M115.69 264.47V126.05L72.92 257.7L71.82 257.34L114.6 125.69L33.23 237.68L32.3 237L113.67 125.02L1.68004 206.38L1.00004 205.45L112.99 124.08L-18.66 166.86L-19.02 165.77L112.64 122.99H-25.79V121.84H112.64L-19.02 79.06L-18.66 77.97L112.99 120.75L1.00004 39.38L1.68004 38.45L113.67 119.82L32.3 7.82998L33.23 7.14998L114.6 119.14L71.82 -12.51L72.92 -12.86L115.69 118.79V-19.64H116.84V118.79L159.62 -12.86L160.71 -12.51L117.94 119.14L199.3 7.14998L200.23 7.82998L118.87 119.82L230.85 38.45L231.53 39.38L119.54 120.75L251.19 77.97L251.55 79.06L119.9 121.84H258.32V122.99H119.9L251.55 165.77L251.19 166.86L119.54 124.08L231.53 205.45L230.85 206.38L118.87 125.02L200.23 237L199.3 237.68L117.94 125.69L160.71 257.34L159.62 257.7L116.84 126.05V264.47H115.69Z" fill="url(#paint0_linear_4_631)"/>
<path d="M258.12 122.04H118.63L251.3 78.94L251.06 78.22L118.4 121.33L231.25 39.34L230.81 38.73L117.96 120.72L199.95 7.87L199.34 7.43L117.36 120.28L160.46 -12.38L159.75 -12.61L116.64 120.05V-19.44H115.89V120.05L72.79 -12.61L72.07 -12.38L115.18 120.28L33.19 7.43L32.58 7.87L114.57 120.72L1.72006 38.73L1.28008 39.34L114.13 121.33L-18.53 78.22L-18.76 78.94L113.9 122.04H-25.59V122.79H113.9L-18.76 165.9L-18.53 166.61L114.13 123.5L1.28008 205.49L1.72006 206.1L114.57 124.11L32.58 236.96L33.19 237.4L115.18 124.55L72.07 257.21L72.79 257.44L115.89 124.78V264.27H116.64V124.78L159.75 257.44L160.46 257.21L117.36 124.55L199.34 237.4L199.95 236.96L117.96 124.11L230.81 206.1L231.25 205.49L118.4 123.5L251.06 166.61L251.3 165.9L118.63 122.79H258.12V122.04Z" fill="url(#paint1_linear_4_631)"/>
</g>
<path d="M185.47 225.46L117.18 187.89C116.884 187.727 116.552 187.642 116.215 187.642C115.878 187.642 115.546 187.727 115.25 187.89L47 225.45C46.6758 225.642 46.304 225.739 45.9273 225.729C45.5507 225.719 45.1845 225.603 44.871 225.394C44.5574 225.185 44.3094 224.891 44.1553 224.547C44.0012 224.203 43.9473 223.823 44 223.45L55.16 148.45C55.2051 148.143 55.178 147.829 55.0808 147.534C54.9836 147.239 54.8189 146.97 54.6 146.75L1.47998 93.54C1.22288 93.2856 1.03956 92.9663 0.949542 92.616C0.859522 92.2658 0.866167 91.8976 0.968772 91.5508C1.07138 91.204 1.2661 90.8915 1.53221 90.6466C1.79833 90.4017 2.12587 90.2335 2.47998 90.16L75.48 75.39C75.7641 75.3312 76.032 75.2113 76.2651 75.0386C76.4982 74.8659 76.6909 74.6446 76.83 74.39L114.55 6.79999C114.721 6.48249 114.975 6.21725 115.285 6.0324C115.595 5.84754 115.949 5.74994 116.31 5.74994C116.671 5.74994 117.025 5.84754 117.335 6.0324C117.645 6.21725 117.899 6.48249 118.07 6.79999L154.65 75.28C154.794 75.5404 154.995 75.7652 155.237 75.9382C155.479 76.1112 155.757 76.228 156.05 76.28L230 90C230.36 90.0652 230.696 90.228 230.97 90.4707C231.244 90.7134 231.446 91.0266 231.554 91.3763C231.662 91.7259 231.673 92.0986 231.584 92.4537C231.495 92.8087 231.31 93.1326 231.05 93.39L177.55 146.61C177.328 146.833 177.162 147.104 177.064 147.403C176.967 147.702 176.942 148.019 176.99 148.33L188.37 223.33C188.438 223.699 188.4 224.08 188.262 224.429C188.123 224.778 187.889 225.081 187.587 225.303C187.284 225.525 186.925 225.658 186.551 225.685C186.177 225.713 185.802 225.635 185.47 225.46ZM27.81 101.46L68.46 142.08C68.6783 142.304 68.841 142.577 68.9348 142.876C69.0286 143.174 69.0509 143.491 69 143.8L60.74 199.36C60.6954 199.725 60.7521 200.094 60.9039 200.429C61.0556 200.763 61.2966 201.05 61.6003 201.256C61.904 201.463 62.2587 201.582 62.6256 201.6C62.9924 201.618 63.3572 201.535 63.68 201.36L115.23 173C115.526 172.837 115.858 172.752 116.195 172.752C116.532 172.752 116.864 172.837 117.16 173L168.65 201.33C168.973 201.505 169.338 201.588 169.704 201.57C170.071 201.552 170.426 201.433 170.73 201.226C171.033 201.02 171.274 200.733 171.426 200.399C171.578 200.064 171.635 199.695 171.59 199.33L163.17 143.8C163.123 143.491 163.15 143.175 163.247 142.878C163.344 142.581 163.51 142.311 163.73 142.09L204.33 101.69C204.587 101.436 204.77 101.116 204.86 100.766C204.95 100.416 204.944 100.048 204.841 99.7008C204.739 99.354 204.544 99.0415 204.278 98.7966C204.012 98.5517 203.684 98.3835 203.33 98.31L147.53 88C147.237 87.948 146.959 87.8312 146.717 87.6582C146.475 87.4852 146.274 87.2604 146.13 87L117.81 34C117.638 33.685 117.384 33.4221 117.075 33.2389C116.766 33.0558 116.414 32.9592 116.055 32.9592C115.696 32.9592 115.344 33.0558 115.035 33.2389C114.726 33.4221 114.472 33.685 114.3 34L85.3 86C85.1609 86.2546 84.9682 86.4759 84.7351 86.6486C84.502 86.8213 84.2341 86.9412 83.95 87L28.83 98.1C28.4762 98.1719 28.1486 98.3382 27.8817 98.5812C27.6148 98.8243 27.4187 99.135 27.3141 99.4805C27.2095 99.826 27.2004 100.193 27.2877 100.544C27.375 100.894 27.5555 101.214 27.81 101.47V101.46Z" fill="url(#paint2_linear_4_631)"/>
<mask id="mask2_4_631" style="mask-type:luminance" maskUnits="userSpaceOnUse" x="0" y="5" width="232" height="221">
<path d="M185.47 225.46L117.18 187.89C116.884 187.727 116.552 187.642 116.215 187.642C115.878 187.642 115.546 187.727 115.25 187.89L47 225.45C46.6758 225.642 46.304 225.739 45.9273 225.729C45.5507 225.719 45.1845 225.603 44.871 225.394C44.5574 225.185 44.3094 224.891 44.1553 224.547C44.0012 224.203 43.9473 223.823 44 223.45L55.16 148.45C55.2051 148.143 55.178 147.829 55.0808 147.534C54.9836 147.239 54.8189 146.97 54.6 146.75L1.47998 93.54C1.22288 93.2856 1.03956 92.9663 0.949542 92.616C0.859522 92.2658 0.866167 91.8976 0.968772 91.5508C1.07138 91.204 1.2661 90.8915 1.53221 90.6466C1.79833 90.4017 2.12587 90.2335 2.47998 90.16L75.48 75.39C75.7641 75.3312 76.032 75.2113 76.2651 75.0386C76.4982 74.8659 76.6909 74.6446 76.83 74.39L114.55 6.79999C114.721 6.48249 114.975 6.21725 115.285 6.0324C115.595 5.84754 115.949 5.74994 116.31 5.74994C116.671 5.74994 117.025 5.84754 117.335 6.0324C117.645 6.21725 117.899 6.48249 118.07 6.79999L154.65 75.28C154.794 75.5404 154.995 75.7652 155.237 75.9382C155.479 76.1112 155.757 76.228 156.05 76.28L230 90C230.36 90.0652 230.696 90.228 230.97 90.4707C231.244 90.7134 231.446 91.0266 231.554 91.3763C231.662 91.7259 231.673 92.0986 231.584 92.4537C231.495 92.8087 231.31 93.1326 231.05 93.39L177.55 146.61C177.328 146.833 177.162 147.104 177.064 147.403C176.967 147.702 176.942 148.019 176.99 148.33L188.37 223.33C188.438 223.699 188.4 224.08 188.262 224.429C188.123 224.778 187.889 225.081 187.587 225.303C187.284 225.525 186.925 225.658 186.551 225.685C186.177 225.713 185.802 225.635 185.47 225.46ZM27.81 101.46L68.46 142.08C68.6783 142.304 68.841 142.577 68.9348 142.876C69.0286 143.174 69.0509 143.491 69 143.8L60.74 199.36C60.6954 199.725 60.7521 200.094 60.9039 200.429C61.0556 200.763 61.2966 201.05 61.6003 201.256C61.904 201.463 62.2587 201.582 62.6256 201.6C62.9924 201.618 63.3572 201.535 63.68 201.36L115.23 173C115.526 172.837 115.858 172.752 116.195 172.752C116.532 172.752 116.864 172.837 117.16 173L168.65 201.33C168.973 201.505 169.338 201.588 169.704 201.57C170.071 201.552 170.426 201.433 170.73 201.226C171.033 201.02 171.274 200.733 171.426 200.399C171.578 200.064 171.635 199.695 171.59 199.33L163.17 143.8C163.123 143.491 163.15 143.175 163.247 142.878C163.344 142.581 163.51 142.311 163.73 142.09L204.33 101.69C204.587 101.436 204.77 101.116 204.86 100.766C204.95 100.416 204.944 100.048 204.841 99.7008C204.739 99.354 204.544 99.0415 204.278 98.7966C204.012 98.5517 203.684 98.3835 203.33 98.31L147.53 88C147.237 87.948 146.959 87.8312 146.717 87.6582C146.475 87.4852 146.274 87.2604 146.13 87L117.81 34C117.638 33.685 117.384 33.4221 117.075 33.2389C116.766 33.0558 116.414 32.9592 116.055 32.9592C115.696 32.9592 115.344 33.0558 115.035 33.2389C114.726 33.4221 114.472 33.685 114.3 34L85.3 86C85.1609 86.2546 84.9682 86.4759 84.7351 86.6486C84.502 86.8213 84.2341 86.9412 83.95 87L28.83 98.1C28.4762 98.1719 28.1486 98.3382 27.8817 98.5812C27.6148 98.8243 27.4187 99.135 27.3141 99.4805C27.2095 99.826 27.2004 100.193 27.2877 100.544C27.375 100.894 27.5555 101.214 27.81 101.47V101.46Z" fill="white"/>
</mask>
<g mask="url(#mask2_4_631)">
<path d="M116.64 -19.26H115.89V264.45H116.64V-19.26Z" fill="#C89E3F"/>
<path d="M109.212 -19.0881L108.463 -19.0488L123.311 264.272L124.06 264.233L109.212 -19.0881Z" fill="#C89E3F"/>
<path d="M101.808 -18.5267L101.062 -18.4483L130.718 263.708L131.464 263.629L101.808 -18.5267Z" fill="#C89E3F"/>
<path d="M94.441 -17.5694L93.7003 -17.4521L138.082 262.765L138.823 262.648L94.441 -17.5694Z" fill="#C89E3F"/>
<path d="M87.1367 -16.2399L86.4031 -16.084L145.39 261.426L146.123 261.27L87.1367 -16.2399Z" fill="#C89E3F"/>
<path d="M79.9107 -14.5224L79.1863 -14.3283L152.616 259.715L153.34 259.52L79.9107 -14.5224Z" fill="#C89E3F"/>
<path d="M72.7895 -12.4311L72.0762 -12.1993L159.747 257.625L160.461 257.393L72.7895 -12.4311Z" fill="#C89E3F"/>
<path d="M65.7806 -9.97083L65.0804 -9.70205L166.753 255.164L167.453 254.895L65.7806 -9.97083Z" fill="#C89E3F"/>
<path d="M58.9121 -7.14667L58.227 -6.84162L173.622 252.34L174.307 252.035L58.9121 -7.14667Z" fill="#C89E3F"/>
<path d="M52.1931 -3.96423L51.5248 -3.62374L180.326 249.164L180.995 248.823L52.1931 -3.96423Z" fill="#C89E3F"/>
<path d="M46.1267 -0.516235L45.4742 -0.141235L187.329 246.687L187.982 246.312L46.1267 -0.516235Z" fill="#C89E3F"/>
<path d="M39.3227 3.42047L38.6937 3.82895L193.213 241.768L193.842 241.36L39.3227 3.42047Z" fill="#C89E3F"/>
<path d="M33.183 7.60907L32.5762 8.04991L199.337 237.576L199.944 237.135L33.183 7.60907Z" fill="#C89E3F"/>
<path d="M27.2856 12.1182L26.7027 12.5902L205.247 233.074L205.83 232.602L27.2856 12.1182Z" fill="#C89E3F"/>
<path d="M21.6229 16.9296L21.0656 17.4315L210.905 228.269L211.462 227.767L21.6229 16.9296Z" fill="#C89E3F"/>
<path d="M16.218 22.0242L15.6877 22.5545L216.301 223.168L216.831 222.637L16.218 22.0242Z" fill="#C89E3F"/>
<path d="M11.0944 27.4021L10.5925 27.9595L221.43 217.799L221.932 217.241L11.0944 27.4021Z" fill="#C89E3F"/>
<path d="M6.25605 33.033L5.78406 33.6158L226.268 212.16L226.74 211.577L6.25605 33.033Z" fill="#C89E3F"/>
<path d="M1.71757 38.9155L1.27673 39.5223L230.803 206.283L231.244 205.676L1.71757 38.9155Z" fill="#C89E3F"/>
<path d="M-2.50613 45.0277L-2.91461 45.6567L235.025 200.176L235.433 199.547L-2.50613 45.0277Z" fill="#C89E3F"/>
<path d="M-6.39966 51.3468L-6.77466 51.9963L238.925 193.851L239.3 193.202L-6.39966 51.3468Z" fill="#C89E3F"/>
<path d="M-9.95737 57.8591L-10.2979 58.5274L242.49 187.329L242.83 186.661L-9.95737 57.8591Z" fill="#C89E3F"/>
<path d="M-13.1732 64.5603L-13.4782 65.2455L245.704 180.641L246.009 179.956L-13.1732 64.5603Z" fill="#C89E3F"/>
<path d="M-16.0308 71.415L-16.2995 72.1152L248.567 173.788L248.835 173.088L-16.0308 71.415Z" fill="#C89E3F"/>
<path d="M251.06 166.79L-18.76 79.12L-18.53 78.41L251.3 166.08L251.06 166.79Z" fill="#C89E3F"/>
<path d="M253.19 159.68L-20.85 86.25L-20.66 85.52L253.39 158.95L253.19 159.68Z" fill="#C89E3F"/>
<path d="M-22.4183 92.7345L-22.5743 93.4681L254.936 152.455L255.092 151.721L-22.4183 92.7345Z" fill="#C89E3F"/>
<path d="M-23.7864 100.033L-23.9037 100.774L256.313 145.156L256.431 144.415L-23.7864 100.033Z" fill="#C89E3F"/>
<path d="M-24.7723 107.396L-24.8507 108.142L257.305 137.797L257.384 137.052L-24.7723 107.396Z" fill="#C89E3F"/>
<path d="M-25.3793 114.802L-25.4185 115.551L257.903 130.399L257.942 129.65L-25.3793 114.802Z" fill="#C89E3F"/>
<path d="M258.12 122.22H-25.59V122.97H258.12V122.22Z" fill="#C89E3F"/>
<path d="M257.914 114.81L-25.41 129.608L-25.3709 130.357L257.953 115.559L257.914 114.81Z" fill="#C89E3F"/>
<path d="M257.308 107.444L-24.8577 137.001L-24.7796 137.747L257.387 108.19L257.308 107.444Z" fill="#C89E3F"/>
<path d="M256.313 100.092L-23.9191 144.376L-23.802 145.117L256.43 100.833L256.313 100.092Z" fill="#C89E3F"/>
<path d="M254.935 92.6575L-22.5446 151.789L-22.3882 152.523L255.091 93.391L254.935 92.6575Z" fill="#C89E3F"/>
<path d="M-20.66 159.68L-20.85 158.95L253.19 85.52L253.39 86.25L-20.66 159.68Z" fill="#C89E3F"/>
<path d="M-18.53 166.79L-18.76 166.08L251.06 78.41L251.3 79.12L-18.53 166.79Z" fill="#C89E3F"/>
<path d="M248.514 71.3016L-16.2631 173.205L-15.9937 173.905L248.784 72.0016L248.514 71.3016Z" fill="#C89E3F"/>
<path d="M245.741 64.656L-13.5215 179.87L-13.2169 180.556L246.046 65.3414L245.741 64.656Z" fill="#C89E3F"/>
<path d="M242.528 57.9143L-10.3273 186.584L-9.98716 187.252L242.868 58.5827L242.528 57.9143Z" fill="#C89E3F"/>
<path d="M238.918 51.3556L-6.78162 193.211L-6.40662 193.86L239.293 52.0052L238.918 51.3556Z" fill="#C89E3F"/>
<path d="M235.05 45.0295L-2.91614 199.508L-2.50777 200.137L235.458 45.6586L235.05 45.0295Z" fill="#C89E3F"/>
<path d="M230.736 38.814L1.35571 205.775L1.79708 206.381L231.178 39.4204L230.736 38.814Z" fill="#C89E3F"/>
<path d="M226.217 32.9873L5.82648 211.647L6.29877 212.23L226.689 33.5699L226.217 32.9873Z" fill="#C89E3F"/>
<path d="M221.446 27.4289L10.5752 217.231L11.0769 217.789L221.948 27.9864L221.446 27.4289Z" fill="#C89E3F"/>
<path d="M216.217 21.9495L15.7789 222.738L16.3097 223.268L216.748 22.4794L216.217 21.9495Z" fill="#C89E3F"/>
<path d="M210.98 16.9846L20.9937 227.69L21.5507 228.192L211.537 17.4868L210.98 16.9846Z" fill="#C89E3F"/>
<path d="M205.286 12.1485L26.6647 232.57L27.2474 233.042L205.869 12.6207L205.286 12.1485Z" fill="#C89E3F"/>
<path d="M199.237 7.55701L32.6772 237.229L33.2844 237.669L199.845 7.99732L199.237 7.55701Z" fill="#C89E3F"/>
<path d="M193.188 3.42572L38.7103 241.392L39.3394 241.8L193.817 3.83409L193.188 3.42572Z" fill="#C89E3F"/>
<path d="M186.801 -0.471436L45.0742 245.303L45.7239 245.678L187.45 -0.0967754L186.801 -0.471436Z" fill="#C89E3F"/>
<path d="M180.394 -3.94147L51.4602 248.779L52.1283 249.119L181.062 -3.60063L180.394 -3.94147Z" fill="#C89E3F"/>
<path d="M173.53 -7.19421L58.316 252.068L59.0014 252.373L174.216 -6.88963L173.53 -7.19421Z" fill="#C89E3F"/>
<path d="M166.695 -9.99817L65.1152 254.903L65.8155 255.172L167.396 -9.72964L166.695 -9.99817Z" fill="#C89E3F"/>
<path d="M159.725 -12.4228L72.1012 257.417L72.8145 257.648L160.439 -12.1912L159.725 -12.4228Z" fill="#C89E3F"/>
<path d="M152.64 -14.5196L79.1624 259.51L79.8868 259.705L153.364 -14.3254L152.64 -14.5196Z" fill="#C89E3F"/>
<path d="M145.415 -16.2283L86.3799 261.272L87.1135 261.428L146.149 -16.0722L145.415 -16.2283Z" fill="#C89E3F"/>
<path d="M139.297 -17.7236L93.9034 263.149L94.6459 263.269L140.039 -17.6036L139.297 -17.7236Z" fill="#C89E3F"/>
<path d="M130.676 -18.5223L101.119 263.644L101.865 263.722L131.422 -18.4442L130.676 -18.5223Z" fill="#C89E3F"/>
<path d="M123.288 -19.0834L108.489 264.24L109.238 264.279L124.037 -19.0443L123.288 -19.0834Z" fill="#C89E3F"/>
</g>
<path d="M116.27 85.54C118.904 85.54 121.04 83.4044 121.04 80.77C121.04 78.1356 118.904 76 116.27 76C113.636 76 111.5 78.1356 111.5 80.77C111.5 83.4044 113.636 85.54 116.27 85.54Z" fill="black" stroke="url(#paint3_linear_4_631)" stroke-miterlimit="10"/>
<path d="M116.3 6.76998C116.481 6.77046 116.658 6.82001 116.813 6.91334C116.968 7.00668 117.095 7.1403 117.18 7.29998L153.76 75.78C153.972 76.178 154.271 76.5231 154.634 76.7897C154.998 77.0564 155.417 77.2376 155.86 77.32L229.86 91.03C230.038 91.0631 230.203 91.1438 230.339 91.2636C230.475 91.3833 230.575 91.5376 230.63 91.71C230.683 91.8837 230.688 92.0685 230.644 92.2447C230.6 92.4209 230.509 92.5817 230.38 92.71L176.89 145.93C176.555 146.263 176.304 146.67 176.156 147.118C176.009 147.567 175.969 148.043 176.04 148.51L187.42 223.51C187.443 223.651 187.435 223.796 187.397 223.934C187.359 224.072 187.292 224.2 187.2 224.31C187.105 224.421 186.987 224.51 186.854 224.57C186.721 224.631 186.576 224.661 186.43 224.66C186.263 224.658 186.098 224.617 185.95 224.54L117.66 187C117.217 186.757 116.72 186.629 116.215 186.629C115.71 186.629 115.213 186.757 114.77 187L46.5 224.57C46.3551 224.657 46.1889 224.702 46.02 224.7C45.8747 224.699 45.7315 224.666 45.6003 224.604C45.469 224.542 45.3529 224.452 45.26 224.34C45.1678 224.232 45.0996 224.106 45.06 223.97C45.0203 223.834 45.0101 223.69 45.03 223.55L56.19 148.55C56.258 148.087 56.2165 147.614 56.0689 147.169C55.9213 146.725 55.6717 146.321 55.34 145.99L2.18997 92.83C2.0597 92.7028 1.96663 92.5424 1.92081 92.3662C1.87499 92.19 1.87816 92.0046 1.92997 91.83C1.98092 91.6552 2.07863 91.4976 2.21256 91.3742C2.34649 91.2509 2.51156 91.1664 2.68997 91.13L75.69 76.36C76.1098 76.2707 76.5056 76.0924 76.8506 75.8371C77.1957 75.5818 77.4819 75.2554 77.69 74.88L115.43 7.27998C115.517 7.12551 115.643 6.99689 115.796 6.90728C115.949 6.81767 116.123 6.77029 116.3 6.76998ZM62.74 202.66C63.2468 202.661 63.7457 202.534 64.19 202.29L115.73 173.93C115.882 173.842 116.054 173.796 116.23 173.796C116.406 173.796 116.578 173.842 116.73 173.93L168.22 202.26C168.661 202.502 169.157 202.629 169.66 202.63C170.089 202.636 170.515 202.55 170.909 202.378C171.302 202.205 171.654 201.95 171.94 201.63C172.221 201.303 172.427 200.919 172.547 200.505C172.666 200.091 172.694 199.656 172.63 199.23L164.2 143.7C164.177 143.544 164.191 143.385 164.242 143.235C164.292 143.086 164.377 142.95 164.49 142.84L205.08 102.45C205.466 102.064 205.74 101.579 205.871 101.049C206.002 100.519 205.986 99.9632 205.824 99.4415C205.663 98.9197 205.362 98.452 204.954 98.0887C204.546 97.7255 204.047 97.4804 203.51 97.38L147.71 87C147.562 86.9718 147.422 86.9104 147.3 86.8203C147.179 86.7303 147.08 86.6139 147.01 86.48L118.7 33.48C118.444 32.9995 118.062 32.5976 117.595 32.3175C117.129 32.0374 116.594 31.8896 116.05 31.89C115.516 31.8901 114.991 32.033 114.531 32.3037C114.07 32.5744 113.69 32.9633 113.43 33.43L84.38 85.43C84.3099 85.5549 84.2138 85.6633 84.0982 85.7478C83.9826 85.8323 83.8502 85.8911 83.71 85.92L28.63 97.12C28.0984 97.2273 27.6058 97.4766 27.2046 97.8416C26.8035 98.2065 26.5087 98.6733 26.3517 99.1924C26.1948 99.7115 26.1815 100.263 26.3132 100.79C26.445 101.316 26.7169 101.796 27.1 102.18L67.75 142.8C67.8595 142.91 67.9418 143.044 67.9904 143.192C68.039 143.339 68.0525 143.496 68.03 143.65L59.77 199.22C59.7073 199.645 59.7365 200.078 59.8556 200.49C59.9746 200.902 60.1807 201.284 60.46 201.61C60.7463 201.93 61.098 202.185 61.4913 202.358C61.8847 202.53 62.3105 202.616 62.74 202.61M116.3 5.76998C115.946 5.76681 115.597 5.85772 115.29 6.03341C114.982 6.20911 114.727 6.46329 114.55 6.76998L76.82 74.4C76.6809 74.6546 76.4882 74.8759 76.2551 75.0486C76.0219 75.2213 75.7541 75.3412 75.47 75.4L2.46997 90.17C2.11586 90.2435 1.78832 90.4117 1.5222 90.6566C1.25609 90.9015 1.06137 91.214 0.958762 91.5608C0.856157 91.9076 0.849512 92.2758 0.939532 92.626C1.02955 92.9763 1.21287 93.2956 1.46997 93.55L54.63 146.67C54.8489 146.89 55.0135 147.159 55.1108 147.454C55.208 147.749 55.2351 148.063 55.19 148.37L44 223.4C43.9565 223.687 43.9758 223.979 44.0566 224.258C44.1375 224.536 44.2779 224.794 44.4681 225.012C44.6584 225.231 44.8939 225.406 45.1584 225.525C45.4229 225.644 45.7101 225.703 46 225.7C46.3491 225.703 46.6932 225.617 47 225.45L115.26 187.89C115.556 187.727 115.888 187.642 116.225 187.642C116.562 187.642 116.894 187.727 117.19 187.89L185.48 225.46C185.784 225.633 186.13 225.72 186.48 225.71C186.77 225.713 187.057 225.654 187.322 225.535C187.586 225.416 187.822 225.241 188.012 225.022C188.202 224.804 188.342 224.546 188.423 224.268C188.504 223.989 188.523 223.697 188.48 223.41L177.1 148.41C177.052 148.099 177.077 147.782 177.174 147.483C177.272 147.184 177.438 146.913 177.66 146.69L231.16 93.47C231.447 93.209 231.651 92.8704 231.749 92.4953C231.846 92.1202 231.833 91.7248 231.71 91.3572C231.587 90.9896 231.36 90.6656 231.057 90.4246C230.753 90.1837 230.386 90.0362 230 90L156 76.3C155.707 76.248 155.429 76.1312 155.187 75.9582C154.945 75.7852 154.744 75.5604 154.6 75.3L118.07 6.82998C117.899 6.50912 117.644 6.2409 117.332 6.05413C117.02 5.86737 116.663 5.76913 116.3 5.76998ZM62.74 201.66C62.4501 201.663 62.1629 201.604 61.8984 201.485C61.6339 201.366 61.3984 201.191 61.2081 200.972C61.0179 200.754 60.8775 200.496 60.7966 200.218C60.7158 199.939 60.6965 199.647 60.74 199.36L69 143.8C69.0467 143.491 69.0204 143.175 68.9231 142.878C68.8259 142.582 68.6604 142.311 68.44 142.09L27.81 101.47C27.5556 101.215 27.3746 100.897 27.2862 100.548C27.1978 100.199 27.2051 99.8326 27.3075 99.4875C27.4099 99.1425 27.6035 98.8314 27.868 98.5872C28.1324 98.343 28.4579 98.1747 28.81 98.1L83.9 86.94C84.1841 86.8812 84.4519 86.7613 84.6851 86.5886C84.9182 86.4159 85.1109 86.1946 85.25 85.94L114.3 33.94C114.472 33.625 114.726 33.3621 115.035 33.1789C115.344 32.9958 115.696 32.8992 116.055 32.8992C116.414 32.8992 116.766 32.9958 117.075 33.1789C117.384 33.3621 117.638 33.625 117.81 33.94L146.13 86.94C146.274 87.2004 146.475 87.4252 146.717 87.5982C146.959 87.7712 147.237 87.888 147.53 87.94L203.3 98.31C203.654 98.3835 203.982 98.5517 204.248 98.7966C204.514 99.0415 204.709 99.354 204.811 99.7008C204.914 100.048 204.92 100.416 204.83 100.766C204.74 101.116 204.557 101.436 204.3 101.69L163.7 142.09C163.48 142.311 163.314 142.582 163.217 142.878C163.12 143.175 163.093 143.491 163.14 143.8L171.56 199.33C171.605 199.695 171.548 200.064 171.396 200.399C171.244 200.733 171.003 201.02 170.7 201.226C170.396 201.433 170.041 201.552 169.674 201.57C169.308 201.588 168.943 201.505 168.62 201.33L117.13 173C116.834 172.837 116.502 172.752 116.165 172.752C115.828 172.752 115.496 172.837 115.2 173L63.7 201.41C63.3942 201.579 63.0494 201.665 62.7 201.66H62.74Z" fill="url(#paint4_linear_4_631)"/>
<path d="M135.09 148.12C133.872 148.117 132.704 147.632 131.844 146.769C130.983 145.907 130.5 144.738 130.5 143.52V132.74L129.76 133.74C129.333 134.314 128.778 134.782 128.14 135.104C127.501 135.427 126.796 135.597 126.08 135.6C125.38 135.602 124.689 135.443 124.061 135.134C123.433 134.825 122.885 134.376 122.46 133.82L121.35 132.39V143.52C121.351 144.123 121.234 144.72 121.004 145.277C120.775 145.835 120.438 146.341 120.013 146.769C119.587 147.196 119.082 147.535 118.526 147.767C117.969 147.999 117.373 148.119 116.77 148.12H108C107.197 148.132 106.406 147.933 105.704 147.544C105.002 147.154 104.414 146.588 104 145.9C103.556 146.581 102.95 147.14 102.236 147.528C101.522 147.915 100.722 148.119 99.91 148.12H92.26C90.9631 148.12 89.7193 147.605 88.8022 146.688C87.8852 145.771 87.37 144.527 87.37 143.23V123.16H84C82.7039 123.157 81.4616 122.641 80.5452 121.725C79.6287 120.808 79.1126 119.566 79.11 118.27V114.27C79.1139 113.129 79.5155 112.026 80.2457 111.15C80.9759 110.274 81.9888 109.679 83.11 109.47C84.6202 109.234 86.049 108.63 87.27 107.71C88.1618 106.891 88.768 105.808 89 104.62C89.2581 103.558 89.8659 102.614 90.7256 101.939C91.5854 101.264 92.6471 100.898 93.74 100.9H99.93C100.744 100.901 101.544 101.106 102.258 101.495C102.973 101.885 103.578 102.447 104.02 103.13C104.431 102.443 105.014 101.875 105.713 101.484C106.411 101.093 107.2 100.891 108 100.9H116.74C117.466 100.901 118.182 101.073 118.828 101.403C119.475 101.734 120.034 102.212 120.46 102.8L126.12 110.62L131.46 102.88C131.879 102.266 132.442 101.764 133.098 101.415C133.755 101.067 134.487 100.883 135.23 100.88H143.96C145.178 100.883 146.346 101.368 147.206 102.231C148.067 103.093 148.55 104.262 148.55 105.48V143.48C148.55 144.698 148.067 145.867 147.206 146.729C146.346 147.592 145.178 148.077 143.96 148.08L135.09 148.12Z" fill="url(#paint5_linear_4_631)"/>
<path d="M143.91 104.4C144.2 104.403 144.477 104.52 144.681 104.726C144.885 104.932 145 105.21 145 105.5V143.5C145.001 143.644 144.974 143.787 144.92 143.92C144.866 144.054 144.786 144.175 144.684 144.277C144.583 144.379 144.462 144.461 144.329 144.516C144.197 144.571 144.054 144.6 143.91 144.6H135.09C134.946 144.6 134.803 144.571 134.671 144.516C134.538 144.461 134.417 144.379 134.316 144.277C134.214 144.175 134.134 144.054 134.08 143.92C134.026 143.787 133.999 143.644 134 143.5V125.44C134.003 125.295 133.976 125.151 133.923 125.017C133.869 124.882 133.789 124.76 133.688 124.656C133.586 124.553 133.465 124.471 133.332 124.415C133.198 124.359 133.055 124.33 132.91 124.33C132.742 124.331 132.577 124.371 132.427 124.447C132.278 124.524 132.149 124.634 132.05 124.77L126.95 131.66C126.848 131.793 126.717 131.9 126.567 131.974C126.417 132.048 126.252 132.087 126.085 132.087C125.918 132.087 125.753 132.048 125.603 131.974C125.453 131.9 125.322 131.793 125.22 131.66L119.79 124.66C119.695 124.527 119.569 124.418 119.422 124.345C119.276 124.272 119.114 124.236 118.95 124.24C118.805 124.239 118.662 124.266 118.527 124.321C118.393 124.376 118.272 124.457 118.169 124.559C118.067 124.662 117.986 124.783 117.931 124.917C117.876 125.052 117.849 125.195 117.85 125.34V143.53C117.851 143.673 117.824 143.815 117.771 143.948C117.717 144.081 117.638 144.202 117.538 144.304C117.438 144.406 117.318 144.487 117.186 144.543C117.055 144.599 116.913 144.629 116.77 144.63H108C107.856 144.63 107.713 144.601 107.581 144.546C107.448 144.491 107.327 144.409 107.226 144.307C107.124 144.205 107.044 144.084 106.99 143.95C106.936 143.817 106.909 143.674 106.91 143.53V105.53C106.91 105.24 107.024 104.962 107.229 104.756C107.433 104.55 107.71 104.433 108 104.43H116.74C116.912 104.431 117.081 104.472 117.233 104.551C117.386 104.629 117.519 104.742 117.62 104.88L125.29 115.48C125.385 115.621 125.515 115.736 125.668 115.813C125.82 115.89 125.989 115.927 126.16 115.92C126.335 115.923 126.507 115.882 126.663 115.802C126.818 115.722 126.951 115.604 127.05 115.46L134.34 104.9C134.44 104.756 134.573 104.639 134.728 104.557C134.883 104.475 135.055 104.432 135.23 104.43H143.96M99.96 104.43C100.142 104.43 100.322 104.466 100.49 104.536C100.658 104.606 100.811 104.709 100.939 104.838C101.068 104.967 101.169 105.12 101.238 105.289C101.307 105.457 101.341 105.638 101.34 105.82V143.26C101.341 143.442 101.307 143.623 101.238 143.791C101.169 143.96 101.068 144.113 100.939 144.242C100.811 144.371 100.658 144.474 100.49 144.544C100.322 144.614 100.142 144.65 99.96 144.65H92.26C91.8913 144.65 91.5378 144.504 91.2771 144.243C91.0164 143.982 90.87 143.629 90.87 143.26V121.05C90.87 120.681 90.7235 120.328 90.4628 120.067C90.2022 119.806 89.8486 119.66 89.48 119.66H84C83.6313 119.66 83.2778 119.514 83.0171 119.253C82.7564 118.992 82.61 118.639 82.61 118.27V114.27C82.6089 113.946 82.7213 113.631 82.9277 113.381C83.134 113.131 83.4214 112.961 83.74 112.9C85.8274 112.564 87.7954 111.704 89.46 110.4C90.9819 109.108 92.0362 107.351 92.46 105.4C92.5318 105.099 92.7031 104.83 92.9462 104.638C93.1893 104.445 93.49 104.341 93.8 104.34H99.99M143.99 97.34H135.26C133.951 97.3419 132.662 97.6614 131.504 98.271C130.346 98.8806 129.353 99.7622 128.61 100.84L126 104.56L123.24 100.75C122.49 99.7142 121.506 98.8707 120.367 98.2885C119.229 97.7062 117.969 97.4017 116.69 97.4H108C106.602 97.3781 105.223 97.7229 104 98.4C102.772 97.7347 101.396 97.3907 100 97.4H93.74C91.8637 97.4001 90.0417 98.0298 88.5658 99.1884C87.0899 100.347 86.0455 101.967 85.6 103.79C85.5175 104.265 85.2986 104.707 84.97 105.06C84.1994 105.596 83.311 105.939 82.38 106.06C80.4701 106.437 78.7498 107.464 77.5119 108.966C76.2739 110.468 75.5948 112.353 75.59 114.3V118.3C75.5924 120.505 76.462 122.621 78.0112 124.191C79.5604 125.761 81.6647 126.658 83.87 126.69V143.26C83.87 145.485 84.7539 147.619 86.3273 149.193C87.9008 150.766 90.0348 151.65 92.26 151.65H99.93C101.331 151.644 102.707 151.283 103.93 150.6C105.148 151.295 106.528 151.657 107.93 151.65H116.75C118.895 151.645 120.95 150.789 122.465 149.271C123.979 147.752 124.83 145.695 124.83 143.55V139C125.237 139.06 125.648 139.09 126.06 139.09C126.375 139.081 126.689 139.051 127 139V143.48C127.003 145.626 127.855 147.683 129.372 149.201C130.888 150.719 132.944 151.575 135.09 151.58H143.91C146.056 151.575 148.112 150.719 149.628 149.201C151.144 147.683 151.997 145.626 152 143.48V105.48C151.997 103.334 151.144 101.277 149.628 99.7589C148.112 98.2407 146.056 97.3853 143.91 97.38L143.99 97.34Z" fill="black"/>
<path d="M101.31 105.79V143.23C101.311 143.412 101.277 143.593 101.208 143.761C101.139 143.93 101.038 144.083 100.909 144.212C100.781 144.341 100.629 144.444 100.46 144.514C100.292 144.584 100.112 144.62 99.93 144.62H92.26C91.8913 144.62 91.5378 144.474 91.2771 144.213C91.0164 143.952 90.87 143.599 90.87 143.23V121.05C90.87 120.681 90.7235 120.328 90.4629 120.067C90.2022 119.806 89.8486 119.66 89.48 119.66H84C83.6313 119.66 83.2778 119.514 83.0171 119.253C82.7564 118.992 82.61 118.639 82.61 118.27V114.27C82.6089 113.946 82.7213 113.631 82.9277 113.381C83.134 113.131 83.4214 112.961 83.74 112.9C85.8274 112.564 87.7954 111.704 89.46 110.4C90.9819 109.108 92.0362 107.351 92.46 105.4C92.5319 105.099 92.7031 104.83 92.9462 104.638C93.1893 104.445 93.4901 104.341 93.8 104.34H99.99C100.172 104.348 100.351 104.391 100.516 104.469C100.681 104.546 100.83 104.655 100.952 104.79C101.075 104.925 101.17 105.082 101.231 105.254C101.293 105.426 101.319 105.608 101.31 105.79ZM116.69 104.4C116.862 104.401 117.031 104.442 117.183 104.521C117.336 104.599 117.469 104.712 117.57 104.85L125.24 115.45C125.34 115.59 125.472 115.705 125.625 115.784C125.778 115.863 125.948 115.904 126.12 115.904C126.292 115.904 126.462 115.863 126.615 115.784C126.768 115.705 126.9 115.59 127 115.45L134.29 104.89C134.39 104.746 134.523 104.629 134.678 104.547C134.833 104.465 135.005 104.422 135.18 104.42H143.91C144.2 104.423 144.477 104.54 144.681 104.746C144.885 104.952 145 105.23 145 105.52V143.52C145.001 143.664 144.974 143.807 144.92 143.94C144.866 144.074 144.786 144.195 144.684 144.297C144.583 144.4 144.462 144.481 144.329 144.536C144.197 144.591 144.054 144.62 143.91 144.62H135.09C134.946 144.62 134.803 144.591 134.671 144.536C134.538 144.481 134.417 144.4 134.316 144.297C134.214 144.195 134.134 144.074 134.08 143.94C134.026 143.807 133.999 143.664 134 143.52V125.44C134.007 125.21 133.939 124.984 133.808 124.794C133.677 124.605 133.489 124.463 133.271 124.388C133.054 124.313 132.818 124.31 132.598 124.379C132.378 124.447 132.186 124.584 132.05 124.77L126.95 131.66C126.849 131.795 126.719 131.904 126.569 131.979C126.419 132.054 126.253 132.093 126.085 132.093C125.917 132.093 125.751 132.054 125.601 131.979C125.451 131.904 125.321 131.795 125.22 131.66L119.79 124.66C119.652 124.478 119.46 124.344 119.241 124.279C119.022 124.213 118.788 124.218 118.572 124.294C118.357 124.369 118.171 124.511 118.041 124.699C117.911 124.887 117.844 125.112 117.85 125.34V143.53C117.851 143.673 117.824 143.815 117.771 143.948C117.717 144.081 117.638 144.202 117.538 144.304C117.438 144.406 117.318 144.487 117.186 144.543C117.055 144.599 116.913 144.629 116.77 144.63H108C107.856 144.63 107.713 144.601 107.581 144.546C107.448 144.491 107.327 144.409 107.226 144.307C107.124 144.205 107.044 144.084 106.99 143.95C106.936 143.817 106.909 143.674 106.91 143.53V105.53C106.91 105.24 107.024 104.962 107.229 104.756C107.433 104.55 107.71 104.433 108 104.43L116.69 104.4Z" fill="url(#paint6_linear_4_631)"/>
<path d="M143.91 105.15C144.001 105.153 144.088 105.191 144.151 105.256C144.215 105.321 144.25 105.409 144.25 105.5V143.5C144.25 143.591 144.215 143.679 144.151 143.744C144.088 143.809 144.001 143.847 143.91 143.85H135.09C134.999 143.847 134.912 143.809 134.849 143.744C134.785 143.679 134.75 143.591 134.75 143.5V125.44C134.754 125.196 134.709 124.954 134.618 124.728C134.528 124.502 134.393 124.296 134.221 124.123C134.05 123.95 133.846 123.812 133.62 123.719C133.395 123.626 133.154 123.579 132.91 123.58C132.624 123.58 132.343 123.647 132.089 123.778C131.835 123.908 131.616 124.098 131.45 124.33L126.35 131.21C126.319 131.251 126.279 131.285 126.233 131.308C126.187 131.331 126.137 131.343 126.085 131.343C126.033 131.343 125.983 131.331 125.937 131.308C125.891 131.285 125.851 131.251 125.82 131.21L120.39 124.21C120.22 123.989 120.002 123.811 119.753 123.688C119.503 123.565 119.228 123.5 118.95 123.5C118.707 123.499 118.466 123.546 118.24 123.638C118.015 123.731 117.811 123.867 117.639 124.039C117.467 124.211 117.331 124.415 117.238 124.64C117.146 124.866 117.099 125.107 117.1 125.35V143.54C117.101 143.585 117.094 143.629 117.078 143.671C117.062 143.713 117.038 143.751 117.008 143.783C116.977 143.816 116.94 143.842 116.899 143.86C116.859 143.879 116.815 143.889 116.77 143.89H108C107.909 143.887 107.822 143.849 107.759 143.784C107.695 143.719 107.66 143.631 107.66 143.54V105.54C107.66 105.449 107.695 105.361 107.759 105.296C107.822 105.231 107.909 105.193 108 105.19H116.74C116.793 105.192 116.844 105.205 116.891 105.229C116.938 105.253 116.978 105.288 117.01 105.33L124.68 115.92C124.847 116.157 125.069 116.35 125.326 116.482C125.584 116.615 125.87 116.683 126.16 116.68C126.457 116.682 126.75 116.61 127.013 116.473C127.276 116.335 127.502 116.135 127.67 115.89L134.96 105.34C134.989 105.295 135.029 105.258 135.076 105.231C135.123 105.205 135.176 105.191 135.23 105.19H143.96M99.96 105.19C100.128 105.193 100.288 105.261 100.406 105.381C100.524 105.501 100.59 105.662 100.59 105.83V143.27C100.59 143.438 100.524 143.599 100.406 143.719C100.288 143.839 100.128 143.907 99.96 143.91H92.26C92.0903 143.91 91.9275 143.843 91.8074 143.723C91.6874 143.603 91.62 143.44 91.62 143.27V121.05C91.62 120.482 91.3945 119.938 90.9932 119.537C90.5919 119.135 90.0476 118.91 89.48 118.91H84C83.8303 118.91 83.6675 118.843 83.5474 118.723C83.4274 118.603 83.36 118.44 83.36 118.27V114.27C83.3597 114.121 83.4115 113.976 83.5064 113.861C83.6014 113.746 83.7335 113.668 83.88 113.64C86.0828 113.28 88.1599 112.373 89.92 111C91.5416 109.601 92.6646 107.713 93.12 105.62C93.1536 105.481 93.2329 105.357 93.3453 105.268C93.4577 105.179 93.5967 105.13 93.74 105.13H99.93M143.93 104.38H135.2C135.025 104.382 134.853 104.426 134.698 104.507C134.543 104.589 134.41 104.706 134.31 104.85L127 115.43C126.901 115.574 126.768 115.692 126.613 115.772C126.457 115.852 126.285 115.893 126.11 115.89C125.939 115.897 125.77 115.86 125.618 115.783C125.465 115.706 125.335 115.591 125.24 115.45L117.57 104.85C117.469 104.712 117.336 104.599 117.183 104.521C117.031 104.442 116.862 104.401 116.69 104.4H108C107.71 104.403 107.433 104.52 107.229 104.726C107.024 104.932 106.91 105.21 106.91 105.5V143.5C106.909 143.644 106.936 143.787 106.99 143.92C107.044 144.054 107.124 144.175 107.226 144.277C107.327 144.38 107.448 144.461 107.581 144.516C107.713 144.571 107.856 144.6 108 144.6H116.82C116.963 144.599 117.105 144.569 117.236 144.513C117.368 144.457 117.488 144.376 117.588 144.274C117.688 144.172 117.767 144.051 117.821 143.918C117.874 143.785 117.901 143.643 117.9 143.5V125.33C117.899 125.185 117.926 125.042 117.981 124.907C118.036 124.773 118.117 124.652 118.219 124.549C118.322 124.447 118.443 124.366 118.577 124.311C118.712 124.256 118.855 124.229 119 124.23C119.164 124.226 119.326 124.262 119.472 124.335C119.619 124.408 119.745 124.517 119.84 124.65L125.27 131.65C125.372 131.783 125.503 131.89 125.653 131.964C125.803 132.038 125.968 132.077 126.135 132.077C126.302 132.077 126.467 132.038 126.617 131.964C126.767 131.89 126.898 131.783 127 131.65L132.1 124.76C132.199 124.624 132.328 124.514 132.478 124.437C132.627 124.361 132.792 124.321 132.96 124.32C133.105 124.32 133.248 124.349 133.382 124.405C133.515 124.461 133.636 124.543 133.738 124.646C133.839 124.75 133.919 124.872 133.973 125.007C134.026 125.141 134.053 125.285 134.05 125.43V143.51C134.049 143.654 134.076 143.797 134.13 143.93C134.184 144.064 134.264 144.185 134.366 144.287C134.467 144.39 134.588 144.471 134.721 144.526C134.853 144.581 134.996 144.61 135.14 144.61H143.96C144.104 144.61 144.247 144.581 144.379 144.526C144.512 144.471 144.633 144.39 144.734 144.287C144.836 144.185 144.916 144.064 144.97 143.93C145.024 143.797 145.051 143.654 145.05 143.51V105.51C145.05 105.22 144.935 104.942 144.731 104.736C144.527 104.53 144.25 104.413 143.96 104.41L143.93 104.38ZM99.93 104.38H93.74C93.43 104.381 93.1293 104.485 92.8862 104.678C92.6431 104.87 92.4719 105.139 92.4 105.44C91.9762 107.391 90.9219 109.148 89.4 110.44C87.7354 111.744 85.7674 112.604 83.68 112.94C83.3614 113.001 83.074 113.171 82.8677 113.421C82.6613 113.671 82.5489 113.986 82.55 114.31V118.31C82.5551 118.494 82.5969 118.676 82.6728 118.844C82.7487 119.012 82.8573 119.163 82.9923 119.289C83.1272 119.414 83.2858 119.512 83.4588 119.576C83.6318 119.639 83.8158 119.668 84 119.66H89.5C89.8686 119.66 90.2222 119.806 90.4829 120.067C90.7435 120.328 90.89 120.681 90.89 121.05V143.23C90.89 143.599 91.0364 143.952 91.2971 144.213C91.5578 144.474 91.9113 144.62 92.28 144.62H99.95C100.132 144.62 100.312 144.584 100.48 144.514C100.648 144.444 100.801 144.341 100.929 144.212C101.058 144.083 101.159 143.93 101.228 143.761C101.297 143.593 101.331 143.412 101.33 143.23V105.79C101.331 105.608 101.297 105.427 101.228 105.259C101.159 105.09 101.058 104.937 100.929 104.808C100.801 104.679 100.648 104.576 100.48 104.506C100.312 104.436 100.132 104.4 99.95 104.4L99.93 104.38Z" fill="url(#paint7_linear_4_631)"/>
<path d="M116.21 166.11C118.844 166.11 120.98 163.974 120.98 161.34C120.98 158.706 118.844 156.57 116.21 156.57C113.576 156.57 111.44 158.706 111.44 161.34C111.44 163.974 113.576 166.11 116.21 166.11Z" fill="black" stroke="url(#paint8_linear_4_631)" stroke-miterlimit="10"/>
</g>
<defs>
<linearGradient id="paint0_linear_4_631" x1="140.71" y1="-16.2" x2="91.83" y2="261.03" gradientUnits="userSpaceOnUse">
<stop offset="0.25" stop-color="#F6E594"/>
<stop offset="0.38" stop-color="#F5E492"/>
<stop offset="0.43" stop-color="#F2DE8B"/>
<stop offset="0.47" stop-color="#ECD580"/>
<stop offset="0.49" stop-color="#E4C86F"/>
<stop offset="0.5" stop-color="#E2C46A"/>
<stop offset="0.61" stop-color="#C89E3F"/>
<stop offset="0.72" stop-color="#E8D17E"/>
<stop offset="0.76" stop-color="#E5CE7C"/>
<stop offset="0.79" stop-color="#DCC574"/>
<stop offset="0.81" stop-color="#CDB568"/>
<stop offset="0.83" stop-color="#B79F57"/>
<stop offset="0.86" stop-color="#9B8240"/>
<stop offset="0.88" stop-color="#684E18"/>
</linearGradient>
<linearGradient id="paint1_linear_4_631" x1="140.67" y1="-15.98" x2="91.86" y2="260.81" gradientUnits="userSpaceOnUse">
<stop offset="0.25" stop-color="#F6E594"/>
<stop offset="0.38" stop-color="#F5E492"/>
<stop offset="0.43" stop-color="#F2DE8B"/>
<stop offset="0.47" stop-color="#ECD580"/>
<stop offset="0.49" stop-color="#E4C86F"/>
<stop offset="0.5" stop-color="#E2C46A"/>
<stop offset="0.61" stop-color="#C89E3F"/>
<stop offset="0.72" stop-color="#E8D17E"/>
<stop offset="0.76" stop-color="#E5CE7C"/>
<stop offset="0.79" stop-color="#DCC574"/>
<stop offset="0.81" stop-color="#CDB568"/>
<stop offset="0.83" stop-color="#B79F57"/>
<stop offset="0.86" stop-color="#9B8240"/>
<stop offset="0.88" stop-color="#684E18"/>
</linearGradient>
<linearGradient id="paint2_linear_4_631" x1="146.14" y1="16.5" x2="67.15" y2="233.51" gradientUnits="userSpaceOnUse">
<stop stop-color="#F6E594"/>
<stop offset="0.33" stop-color="#F6E492"/>
<stop offset="0.45" stop-color="#F4DF8B"/>
<stop offset="0.53" stop-color="#F2D880"/>
<stop offset="0.6" stop-color="#EFCD6F"/>
<stop offset="0.65" stop-color="#EBC15C"/>
<stop offset="0.7" stop-color="#C89D47"/>
<stop offset="0.82" stop-color="#7A4D18"/>
<stop offset="0.97" stop-color="#C1914C"/>
</linearGradient>
<linearGradient id="paint3_linear_4_631" x1="116.27" y1="75.5" x2="116.27" y2="86.04" gradientUnits="userSpaceOnUse">
<stop stop-color="#F6E594"/>
<stop offset="0.21" stop-color="#F5E492"/>
<stop offset="0.29" stop-color="#F2DE8B"/>
<stop offset="0.34" stop-color="#ECD580"/>
<stop offset="0.39" stop-color="#E4C86F"/>
<stop offset="0.4" stop-color="#E2C46A"/>
<stop offset="0.49" stop-color="#BA9D4E"/>
<stop offset="0.69" stop-color="#6A4E17"/>
<stop offset="0.72" stop-color="#6F531B"/>
<stop offset="0.75" stop-color="#7D6227"/>
<stop offset="0.79" stop-color="#957B3A"/>
<stop offset="0.83" stop-color="#B69D55"/>
<stop offset="0.86" stop-color="#E0C977"/>
<stop offset="0.87" stop-color="#E8D17E"/>
<stop offset="0.9" stop-color="#E5CE7C"/>
<stop offset="0.92" stop-color="#DCC574"/>
<stop offset="0.94" stop-color="#CDB568"/>
<stop offset="0.96" stop-color="#B79F57"/>
<stop offset="0.98" stop-color="#9B8240"/>
<stop offset="0.99" stop-color="#785F25"/>
<stop offset="1" stop-color="#684E18"/>
</linearGradient>
<linearGradient id="paint4_linear_4_631" x1="166.09" y1="34.2" x2="53.02" y2="230.04" gradientUnits="userSpaceOnUse">
<stop stop-color="#FFFFAD"/>
<stop offset="0.26" stop-color="#F6E594"/>
<stop offset="0.34" stop-color="#F5E492"/>
<stop offset="0.37" stop-color="#F2DE8B"/>
<stop offset="0.39" stop-color="#ECD580"/>
<stop offset="0.41" stop-color="#E2C46A"/>
<stop offset="0.51" stop-color="#A68C46"/>
<stop offset="0.66" stop-color="#564217"/>
<stop offset="0.68" stop-color="#75612D"/>
<stop offset="0.73" stop-color="#C7B167"/>
<stop offset="0.75" stop-color="#E8D17E"/>
<stop offset="0.78" stop-color="#E5CE7C"/>
<stop offset="0.81" stop-color="#DDC574"/>
<stop offset="0.83" stop-color="#CFB568"/>
<stop offset="0.85" stop-color="#BB9F56"/>
<stop offset="0.86" stop-color="#A2823F"/>
<stop offset="0.88" stop-color="#825E23"/>
<stop offset="0.9" stop-color="#5B3200"/>
</linearGradient>
<linearGradient id="paint5_linear_4_631" x1="133.74" y1="94.33" x2="99.75" y2="153.2" gradientUnits="userSpaceOnUse">
<stop stop-color="#F6E594"/>
<stop offset="0.36" stop-color="#F6E492"/>
<stop offset="0.5" stop-color="#F4DF8B"/>
<stop offset="0.59" stop-color="#F2D880"/>
<stop offset="0.66" stop-color="#EFCD6F"/>
<stop offset="0.72" stop-color="#EBC15C"/>
<stop offset="0.77" stop-color="#C89D47"/>
<stop offset="0.88" stop-color="#7A4D18"/>
<stop offset="0.95" stop-color="#C1914C"/>
<stop offset="0.96" stop-color="#BE8F4A"/>
<stop offset="0.97" stop-color="#B58742"/>
<stop offset="0.98" stop-color="#A57B36"/>
<stop offset="0.99" stop-color="#8F6924"/>
<stop offset="1" stop-color="#624600"/>
</linearGradient>
<linearGradient id="paint6_linear_4_631" x1="113.77" y1="97.38" x2="113.87" y2="164.27" gradientUnits="userSpaceOnUse">
<stop stop-color="#F6E594"/>
<stop offset="0.17" stop-color="#F6E492"/>
<stop offset="0.24" stop-color="#F4DF8B"/>
<stop offset="0.28" stop-color="#F2D880"/>
<stop offset="0.32" stop-color="#EFCD6F"/>
<stop offset="0.35" stop-color="#EBC15C"/>
<stop offset="0.4" stop-color="#C89D47"/>
<stop offset="0.54" stop-color="#7A4D18"/>
<stop offset="0.66" stop-color="#B68644"/>
<stop offset="0.77" stop-color="#C1914C"/>
<stop offset="0.8" stop-color="#C3944E"/>
<stop offset="0.82" stop-color="#C99D56"/>
<stop offset="0.84" stop-color="#D3AD63"/>
<stop offset="0.86" stop-color="#E2C375"/>
<stop offset="0.88" stop-color="#F5E08C"/>
</linearGradient>
<linearGradient id="paint7_linear_4_631" x1="113.8" y1="104.4" x2="113.8" y2="144.62" gradientUnits="userSpaceOnUse">
<stop stop-color="#FFF7AB"/>
<stop offset="0.41" stop-color="#F6E594"/>
<stop offset="0.57" stop-color="#F6E492"/>
<stop offset="0.62" stop-color="#F4DF8B"/>
<stop offset="0.66" stop-color="#F2D880"/>
<stop offset="0.7" stop-color="#EFCD6F"/>
<stop offset="0.72" stop-color="#EBC15C"/>
<stop offset="0.77" stop-color="#C89D47"/>
<stop offset="0.88" stop-color="#7A4D18"/>
<stop offset="0.91" stop-color="#C1914C"/>
<stop offset="0.92" stop-color="#BE8E4A"/>
<stop offset="0.94" stop-color="#B58643"/>
<stop offset="0.95" stop-color="#A57838"/>
<stop offset="0.96" stop-color="#724A14"/>
<stop offset="0.97" stop-color="#553000"/>
</linearGradient>
<linearGradient id="paint8_linear_4_631" x1="116.21" y1="156.07" x2="116.21" y2="166.61" gradientUnits="userSpaceOnUse">
<stop stop-color="#F6E594"/>
<stop offset="0.21" stop-color="#F5E492"/>
<stop offset="0.29" stop-color="#F2DE8B"/>
<stop offset="0.34" stop-color="#ECD580"/>
<stop offset="0.39" stop-color="#E4C86F"/>
<stop offset="0.4" stop-color="#E2C46A"/>
<stop offset="0.49" stop-color="#BA9D4E"/>
<stop offset="0.69" stop-color="#6A4E17"/>
<stop offset="0.72" stop-color="#6F531B"/>
<stop offset="0.75" stop-color="#7D6227"/>
<stop offset="0.79" stop-color="#957B3A"/>
<stop offset="0.83" stop-color="#B69D55"/>
<stop offset="0.86" stop-color="#E0C977"/>
<stop offset="0.87" stop-color="#E8D17E"/>
<stop offset="0.9" stop-color="#E5CE7C"/>
<stop offset="0.92" stop-color="#DCC574"/>
<stop offset="0.94" stop-color="#CDB568"/>
<stop offset="0.96" stop-color="#B79F57"/>
<stop offset="0.98" stop-color="#9B8240"/>
<stop offset="0.99" stop-color="#785F25"/>
<stop offset="1" stop-color="#684E18"/>
</linearGradient>
</defs>
</svg>
