<svg width="233" height="232" viewBox="0 0 233 232" fill="none" xmlns="http://www.w3.org/2000/svg">
<mask id="mask0_4_451" style="mask-type:luminance" maskUnits="userSpaceOnUse" x="0" y="0" width="233" height="232">
<path d="M232.57 0H0V231.49H232.57V0Z" fill="white"/>
</mask>
<g mask="url(#mask0_4_451)">
<path d="M115.37 24.78L145.65 86.13L213.35 95.97L164.36 143.72L175.92 211.15L115.37 179.31L54.82 211.15L66.38 143.72L17.39 95.97L85.09 86.13L115.37 24.78Z" fill="black"/>
<mask id="mask1_4_451" style="mask-type:luminance" maskUnits="userSpaceOnUse" x="18" y="24" width="197" height="188">
<path d="M116.37 24.78L146.65 86.13L214.35 95.97L165.36 143.72L176.92 211.15L116.37 179.31L55.82 211.15L67.38 143.72L18.39 95.97L86.09 86.13L116.37 24.78Z" fill="white"/>
</mask>
<g mask="url(#mask1_4_451)">
<path d="M115.69 264.47V126.05L72.92 257.7L71.82 257.34L114.6 125.69L33.23 237.68L32.3 237L113.67 125.02L1.68002 206.38L1.00002 205.45L112.99 124.08L-18.66 166.86L-19.02 165.77L112.64 122.99H-25.79V121.84H112.64L-19.02 79.06L-18.66 77.97L112.99 120.75L1.00002 39.38L1.68002 38.45L113.67 119.82L32.3 7.82998L33.23 7.14998L114.6 119.14L71.82 -12.51L72.92 -12.86L115.69 118.79V-19.64H116.84V118.79L159.62 -12.86L160.71 -12.51L117.94 119.14L199.3 7.14998L200.23 7.82998L118.87 119.82L230.85 38.45L231.53 39.38L119.54 120.75L251.19 77.97L251.55 79.06L119.9 121.84H258.32V122.99H119.9L251.55 165.77L251.19 166.86L119.54 124.08L231.53 205.45L230.85 206.38L118.87 125.02L200.23 237L199.3 237.68L117.94 125.69L160.71 257.34L159.62 257.7L116.84 126.05V264.47H115.69Z" fill="url(#paint0_linear_4_451)"/>
<path d="M258.12 122.04H118.63L251.3 78.94L251.06 78.22L118.4 121.33L231.25 39.34L230.81 38.73L117.96 120.72L199.95 7.87L199.34 7.43L117.36 120.28L160.46 -12.38L159.75 -12.61L116.64 120.05V-19.44H115.89V120.05L72.79 -12.61L72.07 -12.38L115.18 120.28L33.19 7.43L32.58 7.87L114.57 120.72L1.72003 38.73L1.28004 39.34L114.13 121.33L-18.53 78.22L-18.76 78.94L113.9 122.04H-25.59V122.79H113.9L-18.76 165.9L-18.53 166.61L114.13 123.5L1.28004 205.49L1.72003 206.1L114.57 124.11L32.58 236.96L33.19 237.4L115.18 124.55L72.07 257.21L72.79 257.44L115.89 124.78V264.27H116.64V124.78L159.75 257.44L160.46 257.21L117.36 124.55L199.34 237.4L199.95 236.96L117.96 124.11L230.81 206.1L231.25 205.49L118.4 123.5L251.06 166.61L251.3 165.9L118.63 122.79H258.12V122.04Z" fill="url(#paint1_linear_4_451)"/>
</g>
<path d="M185.47 225.46L117.18 187.89C116.884 187.727 116.552 187.642 116.215 187.642C115.878 187.642 115.546 187.727 115.25 187.89L47 225.45C46.6758 225.642 46.304 225.739 45.9273 225.729C45.5507 225.719 45.1845 225.603 44.871 225.394C44.5575 225.185 44.3094 224.891 44.1553 224.547C44.0012 224.203 43.9474 223.823 44 223.45L55.16 148.45C55.2051 148.143 55.178 147.829 55.0808 147.534C54.9836 147.239 54.819 146.97 54.6 146.75L1.48001 93.54C1.22291 93.2856 1.03959 92.9663 0.949572 92.616C0.859552 92.2658 0.866197 91.8976 0.968802 91.5508C1.07141 91.204 1.26613 90.8915 1.53224 90.6466C1.79836 90.4017 2.1259 90.2335 2.48001 90.16L75.48 75.39C75.7641 75.3312 76.032 75.2113 76.2651 75.0386C76.4982 74.8659 76.691 74.6446 76.83 74.39L114.55 6.79999C114.721 6.48249 114.975 6.21725 115.285 6.0324C115.595 5.84754 115.949 5.74994 116.31 5.74994C116.671 5.74994 117.025 5.84754 117.335 6.0324C117.645 6.21725 117.899 6.48249 118.07 6.79999L154.65 75.28C154.794 75.5404 154.995 75.7652 155.237 75.9382C155.479 76.1112 155.757 76.228 156.05 76.28L230 90C230.36 90.0652 230.696 90.228 230.97 90.4707C231.244 90.7134 231.446 91.0266 231.554 91.3763C231.662 91.7259 231.673 92.0986 231.584 92.4537C231.495 92.8087 231.31 93.1326 231.05 93.39L177.55 146.61C177.328 146.833 177.162 147.104 177.064 147.403C176.967 147.702 176.942 148.019 176.99 148.33L188.37 223.33C188.438 223.699 188.4 224.08 188.262 224.429C188.123 224.778 187.889 225.081 187.587 225.303C187.284 225.525 186.925 225.658 186.551 225.685C186.177 225.713 185.802 225.635 185.47 225.46ZM27.81 101.46L68.46 142.08C68.6784 142.304 68.841 142.577 68.9348 142.876C69.0286 143.174 69.0509 143.491 69 143.8L60.74 199.36C60.6954 199.725 60.7522 200.094 60.9039 200.429C61.0557 200.763 61.2966 201.05 61.6003 201.256C61.904 201.463 62.2587 201.582 62.6256 201.6C62.9924 201.618 63.3572 201.535 63.68 201.36L115.23 173C115.526 172.837 115.858 172.752 116.195 172.752C116.532 172.752 116.864 172.837 117.16 173L168.65 201.33C168.973 201.505 169.338 201.588 169.704 201.57C170.071 201.552 170.426 201.433 170.73 201.226C171.033 201.02 171.274 200.733 171.426 200.399C171.578 200.064 171.635 199.695 171.59 199.33L163.17 143.8C163.123 143.491 163.15 143.175 163.247 142.878C163.344 142.581 163.51 142.311 163.73 142.09L204.33 101.69C204.587 101.436 204.77 101.116 204.86 100.766C204.95 100.416 204.944 100.048 204.841 99.7008C204.739 99.354 204.544 99.0415 204.278 98.7966C204.012 98.5517 203.684 98.3835 203.33 98.31L147.53 88C147.237 87.948 146.959 87.8312 146.717 87.6582C146.475 87.4852 146.274 87.2604 146.13 87L117.81 34C117.638 33.685 117.384 33.4221 117.075 33.2389C116.766 33.0558 116.414 32.9592 116.055 32.9592C115.696 32.9592 115.344 33.0558 115.035 33.2389C114.726 33.4221 114.472 33.685 114.3 34L85.3 86C85.161 86.2546 84.9682 86.4759 84.7351 86.6486C84.502 86.8213 84.2341 86.9412 83.95 87L28.83 98.1C28.4763 98.1719 28.1486 98.3382 27.8817 98.5812C27.6148 98.8243 27.4187 99.135 27.3141 99.4805C27.2095 99.826 27.2004 100.193 27.2877 100.544C27.375 100.894 27.5555 101.214 27.81 101.47V101.46Z" fill="url(#paint2_linear_4_451)"/>
<mask id="mask2_4_451" style="mask-type:luminance" maskUnits="userSpaceOnUse" x="0" y="5" width="232" height="221">
<path d="M185.47 225.46L117.18 187.89C116.884 187.727 116.552 187.642 116.215 187.642C115.878 187.642 115.546 187.727 115.25 187.89L47 225.45C46.6758 225.642 46.304 225.739 45.9273 225.729C45.5507 225.719 45.1845 225.603 44.871 225.394C44.5575 225.185 44.3094 224.891 44.1553 224.547C44.0012 224.203 43.9474 223.823 44 223.45L55.16 148.45C55.2051 148.143 55.178 147.829 55.0808 147.534C54.9836 147.239 54.819 146.97 54.6 146.75L1.48001 93.54C1.22291 93.2856 1.03959 92.9663 0.949572 92.616C0.859552 92.2658 0.866197 91.8976 0.968802 91.5508C1.07141 91.204 1.26613 90.8915 1.53224 90.6466C1.79836 90.4017 2.1259 90.2335 2.48001 90.16L75.48 75.39C75.7641 75.3312 76.032 75.2113 76.2651 75.0386C76.4982 74.8659 76.691 74.6446 76.83 74.39L114.55 6.79999C114.721 6.48249 114.975 6.21725 115.285 6.0324C115.595 5.84754 115.949 5.74994 116.31 5.74994C116.671 5.74994 117.025 5.84754 117.335 6.0324C117.645 6.21725 117.899 6.48249 118.07 6.79999L154.65 75.28C154.794 75.5404 154.995 75.7652 155.237 75.9382C155.479 76.1112 155.757 76.228 156.05 76.28L230 90C230.36 90.0652 230.696 90.228 230.97 90.4707C231.244 90.7134 231.446 91.0266 231.554 91.3763C231.662 91.7259 231.673 92.0986 231.584 92.4537C231.495 92.8087 231.31 93.1326 231.05 93.39L177.55 146.61C177.328 146.833 177.162 147.104 177.064 147.403C176.967 147.702 176.942 148.019 176.99 148.33L188.37 223.33C188.438 223.699 188.4 224.08 188.262 224.429C188.123 224.778 187.889 225.081 187.587 225.303C187.284 225.525 186.925 225.658 186.551 225.685C186.177 225.713 185.802 225.635 185.47 225.46ZM27.81 101.46L68.46 142.08C68.6784 142.304 68.841 142.577 68.9348 142.876C69.0286 143.174 69.0509 143.491 69 143.8L60.74 199.36C60.6954 199.725 60.7522 200.094 60.9039 200.429C61.0557 200.763 61.2966 201.05 61.6003 201.256C61.904 201.463 62.2587 201.582 62.6256 201.6C62.9924 201.618 63.3572 201.535 63.68 201.36L115.23 173C115.526 172.837 115.858 172.752 116.195 172.752C116.532 172.752 116.864 172.837 117.16 173L168.65 201.33C168.973 201.505 169.338 201.588 169.704 201.57C170.071 201.552 170.426 201.433 170.73 201.226C171.033 201.02 171.274 200.733 171.426 200.399C171.578 200.064 171.635 199.695 171.59 199.33L163.17 143.8C163.123 143.491 163.15 143.175 163.247 142.878C163.344 142.581 163.51 142.311 163.73 142.09L204.33 101.69C204.587 101.436 204.77 101.116 204.86 100.766C204.95 100.416 204.944 100.048 204.841 99.7008C204.739 99.354 204.544 99.0415 204.278 98.7966C204.012 98.5517 203.684 98.3835 203.33 98.31L147.53 88C147.237 87.948 146.959 87.8312 146.717 87.6582C146.475 87.4852 146.274 87.2604 146.13 87L117.81 34C117.638 33.685 117.384 33.4221 117.075 33.2389C116.766 33.0558 116.414 32.9592 116.055 32.9592C115.696 32.9592 115.344 33.0558 115.035 33.2389C114.726 33.4221 114.472 33.685 114.3 34L85.3 86C85.161 86.2546 84.9682 86.4759 84.7351 86.6486C84.502 86.8213 84.2341 86.9412 83.95 87L28.83 98.1C28.4763 98.1719 28.1486 98.3382 27.8817 98.5812C27.6148 98.8243 27.4187 99.135 27.3141 99.4805C27.2095 99.826 27.2004 100.193 27.2877 100.544C27.375 100.894 27.5555 101.214 27.81 101.47V101.46Z" fill="white"/>
</mask>
<g mask="url(#mask2_4_451)">
<path d="M116.64 -19.26H115.89V264.45H116.64V-19.26Z" fill="#C89E3F"/>
<path d="M109.212 -19.0881L108.463 -19.0488L123.311 264.272L124.06 264.233L109.212 -19.0881Z" fill="#C89E3F"/>
<path d="M101.808 -18.5267L101.062 -18.4483L130.718 263.708L131.464 263.629L101.808 -18.5267Z" fill="#C89E3F"/>
<path d="M94.441 -17.5694L93.7003 -17.4521L138.082 262.765L138.823 262.648L94.441 -17.5694Z" fill="#C89E3F"/>
<path d="M87.3126 -16.5192L86.5776 -16.3617L146.157 261.674L146.892 261.517L87.3126 -16.5192Z" fill="#C89E3F"/>
<path d="M79.9107 -14.5224L79.1863 -14.3283L152.616 259.715L153.34 259.52L79.9107 -14.5224Z" fill="#C89E3F"/>
<path d="M72.7896 -12.4311L72.0763 -12.1993L159.747 257.625L160.461 257.393L72.7896 -12.4311Z" fill="#C89E3F"/>
<path d="M65.7807 -9.97083L65.0805 -9.70205L166.753 255.164L167.453 254.895L65.7807 -9.97083Z" fill="#C89E3F"/>
<path d="M58.9122 -7.14667L58.227 -6.84162L173.622 252.34L174.307 252.035L58.9122 -7.14667Z" fill="#C89E3F"/>
<path d="M52.1931 -3.96423L51.5249 -3.62374L180.327 249.164L180.995 248.823L52.1931 -3.96423Z" fill="#C89E3F"/>
<path d="M45.6632 -0.439636L45.0137 -0.0646367L186.869 245.635L187.518 245.26L45.6632 -0.439636Z" fill="#C89E3F"/>
<path d="M39.3228 3.42047L38.6938 3.82895L193.213 241.768L193.842 241.36L39.3228 3.42047Z" fill="#C89E3F"/>
<path d="M33.183 7.60907L32.5762 8.04991L199.337 237.576L199.944 237.135L33.183 7.60907Z" fill="#C89E3F"/>
<path d="M27.2856 12.1182L26.7027 12.5902L205.247 233.074L205.83 232.602L27.2856 12.1182Z" fill="#C89E3F"/>
<path d="M21.623 16.9296L21.0656 17.4315L210.905 228.269L211.462 227.767L21.623 16.9296Z" fill="#C89E3F"/>
<path d="M16.2181 22.0242L15.6877 22.5545L216.301 223.168L216.831 222.637L16.2181 22.0242Z" fill="#C89E3F"/>
<path d="M11.0944 27.4021L10.5926 27.9595L221.43 217.799L221.932 217.241L11.0944 27.4021Z" fill="#C89E3F"/>
<path d="M6.25611 33.033L5.78412 33.6158L226.268 212.16L226.74 211.577L6.25611 33.033Z" fill="#C89E3F"/>
<path d="M1.71759 38.9155L1.27676 39.5223L230.803 206.283L231.244 205.676L1.71759 38.9155Z" fill="#C89E3F"/>
<path d="M-2.5061 45.0277L-2.91458 45.6567L235.025 200.176L235.433 199.547L-2.5061 45.0277Z" fill="#C89E3F"/>
<path d="M-6.39966 51.3468L-6.77466 51.9963L238.925 193.851L239.3 193.202L-6.39966 51.3468Z" fill="#C89E3F"/>
<path d="M-9.95733 57.8591L-10.2978 58.5274L242.49 187.329L242.83 186.661L-9.95733 57.8591Z" fill="#C89E3F"/>
<path d="M-13.1731 64.5603L-13.4782 65.2455L245.704 180.641L246.009 179.956L-13.1731 64.5603Z" fill="#C89E3F"/>
<path d="M-16.0307 71.415L-16.2995 72.1152L248.567 173.788L248.835 173.088L-16.0307 71.415Z" fill="#C89E3F"/>
<path d="M251.06 166.79L-18.76 79.12L-18.53 78.41L251.3 166.08L251.06 166.79Z" fill="#C89E3F"/>
<path d="M253.19 159.68L-20.85 86.25L-20.66 85.52L253.39 158.95L253.19 159.68Z" fill="#C89E3F"/>
<path d="M-22.4183 92.7345L-22.5742 93.4681L254.936 152.455L255.092 151.721L-22.4183 92.7345Z" fill="#C89E3F"/>
<path d="M-23.7864 100.033L-23.9037 100.774L256.313 145.156L256.431 144.415L-23.7864 100.033Z" fill="#C89E3F"/>
<path d="M-24.7723 107.396L-24.8507 108.142L257.305 137.797L257.384 137.052L-24.7723 107.396Z" fill="#C89E3F"/>
<path d="M-25.3791 114.802L-25.4184 115.551L257.903 130.399L257.942 129.65L-25.3791 114.802Z" fill="#C89E3F"/>
<path d="M258.12 122.22H-25.59V122.97H258.12V122.22Z" fill="#C89E3F"/>
<path d="M257.914 114.81L-25.41 129.608L-25.3708 130.357L257.953 115.559L257.914 114.81Z" fill="#C89E3F"/>
<path d="M257.308 107.444L-24.8577 137.001L-24.7796 137.747L257.387 108.19L257.308 107.444Z" fill="#C89E3F"/>
<path d="M256.313 100.092L-23.9191 144.376L-23.802 145.117L256.431 100.833L256.313 100.092Z" fill="#C89E3F"/>
<path d="M254.935 92.6575L-22.5444 151.789L-22.3881 152.523L255.091 93.391L254.935 92.6575Z" fill="#C89E3F"/>
<path d="M-20.66 159.68L-20.85 158.95L253.19 85.52L253.39 86.25L-20.66 159.68Z" fill="#C89E3F"/>
<path d="M-18.53 166.79L-18.76 166.08L251.06 78.41L251.3 79.12L-18.53 166.79Z" fill="#C89E3F"/>
<path d="M248.514 71.3016L-16.263 173.205L-15.9936 173.905L248.784 72.0016L248.514 71.3016Z" fill="#C89E3F"/>
<path d="M245.741 64.656L-13.5215 179.87L-13.2169 180.556L246.046 65.3414L245.741 64.656Z" fill="#C89E3F"/>
<path d="M242.528 57.9143L-10.3272 186.584L-9.98711 187.252L242.868 58.5827L242.528 57.9143Z" fill="#C89E3F"/>
<path d="M238.918 51.3556L-6.78159 193.211L-6.40659 193.86L239.293 52.0052L238.918 51.3556Z" fill="#C89E3F"/>
<path d="M235.05 45.0295L-2.91611 199.508L-2.50774 200.137L235.458 45.6586L235.05 45.0295Z" fill="#C89E3F"/>
<path d="M230.736 38.814L1.35577 205.775L1.79714 206.381L231.178 39.4204L230.736 38.814Z" fill="#C89E3F"/>
<path d="M226.217 32.9873L5.82654 211.647L6.29884 212.23L226.689 33.5699L226.217 32.9873Z" fill="#C89E3F"/>
<path d="M221.446 27.4289L10.5752 217.231L11.077 217.789L221.948 27.9864L221.446 27.4289Z" fill="#C89E3F"/>
<path d="M216.217 21.9495L15.7789 222.738L16.3097 223.268L216.748 22.4794L216.217 21.9495Z" fill="#C89E3F"/>
<path d="M210.98 16.9846L20.9937 227.69L21.5507 228.192L211.537 17.4868L210.98 16.9846Z" fill="#C89E3F"/>
<path d="M205.286 12.1485L26.6647 232.57L27.2474 233.042L205.869 12.6207L205.286 12.1485Z" fill="#C89E3F"/>
<path d="M199.238 7.55701L32.6774 237.229L33.2845 237.669L199.845 7.99732L199.238 7.55701Z" fill="#C89E3F"/>
<path d="M193.188 3.42572L38.7104 241.392L39.3394 241.8L193.817 3.83409L193.188 3.42572Z" fill="#C89E3F"/>
<path d="M186.801 -0.471436L45.0742 245.303L45.7239 245.678L187.45 -0.0967754L186.801 -0.471436Z" fill="#C89E3F"/>
<path d="M180.394 -3.94147L51.4602 248.779L52.1283 249.119L181.062 -3.60063L180.394 -3.94147Z" fill="#C89E3F"/>
<path d="M173.53 -7.19421L58.3161 252.068L59.0015 252.373L174.216 -6.88963L173.53 -7.19421Z" fill="#C89E3F"/>
<path d="M166.695 -9.99817L65.1152 254.903L65.8155 255.172L167.396 -9.72964L166.695 -9.99817Z" fill="#C89E3F"/>
<path d="M159.725 -12.4228L72.1012 257.417L72.8146 257.648L160.439 -12.1912L159.725 -12.4228Z" fill="#C89E3F"/>
<path d="M152.64 -14.5196L79.1624 259.51L79.8869 259.705L153.364 -14.3254L152.64 -14.5196Z" fill="#C89E3F"/>
<path d="M145.415 -16.2283L86.3799 261.272L87.1135 261.428L146.149 -16.0722L145.415 -16.2283Z" fill="#C89E3F"/>
<path d="M139.297 -17.7236L93.9034 263.149L94.6459 263.269L140.04 -17.6036L139.297 -17.7236Z" fill="#C89E3F"/>
<path d="M130.676 -18.5223L101.119 263.644L101.865 263.722L131.422 -18.4442L130.676 -18.5223Z" fill="#C89E3F"/>
<path d="M123.288 -19.0834L108.489 264.24L109.238 264.279L124.037 -19.0443L123.288 -19.0834Z" fill="#C89E3F"/>
</g>
<path d="M116.3 6.76998C116.481 6.77046 116.658 6.82001 116.813 6.91334C116.968 7.00668 117.095 7.1403 117.18 7.29998L153.76 75.78C153.972 76.178 154.271 76.5231 154.634 76.7897C154.998 77.0564 155.417 77.2376 155.86 77.32L229.86 91.03C230.039 91.0639 230.205 91.146 230.34 91.2673C230.476 91.3886 230.576 91.5445 230.629 91.7183C230.683 91.8922 230.688 92.0773 230.644 92.2538C230.6 92.4303 230.509 92.5915 230.38 92.72L176.89 145.94C176.555 146.273 176.304 146.68 176.156 147.128C176.009 147.577 175.969 148.053 176.04 148.52L187.42 223.52C187.443 223.661 187.435 223.806 187.397 223.944C187.359 224.082 187.292 224.21 187.2 224.32C187.105 224.431 186.987 224.52 186.854 224.58C186.721 224.641 186.576 224.671 186.43 224.67C186.263 224.668 186.098 224.627 185.95 224.55L117.66 187C117.217 186.757 116.72 186.629 116.215 186.629C115.71 186.629 115.213 186.757 114.77 187L46.51 224.57C46.3605 224.655 46.1918 224.699 46.02 224.7C45.8748 224.699 45.7316 224.666 45.6003 224.604C45.4691 224.542 45.3529 224.452 45.26 224.34C45.1678 224.232 45.0996 224.106 45.06 223.97C45.0203 223.834 45.0101 223.69 45.03 223.55L56.19 148.55C56.258 148.087 56.2166 147.614 56.0689 147.169C55.9213 146.725 55.6717 146.321 55.34 145.99L2.19 92.83C2.05972 92.7028 1.96666 92.5424 1.92084 92.3662C1.87502 92.19 1.87819 92.0046 1.93 91.83C1.98094 91.6552 2.07865 91.4976 2.21259 91.3742C2.34652 91.2509 2.51159 91.1664 2.69 91.13L75.69 76.36C76.1098 76.2707 76.5056 76.0924 76.8507 75.8371C77.1957 75.5818 77.4819 75.2554 77.69 74.88L115.43 7.27998C115.517 7.12551 115.643 6.99689 115.796 6.90728C115.949 6.81767 116.123 6.77029 116.3 6.76998ZM62.74 202.66C63.2468 202.661 63.7457 202.534 64.19 202.29L115.73 173.93C115.882 173.842 116.054 173.796 116.23 173.796C116.406 173.796 116.578 173.842 116.73 173.93L168.22 202.26C168.661 202.502 169.157 202.629 169.66 202.63C170.089 202.636 170.515 202.55 170.909 202.378C171.302 202.205 171.654 201.95 171.94 201.63C172.221 201.303 172.428 200.919 172.547 200.505C172.666 200.091 172.694 199.656 172.63 199.23L164.2 143.7C164.177 143.544 164.191 143.385 164.242 143.235C164.292 143.086 164.377 142.95 164.49 142.84L205.08 102.45C205.466 102.064 205.74 101.579 205.871 101.049C206.002 100.519 205.986 99.9632 205.824 99.4415C205.663 98.9197 205.362 98.452 204.954 98.0887C204.546 97.7255 204.047 97.4804 203.51 97.38L147.71 87C147.562 86.9718 147.422 86.9104 147.3 86.8203C147.179 86.7303 147.08 86.6139 147.01 86.48L118.7 33.48C118.444 32.9995 118.062 32.5976 117.595 32.3175C117.129 32.0374 116.594 31.8896 116.05 31.89C115.516 31.8901 114.991 32.033 114.531 32.3037C114.07 32.5744 113.69 32.9633 113.43 33.43L84.38 85.43C84.3099 85.5549 84.2138 85.6633 84.0982 85.7478C83.9827 85.8323 83.8502 85.8911 83.71 85.92L28.63 97.12C28.0984 97.2273 27.6058 97.4766 27.2046 97.8416C26.8035 98.2065 26.5087 98.6733 26.3518 99.1924C26.1948 99.7115 26.1815 100.263 26.3133 100.79C26.445 101.316 26.7169 101.796 27.1 102.18L67.75 142.8C67.8595 142.91 67.9418 143.044 67.9904 143.192C68.039 143.339 68.0526 143.496 68.03 143.65L59.77 199.22C59.7074 199.645 59.7366 200.078 59.8556 200.49C59.9746 200.902 60.1807 201.284 60.46 201.61C60.7463 201.93 61.098 202.185 61.4914 202.358C61.8847 202.53 62.3105 202.616 62.74 202.61M116.3 5.76998C115.946 5.76681 115.597 5.85772 115.29 6.03341C114.982 6.20911 114.727 6.46329 114.55 6.76998L76.82 74.4C76.681 74.6546 76.4882 74.8759 76.2551 75.0486C76.022 75.2213 75.7541 75.3412 75.47 75.4L2.47 90.17C2.11589 90.2435 1.78835 90.4117 1.52223 90.6566C1.25612 90.9015 1.06139 91.214 0.958793 91.5608C0.856188 91.9076 0.849542 92.2758 0.939563 92.626C1.02958 92.9763 1.2129 93.2956 1.47 93.55L54.63 146.66C54.8504 146.881 55.0159 147.152 55.1132 147.448C55.2104 147.745 55.2367 148.061 55.19 148.37L44.04 223.37C43.9965 223.657 44.0158 223.949 44.0967 224.228C44.1775 224.506 44.3179 224.764 44.5081 224.982C44.6984 225.201 44.9339 225.376 45.1984 225.495C45.4629 225.614 45.7501 225.673 46.04 225.67C46.3891 225.673 46.7332 225.587 47.04 225.42L115.3 187.86C115.596 187.697 115.928 187.612 116.265 187.612C116.602 187.612 116.934 187.697 117.23 187.86L185.52 225.43C185.824 225.603 186.17 225.69 186.52 225.68C186.81 225.683 187.097 225.623 187.362 225.505C187.626 225.386 187.862 225.211 188.052 224.993C188.242 224.774 188.382 224.516 188.463 224.238C188.544 223.959 188.564 223.667 188.52 223.38L177.14 148.38C177.092 148.069 177.117 147.752 177.214 147.453C177.312 147.154 177.478 146.883 177.7 146.66L231.2 93.44C231.478 93.1749 231.674 92.8351 231.765 92.4615C231.855 92.0879 231.835 91.6961 231.709 91.3332C231.582 90.9702 231.354 90.6515 231.051 90.415C230.748 90.1786 230.383 90.0345 230 90L156 76.3C155.707 76.248 155.429 76.1312 155.187 75.9582C154.945 75.7852 154.744 75.5604 154.6 75.3L118.07 6.82998C117.899 6.50912 117.644 6.2409 117.332 6.05413C117.02 5.86737 116.664 5.76913 116.3 5.76998ZM62.74 201.66C62.4501 201.663 62.1629 201.604 61.8984 201.485C61.6339 201.366 61.3984 201.191 61.2081 200.972C61.0179 200.754 60.8775 200.496 60.7967 200.218C60.7158 199.939 60.6965 199.647 60.74 199.36L69 143.8C69.0467 143.491 69.0204 143.175 68.9232 142.878C68.8259 142.582 68.6604 142.311 68.44 142.09L27.81 101.47C27.5556 101.215 27.3746 100.897 27.2862 100.548C27.1978 100.199 27.2052 99.8326 27.3075 99.4875C27.4099 99.1425 27.6036 98.8314 27.868 98.5872C28.1324 98.343 28.4579 98.1747 28.81 98.1L83.9 86.94C84.1841 86.8812 84.452 86.7613 84.6851 86.5886C84.9182 86.4159 85.111 86.1946 85.25 85.94L114.3 33.94C114.472 33.625 114.726 33.3621 115.035 33.1789C115.344 32.9958 115.696 32.8992 116.055 32.8992C116.414 32.8992 116.766 32.9958 117.075 33.1789C117.384 33.3621 117.638 33.625 117.81 33.94L146.13 86.94C146.274 87.2004 146.475 87.4252 146.717 87.5982C146.959 87.7712 147.237 87.888 147.53 87.94L203.3 98.31C203.654 98.3835 203.982 98.5517 204.248 98.7966C204.514 99.0415 204.709 99.354 204.811 99.7008C204.914 100.048 204.92 100.416 204.83 100.766C204.74 101.116 204.557 101.436 204.3 101.69L163.7 142.09C163.48 142.311 163.314 142.582 163.217 142.878C163.12 143.175 163.093 143.491 163.14 143.8L171.56 199.33C171.605 199.695 171.548 200.064 171.396 200.399C171.244 200.733 171.003 201.02 170.7 201.226C170.396 201.433 170.041 201.552 169.674 201.57C169.308 201.588 168.943 201.505 168.62 201.33L117.13 173C116.834 172.837 116.502 172.752 116.165 172.752C115.828 172.752 115.496 172.837 115.2 173L63.7 201.41C63.3942 201.579 63.0494 201.665 62.7 201.66H62.74Z" fill="url(#paint3_linear_4_451)"/>
<path d="M116.21 165.99C118.844 165.99 120.98 163.854 120.98 161.22C120.98 158.586 118.844 156.45 116.21 156.45C113.576 156.45 111.44 158.586 111.44 161.22C111.44 163.854 113.576 165.99 116.21 165.99Z" fill="black" stroke="url(#paint4_linear_4_451)" stroke-miterlimit="10"/>
<path d="M116.34 86.27C118.974 86.27 121.11 84.1344 121.11 81.5C121.11 78.8656 118.974 76.73 116.34 76.73C113.706 76.73 111.57 78.8656 111.57 81.5C111.57 84.1344 113.706 86.27 116.34 86.27Z" fill="black" stroke="url(#paint5_linear_4_451)" stroke-miterlimit="10"/>
<path d="M138.57 139.92C138.025 139.917 137.486 139.807 136.983 139.596C136.481 139.385 136.025 139.078 135.641 138.69C135.258 138.303 134.954 137.844 134.748 137.34C134.542 136.835 134.437 136.295 134.44 135.75V110C134.437 109.455 134.542 108.915 134.748 108.41C134.954 107.906 135.258 107.447 135.641 107.06C136.025 106.672 136.481 106.365 136.983 106.154C137.486 105.943 138.025 105.833 138.57 105.83H143.22C144.078 105.833 144.913 106.104 145.61 106.604C146.308 107.104 146.832 107.809 147.11 108.62L147.52 107.91C147.879 107.281 148.396 106.756 149.021 106.39C149.646 106.023 150.356 105.826 151.08 105.82H156.49C157.588 105.825 158.64 106.265 159.415 107.042C160.191 107.819 160.627 108.872 160.63 109.97C160.64 110.766 160.418 111.548 159.99 112.22L153.99 121.69L161.28 133.52C161.84 134.449 162.023 135.557 161.792 136.616C161.562 137.676 160.935 138.607 160.04 139.22C159.37 139.657 158.59 139.893 157.79 139.9H152.36C151.646 139.902 150.943 139.719 150.321 139.368C149.699 139.018 149.178 138.512 148.81 137.9L147.29 135.36V135.75C147.295 136.849 146.865 137.905 146.092 138.687C145.32 139.469 144.269 139.912 143.17 139.92H138.57Z" fill="url(#paint6_linear_4_451)"/>
<path d="M156.5 108.82C156.707 108.828 156.908 108.891 157.083 109.002C157.259 109.112 157.401 109.267 157.498 109.451C157.594 109.634 157.64 109.84 157.632 110.047C157.624 110.254 157.561 110.455 157.45 110.63L150.52 121.63V121.73C150.54 121.772 150.563 121.812 150.59 121.85L158.72 135.07C158.882 135.33 158.936 135.643 158.873 135.943C158.81 136.243 158.633 136.507 158.38 136.68C158.203 136.801 157.994 136.867 157.78 136.87H152.35C152.148 136.875 151.949 136.826 151.773 136.728C151.597 136.629 151.451 136.485 151.35 136.31L145 125.59L144.64 124.98C144.428 125.2 144.31 125.494 144.31 125.8V135.8C144.314 135.951 144.288 136.1 144.234 136.241C144.18 136.381 144.098 136.51 143.994 136.618C143.89 136.727 143.765 136.814 143.627 136.875C143.489 136.935 143.341 136.967 143.19 136.97H138.54C138.389 136.967 138.24 136.935 138.101 136.875C137.963 136.815 137.838 136.728 137.733 136.619C137.628 136.51 137.545 136.382 137.49 136.242C137.434 136.101 137.407 135.951 137.41 135.8V110C137.407 109.849 137.434 109.699 137.49 109.558C137.545 109.418 137.628 109.29 137.733 109.181C137.838 109.072 137.963 108.985 138.101 108.925C138.24 108.865 138.389 108.833 138.54 108.83H143.19C143.341 108.833 143.489 108.865 143.627 108.925C143.765 108.986 143.89 109.073 143.994 109.182C144.098 109.29 144.18 109.419 144.234 109.559C144.288 109.7 144.314 109.849 144.31 110V117.09C144.309 117.162 144.322 117.234 144.348 117.301C144.374 117.368 144.414 117.43 144.464 117.482C144.514 117.534 144.574 117.575 144.64 117.604C144.707 117.633 144.778 117.649 144.85 117.65C145.014 117.649 145.175 117.603 145.315 117.519C145.456 117.435 145.572 117.314 145.65 117.17L150.1 109.4C150.197 109.221 150.342 109.072 150.519 108.97C150.695 108.867 150.896 108.815 151.1 108.82H156.51M156.51 102.82H151.11C149.717 102.83 148.358 103.247 147.2 104.02C146.032 103.244 144.662 102.83 143.26 102.83H138.61C136.715 102.838 134.9 103.597 133.563 104.941C132.226 106.285 131.477 108.104 131.48 110V135.73C131.477 137.625 132.226 139.445 133.563 140.789C134.9 142.133 136.715 142.892 138.61 142.9H143.26C144.943 142.907 146.573 142.307 147.85 141.21C149.13 142.295 150.752 142.893 152.43 142.9H157.89C159.169 142.892 160.423 142.542 161.52 141.886C162.618 141.23 163.52 140.292 164.133 139.169C164.745 138.046 165.046 136.78 165.003 135.501C164.96 134.223 164.576 132.979 163.89 131.9L157.59 121.66L162.54 113.77C163.219 112.689 163.598 111.447 163.637 110.171C163.677 108.895 163.375 107.632 162.764 106.511C162.153 105.391 161.254 104.453 160.16 103.796C159.066 103.138 157.816 102.784 156.54 102.77L156.51 102.82Z" fill="black"/>
<path d="M124.21 140C120.736 140 117.405 138.622 114.947 136.167C112.489 133.713 111.105 130.384 111.1 126.91V118.82C111.1 115.343 112.481 112.008 114.94 109.55C117.398 107.091 120.733 105.71 124.21 105.71C127.687 105.71 131.022 107.091 133.48 109.55C135.939 112.008 137.32 115.343 137.32 118.82V126.91C137.312 130.383 135.928 133.711 133.47 136.164C131.013 138.618 127.683 139.997 124.21 140ZM124.21 118.69C124.192 118.689 124.174 118.691 124.157 118.697C124.14 118.703 124.125 118.712 124.112 118.724C124.098 118.737 124.088 118.751 124.081 118.768C124.074 118.784 124.07 118.802 124.07 118.82V126.91C124.07 126.928 124.074 126.946 124.081 126.962C124.088 126.979 124.098 126.993 124.112 127.006C124.125 127.018 124.14 127.027 124.157 127.033C124.174 127.039 124.192 127.041 124.21 127.04C124.244 127.04 124.278 127.026 124.302 127.002C124.326 126.978 124.34 126.944 124.34 126.91V118.82C124.333 118.791 124.316 118.765 124.293 118.747C124.269 118.729 124.24 118.719 124.21 118.72V118.69Z" fill="url(#paint7_linear_4_451)"/>
<path d="M124.21 108.76C125.536 108.759 126.85 109.019 128.076 109.525C129.302 110.031 130.416 110.774 131.355 111.711C132.294 112.648 133.039 113.761 133.547 114.986C134.056 116.211 134.319 117.524 134.32 118.85V126.94C134.32 129.621 133.255 132.193 131.359 134.089C129.463 135.985 126.891 137.05 124.21 137.05C121.529 137.05 118.957 135.985 117.061 134.089C115.165 132.193 114.1 129.621 114.1 126.94V118.85C114.101 117.524 114.364 116.211 114.873 114.986C115.381 113.761 116.126 112.648 117.065 111.711C118.004 110.774 119.118 110.031 120.344 109.525C121.57 109.019 122.884 108.759 124.21 108.76ZM124.21 130.07C125.04 130.07 125.836 129.74 126.423 129.153C127.01 128.566 127.34 127.77 127.34 126.94V118.85C127.295 118.049 126.945 117.296 126.362 116.745C125.779 116.194 125.007 115.887 124.205 115.887C123.403 115.887 122.631 116.194 122.048 116.745C121.465 117.296 121.115 118.049 121.07 118.85V126.94C121.07 127.352 121.151 127.76 121.309 128.14C121.467 128.521 121.699 128.866 121.99 129.157C122.282 129.448 122.628 129.678 123.009 129.835C123.39 129.991 123.798 130.071 124.21 130.07ZM124.21 102.76C119.942 102.763 115.849 104.458 112.828 107.474C109.808 110.491 108.108 114.582 108.1 118.85V126.94C108.1 131.213 109.797 135.31 112.819 138.332C115.84 141.353 119.937 143.05 124.21 143.05C128.483 143.05 132.58 141.353 135.601 138.332C138.623 135.31 140.32 131.213 140.32 126.94V118.85C140.312 114.582 138.612 110.491 135.592 107.474C132.571 104.458 128.478 102.763 124.21 102.76Z" fill="black"/>
<path d="M101.57 140C99.8663 140.013 98.1737 139.725 96.57 139.15C95.122 138.63 93.7703 137.873 92.57 136.91C91.4242 135.974 90.4643 134.83 89.74 133.54C89.3615 132.835 89.0534 132.095 88.82 131.33C88.5784 130.571 88.5612 129.759 88.7705 128.991C88.9799 128.223 89.4068 127.531 90 127C89.3994 126.267 89.0709 125.348 89.07 124.4C89.07 124.26 89.07 124.13 89.07 123.99L90.62 109.64C90.7286 108.629 91.2075 107.693 91.9644 107.014C92.7214 106.335 93.7029 105.959 94.72 105.96H108.88C109.972 105.963 111.018 106.398 111.79 107.17C112.562 107.942 112.997 108.988 113 110.08V114C113 114.786 112.775 115.557 112.352 116.219C111.928 116.882 111.324 117.41 110.61 117.74C110.863 117.953 111.103 118.173 111.33 118.4C112.482 119.545 113.399 120.904 114.03 122.4C114.693 123.945 115.033 125.609 115.03 127.29C115.039 129.007 114.699 130.708 114.03 132.29C113.371 133.832 112.401 135.221 111.18 136.37C109.934 137.528 108.473 138.432 106.88 139.03C105.185 139.677 103.385 140.006 101.57 140ZM101.1 128.21C101.256 128.227 101.414 128.227 101.57 128.21C101.708 128.223 101.847 128.204 101.977 128.156C102.107 128.107 102.224 128.03 102.32 127.93C102.415 127.843 102.488 127.736 102.535 127.616C102.582 127.497 102.601 127.368 102.59 127.24C102.6 127.111 102.581 126.981 102.534 126.859C102.488 126.738 102.414 126.629 102.32 126.54C102.221 126.444 102.103 126.37 101.974 126.322C101.845 126.273 101.708 126.252 101.57 126.26C101.395 126.251 101.219 126.271 101.05 126.32C100.914 126.382 100.784 126.456 100.66 126.54C100.66 126.54 100.6 126.62 100.57 126.67C100.471 126.818 100.361 126.959 100.24 127.09C100.442 127.331 100.613 127.597 100.75 127.88C100.753 127.91 100.753 127.94 100.75 127.97C100.844 128.045 100.944 128.112 101.05 128.17L101.1 128.21Z" fill="url(#paint8_linear_4_451)"/>
<path d="M108.93 108.91C109.227 108.91 109.512 109.028 109.722 109.238C109.932 109.448 110.05 109.733 110.05 110.03V114C110.05 114.297 109.932 114.582 109.722 114.792C109.512 115.002 109.227 115.12 108.93 115.12H100.14C99.865 115.123 99.6005 115.226 99.3962 115.41C99.1918 115.594 99.0616 115.847 99.03 116.12L98.67 118.9C99.0057 118.684 99.3646 118.506 99.74 118.37C100.121 118.204 100.516 118.07 100.92 117.97C101.424 117.845 101.941 117.785 102.46 117.79C103.721 117.779 104.972 118.018 106.14 118.491C107.309 118.965 108.372 119.664 109.27 120.55C110.16 121.431 110.866 122.481 111.345 123.639C111.824 124.796 112.067 126.037 112.06 127.29C112.074 128.609 111.815 129.916 111.3 131.13C110.805 132.289 110.077 133.334 109.16 134.2C108.19 135.076 107.059 135.755 105.83 136.2C104.471 136.721 103.025 136.979 101.57 136.96C100.207 136.978 98.8523 136.751 97.57 136.29C96.4459 135.889 95.3978 135.301 94.47 134.55C93.1232 133.483 92.1441 132.021 91.67 130.37C91.5786 130.088 91.6032 129.78 91.7382 129.516C91.8732 129.252 92.1076 129.052 92.39 128.96C92.4779 128.934 92.5685 128.917 92.66 128.91L96.97 128.62H97.05C97.2578 128.62 97.4614 128.679 97.638 128.788C97.8146 128.898 97.9572 129.054 98.05 129.24C98.1575 129.477 98.2953 129.699 98.46 129.9C98.7904 130.266 99.1831 130.571 99.62 130.8C100.397 131.172 101.268 131.302 102.12 131.173C102.972 131.045 103.767 130.664 104.4 130.08C104.772 129.709 105.067 129.267 105.268 128.782C105.47 128.296 105.573 127.776 105.573 127.25C105.573 126.724 105.47 126.204 105.268 125.718C105.067 125.233 104.772 124.791 104.4 124.42C104.023 124.049 103.576 123.756 103.085 123.558C102.594 123.361 102.069 123.263 101.54 123.27C100.91 123.247 100.284 123.37 99.71 123.63C99.2895 123.823 98.8988 124.076 98.55 124.38C98.3671 124.567 98.203 124.771 98.06 124.99C97.9591 125.141 97.8223 125.265 97.6617 125.351C97.5012 125.436 97.3219 125.481 97.14 125.48H93.14C92.843 125.48 92.5581 125.362 92.348 125.152C92.138 124.942 92.02 124.657 92.02 124.36C92.0151 124.32 92.0151 124.28 92.02 124.24L93.56 109.92C93.5897 109.644 93.7207 109.389 93.9276 109.205C94.1345 109.02 94.4026 108.918 94.68 108.92H108.84M108.84 102.92H94.77C93.0119 102.915 91.3145 103.563 90.0066 104.738C88.6987 105.913 87.8732 107.531 87.69 109.28L86.14 123.6C86.14 123.84 86.14 124.1 86.14 124.36C86.141 125.15 86.2728 125.934 86.53 126.68L86.47 126.79C86.0375 127.62 85.7757 128.528 85.7001 129.46C85.6245 130.393 85.7367 131.331 86.03 132.22C86.3088 133.181 86.6805 134.112 87.14 135C88.0451 136.619 89.2499 138.051 90.69 139.22C92.1307 140.399 93.7604 141.325 95.51 141.96C97.4541 142.652 99.5065 142.991 101.57 142.96C103.767 142.976 105.947 142.583 108 141.8C109.952 141.057 111.741 139.943 113.27 138.52C114.787 137.092 115.992 135.366 116.81 133.45C117.646 131.487 118.072 129.374 118.06 127.24C118.076 123.843 116.965 120.537 114.9 117.84C115.655 116.691 116.055 115.345 116.05 113.97V110C116.05 109.065 115.866 108.139 115.508 107.275C115.15 106.411 114.626 105.627 113.965 104.965C113.303 104.304 112.519 103.78 111.655 103.422C110.791 103.064 109.865 102.88 108.93 102.88L108.84 102.92Z" fill="black"/>
<path d="M79.83 139.92C78.4897 139.923 77.1516 139.813 75.83 139.59C74.6196 139.379 73.4382 139.026 72.31 138.54C71.2081 138.066 70.1781 137.44 69.25 136.68C68.5596 136.103 67.9206 135.467 67.34 134.78C67.0174 134.393 66.778 133.943 66.6369 133.459C66.4957 132.975 66.4558 132.467 66.5196 131.967C66.5834 131.467 66.7496 130.985 67.0077 130.552C67.2659 130.119 67.6104 129.744 68.02 129.45L72.34 126.33C72.7365 126.037 73.1893 125.829 73.67 125.72C73.5983 125.429 73.5614 125.13 73.56 124.83V120.4C73.5631 120.121 73.5966 119.842 73.66 119.57C73.3689 119.482 73.0901 119.358 72.83 119.2L68.67 116.65C68.2282 116.381 67.8481 116.022 67.5545 115.596C67.2609 115.17 67.0604 114.687 66.966 114.178C66.8717 113.67 66.8856 113.147 67.0069 112.644C67.1282 112.141 67.3541 111.67 67.67 111.26C68.9259 109.636 70.5326 108.316 72.37 107.4C74.5863 106.295 77.0336 105.733 79.51 105.76C81.2346 105.739 82.9529 105.972 84.61 106.45C86.0982 106.89 87.4965 107.591 88.74 108.52C89.9702 109.464 90.9576 110.688 91.62 112.09C92.2915 113.512 92.6333 115.067 92.62 116.64C92.6385 118.275 92.2245 119.886 91.42 121.31C91.2798 121.565 91.1263 121.812 90.96 122.05C91.2449 122.366 91.5088 122.7 91.75 123.05C92.746 124.614 93.2574 126.437 93.22 128.29C93.2211 129.881 92.8801 131.453 92.22 132.9C91.5605 134.352 90.5911 135.642 89.38 136.68C88.1267 137.738 86.6847 138.549 85.13 139.07C83.4218 139.642 81.6313 139.929 79.83 139.92Z" fill="url(#paint9_linear_4_451)"/>
<path d="M79.49 108.76C80.9164 108.741 82.3379 108.93 83.71 109.32C84.8568 109.65 85.9342 110.185 86.89 110.9C87.7469 111.553 88.4331 112.404 88.89 113.38C89.3686 114.399 89.6081 115.514 89.59 116.64C89.606 117.756 89.3265 118.857 88.78 119.83C88.3847 120.533 87.8781 121.168 87.28 121.71C87.2002 121.78 87.1373 121.867 87.0961 121.965C87.055 122.063 87.0366 122.169 87.0424 122.275C87.0482 122.381 87.0779 122.484 87.1295 122.577C87.1811 122.669 87.253 122.749 87.34 122.81C88.0772 123.328 88.7114 123.979 89.21 124.73C89.8915 125.801 90.2396 127.051 90.21 128.32C90.2163 129.484 89.9742 130.637 89.5 131.7C89.0165 132.752 88.3102 133.687 87.43 134.44C86.4672 135.246 85.3613 135.863 84.17 136.26C82.7765 136.718 81.3166 136.941 79.85 136.92C78.6737 136.929 77.4989 136.832 76.34 136.63C75.3574 136.461 74.3977 136.18 73.48 135.79C72.6375 135.424 71.85 134.943 71.14 134.36C70.5879 133.908 70.0821 133.402 69.63 132.85C69.5652 132.779 69.5168 132.695 69.4879 132.603C69.459 132.512 69.4505 132.415 69.4628 132.32C69.4752 132.225 69.5082 132.133 69.5595 132.052C69.6109 131.971 69.6793 131.902 69.76 131.85L74.08 128.73C74.2192 128.627 74.3927 128.583 74.5641 128.605C74.7356 128.627 74.8918 128.715 75 128.85C75.4764 129.504 76.1044 130.032 76.83 130.39C77.7655 130.837 78.7935 131.056 79.83 131.03C80.7903 131.073 81.7403 130.818 82.55 130.3C82.8845 130.053 83.1513 129.725 83.3261 129.348C83.5008 128.97 83.5778 128.555 83.55 128.14C83.5705 127.737 83.4785 127.337 83.2842 126.984C83.0899 126.63 82.801 126.338 82.45 126.14C81.5325 125.639 80.4937 125.404 79.45 125.46H77.2C77.0214 125.46 76.8499 125.39 76.7227 125.264C76.5954 125.139 76.5226 124.969 76.52 124.79V120.4C76.52 120.22 76.5916 120.047 76.7192 119.919C76.8467 119.792 77.0197 119.72 77.2 119.72H79.3C80.3241 119.8 81.3419 119.501 82.16 118.88C82.448 118.632 82.6799 118.325 82.8403 117.98C83.0006 117.635 83.0858 117.26 83.09 116.88C83.0901 116.534 83.0151 116.192 82.87 115.878C82.725 115.563 82.5134 115.284 82.25 115.06C81.4913 114.486 80.5479 114.212 79.6 114.29C78.5868 114.253 77.5841 114.506 76.71 115.02C76.1105 115.401 75.5992 115.906 75.21 116.5C75.1528 116.586 75.0755 116.656 74.9848 116.705C74.8942 116.754 74.793 116.779 74.69 116.78C74.5708 116.78 74.4537 116.749 74.35 116.69L70.2 114.14C70.1189 114.089 70.0495 114.022 69.9962 113.942C69.943 113.862 69.9072 113.772 69.8912 113.678C69.8751 113.584 69.8792 113.487 69.9031 113.394C69.927 113.301 69.9703 113.215 70.03 113.14C71.0138 111.874 72.2721 110.849 73.71 110.14C75.5059 109.252 77.4868 108.803 79.49 108.83M79.49 102.83C76.5383 102.815 73.6251 103.5 70.99 104.83C68.7551 105.952 66.8004 107.562 65.27 109.54C64.6977 110.282 64.2879 111.137 64.0671 112.048C63.8462 112.959 63.8193 113.906 63.9881 114.828C64.1569 115.751 64.5175 116.627 65.0467 117.401C65.5759 118.174 66.2619 118.828 67.06 119.32L70.52 121.44V124.02L66.22 127C65.4761 127.536 64.8506 128.22 64.3825 129.009C63.9145 129.798 63.6139 130.675 63.4994 131.585C63.385 132.495 63.4591 133.418 63.7173 134.298C63.9755 135.179 64.4121 135.996 65 136.7C65.6959 137.538 66.4693 138.308 67.31 139C68.45 139.935 69.7157 140.706 71.07 141.29C72.4102 141.867 73.8129 142.287 75.25 142.54C76.7625 142.802 78.2951 142.929 79.83 142.92C81.9579 142.94 84.0741 142.602 86.09 141.92C88.0151 141.27 89.7949 140.251 91.33 138.92C92.8745 137.604 94.1075 135.961 94.94 134.11C95.7712 132.272 96.1975 130.277 96.19 128.26C96.2295 125.987 95.6375 123.747 94.48 121.79C95.224 120.155 95.6028 118.377 95.59 116.58C95.6051 114.566 95.1713 112.575 94.32 110.75C93.4522 108.919 92.1597 107.321 90.55 106.09C89.0192 104.932 87.2913 104.062 85.45 103.52C83.501 102.954 81.4794 102.678 79.45 102.7L79.49 102.83Z" fill="black"/>
<path d="M156.5 108.82C156.707 108.828 156.908 108.891 157.083 109.002C157.258 109.112 157.401 109.267 157.498 109.451C157.594 109.634 157.64 109.84 157.632 110.047C157.624 110.254 157.561 110.455 157.45 110.63L150.52 121.63V121.73C150.54 121.772 150.563 121.812 150.59 121.85L158.72 135.07C158.882 135.331 158.936 135.643 158.873 135.943C158.81 136.243 158.633 136.507 158.38 136.68C158.203 136.801 157.994 136.867 157.78 136.87H152.35C152.149 136.873 151.95 136.823 151.774 136.725C151.599 136.626 151.452 136.483 151.35 136.31L145 125.59L144.64 124.98C144.428 125.2 144.31 125.494 144.31 125.8V135.8C144.314 135.951 144.288 136.1 144.234 136.241C144.18 136.381 144.098 136.51 143.994 136.618C143.89 136.727 143.765 136.814 143.627 136.875C143.489 136.935 143.341 136.967 143.19 136.97H138.54C138.389 136.967 138.24 136.935 138.101 136.875C137.963 136.815 137.838 136.728 137.733 136.619C137.628 136.51 137.545 136.382 137.49 136.242C137.434 136.101 137.407 135.951 137.41 135.8V110C137.407 109.849 137.434 109.699 137.49 109.558C137.545 109.418 137.628 109.29 137.733 109.181C137.838 109.072 137.963 108.985 138.101 108.925C138.24 108.865 138.389 108.833 138.54 108.83H143.19C143.341 108.833 143.489 108.865 143.627 108.925C143.765 108.986 143.89 109.073 143.994 109.182C144.098 109.29 144.18 109.419 144.234 109.559C144.288 109.7 144.314 109.849 144.31 110V117.09C144.309 117.162 144.322 117.234 144.348 117.301C144.374 117.368 144.414 117.43 144.464 117.482C144.514 117.534 144.574 117.575 144.64 117.604C144.706 117.633 144.778 117.649 144.85 117.65C145.014 117.649 145.175 117.603 145.315 117.519C145.456 117.435 145.572 117.314 145.65 117.17L150.1 109.4C150.197 109.221 150.342 109.072 150.519 108.97C150.695 108.867 150.896 108.815 151.1 108.82H156.5Z" fill="url(#paint10_linear_4_451)"/>
<path d="M156.5 108.82V109.57C156.553 109.573 156.604 109.585 156.652 109.608C156.699 109.63 156.742 109.662 156.777 109.701C156.812 109.74 156.84 109.786 156.857 109.835C156.875 109.885 156.883 109.937 156.88 109.99C156.88 110.074 156.86 110.156 156.82 110.23L149.89 121.23L149.67 121.57L149.84 121.94V122.04C149.873 122.112 149.909 122.182 149.95 122.25L158.08 135.46C158.14 135.556 158.163 135.67 158.142 135.781C158.122 135.893 158.06 135.992 157.97 136.06C157.911 136.099 157.841 136.12 157.77 136.12H152.34C152.276 136.118 152.214 136.099 152.16 136.066C152.106 136.032 152.061 135.986 152.03 135.93L145.62 125.15L145.26 124.55L144.75 123.69L144.07 124.42C143.729 124.779 143.54 125.255 143.54 125.75V135.75C143.546 135.854 143.51 135.957 143.441 136.035C143.372 136.114 143.274 136.162 143.17 136.17H138.52C138.467 136.167 138.416 136.155 138.368 136.132C138.321 136.11 138.278 136.078 138.243 136.039C138.208 136 138.18 135.954 138.163 135.905C138.145 135.855 138.137 135.803 138.14 135.75V110C138.137 109.947 138.145 109.895 138.163 109.845C138.18 109.796 138.208 109.75 138.243 109.711C138.278 109.672 138.321 109.64 138.368 109.618C138.416 109.595 138.467 109.583 138.52 109.58H143.17C143.274 109.588 143.372 109.636 143.441 109.715C143.51 109.793 143.546 109.896 143.54 110V117.09C143.539 117.261 143.571 117.43 143.635 117.588C143.699 117.746 143.794 117.891 143.914 118.012C144.033 118.134 144.176 118.231 144.333 118.297C144.49 118.364 144.659 118.399 144.83 118.4C145.126 118.397 145.416 118.316 145.671 118.165C145.925 118.014 146.136 117.798 146.28 117.54L150.73 109.77C150.761 109.712 150.807 109.663 150.863 109.627C150.92 109.592 150.984 109.573 151.05 109.57H156.45V108.82M156.45 108.82H151.04C150.836 108.815 150.635 108.867 150.459 108.97C150.282 109.072 150.137 109.221 150.04 109.4L145.59 117.17C145.512 117.314 145.396 117.435 145.255 117.519C145.115 117.603 144.954 117.649 144.79 117.65C144.718 117.649 144.647 117.633 144.58 117.604C144.514 117.575 144.454 117.534 144.404 117.482C144.354 117.43 144.314 117.368 144.288 117.301C144.262 117.234 144.249 117.162 144.25 117.09V110C144.254 109.849 144.228 109.7 144.174 109.559C144.12 109.419 144.038 109.29 143.934 109.182C143.83 109.073 143.705 108.986 143.567 108.925C143.429 108.865 143.281 108.833 143.13 108.83H138.48C138.329 108.833 138.18 108.865 138.041 108.925C137.903 108.985 137.778 109.072 137.673 109.181C137.568 109.29 137.485 109.418 137.43 109.558C137.374 109.699 137.347 109.849 137.35 110V135.73C137.347 135.881 137.374 136.031 137.43 136.172C137.485 136.312 137.568 136.44 137.673 136.549C137.778 136.658 137.903 136.745 138.041 136.805C138.18 136.865 138.329 136.897 138.48 136.9H143.13C143.281 136.897 143.429 136.865 143.567 136.805C143.705 136.744 143.83 136.657 143.934 136.548C144.038 136.44 144.12 136.311 144.174 136.171C144.228 136.03 144.254 135.881 144.25 135.73V125.73C144.25 125.424 144.368 125.13 144.58 124.91L144.94 125.52L151.34 136.29C151.441 136.465 151.587 136.609 151.763 136.708C151.939 136.806 152.138 136.855 152.34 136.85H157.77C157.984 136.847 158.193 136.781 158.37 136.66C158.623 136.487 158.8 136.223 158.863 135.923C158.926 135.623 158.872 135.31 158.71 135.05L150.58 121.83C150.553 121.792 150.53 121.752 150.51 121.71V121.61L157.44 110.61C157.551 110.435 157.614 110.234 157.622 110.027C157.63 109.82 157.584 109.614 157.488 109.431C157.391 109.247 157.248 109.092 157.073 108.982C156.898 108.871 156.697 108.808 156.49 108.8L156.45 108.82Z" fill="url(#paint11_linear_4_451)"/>
<path d="M124.21 108.76C125.536 108.759 126.85 109.019 128.076 109.525C129.302 110.031 130.416 110.774 131.355 111.711C132.294 112.648 133.039 113.761 133.547 114.986C134.056 116.211 134.319 117.524 134.32 118.85V126.94C134.32 129.621 133.255 132.193 131.359 134.089C129.463 135.985 126.891 137.05 124.21 137.05C121.529 137.05 118.957 135.985 117.061 134.089C115.165 132.193 114.1 129.621 114.1 126.94V118.85C114.101 117.524 114.364 116.211 114.873 114.986C115.381 113.761 116.126 112.648 117.065 111.711C118.004 110.774 119.118 110.031 120.344 109.525C121.57 109.019 122.884 108.759 124.21 108.76ZM124.21 115.76C123.798 115.759 123.39 115.839 123.009 115.995C122.628 116.152 122.282 116.382 121.99 116.673C121.699 116.964 121.467 117.309 121.309 117.69C121.151 118.07 121.07 118.478 121.07 118.89V126.98C121.115 127.781 121.465 128.534 122.048 129.085C122.631 129.636 123.403 129.943 124.205 129.943C125.007 129.943 125.779 129.636 126.362 129.085C126.945 128.534 127.295 127.781 127.34 126.98V118.89C127.345 118.476 127.268 118.064 127.113 117.68C126.958 117.296 126.729 116.946 126.438 116.651C126.146 116.356 125.799 116.122 125.417 115.962C125.035 115.802 124.624 115.72 124.21 115.72V115.76Z" fill="url(#paint12_linear_4_451)"/>
<path d="M124.21 109.51C126.689 109.51 129.067 110.493 130.821 112.244C132.576 113.995 133.565 116.371 133.57 118.85V126.94C133.57 129.422 132.584 131.803 130.829 133.559C129.073 135.314 126.692 136.3 124.21 136.3C121.728 136.3 119.347 135.314 117.591 133.559C115.836 131.803 114.85 129.422 114.85 126.94V118.85C114.855 116.371 115.844 113.995 117.599 112.244C119.353 110.493 121.731 109.51 124.21 109.51ZM124.21 130.82C125.239 130.82 126.226 130.411 126.954 129.684C127.681 128.956 128.09 127.969 128.09 126.94V118.85C128.039 117.854 127.608 116.915 126.885 116.228C126.162 115.54 125.203 115.157 124.205 115.157C123.207 115.157 122.248 115.54 121.525 116.228C120.802 116.915 120.371 117.854 120.32 118.85V126.94C120.323 127.97 120.734 128.957 121.463 129.684C122.192 130.412 123.18 130.82 124.21 130.82ZM124.21 108.76C122.884 108.759 121.57 109.019 120.344 109.525C119.118 110.031 118.004 110.774 117.065 111.711C116.126 112.648 115.381 113.761 114.873 114.986C114.364 116.211 114.101 117.524 114.1 118.85V126.94C114.1 129.621 115.165 132.193 117.061 134.089C118.957 135.985 121.529 137.05 124.21 137.05C126.891 137.05 129.463 135.985 131.359 134.089C133.255 132.193 134.32 129.621 134.32 126.94V118.85C134.319 117.524 134.056 116.211 133.547 114.986C133.039 113.761 132.294 112.648 131.355 111.711C130.416 110.774 129.302 110.031 128.076 109.525C126.85 109.019 125.536 108.759 124.21 108.76ZM124.21 130.07C123.798 130.071 123.39 129.991 123.009 129.835C122.628 129.678 122.282 129.448 121.99 129.157C121.699 128.866 121.467 128.521 121.309 128.14C121.151 127.76 121.07 127.352 121.07 126.94V118.85C121.115 118.049 121.465 117.296 122.048 116.745C122.631 116.194 123.403 115.887 124.205 115.887C125.007 115.887 125.779 116.194 126.362 116.745C126.945 117.296 127.295 118.049 127.34 118.85V126.94C127.34 127.77 127.01 128.566 126.423 129.153C125.836 129.74 125.04 130.07 124.21 130.07Z" fill="url(#paint13_linear_4_451)"/>
<path d="M102.46 117.74C103.721 117.729 104.972 117.968 106.14 118.441C107.309 118.915 108.372 119.614 109.27 120.5C110.16 121.381 110.866 122.431 111.345 123.589C111.824 124.746 112.067 125.987 112.06 127.24C112.074 128.559 111.815 129.866 111.3 131.08C110.805 132.239 110.077 133.284 109.16 134.15C108.191 135.028 107.06 135.707 105.83 136.15C104.471 136.671 103.025 136.929 101.57 136.91C100.207 136.928 98.8524 136.701 97.57 136.24C96.4459 135.839 95.3978 135.251 94.47 134.5C93.1232 133.433 92.1441 131.971 91.67 130.32C91.5786 130.038 91.6032 129.73 91.7382 129.466C91.8732 129.202 92.1076 129.002 92.39 128.91C92.4779 128.884 92.5685 128.867 92.66 128.86L96.97 128.57C97.1899 128.555 97.4093 128.605 97.6012 128.714C97.7931 128.822 97.9491 128.984 98.05 129.18C98.1575 129.417 98.2953 129.639 98.46 129.84C98.7878 130.209 99.1811 130.514 99.62 130.74C100.397 131.112 101.268 131.242 102.12 131.113C102.972 130.985 103.767 130.604 104.4 130.02C104.772 129.649 105.067 129.207 105.268 128.722C105.47 128.236 105.573 127.716 105.573 127.19C105.573 126.664 105.47 126.144 105.268 125.658C105.067 125.173 104.772 124.731 104.4 124.36C104.023 123.989 103.576 123.696 103.085 123.498C102.594 123.301 102.069 123.203 101.54 123.21C100.91 123.187 100.284 123.31 99.71 123.57C99.2895 123.763 98.8988 124.016 98.55 124.32C98.3671 124.507 98.203 124.711 98.06 124.93C97.9591 125.081 97.8223 125.205 97.6617 125.291C97.5012 125.376 97.3219 125.421 97.14 125.42H93.14C92.843 125.42 92.5581 125.302 92.348 125.092C92.138 124.882 92.02 124.597 92.02 124.3C92.0151 124.26 92.0151 124.22 92.02 124.18L93.56 109.86C93.5897 109.584 93.7207 109.329 93.9276 109.145C94.1345 108.96 94.4026 108.858 94.68 108.86H108.84C109.137 108.86 109.422 108.978 109.632 109.188C109.842 109.398 109.96 109.683 109.96 109.98V114C109.96 114.297 109.842 114.582 109.632 114.792C109.422 115.002 109.137 115.12 108.84 115.12H100.05C99.775 115.123 99.5105 115.226 99.3062 115.41C99.1018 115.594 98.9716 115.847 98.94 116.12L98.58 118.9C98.9157 118.684 99.2746 118.506 99.65 118.37C100.031 118.204 100.426 118.07 100.83 117.97C101.361 117.821 101.909 117.743 102.46 117.74Z" fill="url(#paint14_linear_4_451)"/>
<path d="M108.93 109.66C109.027 109.663 109.12 109.702 109.189 109.771C109.258 109.84 109.297 109.933 109.3 110.03V114C109.3 114.098 109.261 114.192 109.192 114.262C109.122 114.331 109.028 114.37 108.93 114.37H100.14C99.6864 114.371 99.2487 114.537 98.9083 114.837C98.568 115.137 98.3482 115.55 98.29 116L97.92 118.78L97.72 120.36L99.07 119.51C99.3866 119.317 99.7216 119.156 100.07 119.03C100.411 118.879 100.766 118.762 101.13 118.68C101.571 118.567 102.025 118.513 102.48 118.52C103.666 118.513 104.842 118.741 105.94 119.19C106.993 119.627 107.951 120.266 108.76 121.07C109.582 121.878 110.233 122.844 110.675 123.909C111.116 124.974 111.339 126.117 111.33 127.27C111.339 128.489 111.101 129.696 110.63 130.82C110.168 131.887 109.487 132.844 108.63 133.63C107.737 134.461 106.691 135.109 105.55 135.54C104.271 136.017 102.915 136.255 101.55 136.24C100.286 136.256 99.0299 136.046 97.84 135.62C96.8116 135.238 95.8523 134.691 95 134C94.1895 133.355 93.5106 132.561 93 131.66C92.7448 131.175 92.5372 130.665 92.38 130.14C92.3471 130.05 92.3471 129.95 92.38 129.86C92.4273 129.774 92.5061 129.709 92.6 129.68H92.69L97.03 129.38C97.0991 129.381 97.1667 129.401 97.225 129.438C97.2834 129.475 97.3301 129.528 97.36 129.59C97.4956 129.875 97.6634 130.143 97.86 130.39C98.2494 130.832 98.7173 131.198 99.24 131.47C100.157 131.925 101.191 132.087 102.204 131.935C103.216 131.783 104.157 131.324 104.9 130.62C105.789 129.728 106.288 128.52 106.288 127.26C106.288 126 105.789 124.792 104.9 123.9C104.459 123.454 103.932 123.103 103.351 122.867C102.77 122.632 102.147 122.517 101.52 122.53C100.777 122.511 100.039 122.658 99.36 122.96C98.8707 123.198 98.4137 123.497 98 123.85C97.7844 124.075 97.5902 124.319 97.42 124.58C97.3864 124.629 97.3417 124.669 97.2895 124.697C97.2373 124.724 97.1792 124.739 97.12 124.74H93.12C93.0683 124.739 93.0174 124.727 92.9704 124.706C92.9234 124.684 92.8813 124.653 92.8467 124.615C92.8121 124.576 92.7856 124.531 92.769 124.482C92.7524 124.433 92.7459 124.382 92.75 124.33L94.4 110C94.4099 109.909 94.4532 109.825 94.5216 109.764C94.5899 109.703 94.6784 109.669 94.77 109.67H108.93M108.93 108.92H94.77C94.4926 108.918 94.2245 109.02 94.0176 109.205C93.8107 109.389 93.6797 109.644 93.65 109.92L92.11 124.24C92.1051 124.28 92.1051 124.32 92.11 124.36C92.11 124.657 92.228 124.942 92.438 125.152C92.6481 125.362 92.933 125.48 93.23 125.48H97.23C97.4119 125.481 97.5912 125.436 97.7517 125.351C97.9123 125.265 98.0491 125.141 98.15 124.99C98.293 124.771 98.4571 124.567 98.64 124.38C98.9888 124.076 99.3795 123.823 99.8 123.63C100.374 123.37 101 123.247 101.63 123.27C102.159 123.263 102.684 123.361 103.175 123.558C103.666 123.756 104.113 124.049 104.49 124.42C104.862 124.791 105.157 125.233 105.358 125.718C105.56 126.204 105.663 126.724 105.663 127.25C105.663 127.776 105.56 128.296 105.358 128.782C105.157 129.267 104.862 129.709 104.49 130.08C103.857 130.664 103.062 131.045 102.21 131.173C101.358 131.302 100.487 131.172 99.71 130.8C99.2731 130.571 98.8804 130.266 98.55 129.9C98.3853 129.699 98.2475 129.477 98.14 129.24C98.0472 129.054 97.9046 128.898 97.728 128.788C97.5514 128.679 97.3478 128.62 97.14 128.62H97L92.69 128.91C92.5985 128.917 92.5079 128.934 92.42 128.96C92.1376 129.052 91.9032 129.252 91.7682 129.516C91.6332 129.78 91.6086 130.088 91.7 130.37C92.1741 132.021 93.1532 133.483 94.5 134.55C95.4278 135.301 96.4759 135.889 97.6 136.29C98.8824 136.751 100.237 136.978 101.6 136.96C103.055 136.979 104.501 136.721 105.86 136.2C107.089 135.755 108.22 135.076 109.19 134.2C110.107 133.334 110.835 132.289 111.33 131.13C111.845 129.916 112.104 128.609 112.09 127.29C112.097 126.037 111.854 124.796 111.375 123.639C110.896 122.481 110.19 121.431 109.3 120.55C108.402 119.664 107.339 118.965 106.17 118.491C105.002 118.018 103.751 117.779 102.49 117.79C101.971 117.785 101.454 117.845 100.95 117.97C100.546 118.07 100.151 118.204 99.77 118.37C99.3946 118.506 99.0357 118.684 98.7 118.9L99.06 116.12C99.0916 115.847 99.2218 115.594 99.4262 115.41C99.6305 115.226 99.895 115.123 100.17 115.12H108.96C109.257 115.12 109.542 115.002 109.752 114.792C109.962 114.582 110.08 114.297 110.08 114V110C110.08 109.703 109.962 109.418 109.752 109.208C109.542 108.998 109.257 108.88 108.96 108.88L108.93 108.92Z" fill="url(#paint15_linear_4_451)"/>
<path d="M79.83 136.92C78.6537 136.929 77.4789 136.832 76.32 136.63C75.3374 136.461 74.3777 136.18 73.46 135.79C72.6175 135.424 71.83 134.943 71.12 134.36C70.5679 133.908 70.0621 133.402 69.61 132.85C69.5452 132.779 69.4967 132.695 69.4679 132.603C69.439 132.512 69.4305 132.415 69.4428 132.32C69.4552 132.225 69.4882 132.133 69.5395 132.052C69.5909 131.971 69.6593 131.902 69.74 131.85L74.06 128.73C74.1983 128.625 74.3724 128.579 74.5446 128.601C74.7169 128.624 74.8733 128.713 74.98 128.85C75.4564 129.504 76.0844 130.032 76.81 130.39C77.7455 130.837 78.7735 131.056 79.81 131.03C80.7703 131.073 81.7203 130.818 82.53 130.3C82.8644 130.053 83.1313 129.725 83.3061 129.348C83.4808 128.97 83.5578 128.555 83.53 128.14C83.5505 127.737 83.4585 127.337 83.2642 126.984C83.0699 126.63 82.781 126.338 82.43 126.14C81.5125 125.639 80.4737 125.404 79.43 125.46H77.2C77.0214 125.46 76.8499 125.39 76.7227 125.264C76.5954 125.139 76.5226 124.969 76.52 124.79V120.4C76.52 120.22 76.5916 120.047 76.7192 119.919C76.8467 119.792 77.0196 119.72 77.2 119.72H79.3C80.3241 119.8 81.3419 119.501 82.16 118.88C82.448 118.632 82.6799 118.325 82.8403 117.98C83.0006 117.635 83.0858 117.26 83.09 116.88C83.0901 116.534 83.0151 116.192 82.87 115.878C82.725 115.563 82.5134 115.284 82.25 115.06C81.4913 114.486 80.5479 114.212 79.6 114.29C78.5868 114.253 77.5841 114.506 76.71 115.02C76.1105 115.401 75.5992 115.906 75.21 116.5C75.1199 116.638 74.9794 116.735 74.8187 116.77C74.658 116.806 74.4898 116.777 74.35 116.69L70.2 114.14C70.1189 114.089 70.0495 114.022 69.9962 113.942C69.943 113.862 69.9072 113.772 69.8912 113.678C69.8751 113.584 69.8792 113.487 69.9031 113.394C69.927 113.301 69.9703 113.215 70.03 113.14C71.0138 111.874 72.2721 110.849 73.71 110.14C75.5059 109.252 77.4868 108.803 79.49 108.83C80.9164 108.811 82.3379 109 83.71 109.39C84.8568 109.72 85.9342 110.255 86.89 110.97C87.7469 111.623 88.4331 112.474 88.89 113.45C89.3686 114.469 89.6081 115.584 89.59 116.71C89.606 117.826 89.3265 118.927 88.78 119.9C88.3847 120.603 87.8781 121.238 87.28 121.78C87.2002 121.85 87.1373 121.937 87.0961 122.035C87.055 122.133 87.0366 122.239 87.0424 122.345C87.0482 122.451 87.0779 122.554 87.1295 122.647C87.1811 122.739 87.253 122.819 87.34 122.88C88.0772 123.398 88.7114 124.049 89.21 124.8C89.8915 125.871 90.2396 127.121 90.21 128.39C90.2163 129.554 89.9742 130.707 89.5 131.77C89.0165 132.822 88.3102 133.757 87.43 134.51C86.4672 135.316 85.3613 135.933 84.17 136.33C82.7661 136.766 81.2994 136.966 79.83 136.92Z" fill="url(#paint16_linear_4_451)"/>
<path d="M79.49 109.51C80.8419 109.493 82.1893 109.671 83.49 110.04C84.5443 110.347 85.5362 110.838 86.42 111.49C87.183 112.075 87.7964 112.832 88.21 113.7C88.6317 114.622 88.8435 115.626 88.83 116.64C88.8434 117.626 88.5987 118.598 88.12 119.46C87.7624 120.097 87.303 120.671 86.76 121.16C86.598 121.307 86.4716 121.488 86.3901 121.691C86.3087 121.894 86.2745 122.112 86.29 122.33C86.3011 122.546 86.3619 122.757 86.4677 122.946C86.5735 123.135 86.7214 123.297 86.9 123.42C87.5642 123.885 88.1343 124.472 88.58 125.15C89.168 126.1 89.4636 127.203 89.43 128.32C89.4359 129.378 89.2142 130.425 88.78 131.39C88.3462 132.344 87.7078 133.191 86.91 133.87C86.0273 134.618 85.0087 135.188 83.91 135.55C82.5968 135.98 81.2216 136.189 79.84 136.17C78.7077 136.175 77.5771 136.085 76.46 135.9C75.536 135.736 74.6336 135.467 73.77 135.1C72.991 134.759 72.2612 134.315 71.6 133.78C71.1084 133.377 70.6564 132.929 70.25 132.44L74.44 129.44C74.9727 130.145 75.6559 130.722 76.44 131.13C77.4759 131.624 78.6125 131.871 79.76 131.85C80.8783 131.897 81.9833 131.593 82.92 130.98C83.3548 130.665 83.7048 130.247 83.9386 129.764C84.1724 129.28 84.2829 128.746 84.26 128.21C84.2782 127.68 84.1519 127.156 83.8947 126.693C83.6375 126.229 83.2591 125.845 82.8 125.58C81.7794 125.017 80.6245 124.744 79.46 124.79H77.27V120.51H79.27C80.475 120.602 81.6716 120.246 82.63 119.51C83.0034 119.188 83.3024 118.789 83.5061 118.34C83.7099 117.891 83.8136 117.403 83.81 116.91C83.8135 116.459 83.7176 116.013 83.5292 115.603C83.3409 115.194 83.0646 114.831 82.72 114.54C81.8325 113.824 80.7082 113.467 79.57 113.54C78.4151 113.507 77.2744 113.802 76.28 114.39C75.6222 114.803 75.057 115.348 74.62 115.99L70.62 113.55C71.5326 112.391 72.6903 111.449 74.01 110.79C75.6998 109.953 77.5647 109.532 79.45 109.56M79.45 108.81C77.4468 108.783 75.4659 109.232 73.67 110.12C72.2321 110.829 70.9738 111.854 69.99 113.12C69.9303 113.195 69.887 113.281 69.8631 113.374C69.8392 113.467 69.8351 113.564 69.8512 113.658C69.8672 113.752 69.903 113.842 69.9562 113.922C70.0095 114.002 70.0789 114.069 70.16 114.12L74.31 116.67C74.4137 116.729 74.5308 116.76 74.65 116.76C74.753 116.759 74.8542 116.734 74.9448 116.685C75.0355 116.636 75.1128 116.566 75.17 116.48C75.5592 115.886 76.0705 115.381 76.67 115C77.5441 114.486 78.5468 114.233 79.56 114.27C80.5079 114.192 81.4513 114.466 82.21 115.04C82.4734 115.264 82.685 115.543 82.83 115.858C82.9751 116.172 83.0501 116.514 83.05 116.86C83.0458 117.24 82.9606 117.615 82.8003 117.96C82.6399 118.305 82.408 118.612 82.12 118.86C81.3019 119.481 80.2841 119.78 79.26 119.7H77.2C77.1107 119.7 77.0223 119.718 76.9398 119.752C76.8573 119.786 76.7823 119.836 76.7192 119.899C76.656 119.962 76.6059 120.037 76.5718 120.12C76.5376 120.202 76.52 120.291 76.52 120.38V124.81C76.5226 124.989 76.5954 125.159 76.7227 125.284C76.8499 125.41 77.0214 125.48 77.2 125.48H79.49C80.5337 125.424 81.5725 125.659 82.49 126.16C82.841 126.358 83.1299 126.65 83.3242 127.004C83.5185 127.357 83.6105 127.757 83.59 128.16C83.6178 128.575 83.5408 128.99 83.3661 129.368C83.1913 129.745 82.9244 130.073 82.59 130.32C81.7803 130.838 80.8303 131.093 79.87 131.05C78.8335 131.076 77.8055 130.857 76.87 130.41C76.131 130.061 75.4889 129.535 75 128.88C74.8918 128.745 74.7356 128.657 74.5641 128.635C74.3927 128.613 74.2192 128.657 74.08 128.76L69.76 131.88C69.6793 131.932 69.6109 132.001 69.5595 132.082C69.5082 132.163 69.4752 132.255 69.4628 132.35C69.4505 132.445 69.459 132.542 69.4879 132.633C69.5167 132.725 69.5652 132.809 69.63 132.88C70.0821 133.432 70.5879 133.938 71.14 134.39C71.85 134.973 72.6375 135.454 73.48 135.82C74.3977 136.21 75.3574 136.491 76.34 136.66C77.4989 136.862 78.6737 136.959 79.85 136.95C81.3166 136.971 82.7765 136.748 84.17 136.29C85.3613 135.893 86.4672 135.276 87.43 134.47C88.3102 133.717 89.0165 132.782 89.5 131.73C89.9742 130.667 90.2163 129.514 90.21 128.35C90.2396 127.081 89.8915 125.831 89.21 124.76C88.7114 124.009 88.0772 123.358 87.34 122.84C87.253 122.779 87.1811 122.699 87.1295 122.607C87.0779 122.514 87.0482 122.411 87.0424 122.305C87.0366 122.199 87.055 122.093 87.0961 121.995C87.1373 121.897 87.2002 121.81 87.28 121.74C87.8781 121.198 88.3847 120.563 88.78 119.86C89.3265 118.887 89.606 117.786 89.59 116.67C89.6081 115.544 89.3686 114.429 88.89 113.41C88.4331 112.434 87.7469 111.583 86.89 110.93C85.9342 110.215 84.8568 109.68 83.71 109.35C82.3379 108.96 80.9164 108.771 79.49 108.79L79.45 108.81Z" fill="url(#paint17_linear_4_451)"/>
</g>
<defs>
<linearGradient id="paint0_linear_4_451" x1="140.71" y1="-16.2" x2="91.83" y2="261.03" gradientUnits="userSpaceOnUse">
<stop offset="0.25" stop-color="#F6E594"/>
<stop offset="0.38" stop-color="#F5E492"/>
<stop offset="0.43" stop-color="#F2DE8B"/>
<stop offset="0.47" stop-color="#ECD580"/>
<stop offset="0.49" stop-color="#E4C86F"/>
<stop offset="0.5" stop-color="#E2C46A"/>
<stop offset="0.61" stop-color="#C89E3F"/>
<stop offset="0.72" stop-color="#E8D17E"/>
<stop offset="0.76" stop-color="#E5CE7C"/>
<stop offset="0.79" stop-color="#DCC574"/>
<stop offset="0.81" stop-color="#CDB568"/>
<stop offset="0.83" stop-color="#B79F57"/>
<stop offset="0.86" stop-color="#9B8240"/>
<stop offset="0.88" stop-color="#684E18"/>
</linearGradient>
<linearGradient id="paint1_linear_4_451" x1="140.67" y1="-15.98" x2="91.86" y2="260.81" gradientUnits="userSpaceOnUse">
<stop offset="0.25" stop-color="#F6E594"/>
<stop offset="0.38" stop-color="#F5E492"/>
<stop offset="0.43" stop-color="#F2DE8B"/>
<stop offset="0.47" stop-color="#ECD580"/>
<stop offset="0.49" stop-color="#E4C86F"/>
<stop offset="0.5" stop-color="#E2C46A"/>
<stop offset="0.61" stop-color="#C89E3F"/>
<stop offset="0.72" stop-color="#E8D17E"/>
<stop offset="0.76" stop-color="#E5CE7C"/>
<stop offset="0.79" stop-color="#DCC574"/>
<stop offset="0.81" stop-color="#CDB568"/>
<stop offset="0.83" stop-color="#B79F57"/>
<stop offset="0.86" stop-color="#9B8240"/>
<stop offset="0.88" stop-color="#684E18"/>
</linearGradient>
<linearGradient id="paint2_linear_4_451" x1="146.14" y1="16.5" x2="67.15" y2="233.51" gradientUnits="userSpaceOnUse">
<stop stop-color="#F6E594"/>
<stop offset="0.33" stop-color="#F6E492"/>
<stop offset="0.45" stop-color="#F4DF8B"/>
<stop offset="0.53" stop-color="#F2D880"/>
<stop offset="0.6" stop-color="#EFCD6F"/>
<stop offset="0.65" stop-color="#EBC15C"/>
<stop offset="0.7" stop-color="#C89D47"/>
<stop offset="0.82" stop-color="#7A4D18"/>
<stop offset="0.97" stop-color="#C1914C"/>
</linearGradient>
<linearGradient id="paint3_linear_4_451" x1="166.09" y1="34.2" x2="53.02" y2="230.04" gradientUnits="userSpaceOnUse">
<stop stop-color="#FFFFAD"/>
<stop offset="0.26" stop-color="#F6E594"/>
<stop offset="0.34" stop-color="#F5E492"/>
<stop offset="0.37" stop-color="#F2DE8B"/>
<stop offset="0.39" stop-color="#ECD580"/>
<stop offset="0.41" stop-color="#E2C46A"/>
<stop offset="0.51" stop-color="#A68C46"/>
<stop offset="0.66" stop-color="#564217"/>
<stop offset="0.68" stop-color="#75612D"/>
<stop offset="0.73" stop-color="#C7B167"/>
<stop offset="0.75" stop-color="#E8D17E"/>
<stop offset="0.78" stop-color="#E5CE7C"/>
<stop offset="0.81" stop-color="#DDC574"/>
<stop offset="0.83" stop-color="#CFB568"/>
<stop offset="0.85" stop-color="#BB9F56"/>
<stop offset="0.86" stop-color="#A2823F"/>
<stop offset="0.88" stop-color="#825E23"/>
<stop offset="0.9" stop-color="#5B3200"/>
</linearGradient>
<linearGradient id="paint4_linear_4_451" x1="116.21" y1="155.95" x2="116.21" y2="166.49" gradientUnits="userSpaceOnUse">
<stop stop-color="#F6E594"/>
<stop offset="0.21" stop-color="#F5E492"/>
<stop offset="0.29" stop-color="#F2DE8B"/>
<stop offset="0.34" stop-color="#ECD580"/>
<stop offset="0.39" stop-color="#E4C86F"/>
<stop offset="0.4" stop-color="#E2C46A"/>
<stop offset="0.49" stop-color="#BA9D4E"/>
<stop offset="0.69" stop-color="#6A4E17"/>
<stop offset="0.72" stop-color="#6F531B"/>
<stop offset="0.75" stop-color="#7D6227"/>
<stop offset="0.79" stop-color="#957B3A"/>
<stop offset="0.83" stop-color="#B69D55"/>
<stop offset="0.86" stop-color="#E0C977"/>
<stop offset="0.87" stop-color="#E8D17E"/>
<stop offset="0.9" stop-color="#E5CE7C"/>
<stop offset="0.92" stop-color="#DCC574"/>
<stop offset="0.94" stop-color="#CDB568"/>
<stop offset="0.96" stop-color="#B79F57"/>
<stop offset="0.98" stop-color="#9B8240"/>
<stop offset="0.99" stop-color="#785F25"/>
<stop offset="1" stop-color="#684E18"/>
</linearGradient>
<linearGradient id="paint5_linear_4_451" x1="116.34" y1="76.23" x2="116.34" y2="86.77" gradientUnits="userSpaceOnUse">
<stop stop-color="#F6E594"/>
<stop offset="0.21" stop-color="#F5E492"/>
<stop offset="0.29" stop-color="#F2DE8B"/>
<stop offset="0.34" stop-color="#ECD580"/>
<stop offset="0.39" stop-color="#E4C86F"/>
<stop offset="0.4" stop-color="#E2C46A"/>
<stop offset="0.49" stop-color="#BA9D4E"/>
<stop offset="0.69" stop-color="#6A4E17"/>
<stop offset="0.72" stop-color="#6F531B"/>
<stop offset="0.75" stop-color="#7D6227"/>
<stop offset="0.79" stop-color="#957B3A"/>
<stop offset="0.83" stop-color="#B69D55"/>
<stop offset="0.86" stop-color="#E0C977"/>
<stop offset="0.87" stop-color="#E8D17E"/>
<stop offset="0.9" stop-color="#E5CE7C"/>
<stop offset="0.92" stop-color="#DCC574"/>
<stop offset="0.94" stop-color="#CDB568"/>
<stop offset="0.96" stop-color="#B79F57"/>
<stop offset="0.98" stop-color="#9B8240"/>
<stop offset="0.99" stop-color="#785F25"/>
<stop offset="1" stop-color="#684E18"/>
</linearGradient>
<linearGradient id="paint6_linear_4_451" x1="148.19" y1="105.82" x2="148.19" y2="152.75" gradientUnits="userSpaceOnUse">
<stop stop-color="#F6E594"/>
<stop offset="0.36" stop-color="#F6E492"/>
<stop offset="0.5" stop-color="#F4DF8B"/>
<stop offset="0.59" stop-color="#F2D880"/>
<stop offset="0.66" stop-color="#EFCD6F"/>
<stop offset="0.72" stop-color="#EBC15C"/>
<stop offset="0.77" stop-color="#C89D47"/>
<stop offset="0.88" stop-color="#7A4D18"/>
<stop offset="0.95" stop-color="#C1914C"/>
<stop offset="0.96" stop-color="#BE8F4A"/>
<stop offset="0.97" stop-color="#B58742"/>
<stop offset="0.98" stop-color="#A57B36"/>
<stop offset="0.99" stop-color="#8F6924"/>
<stop offset="1" stop-color="#624600"/>
</linearGradient>
<linearGradient id="paint7_linear_4_451" x1="124.21" y1="105.76" x2="124.21" y2="152.91" gradientUnits="userSpaceOnUse">
<stop stop-color="#F6E594"/>
<stop offset="0.36" stop-color="#F6E492"/>
<stop offset="0.5" stop-color="#F4DF8B"/>
<stop offset="0.59" stop-color="#F2D880"/>
<stop offset="0.66" stop-color="#EFCD6F"/>
<stop offset="0.72" stop-color="#EBC15C"/>
<stop offset="0.77" stop-color="#C89D47"/>
<stop offset="0.88" stop-color="#7A4D18"/>
<stop offset="0.95" stop-color="#C1914C"/>
<stop offset="0.96" stop-color="#BE8F4A"/>
<stop offset="0.97" stop-color="#B58742"/>
<stop offset="0.98" stop-color="#A57B36"/>
<stop offset="0.99" stop-color="#8F6924"/>
<stop offset="1" stop-color="#624600"/>
</linearGradient>
<linearGradient id="paint8_linear_4_451" x1="101.85" y1="105.91" x2="101.85" y2="152.76" gradientUnits="userSpaceOnUse">
<stop stop-color="#F6E594"/>
<stop offset="0.36" stop-color="#F6E492"/>
<stop offset="0.5" stop-color="#F4DF8B"/>
<stop offset="0.59" stop-color="#F2D880"/>
<stop offset="0.66" stop-color="#EFCD6F"/>
<stop offset="0.72" stop-color="#EBC15C"/>
<stop offset="0.77" stop-color="#C89D47"/>
<stop offset="0.88" stop-color="#7A4D18"/>
<stop offset="0.95" stop-color="#C1914C"/>
<stop offset="0.96" stop-color="#BE8F4A"/>
<stop offset="0.97" stop-color="#B58742"/>
<stop offset="0.98" stop-color="#A57B36"/>
<stop offset="0.99" stop-color="#8F6924"/>
<stop offset="1" stop-color="#624600"/>
</linearGradient>
<linearGradient id="paint9_linear_4_451" x1="79.82" y1="105.76" x2="79.82" y2="152.76" gradientUnits="userSpaceOnUse">
<stop stop-color="#F6E594"/>
<stop offset="0.36" stop-color="#F6E492"/>
<stop offset="0.5" stop-color="#F4DF8B"/>
<stop offset="0.59" stop-color="#F2D880"/>
<stop offset="0.66" stop-color="#EFCD6F"/>
<stop offset="0.72" stop-color="#EBC15C"/>
<stop offset="0.77" stop-color="#C89D47"/>
<stop offset="0.88" stop-color="#7A4D18"/>
<stop offset="0.95" stop-color="#C1914C"/>
<stop offset="0.96" stop-color="#BE8F4A"/>
<stop offset="0.97" stop-color="#B58742"/>
<stop offset="0.98" stop-color="#A57B36"/>
<stop offset="0.99" stop-color="#8F6924"/>
<stop offset="1" stop-color="#624600"/>
</linearGradient>
<linearGradient id="paint10_linear_4_451" x1="148.2" y1="150.98" x2="148.2" y2="112.74" gradientUnits="userSpaceOnUse">
<stop stop-color="#F6E594"/>
<stop offset="0.17" stop-color="#F6E492"/>
<stop offset="0.24" stop-color="#F4DF8B"/>
<stop offset="0.28" stop-color="#F2D880"/>
<stop offset="0.32" stop-color="#EFCD6F"/>
<stop offset="0.35" stop-color="#EBC15C"/>
<stop offset="0.4" stop-color="#C89D47"/>
<stop offset="0.54" stop-color="#7A4D18"/>
<stop offset="0.66" stop-color="#B68644"/>
<stop offset="0.88" stop-color="#F5E08C"/>
</linearGradient>
<linearGradient id="paint11_linear_4_451" x1="148.2" y1="108.82" x2="148.2" y2="136.92" gradientUnits="userSpaceOnUse">
<stop stop-color="#FFF7AB"/>
<stop offset="0.41" stop-color="#F6E594"/>
<stop offset="0.57" stop-color="#F6E492"/>
<stop offset="0.62" stop-color="#F4DF8B"/>
<stop offset="0.66" stop-color="#F2D880"/>
<stop offset="0.7" stop-color="#EFCD6F"/>
<stop offset="0.72" stop-color="#EBC15C"/>
<stop offset="0.77" stop-color="#C89D47"/>
<stop offset="0.88" stop-color="#7A4D18"/>
<stop offset="0.91" stop-color="#C1914C"/>
<stop offset="0.92" stop-color="#BE8E4A"/>
<stop offset="0.94" stop-color="#B58643"/>
<stop offset="0.95" stop-color="#A57838"/>
<stop offset="0.96" stop-color="#724A14"/>
<stop offset="0.97" stop-color="#553000"/>
</linearGradient>
<linearGradient id="paint12_linear_4_451" x1="124.21" y1="151.17" x2="124.21" y2="112.7" gradientUnits="userSpaceOnUse">
<stop stop-color="#F6E594"/>
<stop offset="0.17" stop-color="#F6E492"/>
<stop offset="0.24" stop-color="#F4DF8B"/>
<stop offset="0.28" stop-color="#F2D880"/>
<stop offset="0.32" stop-color="#EFCD6F"/>
<stop offset="0.35" stop-color="#EBC15C"/>
<stop offset="0.4" stop-color="#C89D47"/>
<stop offset="0.54" stop-color="#7A4D18"/>
<stop offset="0.66" stop-color="#B68644"/>
<stop offset="0.88" stop-color="#F5E08C"/>
</linearGradient>
<linearGradient id="paint13_linear_4_451" x1="124.21" y1="108.76" x2="124.21" y2="137.03" gradientUnits="userSpaceOnUse">
<stop stop-color="#FFF7AB"/>
<stop offset="0.41" stop-color="#F6E594"/>
<stop offset="0.57" stop-color="#F6E492"/>
<stop offset="0.62" stop-color="#F4DF8B"/>
<stop offset="0.66" stop-color="#F2D880"/>
<stop offset="0.7" stop-color="#EFCD6F"/>
<stop offset="0.72" stop-color="#EBC15C"/>
<stop offset="0.77" stop-color="#C89D47"/>
<stop offset="0.88" stop-color="#7A4D18"/>
<stop offset="0.91" stop-color="#C1914C"/>
<stop offset="0.92" stop-color="#BE8E4A"/>
<stop offset="0.94" stop-color="#B58643"/>
<stop offset="0.95" stop-color="#A57838"/>
<stop offset="0.96" stop-color="#724A14"/>
<stop offset="0.97" stop-color="#553000"/>
</linearGradient>
<linearGradient id="paint14_linear_4_451" x1="101.85" y1="150.98" x2="101.85" y2="112.82" gradientUnits="userSpaceOnUse">
<stop stop-color="#F6E594"/>
<stop offset="0.17" stop-color="#F6E492"/>
<stop offset="0.24" stop-color="#F4DF8B"/>
<stop offset="0.28" stop-color="#F2D880"/>
<stop offset="0.32" stop-color="#EFCD6F"/>
<stop offset="0.35" stop-color="#EBC15C"/>
<stop offset="0.4" stop-color="#C89D47"/>
<stop offset="0.54" stop-color="#7A4D18"/>
<stop offset="0.66" stop-color="#B68644"/>
<stop offset="0.88" stop-color="#F5E08C"/>
</linearGradient>
<linearGradient id="paint15_linear_4_451" x1="101.85" y1="108.91" x2="101.85" y2="136.96" gradientUnits="userSpaceOnUse">
<stop stop-color="#FFF7AB"/>
<stop offset="0.41" stop-color="#F6E594"/>
<stop offset="0.57" stop-color="#F6E492"/>
<stop offset="0.62" stop-color="#F4DF8B"/>
<stop offset="0.66" stop-color="#F2D880"/>
<stop offset="0.7" stop-color="#EFCD6F"/>
<stop offset="0.72" stop-color="#EBC15C"/>
<stop offset="0.77" stop-color="#C89D47"/>
<stop offset="0.88" stop-color="#7A4D18"/>
<stop offset="0.91" stop-color="#C1914C"/>
<stop offset="0.92" stop-color="#BE8E4A"/>
<stop offset="0.94" stop-color="#B58643"/>
<stop offset="0.95" stop-color="#A57838"/>
<stop offset="0.96" stop-color="#724A14"/>
<stop offset="0.97" stop-color="#553000"/>
</linearGradient>
<linearGradient id="paint16_linear_4_451" x1="79.82" y1="108.76" x2="79.82" y2="147.5" gradientUnits="userSpaceOnUse">
<stop stop-color="#F6E594"/>
<stop offset="0.17" stop-color="#F6E492"/>
<stop offset="0.24" stop-color="#F4DF8B"/>
<stop offset="0.28" stop-color="#F2D880"/>
<stop offset="0.32" stop-color="#EFCD6F"/>
<stop offset="0.35" stop-color="#EBC15C"/>
<stop offset="0.4" stop-color="#C89D47"/>
<stop offset="0.54" stop-color="#7A4D18"/>
<stop offset="0.66" stop-color="#B68644"/>
<stop offset="0.77" stop-color="#C1914C"/>
<stop offset="0.8" stop-color="#C3944E"/>
<stop offset="0.82" stop-color="#C99D56"/>
<stop offset="0.84" stop-color="#D3AD63"/>
<stop offset="0.86" stop-color="#E2C375"/>
<stop offset="0.88" stop-color="#F5E08C"/>
</linearGradient>
<linearGradient id="paint17_linear_4_451" x1="79.82" y1="108.76" x2="79.82" y2="136.92" gradientUnits="userSpaceOnUse">
<stop stop-color="#FFF7AB"/>
<stop offset="0.41" stop-color="#F6E594"/>
<stop offset="0.57" stop-color="#F6E492"/>
<stop offset="0.62" stop-color="#F4DF8B"/>
<stop offset="0.66" stop-color="#F2D880"/>
<stop offset="0.7" stop-color="#EFCD6F"/>
<stop offset="0.72" stop-color="#EBC15C"/>
<stop offset="0.77" stop-color="#C89D47"/>
<stop offset="0.88" stop-color="#7A4D18"/>
<stop offset="0.91" stop-color="#C1914C"/>
<stop offset="0.92" stop-color="#BE8E4A"/>
<stop offset="0.94" stop-color="#B58643"/>
<stop offset="0.95" stop-color="#A57838"/>
<stop offset="0.96" stop-color="#724A14"/>
<stop offset="0.97" stop-color="#553000"/>
</linearGradient>
</defs>
</svg>
