<svg width="233" height="232" viewBox="0 0 233 232" fill="none" xmlns="http://www.w3.org/2000/svg">
<mask id="mask0_4_814" style="mask-type:luminance" maskUnits="userSpaceOnUse" x="0" y="0" width="233" height="232">
<path d="M232.57 0H0V231.49H232.57V0Z" fill="white"/>
</mask>
<g mask="url(#mask0_4_814)">
<path d="M115.37 24.78L145.65 86.13L213.35 95.97L164.36 143.72L175.92 211.15L115.37 179.31L54.82 211.15L66.38 143.72L17.39 95.97L85.09 86.13L115.37 24.78Z" fill="black"/>
<mask id="mask1_4_814" style="mask-type:luminance" maskUnits="userSpaceOnUse" x="18" y="24" width="197" height="188">
<path d="M116.37 24.78L146.65 86.13L214.35 95.97L165.36 143.72L176.92 211.15L116.37 179.31L55.82 211.15L67.38 143.72L18.39 95.97L86.09 86.13L116.37 24.78Z" fill="white"/>
</mask>
<g mask="url(#mask1_4_814)">
<path d="M131.14 143.87L199.3 237.68L200.23 237L131.86 142.9C131.676 143.262 131.433 143.589 131.14 143.87Z" fill="url(#paint0_linear_4_814)"/>
<path d="M258.32 121.84H119.9L251.55 79.07L251.19 77.97L119.54 120.75L231.54 39.38L230.86 38.45L118.86 119.82L200.22 7.81997L199.29 7.13997L117.92 119.14L160.71 -12.51L159.62 -12.86L116.84 118.79V-19.64H115.69V118.79L72.92 -12.86L71.82 -12.51L114.6 119.14L33.23 7.14997L32.3 7.82996L113.67 119.83L1.68002 38.45L1.00002 39.38L113 120.75L-18.66 78L-19.01 79.1L112.64 121.87H-25.79V123H112.64L-19 165.77L-18.65 166.86L113 124.08L1.00002 205.45L1.68002 206.38L113.68 125.02L32.3 237L33.23 237.68L114.6 125.68L71.82 257.34L72.92 257.7L115.69 126.05V264.47H116.84V126.05L159.62 257.7L160.71 257.34L117.93 125.69L126.47 137.43C126.81 137.224 127.182 137.075 127.57 136.99L118.87 124.99L230.87 206.35L231.55 205.42L119.55 124.05L251.2 166.83L251.56 165.74L119.9 123H258.32V121.84Z" fill="url(#paint1_linear_4_814)"/>
<path d="M131.29 143.73L199.34 237.4L200 237L131.76 143.1C131.63 143.328 131.472 143.54 131.29 143.73Z" fill="url(#paint2_linear_4_814)"/>
<path d="M258.12 122H118.63L251.3 78.9399L251.06 78.2199L118.4 121.33L231.25 39.3299L230.81 38.7199L118 120.72L200 7.86994L199.39 7.42994L117.39 120.28L160.46 -12.3801L159.75 -12.6101L116.64 120.05V-19.4401H115.89V120.05L72.79 -12.6101L72.07 -12.3801L115.18 120.28L33.19 7.42994L32.58 7.86994L114.58 120.72L1.72003 38.7299L1.28004 39.3399L114.13 121.34L-18.53 78.2199L-18.76 78.9399L113.9 122H-25.59V122.75H113.9L-18.76 165.9L-18.53 166.61L114.13 123.5L1.28004 205.5L1.72003 206.11L114.57 124.11L32.58 237L33.19 237.44L115.19 124.59L72.07 257.21L72.79 257.45L115.89 124.78V264.27H116.64V124.78L159.75 257.45L160.46 257.21L117.35 124.55L126.64 137.33C126.874 137.216 127.118 137.126 127.37 137.06L117.96 124.06L230.81 206.06L231.25 205.45L118.4 123.45L251.06 166.56L251.3 165.85L118.63 122.79H258.12V122Z" fill="url(#paint3_linear_4_814)"/>
</g>
<path d="M185.47 225.46L117.18 187.89C116.884 187.727 116.552 187.642 116.215 187.642C115.878 187.642 115.546 187.727 115.25 187.89L47 225.45C46.6758 225.642 46.304 225.739 45.9273 225.729C45.5507 225.719 45.1845 225.603 44.871 225.394C44.5575 225.184 44.3094 224.891 44.1553 224.547C44.0012 224.203 43.9474 223.823 44 223.45L55.16 148.45C55.2051 148.143 55.178 147.829 55.0808 147.534C54.9836 147.239 54.819 146.97 54.6 146.75L1.48001 93.5401C1.22291 93.2857 1.03959 92.9664 0.949572 92.6161C0.859552 92.2659 0.866197 91.8977 0.968802 91.5509C1.07141 91.2041 1.26613 90.8916 1.53224 90.6467C1.79836 90.4018 2.1259 90.2336 2.48001 90.1601L75.48 75.3901C75.7641 75.3313 76.032 75.2114 76.2651 75.0387C76.4982 74.866 76.691 74.6447 76.83 74.3901L114.55 6.80005C114.721 6.48255 114.975 6.21732 115.285 6.03246C115.595 5.8476 115.949 5.75 116.31 5.75C116.671 5.75 117.025 5.8476 117.335 6.03246C117.645 6.21732 117.899 6.48255 118.07 6.80005L154.65 75.2801C154.794 75.5404 154.995 75.7653 155.237 75.9383C155.479 76.1113 155.757 76.2281 156.05 76.2801L230 90.0001C230.36 90.0653 230.696 90.2281 230.97 90.4708C231.244 90.7135 231.446 91.0267 231.554 91.3764C231.662 91.726 231.673 92.0987 231.584 92.4537C231.495 92.8088 231.31 93.1327 231.05 93.3901L177.55 146.61C177.328 146.833 177.162 147.104 177.064 147.403C176.967 147.702 176.942 148.019 176.99 148.33L188.37 223.33C188.438 223.699 188.4 224.08 188.262 224.429C188.123 224.778 187.889 225.081 187.587 225.303C187.284 225.525 186.925 225.658 186.551 225.685C186.177 225.713 185.802 225.635 185.47 225.46ZM27.81 101.46L68.46 142.08C68.6784 142.304 68.841 142.577 68.9348 142.876C69.0286 143.174 69.0509 143.491 69 143.8L60.74 199.36C60.6954 199.725 60.7522 200.094 60.9039 200.429C61.0557 200.763 61.2966 201.05 61.6003 201.256C61.904 201.463 62.2587 201.582 62.6256 201.6C62.9924 201.618 63.3572 201.535 63.68 201.36L115.23 173C115.526 172.837 115.858 172.752 116.195 172.752C116.532 172.752 116.864 172.837 117.16 173L168.65 201.33C168.973 201.505 169.338 201.588 169.704 201.57C170.071 201.552 170.426 201.433 170.73 201.226C171.033 201.02 171.274 200.733 171.426 200.399C171.578 200.064 171.635 199.695 171.59 199.33L163.17 143.8C163.123 143.491 163.15 143.175 163.247 142.878C163.344 142.581 163.51 142.311 163.73 142.09L204.33 101.69C204.587 101.436 204.77 101.116 204.86 100.766C204.95 100.416 204.944 100.048 204.841 99.7009C204.739 99.3541 204.544 99.0416 204.278 98.7967C204.012 98.5518 203.684 98.3836 203.33 98.3101L147.53 88.0001C147.237 87.9481 146.959 87.8313 146.717 87.6583C146.475 87.4853 146.274 87.2604 146.13 87.0001L117.81 34.0001C117.638 33.6851 117.384 33.4222 117.075 33.239C116.766 33.0559 116.414 32.9592 116.055 32.9592C115.696 32.9592 115.344 33.0559 115.035 33.239C114.726 33.4222 114.472 33.6851 114.3 34.0001L85.3 86.0001C85.161 86.2547 84.9682 86.476 84.7351 86.6487C84.502 86.8214 84.2341 86.9413 83.95 87.0001L28.83 98.1001C28.4763 98.172 28.1486 98.3383 27.8817 98.5813C27.6148 98.8244 27.4187 99.1351 27.3141 99.4806C27.2095 99.8261 27.2004 100.193 27.2877 100.544C27.375 100.894 27.5555 101.214 27.81 101.47V101.46Z" fill="url(#paint4_linear_4_814)"/>
<mask id="mask2_4_814" style="mask-type:luminance" maskUnits="userSpaceOnUse" x="0" y="5" width="232" height="221">
<path d="M185.47 225.46L117.18 187.89C116.884 187.727 116.552 187.642 116.215 187.642C115.878 187.642 115.546 187.727 115.25 187.89L47 225.45C46.6758 225.642 46.304 225.739 45.9273 225.729C45.5507 225.719 45.1845 225.603 44.871 225.394C44.5575 225.184 44.3094 224.891 44.1553 224.547C44.0012 224.203 43.9474 223.823 44 223.45L55.16 148.45C55.2051 148.143 55.178 147.829 55.0808 147.534C54.9836 147.239 54.819 146.97 54.6 146.75L1.48001 93.5401C1.22291 93.2857 1.03959 92.9664 0.949572 92.6161C0.859552 92.2659 0.866197 91.8977 0.968802 91.5509C1.07141 91.2041 1.26613 90.8916 1.53224 90.6467C1.79836 90.4018 2.1259 90.2336 2.48001 90.1601L75.48 75.3901C75.7641 75.3313 76.032 75.2114 76.2651 75.0387C76.4982 74.866 76.691 74.6447 76.83 74.3901L114.55 6.80005C114.721 6.48255 114.975 6.21732 115.285 6.03246C115.595 5.8476 115.949 5.75 116.31 5.75C116.671 5.75 117.025 5.8476 117.335 6.03246C117.645 6.21732 117.899 6.48255 118.07 6.80005L154.65 75.2801C154.794 75.5404 154.995 75.7653 155.237 75.9383C155.479 76.1113 155.757 76.2281 156.05 76.2801L230 90.0001C230.36 90.0653 230.696 90.2281 230.97 90.4708C231.244 90.7135 231.446 91.0267 231.554 91.3764C231.662 91.726 231.673 92.0987 231.584 92.4537C231.495 92.8088 231.31 93.1327 231.05 93.3901L177.55 146.61C177.328 146.833 177.162 147.104 177.064 147.403C176.967 147.702 176.942 148.019 176.99 148.33L188.37 223.33C188.438 223.699 188.4 224.08 188.262 224.429C188.123 224.778 187.889 225.081 187.587 225.303C187.284 225.525 186.925 225.658 186.551 225.685C186.177 225.713 185.802 225.635 185.47 225.46ZM27.81 101.46L68.46 142.08C68.6784 142.304 68.841 142.577 68.9348 142.876C69.0286 143.174 69.0509 143.491 69 143.8L60.74 199.36C60.6954 199.725 60.7522 200.094 60.9039 200.429C61.0557 200.763 61.2966 201.05 61.6003 201.256C61.904 201.463 62.2587 201.582 62.6256 201.6C62.9924 201.618 63.3572 201.535 63.68 201.36L115.23 173C115.526 172.837 115.858 172.752 116.195 172.752C116.532 172.752 116.864 172.837 117.16 173L168.65 201.33C168.973 201.505 169.338 201.588 169.704 201.57C170.071 201.552 170.426 201.433 170.73 201.226C171.033 201.02 171.274 200.733 171.426 200.399C171.578 200.064 171.635 199.695 171.59 199.33L163.17 143.8C163.123 143.491 163.15 143.175 163.247 142.878C163.344 142.581 163.51 142.311 163.73 142.09L204.33 101.69C204.587 101.436 204.77 101.116 204.86 100.766C204.95 100.416 204.944 100.048 204.841 99.7009C204.739 99.3541 204.544 99.0416 204.278 98.7967C204.012 98.5518 203.684 98.3836 203.33 98.3101L147.53 88.0001C147.237 87.9481 146.959 87.8313 146.717 87.6583C146.475 87.4853 146.274 87.2604 146.13 87.0001L117.81 34.0001C117.638 33.6851 117.384 33.4222 117.075 33.239C116.766 33.0559 116.414 32.9592 116.055 32.9592C115.696 32.9592 115.344 33.0559 115.035 33.239C114.726 33.4222 114.472 33.6851 114.3 34.0001L85.3 86.0001C85.161 86.2547 84.9682 86.476 84.7351 86.6487C84.502 86.8214 84.2341 86.9413 83.95 87.0001L28.83 98.1001C28.4763 98.172 28.1486 98.3383 27.8817 98.5813C27.6148 98.8244 27.4187 99.1351 27.3141 99.4806C27.2095 99.8261 27.2004 100.193 27.2877 100.544C27.375 100.894 27.5555 101.214 27.81 101.47V101.46Z" fill="white"/>
</mask>
<g mask="url(#mask2_4_814)">
<path d="M116.64 -19.2599H115.89V264.45H116.64V-19.2599Z" fill="#C89E3F"/>
<path d="M109.212 -19.088L108.463 -19.0487L123.311 264.272L124.06 264.233L109.212 -19.088Z" fill="#C89E3F"/>
<path d="M101.808 -18.5266L101.062 -18.4482L130.718 263.708L131.464 263.629L101.808 -18.5266Z" fill="#C89E3F"/>
<path d="M94.441 -17.5693L93.7003 -17.452L138.082 262.765L138.823 262.648L94.441 -17.5693Z" fill="#C89E3F"/>
<path d="M87.1368 -16.2397L86.4031 -16.0838L145.39 261.426L146.123 261.27L87.1368 -16.2397Z" fill="#C89E3F"/>
<path d="M79.9107 -14.5223L79.1863 -14.3282L152.616 259.715L153.34 259.52L79.9107 -14.5223Z" fill="#C89E3F"/>
<path d="M72.7896 -12.431L72.0763 -12.1992L159.747 257.625L160.461 257.393L72.7896 -12.431Z" fill="#C89E3F"/>
<path d="M65.7807 -9.9707L65.0805 -9.70193L166.753 255.164L167.453 254.895L65.7807 -9.9707Z" fill="#C89E3F"/>
<path d="M58.9122 -7.14661L58.227 -6.84155L173.622 252.34L174.307 252.035L58.9122 -7.14661Z" fill="#C89E3F"/>
<path d="M52.1931 -3.96411L51.5249 -3.62362L180.327 249.164L180.995 248.823L52.1931 -3.96411Z" fill="#C89E3F"/>
<path d="M45.6632 -0.439575L45.0137 -0.0645749L186.869 245.635L187.518 245.26L45.6632 -0.439575Z" fill="#C89E3F"/>
<path d="M39.3228 3.42065L38.6938 3.82913L193.213 241.768L193.842 241.36L39.3228 3.42065Z" fill="#C89E3F"/>
<path d="M33.183 7.60913L32.5762 8.04997L199.337 237.576L199.944 237.135L33.183 7.60913Z" fill="#C89E3F"/>
<path d="M27.2856 12.1183L26.7027 12.5903L205.247 233.074L205.83 232.602L27.2856 12.1183Z" fill="#C89E3F"/>
<path d="M21.623 16.9297L21.0656 17.4316L210.905 228.269L211.462 227.767L21.623 16.9297Z" fill="#C89E3F"/>
<path d="M16.2181 22.0243L15.6877 22.5546L216.301 223.168L216.831 222.637L16.2181 22.0243Z" fill="#C89E3F"/>
<path d="M11.0944 27.4022L10.5926 27.9596L221.43 217.799L221.932 217.241L11.0944 27.4022Z" fill="#C89E3F"/>
<path d="M6.25611 33.0331L5.78412 33.6159L226.268 212.16L226.74 211.577L6.25611 33.0331Z" fill="#C89E3F"/>
<path d="M1.71759 38.9156L1.27676 39.5224L230.803 206.283L231.244 205.676L1.71759 38.9156Z" fill="#C89E3F"/>
<path d="M-2.5061 45.0278L-2.91458 45.6568L235.025 200.176L235.433 199.547L-2.5061 45.0278Z" fill="#C89E3F"/>
<path d="M-6.39966 51.3469L-6.77466 51.9964L238.925 193.851L239.3 193.202L-6.39966 51.3469Z" fill="#C89E3F"/>
<path d="M-9.95733 57.8593L-10.2978 58.5276L242.49 187.329L242.83 186.661L-9.95733 57.8593Z" fill="#C89E3F"/>
<path d="M-13.1731 64.5604L-13.4782 65.2456L245.704 180.641L246.009 179.956L-13.1731 64.5604Z" fill="#C89E3F"/>
<path d="M-16.0307 71.4152L-16.2995 72.1154L248.567 173.788L248.835 173.088L-16.0307 71.4152Z" fill="#C89E3F"/>
<path d="M251.06 166.79L-18.76 79.1202L-18.53 78.4102L251.3 166.08L251.06 166.79Z" fill="#C89E3F"/>
<path d="M253.19 159.68L-20.85 86.2501L-20.66 85.5201L253.39 158.95L253.19 159.68Z" fill="#C89E3F"/>
<path d="M-22.4183 92.7346L-22.5742 93.4682L254.936 152.455L255.092 151.721L-22.4183 92.7346Z" fill="#C89E3F"/>
<path d="M-23.7864 100.033L-23.9037 100.774L256.313 145.156L256.431 144.415L-23.7864 100.033Z" fill="#C89E3F"/>
<path d="M-24.7723 107.396L-24.8507 108.142L257.305 137.797L257.384 137.052L-24.7723 107.396Z" fill="#C89E3F"/>
<path d="M-25.3791 114.802L-25.4184 115.551L257.903 130.399L257.942 129.65L-25.3791 114.802Z" fill="#C89E3F"/>
<path d="M258.12 122.22H-25.59V122.97H258.12V122.22Z" fill="#C89E3F"/>
<path d="M257.914 114.81L-25.41 129.608L-25.3708 130.357L257.953 115.559L257.914 114.81Z" fill="#C89E3F"/>
<path d="M257.308 107.444L-24.8577 137.001L-24.7796 137.747L257.387 108.19L257.308 107.444Z" fill="#C89E3F"/>
<path d="M256.313 100.092L-23.9191 144.376L-23.802 145.117L256.431 100.833L256.313 100.092Z" fill="#C89E3F"/>
<path d="M254.935 92.6576L-22.5444 151.789L-22.3881 152.523L255.091 93.3911L254.935 92.6576Z" fill="#C89E3F"/>
<path d="M-20.66 159.68L-20.85 158.95L253.19 85.5201L253.39 86.2501L-20.66 159.68Z" fill="#C89E3F"/>
<path d="M-18.53 166.79L-18.76 166.08L251.06 78.4102L251.3 79.1202L-18.53 166.79Z" fill="#C89E3F"/>
<path d="M248.514 71.3018L-16.263 173.205L-15.9936 173.905L248.784 72.0018L248.514 71.3018Z" fill="#C89E3F"/>
<path d="M245.741 64.6561L-13.5215 179.87L-13.2169 180.556L246.046 65.3414L245.741 64.6561Z" fill="#C89E3F"/>
<path d="M242.528 57.9143L-10.3272 186.583L-9.98711 187.252L242.868 58.5828L242.528 57.9143Z" fill="#C89E3F"/>
<path d="M238.918 51.3557L-6.78159 193.211L-6.40659 193.86L239.293 52.0053L238.918 51.3557Z" fill="#C89E3F"/>
<path d="M235.05 45.0297L-2.91611 199.508L-2.50774 200.137L235.458 45.6588L235.05 45.0297Z" fill="#C89E3F"/>
<path d="M230.736 38.8141L1.35577 205.775L1.79714 206.381L231.178 39.4205L230.736 38.8141Z" fill="#C89E3F"/>
<path d="M226.217 32.9874L5.82654 211.647L6.29884 212.23L226.689 33.57L226.217 32.9874Z" fill="#C89E3F"/>
<path d="M221.446 27.429L10.5752 217.231L11.077 217.789L221.948 27.9865L221.446 27.429Z" fill="#C89E3F"/>
<path d="M216.217 21.9496L15.7789 222.738L16.3097 223.268L216.748 22.4795L216.217 21.9496Z" fill="#C89E3F"/>
<path d="M210.98 16.9847L20.9937 227.69L21.5507 228.192L211.537 17.4869L210.98 16.9847Z" fill="#C89E3F"/>
<path d="M205.286 12.1486L26.6647 232.57L27.2474 233.042L205.869 12.6208L205.286 12.1486Z" fill="#C89E3F"/>
<path d="M199.238 7.55713L32.6774 237.229L33.2845 237.669L199.845 7.99744L199.238 7.55713Z" fill="#C89E3F"/>
<path d="M193.188 3.42578L38.7104 241.392L39.3394 241.8L193.817 3.83415L193.188 3.42578Z" fill="#C89E3F"/>
<path d="M186.801 -0.471313L45.0742 245.303L45.7239 245.678L187.45 -0.0966534L186.801 -0.471313Z" fill="#C89E3F"/>
<path d="M180.394 -3.94141L51.4602 248.779L52.1283 249.119L181.062 -3.60057L180.394 -3.94141Z" fill="#C89E3F"/>
<path d="M173.53 -7.19409L58.3161 252.068L59.0015 252.373L174.216 -6.88952L173.53 -7.19409Z" fill="#C89E3F"/>
<path d="M166.695 -9.99805L65.1152 254.903L65.8155 255.172L167.396 -9.72952L166.695 -9.99805Z" fill="#C89E3F"/>
<path d="M159.725 -12.4227L72.1012 257.417L72.8146 257.648L160.439 -12.1911L159.725 -12.4227Z" fill="#C89E3F"/>
<path d="M152.64 -14.5195L79.1624 259.51L79.8869 259.705L153.364 -14.3253L152.64 -14.5195Z" fill="#C89E3F"/>
<path d="M145.415 -16.228L86.3799 261.272L87.1135 261.428L146.149 -16.072L145.415 -16.228Z" fill="#C89E3F"/>
<path d="M139.297 -17.7235L93.9034 263.149L94.6459 263.269L140.04 -17.6035L139.297 -17.7235Z" fill="#C89E3F"/>
<path d="M130.676 -18.5222L101.119 263.644L101.865 263.722L131.422 -18.4441L130.676 -18.5222Z" fill="#C89E3F"/>
<path d="M123.288 -19.0833L108.489 264.24L109.238 264.279L124.037 -19.0442L123.288 -19.0833Z" fill="#C89E3F"/>
</g>
<path d="M116.3 6.77004C116.481 6.77053 116.658 6.82007 116.813 6.91341C116.968 7.00674 117.095 7.14037 117.18 7.30004L153.76 75.78C153.972 76.178 154.271 76.5231 154.634 76.7897C154.998 77.0564 155.417 77.2376 155.86 77.32L229.86 91.03C230.039 91.064 230.205 91.146 230.34 91.2673C230.476 91.3886 230.576 91.5445 230.629 91.7184C230.683 91.8922 230.688 92.0773 230.644 92.2538C230.6 92.4303 230.509 92.5915 230.38 92.72L176.89 145.94C176.555 146.273 176.304 146.68 176.156 147.128C176.009 147.577 175.969 148.053 176.04 148.52L187.42 223.52C187.443 223.661 187.435 223.806 187.397 223.944C187.359 224.082 187.292 224.21 187.2 224.32C187.105 224.431 186.987 224.52 186.854 224.58C186.721 224.641 186.576 224.671 186.43 224.67C186.263 224.668 186.098 224.627 185.95 224.55L117.66 187C117.217 186.757 116.72 186.629 116.215 186.629C115.71 186.629 115.213 186.757 114.77 187L46.51 224.57C46.3605 224.655 46.1918 224.699 46.02 224.7C45.8748 224.699 45.7316 224.666 45.6003 224.604C45.4691 224.542 45.3529 224.452 45.26 224.34C45.1678 224.232 45.0996 224.106 45.06 223.97C45.0203 223.834 45.0101 223.69 45.03 223.55L56.19 148.55C56.258 148.087 56.2166 147.614 56.0689 147.169C55.9213 146.725 55.6717 146.321 55.34 145.99L2.18 92.83C2.05146 92.7017 1.96027 92.5409 1.91623 92.3647C1.87218 92.1885 1.87694 92.0037 1.93 91.83C1.98094 91.6552 2.07865 91.4976 2.21259 91.3742C2.34652 91.2509 2.51159 91.1664 2.69 91.13L75.69 76.36C76.1098 76.2707 76.5056 76.0924 76.8507 75.8371C77.1957 75.5818 77.4819 75.2554 77.69 74.88L115.43 7.28004C115.517 7.12558 115.643 6.99696 115.796 6.90735C115.949 6.81773 116.123 6.77035 116.3 6.77004ZM62.74 202.66C63.2468 202.661 63.7457 202.534 64.19 202.29L115.73 173.93C115.882 173.842 116.054 173.796 116.23 173.796C116.406 173.796 116.578 173.842 116.73 173.93L168.22 202.26C168.661 202.502 169.157 202.629 169.66 202.63C170.089 202.636 170.515 202.55 170.909 202.378C171.302 202.205 171.654 201.95 171.94 201.63C172.221 201.303 172.428 200.919 172.547 200.505C172.666 200.091 172.694 199.656 172.63 199.23L164.2 143.7C164.177 143.544 164.191 143.385 164.242 143.235C164.292 143.086 164.377 142.95 164.49 142.84L205.08 102.45C205.466 102.064 205.74 101.579 205.871 101.049C206.002 100.519 205.986 99.9632 205.824 99.4415C205.663 98.9197 205.362 98.452 204.954 98.0887C204.546 97.7255 204.047 97.4804 203.51 97.38L147.71 87C147.562 86.9718 147.422 86.9104 147.3 86.8203C147.179 86.7303 147.08 86.6139 147.01 86.48L118.7 33.48C118.444 32.9995 118.062 32.5976 117.595 32.3175C117.129 32.0374 116.594 31.8896 116.05 31.89C115.516 31.8901 114.991 32.033 114.531 32.3037C114.07 32.5744 113.69 32.9633 113.43 33.43L84.38 85.43C84.3099 85.5549 84.2138 85.6633 84.0982 85.7478C83.9827 85.8323 83.8502 85.8911 83.71 85.92L28.63 97.12C28.0984 97.2273 27.6058 97.4766 27.2046 97.8416C26.8035 98.2065 26.5087 98.6733 26.3518 99.1925C26.1948 99.7116 26.1815 100.264 26.3133 100.79C26.445 101.316 26.7169 101.796 27.1 102.18L67.75 142.8C67.8595 142.91 67.9418 143.044 67.9904 143.192C68.039 143.339 68.0526 143.496 68.03 143.65L59.77 199.22C59.7074 199.645 59.7366 200.078 59.8556 200.49C59.9746 200.902 60.1807 201.284 60.46 201.61C60.7463 201.93 61.098 202.185 61.4914 202.358C61.8847 202.53 62.3105 202.616 62.74 202.61M116.3 5.77004C115.948 5.76865 115.601 5.86039 115.295 6.036C114.99 6.21161 114.736 6.46484 114.56 6.77004L76.82 74.4C76.681 74.6546 76.4882 74.876 76.2551 75.0486C76.022 75.2213 75.7541 75.3412 75.47 75.4L2.47 90.17C2.11589 90.2435 1.78835 90.4117 1.52223 90.6566C1.25612 90.9015 1.06139 91.214 0.958793 91.5608C0.856188 91.9076 0.849542 92.2758 0.939563 92.6261C1.02958 92.9763 1.2129 93.2957 1.47 93.55L54.63 146.67C54.849 146.89 55.0136 147.159 55.1108 147.454C55.208 147.749 55.2351 148.063 55.19 148.37L44 223.4C43.9565 223.687 43.9758 223.979 44.0567 224.258C44.1375 224.536 44.2779 224.794 44.4681 225.012C44.6584 225.231 44.8939 225.406 45.1584 225.525C45.4229 225.643 45.7101 225.703 46 225.7C46.3491 225.703 46.6932 225.617 47 225.45L115.26 187.89C115.556 187.727 115.888 187.642 116.225 187.642C116.562 187.642 116.894 187.727 117.19 187.89L185.48 225.46C185.784 225.633 186.13 225.72 186.48 225.71C186.77 225.713 187.057 225.654 187.322 225.535C187.586 225.416 187.822 225.241 188.012 225.022C188.202 224.804 188.343 224.546 188.423 224.268C188.504 223.989 188.524 223.697 188.48 223.41L177.1 148.41C177.052 148.099 177.077 147.782 177.174 147.483C177.272 147.184 177.438 146.913 177.66 146.69L231.16 93.47C231.447 93.209 231.651 92.8704 231.749 92.4953C231.847 92.1202 231.833 91.7248 231.71 91.3572C231.587 90.9896 231.36 90.6656 231.057 90.4247C230.753 90.1837 230.386 90.0362 230 90L156 76.3C155.707 76.248 155.429 76.1312 155.187 75.9582C154.945 75.7852 154.744 75.5604 154.6 75.3L118.07 6.83004C117.899 6.50919 117.644 6.24096 117.332 6.0542C117.02 5.86744 116.664 5.7692 116.3 5.77004ZM62.74 201.66C62.4501 201.663 62.1629 201.604 61.8984 201.485C61.6339 201.366 61.3984 201.191 61.2081 200.972C61.0179 200.754 60.8775 200.496 60.7967 200.218C60.7158 199.939 60.6965 199.647 60.74 199.36L69 143.8C69.0467 143.491 69.0204 143.175 68.9232 142.878C68.8259 142.582 68.6604 142.311 68.44 142.09L27.81 101.47C27.5556 101.215 27.3746 100.897 27.2862 100.548C27.1978 100.199 27.2052 99.8326 27.3075 99.4875C27.4099 99.1425 27.6036 98.8314 27.868 98.5872C28.1324 98.343 28.4579 98.1747 28.81 98.1L83.9 86.94C84.1841 86.8812 84.452 86.7613 84.6851 86.5886C84.9182 86.416 85.111 86.1946 85.25 85.94L114.3 33.94C114.472 33.625 114.726 33.3621 115.035 33.1789C115.344 32.9958 115.696 32.8992 116.055 32.8992C116.414 32.8992 116.766 32.9958 117.075 33.1789C117.384 33.3621 117.638 33.625 117.81 33.94L146.13 86.94C146.274 87.2004 146.475 87.4252 146.717 87.5982C146.959 87.7712 147.237 87.888 147.53 87.94L203.3 98.31C203.654 98.3835 203.982 98.5517 204.248 98.7966C204.514 99.0415 204.709 99.354 204.811 99.7008C204.914 100.048 204.92 100.416 204.83 100.766C204.74 101.116 204.557 101.436 204.3 101.69L163.7 142.09C163.48 142.311 163.314 142.582 163.217 142.878C163.12 143.175 163.093 143.491 163.14 143.8L171.56 199.33C171.605 199.695 171.548 200.064 171.396 200.399C171.244 200.733 171.003 201.02 170.7 201.226C170.396 201.433 170.041 201.552 169.674 201.57C169.308 201.588 168.943 201.505 168.62 201.33L117.13 173C116.834 172.837 116.502 172.752 116.165 172.752C115.828 172.752 115.496 172.837 115.2 173L63.7 201.41C63.3942 201.579 63.0494 201.665 62.7 201.66H62.74Z" fill="url(#paint5_linear_4_814)"/>
<path d="M116.21 165.99C118.844 165.99 120.98 163.854 120.98 161.22C120.98 158.586 118.844 156.45 116.21 156.45C113.576 156.45 111.44 158.586 111.44 161.22C111.44 163.854 113.576 165.99 116.21 165.99Z" fill="black" stroke="url(#paint6_linear_4_814)" stroke-miterlimit="10"/>
<path d="M116.34 86.2701C118.974 86.2701 121.11 84.1345 121.11 81.5001C121.11 78.8657 118.974 76.7301 116.34 76.7301C113.706 76.7301 111.57 78.8657 111.57 81.5001C111.57 84.1345 113.706 86.2701 116.34 86.2701Z" fill="black" stroke="url(#paint7_linear_4_814)" stroke-miterlimit="10"/>
<path d="M138.33 146.12C137.25 146.117 136.214 145.686 135.451 144.921C134.688 144.157 134.26 143.12 134.26 142.04V130.04L132.72 132.12C132.346 132.625 131.86 133.037 131.3 133.323C130.74 133.609 130.121 133.762 129.492 133.769C128.864 133.775 128.242 133.636 127.676 133.362C127.11 133.089 126.615 132.687 126.23 132.19L124.34 129.74V142C124.34 143.08 123.912 144.117 123.149 144.881C122.386 145.646 121.35 146.077 120.27 146.08H111.58C110.5 146.077 109.464 145.646 108.701 144.881C107.938 144.117 107.51 143.08 107.51 142V104.57C107.509 104.034 107.613 103.503 107.817 103.008C108.021 102.512 108.32 102.062 108.698 101.682C109.076 101.302 109.525 101.001 110.019 100.794C110.514 100.588 111.044 100.481 111.58 100.48H120.2C120.843 100.481 121.477 100.635 122.049 100.929C122.621 101.222 123.115 101.648 123.49 102.17L129.49 110.39L135.12 102.24C135.493 101.699 135.992 101.256 136.574 100.949C137.155 100.643 137.803 100.482 138.46 100.48H147C148.081 100.485 149.116 100.919 149.879 101.685C150.642 102.451 151.07 103.489 151.07 104.57V142C151.07 143.08 150.642 144.117 149.879 144.881C149.116 145.646 148.08 146.077 147 146.08L138.33 146.12Z" fill="url(#paint8_linear_4_814)"/>
<path d="M147 103.48C147.142 103.481 147.282 103.511 147.413 103.566C147.543 103.622 147.661 103.702 147.761 103.803C147.86 103.905 147.939 104.024 147.992 104.156C148.045 104.287 148.071 104.428 148.07 104.57V142C148.071 142.141 148.045 142.282 147.991 142.413C147.938 142.544 147.86 142.663 147.76 142.763C147.661 142.864 147.542 142.943 147.412 142.998C147.281 143.052 147.141 143.08 147 143.08H138.3C138.159 143.08 138.019 143.052 137.888 142.998C137.758 142.943 137.639 142.864 137.54 142.763C137.44 142.663 137.362 142.544 137.309 142.413C137.255 142.282 137.229 142.141 137.23 142V124.21C137.231 124.068 137.204 123.927 137.151 123.795C137.097 123.664 137.017 123.544 136.917 123.443C136.816 123.343 136.696 123.263 136.565 123.21C136.433 123.156 136.292 123.129 136.15 123.13C135.985 123.127 135.823 123.165 135.676 123.24C135.53 123.315 135.404 123.425 135.31 123.56L130.31 130.35C130.21 130.484 130.08 130.592 129.931 130.667C129.782 130.742 129.617 130.78 129.45 130.78C129.287 130.78 129.126 130.742 128.98 130.669C128.835 130.596 128.708 130.49 128.61 130.36L123.26 123.44C123.165 123.307 123.039 123.199 122.892 123.125C122.746 123.052 122.584 123.016 122.42 123.02C122.277 123.02 122.136 123.048 122.004 123.103C121.873 123.158 121.753 123.239 121.653 123.34C121.552 123.441 121.473 123.561 121.419 123.694C121.366 123.826 121.339 123.967 121.34 124.11V142C121.341 142.141 121.315 142.282 121.261 142.413C121.208 142.544 121.13 142.663 121.03 142.763C120.931 142.864 120.812 142.943 120.682 142.998C120.551 143.052 120.411 143.08 120.27 143.08H111.58C111.439 143.08 111.299 143.052 111.168 142.998C111.038 142.943 110.919 142.864 110.82 142.763C110.72 142.663 110.642 142.544 110.589 142.413C110.535 142.282 110.509 142.141 110.51 142V104.57C110.509 104.428 110.535 104.287 110.588 104.156C110.641 104.024 110.72 103.905 110.819 103.803C110.919 103.702 111.037 103.622 111.167 103.566C111.298 103.511 111.438 103.481 111.58 103.48H120.2C120.369 103.481 120.535 103.523 120.685 103.601C120.834 103.679 120.963 103.792 121.06 103.93L128.62 114.37C128.719 114.506 128.848 114.616 128.998 114.693C129.147 114.769 129.312 114.809 129.48 114.81C129.653 114.809 129.823 114.767 129.976 114.687C130.129 114.607 130.261 114.491 130.36 114.35L137.54 103.95C137.638 103.807 137.769 103.689 137.922 103.607C138.076 103.525 138.246 103.482 138.42 103.48H147ZM147 97.48H138.39C137.245 97.4761 136.117 97.753 135.104 98.2865C134.091 98.82 133.224 99.5937 132.58 100.54L129.36 105.2L125.89 100.41C125.235 99.5051 124.376 98.7678 123.382 98.2586C122.387 97.7494 121.287 97.4826 120.17 97.48H111.55C109.673 97.4853 107.875 98.2346 106.55 99.5637C105.224 100.893 104.48 102.693 104.48 104.57V142C104.48 143.876 105.225 145.675 106.55 147.003C107.876 148.33 109.674 149.077 111.55 149.08H120.24C122.116 149.077 123.914 148.33 125.24 147.003C126.565 145.675 127.31 143.876 127.31 142V136.42C127.993 136.634 128.704 136.742 129.42 136.74C130.031 136.742 130.64 136.661 131.23 136.5V142C131.23 143.876 131.975 145.675 133.3 147.003C134.626 148.33 136.424 149.077 138.3 149.08H147C147.931 149.083 148.854 148.901 149.716 148.547C150.577 148.192 151.36 147.671 152.019 147.013C152.679 146.356 153.202 145.574 153.559 144.714C153.916 143.854 154.1 142.931 154.1 142V104.57C154.1 103.638 153.916 102.715 153.559 101.854C153.202 100.994 152.679 100.212 152.02 99.5531C151.36 98.8946 150.578 98.3726 149.716 98.0168C148.855 97.6611 147.932 97.4787 147 97.48Z" fill="black"/>
<path d="M91 146.47C89.1271 146.484 87.2565 146.334 85.41 146.02C83.7673 145.732 82.1633 145.256 80.63 144.6C79.1589 143.962 77.7827 143.124 76.54 142.11C75.6158 141.334 74.7656 140.473 74 139.54C73.6576 139.125 73.4024 138.646 73.2495 138.131C73.0965 137.615 73.0491 137.074 73.11 136.54C73.1794 135.998 73.359 135.477 73.6376 135.007C73.9162 134.538 74.288 134.13 74.73 133.81L80.96 129.3C81.6358 128.805 82.4522 128.538 83.29 128.54C83.6265 128.538 83.962 128.575 84.29 128.65C83.6494 127.939 83.2934 127.017 83.29 126.06V119.67C83.2884 118.845 83.5473 118.04 84.03 117.37H83.64C82.9332 117.361 82.2422 117.16 81.64 116.79L75.64 113.12C75.1669 112.828 74.7598 112.441 74.4447 111.983C74.1296 111.525 73.9134 111.006 73.81 110.46C73.7113 109.906 73.7288 109.337 73.8614 108.789C73.9939 108.242 74.2386 107.728 74.58 107.28C76.2775 105.1 78.44 103.327 80.91 102.09C83.9226 100.594 87.2467 99.8335 90.61 99.8701C92.9767 99.8396 95.3352 100.156 97.61 100.81C99.6065 101.389 101.48 102.328 103.14 103.58C104.754 104.81 106.05 106.407 106.92 108.24C107.794 110.118 108.235 112.169 108.21 114.24C108.233 116.367 107.698 118.463 106.66 120.32C106.299 120.955 105.888 121.56 105.43 122.13C106.086 122.775 106.669 123.489 107.17 124.26C108.473 126.292 109.138 128.667 109.08 131.08C109.089 133.183 108.645 135.263 107.78 137.18C106.914 139.103 105.634 140.81 104.03 142.18C102.353 143.6 100.417 144.683 98.33 145.37C95.9665 146.149 93.488 146.521 91 146.47ZM86.39 130.06C86.8103 130.635 87.3624 131.102 88 131.42C88.9391 131.854 89.9662 132.062 91 132.03C91.7637 132.073 92.5238 131.896 93.19 131.52C93.29 131.45 93.41 131.37 93.41 130.86C93.4228 130.791 93.4228 130.719 93.41 130.65C93.3671 130.612 93.3202 130.578 93.27 130.55C92.4374 130.145 91.5141 129.962 90.59 130.02H87.29C86.9532 130.019 86.6176 129.978 86.29 129.9L86.39 130.06ZM90.68 113.77C89.784 113.724 88.8932 113.932 88.11 114.37C87.6103 114.678 87.1865 115.095 86.87 115.59C86.8459 115.628 86.8191 115.665 86.79 115.7H87.22H90.22C91.71 115.7 92.22 115.35 92.32 115.25C92.4368 115.171 92.5314 115.063 92.5944 114.937C92.6575 114.811 92.687 114.671 92.68 114.53C92.68 114.44 92.68 114.34 92.45 114.12C91.9144 113.832 91.3051 113.71 90.7 113.77H90.68Z" fill="url(#paint9_linear_4_814)"/>
<path d="M90.54 102.87C92.5987 102.841 94.6504 103.114 96.63 103.68C98.2831 104.166 99.8324 104.952 101.2 106C102.441 106.938 103.436 108.163 104.1 109.57C104.783 111.045 105.124 112.655 105.1 114.28C105.121 115.888 104.721 117.474 103.94 118.88C103.362 119.891 102.63 120.805 101.77 121.59C101.655 121.69 101.564 121.815 101.504 121.956C101.445 122.097 101.418 122.25 101.427 122.402C101.436 122.555 101.479 122.703 101.554 122.836C101.629 122.969 101.734 123.084 101.86 123.17C102.925 123.921 103.841 124.864 104.56 125.95C105.535 127.494 106.026 129.295 105.97 131.12C105.987 132.796 105.646 134.456 104.97 135.99C104.277 137.528 103.253 138.894 101.97 139.99C100.583 141.161 98.9841 142.053 97.26 142.62C95.2493 143.274 93.1443 143.592 91.03 143.56C89.3348 143.576 87.6416 143.442 85.97 143.16C84.5572 142.914 83.1779 142.505 81.86 141.94C80.6389 141.416 79.4977 140.722 78.47 139.88C77.6775 139.226 76.9476 138.5 76.29 137.71C76.1298 137.499 76.0598 137.233 76.0955 136.971C76.1311 136.708 76.2694 136.471 76.48 136.31L82.71 131.8C82.9145 131.66 83.1639 131.6 83.4097 131.634C83.6555 131.667 83.8801 131.79 84.04 131.98C84.7358 132.915 85.6397 133.675 86.68 134.2C88.0393 134.795 89.5176 135.069 91 135C92.3722 135.078 93.7348 134.729 94.9 134C95.3897 133.649 95.7823 133.18 96.0411 132.636C96.3 132.092 96.4166 131.491 96.38 130.89C96.4068 130.309 96.2726 129.731 95.992 129.221C95.7114 128.711 95.2955 128.289 94.79 128C93.4914 127.284 92.0214 126.939 90.54 127H87.24C86.9748 127 86.7204 126.895 86.5329 126.707C86.3454 126.52 86.24 126.265 86.24 126V119.61C86.24 119.345 86.3454 119.09 86.5329 118.903C86.7204 118.715 86.9748 118.61 87.24 118.61H90.24C91.7135 118.723 93.177 118.289 94.35 117.39C94.7777 117.027 95.1204 116.575 95.3537 116.065C95.587 115.556 95.7053 115.001 95.7 114.44C95.7009 113.94 95.5931 113.446 95.3842 112.992C95.1753 112.538 94.8702 112.135 94.49 111.81C93.3967 110.982 92.0366 110.587 90.67 110.7C89.2077 110.652 87.7617 111.019 86.5 111.76C85.6337 112.341 84.9064 113.106 84.37 114C84.2885 114.127 84.176 114.232 84.0431 114.303C83.9101 114.375 83.7611 114.412 83.61 114.41C83.4395 114.413 83.2721 114.364 83.13 114.27L77.13 110.6C77.0138 110.525 76.9145 110.427 76.8382 110.311C76.762 110.196 76.7105 110.066 76.687 109.93C76.6635 109.794 76.6685 109.654 76.7018 109.52C76.735 109.385 76.7957 109.26 76.88 109.15C78.2979 107.317 80.1136 105.829 82.19 104.8C84.7806 103.517 87.6394 102.869 90.53 102.91M90.53 96.9101C86.6977 96.8713 82.9107 97.7417 79.48 99.45C76.6114 100.874 74.0995 102.924 72.13 105.45C71.5316 106.227 71.1031 107.12 70.8721 108.073C70.6411 109.026 70.6128 110.017 70.7891 110.981C70.9654 111.945 71.3423 112.862 71.8955 113.672C72.4486 114.481 73.1656 115.165 74 115.68L80 119.35L80.27 119.51V126.2C79.8925 126.386 79.5313 126.604 79.19 126.85L76.42 128.85L73 131.36C72.2259 131.923 71.5754 132.638 71.0887 133.462C70.6019 134.286 70.2893 135.201 70.17 136.15C70.0519 137.095 70.1294 138.054 70.3978 138.967C70.6662 139.881 71.1196 140.729 71.73 141.46C72.6283 142.557 73.6332 143.562 74.73 144.46C76.1842 145.655 77.8002 146.638 79.53 147.38C81.2495 148.121 83.0477 148.665 84.89 149C86.9142 149.35 88.9658 149.518 91.02 149.5C93.7983 149.534 96.5629 149.105 99.2 148.23C101.645 147.416 103.912 146.143 105.88 144.48C107.808 142.833 109.354 140.786 110.41 138.48C111.446 136.172 111.978 133.67 111.97 131.14C112.029 128.141 111.194 125.192 109.57 122.67C109.423 122.43 109.263 122.2 109.09 121.98C109.11 121.938 109.133 121.898 109.16 121.86C110.455 119.552 111.124 116.946 111.1 114.3C111.124 111.786 110.584 109.298 109.52 107.02C108.449 104.761 106.855 102.79 104.87 101.27C102.919 99.795 100.717 98.687 98.37 98.0001C95.8265 97.262 93.1883 96.9015 90.54 96.9301L90.53 96.9101Z" fill="black"/>
<path d="M120.2 103.48C120.369 103.481 120.535 103.523 120.685 103.601C120.834 103.679 120.963 103.792 121.06 103.93L128.62 114.37C128.718 114.51 128.848 114.625 128.999 114.704C129.151 114.783 129.319 114.824 129.49 114.824C129.661 114.824 129.829 114.783 129.981 114.704C130.132 114.625 130.262 114.51 130.36 114.37L137.54 103.97C137.638 103.827 137.769 103.709 137.922 103.627C138.076 103.545 138.246 103.502 138.42 103.5H147C147.142 103.501 147.282 103.531 147.413 103.586C147.543 103.642 147.661 103.722 147.761 103.823C147.86 103.925 147.939 104.044 147.992 104.176C148.045 104.307 148.071 104.448 148.07 104.59V142C148.071 142.141 148.045 142.282 147.991 142.413C147.938 142.544 147.86 142.663 147.76 142.763C147.661 142.864 147.542 142.943 147.412 142.998C147.281 143.052 147.141 143.08 147 143.08H138.3C138.159 143.08 138.019 143.052 137.888 142.998C137.758 142.943 137.639 142.864 137.54 142.763C137.44 142.663 137.362 142.544 137.309 142.413C137.255 142.282 137.229 142.141 137.23 142V124.21C137.23 123.986 137.16 123.768 137.03 123.586C136.899 123.405 136.715 123.268 136.503 123.196C136.291 123.125 136.062 123.121 135.848 123.186C135.634 123.252 135.446 123.382 135.31 123.56L130.31 130.35C130.211 130.482 130.083 130.59 129.936 130.664C129.788 130.738 129.625 130.777 129.46 130.777C129.295 130.777 129.132 130.738 128.984 130.664C128.837 130.59 128.709 130.482 128.61 130.35L123.26 123.43C123.123 123.251 122.933 123.12 122.717 123.055C122.501 122.99 122.27 122.995 122.057 123.069C121.844 123.144 121.66 123.283 121.532 123.468C121.403 123.654 121.336 123.875 121.34 124.1V142C121.341 142.141 121.315 142.282 121.261 142.413C121.208 142.544 121.13 142.663 121.03 142.763C120.931 142.864 120.812 142.943 120.682 142.998C120.551 143.052 120.411 143.08 120.27 143.08H111.58C111.439 143.08 111.299 143.052 111.168 142.998C111.038 142.943 110.919 142.864 110.82 142.763C110.72 142.663 110.642 142.544 110.589 142.413C110.535 142.282 110.509 142.141 110.51 142V104.57C110.509 104.428 110.535 104.287 110.588 104.156C110.641 104.024 110.72 103.905 110.819 103.803C110.919 103.702 111.037 103.622 111.167 103.566C111.298 103.511 111.438 103.481 111.58 103.48H120.2Z" fill="url(#paint10_linear_4_814)"/>
<path d="M147 104.23C147.043 104.231 147.086 104.241 147.126 104.259C147.165 104.277 147.201 104.302 147.23 104.334C147.26 104.365 147.283 104.402 147.299 104.443C147.314 104.483 147.321 104.527 147.32 104.57V142C147.32 142.086 147.287 142.168 147.227 142.23C147.167 142.291 147.086 142.327 147 142.33H138.3C138.218 142.323 138.141 142.284 138.086 142.223C138.03 142.162 138 142.083 138 142V124.21C138.001 123.827 137.881 123.454 137.657 123.143C137.433 122.832 137.117 122.6 136.754 122.48C136.391 122.359 135.999 122.356 135.633 122.471C135.268 122.586 134.949 122.813 134.72 123.12L129.72 129.9C129.692 129.94 129.654 129.972 129.611 129.995C129.567 130.018 129.519 130.03 129.47 130.03C129.422 130.029 129.375 130.017 129.332 129.997C129.289 129.976 129.251 129.946 129.22 129.91L123.85 123C123.617 122.698 123.295 122.478 122.93 122.369C122.564 122.26 122.174 122.268 121.814 122.393C121.454 122.518 121.142 122.753 120.922 123.065C120.703 123.376 120.586 123.749 120.59 124.13V142C120.591 142.043 120.584 142.086 120.569 142.126C120.553 142.166 120.53 142.202 120.5 142.233C120.47 142.264 120.434 142.288 120.395 142.305C120.355 142.321 120.313 142.33 120.27 142.33H111.58C111.537 142.33 111.495 142.321 111.455 142.305C111.416 142.288 111.38 142.264 111.35 142.233C111.32 142.202 111.297 142.166 111.281 142.126C111.266 142.086 111.259 142.043 111.26 142V104.57C111.259 104.527 111.266 104.483 111.281 104.443C111.297 104.402 111.32 104.365 111.35 104.334C111.379 104.302 111.415 104.277 111.454 104.259C111.494 104.241 111.537 104.231 111.58 104.23H120.2C120.25 104.231 120.299 104.244 120.343 104.268C120.386 104.293 120.423 104.328 120.45 104.37L128 114.81C128.167 115.053 128.391 115.252 128.653 115.39C128.914 115.527 129.205 115.599 129.5 115.599C129.795 115.599 130.086 115.527 130.347 115.39C130.609 115.252 130.833 115.053 131 114.81L138.18 104.41C138.208 104.367 138.247 104.332 138.292 104.307C138.338 104.283 138.388 104.27 138.44 104.27H147M147 103.52H138.39C138.216 103.522 138.046 103.565 137.892 103.647C137.739 103.729 137.608 103.847 137.51 103.99L130.33 114.39C130.231 114.528 130.1 114.641 129.949 114.719C129.798 114.797 129.63 114.837 129.46 114.837C129.29 114.837 129.122 114.797 128.971 114.719C128.82 114.641 128.689 114.528 128.59 114.39L121.03 103.95C120.933 103.812 120.804 103.699 120.655 103.621C120.505 103.543 120.339 103.501 120.17 103.5H111.55C111.408 103.501 111.268 103.531 111.137 103.586C111.007 103.642 110.889 103.722 110.789 103.823C110.69 103.925 110.611 104.044 110.558 104.176C110.505 104.307 110.479 104.448 110.48 104.59V142C110.479 142.141 110.505 142.282 110.559 142.413C110.612 142.544 110.69 142.663 110.79 142.763C110.889 142.864 111.008 142.943 111.138 142.998C111.269 143.052 111.409 143.08 111.55 143.08H120.24C120.381 143.08 120.521 143.052 120.652 142.998C120.782 142.943 120.901 142.864 121 142.763C121.1 142.663 121.178 142.544 121.231 142.413C121.285 142.282 121.311 142.141 121.31 142V124.11C121.309 123.967 121.336 123.826 121.389 123.694C121.443 123.561 121.522 123.441 121.623 123.34C121.723 123.239 121.843 123.158 121.974 123.103C122.106 123.048 122.247 123.02 122.39 123.02C122.554 123.016 122.716 123.052 122.862 123.125C123.009 123.198 123.135 123.307 123.23 123.44L128.58 130.36C128.678 130.49 128.805 130.596 128.95 130.669C129.096 130.742 129.257 130.78 129.42 130.78C129.587 130.78 129.752 130.742 129.901 130.667C130.05 130.592 130.18 130.484 130.28 130.35L135.28 123.56C135.374 123.425 135.5 123.315 135.646 123.24C135.793 123.165 135.955 123.127 136.12 123.13C136.262 123.129 136.403 123.156 136.535 123.209C136.667 123.263 136.786 123.343 136.887 123.443C136.987 123.544 137.067 123.664 137.121 123.795C137.174 123.927 137.201 124.068 137.2 124.21V142C137.199 142.141 137.225 142.282 137.279 142.413C137.332 142.544 137.41 142.663 137.51 142.763C137.609 142.864 137.728 142.943 137.858 142.998C137.989 143.052 138.129 143.08 138.27 143.08H147C147.144 143.084 147.287 143.059 147.421 143.006C147.555 142.954 147.677 142.875 147.78 142.774C147.882 142.673 147.964 142.553 148.019 142.42C148.074 142.287 148.101 142.144 148.1 142V104.57C148.101 104.428 148.075 104.287 148.022 104.156C147.969 104.024 147.89 103.905 147.791 103.803C147.691 103.702 147.573 103.622 147.443 103.566C147.312 103.511 147.172 103.481 147.03 103.48L147 103.52Z" fill="url(#paint11_linear_4_814)"/>
<path d="M91 143.47C89.3048 143.486 87.6116 143.352 85.94 143.07C84.5272 142.824 83.1479 142.415 81.83 141.85C80.6089 141.326 79.4677 140.632 78.44 139.79C77.6475 139.136 76.9176 138.41 76.26 137.62C76.0998 137.409 76.0298 137.143 76.0655 136.881C76.1011 136.618 76.2394 136.381 76.45 136.22L82.68 131.71C82.8845 131.57 83.1339 131.51 83.3797 131.544C83.6255 131.577 83.8501 131.7 84.01 131.89C84.7058 132.825 85.6097 133.585 86.65 134.11C88.0111 134.741 89.5005 135.045 91 135C92.3722 135.078 93.7348 134.729 94.9 134C95.3897 133.649 95.7823 133.18 96.0411 132.636C96.3 132.092 96.4166 131.491 96.38 130.89C96.4068 130.309 96.2726 129.731 95.992 129.221C95.7114 128.711 95.2955 128.289 94.79 128C93.4914 127.284 92.0214 126.939 90.54 127H87.24C86.9748 127 86.7204 126.895 86.5329 126.707C86.3454 126.52 86.24 126.265 86.24 126V119.61C86.24 119.345 86.3454 119.09 86.5329 118.903C86.7204 118.715 86.9748 118.61 87.24 118.61H90.24C91.7135 118.723 93.177 118.289 94.35 117.39C94.7777 117.027 95.1204 116.575 95.3537 116.065C95.587 115.556 95.7053 115.001 95.7 114.44C95.7009 113.94 95.5931 113.446 95.3842 112.992C95.1753 112.538 94.8702 112.135 94.49 111.81C93.3967 110.982 92.0366 110.587 90.67 110.7C89.2077 110.652 87.7617 111.019 86.5 111.76C85.6337 112.341 84.9064 113.106 84.37 114C84.2392 114.198 84.0364 114.336 83.8048 114.387C83.5733 114.437 83.3311 114.395 83.13 114.27L77.13 110.6C77.0138 110.525 76.9145 110.427 76.8382 110.311C76.762 110.196 76.7105 110.066 76.687 109.93C76.6635 109.794 76.6685 109.654 76.7018 109.52C76.735 109.385 76.7957 109.26 76.88 109.15C78.2979 107.317 80.1136 105.829 82.19 104.8C84.7806 103.517 87.6394 102.869 90.53 102.91C92.5887 102.881 94.6405 103.154 96.62 103.72C98.2738 104.192 99.8263 104.965 101.2 106C102.441 106.938 103.436 108.163 104.1 109.57C104.783 111.045 105.124 112.655 105.1 114.28C105.121 115.888 104.721 117.474 103.94 118.88C103.362 119.891 102.63 120.805 101.77 121.59C101.655 121.69 101.564 121.815 101.504 121.956C101.445 122.097 101.418 122.25 101.427 122.402C101.436 122.555 101.479 122.703 101.554 122.836C101.629 122.969 101.734 123.084 101.86 123.17C102.925 123.921 103.841 124.864 104.56 125.95C105.535 127.494 106.026 129.295 105.97 131.12C105.987 132.796 105.646 134.456 104.97 135.99C104.28 137.53 103.255 138.896 101.97 139.99C100.583 141.161 98.9841 142.053 97.26 142.62C95.2346 143.247 93.1193 143.534 91 143.47Z" fill="url(#paint12_linear_4_814)"/>
<path d="M90.54 103.62C92.5243 103.591 94.5021 103.854 96.41 104.4C97.9734 104.844 99.4413 105.573 100.74 106.55C101.884 107.42 102.803 108.552 103.42 109.85C104.055 111.225 104.372 112.726 104.35 114.24C104.37 115.719 104.001 117.178 103.28 118.47C102.753 119.415 102.077 120.269 101.28 121C101.083 121.178 100.929 121.398 100.828 121.644C100.728 121.89 100.684 122.155 100.7 122.42C100.719 122.681 100.796 122.934 100.924 123.162C101.051 123.39 101.228 123.587 101.44 123.74C102.432 124.434 103.283 125.31 103.95 126.32C104.841 127.744 105.29 129.401 105.24 131.08C105.237 132.654 104.896 134.209 104.24 135.64C103.599 137.061 102.649 138.322 101.46 139.33C100.144 140.435 98.631 141.28 97 141.82C95.0629 142.447 93.0358 142.751 91 142.72C89.3517 142.734 87.7054 142.604 86.08 142.33C84.722 142.096 83.3962 141.704 82.13 141.16C80.9743 140.663 79.8938 140.007 78.92 139.21C78.1608 138.586 77.4642 137.889 76.84 137.13C76.8277 137.109 76.8212 137.085 76.8212 137.06C76.8212 137.035 76.8277 137.011 76.84 136.99C76.8419 136.958 76.851 136.927 76.8666 136.9C76.8822 136.872 76.9039 136.848 76.93 136.83L79.22 135.17L83.16 132.31C83.2027 132.299 83.2473 132.299 83.29 132.31C83.3212 132.309 83.3521 132.316 83.38 132.33C83.4079 132.344 83.4319 132.365 83.45 132.39C84.2177 133.411 85.2099 134.243 86.35 134.82C87.7998 135.504 89.3872 135.846 90.99 135.82C92.5332 135.887 94.0583 135.467 95.35 134.62C95.9397 134.202 96.414 133.642 96.7287 132.992C97.0435 132.341 97.1884 131.622 97.15 130.9C97.1727 130.193 97.0034 129.494 96.66 128.876C96.3166 128.257 95.812 127.744 95.2 127.39C93.7811 126.613 92.1763 126.239 90.56 126.31H87.26C87.2194 126.318 87.1773 126.316 87.1381 126.302C87.099 126.288 87.0643 126.264 87.0376 126.232C87.011 126.201 86.9934 126.162 86.9868 126.121C86.9802 126.081 86.9847 126.039 87 126V119.61C87 119.58 87.006 119.551 87.0176 119.523C87.0293 119.496 87.0464 119.471 87.0679 119.451C87.0894 119.43 87.1149 119.414 87.1427 119.404C87.1706 119.393 87.2003 119.389 87.23 119.39H90.23C91.8988 119.52 93.5564 119.025 94.88 118C95.3875 117.568 95.7939 117.029 96.0704 116.423C96.3469 115.816 96.4867 115.157 96.48 114.49C96.4769 113.888 96.3429 113.293 96.0873 112.747C95.8318 112.202 95.4608 111.718 95 111.33C93.7825 110.366 92.249 109.892 90.7 110C89.0969 109.952 87.5128 110.358 86.13 111.17C85.1736 111.777 84.3585 112.581 83.74 113.53C83.7255 113.551 83.7062 113.569 83.6836 113.581C83.6609 113.593 83.6357 113.6 83.61 113.6C83.5806 113.609 83.5494 113.609 83.52 113.6L77.52 109.93C77.4944 109.915 77.4722 109.895 77.455 109.871C77.4378 109.847 77.4258 109.819 77.42 109.79C77.406 109.757 77.3988 109.721 77.3988 109.685C77.3988 109.649 77.406 109.613 77.42 109.58C78.777 107.84 80.5058 106.426 82.48 105.44C84.966 104.213 87.7077 103.592 90.48 103.63M90.48 102.88C87.5894 102.839 84.7306 103.487 82.14 104.77C80.0636 105.799 78.2479 107.287 76.83 109.12C76.7457 109.23 76.685 109.355 76.6517 109.49C76.6185 109.624 76.6135 109.764 76.637 109.9C76.6605 110.036 76.712 110.166 76.7882 110.281C76.8645 110.397 76.9638 110.495 77.08 110.57L83.08 114.24C83.2221 114.334 83.3895 114.383 83.56 114.38C83.7111 114.382 83.8601 114.345 83.9931 114.273C84.126 114.202 84.2385 114.097 84.32 113.97C84.8777 113.112 85.6146 112.386 86.48 111.84C87.7417 111.099 89.1877 110.732 90.65 110.78C92.0166 110.667 93.3767 111.062 94.47 111.89C94.8502 112.215 95.1553 112.618 95.3642 113.072C95.5731 113.526 95.6809 114.02 95.68 114.52C95.6853 115.081 95.567 115.636 95.3337 116.145C95.1004 116.655 94.7577 117.107 94.33 117.47C93.157 118.369 91.6935 118.803 90.22 118.69H87.22C86.9548 118.69 86.7004 118.795 86.5129 118.983C86.3254 119.17 86.22 119.425 86.22 119.69V126C86.22 126.265 86.3254 126.52 86.5129 126.707C86.7004 126.895 86.9548 127 87.22 127H90.52C92.0014 126.939 93.4714 127.284 94.77 128C95.2724 128.287 95.6863 128.706 95.9667 129.212C96.2471 129.719 96.3831 130.292 96.36 130.87C96.4023 131.473 96.2904 132.076 96.035 132.624C95.7796 133.172 95.389 133.645 94.9 134C93.7348 134.729 92.3722 135.078 91 135C89.515 135.028 88.0434 134.714 86.7 134.08C85.6411 133.571 84.7163 132.821 84 131.89C83.8401 131.7 83.6155 131.577 83.3697 131.544C83.1239 131.51 82.8745 131.57 82.67 131.71L76.44 136.22C76.2294 136.381 76.0911 136.618 76.0555 136.881C76.0198 137.143 76.0898 137.409 76.25 137.62C76.9076 138.41 77.6375 139.136 78.43 139.79C79.4577 140.632 80.5989 141.326 81.82 141.85C83.1603 142.42 84.5634 142.83 86 143.07C87.6716 143.352 89.3648 143.486 91.06 143.47C93.1743 143.502 95.2793 143.184 97.29 142.53C99.0141 141.963 100.613 141.071 102 139.9C103.283 138.804 104.307 137.438 105 135.9C105.676 134.366 106.017 132.706 106 131.03C106.056 129.205 105.565 127.404 104.59 125.86C103.871 124.774 102.955 123.831 101.89 123.08C101.764 122.994 101.659 122.879 101.584 122.746C101.509 122.613 101.466 122.465 101.457 122.312C101.448 122.16 101.475 122.007 101.534 121.866C101.594 121.725 101.685 121.6 101.8 121.5C102.66 120.715 103.392 119.801 103.97 118.79C104.751 117.384 105.151 115.798 105.13 114.19C105.154 112.565 104.813 110.955 104.13 109.48C103.463 108.075 102.468 106.851 101.23 105.91C99.8594 104.876 98.3102 104.103 96.66 103.63C94.6805 103.064 92.6287 102.791 90.57 102.82L90.48 102.88Z" fill="url(#paint13_linear_4_814)"/>
</g>
<defs>
<linearGradient id="paint0_linear_4_814" x1="200.27" y1="-5.7" x2="151.39" y2="271.53" gradientUnits="userSpaceOnUse">
<stop offset="0.25" stop-color="#F6E594"/>
<stop offset="0.38" stop-color="#F5E492"/>
<stop offset="0.43" stop-color="#F2DE8B"/>
<stop offset="0.47" stop-color="#ECD580"/>
<stop offset="0.49" stop-color="#E4C86F"/>
<stop offset="0.5" stop-color="#E2C46A"/>
<stop offset="0.61" stop-color="#C89E3F"/>
<stop offset="0.72" stop-color="#E8D17E"/>
<stop offset="0.76" stop-color="#E5CE7C"/>
<stop offset="0.79" stop-color="#DCC574"/>
<stop offset="0.81" stop-color="#CDB568"/>
<stop offset="0.83" stop-color="#B79F57"/>
<stop offset="0.86" stop-color="#9B8240"/>
<stop offset="0.88" stop-color="#684E18"/>
</linearGradient>
<linearGradient id="paint1_linear_4_814" x1="140.71" y1="-16.2" x2="91.83" y2="261.03" gradientUnits="userSpaceOnUse">
<stop offset="0.25" stop-color="#F6E594"/>
<stop offset="0.38" stop-color="#F5E492"/>
<stop offset="0.43" stop-color="#F2DE8B"/>
<stop offset="0.47" stop-color="#ECD580"/>
<stop offset="0.49" stop-color="#E4C86F"/>
<stop offset="0.5" stop-color="#E2C46A"/>
<stop offset="0.61" stop-color="#C89E3F"/>
<stop offset="0.72" stop-color="#E8D17E"/>
<stop offset="0.76" stop-color="#E5CE7C"/>
<stop offset="0.79" stop-color="#DCC574"/>
<stop offset="0.81" stop-color="#CDB568"/>
<stop offset="0.83" stop-color="#B79F57"/>
<stop offset="0.86" stop-color="#9B8240"/>
<stop offset="0.88" stop-color="#684E18"/>
</linearGradient>
<linearGradient id="paint2_linear_4_814" x1="200.15" y1="-5.49001" x2="151.35" y2="271.3" gradientUnits="userSpaceOnUse">
<stop offset="0.25" stop-color="#F6E594"/>
<stop offset="0.38" stop-color="#F5E492"/>
<stop offset="0.43" stop-color="#F2DE8B"/>
<stop offset="0.47" stop-color="#ECD580"/>
<stop offset="0.49" stop-color="#E4C86F"/>
<stop offset="0.5" stop-color="#E2C46A"/>
<stop offset="0.61" stop-color="#C89E3F"/>
<stop offset="0.72" stop-color="#E8D17E"/>
<stop offset="0.76" stop-color="#E5CE7C"/>
<stop offset="0.79" stop-color="#DCC574"/>
<stop offset="0.81" stop-color="#CDB568"/>
<stop offset="0.83" stop-color="#B79F57"/>
<stop offset="0.86" stop-color="#9B8240"/>
<stop offset="0.88" stop-color="#684E18"/>
</linearGradient>
<linearGradient id="paint3_linear_4_814" x1="140.67" y1="-15.9801" x2="91.86" y2="260.81" gradientUnits="userSpaceOnUse">
<stop offset="0.25" stop-color="#F6E594"/>
<stop offset="0.38" stop-color="#F5E492"/>
<stop offset="0.43" stop-color="#F2DE8B"/>
<stop offset="0.47" stop-color="#ECD580"/>
<stop offset="0.49" stop-color="#E4C86F"/>
<stop offset="0.5" stop-color="#E2C46A"/>
<stop offset="0.61" stop-color="#C89E3F"/>
<stop offset="0.72" stop-color="#E8D17E"/>
<stop offset="0.76" stop-color="#E5CE7C"/>
<stop offset="0.79" stop-color="#DCC574"/>
<stop offset="0.81" stop-color="#CDB568"/>
<stop offset="0.83" stop-color="#B79F57"/>
<stop offset="0.86" stop-color="#9B8240"/>
<stop offset="0.88" stop-color="#684E18"/>
</linearGradient>
<linearGradient id="paint4_linear_4_814" x1="146.14" y1="16.5001" x2="67.15" y2="233.51" gradientUnits="userSpaceOnUse">
<stop stop-color="#F6E594"/>
<stop offset="0.33" stop-color="#F6E492"/>
<stop offset="0.45" stop-color="#F4DF8B"/>
<stop offset="0.53" stop-color="#F2D880"/>
<stop offset="0.6" stop-color="#EFCD6F"/>
<stop offset="0.65" stop-color="#EBC15C"/>
<stop offset="0.7" stop-color="#C89D47"/>
<stop offset="0.82" stop-color="#7A4D18"/>
<stop offset="0.97" stop-color="#C1914C"/>
</linearGradient>
<linearGradient id="paint5_linear_4_814" x1="166.09" y1="34.2" x2="53.02" y2="230.04" gradientUnits="userSpaceOnUse">
<stop stop-color="#FFFFAD"/>
<stop offset="0.26" stop-color="#F6E594"/>
<stop offset="0.34" stop-color="#F5E492"/>
<stop offset="0.37" stop-color="#F2DE8B"/>
<stop offset="0.39" stop-color="#ECD580"/>
<stop offset="0.41" stop-color="#E2C46A"/>
<stop offset="0.51" stop-color="#A68C46"/>
<stop offset="0.66" stop-color="#564217"/>
<stop offset="0.68" stop-color="#75612D"/>
<stop offset="0.73" stop-color="#C7B167"/>
<stop offset="0.75" stop-color="#E8D17E"/>
<stop offset="0.78" stop-color="#E5CE7C"/>
<stop offset="0.81" stop-color="#DDC574"/>
<stop offset="0.83" stop-color="#CFB568"/>
<stop offset="0.85" stop-color="#BB9F56"/>
<stop offset="0.86" stop-color="#A2823F"/>
<stop offset="0.88" stop-color="#825E23"/>
<stop offset="0.9" stop-color="#5B3200"/>
</linearGradient>
<linearGradient id="paint6_linear_4_814" x1="116.21" y1="155.95" x2="116.21" y2="166.49" gradientUnits="userSpaceOnUse">
<stop stop-color="#F6E594"/>
<stop offset="0.21" stop-color="#F5E492"/>
<stop offset="0.29" stop-color="#F2DE8B"/>
<stop offset="0.34" stop-color="#ECD580"/>
<stop offset="0.39" stop-color="#E4C86F"/>
<stop offset="0.4" stop-color="#E2C46A"/>
<stop offset="0.49" stop-color="#BA9D4E"/>
<stop offset="0.69" stop-color="#6A4E17"/>
<stop offset="0.72" stop-color="#6F531B"/>
<stop offset="0.75" stop-color="#7D6227"/>
<stop offset="0.79" stop-color="#957B3A"/>
<stop offset="0.83" stop-color="#B69D55"/>
<stop offset="0.86" stop-color="#E0C977"/>
<stop offset="0.87" stop-color="#E8D17E"/>
<stop offset="0.9" stop-color="#E5CE7C"/>
<stop offset="0.92" stop-color="#DCC574"/>
<stop offset="0.94" stop-color="#CDB568"/>
<stop offset="0.96" stop-color="#B79F57"/>
<stop offset="0.98" stop-color="#9B8240"/>
<stop offset="0.99" stop-color="#785F25"/>
<stop offset="1" stop-color="#684E18"/>
</linearGradient>
<linearGradient id="paint7_linear_4_814" x1="116.34" y1="76.2301" x2="116.34" y2="86.7701" gradientUnits="userSpaceOnUse">
<stop stop-color="#F6E594"/>
<stop offset="0.21" stop-color="#F5E492"/>
<stop offset="0.29" stop-color="#F2DE8B"/>
<stop offset="0.34" stop-color="#ECD580"/>
<stop offset="0.39" stop-color="#E4C86F"/>
<stop offset="0.4" stop-color="#E2C46A"/>
<stop offset="0.49" stop-color="#BA9D4E"/>
<stop offset="0.69" stop-color="#6A4E17"/>
<stop offset="0.72" stop-color="#6F531B"/>
<stop offset="0.75" stop-color="#7D6227"/>
<stop offset="0.79" stop-color="#957B3A"/>
<stop offset="0.83" stop-color="#B69D55"/>
<stop offset="0.86" stop-color="#E0C977"/>
<stop offset="0.87" stop-color="#E8D17E"/>
<stop offset="0.9" stop-color="#E5CE7C"/>
<stop offset="0.92" stop-color="#DCC574"/>
<stop offset="0.94" stop-color="#CDB568"/>
<stop offset="0.96" stop-color="#B79F57"/>
<stop offset="0.98" stop-color="#9B8240"/>
<stop offset="0.99" stop-color="#785F25"/>
<stop offset="1" stop-color="#684E18"/>
</linearGradient>
<linearGradient id="paint8_linear_4_814" x1="129.3" y1="100.48" x2="129.3" y2="163.28" gradientUnits="userSpaceOnUse">
<stop stop-color="#F6E594"/>
<stop offset="0.36" stop-color="#F6E492"/>
<stop offset="0.5" stop-color="#F4DF8B"/>
<stop offset="0.59" stop-color="#F2D880"/>
<stop offset="0.66" stop-color="#EFCD6F"/>
<stop offset="0.72" stop-color="#EBC15C"/>
<stop offset="0.77" stop-color="#C89D47"/>
<stop offset="0.88" stop-color="#7A4D18"/>
<stop offset="0.95" stop-color="#C1914C"/>
<stop offset="0.96" stop-color="#BE8F4A"/>
<stop offset="0.97" stop-color="#B58742"/>
<stop offset="0.98" stop-color="#A57B36"/>
<stop offset="0.99" stop-color="#8F6924"/>
<stop offset="1" stop-color="#624600"/>
</linearGradient>
<linearGradient id="paint9_linear_4_814" x1="91.02" y1="99.8701" x2="91.02" y2="164" gradientUnits="userSpaceOnUse">
<stop stop-color="#F6E594"/>
<stop offset="0.36" stop-color="#F6E492"/>
<stop offset="0.5" stop-color="#F4DF8B"/>
<stop offset="0.59" stop-color="#F2D880"/>
<stop offset="0.66" stop-color="#EFCD6F"/>
<stop offset="0.72" stop-color="#EBC15C"/>
<stop offset="0.77" stop-color="#C89D47"/>
<stop offset="0.88" stop-color="#7A4D18"/>
<stop offset="0.95" stop-color="#C1914C"/>
<stop offset="0.96" stop-color="#BE8F4A"/>
<stop offset="0.97" stop-color="#B58742"/>
<stop offset="0.98" stop-color="#A57B36"/>
<stop offset="0.99" stop-color="#8F6924"/>
<stop offset="1" stop-color="#624600"/>
</linearGradient>
<linearGradient id="paint10_linear_4_814" x1="129.26" y1="96.5701" x2="129.36" y2="162.47" gradientUnits="userSpaceOnUse">
<stop stop-color="#F6E594"/>
<stop offset="0.17" stop-color="#F6E492"/>
<stop offset="0.24" stop-color="#F4DF8B"/>
<stop offset="0.28" stop-color="#F2D880"/>
<stop offset="0.32" stop-color="#EFCD6F"/>
<stop offset="0.35" stop-color="#EBC15C"/>
<stop offset="0.4" stop-color="#C89D47"/>
<stop offset="0.54" stop-color="#7A4D18"/>
<stop offset="0.66" stop-color="#B68644"/>
<stop offset="0.77" stop-color="#C1914C"/>
<stop offset="0.8" stop-color="#C3944E"/>
<stop offset="0.82" stop-color="#C99D56"/>
<stop offset="0.84" stop-color="#D3AD63"/>
<stop offset="0.86" stop-color="#E2C375"/>
<stop offset="0.88" stop-color="#F5E08C"/>
</linearGradient>
<linearGradient id="paint11_linear_4_814" x1="129.3" y1="103.48" x2="129.3" y2="143.12" gradientUnits="userSpaceOnUse">
<stop stop-color="#FFF7AB"/>
<stop offset="0.41" stop-color="#F6E594"/>
<stop offset="0.57" stop-color="#F6E492"/>
<stop offset="0.62" stop-color="#F4DF8B"/>
<stop offset="0.66" stop-color="#F2D880"/>
<stop offset="0.7" stop-color="#EFCD6F"/>
<stop offset="0.72" stop-color="#EBC15C"/>
<stop offset="0.77" stop-color="#C89D47"/>
<stop offset="0.88" stop-color="#7A4D18"/>
<stop offset="0.91" stop-color="#C1914C"/>
<stop offset="0.92" stop-color="#BE8E4A"/>
<stop offset="0.94" stop-color="#B58643"/>
<stop offset="0.95" stop-color="#A57838"/>
<stop offset="0.96" stop-color="#724A14"/>
<stop offset="0.97" stop-color="#553000"/>
</linearGradient>
<linearGradient id="paint12_linear_4_814" x1="91.02" y1="102.87" x2="91.02" y2="158.74" gradientUnits="userSpaceOnUse">
<stop stop-color="#F6E594"/>
<stop offset="0.17" stop-color="#F6E492"/>
<stop offset="0.24" stop-color="#F4DF8B"/>
<stop offset="0.28" stop-color="#F2D880"/>
<stop offset="0.32" stop-color="#EFCD6F"/>
<stop offset="0.35" stop-color="#EBC15C"/>
<stop offset="0.4" stop-color="#C89D47"/>
<stop offset="0.54" stop-color="#7A4D18"/>
<stop offset="0.66" stop-color="#B68644"/>
<stop offset="0.77" stop-color="#C1914C"/>
<stop offset="0.8" stop-color="#C3944E"/>
<stop offset="0.82" stop-color="#C99D56"/>
<stop offset="0.84" stop-color="#D3AD63"/>
<stop offset="0.86" stop-color="#E2C375"/>
<stop offset="0.88" stop-color="#F5E08C"/>
</linearGradient>
<linearGradient id="paint13_linear_4_814" x1="91.02" y1="102.87" x2="91.02" y2="143.47" gradientUnits="userSpaceOnUse">
<stop stop-color="#FFF7AB"/>
<stop offset="0.41" stop-color="#F6E594"/>
<stop offset="0.57" stop-color="#F6E492"/>
<stop offset="0.62" stop-color="#F4DF8B"/>
<stop offset="0.66" stop-color="#F2D880"/>
<stop offset="0.7" stop-color="#EFCD6F"/>
<stop offset="0.72" stop-color="#EBC15C"/>
<stop offset="0.77" stop-color="#C89D47"/>
<stop offset="0.88" stop-color="#7A4D18"/>
<stop offset="0.91" stop-color="#C1914C"/>
<stop offset="0.92" stop-color="#BE8E4A"/>
<stop offset="0.94" stop-color="#B58643"/>
<stop offset="0.95" stop-color="#A57838"/>
<stop offset="0.96" stop-color="#724A14"/>
<stop offset="0.97" stop-color="#553000"/>
</linearGradient>
</defs>
</svg>
