<svg width="233" height="232" viewBox="0 0 233 232" fill="none" xmlns="http://www.w3.org/2000/svg">
<mask id="mask0_4_355" style="mask-type:luminance" maskUnits="userSpaceOnUse" x="0" y="0" width="233" height="232">
<path d="M232.57 0H0V231.49H232.57V0Z" fill="white"/>
</mask>
<g mask="url(#mask0_4_355)">
<path d="M115.37 24.78L145.65 86.13L213.35 95.97L164.36 143.72L175.92 211.15L115.37 179.31L54.82 211.15L66.38 143.72L17.39 95.97L85.09 86.13L115.37 24.78Z" fill="black"/>
<mask id="mask1_4_355" style="mask-type:luminance" maskUnits="userSpaceOnUse" x="18" y="24" width="197" height="188">
<path d="M116.37 24.78L146.65 86.13L214.35 95.97L165.36 143.72L176.92 211.15L116.37 179.31L55.82 211.15L67.38 143.72L18.39 95.97L86.09 86.13L116.37 24.78Z" fill="white"/>
</mask>
<g mask="url(#mask1_4_355)">
<path d="M115.69 264.47V126.05L72.92 257.7L71.82 257.34L114.6 125.69L33.23 237.68L32.3 237L113.67 125.02L1.68002 206.38L1.00002 205.45L112.99 124.08L-18.66 166.86L-19.02 165.77L112.64 122.99H-25.79V121.84H112.64L-19.02 79.06L-18.66 77.97L112.99 120.75L1.00002 39.38L1.68002 38.45L113.67 119.82L32.3 7.82998L33.23 7.14998L114.6 119.14L71.82 -12.51L72.92 -12.86L115.69 118.79V-19.64H116.84V118.79L159.62 -12.86L160.71 -12.51L117.94 119.14L199.3 7.14998L200.23 7.82998L118.87 119.82L230.85 38.45L231.53 39.38L119.54 120.75L251.19 77.97L251.55 79.06L119.9 121.84H258.32V122.99H119.9L251.55 165.77L251.19 166.86L119.54 124.08L231.53 205.45L230.85 206.38L118.87 125.02L200.23 237L199.3 237.68L117.94 125.69L160.71 257.34L159.62 257.7L116.84 126.05V264.47H115.69Z" fill="url(#paint0_linear_4_355)"/>
<path d="M258.12 122.04H118.63L251.3 78.94L251.06 78.22L118.4 121.33L231.25 39.34L230.81 38.73L117.96 120.72L199.95 7.87L199.34 7.43L117.36 120.28L160.46 -12.38L159.75 -12.61L116.64 120.05V-19.44H115.89V120.05L72.79 -12.61L72.07 -12.38L115.18 120.28L33.19 7.43L32.58 7.87L114.57 120.72L1.72003 38.73L1.28004 39.34L114.13 121.33L-18.53 78.22L-18.76 78.94L113.9 122.04H-25.59V122.79H113.9L-18.76 165.9L-18.53 166.61L114.13 123.5L1.28004 205.49L1.72003 206.1L114.57 124.11L32.58 236.96L33.19 237.4L115.18 124.55L72.07 257.21L72.79 257.44L115.89 124.78V264.27H116.64V124.78L159.75 257.44L160.46 257.21L117.36 124.55L199.34 237.4L199.95 236.96L117.96 124.11L230.81 206.1L231.25 205.49L118.4 123.5L251.06 166.61L251.3 165.9L118.63 122.79H258.12V122.04Z" fill="url(#paint1_linear_4_355)"/>
</g>
<path d="M185.47 225.46L117.18 187.89C116.884 187.727 116.552 187.642 116.215 187.642C115.878 187.642 115.546 187.727 115.25 187.89L47 225.45C46.6759 225.642 46.304 225.739 45.9274 225.729C45.5507 225.719 45.1845 225.603 44.871 225.394C44.5575 225.185 44.3094 224.891 44.1553 224.547C44.0012 224.203 43.9474 223.823 44 223.45L55.16 148.45C55.2051 148.143 55.178 147.829 55.0808 147.534C54.9836 147.239 54.819 146.97 54.6 146.75L1.48001 93.54C1.22291 93.2856 1.03959 92.9663 0.949573 92.616C0.859552 92.2658 0.866198 91.8976 0.968802 91.5508C1.07141 91.204 1.26613 90.8915 1.53224 90.6466C1.79836 90.4017 2.1259 90.2335 2.48001 90.16L75.48 75.39C75.7641 75.3312 76.032 75.2113 76.2651 75.0386C76.4982 74.8659 76.691 74.6446 76.83 74.39L114.55 6.79999C114.721 6.48249 114.975 6.21725 115.285 6.0324C115.595 5.84754 115.949 5.74994 116.31 5.74994C116.671 5.74994 117.025 5.84754 117.335 6.0324C117.645 6.21725 117.899 6.48249 118.07 6.79999L154.65 75.28C154.794 75.5404 154.995 75.7652 155.237 75.9382C155.479 76.1112 155.757 76.228 156.05 76.28L230 90C230.36 90.0652 230.696 90.228 230.97 90.4707C231.244 90.7134 231.446 91.0266 231.554 91.3763C231.662 91.7259 231.673 92.0986 231.584 92.4537C231.495 92.8087 231.31 93.1326 231.05 93.39L177.55 146.61C177.328 146.833 177.162 147.104 177.064 147.403C176.967 147.702 176.942 148.019 176.99 148.33L188.37 223.33C188.438 223.699 188.4 224.08 188.262 224.429C188.123 224.778 187.889 225.081 187.587 225.303C187.284 225.525 186.925 225.658 186.551 225.685C186.177 225.713 185.802 225.635 185.47 225.46ZM27.81 101.46L68.46 142.08C68.6784 142.304 68.841 142.577 68.9348 142.876C69.0286 143.174 69.0509 143.491 69 143.8L60.74 199.36C60.6955 199.725 60.7522 200.094 60.9039 200.429C61.0557 200.763 61.2966 201.05 61.6003 201.256C61.904 201.463 62.2587 201.582 62.6256 201.6C62.9924 201.618 63.3573 201.535 63.68 201.36L115.23 173C115.526 172.837 115.858 172.752 116.195 172.752C116.532 172.752 116.864 172.837 117.16 173L168.65 201.33C168.973 201.505 169.338 201.588 169.704 201.57C170.071 201.552 170.426 201.433 170.73 201.226C171.033 201.02 171.274 200.733 171.426 200.399C171.578 200.064 171.635 199.695 171.59 199.33L163.17 143.8C163.123 143.491 163.15 143.175 163.247 142.878C163.344 142.581 163.51 142.311 163.73 142.09L204.33 101.69C204.587 101.436 204.77 101.116 204.86 100.766C204.95 100.416 204.944 100.048 204.841 99.7008C204.739 99.354 204.544 99.0415 204.278 98.7966C204.012 98.5517 203.684 98.3835 203.33 98.31L147.53 88C147.237 87.948 146.959 87.8312 146.717 87.6582C146.475 87.4852 146.274 87.2604 146.13 87L117.81 34C117.638 33.685 117.384 33.4221 117.075 33.2389C116.766 33.0558 116.414 32.9592 116.055 32.9592C115.696 32.9592 115.344 33.0558 115.035 33.2389C114.726 33.4221 114.472 33.685 114.3 34L85.3 86C85.161 86.2546 84.9682 86.4759 84.7351 86.6486C84.502 86.8213 84.2341 86.9412 83.95 87L28.83 98.1C28.4763 98.1719 28.1486 98.3382 27.8817 98.5812C27.6148 98.8243 27.4187 99.135 27.3141 99.4805C27.2095 99.826 27.2004 100.193 27.2877 100.544C27.375 100.894 27.5555 101.214 27.81 101.47V101.46Z" fill="url(#paint2_linear_4_355)"/>
<mask id="mask2_4_355" style="mask-type:luminance" maskUnits="userSpaceOnUse" x="0" y="5" width="232" height="221">
<path d="M185.47 225.46L117.18 187.89C116.884 187.727 116.552 187.642 116.215 187.642C115.878 187.642 115.546 187.727 115.25 187.89L47 225.45C46.6759 225.642 46.304 225.739 45.9274 225.729C45.5507 225.719 45.1845 225.603 44.871 225.394C44.5575 225.185 44.3094 224.891 44.1553 224.547C44.0012 224.203 43.9474 223.823 44 223.45L55.16 148.45C55.2051 148.143 55.178 147.829 55.0808 147.534C54.9836 147.239 54.819 146.97 54.6 146.75L1.48001 93.54C1.22291 93.2856 1.03959 92.9663 0.949573 92.616C0.859552 92.2658 0.866198 91.8976 0.968802 91.5508C1.07141 91.204 1.26613 90.8915 1.53224 90.6466C1.79836 90.4017 2.1259 90.2335 2.48001 90.16L75.48 75.39C75.7641 75.3312 76.032 75.2113 76.2651 75.0386C76.4982 74.8659 76.691 74.6446 76.83 74.39L114.55 6.79999C114.721 6.48249 114.975 6.21725 115.285 6.0324C115.595 5.84754 115.949 5.74994 116.31 5.74994C116.671 5.74994 117.025 5.84754 117.335 6.0324C117.645 6.21725 117.899 6.48249 118.07 6.79999L154.65 75.28C154.794 75.5404 154.995 75.7652 155.237 75.9382C155.479 76.1112 155.757 76.228 156.05 76.28L230 90C230.36 90.0652 230.696 90.228 230.97 90.4707C231.244 90.7134 231.446 91.0266 231.554 91.3763C231.662 91.7259 231.673 92.0986 231.584 92.4537C231.495 92.8087 231.31 93.1326 231.05 93.39L177.55 146.61C177.328 146.833 177.162 147.104 177.064 147.403C176.967 147.702 176.942 148.019 176.99 148.33L188.37 223.33C188.438 223.699 188.4 224.08 188.262 224.429C188.123 224.778 187.889 225.081 187.587 225.303C187.284 225.525 186.925 225.658 186.551 225.685C186.177 225.713 185.802 225.635 185.47 225.46ZM27.81 101.46L68.46 142.08C68.6784 142.304 68.841 142.577 68.9348 142.876C69.0286 143.174 69.0509 143.491 69 143.8L60.74 199.36C60.6955 199.725 60.7522 200.094 60.9039 200.429C61.0557 200.763 61.2966 201.05 61.6003 201.256C61.904 201.463 62.2587 201.582 62.6256 201.6C62.9924 201.618 63.3573 201.535 63.68 201.36L115.23 173C115.526 172.837 115.858 172.752 116.195 172.752C116.532 172.752 116.864 172.837 117.16 173L168.65 201.33C168.973 201.505 169.338 201.588 169.704 201.57C170.071 201.552 170.426 201.433 170.73 201.226C171.033 201.02 171.274 200.733 171.426 200.399C171.578 200.064 171.635 199.695 171.59 199.33L163.17 143.8C163.123 143.491 163.15 143.175 163.247 142.878C163.344 142.581 163.51 142.311 163.73 142.09L204.33 101.69C204.587 101.436 204.77 101.116 204.86 100.766C204.95 100.416 204.944 100.048 204.841 99.7008C204.739 99.354 204.544 99.0415 204.278 98.7966C204.012 98.5517 203.684 98.3835 203.33 98.31L147.53 88C147.237 87.948 146.959 87.8312 146.717 87.6582C146.475 87.4852 146.274 87.2604 146.13 87L117.81 34C117.638 33.685 117.384 33.4221 117.075 33.2389C116.766 33.0558 116.414 32.9592 116.055 32.9592C115.696 32.9592 115.344 33.0558 115.035 33.2389C114.726 33.4221 114.472 33.685 114.3 34L85.3 86C85.161 86.2546 84.9682 86.4759 84.7351 86.6486C84.502 86.8213 84.2341 86.9412 83.95 87L28.83 98.1C28.4763 98.1719 28.1486 98.3382 27.8817 98.5812C27.6148 98.8243 27.4187 99.135 27.3141 99.4805C27.2095 99.826 27.2004 100.193 27.2877 100.544C27.375 100.894 27.5555 101.214 27.81 101.47V101.46Z" fill="white"/>
</mask>
<g mask="url(#mask2_4_355)">
<path d="M116.64 -19.26H115.89V264.45H116.64V-19.26Z" fill="#C89E3F"/>
<path d="M109.212 -19.0881L108.463 -19.0488L123.311 264.272L124.06 264.233L109.212 -19.0881Z" fill="#C89E3F"/>
<path d="M101.808 -18.5267L101.062 -18.4483L130.718 263.708L131.464 263.629L101.808 -18.5267Z" fill="#C89E3F"/>
<path d="M94.441 -17.5694L93.7003 -17.4521L138.082 262.765L138.823 262.648L94.441 -17.5694Z" fill="#C89E3F"/>
<path d="M87.1368 -16.2399L86.4032 -16.084L145.39 261.426L146.123 261.27L87.1368 -16.2399Z" fill="#C89E3F"/>
<path d="M79.9107 -14.5224L79.1863 -14.3283L152.616 259.715L153.34 259.52L79.9107 -14.5224Z" fill="#C89E3F"/>
<path d="M72.7896 -12.4311L72.0763 -12.1993L159.747 257.625L160.461 257.393L72.7896 -12.4311Z" fill="#C89E3F"/>
<path d="M65.7807 -9.97083L65.0805 -9.70205L166.753 255.164L167.453 254.895L65.7807 -9.97083Z" fill="#C89E3F"/>
<path d="M58.9122 -7.14667L58.227 -6.84162L173.622 252.34L174.307 252.035L58.9122 -7.14667Z" fill="#C89E3F"/>
<path d="M52.1931 -3.96423L51.5249 -3.62374L180.327 249.164L180.995 248.823L52.1931 -3.96423Z" fill="#C89E3F"/>
<path d="M46.1268 -0.516235L45.4743 -0.141235L187.329 246.687L187.982 246.312L46.1268 -0.516235Z" fill="#C89E3F"/>
<path d="M39.3228 3.42047L38.6938 3.82895L193.213 241.768L193.842 241.36L39.3228 3.42047Z" fill="#C89E3F"/>
<path d="M33.183 7.60907L32.5762 8.04991L199.337 237.576L199.944 237.135L33.183 7.60907Z" fill="#C89E3F"/>
<path d="M27.2856 12.1182L26.7027 12.5902L205.247 233.074L205.83 232.602L27.2856 12.1182Z" fill="#C89E3F"/>
<path d="M21.623 16.9296L21.0656 17.4315L210.905 228.269L211.462 227.767L21.623 16.9296Z" fill="#C89E3F"/>
<path d="M16.2181 22.0242L15.6877 22.5545L216.301 223.168L216.831 222.637L16.2181 22.0242Z" fill="#C89E3F"/>
<path d="M11.0944 27.4021L10.5926 27.9595L221.43 217.799L221.932 217.241L11.0944 27.4021Z" fill="#C89E3F"/>
<path d="M6.25611 33.033L5.78412 33.6158L226.268 212.16L226.74 211.577L6.25611 33.033Z" fill="#C89E3F"/>
<path d="M1.7176 38.9155L1.27676 39.5223L230.803 206.283L231.244 205.676L1.7176 38.9155Z" fill="#C89E3F"/>
<path d="M-2.5061 45.0277L-2.91458 45.6567L235.025 200.176L235.433 199.547L-2.5061 45.0277Z" fill="#C89E3F"/>
<path d="M-6.39966 51.3468L-6.77466 51.9963L238.925 193.851L239.3 193.202L-6.39966 51.3468Z" fill="#C89E3F"/>
<path d="M-9.95733 57.8591L-10.2978 58.5274L242.49 187.329L242.83 186.661L-9.95733 57.8591Z" fill="#C89E3F"/>
<path d="M-13.1731 64.5603L-13.4782 65.2455L245.704 180.641L246.009 179.956L-13.1731 64.5603Z" fill="#C89E3F"/>
<path d="M-16.0307 71.415L-16.2995 72.1152L248.567 173.788L248.835 173.088L-16.0307 71.415Z" fill="#C89E3F"/>
<path d="M251.06 166.79L-18.76 79.12L-18.53 78.41L251.3 166.08L251.06 166.79Z" fill="#C89E3F"/>
<path d="M253.19 159.68L-20.85 86.25L-20.66 85.52L253.39 158.95L253.19 159.68Z" fill="#C89E3F"/>
<path d="M-22.4183 92.7345L-22.5742 93.4681L254.936 152.455L255.092 151.721L-22.4183 92.7345Z" fill="#C89E3F"/>
<path d="M-23.7864 100.033L-23.9037 100.774L256.313 145.156L256.431 144.415L-23.7864 100.033Z" fill="#C89E3F"/>
<path d="M-24.7723 107.396L-24.8507 108.142L257.305 137.797L257.384 137.052L-24.7723 107.396Z" fill="#C89E3F"/>
<path d="M-25.3791 114.802L-25.4184 115.551L257.903 130.399L257.942 129.65L-25.3791 114.802Z" fill="#C89E3F"/>
<path d="M258.12 122.22H-25.59V122.97H258.12V122.22Z" fill="#C89E3F"/>
<path d="M257.914 114.81L-25.41 129.608L-25.3709 130.357L257.953 115.559L257.914 114.81Z" fill="#C89E3F"/>
<path d="M257.308 107.444L-24.8577 137.001L-24.7796 137.747L257.387 108.19L257.308 107.444Z" fill="#C89E3F"/>
<path d="M256.313 100.092L-23.9191 144.376L-23.802 145.117L256.431 100.833L256.313 100.092Z" fill="#C89E3F"/>
<path d="M254.935 92.6575L-22.5444 151.789L-22.3881 152.523L255.091 93.391L254.935 92.6575Z" fill="#C89E3F"/>
<path d="M-20.66 159.68L-20.85 158.95L253.19 85.52L253.39 86.25L-20.66 159.68Z" fill="#C89E3F"/>
<path d="M-18.53 166.79L-18.76 166.08L251.06 78.41L251.3 79.12L-18.53 166.79Z" fill="#C89E3F"/>
<path d="M248.514 71.3016L-16.263 173.205L-15.9936 173.905L248.784 72.0016L248.514 71.3016Z" fill="#C89E3F"/>
<path d="M245.741 64.656L-13.5215 179.87L-13.2169 180.556L246.046 65.3414L245.741 64.656Z" fill="#C89E3F"/>
<path d="M242.528 57.9143L-10.3272 186.584L-9.9871 187.252L242.868 58.5827L242.528 57.9143Z" fill="#C89E3F"/>
<path d="M238.918 51.3556L-6.78159 193.211L-6.40659 193.86L239.293 52.0052L238.918 51.3556Z" fill="#C89E3F"/>
<path d="M235.05 45.0295L-2.91611 199.508L-2.50774 200.137L235.458 45.6586L235.05 45.0295Z" fill="#C89E3F"/>
<path d="M230.736 38.814L1.35577 205.775L1.79714 206.381L231.178 39.4204L230.736 38.814Z" fill="#C89E3F"/>
<path d="M226.217 32.9873L5.82654 211.647L6.29883 212.23L226.689 33.5699L226.217 32.9873Z" fill="#C89E3F"/>
<path d="M221.446 27.4289L10.5752 217.231L11.077 217.789L221.948 27.9864L221.446 27.4289Z" fill="#C89E3F"/>
<path d="M216.217 21.9495L15.7789 222.738L16.3097 223.268L216.748 22.4794L216.217 21.9495Z" fill="#C89E3F"/>
<path d="M210.98 16.9846L20.9937 227.69L21.5507 228.192L211.537 17.4868L210.98 16.9846Z" fill="#C89E3F"/>
<path d="M205.286 12.1485L26.6647 232.57L27.2474 233.042L205.869 12.6207L205.286 12.1485Z" fill="#C89E3F"/>
<path d="M199.238 7.55701L32.6774 237.229L33.2845 237.669L199.845 7.99732L199.238 7.55701Z" fill="#C89E3F"/>
<path d="M193.188 3.42572L38.7104 241.392L39.3395 241.8L193.817 3.83409L193.188 3.42572Z" fill="#C89E3F"/>
<path d="M186.801 -0.471436L45.0742 245.303L45.7239 245.678L187.45 -0.0967754L186.801 -0.471436Z" fill="#C89E3F"/>
<path d="M180.394 -3.94147L51.4602 248.779L52.1283 249.119L181.062 -3.60063L180.394 -3.94147Z" fill="#C89E3F"/>
<path d="M173.53 -7.19421L58.3161 252.068L59.0015 252.373L174.216 -6.88963L173.53 -7.19421Z" fill="#C89E3F"/>
<path d="M166.695 -9.99817L65.1152 254.903L65.8155 255.172L167.396 -9.72964L166.695 -9.99817Z" fill="#C89E3F"/>
<path d="M159.725 -12.4228L72.1012 257.417L72.8146 257.648L160.439 -12.1912L159.725 -12.4228Z" fill="#C89E3F"/>
<path d="M152.64 -14.5196L79.1624 259.51L79.8869 259.705L153.364 -14.3254L152.64 -14.5196Z" fill="#C89E3F"/>
<path d="M145.415 -16.2283L86.3799 261.272L87.1135 261.428L146.149 -16.0722L145.415 -16.2283Z" fill="#C89E3F"/>
<path d="M139.297 -17.7236L93.9034 263.149L94.6459 263.269L140.04 -17.6036L139.297 -17.7236Z" fill="#C89E3F"/>
<path d="M130.676 -18.5223L101.119 263.644L101.865 263.722L131.422 -18.4442L130.676 -18.5223Z" fill="#C89E3F"/>
<path d="M123.288 -19.0834L108.489 264.24L109.238 264.279L124.037 -19.0443L123.288 -19.0834Z" fill="#C89E3F"/>
</g>
<path d="M116.3 6.76998C116.481 6.77046 116.658 6.82001 116.813 6.91334C116.968 7.00668 117.095 7.1403 117.18 7.29998L153.76 75.78C153.972 76.178 154.271 76.5231 154.634 76.7897C154.998 77.0564 155.417 77.2376 155.86 77.32L229.86 91.03C230.039 91.0639 230.205 91.146 230.34 91.2673C230.476 91.3886 230.576 91.5445 230.629 91.7183C230.683 91.8922 230.688 92.0773 230.644 92.2538C230.6 92.4303 230.509 92.5915 230.38 92.72L176.89 145.94C176.555 146.273 176.304 146.68 176.156 147.128C176.009 147.577 175.969 148.053 176.04 148.52L187.42 223.52C187.443 223.661 187.435 223.806 187.397 223.944C187.359 224.082 187.292 224.21 187.2 224.32C187.105 224.431 186.987 224.52 186.854 224.58C186.721 224.641 186.576 224.671 186.43 224.67C186.263 224.668 186.098 224.627 185.95 224.55L117.66 187C117.217 186.757 116.72 186.629 116.215 186.629C115.71 186.629 115.213 186.757 114.77 187L46.51 224.57C46.3605 224.655 46.1918 224.699 46.02 224.7C45.8748 224.699 45.7316 224.666 45.6003 224.604C45.4691 224.542 45.3529 224.452 45.26 224.34C45.1678 224.232 45.0996 224.106 45.06 223.97C45.0203 223.834 45.0101 223.69 45.03 223.55L56.19 148.55C56.258 148.087 56.2166 147.614 56.069 147.169C55.9213 146.725 55.6717 146.321 55.34 145.99L2.18 92.83C2.05146 92.7017 1.96027 92.5409 1.91623 92.3647C1.87219 92.1885 1.87695 92.0037 1.93 91.83C1.98095 91.6552 2.07866 91.4976 2.21259 91.3742C2.34652 91.2509 2.5116 91.1664 2.69 91.13L75.69 76.36C76.1098 76.2707 76.5056 76.0924 76.8507 75.8371C77.1957 75.5818 77.4819 75.2554 77.69 74.88L115.43 7.27998C115.517 7.12551 115.643 6.99689 115.796 6.90728C115.949 6.81767 116.123 6.77029 116.3 6.76998ZM62.74 202.66C63.2468 202.661 63.7457 202.534 64.19 202.29L115.73 173.93C115.882 173.842 116.054 173.796 116.23 173.796C116.406 173.796 116.578 173.842 116.73 173.93L168.22 202.26C168.825 202.593 169.526 202.708 170.206 202.584C170.886 202.46 171.502 202.105 171.95 201.58C172.229 201.252 172.434 200.868 172.551 200.454C172.669 200.04 172.695 199.605 172.63 199.18L164.2 143.65C164.177 143.494 164.191 143.335 164.242 143.185C164.292 143.036 164.377 142.9 164.49 142.79L205.08 102.4C205.466 102.014 205.74 101.529 205.871 100.999C206.002 100.469 205.986 99.9132 205.824 99.3914C205.663 98.8697 205.362 98.402 204.954 98.0387C204.546 97.6755 204.047 97.4304 203.51 97.33L147.71 87C147.562 86.9718 147.422 86.9104 147.3 86.8203C147.179 86.7303 147.08 86.6139 147.01 86.48L118.7 33.48C118.444 32.9995 118.062 32.5976 117.595 32.3175C117.129 32.0374 116.594 31.8896 116.05 31.89C115.516 31.8901 114.991 32.033 114.531 32.3037C114.07 32.5744 113.69 32.9633 113.43 33.43L84.38 85.43C84.3099 85.5549 84.2138 85.6633 84.0982 85.7478C83.9827 85.8323 83.8503 85.8911 83.71 85.92L28.63 97.12C28.0984 97.2273 27.6058 97.4766 27.2046 97.8416C26.8035 98.2065 26.5087 98.6733 26.3518 99.1924C26.1948 99.7115 26.1815 100.263 26.3133 100.79C26.445 101.316 26.7169 101.796 27.1 102.18L67.75 142.8C67.8595 142.91 67.9418 143.044 67.9904 143.192C68.039 143.339 68.0526 143.496 68.03 143.65L59.77 199.22C59.7074 199.645 59.7366 200.078 59.8556 200.49C59.9746 200.902 60.1807 201.284 60.46 201.61C60.7463 201.93 61.098 202.185 61.4914 202.358C61.8847 202.53 62.3105 202.616 62.74 202.61M116.3 5.76998C115.946 5.76681 115.597 5.85772 115.29 6.03341C114.982 6.20911 114.727 6.46329 114.55 6.76998L76.82 74.4C76.681 74.6546 76.4882 74.8759 76.2551 75.0486C76.022 75.2213 75.7541 75.3412 75.47 75.4L2.47 90.17C2.11589 90.2435 1.78835 90.4117 1.52223 90.6566C1.25612 90.9015 1.0614 91.214 0.958792 91.5608C0.856188 91.9076 0.849542 92.2758 0.939563 92.626C1.02958 92.9763 1.2129 93.2956 1.47 93.55L54.63 146.66C54.8504 146.881 55.0159 147.152 55.1132 147.448C55.2104 147.745 55.2367 148.061 55.19 148.37L44 223.4C43.9565 223.687 43.9758 223.979 44.0567 224.258C44.1375 224.536 44.2779 224.794 44.4681 225.012C44.6584 225.231 44.8939 225.406 45.1584 225.525C45.4229 225.644 45.7101 225.703 46 225.7C46.3491 225.703 46.6932 225.617 47 225.45L115.26 187.89C115.556 187.727 115.888 187.642 116.225 187.642C116.562 187.642 116.894 187.727 117.19 187.89L185.48 225.46C185.784 225.633 186.13 225.72 186.48 225.71C186.77 225.713 187.057 225.654 187.322 225.535C187.586 225.416 187.822 225.241 188.012 225.022C188.202 224.804 188.343 224.546 188.423 224.268C188.504 223.989 188.524 223.697 188.48 223.41L177.1 148.41C177.052 148.099 177.077 147.782 177.174 147.483C177.272 147.184 177.438 146.913 177.66 146.69L231.16 93.47C231.447 93.209 231.651 92.8704 231.749 92.4953C231.847 92.1202 231.833 91.7248 231.71 91.3572C231.587 90.9896 231.36 90.6656 231.057 90.4246C230.753 90.1837 230.386 90.0362 230 90L156 76.3C155.707 76.248 155.429 76.1312 155.187 75.9582C154.945 75.7852 154.744 75.5604 154.6 75.3L118.07 6.82998C117.899 6.50912 117.644 6.2409 117.332 6.05413C117.02 5.86737 116.664 5.76913 116.3 5.76998ZM62.74 201.66C62.4501 201.663 62.1629 201.604 61.8984 201.485C61.6339 201.366 61.3984 201.191 61.2081 200.972C61.0179 200.754 60.8775 200.496 60.7967 200.218C60.7158 199.939 60.6965 199.647 60.74 199.36L69 143.8C69.0467 143.491 69.0204 143.175 68.9232 142.878C68.8259 142.582 68.6604 142.311 68.44 142.09L27.81 101.47C27.5556 101.215 27.3746 100.897 27.2862 100.548C27.1978 100.199 27.2052 99.8326 27.3076 99.4875C27.4099 99.1425 27.6036 98.8314 27.868 98.5872C28.1324 98.343 28.4579 98.1747 28.81 98.1L83.9 86.94C84.1841 86.8812 84.452 86.7613 84.6851 86.5886C84.9182 86.4159 85.111 86.1946 85.25 85.94L114.3 33.94C114.472 33.625 114.726 33.3621 115.035 33.1789C115.344 32.9958 115.696 32.8992 116.055 32.8992C116.414 32.8992 116.766 32.9958 117.075 33.1789C117.384 33.3621 117.638 33.625 117.81 33.94L146.13 86.94C146.274 87.2004 146.475 87.4252 146.717 87.5982C146.959 87.7712 147.237 87.888 147.53 87.94L203.3 98.31C203.654 98.3835 203.982 98.5517 204.248 98.7966C204.514 99.0415 204.709 99.354 204.811 99.7008C204.914 100.048 204.92 100.416 204.83 100.766C204.74 101.116 204.557 101.436 204.3 101.69L163.7 142.09C163.48 142.311 163.314 142.582 163.217 142.878C163.12 143.175 163.093 143.491 163.14 143.8L171.56 199.33C171.605 199.695 171.548 200.064 171.396 200.399C171.244 200.733 171.003 201.02 170.7 201.226C170.396 201.433 170.041 201.552 169.674 201.57C169.308 201.588 168.943 201.505 168.62 201.33L117.13 173C116.834 172.837 116.502 172.752 116.165 172.752C115.828 172.752 115.496 172.837 115.2 173L63.7 201.41C63.3942 201.579 63.0495 201.665 62.7 201.66H62.74Z" fill="url(#paint3_linear_4_355)"/>
<path d="M116.21 165.99C118.844 165.99 120.98 163.854 120.98 161.22C120.98 158.586 118.844 156.45 116.21 156.45C113.576 156.45 111.44 158.586 111.44 161.22C111.44 163.854 113.576 165.99 116.21 165.99Z" fill="black" stroke="url(#paint4_linear_4_355)" stroke-miterlimit="10"/>
<path d="M116.34 86.27C118.974 86.27 121.11 84.1344 121.11 81.5C121.11 78.8656 118.974 76.73 116.34 76.73C113.706 76.73 111.57 78.8656 111.57 81.5C111.57 84.1344 113.706 86.27 116.34 86.27Z" fill="black" stroke="url(#paint5_linear_4_355)" stroke-miterlimit="10"/>
<path d="M140.17 139.88C139.101 139.867 138.081 139.432 137.331 138.669C136.582 137.907 136.165 136.879 136.17 135.81V112.25C136.165 111.18 136.582 110.151 137.331 109.387C138.08 108.623 139.1 108.186 140.17 108.17H144.42C145.172 108.168 145.91 108.377 146.549 108.775C147.187 109.173 147.701 109.743 148.03 110.42L148.15 110.21C148.502 109.601 149.007 109.096 149.617 108.744C150.226 108.393 150.917 108.209 151.62 108.21H156.57C157.636 108.21 158.66 108.629 159.42 109.378C160.18 110.126 160.614 111.144 160.63 112.21C160.629 112.988 160.411 113.75 160 114.41L154.64 122.95L161.22 133.65C161.771 134.553 161.953 135.634 161.728 136.668C161.503 137.701 160.887 138.609 160.01 139.2C159.364 139.637 158.601 139.871 157.82 139.87H152.82C152.116 139.868 151.425 139.682 150.815 139.331C150.205 138.981 149.696 138.477 149.34 137.87L148.4 136.29C148.279 137.268 147.806 138.168 147.07 138.823C146.334 139.478 145.385 139.843 144.4 139.85L140.17 139.88Z" fill="url(#paint6_linear_4_355)"/>
<path d="M156.59 111.15C156.861 111.165 157.115 111.284 157.301 111.481C157.487 111.678 157.59 111.939 157.59 112.21C157.59 112.419 157.532 112.623 157.42 112.8L151.08 122.9V123L151.14 123.11L158.59 135.21C158.74 135.449 158.791 135.737 158.733 136.013C158.676 136.288 158.513 136.531 158.28 136.69C158.114 136.801 157.919 136.86 157.72 136.86H152.72C152.541 136.861 152.365 136.815 152.21 136.725C152.056 136.636 151.928 136.506 151.84 136.35L145.97 126.48L145.64 125.93C145.451 126.134 145.348 126.402 145.35 126.68V135.79C145.356 136.063 145.254 136.328 145.067 136.528C144.881 136.728 144.623 136.847 144.35 136.86H140.1C139.827 136.847 139.569 136.728 139.383 136.528C139.196 136.328 139.094 136.063 139.1 135.79V112.25C139.092 111.975 139.192 111.707 139.379 111.505C139.566 111.303 139.825 111.183 140.1 111.17H144.35C144.625 111.183 144.884 111.303 145.071 111.505C145.258 111.707 145.358 111.975 145.35 112.25V118.74C145.349 118.806 145.36 118.871 145.384 118.932C145.408 118.993 145.444 119.049 145.489 119.097C145.535 119.144 145.589 119.182 145.649 119.208C145.71 119.234 145.774 119.249 145.84 119.25C145.989 119.248 146.134 119.208 146.262 119.132C146.39 119.057 146.497 118.949 146.57 118.82L150.64 111.69C150.727 111.531 150.856 111.398 151.013 111.307C151.17 111.215 151.348 111.168 151.53 111.17H156.53M156.53 105.17H151.58C150.319 105.179 149.083 105.524 148 106.17C146.911 105.511 145.662 105.165 144.39 105.17H140.14C138.275 105.186 136.491 105.939 135.18 107.266C133.868 108.593 133.135 110.384 133.14 112.25V135.81C133.135 137.675 133.868 139.465 135.18 140.79C136.492 142.115 138.275 142.867 140.14 142.88H144.39C145.908 142.882 147.386 142.391 148.6 141.48C149.814 142.385 151.286 142.876 152.8 142.88H157.8C159.056 142.87 160.286 142.526 161.364 141.883C162.443 141.24 163.331 140.322 163.937 139.222C164.542 138.122 164.845 136.881 164.812 135.626C164.779 134.37 164.412 133.147 163.75 132.08L158.17 123L162.54 116C163.255 114.858 163.633 113.537 163.63 112.19C163.612 110.339 162.868 108.569 161.56 107.26C160.251 105.952 158.481 105.208 156.63 105.19L156.53 105.17Z" fill="black"/>
<path d="M103.65 140.43C100.318 140.427 97.1226 139.104 94.7646 136.75C92.4065 134.395 91.0779 131.202 91.07 127.87V120.2C91.07 116.864 92.3954 113.664 94.7546 111.305C97.1138 108.945 100.314 107.62 103.65 107.62C106.986 107.62 110.186 108.945 112.545 111.305C114.905 113.664 116.23 116.864 116.23 120.2V127.87C116.222 131.202 114.893 134.395 112.535 136.75C110.177 139.104 106.982 140.427 103.65 140.43Z" fill="url(#paint7_linear_4_355)"/>
<path d="M103.65 110.65C106.186 110.647 108.62 111.652 110.416 113.442C112.213 115.233 113.225 117.664 113.23 120.2V127.87C113.23 130.411 112.221 132.847 110.424 134.644C108.627 136.441 106.191 137.45 103.65 137.45C101.109 137.45 98.6725 136.441 96.8759 134.644C95.0793 132.847 94.07 130.411 94.07 127.87V120.2C94.0753 117.664 95.0873 115.233 96.8836 113.442C98.6799 111.652 101.114 110.647 103.65 110.65ZM103.65 130.83C104.446 130.83 105.209 130.514 105.771 129.951C106.334 129.389 106.65 128.626 106.65 127.83V120.2C106.548 119.485 106.192 118.831 105.646 118.357C105.1 117.884 104.402 117.623 103.68 117.623C102.958 117.623 102.26 117.884 101.714 118.357C101.168 118.831 100.812 119.485 100.71 120.2V127.87C100.71 128.666 101.026 129.429 101.589 129.991C102.151 130.554 102.914 130.87 103.71 130.87M103.71 104.69C99.5805 104.677 95.6143 106.302 92.6821 109.21C89.7499 112.118 88.0912 116.07 88.07 120.2V127.87C88.07 132.002 89.7115 135.965 92.6333 138.887C95.5551 141.809 99.5179 143.45 103.65 143.45C107.782 143.45 111.745 141.809 114.667 138.887C117.589 135.965 119.23 132.002 119.23 127.87V120.2C119.219 116.074 117.574 112.12 114.653 109.206C111.733 106.291 107.776 104.653 103.65 104.65L103.71 104.69Z" fill="black"/>
<path d="M125.29 140.43C121.958 140.427 118.763 139.104 116.405 136.75C114.047 134.395 112.718 131.202 112.71 127.87V120.2C112.802 116.926 114.168 113.818 116.516 111.535C118.864 109.252 122.01 107.975 125.285 107.975C128.56 107.975 131.706 109.252 134.054 111.535C136.402 113.818 137.768 116.926 137.86 120.2V127.87C137.855 131.201 136.528 134.394 134.172 136.749C131.815 139.104 128.621 140.427 125.29 140.43Z" fill="url(#paint8_linear_4_355)"/>
<path d="M125.29 110.65C126.545 110.649 127.789 110.895 128.949 111.374C130.11 111.853 131.164 112.556 132.053 113.443C132.942 114.33 133.647 115.383 134.128 116.542C134.61 117.702 134.859 118.945 134.86 120.2V127.87C134.78 130.356 133.736 132.713 131.949 134.443C130.162 136.173 127.772 137.141 125.285 137.141C122.798 137.141 120.408 136.173 118.621 134.443C116.834 132.713 115.79 130.356 115.71 127.87V120.2C115.715 117.664 116.727 115.233 118.524 113.442C120.32 111.652 122.754 110.647 125.29 110.65ZM125.29 130.83C126.086 130.83 126.849 130.514 127.411 129.951C127.974 129.389 128.29 128.626 128.29 127.83V120.2C128.188 119.485 127.832 118.831 127.286 118.357C126.74 117.884 126.042 117.623 125.32 117.623C124.598 117.623 123.9 117.884 123.354 118.357C122.808 118.831 122.452 119.485 122.35 120.2V127.87C122.35 128.666 122.666 129.429 123.229 129.991C123.791 130.554 124.554 130.87 125.35 130.87M125.35 104.69C121.224 104.693 117.267 106.331 114.347 109.246C111.426 112.16 109.781 116.114 109.77 120.24V127.91C109.873 131.972 111.559 135.834 114.469 138.671C117.378 141.508 121.281 143.095 125.345 143.095C129.409 143.095 133.312 141.508 136.221 138.671C139.131 135.834 140.817 131.972 140.92 127.91V120.2C140.912 116.075 139.268 112.121 136.35 109.206C133.431 106.291 129.475 104.653 125.35 104.65V104.69Z" fill="black"/>
<path d="M73.43 139.52C72.4964 139.52 71.6011 139.149 70.941 138.489C70.2809 137.829 69.91 136.934 69.91 136V132C69.9043 130.431 70.2458 128.881 70.91 127.46C71.485 126.229 72.2624 125.103 73.21 124.13C73.9641 123.364 74.7914 122.674 75.68 122.07L71.6 120.14C71.151 119.935 70.7494 119.639 70.4206 119.27C70.0919 118.902 69.8431 118.469 69.69 118C69.5461 117.537 69.4993 117.049 69.5527 116.568C69.606 116.086 69.7583 115.62 70 115.2C71.2493 113.015 73.068 111.21 75.2623 109.977C77.4565 108.745 79.9441 108.13 82.46 108.2C84.053 108.182 85.6379 108.429 87.15 108.93C88.5174 109.399 89.7807 110.13 90.87 111.08C91.9406 112.031 92.7787 113.214 93.32 114.54C93.8512 115.834 94.1198 117.221 94.11 118.62C94.1293 120.021 93.8247 121.407 93.22 122.67C92.6907 123.758 91.9768 124.746 91.11 125.59C90.2955 126.385 89.3891 127.08 88.41 127.66L88 128H90.44C91.3728 128.003 92.2666 128.374 92.9261 129.034C93.5857 129.693 93.9574 130.587 93.96 131.52V136C93.96 136.934 93.5892 137.829 92.929 138.489C92.2689 139.149 91.3736 139.52 90.44 139.52H73.43Z" fill="url(#paint9_linear_4_355)"/>
<path d="M82.46 111.21C83.7126 111.19 84.9597 111.38 86.15 111.77C87.1494 112.108 88.0733 112.638 88.87 113.33C89.6014 113.979 90.1759 114.786 90.55 115.69C90.931 116.623 91.1214 117.622 91.11 118.63C91.1324 119.57 90.9337 120.501 90.53 121.35C90.1433 122.135 89.6259 122.848 89 123.46C88.3519 124.087 87.6338 124.637 86.86 125.1C86.06 125.58 85.27 126.03 84.47 126.47L82.62 127.47C82.064 127.771 81.5264 128.105 81.01 128.47C80.5639 128.795 80.1607 129.174 79.81 129.6L79.42 130.1C79.3629 130.175 79.3274 130.263 79.3176 130.357C79.3078 130.45 79.3239 130.544 79.3642 130.629C79.4046 130.714 79.4675 130.786 79.5462 130.837C79.6248 130.889 79.7161 130.917 79.81 130.92H90.39C90.4583 130.92 90.5259 130.933 90.589 130.96C90.6521 130.986 90.7094 131.024 90.7577 131.072C90.806 131.121 90.8443 131.178 90.8704 131.241C90.8965 131.304 90.91 131.372 90.91 131.44V136C90.91 136.068 90.8965 136.136 90.8704 136.199C90.8443 136.262 90.806 136.319 90.7577 136.368C90.7094 136.416 90.6521 136.454 90.589 136.48C90.5259 136.507 90.4583 136.52 90.39 136.52H73.39C73.3217 136.52 73.2541 136.507 73.191 136.48C73.1279 136.454 73.0706 136.416 73.0223 136.368C72.974 136.319 72.9357 136.262 72.9096 136.199C72.8834 136.136 72.87 136.068 72.87 136V132C72.8504 130.877 73.0792 129.764 73.54 128.74C73.9707 127.815 74.5557 126.969 75.27 126.24C75.9832 125.515 76.7747 124.871 77.63 124.32C78.5 123.76 79.36 123.26 80.23 122.8L82.16 121.8C82.7067 121.499 83.2344 121.166 83.74 120.8C84.1252 120.523 84.4629 120.185 84.74 119.8C84.9858 119.448 85.1184 119.029 85.12 118.6C85.1389 118.286 85.0835 117.972 84.9584 117.684C84.8334 117.396 84.642 117.141 84.4 116.94C83.7717 116.495 83.0079 116.283 82.24 116.34C81.172 116.311 80.129 116.666 79.3 117.34C78.6502 117.878 78.1391 118.564 77.81 119.34C77.7685 119.427 77.7033 119.5 77.6219 119.551C77.5405 119.603 77.4462 119.63 77.35 119.63C77.2741 119.645 77.1959 119.645 77.12 119.63L72.76 117.57C72.694 117.54 72.6349 117.497 72.5865 117.444C72.5381 117.39 72.5015 117.327 72.4789 117.258C72.4563 117.189 72.4483 117.117 72.4554 117.045C72.4624 116.973 72.4844 116.903 72.52 116.84C73.4258 115.248 74.7148 113.908 76.27 112.94C78.1074 111.82 80.2289 111.254 82.38 111.31M82.38 105.31C79.3345 105.245 76.3281 106.004 73.6776 107.505C71.0271 109.006 68.8307 111.195 67.32 113.84C66.8705 114.621 66.5877 115.487 66.4895 116.382C66.3913 117.278 66.4799 118.184 66.7495 119.044C67.0192 119.904 67.4642 120.698 68.0563 121.377C68.6485 122.057 69.375 122.606 70.19 122.99C69.3374 123.998 68.6213 125.115 68.06 126.31C67.2722 128.102 66.88 130.043 66.91 132V136C66.9126 137.728 67.6004 139.385 68.8226 140.607C70.0447 141.83 71.7016 142.517 73.43 142.52H90.43C92.1514 142.507 93.7981 141.814 95.0116 140.593C96.2251 139.372 96.9074 137.722 96.91 136V131.47C96.9093 130.487 96.6869 129.517 96.2592 128.633C95.8315 127.748 95.2097 126.971 94.44 126.36C95.011 125.627 95.5037 124.836 95.91 124C96.7205 122.327 97.1313 120.489 97.11 118.63C97.1204 116.838 96.7807 115.062 96.11 113.4C95.392 111.661 94.2874 110.108 92.88 108.86C91.4988 107.642 89.8916 106.708 88.15 106.11C86.3209 105.492 84.4005 105.188 82.47 105.21L82.38 105.31Z" fill="black"/>
<path d="M156.59 111.19C156.861 111.208 157.116 111.328 157.302 111.527C157.488 111.726 157.591 111.988 157.59 112.26C157.59 112.469 157.532 112.673 157.42 112.85L151.12 123V123.1L151.18 123.21L158.63 135.31C158.78 135.549 158.831 135.837 158.773 136.113C158.716 136.388 158.553 136.631 158.32 136.79C158.154 136.901 157.959 136.96 157.76 136.96H152.76C152.581 136.961 152.405 136.915 152.25 136.825C152.096 136.736 151.968 136.606 151.88 136.45L146.01 126.58L145.68 126.03C145.491 126.234 145.388 126.502 145.39 126.78V135.89C145.396 136.163 145.294 136.428 145.107 136.628C144.921 136.828 144.663 136.947 144.39 136.96H140.14C139.867 136.947 139.609 136.828 139.423 136.628C139.236 136.428 139.134 136.163 139.14 135.89V112.29C139.134 112.017 139.236 111.752 139.423 111.552C139.609 111.352 139.867 111.233 140.14 111.22H144.39C144.663 111.233 144.921 111.352 145.107 111.552C145.294 111.752 145.396 112.017 145.39 112.29V118.79C145.387 118.921 145.436 119.048 145.526 119.143C145.616 119.238 145.739 119.295 145.87 119.3C146.021 119.299 146.17 119.258 146.3 119.181C146.43 119.103 146.537 118.993 146.61 118.86L150.68 111.74C150.767 111.581 150.896 111.448 151.053 111.356C151.21 111.265 151.388 111.218 151.57 111.22L156.59 111.19Z" fill="url(#paint10_linear_4_355)"/>
<path d="M156.59 111.19V111.94C156.631 111.943 156.671 111.953 156.707 111.971C156.744 111.989 156.777 112.014 156.804 112.045C156.83 112.075 156.851 112.111 156.864 112.15C156.877 112.188 156.883 112.229 156.88 112.27C156.88 112.335 156.859 112.398 156.82 112.45L150.48 122.55L150.26 122.9L150.43 123.27V123.36C150.457 123.426 150.491 123.49 150.53 123.55L157.98 135.65C158.027 135.725 158.045 135.816 158.028 135.903C158.011 135.99 157.962 136.068 157.89 136.12C157.844 136.13 157.796 136.13 157.75 136.12H152.75C152.701 136.119 152.654 136.105 152.612 136.081C152.57 136.056 152.535 136.022 152.51 135.98L146.65 126.11L146.32 125.55L145.81 124.7L145.13 125.42C144.807 125.764 144.628 126.218 144.63 126.69V135.8C144.633 135.84 144.627 135.881 144.614 135.919C144.601 135.957 144.58 135.992 144.553 136.022C144.526 136.051 144.493 136.076 144.456 136.092C144.42 136.109 144.38 136.119 144.34 136.12H140.09C140.051 136.117 140.012 136.107 139.977 136.09C139.941 136.072 139.91 136.048 139.884 136.018C139.857 135.988 139.838 135.954 139.825 135.916C139.812 135.879 139.807 135.839 139.81 135.8V112.29C139.807 112.251 139.812 112.211 139.825 112.174C139.838 112.136 139.857 112.102 139.884 112.072C139.91 112.042 139.941 112.018 139.977 112C140.012 111.983 140.051 111.973 140.09 111.97H144.34C144.42 111.975 144.496 112.011 144.55 112.071C144.604 112.131 144.633 112.209 144.63 112.29V118.79C144.627 118.955 144.657 119.118 144.719 119.271C144.78 119.423 144.871 119.563 144.986 119.68C145.101 119.797 145.239 119.89 145.391 119.954C145.543 120.017 145.705 120.05 145.87 120.05C146.151 120.047 146.426 119.971 146.668 119.829C146.91 119.686 147.111 119.484 147.25 119.24L151.33 112.12C151.351 112.076 151.383 112.039 151.424 112.012C151.464 111.986 151.511 111.971 151.56 111.97H156.56V111.22M156.56 111.22H151.56C151.378 111.218 151.2 111.265 151.043 111.356C150.886 111.448 150.757 111.581 150.67 111.74L146.6 118.86C146.529 118.992 146.423 119.102 146.295 119.179C146.167 119.257 146.02 119.298 145.87 119.3C145.804 119.299 145.74 119.284 145.679 119.258C145.619 119.232 145.565 119.194 145.519 119.147C145.474 119.099 145.438 119.043 145.414 118.982C145.39 118.921 145.379 118.856 145.38 118.79V112.29C145.386 112.017 145.284 111.752 145.097 111.552C144.911 111.352 144.653 111.233 144.38 111.22H140.13C139.857 111.233 139.599 111.352 139.413 111.552C139.226 111.752 139.124 112.017 139.13 112.29V135.86C139.124 136.133 139.226 136.398 139.413 136.598C139.599 136.798 139.857 136.917 140.13 136.93H144.38C144.653 136.917 144.911 136.798 145.097 136.598C145.284 136.398 145.386 136.133 145.38 135.86V126.75C145.378 126.472 145.481 126.204 145.67 126L146 126.55L151.87 136.42C151.958 136.576 152.086 136.706 152.24 136.795C152.395 136.885 152.571 136.931 152.75 136.93H157.75C157.949 136.93 158.144 136.871 158.31 136.76C158.543 136.601 158.706 136.358 158.763 136.082C158.821 135.807 158.77 135.519 158.62 135.28L151.17 123.18L151.11 123.07V122.97L157.45 112.87C157.562 112.693 157.62 112.489 157.62 112.28C157.621 112.008 157.518 111.746 157.332 111.547C157.146 111.348 156.891 111.228 156.62 111.21L156.56 111.22Z" fill="url(#paint11_linear_4_355)"/>
<path d="M103.65 110.69C104.907 110.689 106.151 110.935 107.313 111.415C108.475 111.894 109.53 112.598 110.42 113.486C111.31 114.374 112.016 115.428 112.498 116.588C112.98 117.749 113.229 118.993 113.23 120.25V127.92C113.23 130.461 112.221 132.897 110.424 134.694C108.627 136.491 106.191 137.5 103.65 137.5C101.109 137.5 98.6725 136.491 96.8759 134.694C95.0793 132.897 94.07 130.461 94.07 127.92V120.25C94.0713 118.993 94.3202 117.749 94.8023 116.588C95.2845 115.428 95.9905 114.374 96.8801 113.486C97.7697 112.598 98.8254 111.894 99.987 111.415C101.149 110.935 102.393 110.689 103.65 110.69ZM103.65 117.29C102.854 117.29 102.091 117.606 101.529 118.169C100.966 118.731 100.65 119.494 100.65 120.29V127.96C100.752 128.675 101.108 129.329 101.654 129.803C102.2 130.276 102.898 130.537 103.62 130.537C104.342 130.537 105.04 130.276 105.586 129.803C106.132 129.329 106.488 128.675 106.59 127.96V120.29C106.59 119.505 106.282 118.751 105.733 118.19C105.183 117.629 104.435 117.306 103.65 117.29Z" fill="url(#paint12_linear_4_355)"/>
<path d="M103.65 111.44C105.988 111.44 108.231 112.368 109.887 114.019C111.542 115.671 112.475 117.912 112.48 120.25V127.92C112.48 130.262 111.55 132.508 109.894 134.164C108.238 135.82 105.992 136.75 103.65 136.75C101.308 136.75 99.0622 135.82 97.4063 134.164C95.7503 132.508 94.82 130.262 94.82 127.92V120.25C94.8253 117.912 95.7579 115.671 97.4133 114.019C99.0687 112.368 101.312 111.44 103.65 111.44ZM103.65 131.63C104.635 131.63 105.58 131.239 106.277 130.544C106.974 129.849 107.367 128.905 107.37 127.92V120.25C107.37 119.263 106.978 118.317 106.28 117.62C105.583 116.922 104.637 116.53 103.65 116.53C102.663 116.53 101.717 116.922 101.02 117.62C100.322 118.317 99.93 119.263 99.93 120.25V127.92C99.9327 128.905 100.326 129.849 101.023 130.544C101.72 131.239 102.665 131.63 103.65 131.63ZM103.65 110.69C102.393 110.689 101.149 110.935 99.987 111.415C98.8254 111.894 97.7697 112.598 96.8801 113.486C95.9905 114.374 95.2845 115.428 94.8023 116.588C94.3202 117.749 94.0713 118.993 94.07 120.25V127.92C94.07 130.461 95.0793 132.897 96.8759 134.694C98.6725 136.491 101.109 137.5 103.65 137.5C106.191 137.5 108.627 136.491 110.424 134.694C112.221 132.897 113.23 130.461 113.23 127.92V120.25C113.229 118.993 112.98 117.749 112.498 116.588C112.016 115.428 111.31 114.374 110.42 113.486C109.53 112.598 108.475 111.894 107.313 111.415C106.151 110.935 104.907 110.689 103.65 110.69ZM103.65 130.88C102.854 130.88 102.091 130.564 101.529 130.001C100.966 129.439 100.65 128.676 100.65 127.88V120.21C100.752 119.495 101.108 118.841 101.654 118.367C102.2 117.894 102.898 117.633 103.62 117.633C104.342 117.633 105.04 117.894 105.586 118.367C106.132 118.841 106.488 119.495 106.59 120.21V127.88C106.59 128.676 106.274 129.439 105.711 130.001C105.149 130.564 104.386 130.88 103.59 130.88H103.65Z" fill="url(#paint13_linear_4_355)"/>
<path d="M125.29 110.69C126.546 110.689 127.79 110.935 128.952 111.415C130.113 111.895 131.168 112.599 132.056 113.487C132.945 114.374 133.65 115.429 134.131 116.589C134.612 117.75 134.86 118.994 134.86 120.25V127.92C134.78 130.406 133.736 132.763 131.949 134.493C130.162 136.223 127.772 137.191 125.285 137.191C122.798 137.191 120.408 136.223 118.621 134.493C116.834 132.763 115.79 130.406 115.71 127.92V120.25C115.711 118.993 115.96 117.749 116.442 116.588C116.924 115.428 117.63 114.374 118.52 113.486C119.41 112.598 120.465 111.894 121.627 111.415C122.789 110.935 124.033 110.689 125.29 110.69ZM125.29 117.29C124.494 117.29 123.731 117.606 123.169 118.169C122.606 118.731 122.29 119.494 122.29 120.29V127.96C122.392 128.675 122.748 129.329 123.294 129.803C123.84 130.276 124.538 130.537 125.26 130.537C125.982 130.537 126.68 130.276 127.226 129.803C127.772 129.329 128.128 128.675 128.23 127.96V120.29C128.23 119.505 127.922 118.751 127.373 118.19C126.823 117.629 126.075 117.306 125.29 117.29Z" fill="url(#paint14_linear_4_355)"/>
<path d="M125.29 111.44C127.627 111.443 129.867 112.371 131.52 114.023C133.173 115.674 134.105 117.913 134.11 120.25V127.92C134.033 130.209 133.069 132.379 131.423 133.971C129.776 135.563 127.575 136.453 125.285 136.453C122.995 136.453 120.794 135.563 119.147 133.971C117.501 132.379 116.537 130.209 116.46 127.92V120.25C116.465 117.912 117.398 115.671 119.053 114.019C120.709 112.368 122.952 111.44 125.29 111.44ZM125.29 131.63C126.275 131.63 127.22 131.239 127.917 130.544C128.614 129.849 129.007 128.905 129.01 127.92V120.25C129.01 119.263 128.618 118.317 127.92 117.62C127.223 116.922 126.277 116.53 125.29 116.53C124.303 116.53 123.357 116.922 122.66 117.62C121.962 118.317 121.57 119.263 121.57 120.25V127.92C121.573 128.905 121.966 129.849 122.663 130.544C123.36 131.239 124.305 131.63 125.29 131.63ZM125.29 110.69C124.033 110.689 122.789 110.935 121.627 111.415C120.465 111.894 119.41 112.598 118.52 113.486C117.63 114.374 116.924 115.428 116.442 116.588C115.96 117.749 115.711 118.993 115.71 120.25V127.92C115.79 130.406 116.834 132.763 118.621 134.493C120.408 136.223 122.798 137.191 125.285 137.191C127.772 137.191 130.162 136.223 131.949 134.493C133.736 132.763 134.78 130.406 134.86 127.92V120.25C134.86 118.994 134.612 117.75 134.131 116.589C133.65 115.429 132.945 114.374 132.056 113.487C131.168 112.599 130.113 111.895 128.952 111.415C127.79 110.935 126.546 110.689 125.29 110.69ZM125.29 130.88C124.494 130.88 123.731 130.564 123.169 130.001C122.606 129.439 122.29 128.676 122.29 127.88V120.21C122.392 119.495 122.748 118.841 123.294 118.367C123.84 117.894 124.538 117.633 125.26 117.633C125.982 117.633 126.68 117.894 127.226 118.367C127.772 118.841 128.128 119.495 128.23 120.21V127.88C128.23 128.676 127.914 129.439 127.351 130.001C126.789 130.564 126.026 130.88 125.23 130.88H125.29Z" fill="url(#paint15_linear_4_355)"/>
<path d="M72.91 132.09C72.8904 130.967 73.1192 129.854 73.58 128.83C74.0107 127.905 74.5957 127.059 75.31 126.33C76.0232 125.605 76.8147 124.961 77.67 124.41C78.54 123.85 79.4 123.35 80.27 122.89L82.2 121.89C82.7467 121.59 83.2744 121.256 83.78 120.89C84.1652 120.613 84.5029 120.275 84.78 119.89C85.0258 119.538 85.1584 119.119 85.16 118.69C85.1789 118.376 85.1236 118.062 84.9985 117.774C84.8734 117.486 84.682 117.231 84.44 117.03C83.8117 116.585 83.0479 116.373 82.28 116.43C81.212 116.401 80.169 116.756 79.34 117.43C78.6902 117.968 78.1791 118.654 77.85 119.43C77.8202 119.491 77.7787 119.545 77.7277 119.59C77.6767 119.634 77.6174 119.668 77.5532 119.69C77.489 119.711 77.4211 119.719 77.3536 119.714C77.2861 119.709 77.2203 119.691 77.16 119.66L72.8 117.66C72.734 117.63 72.6749 117.587 72.6265 117.534C72.5781 117.48 72.5415 117.417 72.5189 117.348C72.4963 117.279 72.4883 117.207 72.4954 117.135C72.5024 117.063 72.5245 116.993 72.56 116.93C73.4665 115.336 74.7552 113.992 76.31 113.02C77.7836 112.181 79.414 111.654 81.0998 111.472C82.7857 111.289 84.4911 111.456 86.11 111.96C87.1094 112.298 88.0333 112.828 88.83 113.52C89.5614 114.169 90.1359 114.976 90.51 115.88C90.891 116.813 91.0814 117.812 91.07 118.82C91.0924 119.76 90.8937 120.691 90.49 121.54C90.1023 122.272 89.5992 122.938 89 123.51C88.3519 124.137 87.6338 124.687 86.86 125.15C86.06 125.63 85.27 126.08 84.47 126.52L82.62 127.52C82.064 127.821 81.5264 128.155 81.01 128.52C80.5639 128.845 80.1607 129.224 79.81 129.65L79.42 130.15C79.3629 130.225 79.3274 130.313 79.3176 130.407C79.3078 130.5 79.3239 130.594 79.3642 130.679C79.4046 130.764 79.4675 130.836 79.5462 130.887C79.6248 130.939 79.7161 130.967 79.81 130.97H90.39C90.4583 130.97 90.5259 130.983 90.589 131.01C90.6521 131.036 90.7094 131.074 90.7577 131.122C90.806 131.171 90.8443 131.228 90.8704 131.291C90.8965 131.354 90.91 131.422 90.91 131.49V136.02C90.91 136.158 90.8552 136.29 90.7577 136.388C90.6602 136.485 90.5279 136.54 90.39 136.54H73.39C73.2521 136.54 73.1198 136.485 73.0223 136.388C72.9248 136.29 72.87 136.158 72.87 136.02L72.91 132.09Z" fill="url(#paint16_linear_4_355)"/>
<path d="M82.46 111.26C83.7126 111.24 84.9597 111.43 86.15 111.82C87.1494 112.158 88.0733 112.688 88.87 113.38C89.6015 114.029 90.1759 114.836 90.55 115.74C90.931 116.673 91.1214 117.672 91.11 118.68C91.1324 119.62 90.9337 120.551 90.53 121.4C90.1433 122.185 89.6259 122.898 89 123.51C88.3519 124.137 87.6339 124.687 86.86 125.15C86.06 125.63 85.27 126.08 84.47 126.52L82.62 127.52C82.0641 127.821 81.5264 128.155 81.01 128.52C80.564 128.845 80.1608 129.224 79.81 129.65L79.42 130.15C79.3629 130.225 79.3275 130.313 79.3176 130.407C79.3078 130.5 79.3239 130.594 79.3643 130.679C79.4046 130.764 79.4675 130.836 79.5462 130.887C79.6249 130.939 79.7161 130.967 79.81 130.97H90.39C90.4583 130.97 90.5259 130.983 90.589 131.01C90.6521 131.036 90.7094 131.074 90.7577 131.122C90.806 131.171 90.8443 131.228 90.8704 131.291C90.8966 131.354 90.91 131.422 90.91 131.49V136.02C90.91 136.158 90.8552 136.29 90.7577 136.388C90.6602 136.485 90.5279 136.54 90.39 136.54H73.39C73.2521 136.54 73.1198 136.485 73.0223 136.388C72.9248 136.29 72.87 136.158 72.87 136.02V132.02C72.8504 130.897 73.0792 129.784 73.54 128.76C73.9707 127.835 74.5557 126.989 75.27 126.26C75.9832 125.535 76.7747 124.891 77.63 124.34C78.5 123.78 79.36 123.28 80.23 122.82L82.16 121.82C82.7068 121.52 83.2344 121.186 83.74 120.82C84.1252 120.543 84.4629 120.205 84.74 119.82C84.9858 119.468 85.1184 119.049 85.12 118.62C85.1389 118.306 85.0836 117.992 84.9585 117.704C84.8334 117.416 84.642 117.161 84.4 116.96C83.7717 116.515 83.0079 116.303 82.24 116.36C81.172 116.331 80.129 116.686 79.3 117.36C78.6502 117.898 78.1392 118.584 77.81 119.36C77.7685 119.447 77.7033 119.52 77.6219 119.571C77.5405 119.623 77.4462 119.65 77.35 119.65C77.2694 119.651 77.1901 119.63 77.12 119.59L72.76 117.59C72.694 117.56 72.6349 117.517 72.5865 117.464C72.5381 117.41 72.5015 117.347 72.4789 117.278C72.4563 117.209 72.4483 117.137 72.4554 117.065C72.4625 116.993 72.4845 116.923 72.52 116.86C73.4265 115.266 74.7152 113.922 76.27 112.95C78.1102 111.838 80.2304 111.276 82.38 111.33M82.38 110.58C80.2841 110.527 78.2129 111.042 76.3857 112.07C74.5585 113.098 73.0431 114.601 72 116.42C71.913 116.571 71.8584 116.739 71.8397 116.913C71.8209 117.086 71.8384 117.262 71.8911 117.428C71.9437 117.594 72.0304 117.748 72.1455 117.879C72.2607 118.01 72.4018 118.116 72.56 118.19L76.93 120.25C77.1017 120.333 77.2894 120.377 77.48 120.38C77.7217 120.382 77.9588 120.313 78.1615 120.182C78.3643 120.05 78.5237 119.862 78.62 119.64C78.9058 119.008 79.3295 118.447 79.86 118C80.5538 117.438 81.4278 117.147 82.32 117.18C82.9127 117.127 83.5057 117.279 84 117.61C84.2486 117.844 84.4054 118.159 84.4421 118.498C84.4788 118.837 84.3929 119.178 84.2 119.46C83.9647 119.788 83.6736 120.072 83.34 120.3C82.8582 120.638 82.3574 120.949 81.84 121.23L79.92 122.23C79.04 122.69 78.14 123.23 77.26 123.78C76.3605 124.355 75.5257 125.026 74.77 125.78C74.0001 126.573 73.368 127.489 72.9 128.49C72.3923 129.614 72.1396 130.837 72.16 132.07V136.07C72.16 136.407 72.2938 136.73 72.532 136.968C72.7702 137.206 73.0932 137.34 73.43 137.34H90.43C90.7668 137.34 91.0899 137.206 91.328 136.968C91.5662 136.73 91.7 136.407 91.7 136.07V131.54C91.7 131.203 91.5662 130.88 91.328 130.642C91.0899 130.404 90.7668 130.27 90.43 130.27H80.33L80.41 130.17C80.719 129.793 81.0753 129.457 81.47 129.17C81.9584 128.805 82.4694 128.471 83 128.17C83.58 127.84 84.2 127.51 84.83 127.17C85.64 126.73 86.45 126.26 87.26 125.78C88.0877 125.283 88.8502 124.685 89.53 124C90.2162 123.332 90.7812 122.551 91.2 121.69C91.647 120.754 91.8728 119.727 91.86 118.69C91.8709 117.583 91.6601 116.485 91.24 115.46C90.8246 114.453 90.1851 113.553 89.37 112.83C88.4931 112.069 87.4732 111.491 86.37 111.13C85.1013 110.703 83.7686 110.496 82.43 110.52L82.38 110.58Z" fill="url(#paint17_linear_4_355)"/>
</g>
<defs>
<linearGradient id="paint0_linear_4_355" x1="140.71" y1="-16.2" x2="91.83" y2="261.03" gradientUnits="userSpaceOnUse">
<stop offset="0.25" stop-color="#F6E594"/>
<stop offset="0.38" stop-color="#F5E492"/>
<stop offset="0.43" stop-color="#F2DE8B"/>
<stop offset="0.47" stop-color="#ECD580"/>
<stop offset="0.49" stop-color="#E4C86F"/>
<stop offset="0.5" stop-color="#E2C46A"/>
<stop offset="0.61" stop-color="#C89E3F"/>
<stop offset="0.72" stop-color="#E8D17E"/>
<stop offset="0.76" stop-color="#E5CE7C"/>
<stop offset="0.79" stop-color="#DCC574"/>
<stop offset="0.81" stop-color="#CDB568"/>
<stop offset="0.83" stop-color="#B79F57"/>
<stop offset="0.86" stop-color="#9B8240"/>
<stop offset="0.88" stop-color="#684E18"/>
</linearGradient>
<linearGradient id="paint1_linear_4_355" x1="140.67" y1="-15.98" x2="91.86" y2="260.81" gradientUnits="userSpaceOnUse">
<stop offset="0.25" stop-color="#F6E594"/>
<stop offset="0.38" stop-color="#F5E492"/>
<stop offset="0.43" stop-color="#F2DE8B"/>
<stop offset="0.47" stop-color="#ECD580"/>
<stop offset="0.49" stop-color="#E4C86F"/>
<stop offset="0.5" stop-color="#E2C46A"/>
<stop offset="0.61" stop-color="#C89E3F"/>
<stop offset="0.72" stop-color="#E8D17E"/>
<stop offset="0.76" stop-color="#E5CE7C"/>
<stop offset="0.79" stop-color="#DCC574"/>
<stop offset="0.81" stop-color="#CDB568"/>
<stop offset="0.83" stop-color="#B79F57"/>
<stop offset="0.86" stop-color="#9B8240"/>
<stop offset="0.88" stop-color="#684E18"/>
</linearGradient>
<linearGradient id="paint2_linear_4_355" x1="146.14" y1="16.5" x2="67.15" y2="233.51" gradientUnits="userSpaceOnUse">
<stop stop-color="#F6E594"/>
<stop offset="0.33" stop-color="#F6E492"/>
<stop offset="0.45" stop-color="#F4DF8B"/>
<stop offset="0.53" stop-color="#F2D880"/>
<stop offset="0.6" stop-color="#EFCD6F"/>
<stop offset="0.65" stop-color="#EBC15C"/>
<stop offset="0.7" stop-color="#C89D47"/>
<stop offset="0.82" stop-color="#7A4D18"/>
<stop offset="0.97" stop-color="#C1914C"/>
</linearGradient>
<linearGradient id="paint3_linear_4_355" x1="166.09" y1="34.2" x2="53.02" y2="230.04" gradientUnits="userSpaceOnUse">
<stop stop-color="#FFFFAD"/>
<stop offset="0.26" stop-color="#F6E594"/>
<stop offset="0.34" stop-color="#F5E492"/>
<stop offset="0.37" stop-color="#F2DE8B"/>
<stop offset="0.39" stop-color="#ECD580"/>
<stop offset="0.41" stop-color="#E2C46A"/>
<stop offset="0.51" stop-color="#A68C46"/>
<stop offset="0.66" stop-color="#564217"/>
<stop offset="0.68" stop-color="#75612D"/>
<stop offset="0.73" stop-color="#C7B167"/>
<stop offset="0.75" stop-color="#E8D17E"/>
<stop offset="0.78" stop-color="#E5CE7C"/>
<stop offset="0.81" stop-color="#DDC574"/>
<stop offset="0.83" stop-color="#CFB568"/>
<stop offset="0.85" stop-color="#BB9F56"/>
<stop offset="0.86" stop-color="#A2823F"/>
<stop offset="0.88" stop-color="#825E23"/>
<stop offset="0.9" stop-color="#5B3200"/>
</linearGradient>
<linearGradient id="paint4_linear_4_355" x1="116.21" y1="155.95" x2="116.21" y2="166.49" gradientUnits="userSpaceOnUse">
<stop stop-color="#F6E594"/>
<stop offset="0.21" stop-color="#F5E492"/>
<stop offset="0.29" stop-color="#F2DE8B"/>
<stop offset="0.34" stop-color="#ECD580"/>
<stop offset="0.39" stop-color="#E4C86F"/>
<stop offset="0.4" stop-color="#E2C46A"/>
<stop offset="0.49" stop-color="#BA9D4E"/>
<stop offset="0.69" stop-color="#6A4E17"/>
<stop offset="0.72" stop-color="#6F531B"/>
<stop offset="0.75" stop-color="#7D6227"/>
<stop offset="0.79" stop-color="#957B3A"/>
<stop offset="0.83" stop-color="#B69D55"/>
<stop offset="0.86" stop-color="#E0C977"/>
<stop offset="0.87" stop-color="#E8D17E"/>
<stop offset="0.9" stop-color="#E5CE7C"/>
<stop offset="0.92" stop-color="#DCC574"/>
<stop offset="0.94" stop-color="#CDB568"/>
<stop offset="0.96" stop-color="#B79F57"/>
<stop offset="0.98" stop-color="#9B8240"/>
<stop offset="0.99" stop-color="#785F25"/>
<stop offset="1" stop-color="#684E18"/>
</linearGradient>
<linearGradient id="paint5_linear_4_355" x1="116.34" y1="76.23" x2="116.34" y2="86.77" gradientUnits="userSpaceOnUse">
<stop stop-color="#F6E594"/>
<stop offset="0.21" stop-color="#F5E492"/>
<stop offset="0.29" stop-color="#F2DE8B"/>
<stop offset="0.34" stop-color="#ECD580"/>
<stop offset="0.39" stop-color="#E4C86F"/>
<stop offset="0.4" stop-color="#E2C46A"/>
<stop offset="0.49" stop-color="#BA9D4E"/>
<stop offset="0.69" stop-color="#6A4E17"/>
<stop offset="0.72" stop-color="#6F531B"/>
<stop offset="0.75" stop-color="#7D6227"/>
<stop offset="0.79" stop-color="#957B3A"/>
<stop offset="0.83" stop-color="#B69D55"/>
<stop offset="0.86" stop-color="#E0C977"/>
<stop offset="0.87" stop-color="#E8D17E"/>
<stop offset="0.9" stop-color="#E5CE7C"/>
<stop offset="0.92" stop-color="#DCC574"/>
<stop offset="0.94" stop-color="#CDB568"/>
<stop offset="0.96" stop-color="#B79F57"/>
<stop offset="0.98" stop-color="#9B8240"/>
<stop offset="0.99" stop-color="#785F25"/>
<stop offset="1" stop-color="#684E18"/>
</linearGradient>
<linearGradient id="paint6_linear_4_355" x1="148.98" y1="108.15" x2="148.98" y2="152.47" gradientUnits="userSpaceOnUse">
<stop stop-color="#F6E594"/>
<stop offset="0.36" stop-color="#F6E492"/>
<stop offset="0.5" stop-color="#F4DF8B"/>
<stop offset="0.59" stop-color="#F2D880"/>
<stop offset="0.66" stop-color="#EFCD6F"/>
<stop offset="0.72" stop-color="#EBC15C"/>
<stop offset="0.77" stop-color="#C89D47"/>
<stop offset="0.88" stop-color="#7A4D18"/>
<stop offset="0.95" stop-color="#C1914C"/>
<stop offset="0.96" stop-color="#BE8F4A"/>
<stop offset="0.97" stop-color="#B58742"/>
<stop offset="0.98" stop-color="#A57B36"/>
<stop offset="0.99" stop-color="#8F6924"/>
<stop offset="1" stop-color="#624600"/>
</linearGradient>
<linearGradient id="paint7_linear_4_355" x1="103.65" y1="107.65" x2="103.65" y2="153.42" gradientUnits="userSpaceOnUse">
<stop stop-color="#F6E594"/>
<stop offset="0.36" stop-color="#F6E492"/>
<stop offset="0.5" stop-color="#F4DF8B"/>
<stop offset="0.59" stop-color="#F2D880"/>
<stop offset="0.66" stop-color="#EFCD6F"/>
<stop offset="0.72" stop-color="#EBC15C"/>
<stop offset="0.77" stop-color="#C89D47"/>
<stop offset="0.88" stop-color="#7A4D18"/>
<stop offset="0.95" stop-color="#C1914C"/>
<stop offset="0.96" stop-color="#BE8F4A"/>
<stop offset="0.97" stop-color="#B58742"/>
<stop offset="0.98" stop-color="#A57B36"/>
<stop offset="0.99" stop-color="#8F6924"/>
<stop offset="1" stop-color="#624600"/>
</linearGradient>
<linearGradient id="paint8_linear_4_355" x1="125.29" y1="107.65" x2="125.29" y2="153.42" gradientUnits="userSpaceOnUse">
<stop stop-color="#F6E594"/>
<stop offset="0.36" stop-color="#F6E492"/>
<stop offset="0.5" stop-color="#F4DF8B"/>
<stop offset="0.59" stop-color="#F2D880"/>
<stop offset="0.66" stop-color="#EFCD6F"/>
<stop offset="0.72" stop-color="#EBC15C"/>
<stop offset="0.77" stop-color="#C89D47"/>
<stop offset="0.88" stop-color="#7A4D18"/>
<stop offset="0.95" stop-color="#C1914C"/>
<stop offset="0.96" stop-color="#BE8F4A"/>
<stop offset="0.97" stop-color="#B58742"/>
<stop offset="0.98" stop-color="#A57B36"/>
<stop offset="0.99" stop-color="#8F6924"/>
<stop offset="1" stop-color="#624600"/>
</linearGradient>
<linearGradient id="paint9_linear_4_355" x1="81.82" y1="108.21" x2="81.82" y2="151.94" gradientUnits="userSpaceOnUse">
<stop stop-color="#F6E594"/>
<stop offset="0.36" stop-color="#F6E492"/>
<stop offset="0.5" stop-color="#F4DF8B"/>
<stop offset="0.59" stop-color="#F2D880"/>
<stop offset="0.66" stop-color="#EFCD6F"/>
<stop offset="0.72" stop-color="#EBC15C"/>
<stop offset="0.77" stop-color="#C89D47"/>
<stop offset="0.88" stop-color="#7A4D18"/>
<stop offset="0.95" stop-color="#C1914C"/>
<stop offset="0.96" stop-color="#BE8F4A"/>
<stop offset="0.97" stop-color="#B58742"/>
<stop offset="0.98" stop-color="#A57B36"/>
<stop offset="0.99" stop-color="#8F6924"/>
<stop offset="1" stop-color="#624600"/>
</linearGradient>
<linearGradient id="paint10_linear_4_355" x1="148.98" y1="149.8" x2="148.98" y2="114.78" gradientUnits="userSpaceOnUse">
<stop stop-color="#F6E594"/>
<stop offset="0.17" stop-color="#F6E492"/>
<stop offset="0.24" stop-color="#F4DF8B"/>
<stop offset="0.28" stop-color="#F2D880"/>
<stop offset="0.32" stop-color="#EFCD6F"/>
<stop offset="0.35" stop-color="#EBC15C"/>
<stop offset="0.4" stop-color="#C89D47"/>
<stop offset="0.54" stop-color="#7A4D18"/>
<stop offset="0.66" stop-color="#B68644"/>
<stop offset="0.88" stop-color="#F5E08C"/>
</linearGradient>
<linearGradient id="paint11_linear_4_355" x1="148.98" y1="111.19" x2="148.98" y2="136.93" gradientUnits="userSpaceOnUse">
<stop stop-color="#FFF7AB"/>
<stop offset="0.41" stop-color="#F6E594"/>
<stop offset="0.57" stop-color="#F6E492"/>
<stop offset="0.62" stop-color="#F4DF8B"/>
<stop offset="0.66" stop-color="#F2D880"/>
<stop offset="0.7" stop-color="#EFCD6F"/>
<stop offset="0.72" stop-color="#EBC15C"/>
<stop offset="0.77" stop-color="#C89D47"/>
<stop offset="0.88" stop-color="#7A4D18"/>
<stop offset="0.91" stop-color="#C1914C"/>
<stop offset="0.92" stop-color="#BE8E4A"/>
<stop offset="0.94" stop-color="#B58643"/>
<stop offset="0.95" stop-color="#A57838"/>
<stop offset="0.96" stop-color="#724A14"/>
<stop offset="0.97" stop-color="#553000"/>
</linearGradient>
<linearGradient id="paint12_linear_4_355" x1="103.65" y1="150.87" x2="103.65" y2="114.43" gradientUnits="userSpaceOnUse">
<stop stop-color="#F6E594"/>
<stop offset="0.17" stop-color="#F6E492"/>
<stop offset="0.24" stop-color="#F4DF8B"/>
<stop offset="0.28" stop-color="#F2D880"/>
<stop offset="0.32" stop-color="#EFCD6F"/>
<stop offset="0.35" stop-color="#EBC15C"/>
<stop offset="0.4" stop-color="#C89D47"/>
<stop offset="0.54" stop-color="#7A4D18"/>
<stop offset="0.66" stop-color="#B68644"/>
<stop offset="0.88" stop-color="#F5E08C"/>
</linearGradient>
<linearGradient id="paint13_linear_4_355" x1="103.65" y1="110.69" x2="103.65" y2="137.48" gradientUnits="userSpaceOnUse">
<stop stop-color="#FFF7AB"/>
<stop offset="0.41" stop-color="#F6E594"/>
<stop offset="0.57" stop-color="#F6E492"/>
<stop offset="0.62" stop-color="#F4DF8B"/>
<stop offset="0.66" stop-color="#F2D880"/>
<stop offset="0.7" stop-color="#EFCD6F"/>
<stop offset="0.72" stop-color="#EBC15C"/>
<stop offset="0.77" stop-color="#C89D47"/>
<stop offset="0.88" stop-color="#7A4D18"/>
<stop offset="0.91" stop-color="#C1914C"/>
<stop offset="0.92" stop-color="#BE8E4A"/>
<stop offset="0.94" stop-color="#B58643"/>
<stop offset="0.95" stop-color="#A57838"/>
<stop offset="0.96" stop-color="#724A14"/>
<stop offset="0.97" stop-color="#553000"/>
</linearGradient>
<linearGradient id="paint14_linear_4_355" x1="125.29" y1="150.87" x2="125.29" y2="114.43" gradientUnits="userSpaceOnUse">
<stop stop-color="#F6E594"/>
<stop offset="0.17" stop-color="#F6E492"/>
<stop offset="0.24" stop-color="#F4DF8B"/>
<stop offset="0.28" stop-color="#F2D880"/>
<stop offset="0.32" stop-color="#EFCD6F"/>
<stop offset="0.35" stop-color="#EBC15C"/>
<stop offset="0.4" stop-color="#C89D47"/>
<stop offset="0.54" stop-color="#7A4D18"/>
<stop offset="0.66" stop-color="#B68644"/>
<stop offset="0.88" stop-color="#F5E08C"/>
</linearGradient>
<linearGradient id="paint15_linear_4_355" x1="125.29" y1="110.69" x2="125.29" y2="137.48" gradientUnits="userSpaceOnUse">
<stop stop-color="#FFF7AB"/>
<stop offset="0.41" stop-color="#F6E594"/>
<stop offset="0.57" stop-color="#F6E492"/>
<stop offset="0.62" stop-color="#F4DF8B"/>
<stop offset="0.66" stop-color="#F2D880"/>
<stop offset="0.7" stop-color="#EFCD6F"/>
<stop offset="0.72" stop-color="#EBC15C"/>
<stop offset="0.77" stop-color="#C89D47"/>
<stop offset="0.88" stop-color="#7A4D18"/>
<stop offset="0.91" stop-color="#C1914C"/>
<stop offset="0.92" stop-color="#BE8E4A"/>
<stop offset="0.94" stop-color="#B58643"/>
<stop offset="0.95" stop-color="#A57838"/>
<stop offset="0.96" stop-color="#724A14"/>
<stop offset="0.97" stop-color="#553000"/>
</linearGradient>
<linearGradient id="paint16_linear_4_355" x1="81.82" y1="111.26" x2="81.82" y2="146.61" gradientUnits="userSpaceOnUse">
<stop stop-color="#F6E594"/>
<stop offset="0.17" stop-color="#F6E492"/>
<stop offset="0.24" stop-color="#F4DF8B"/>
<stop offset="0.28" stop-color="#F2D880"/>
<stop offset="0.32" stop-color="#EFCD6F"/>
<stop offset="0.35" stop-color="#EBC15C"/>
<stop offset="0.4" stop-color="#C89D47"/>
<stop offset="0.54" stop-color="#7A4D18"/>
<stop offset="0.66" stop-color="#B68644"/>
<stop offset="0.77" stop-color="#C1914C"/>
<stop offset="0.8" stop-color="#C3944E"/>
<stop offset="0.82" stop-color="#C99D56"/>
<stop offset="0.84" stop-color="#D3AD63"/>
<stop offset="0.86" stop-color="#E2C375"/>
<stop offset="0.88" stop-color="#F5E08C"/>
</linearGradient>
<linearGradient id="paint17_linear_4_355" x1="81.82" y1="110.51" x2="81.82" y2="137.32" gradientUnits="userSpaceOnUse">
<stop stop-color="#FFF7AB"/>
<stop offset="0.41" stop-color="#F6E594"/>
<stop offset="0.57" stop-color="#F6E492"/>
<stop offset="0.62" stop-color="#F4DF8B"/>
<stop offset="0.66" stop-color="#F2D880"/>
<stop offset="0.7" stop-color="#EFCD6F"/>
<stop offset="0.72" stop-color="#EBC15C"/>
<stop offset="0.77" stop-color="#C89D47"/>
<stop offset="0.88" stop-color="#7A4D18"/>
<stop offset="0.91" stop-color="#C1914C"/>
<stop offset="0.92" stop-color="#BE8E4A"/>
<stop offset="0.94" stop-color="#B58643"/>
<stop offset="0.95" stop-color="#A57838"/>
<stop offset="0.96" stop-color="#724A14"/>
<stop offset="0.97" stop-color="#553000"/>
</linearGradient>
</defs>
</svg>
