<svg width="233" height="232" viewBox="0 0 233 232" fill="none" xmlns="http://www.w3.org/2000/svg">
<mask id="mask0_4_3" style="mask-type:luminance" maskUnits="userSpaceOnUse" x="0" y="0" width="233" height="232">
<path d="M232.57 0H0V231.49H232.57V0Z" fill="white"/>
</mask>
<g mask="url(#mask0_4_3)">
<path d="M115.37 24.78L145.65 86.13L213.35 95.97L164.36 143.72L175.92 211.15L115.37 179.31L54.82 211.15L66.38 143.72L17.39 95.97L85.09 86.13L115.37 24.78Z" fill="black"/>
<mask id="mask1_4_3" style="mask-type:luminance" maskUnits="userSpaceOnUse" x="18" y="24" width="197" height="188">
<path d="M116.37 24.78L146.65 86.13L214.35 95.97L165.36 143.72L176.92 211.15L116.37 179.31L55.82 211.15L67.38 143.72L18.39 95.97L86.09 86.13L116.37 24.78Z" fill="white"/>
</mask>
<g mask="url(#mask1_4_3)">
<path d="M115.69 264.47V126.05L72.92 257.7L71.82 257.34L114.6 125.69L33.23 237.68L32.3 237L113.67 125.02L1.68002 206.38L1.00002 205.45L112.99 124.08L-18.66 166.86L-19.02 165.77L112.64 122.99H-25.79V121.84H112.64L-19.02 79.06L-18.66 77.97L112.99 120.75L1.00002 39.38L1.68002 38.45L113.67 119.82L32.3 7.82998L33.23 7.14998L114.6 119.14L71.82 -12.51L72.92 -12.86L115.69 118.79V-19.64H116.84V118.79L159.62 -12.86L160.71 -12.51L117.94 119.14L199.3 7.14998L200.23 7.82998L118.87 119.82L230.85 38.45L231.53 39.38L119.54 120.75L251.19 77.97L251.55 79.06L119.9 121.84H258.32V122.99H119.9L251.55 165.77L251.19 166.86L119.54 124.08L231.53 205.45L230.85 206.38L118.87 125.02L200.23 237L199.3 237.68L117.94 125.69L160.71 257.34L159.62 257.7L116.84 126.05V264.47H115.69Z" fill="url(#paint0_linear_4_3)"/>
<path d="M258.12 122.04H118.63L251.3 78.94L251.06 78.22L118.4 121.33L231.25 39.34L230.81 38.73L117.96 120.72L199.95 7.87L199.34 7.43L117.36 120.28L160.46 -12.38L159.75 -12.61L116.64 120.05V-19.44H115.89V120.05L72.79 -12.61L72.07 -12.38L115.18 120.28L33.19 7.43L32.58 7.87L114.57 120.72L1.72003 38.73L1.28004 39.34L114.13 121.33L-18.53 78.22L-18.76 78.94L113.9 122.04H-25.59V122.79H113.9L-18.76 165.9L-18.53 166.61L114.13 123.5L1.28004 205.49L1.72003 206.1L114.57 124.11L32.58 236.96L33.19 237.4L115.18 124.55L72.07 257.21L72.79 257.44L115.89 124.78V264.27H116.64V124.78L159.75 257.44L160.46 257.21L117.36 124.55L199.34 237.4L199.95 236.96L117.96 124.11L230.81 206.1L231.25 205.49L118.4 123.5L251.06 166.61L251.3 165.9L118.63 122.79H258.12V122.04Z" fill="url(#paint1_linear_4_3)"/>
</g>
<path d="M185.47 225.46L117.18 187.89C116.884 187.727 116.552 187.642 116.215 187.642C115.878 187.642 115.546 187.727 115.25 187.89L47 225.45C46.6759 225.642 46.304 225.739 45.9274 225.729C45.5507 225.719 45.1845 225.603 44.871 225.394C44.5575 225.185 44.3094 224.891 44.1553 224.547C44.0012 224.203 43.9474 223.823 44 223.45L55.16 148.45C55.2051 148.143 55.178 147.829 55.0808 147.534C54.9836 147.239 54.819 146.97 54.6 146.75L1.48001 93.54C1.22291 93.2856 1.03959 92.9663 0.949573 92.6161C0.859552 92.2658 0.866198 91.8976 0.968802 91.5508C1.07141 91.204 1.26613 90.8915 1.53224 90.6466C1.79836 90.4017 2.1259 90.2335 2.48001 90.16L75.48 75.39C75.7641 75.3312 76.032 75.2113 76.2651 75.0386C76.4982 74.866 76.691 74.6446 76.83 74.39L114.55 6.8C114.721 6.48249 114.975 6.21726 115.285 6.0324C115.595 5.84754 115.949 5.74994 116.31 5.74994C116.671 5.74994 117.025 5.84754 117.335 6.0324C117.645 6.21726 117.899 6.48249 118.07 6.8L154.65 75.28C154.794 75.5404 154.995 75.7652 155.237 75.9382C155.479 76.1112 155.757 76.228 156.05 76.28L230 90C230.36 90.0652 230.696 90.228 230.97 90.4707C231.244 90.7134 231.446 91.0266 231.554 91.3763C231.662 91.7259 231.673 92.0986 231.584 92.4537C231.495 92.8087 231.31 93.1326 231.05 93.39L177.55 146.61C177.328 146.833 177.162 147.104 177.064 147.403C176.967 147.702 176.942 148.019 176.99 148.33L188.37 223.33C188.438 223.699 188.4 224.08 188.262 224.429C188.123 224.778 187.889 225.081 187.587 225.303C187.284 225.525 186.925 225.658 186.551 225.685C186.177 225.713 185.802 225.635 185.47 225.46ZM27.81 101.46L68.46 142.08C68.6784 142.304 68.841 142.577 68.9348 142.876C69.0286 143.174 69.0509 143.491 69 143.8L60.74 199.36C60.6955 199.725 60.7522 200.094 60.9039 200.429C61.0557 200.763 61.2966 201.05 61.6003 201.256C61.904 201.463 62.2587 201.582 62.6256 201.6C62.9924 201.618 63.3573 201.535 63.68 201.36L115.23 173C115.526 172.837 115.858 172.752 116.195 172.752C116.532 172.752 116.864 172.837 117.16 173L168.65 201.33C168.973 201.505 169.338 201.588 169.704 201.57C170.071 201.552 170.426 201.433 170.73 201.226C171.033 201.02 171.274 200.733 171.426 200.399C171.578 200.064 171.635 199.695 171.59 199.33L163.17 143.8C163.123 143.491 163.15 143.175 163.247 142.878C163.344 142.582 163.51 142.311 163.73 142.09L204.33 101.69C204.587 101.436 204.77 101.116 204.86 100.766C204.95 100.416 204.944 100.048 204.841 99.7008C204.739 99.354 204.544 99.0415 204.278 98.7966C204.012 98.5517 203.684 98.3835 203.33 98.31L147.53 88C147.237 87.948 146.959 87.8312 146.717 87.6582C146.475 87.4852 146.274 87.2604 146.13 87L117.81 34C117.638 33.685 117.384 33.4221 117.075 33.2389C116.766 33.0558 116.414 32.9592 116.055 32.9592C115.696 32.9592 115.344 33.0558 115.035 33.2389C114.726 33.4221 114.472 33.685 114.3 34L85.3 86C85.161 86.2546 84.9682 86.476 84.7351 86.6486C84.502 86.8213 84.2341 86.9412 83.95 87L28.83 98.1C28.4763 98.1719 28.1486 98.3382 27.8817 98.5813C27.6148 98.8243 27.4187 99.1351 27.3141 99.4806C27.2095 99.826 27.2004 100.193 27.2877 100.544C27.375 100.894 27.5555 101.214 27.81 101.47V101.46Z" fill="url(#paint2_linear_4_3)"/>
<mask id="mask2_4_3" style="mask-type:luminance" maskUnits="userSpaceOnUse" x="0" y="5" width="232" height="221">
<path d="M185.47 225.46L117.18 187.89C116.884 187.727 116.552 187.642 116.215 187.642C115.878 187.642 115.546 187.727 115.25 187.89L47 225.45C46.6759 225.642 46.304 225.739 45.9274 225.729C45.5507 225.719 45.1845 225.603 44.871 225.394C44.5575 225.185 44.3094 224.891 44.1553 224.547C44.0012 224.203 43.9474 223.823 44 223.45L55.16 148.45C55.2051 148.143 55.178 147.829 55.0808 147.534C54.9836 147.239 54.819 146.97 54.6 146.75L1.48001 93.54C1.22291 93.2856 1.03959 92.9663 0.949573 92.6161C0.859552 92.2658 0.866198 91.8976 0.968802 91.5508C1.07141 91.204 1.26613 90.8915 1.53224 90.6466C1.79836 90.4017 2.1259 90.2335 2.48001 90.16L75.48 75.39C75.7641 75.3312 76.032 75.2113 76.2651 75.0386C76.4982 74.866 76.691 74.6446 76.83 74.39L114.55 6.8C114.721 6.48249 114.975 6.21726 115.285 6.0324C115.595 5.84754 115.949 5.74994 116.31 5.74994C116.671 5.74994 117.025 5.84754 117.335 6.0324C117.645 6.21726 117.899 6.48249 118.07 6.8L154.65 75.28C154.794 75.5404 154.995 75.7652 155.237 75.9382C155.479 76.1112 155.757 76.228 156.05 76.28L230 90C230.36 90.0652 230.696 90.228 230.97 90.4707C231.244 90.7134 231.446 91.0266 231.554 91.3763C231.662 91.7259 231.673 92.0986 231.584 92.4537C231.495 92.8087 231.31 93.1326 231.05 93.39L177.55 146.61C177.328 146.833 177.162 147.104 177.064 147.403C176.967 147.702 176.942 148.019 176.99 148.33L188.37 223.33C188.438 223.699 188.4 224.08 188.262 224.429C188.123 224.778 187.889 225.081 187.587 225.303C187.284 225.525 186.925 225.658 186.551 225.685C186.177 225.713 185.802 225.635 185.47 225.46ZM27.81 101.46L68.46 142.08C68.6784 142.304 68.841 142.577 68.9348 142.876C69.0286 143.174 69.0509 143.491 69 143.8L60.74 199.36C60.6955 199.725 60.7522 200.094 60.9039 200.429C61.0557 200.763 61.2966 201.05 61.6003 201.256C61.904 201.463 62.2587 201.582 62.6256 201.6C62.9924 201.618 63.3573 201.535 63.68 201.36L115.23 173C115.526 172.837 115.858 172.752 116.195 172.752C116.532 172.752 116.864 172.837 117.16 173L168.65 201.33C168.973 201.505 169.338 201.588 169.704 201.57C170.071 201.552 170.426 201.433 170.73 201.226C171.033 201.02 171.274 200.733 171.426 200.399C171.578 200.064 171.635 199.695 171.59 199.33L163.17 143.8C163.123 143.491 163.15 143.175 163.247 142.878C163.344 142.582 163.51 142.311 163.73 142.09L204.33 101.69C204.587 101.436 204.77 101.116 204.86 100.766C204.95 100.416 204.944 100.048 204.841 99.7008C204.739 99.354 204.544 99.0415 204.278 98.7966C204.012 98.5517 203.684 98.3835 203.33 98.31L147.53 88C147.237 87.948 146.959 87.8312 146.717 87.6582C146.475 87.4852 146.274 87.2604 146.13 87L117.81 34C117.638 33.685 117.384 33.4221 117.075 33.2389C116.766 33.0558 116.414 32.9592 116.055 32.9592C115.696 32.9592 115.344 33.0558 115.035 33.2389C114.726 33.4221 114.472 33.685 114.3 34L85.3 86C85.161 86.2546 84.9682 86.476 84.7351 86.6486C84.502 86.8213 84.2341 86.9412 83.95 87L28.83 98.1C28.4763 98.1719 28.1486 98.3382 27.8817 98.5813C27.6148 98.8243 27.4187 99.1351 27.3141 99.4806C27.2095 99.826 27.2004 100.193 27.2877 100.544C27.375 100.894 27.5555 101.214 27.81 101.47V101.46Z" fill="white"/>
</mask>
<g mask="url(#mask2_4_3)">
<path d="M116.64 -19.26H115.89V264.45H116.64V-19.26Z" fill="#C89E3F"/>
<path d="M109.212 -19.0881L108.463 -19.0488L123.311 264.272L124.06 264.233L109.212 -19.0881Z" fill="#C89E3F"/>
<path d="M101.808 -18.5267L101.062 -18.4483L130.718 263.708L131.464 263.629L101.808 -18.5267Z" fill="#C89E3F"/>
<path d="M94.441 -17.5694L93.7003 -17.4521L138.082 262.765L138.823 262.648L94.441 -17.5694Z" fill="#C89E3F"/>
<path d="M87.1368 -16.2399L86.4032 -16.084L145.39 261.426L146.123 261.27L87.1368 -16.2399Z" fill="#C89E3F"/>
<path d="M79.9107 -14.5224L79.1863 -14.3283L152.616 259.715L153.34 259.52L79.9107 -14.5224Z" fill="#C89E3F"/>
<path d="M72.7896 -12.4311L72.0763 -12.1993L159.747 257.625L160.461 257.393L72.7896 -12.4311Z" fill="#C89E3F"/>
<path d="M65.7807 -9.97083L65.0805 -9.70205L166.753 255.164L167.453 254.895L65.7807 -9.97083Z" fill="#C89E3F"/>
<path d="M58.9122 -7.14667L58.227 -6.84161L173.622 252.34L174.307 252.035L58.9122 -7.14667Z" fill="#C89E3F"/>
<path d="M52.1931 -3.96423L51.5249 -3.62373L180.327 249.164L180.995 248.823L52.1931 -3.96423Z" fill="#C89E3F"/>
<path d="M46.1268 -0.516174L45.4743 -0.141174L187.329 246.687L187.982 246.312L46.1268 -0.516174Z" fill="#C89E3F"/>
<path d="M39.3228 3.42053L38.6938 3.829L193.213 241.768L193.842 241.36L39.3228 3.42053Z" fill="#C89E3F"/>
<path d="M33.183 7.60907L32.5762 8.04991L199.337 237.576L199.944 237.135L33.183 7.60907Z" fill="#C89E3F"/>
<path d="M27.2856 12.1183L26.7027 12.5902L205.247 233.074L205.83 232.602L27.2856 12.1183Z" fill="#C89E3F"/>
<path d="M21.623 16.9296L21.0656 17.4315L210.905 228.269L211.462 227.767L21.623 16.9296Z" fill="#C89E3F"/>
<path d="M16.2181 22.0242L15.6877 22.5545L216.301 223.168L216.831 222.637L16.2181 22.0242Z" fill="#C89E3F"/>
<path d="M11.0944 27.4021L10.5926 27.9595L221.43 217.799L221.932 217.241L11.0944 27.4021Z" fill="#C89E3F"/>
<path d="M6.25611 33.033L5.78412 33.6159L226.268 212.16L226.74 211.577L6.25611 33.033Z" fill="#C89E3F"/>
<path d="M1.7176 38.9155L1.27676 39.5223L230.803 206.283L231.244 205.676L1.7176 38.9155Z" fill="#C89E3F"/>
<path d="M-2.5061 45.0277L-2.91458 45.6567L235.025 200.176L235.433 199.547L-2.5061 45.0277Z" fill="#C89E3F"/>
<path d="M-6.39966 51.3468L-6.77466 51.9963L238.925 193.851L239.3 193.202L-6.39966 51.3468Z" fill="#C89E3F"/>
<path d="M-9.95733 57.8591L-10.2978 58.5274L242.49 187.329L242.83 186.661L-9.95733 57.8591Z" fill="#C89E3F"/>
<path d="M-13.1731 64.5603L-13.4782 65.2455L245.704 180.641L246.009 179.956L-13.1731 64.5603Z" fill="#C89E3F"/>
<path d="M-16.0307 71.415L-16.2995 72.1152L248.567 173.788L248.835 173.088L-16.0307 71.415Z" fill="#C89E3F"/>
<path d="M251.06 166.79L-18.76 79.12L-18.53 78.41L251.3 166.08L251.06 166.79Z" fill="#C89E3F"/>
<path d="M253.19 159.68L-20.85 86.25L-20.66 85.52L253.39 158.95L253.19 159.68Z" fill="#C89E3F"/>
<path d="M-22.4183 92.7345L-22.5742 93.4681L254.936 152.455L255.092 151.721L-22.4183 92.7345Z" fill="#C89E3F"/>
<path d="M-23.7864 100.033L-23.9037 100.774L256.313 145.156L256.431 144.415L-23.7864 100.033Z" fill="#C89E3F"/>
<path d="M-24.7723 107.396L-24.8507 108.142L257.305 137.797L257.384 137.052L-24.7723 107.396Z" fill="#C89E3F"/>
<path d="M-25.3791 114.802L-25.4184 115.551L257.903 130.399L257.942 129.65L-25.3791 114.802Z" fill="#C89E3F"/>
<path d="M258.12 122.22H-25.59V122.97H258.12V122.22Z" fill="#C89E3F"/>
<path d="M257.914 114.81L-25.41 129.608L-25.3709 130.357L257.953 115.559L257.914 114.81Z" fill="#C89E3F"/>
<path d="M257.308 107.444L-24.8577 137.001L-24.7796 137.747L257.387 108.19L257.308 107.444Z" fill="#C89E3F"/>
<path d="M256.313 100.092L-23.9191 144.376L-23.802 145.117L256.431 100.833L256.313 100.092Z" fill="#C89E3F"/>
<path d="M254.935 92.6575L-22.5444 151.789L-22.3881 152.523L255.091 93.3911L254.935 92.6575Z" fill="#C89E3F"/>
<path d="M-20.66 159.68L-20.85 158.95L253.19 85.52L253.39 86.25L-20.66 159.68Z" fill="#C89E3F"/>
<path d="M-18.53 166.79L-18.76 166.08L251.06 78.41L251.3 79.12L-18.53 166.79Z" fill="#C89E3F"/>
<path d="M248.514 71.3017L-16.263 173.205L-15.9936 173.905L248.784 72.0017L248.514 71.3017Z" fill="#C89E3F"/>
<path d="M245.741 64.656L-13.5215 179.87L-13.2169 180.556L246.046 65.3414L245.741 64.656Z" fill="#C89E3F"/>
<path d="M242.528 57.9143L-10.3272 186.584L-9.9871 187.252L242.868 58.5827L242.528 57.9143Z" fill="#C89E3F"/>
<path d="M238.918 51.3556L-6.78159 193.211L-6.40659 193.86L239.293 52.0052L238.918 51.3556Z" fill="#C89E3F"/>
<path d="M235.05 45.0295L-2.91611 199.508L-2.50774 200.137L235.458 45.6586L235.05 45.0295Z" fill="#C89E3F"/>
<path d="M230.736 38.814L1.35577 205.775L1.79714 206.381L231.178 39.4204L230.736 38.814Z" fill="#C89E3F"/>
<path d="M226.217 32.9873L5.82654 211.647L6.29883 212.23L226.689 33.5699L226.217 32.9873Z" fill="#C89E3F"/>
<path d="M221.446 27.4289L10.5752 217.231L11.077 217.789L221.948 27.9864L221.446 27.4289Z" fill="#C89E3F"/>
<path d="M216.217 21.9495L15.7789 222.738L16.3097 223.268L216.748 22.4794L216.217 21.9495Z" fill="#C89E3F"/>
<path d="M210.98 16.9846L20.9937 227.69L21.5507 228.192L211.537 17.4869L210.98 16.9846Z" fill="#C89E3F"/>
<path d="M205.286 12.1485L26.6647 232.57L27.2474 233.042L205.869 12.6207L205.286 12.1485Z" fill="#C89E3F"/>
<path d="M199.238 7.55707L32.6774 237.229L33.2845 237.669L199.845 7.99738L199.238 7.55707Z" fill="#C89E3F"/>
<path d="M193.188 3.42572L38.7104 241.392L39.3395 241.8L193.817 3.83409L193.188 3.42572Z" fill="#C89E3F"/>
<path d="M186.801 -0.471436L45.0742 245.303L45.7239 245.678L187.45 -0.0967753L186.801 -0.471436Z" fill="#C89E3F"/>
<path d="M180.394 -3.94147L51.4602 248.779L52.1283 249.119L181.062 -3.60063L180.394 -3.94147Z" fill="#C89E3F"/>
<path d="M173.53 -7.19421L58.3161 252.068L59.0015 252.373L174.216 -6.88964L173.53 -7.19421Z" fill="#C89E3F"/>
<path d="M166.695 -9.99817L65.1152 254.903L65.8155 255.172L167.396 -9.72964L166.695 -9.99817Z" fill="#C89E3F"/>
<path d="M159.725 -12.4228L72.1012 257.417L72.8146 257.648L160.439 -12.1912L159.725 -12.4228Z" fill="#C89E3F"/>
<path d="M152.64 -14.5196L79.1624 259.51L79.8869 259.705L153.364 -14.3254L152.64 -14.5196Z" fill="#C89E3F"/>
<path d="M145.415 -16.2282L86.3799 261.272L87.1135 261.428L146.149 -16.0722L145.415 -16.2282Z" fill="#C89E3F"/>
<path d="M139.297 -17.7236L93.9034 263.149L94.6459 263.269L140.04 -17.6036L139.297 -17.7236Z" fill="#C89E3F"/>
<path d="M130.676 -18.5223L101.119 263.644L101.865 263.722L131.422 -18.4442L130.676 -18.5223Z" fill="#C89E3F"/>
<path d="M123.288 -19.0834L108.489 264.24L109.238 264.279L124.037 -19.0443L123.288 -19.0834Z" fill="#C89E3F"/>
</g>
<path d="M116.3 6.76998C116.481 6.77047 116.658 6.82001 116.813 6.91335C116.968 7.00668 117.095 7.1403 117.18 7.29998L153.76 75.78C153.972 76.178 154.271 76.5231 154.634 76.7897C154.998 77.0564 155.417 77.2376 155.86 77.32L229.86 91.03C230.038 91.0631 230.203 91.1438 230.339 91.2636C230.475 91.3833 230.575 91.5376 230.63 91.71C230.683 91.8837 230.688 92.0685 230.644 92.2447C230.6 92.4209 230.509 92.5817 230.38 92.71L176.89 145.93C176.555 146.263 176.304 146.67 176.156 147.118C176.009 147.567 175.969 148.043 176.04 148.51L187.42 223.51C187.443 223.651 187.435 223.796 187.397 223.934C187.359 224.072 187.292 224.2 187.2 224.31C187.105 224.421 186.987 224.51 186.854 224.57C186.721 224.631 186.576 224.661 186.43 224.66C186.263 224.658 186.098 224.617 185.95 224.54L117.66 187C117.217 186.757 116.72 186.629 116.215 186.629C115.71 186.629 115.213 186.757 114.77 187L46.51 224.57C46.3605 224.655 46.1918 224.699 46.02 224.7C45.8748 224.699 45.7316 224.666 45.6003 224.604C45.4691 224.542 45.3529 224.452 45.26 224.34C45.1678 224.232 45.0996 224.106 45.06 223.97C45.0203 223.834 45.0101 223.69 45.03 223.55L56.19 148.55C56.258 148.087 56.2166 147.614 56.069 147.169C55.9213 146.725 55.6717 146.321 55.34 145.99L2.19 92.83C2.05973 92.7028 1.96666 92.5424 1.92084 92.3662C1.87502 92.1899 1.87819 92.0046 1.93 91.83C1.98095 91.6552 2.07866 91.4976 2.21259 91.3742C2.34652 91.2509 2.5116 91.1664 2.69 91.13L75.69 76.36C76.1098 76.2707 76.5056 76.0924 76.8507 75.8371C77.1957 75.5818 77.4819 75.2554 77.69 74.88L115.43 7.27998C115.517 7.12552 115.643 6.9969 115.796 6.90728C115.949 6.81767 116.123 6.77029 116.3 6.76998ZM62.74 202.66C63.2468 202.661 63.7457 202.534 64.19 202.29L115.73 173.93C115.882 173.842 116.054 173.796 116.23 173.796C116.406 173.796 116.578 173.842 116.73 173.93L168.22 202.26C168.661 202.502 169.157 202.629 169.66 202.63C170.089 202.636 170.515 202.55 170.909 202.378C171.302 202.205 171.654 201.95 171.94 201.63C172.221 201.303 172.428 200.919 172.547 200.505C172.666 200.091 172.694 199.656 172.63 199.23L164.2 143.7C164.177 143.544 164.191 143.385 164.242 143.235C164.292 143.086 164.377 142.95 164.49 142.84L205.08 102.45C205.466 102.064 205.74 101.579 205.871 101.049C206.002 100.519 205.986 99.9632 205.824 99.4414C205.663 98.9197 205.362 98.452 204.954 98.0887C204.546 97.7255 204.047 97.4804 203.51 97.38L147.71 87C147.562 86.9718 147.422 86.9104 147.3 86.8203C147.179 86.7303 147.08 86.6139 147.01 86.48L118.7 33.48C118.444 32.9995 118.062 32.5976 117.595 32.3175C117.129 32.0374 116.594 31.8896 116.05 31.89C115.516 31.8901 114.991 32.0329 114.531 32.3037C114.07 32.5744 113.69 32.9633 113.43 33.43L84.38 85.43C84.3099 85.5549 84.2138 85.6633 84.0982 85.7478C83.9827 85.8323 83.8503 85.8911 83.71 85.92L28.63 97.12C28.0984 97.2273 27.6058 97.4766 27.2046 97.8416C26.8035 98.2065 26.5087 98.6733 26.3518 99.1924C26.1948 99.7115 26.1815 100.263 26.3133 100.79C26.445 101.316 26.7169 101.796 27.1 102.18L67.75 142.8C67.8595 142.91 67.9418 143.044 67.9904 143.192C68.039 143.339 68.0526 143.496 68.03 143.65L59.77 199.22C59.7074 199.645 59.7366 200.078 59.8556 200.49C59.9746 200.902 60.1807 201.284 60.46 201.61C60.7463 201.93 61.098 202.185 61.4914 202.358C61.8847 202.53 62.3105 202.616 62.74 202.61M116.3 5.76998C115.946 5.76681 115.597 5.85772 115.29 6.03342C114.982 6.20911 114.727 6.46329 114.55 6.76998L76.82 74.4C76.681 74.6546 76.4882 74.8759 76.2551 75.0486C76.022 75.2213 75.7541 75.3412 75.47 75.4L2.47 90.17C2.11589 90.2435 1.78835 90.4117 1.52223 90.6566C1.25612 90.9015 1.0614 91.214 0.958792 91.5608C0.856188 91.9076 0.849542 92.2758 0.939563 92.626C1.02958 92.9763 1.2129 93.2956 1.47 93.55L54.63 146.66C54.8504 146.881 55.0159 147.152 55.1132 147.448C55.2104 147.745 55.2367 148.061 55.19 148.37L44 223.4C43.9565 223.687 43.9758 223.979 44.0567 224.258C44.1375 224.536 44.2779 224.794 44.4681 225.012C44.6584 225.231 44.8939 225.406 45.1584 225.525C45.4229 225.643 45.7101 225.703 46 225.7C46.3491 225.703 46.6932 225.617 47 225.45L115.26 187.89C115.556 187.727 115.888 187.642 116.225 187.642C116.562 187.642 116.894 187.727 117.19 187.89L185.48 225.46C185.784 225.633 186.13 225.72 186.48 225.71C186.77 225.713 187.057 225.654 187.322 225.535C187.586 225.416 187.822 225.241 188.012 225.022C188.202 224.804 188.343 224.546 188.423 224.268C188.504 223.989 188.524 223.697 188.48 223.41L177.1 148.41C177.052 148.099 177.077 147.782 177.174 147.483C177.272 147.184 177.438 146.913 177.66 146.69L231.16 93.47C231.447 93.209 231.651 92.8704 231.749 92.4953C231.847 92.1202 231.833 91.7248 231.71 91.3572C231.587 90.9896 231.36 90.6656 231.057 90.4246C230.753 90.1837 230.386 90.0362 230 90L156 76.3C155.707 76.248 155.429 76.1312 155.187 75.9582C154.945 75.7852 154.744 75.5604 154.6 75.3L118.07 6.82998C117.899 6.50913 117.644 6.2409 117.332 6.05414C117.02 5.86737 116.664 5.76914 116.3 5.76998ZM62.74 201.66C62.4501 201.663 62.1629 201.604 61.8984 201.485C61.6339 201.366 61.3984 201.191 61.2081 200.972C61.0179 200.754 60.8775 200.496 60.7967 200.218C60.7158 199.939 60.6965 199.647 60.74 199.36L69 143.8C69.0467 143.491 69.0204 143.175 68.9232 142.878C68.8259 142.582 68.6604 142.311 68.44 142.09L27.81 101.47C27.5556 101.215 27.3746 100.897 27.2862 100.548C27.1978 100.199 27.2052 99.8326 27.3076 99.4875C27.4099 99.1424 27.6036 98.8314 27.868 98.5872C28.1324 98.343 28.4579 98.1747 28.81 98.1L83.9 86.94C84.1841 86.8812 84.452 86.7613 84.6851 86.5886C84.9182 86.4159 85.111 86.1946 85.25 85.94L114.3 33.94C114.472 33.625 114.726 33.3621 115.035 33.1789C115.344 32.9958 115.696 32.8991 116.055 32.8991C116.414 32.8991 116.766 32.9958 117.075 33.1789C117.384 33.3621 117.638 33.625 117.81 33.94L146.13 86.94C146.274 87.2003 146.475 87.4252 146.717 87.5982C146.959 87.7712 147.237 87.888 147.53 87.94L203.3 98.31C203.654 98.3835 203.982 98.5517 204.248 98.7966C204.514 99.0415 204.709 99.354 204.811 99.7008C204.914 100.048 204.92 100.416 204.83 100.766C204.74 101.116 204.557 101.436 204.3 101.69L163.7 142.09C163.48 142.311 163.314 142.582 163.217 142.878C163.12 143.175 163.093 143.491 163.14 143.8L171.56 199.33C171.605 199.695 171.548 200.064 171.396 200.399C171.244 200.733 171.003 201.02 170.7 201.226C170.396 201.433 170.041 201.552 169.674 201.57C169.308 201.588 168.943 201.505 168.62 201.33L117.13 173C116.834 172.837 116.502 172.752 116.165 172.752C115.828 172.752 115.496 172.837 115.2 173L63.7 201.41C63.3942 201.579 63.0495 201.665 62.7 201.66H62.74Z" fill="url(#paint3_linear_4_3)"/>
<path d="M116.21 165.99C118.844 165.99 120.98 163.854 120.98 161.22C120.98 158.586 118.844 156.45 116.21 156.45C113.576 156.45 111.44 158.586 111.44 161.22C111.44 163.854 113.576 165.99 116.21 165.99Z" fill="black" stroke="url(#paint4_linear_4_3)" stroke-miterlimit="10"/>
<path d="M116.34 86.27C118.974 86.27 121.11 84.1344 121.11 81.5C121.11 78.8656 118.974 76.73 116.34 76.73C113.706 76.73 111.57 78.8656 111.57 81.5C111.57 84.1344 113.706 86.27 116.34 86.27Z" fill="black" stroke="url(#paint5_linear_4_3)" stroke-miterlimit="10"/>
<path d="M118 145.33C116.713 145.33 115.478 144.819 114.567 143.91C113.656 143.001 113.143 141.767 113.14 140.48V105.28C113.143 103.992 113.656 102.757 114.566 101.846C115.477 100.936 116.712 100.423 118 100.42H124.28C125.567 100.423 126.801 100.936 127.71 101.847C128.619 102.758 129.13 103.993 129.13 105.28V107.35L131.86 102.78C132.291 102.063 132.899 101.47 133.626 101.057C134.353 100.643 135.174 100.424 136.01 100.42H143.29C144.168 100.414 145.032 100.647 145.788 101.094C146.544 101.541 147.165 102.185 147.584 102.957C148.003 103.729 148.204 104.601 148.167 105.478C148.129 106.356 147.854 107.207 147.37 107.94L138.63 121.26L149.31 137.86C149.782 138.592 150.049 139.438 150.082 140.309C150.114 141.179 149.912 142.043 149.495 142.808C149.079 143.573 148.464 144.212 147.715 144.658C146.966 145.104 146.111 145.339 145.24 145.34H137.92C137.09 145.345 136.273 145.136 135.548 144.734C134.823 144.331 134.214 143.747 133.78 143.04L129.13 135.56V140.49C129.127 141.775 128.616 143.008 127.707 143.917C126.798 144.826 125.565 145.337 124.28 145.34L118 145.33Z" fill="url(#paint6_linear_4_3)"/>
<path d="M143.26 103.38C143.751 103.383 144.221 103.578 144.569 103.924C144.917 104.27 145.115 104.739 145.12 105.23C145.112 105.586 145.004 105.932 144.81 106.23L135 121.18L135.06 121.3C135.094 121.37 135.134 121.437 135.18 121.5L146.71 139.44C146.892 139.719 146.995 140.042 147.009 140.375C147.022 140.708 146.945 141.039 146.787 141.331C146.628 141.624 146.393 141.869 146.107 142.04C145.82 142.21 145.493 142.3 145.16 142.3H137.84C137.524 142.3 137.212 142.219 136.936 142.065C136.659 141.911 136.427 141.689 136.26 141.42L127.06 126.59L126.56 125.79C126.244 126.134 126.07 126.583 126.07 127.05V140.45C126.07 140.941 125.875 141.411 125.528 141.758C125.181 142.105 124.711 142.3 124.22 142.3H118C117.756 142.301 117.515 142.254 117.289 142.162C117.063 142.07 116.858 141.934 116.685 141.762C116.513 141.59 116.375 141.385 116.282 141.16C116.188 140.935 116.14 140.694 116.14 140.45V105.25C116.14 104.757 116.336 104.284 116.685 103.935C117.034 103.586 117.507 103.39 118 103.39H124.28C124.524 103.39 124.765 103.438 124.99 103.532C125.215 103.625 125.42 103.763 125.592 103.935C125.764 104.108 125.9 104.313 125.992 104.539C126.084 104.765 126.131 105.006 126.13 105.25V114.85C126.133 115.053 126.215 115.248 126.358 115.392C126.502 115.535 126.697 115.617 126.9 115.62C127.12 115.613 127.335 115.553 127.526 115.445C127.718 115.337 127.88 115.185 128 115L134.38 104.33C134.542 104.055 134.773 103.828 135.05 103.67C135.327 103.512 135.641 103.429 135.96 103.43H143.24M143.24 97.43H135.97C134.865 97.4395 133.775 97.6802 132.769 98.1366C131.764 98.593 130.864 99.255 130.13 100.08C129.395 99.2483 128.491 98.5821 127.479 98.1253C126.467 97.6685 125.37 97.4315 124.26 97.43H118C115.916 97.4326 113.919 98.2616 112.445 99.7351C110.972 101.209 110.143 103.206 110.14 105.29V140.49C110.143 142.573 110.972 144.57 112.446 146.041C113.919 147.513 115.917 148.34 118 148.34H124.28C125.661 148.337 127.017 147.972 128.212 147.281C129.407 146.589 130.4 145.596 131.09 144.4L131.23 144.63C131.932 145.767 132.913 146.706 134.081 147.355C135.249 148.005 136.564 148.344 137.9 148.34H145.25C146.659 148.334 148.04 147.95 149.25 147.227C150.459 146.505 151.452 145.471 152.124 144.233C152.797 142.995 153.125 141.599 153.073 140.191C153.021 138.783 152.592 137.415 151.83 136.23L142.21 121.23L149.88 109.54C150.657 108.355 151.099 106.981 151.16 105.565C151.22 104.149 150.897 102.743 150.224 101.496C149.55 100.249 148.552 99.207 147.335 98.4806C146.118 97.7543 144.727 97.3705 143.31 97.37L143.24 97.43Z" fill="black"/>
<path d="M95 145.91C93.1839 145.923 91.3702 145.776 89.58 145.47C88.0054 145.187 86.4687 144.724 85 144.09C83.5588 143.477 82.212 142.662 81 141.67C80.0912 140.919 79.2543 140.086 78.5 139.18C78.1544 138.766 77.8981 138.285 77.747 137.767C77.5958 137.249 77.5532 136.706 77.6217 136.171C77.6903 135.636 77.8685 135.121 78.1452 134.658C78.4219 134.195 78.7912 133.794 79.23 133.48L85.23 129.12C85.9009 128.631 86.7099 128.368 87.54 128.37C87.7581 128.37 87.9757 128.39 88.19 128.43C87.6936 127.75 87.4241 126.932 87.42 126.09V119.93C87.4164 119.183 87.6282 118.45 88.03 117.82H87.86C87.1528 117.814 86.4609 117.613 85.86 117.24L80 113.71C79.5368 113.41 79.1408 113.017 78.8367 112.557C78.5327 112.096 78.3273 111.578 78.2333 111.034C78.1394 110.49 78.159 109.933 78.291 109.397C78.4229 108.861 78.6643 108.358 79 107.92C80.653 105.817 82.754 104.109 85.15 102.92C88.0683 101.468 91.2905 100.731 94.55 100.77C96.829 100.744 99.0995 101.05 101.29 101.68C103.232 102.243 105.055 103.154 106.67 104.37C108.239 105.567 109.498 107.125 110.34 108.91C111.192 110.734 111.623 112.727 111.6 114.74C111.619 116.811 111.099 118.851 110.09 120.66C109.75 121.249 109.369 121.814 108.95 122.35C109.561 122.959 110.107 123.629 110.58 124.35C111.845 126.33 112.492 128.641 112.44 130.99C112.446 133.034 112.017 135.055 111.18 136.92C110.334 138.785 109.088 140.441 107.53 141.77C105.902 143.148 104.025 144.201 102 144.87C99.7408 145.604 97.375 145.955 95 145.91ZM90.68 130C91.0613 130.508 91.5539 130.922 92.12 131.21C93.0071 131.615 93.9749 131.814 94.95 131.79C95.6473 131.821 96.3395 131.658 96.95 131.32C97.03 131.26 97.12 131.2 97.12 130.77C97.12 130.69 97.12 130.64 97.12 130.62L97.03 130.56C96.2433 130.169 95.3661 129.996 94.49 130.06H91.34C91.1186 130.06 90.8977 130.04 90.68 130ZM94.68 114.39C93.8379 114.345 92.9999 114.535 92.26 114.94C91.8188 115.214 91.4378 115.575 91.14 116H94.27C94.9619 116.075 95.6602 115.935 96.27 115.6C96.3703 115.532 96.4515 115.439 96.5058 115.33C96.5601 115.222 96.5856 115.101 96.58 114.98C96.58 114.91 96.58 114.84 96.39 114.66C95.8604 114.399 95.267 114.295 94.68 114.36V114.39Z" fill="url(#paint7_linear_4_3)"/>
<path d="M94.53 103.73C96.5143 103.702 98.492 103.964 100.4 104.51C101.994 104.971 103.491 105.716 104.82 106.71C106.012 107.617 106.969 108.797 107.61 110.15C108.282 111.572 108.624 113.127 108.61 114.7C108.629 116.252 108.243 117.783 107.49 119.14C106.93 120.117 106.221 121 105.39 121.76C105.286 121.86 105.204 121.982 105.151 122.117C105.098 122.252 105.075 122.396 105.084 122.541C105.093 122.685 105.132 122.826 105.201 122.954C105.269 123.082 105.364 123.193 105.48 123.28C106.51 124.002 107.395 124.911 108.09 125.96C109.029 127.455 109.502 129.195 109.45 130.96C109.457 132.58 109.116 134.183 108.45 135.66C107.784 137.125 106.804 138.425 105.58 139.47C104.233 140.604 102.677 141.463 101 142C99.0645 142.636 97.0371 142.947 95 142.92C93.3617 142.934 91.7254 142.804 90.11 142.53C88.7355 142.293 87.3931 141.897 86.11 141.35C84.9344 140.84 83.8369 140.167 82.85 139.35C82.0808 138.716 81.3742 138.009 80.74 137.24C80.6604 137.142 80.6017 137.028 80.5675 136.906C80.5334 136.784 80.5244 136.657 80.5413 136.531C80.5581 136.406 80.6004 136.285 80.6655 136.177C80.7307 136.068 80.8172 135.974 80.92 135.9L86.92 131.54C87.0795 131.423 87.2722 131.36 87.47 131.36C87.6109 131.361 87.7496 131.395 87.876 131.457C88.0023 131.519 88.1131 131.609 88.2 131.72C88.8694 132.621 89.7389 133.353 90.74 133.86C92.0396 134.473 93.4633 134.778 94.9 134.75C96.2335 134.819 97.5552 134.469 98.68 133.75C99.1542 133.413 99.5351 132.96 99.7869 132.436C100.039 131.911 100.153 131.331 100.12 130.75C100.149 130.199 100.025 129.651 99.7617 129.165C99.4989 128.68 99.1073 128.277 98.63 128C97.3752 127.317 95.957 126.992 94.53 127.06H91.34C91.0907 127.06 90.8516 126.961 90.6753 126.785C90.499 126.608 90.4 126.369 90.4 126.12V119.96C90.3918 119.832 90.41 119.703 90.4536 119.582C90.4971 119.461 90.5651 119.35 90.6532 119.256C90.7413 119.162 90.8477 119.088 90.9659 119.037C91.084 118.986 91.2113 118.96 91.34 118.96H94.27C95.7021 119.078 97.1272 118.661 98.27 117.79C98.682 117.439 99.0119 117.002 99.2365 116.509C99.4611 116.017 99.575 115.481 99.57 114.94C99.57 114.459 99.4654 113.983 99.2634 113.546C99.0614 113.109 98.7668 112.722 98.4 112.41C97.3458 111.607 96.0303 111.226 94.71 111.34C93.3094 111.293 91.9235 111.639 90.71 112.34C89.8755 112.868 89.1658 113.571 88.63 114.4C88.5499 114.523 88.4402 114.624 88.3109 114.694C88.1816 114.764 88.0369 114.8 87.89 114.8C87.7265 114.798 87.5669 114.749 87.43 114.66L81.65 111.12C81.5419 111.044 81.4498 110.948 81.3791 110.836C81.3084 110.725 81.2606 110.6 81.2383 110.47C81.2159 110.34 81.2196 110.207 81.2491 110.078C81.2786 109.949 81.3333 109.827 81.41 109.72C82.7794 107.956 84.5296 106.523 86.53 105.53C89.0147 104.297 91.7562 103.67 94.53 103.7M94.53 97.7C90.7971 97.6592 87.1084 98.5094 83.77 100.18C80.9699 101.578 78.5196 103.588 76.6 106.06C76.005 106.836 75.5793 107.728 75.3502 108.679C75.1211 109.63 75.0938 110.618 75.27 111.58C75.4447 112.538 75.8202 113.449 76.3717 114.252C76.9232 115.055 77.6383 115.733 78.47 116.24L84.24 119.78L84.4 119.87V126.08C84.0514 126.246 83.717 126.44 83.4 126.66L79.1 129.78L77.39 131.02C76.6274 131.576 75.9864 132.282 75.5064 133.095C75.0264 133.908 74.7175 134.81 74.5986 135.746C74.4796 136.682 74.5532 137.633 74.8149 138.54C75.0765 139.447 75.5206 140.291 76.12 141.02C76.992 142.074 77.9632 143.042 79.02 143.91C80.4393 145.074 82.0146 146.033 83.7 146.76C85.3952 147.52 87.1742 148.077 89 148.42C90.9817 148.759 92.9895 148.923 95 148.91C97.7169 148.942 100.42 148.523 103 147.67C105.383 146.876 107.593 145.634 109.51 144.01C111.402 142.397 112.915 140.386 113.94 138.12C114.956 135.867 115.477 133.422 115.47 130.95C115.529 128.014 114.711 125.128 113.12 122.66L112.73 122.09C113.997 119.834 114.652 117.287 114.63 114.7C114.651 112.242 114.124 109.81 113.09 107.58C112.034 105.373 110.472 103.448 108.53 101.96C106.631 100.516 104.482 99.4342 102.19 98.77C99.716 98.0659 97.152 97.729 94.58 97.77L94.53 97.7Z" fill="black"/>
<path d="M143.25 103.38C143.743 103.38 144.215 103.574 144.565 103.921C144.915 104.267 145.115 104.738 145.12 105.23C145.112 105.586 145.004 105.932 144.81 106.23L135 121.18L135.07 121.3C135.097 121.372 135.134 121.439 135.18 121.5L146.71 139.44C146.892 139.719 146.995 140.042 147.009 140.375C147.022 140.708 146.945 141.039 146.787 141.331C146.628 141.624 146.393 141.869 146.107 142.04C145.82 142.21 145.493 142.3 145.16 142.3H137.84C137.522 142.302 137.209 142.221 136.93 142.067C136.652 141.913 136.418 141.69 136.25 141.42L127.05 126.59L126.55 125.79C126.234 126.134 126.06 126.583 126.06 127.05V140.45C126.06 140.941 125.865 141.411 125.518 141.758C125.171 142.105 124.701 142.3 124.21 142.3H118C117.756 142.301 117.515 142.254 117.289 142.162C117.063 142.07 116.858 141.934 116.685 141.762C116.513 141.59 116.375 141.385 116.282 141.16C116.188 140.935 116.14 140.694 116.14 140.45V105.25C116.14 104.757 116.336 104.284 116.685 103.935C117.034 103.586 117.507 103.39 118 103.39H124.28C124.524 103.39 124.765 103.438 124.99 103.532C125.215 103.625 125.42 103.763 125.592 103.935C125.764 104.108 125.9 104.313 125.992 104.539C126.084 104.765 126.131 105.006 126.13 105.25V114.85C126.133 115.053 126.215 115.248 126.358 115.392C126.502 115.535 126.697 115.617 126.9 115.62C127.12 115.613 127.335 115.553 127.526 115.445C127.718 115.337 127.88 115.185 128 115L134.38 104.33C134.542 104.055 134.773 103.828 135.05 103.67C135.327 103.512 135.641 103.429 135.96 103.43L143.25 103.38Z" fill="url(#paint8_linear_4_3)"/>
<path d="M143.26 103.38V104.13C143.552 104.133 143.831 104.249 144.039 104.454C144.246 104.66 144.365 104.938 144.37 105.23C144.367 105.451 144.301 105.666 144.18 105.85L134.4 120.76L134.16 121.12L134.35 121.5L134.41 121.63L134.56 121.91L146.1 139.85C146.179 139.971 146.233 140.107 146.259 140.25C146.284 140.392 146.281 140.539 146.25 140.68C146.221 140.821 146.163 140.956 146.081 141.074C145.998 141.193 145.892 141.293 145.77 141.37C145.597 141.491 145.391 141.554 145.18 141.55H137.85C137.662 141.548 137.478 141.5 137.314 141.409C137.15 141.318 137.011 141.188 136.91 141.03L127.71 126.2L127.21 125.4L126.69 124.56L126.02 125.29C125.578 125.77 125.332 126.398 125.33 127.05V140.45C125.33 140.742 125.214 141.022 125.008 141.228C124.802 141.434 124.522 141.55 124.23 141.55H118C117.707 141.55 117.427 141.434 117.219 141.228C117.011 141.022 116.893 140.743 116.89 140.45V105.25C116.89 104.956 117.007 104.673 117.215 104.465C117.423 104.257 117.706 104.14 118 104.14H124.28C124.573 104.143 124.852 104.261 125.058 104.469C125.264 104.677 125.38 104.957 125.38 105.25V114.85C125.383 115.252 125.544 115.637 125.828 115.922C126.113 116.206 126.498 116.367 126.9 116.37C127.262 116.371 127.618 116.279 127.934 116.104C128.251 115.929 128.518 115.677 128.71 115.37L135 104.71C135.097 104.547 135.235 104.412 135.4 104.317C135.564 104.223 135.75 104.172 135.94 104.17H143.22V103.42M143.22 103.42H135.94C135.621 103.419 135.307 103.502 135.03 103.66C134.753 103.818 134.522 104.045 134.36 104.32L128 115C127.88 115.2 127.71 115.366 127.507 115.482C127.303 115.598 127.074 115.659 126.84 115.66C126.637 115.657 126.442 115.575 126.298 115.432C126.155 115.288 126.073 115.093 126.07 114.89V105.29C126.071 105.046 126.024 104.805 125.932 104.579C125.84 104.353 125.704 104.148 125.532 103.975C125.36 103.803 125.155 103.665 124.93 103.572C124.705 103.478 124.464 103.43 124.22 103.43H118C117.507 103.43 117.034 103.626 116.685 103.975C116.336 104.324 116.14 104.797 116.14 105.29V140.49C116.14 140.734 116.188 140.975 116.282 141.2C116.375 141.425 116.513 141.63 116.685 141.802C116.858 141.974 117.063 142.11 117.289 142.202C117.515 142.294 117.756 142.341 118 142.34H124.28C124.771 142.34 125.241 142.145 125.588 141.798C125.935 141.451 126.13 140.981 126.13 140.49V127.09C126.13 126.623 126.304 126.174 126.62 125.83L127.12 126.63L136.32 141.46C136.487 141.729 136.719 141.951 136.996 142.105C137.272 142.259 137.584 142.34 137.9 142.34H145.22C145.553 142.34 145.88 142.25 146.167 142.08C146.453 141.909 146.688 141.664 146.847 141.371C147.005 141.079 147.082 140.748 147.069 140.415C147.055 140.082 146.952 139.759 146.77 139.48L135.2 121.5C135.154 121.437 135.114 121.37 135.08 121.3L135.02 121.18L144.81 106.26C145.004 105.962 145.112 105.616 145.12 105.26C145.115 104.769 144.917 104.3 144.569 103.954C144.221 103.608 143.751 103.413 143.26 103.41L143.22 103.42Z" fill="url(#paint9_linear_4_3)"/>
<path d="M95 142.91C93.3617 142.924 91.7254 142.794 90.11 142.52C88.7355 142.283 87.3931 141.887 86.11 141.34C84.9344 140.83 83.8369 140.157 82.85 139.34C82.0808 138.706 81.3742 137.999 80.74 137.23C80.6604 137.132 80.6017 137.018 80.5675 136.896C80.5333 136.774 80.5244 136.647 80.5413 136.521C80.5581 136.396 80.6004 136.275 80.6655 136.167C80.7306 136.058 80.8172 135.964 80.92 135.89L86.92 131.53C87.1151 131.388 87.3576 131.328 87.5964 131.361C87.8352 131.395 88.0516 131.52 88.2 131.71C88.8694 132.611 89.7389 133.343 90.74 133.85C92.0396 134.463 93.4633 134.768 94.9 134.74C96.2335 134.809 97.5552 134.459 98.68 133.74C99.1542 133.403 99.535 132.95 99.7869 132.426C100.039 131.901 100.153 131.321 100.12 130.74C100.147 130.191 100.022 129.644 99.7591 129.161C99.4963 128.678 99.1057 128.276 98.63 128C97.3752 127.317 95.957 126.992 94.53 127.06H91.34C91.0907 127.06 90.8516 126.961 90.6753 126.785C90.499 126.608 90.4 126.369 90.4 126.12V119.96C90.3918 119.832 90.41 119.703 90.4536 119.582C90.4971 119.461 90.5651 119.35 90.6532 119.256C90.7413 119.162 90.8477 119.088 90.9659 119.037C91.084 118.986 91.2113 118.96 91.34 118.96H94.27C95.7019 119.076 97.1264 118.66 98.27 117.79C98.6819 117.439 99.0119 117.002 99.2365 116.509C99.4611 116.017 99.575 115.481 99.57 114.94C99.57 114.459 99.4654 113.983 99.2634 113.546C99.0614 113.109 98.7668 112.722 98.4 112.41C97.3458 111.607 96.0302 111.226 94.71 111.34C93.3094 111.293 91.9235 111.639 90.71 112.34C89.8755 112.868 89.1658 113.571 88.63 114.4C88.5033 114.591 88.307 114.725 88.0828 114.774C87.8587 114.822 87.6245 114.782 87.43 114.66L81.65 111.12C81.5419 111.044 81.4498 110.948 81.3791 110.836C81.3084 110.725 81.2606 110.6 81.2382 110.47C81.2159 110.34 81.2196 110.207 81.2491 110.078C81.2786 109.949 81.3333 109.827 81.41 109.72C82.7794 107.956 84.5296 106.523 86.53 105.53C89.0147 104.297 91.7562 103.67 94.53 103.7C96.5143 103.672 98.492 103.934 100.4 104.48C101.994 104.941 103.491 105.686 104.82 106.68C106.012 107.587 106.969 108.767 107.61 110.12C108.282 111.542 108.624 113.097 108.61 114.67C108.629 116.222 108.243 117.753 107.49 119.11C106.93 120.087 106.221 120.97 105.39 121.73C105.286 121.83 105.204 121.952 105.151 122.087C105.098 122.222 105.075 122.366 105.084 122.511C105.093 122.655 105.132 122.796 105.201 122.924C105.269 123.052 105.364 123.163 105.48 123.25C106.51 123.972 107.395 124.881 108.09 125.93C109.029 127.425 109.502 129.165 109.45 130.93C109.457 132.55 109.116 134.153 108.45 135.63C107.784 137.095 106.804 138.395 105.58 139.44C104.235 140.585 102.679 141.454 101 142C99.0639 142.632 97.0365 142.94 95 142.91Z" fill="url(#paint10_linear_4_3)"/>
<path d="M94.53 104.48C96.4432 104.452 98.3501 104.705 100.19 105.23C101.694 105.662 103.107 106.363 104.36 107.3C105.46 108.14 106.344 109.23 106.94 110.48C107.546 111.803 107.85 113.245 107.83 114.7C107.857 116.121 107.512 117.524 106.83 118.77C106.314 119.676 105.659 120.496 104.89 121.2C104.697 121.374 104.545 121.589 104.446 121.83C104.348 122.071 104.304 122.33 104.32 122.59C104.336 122.848 104.409 123.099 104.536 123.324C104.662 123.549 104.838 123.742 105.05 123.89C105.999 124.562 106.816 125.402 107.46 126.37C108.318 127.74 108.749 129.334 108.7 130.95C108.705 132.463 108.388 133.959 107.77 135.34C107.147 136.705 106.232 137.917 105.09 138.89C103.825 139.957 102.364 140.769 100.79 141.28C98.9315 141.888 96.9853 142.186 95.03 142.16C93.4386 142.173 91.8491 142.046 90.28 141.78C88.9702 141.554 87.6914 141.174 86.47 140.65C85.3591 140.171 84.3194 139.542 83.38 138.78C82.6526 138.177 81.983 137.507 81.38 136.78C81.3644 136.742 81.3644 136.698 81.38 136.66C81.3894 136.608 81.418 136.562 81.46 136.53L83.56 135L87.41 132.21C87.4459 132.199 87.4841 132.199 87.52 132.21C87.5457 132.21 87.5709 132.217 87.5936 132.229C87.6162 132.241 87.6355 132.259 87.65 132.28C88.3902 133.272 89.3526 134.077 90.46 134.63C91.8596 135.305 93.3963 135.647 94.95 135.63C96.4431 135.692 97.9183 135.286 99.17 134.47C99.7417 134.064 100.202 133.52 100.508 132.889C100.814 132.258 100.955 131.56 100.92 130.86C100.94 130.173 100.774 129.493 100.44 128.893C100.105 128.293 99.6148 127.794 99.02 127.45C97.6431 126.712 96.09 126.366 94.53 126.45H91.34C91.2904 126.448 91.2435 126.427 91.2083 126.392C91.1732 126.357 91.1524 126.31 91.15 126.26V120.1C91.1499 120.049 91.1696 119.999 91.205 119.962C91.2404 119.925 91.2887 119.903 91.34 119.9H94.27C95.8764 120.011 97.4674 119.527 98.74 118.54C99.2307 118.118 99.6236 117.595 99.8913 117.006C100.159 116.417 100.295 115.777 100.29 115.13C100.29 114.543 100.163 113.963 99.9182 113.43C99.6731 112.896 99.3155 112.422 98.87 112.04C97.6785 111.114 96.1847 110.665 94.68 110.78C93.1296 110.733 91.5974 111.124 90.26 111.91C89.3703 112.443 88.6007 113.155 88 114C87.9876 114.018 87.9712 114.033 87.9521 114.043C87.933 114.053 87.9117 114.059 87.89 114.06H87.82L82 110.51C81.9777 110.498 81.9586 110.481 81.9446 110.46C81.9306 110.439 81.9222 110.415 81.92 110.39C81.9073 110.362 81.9007 110.331 81.9007 110.3C81.9007 110.269 81.9073 110.238 81.92 110.21C83.2205 108.526 84.8855 107.159 86.79 106.21C89.1852 105.025 91.8277 104.425 94.5 104.46M94.5 103.71C91.7262 103.68 88.9847 104.307 86.5 105.54C84.4996 106.533 82.7494 107.966 81.38 109.73C81.3033 109.837 81.2486 109.959 81.2191 110.088C81.1896 110.217 81.1859 110.35 81.2082 110.48C81.2306 110.61 81.2784 110.735 81.3491 110.846C81.4198 110.958 81.5118 111.054 81.62 111.13L87.4 114.67C87.5369 114.759 87.6965 114.808 87.86 114.81C88.0069 114.81 88.1516 114.774 88.2809 114.704C88.4101 114.634 88.5198 114.533 88.6 114.41C89.1358 113.581 89.8455 112.878 90.68 112.35C91.8935 111.649 93.2794 111.303 94.68 111.35C96.0002 111.236 97.3158 111.617 98.37 112.42C98.7432 112.737 99.0417 113.133 99.244 113.579C99.4463 114.025 99.5474 114.51 99.54 115C99.5449 115.541 99.4311 116.077 99.2065 116.569C98.9819 117.062 98.6519 117.499 98.24 117.85C97.0972 118.721 95.6721 119.138 94.24 119.02H91.34C91.2113 119.02 91.084 119.046 90.9659 119.097C90.8477 119.148 90.7413 119.222 90.6532 119.316C90.5651 119.41 90.4971 119.521 90.4536 119.642C90.41 119.763 90.3918 119.892 90.4 120.02V126.18C90.4 126.429 90.499 126.668 90.6753 126.845C90.8516 127.021 91.0907 127.12 91.34 127.12H94.53C95.957 127.052 97.3752 127.377 98.63 128.06C99.1197 128.332 99.5235 128.735 99.7956 129.225C100.068 129.715 100.197 130.271 100.17 130.83C100.203 131.411 100.089 131.991 99.8369 132.516C99.585 133.04 99.2042 133.493 98.73 133.83C97.6052 134.549 96.2835 134.899 94.95 134.83C93.5133 134.858 92.0896 134.553 90.79 133.94C89.7889 133.433 88.9194 132.701 88.25 131.8C88.1631 131.689 88.0523 131.599 87.926 131.537C87.7996 131.475 87.6609 131.441 87.52 131.44C87.3222 131.44 87.1295 131.503 86.97 131.62L80.97 135.98C80.8672 136.054 80.7806 136.148 80.7155 136.257C80.6504 136.365 80.6081 136.486 80.5913 136.611C80.5744 136.737 80.5833 136.864 80.6175 136.986C80.6517 137.108 80.7104 137.222 80.79 137.32C81.4242 138.089 82.1308 138.796 82.9 139.43C83.8869 140.247 84.9844 140.92 86.16 141.43C87.4431 141.977 88.7854 142.373 90.16 142.61C91.7754 142.884 93.4117 143.014 95.05 143C97.0871 143.027 99.1145 142.716 101.05 142.08C102.713 141.539 104.255 140.679 105.59 139.55C106.814 138.505 107.794 137.205 108.46 135.74C109.126 134.263 109.467 132.66 109.46 131.04C109.512 129.275 109.039 127.535 108.1 126.04C107.405 124.991 106.52 124.082 105.49 123.36C105.374 123.273 105.279 123.162 105.211 123.034C105.142 122.906 105.103 122.765 105.094 122.621C105.085 122.476 105.108 122.332 105.161 122.197C105.214 122.062 105.296 121.94 105.4 121.84C106.231 121.08 106.94 120.197 107.5 119.22C108.253 117.862 108.639 116.332 108.62 114.78C108.634 113.207 108.292 111.652 107.62 110.23C106.979 108.877 106.022 107.697 104.83 106.79C103.501 105.796 102.004 105.051 100.41 104.59C98.502 104.044 96.5243 103.782 94.54 103.81L94.5 103.71Z" fill="url(#paint11_linear_4_3)"/>
</g>
<defs>
<linearGradient id="paint0_linear_4_3" x1="140.71" y1="-16.2" x2="91.83" y2="261.03" gradientUnits="userSpaceOnUse">
<stop offset="0.25" stop-color="#F6E594"/>
<stop offset="0.38" stop-color="#F5E492"/>
<stop offset="0.43" stop-color="#F2DE8B"/>
<stop offset="0.47" stop-color="#ECD580"/>
<stop offset="0.49" stop-color="#E4C86F"/>
<stop offset="0.5" stop-color="#E2C46A"/>
<stop offset="0.61" stop-color="#C89E3F"/>
<stop offset="0.72" stop-color="#E8D17E"/>
<stop offset="0.76" stop-color="#E5CE7C"/>
<stop offset="0.79" stop-color="#DCC574"/>
<stop offset="0.81" stop-color="#CDB568"/>
<stop offset="0.83" stop-color="#B79F57"/>
<stop offset="0.86" stop-color="#9B8240"/>
<stop offset="0.88" stop-color="#684E18"/>
</linearGradient>
<linearGradient id="paint1_linear_4_3" x1="140.67" y1="-15.98" x2="91.86" y2="260.81" gradientUnits="userSpaceOnUse">
<stop offset="0.25" stop-color="#F6E594"/>
<stop offset="0.38" stop-color="#F5E492"/>
<stop offset="0.43" stop-color="#F2DE8B"/>
<stop offset="0.47" stop-color="#ECD580"/>
<stop offset="0.49" stop-color="#E4C86F"/>
<stop offset="0.5" stop-color="#E2C46A"/>
<stop offset="0.61" stop-color="#C89E3F"/>
<stop offset="0.72" stop-color="#E8D17E"/>
<stop offset="0.76" stop-color="#E5CE7C"/>
<stop offset="0.79" stop-color="#DCC574"/>
<stop offset="0.81" stop-color="#CDB568"/>
<stop offset="0.83" stop-color="#B79F57"/>
<stop offset="0.86" stop-color="#9B8240"/>
<stop offset="0.88" stop-color="#684E18"/>
</linearGradient>
<linearGradient id="paint2_linear_4_3" x1="146.14" y1="16.5" x2="67.15" y2="233.51" gradientUnits="userSpaceOnUse">
<stop stop-color="#F6E594"/>
<stop offset="0.33" stop-color="#F6E492"/>
<stop offset="0.45" stop-color="#F4DF8B"/>
<stop offset="0.53" stop-color="#F2D880"/>
<stop offset="0.6" stop-color="#EFCD6F"/>
<stop offset="0.65" stop-color="#EBC15C"/>
<stop offset="0.7" stop-color="#C89D47"/>
<stop offset="0.82" stop-color="#7A4D18"/>
<stop offset="0.97" stop-color="#C1914C"/>
</linearGradient>
<linearGradient id="paint3_linear_4_3" x1="166.09" y1="34.2" x2="53.02" y2="230.04" gradientUnits="userSpaceOnUse">
<stop stop-color="#FFFFAD"/>
<stop offset="0.26" stop-color="#F6E594"/>
<stop offset="0.34" stop-color="#F5E492"/>
<stop offset="0.37" stop-color="#F2DE8B"/>
<stop offset="0.39" stop-color="#ECD580"/>
<stop offset="0.41" stop-color="#E2C46A"/>
<stop offset="0.51" stop-color="#A68C46"/>
<stop offset="0.66" stop-color="#564217"/>
<stop offset="0.68" stop-color="#75612D"/>
<stop offset="0.73" stop-color="#C7B167"/>
<stop offset="0.75" stop-color="#E8D17E"/>
<stop offset="0.78" stop-color="#E5CE7C"/>
<stop offset="0.81" stop-color="#DDC574"/>
<stop offset="0.83" stop-color="#CFB568"/>
<stop offset="0.85" stop-color="#BB9F56"/>
<stop offset="0.86" stop-color="#A2823F"/>
<stop offset="0.88" stop-color="#825E23"/>
<stop offset="0.9" stop-color="#5B3200"/>
</linearGradient>
<linearGradient id="paint4_linear_4_3" x1="116.21" y1="155.95" x2="116.21" y2="166.49" gradientUnits="userSpaceOnUse">
<stop stop-color="#F6E594"/>
<stop offset="0.21" stop-color="#F5E492"/>
<stop offset="0.29" stop-color="#F2DE8B"/>
<stop offset="0.34" stop-color="#ECD580"/>
<stop offset="0.39" stop-color="#E4C86F"/>
<stop offset="0.4" stop-color="#E2C46A"/>
<stop offset="0.49" stop-color="#BA9D4E"/>
<stop offset="0.69" stop-color="#6A4E17"/>
<stop offset="0.72" stop-color="#6F531B"/>
<stop offset="0.75" stop-color="#7D6227"/>
<stop offset="0.79" stop-color="#957B3A"/>
<stop offset="0.83" stop-color="#B69D55"/>
<stop offset="0.86" stop-color="#E0C977"/>
<stop offset="0.87" stop-color="#E8D17E"/>
<stop offset="0.9" stop-color="#E5CE7C"/>
<stop offset="0.92" stop-color="#DCC574"/>
<stop offset="0.94" stop-color="#CDB568"/>
<stop offset="0.96" stop-color="#B79F57"/>
<stop offset="0.98" stop-color="#9B8240"/>
<stop offset="0.99" stop-color="#785F25"/>
<stop offset="1" stop-color="#684E18"/>
</linearGradient>
<linearGradient id="paint5_linear_4_3" x1="116.34" y1="76.23" x2="116.34" y2="86.77" gradientUnits="userSpaceOnUse">
<stop stop-color="#F6E594"/>
<stop offset="0.21" stop-color="#F5E492"/>
<stop offset="0.29" stop-color="#F2DE8B"/>
<stop offset="0.34" stop-color="#ECD580"/>
<stop offset="0.39" stop-color="#E4C86F"/>
<stop offset="0.4" stop-color="#E2C46A"/>
<stop offset="0.49" stop-color="#BA9D4E"/>
<stop offset="0.69" stop-color="#6A4E17"/>
<stop offset="0.72" stop-color="#6F531B"/>
<stop offset="0.75" stop-color="#7D6227"/>
<stop offset="0.79" stop-color="#957B3A"/>
<stop offset="0.83" stop-color="#B69D55"/>
<stop offset="0.86" stop-color="#E0C977"/>
<stop offset="0.87" stop-color="#E8D17E"/>
<stop offset="0.9" stop-color="#E5CE7C"/>
<stop offset="0.92" stop-color="#DCC574"/>
<stop offset="0.94" stop-color="#CDB568"/>
<stop offset="0.96" stop-color="#B79F57"/>
<stop offset="0.98" stop-color="#9B8240"/>
<stop offset="0.99" stop-color="#785F25"/>
<stop offset="1" stop-color="#684E18"/>
</linearGradient>
<linearGradient id="paint6_linear_4_3" x1="131.56" y1="100.38" x2="131.56" y2="162.24" gradientUnits="userSpaceOnUse">
<stop stop-color="#F6E594"/>
<stop offset="0.36" stop-color="#F6E492"/>
<stop offset="0.5" stop-color="#F4DF8B"/>
<stop offset="0.59" stop-color="#F2D880"/>
<stop offset="0.66" stop-color="#EFCD6F"/>
<stop offset="0.72" stop-color="#EBC15C"/>
<stop offset="0.77" stop-color="#C89D47"/>
<stop offset="0.88" stop-color="#7A4D18"/>
<stop offset="0.95" stop-color="#C1914C"/>
<stop offset="0.96" stop-color="#BE8F4A"/>
<stop offset="0.97" stop-color="#B58742"/>
<stop offset="0.98" stop-color="#A57B36"/>
<stop offset="0.99" stop-color="#8F6924"/>
<stop offset="1" stop-color="#624600"/>
</linearGradient>
<linearGradient id="paint7_linear_4_3" x1="94.99" y1="100.73" x2="94.99" y2="162.9" gradientUnits="userSpaceOnUse">
<stop stop-color="#F6E594"/>
<stop offset="0.36" stop-color="#F6E492"/>
<stop offset="0.5" stop-color="#F4DF8B"/>
<stop offset="0.59" stop-color="#F2D880"/>
<stop offset="0.66" stop-color="#EFCD6F"/>
<stop offset="0.72" stop-color="#EBC15C"/>
<stop offset="0.77" stop-color="#C89D47"/>
<stop offset="0.88" stop-color="#7A4D18"/>
<stop offset="0.95" stop-color="#C1914C"/>
<stop offset="0.96" stop-color="#BE8F4A"/>
<stop offset="0.97" stop-color="#B58742"/>
<stop offset="0.98" stop-color="#A57B36"/>
<stop offset="0.99" stop-color="#8F6924"/>
<stop offset="1" stop-color="#624600"/>
</linearGradient>
<linearGradient id="paint8_linear_4_3" x1="131.56" y1="99.22" x2="131.56" y2="156.88" gradientUnits="userSpaceOnUse">
<stop stop-color="#F6E594"/>
<stop offset="0.17" stop-color="#F6E492"/>
<stop offset="0.24" stop-color="#F4DF8B"/>
<stop offset="0.28" stop-color="#F2D880"/>
<stop offset="0.32" stop-color="#EFCD6F"/>
<stop offset="0.35" stop-color="#EBC15C"/>
<stop offset="0.4" stop-color="#C89D47"/>
<stop offset="0.54" stop-color="#7A4D18"/>
<stop offset="0.66" stop-color="#B68644"/>
<stop offset="0.77" stop-color="#C1914C"/>
<stop offset="0.8" stop-color="#C3944E"/>
<stop offset="0.82" stop-color="#C99D56"/>
<stop offset="0.84" stop-color="#D3AD63"/>
<stop offset="0.86" stop-color="#E2C375"/>
<stop offset="0.88" stop-color="#F5E08C"/>
</linearGradient>
<linearGradient id="paint9_linear_4_3" x1="131.56" y1="103.38" x2="131.56" y2="142.33" gradientUnits="userSpaceOnUse">
<stop stop-color="#FFF7AB"/>
<stop offset="0.41" stop-color="#F6E594"/>
<stop offset="0.57" stop-color="#F6E492"/>
<stop offset="0.62" stop-color="#F4DF8B"/>
<stop offset="0.66" stop-color="#F2D880"/>
<stop offset="0.7" stop-color="#EFCD6F"/>
<stop offset="0.72" stop-color="#EBC15C"/>
<stop offset="0.77" stop-color="#C89D47"/>
<stop offset="0.88" stop-color="#7A4D18"/>
<stop offset="0.91" stop-color="#C1914C"/>
<stop offset="0.92" stop-color="#BE8E4A"/>
<stop offset="0.94" stop-color="#B58643"/>
<stop offset="0.95" stop-color="#A57838"/>
<stop offset="0.96" stop-color="#724A14"/>
<stop offset="0.97" stop-color="#553000"/>
</linearGradient>
<linearGradient id="paint10_linear_4_3" x1="94.99" y1="103.73" x2="94.99" y2="157.64" gradientUnits="userSpaceOnUse">
<stop stop-color="#F6E594"/>
<stop offset="0.17" stop-color="#F6E492"/>
<stop offset="0.24" stop-color="#F4DF8B"/>
<stop offset="0.28" stop-color="#F2D880"/>
<stop offset="0.32" stop-color="#EFCD6F"/>
<stop offset="0.35" stop-color="#EBC15C"/>
<stop offset="0.4" stop-color="#C89D47"/>
<stop offset="0.54" stop-color="#7A4D18"/>
<stop offset="0.66" stop-color="#B68644"/>
<stop offset="0.77" stop-color="#C1914C"/>
<stop offset="0.8" stop-color="#C3944E"/>
<stop offset="0.82" stop-color="#C99D56"/>
<stop offset="0.84" stop-color="#D3AD63"/>
<stop offset="0.86" stop-color="#E2C375"/>
<stop offset="0.88" stop-color="#F5E08C"/>
</linearGradient>
<linearGradient id="paint11_linear_4_3" x1="94.99" y1="103.73" x2="94.99" y2="142.91" gradientUnits="userSpaceOnUse">
<stop stop-color="#FFF7AB"/>
<stop offset="0.41" stop-color="#F6E594"/>
<stop offset="0.57" stop-color="#F6E492"/>
<stop offset="0.62" stop-color="#F4DF8B"/>
<stop offset="0.66" stop-color="#F2D880"/>
<stop offset="0.7" stop-color="#EFCD6F"/>
<stop offset="0.72" stop-color="#EBC15C"/>
<stop offset="0.77" stop-color="#C89D47"/>
<stop offset="0.88" stop-color="#7A4D18"/>
<stop offset="0.91" stop-color="#C1914C"/>
<stop offset="0.92" stop-color="#BE8E4A"/>
<stop offset="0.94" stop-color="#B58643"/>
<stop offset="0.95" stop-color="#A57838"/>
<stop offset="0.96" stop-color="#724A14"/>
<stop offset="0.97" stop-color="#553000"/>
</linearGradient>
</defs>
</svg>
