<svg width="233" height="232" viewBox="0 0 233 232" fill="none" xmlns="http://www.w3.org/2000/svg">
<mask id="mask0_4_179" style="mask-type:luminance" maskUnits="userSpaceOnUse" x="0" y="0" width="233" height="232">
<path d="M232.57 0H0V231.49H232.57V0Z" fill="white"/>
</mask>
<g mask="url(#mask0_4_179)">
<path d="M115.37 24.78L145.65 86.13L213.35 95.97L164.36 143.72L175.92 211.15L115.37 179.31L54.82 211.15L66.38 143.72L17.39 95.97L85.09 86.13L115.37 24.78Z" fill="black"/>
<mask id="mask1_4_179" style="mask-type:luminance" maskUnits="userSpaceOnUse" x="18" y="24" width="197" height="188">
<path d="M116.37 24.78L146.65 86.13L214.35 95.97L165.36 143.72L176.92 211.15L116.37 179.31L55.82 211.15L67.38 143.72L18.39 95.97L86.09 86.13L116.37 24.78Z" fill="white"/>
</mask>
<g mask="url(#mask1_4_179)">
<path d="M115.69 264.47V126.05L72.92 257.7L71.82 257.34L114.6 125.69L33.23 237.68L32.3 237L113.67 125.02L1.67998 206.38L0.999981 205.45L112.99 124.08L-18.66 166.86L-19.02 165.77L112.64 122.99H-25.79V121.84H112.64L-19.02 79.06L-18.66 77.97L112.99 120.75L0.999981 39.38L1.67998 38.45L113.67 119.82L32.3 7.82998L33.23 7.14998L114.6 119.14L71.82 -12.51L72.92 -12.86L115.69 118.79V-19.64H116.84V118.79L159.62 -12.86L160.71 -12.51L117.94 119.14L199.3 7.14998L200.23 7.82998L118.87 119.82L230.85 38.45L231.53 39.38L119.54 120.75L251.19 77.97L251.55 79.06L119.9 121.84H258.32V122.99H119.9L251.55 165.77L251.19 166.86L119.54 124.08L231.53 205.45L230.85 206.38L118.87 125.02L200.23 237L199.3 237.68L117.94 125.69L160.71 257.34L159.62 257.7L116.84 126.05V264.47H115.69Z" fill="url(#paint0_linear_4_179)"/>
<path d="M258.12 122.04H118.63L251.3 78.94L251.06 78.22L118.4 121.33L231.25 39.34L230.81 38.73L117.96 120.72L199.95 7.87L199.34 7.43L117.36 120.28L160.46 -12.38L159.75 -12.61L116.64 120.05V-19.44H115.89V120.05L72.79 -12.61L72.07 -12.38L115.18 120.28L33.19 7.43L32.58 7.87L114.57 120.72L1.71999 38.73L1.27999 39.34L114.13 121.33L-18.53 78.22L-18.76 78.94L113.9 122.04H-25.59V122.79H113.9L-18.76 165.9L-18.53 166.61L114.13 123.5L1.27999 205.49L1.71999 206.1L114.57 124.11L32.58 236.96L33.19 237.4L115.18 124.55L72.07 257.21L72.79 257.44L115.89 124.78V264.27H116.64V124.78L159.75 257.44L160.46 257.21L117.36 124.55L199.34 237.4L199.95 236.96L117.96 124.11L230.81 206.1L231.25 205.49L118.4 123.5L251.06 166.61L251.3 165.9L118.63 122.79H258.12V122.04Z" fill="url(#paint1_linear_4_179)"/>
</g>
<path d="M185.47 225.46L117.18 187.89C116.884 187.727 116.552 187.642 116.215 187.642C115.878 187.642 115.546 187.727 115.25 187.89L47 225.45C46.6758 225.642 46.304 225.739 45.9273 225.729C45.5507 225.719 45.1845 225.603 44.871 225.394C44.5575 225.185 44.3094 224.891 44.1553 224.547C44.0012 224.203 43.9474 223.823 44 223.45L55.16 148.45C55.2051 148.143 55.178 147.829 55.0808 147.534C54.9836 147.239 54.819 146.97 54.6 146.75L1.47998 93.54C1.22288 93.2856 1.03956 92.9663 0.949542 92.6161C0.859522 92.2658 0.866168 91.8976 0.968772 91.5508C1.07137 91.204 1.26609 90.8915 1.53221 90.6466C1.79832 90.4017 2.12587 90.2335 2.47998 90.16L75.48 75.39C75.7641 75.3312 76.032 75.2113 76.2651 75.0386C76.4982 74.866 76.691 74.6446 76.83 74.39L114.55 6.8C114.721 6.48249 114.975 6.21726 115.285 6.0324C115.595 5.84754 115.949 5.74994 116.31 5.74994C116.671 5.74994 117.025 5.84754 117.335 6.0324C117.645 6.21726 117.899 6.48249 118.07 6.8L154.65 75.28C154.794 75.5404 154.995 75.7652 155.237 75.9382C155.479 76.1112 155.757 76.228 156.05 76.28L230 90C230.36 90.0652 230.696 90.228 230.97 90.4707C231.244 90.7134 231.446 91.0266 231.554 91.3763C231.662 91.7259 231.673 92.0986 231.584 92.4537C231.495 92.8087 231.31 93.1326 231.05 93.39L177.55 146.61C177.328 146.833 177.162 147.104 177.064 147.403C176.967 147.702 176.942 148.019 176.99 148.33L188.37 223.33C188.438 223.699 188.4 224.08 188.262 224.429C188.123 224.778 187.889 225.081 187.587 225.303C187.284 225.525 186.925 225.658 186.551 225.685C186.177 225.713 185.802 225.635 185.47 225.46ZM27.81 101.46L68.46 142.08C68.6784 142.304 68.841 142.577 68.9348 142.876C69.0286 143.174 69.0509 143.491 69 143.8L60.74 199.36C60.6954 199.725 60.7521 200.094 60.9039 200.429C61.0557 200.763 61.2966 201.05 61.6003 201.256C61.904 201.463 62.2587 201.582 62.6256 201.6C62.9924 201.618 63.3572 201.535 63.68 201.36L115.23 173C115.526 172.837 115.858 172.752 116.195 172.752C116.532 172.752 116.864 172.837 117.16 173L168.65 201.33C168.973 201.505 169.338 201.588 169.704 201.57C170.071 201.552 170.426 201.433 170.73 201.226C171.033 201.02 171.274 200.733 171.426 200.399C171.578 200.064 171.635 199.695 171.59 199.33L163.17 143.8C163.123 143.491 163.15 143.175 163.247 142.878C163.344 142.582 163.51 142.311 163.73 142.09L204.33 101.69C204.587 101.436 204.77 101.116 204.86 100.766C204.95 100.416 204.944 100.048 204.841 99.7008C204.739 99.354 204.544 99.0415 204.278 98.7966C204.012 98.5517 203.684 98.3835 203.33 98.31L147.53 88C147.237 87.948 146.959 87.8312 146.717 87.6582C146.475 87.4852 146.274 87.2604 146.13 87L117.81 34C117.638 33.685 117.384 33.4221 117.075 33.2389C116.766 33.0558 116.414 32.9592 116.055 32.9592C115.696 32.9592 115.344 33.0558 115.035 33.2389C114.726 33.4221 114.472 33.685 114.3 34L85.3 86C85.161 86.2546 84.9682 86.476 84.7351 86.6486C84.502 86.8213 84.2341 86.9412 83.95 87L28.83 98.1C28.4763 98.1719 28.1486 98.3382 27.8817 98.5813C27.6148 98.8243 27.4187 99.1351 27.3141 99.4806C27.2095 99.826 27.2004 100.193 27.2877 100.544C27.375 100.894 27.5555 101.214 27.81 101.47V101.46Z" fill="url(#paint2_linear_4_179)"/>
<mask id="mask2_4_179" style="mask-type:luminance" maskUnits="userSpaceOnUse" x="0" y="5" width="232" height="221">
<path d="M185.47 225.46L117.18 187.89C116.884 187.727 116.552 187.642 116.215 187.642C115.878 187.642 115.546 187.727 115.25 187.89L47 225.45C46.6758 225.642 46.304 225.739 45.9273 225.729C45.5507 225.719 45.1845 225.603 44.871 225.394C44.5575 225.185 44.3094 224.891 44.1553 224.547C44.0012 224.203 43.9474 223.823 44 223.45L55.16 148.45C55.2051 148.143 55.178 147.829 55.0808 147.534C54.9836 147.239 54.819 146.97 54.6 146.75L1.47998 93.54C1.22288 93.2856 1.03956 92.9663 0.949542 92.6161C0.859522 92.2658 0.866168 91.8976 0.968772 91.5508C1.07137 91.204 1.26609 90.8915 1.53221 90.6466C1.79832 90.4017 2.12587 90.2335 2.47998 90.16L75.48 75.39C75.7641 75.3312 76.032 75.2113 76.2651 75.0386C76.4982 74.866 76.691 74.6446 76.83 74.39L114.55 6.8C114.721 6.48249 114.975 6.21726 115.285 6.0324C115.595 5.84754 115.949 5.74994 116.31 5.74994C116.671 5.74994 117.025 5.84754 117.335 6.0324C117.645 6.21726 117.899 6.48249 118.07 6.8L154.65 75.28C154.794 75.5404 154.995 75.7652 155.237 75.9382C155.479 76.1112 155.757 76.228 156.05 76.28L230 90C230.36 90.0652 230.696 90.228 230.97 90.4707C231.244 90.7134 231.446 91.0266 231.554 91.3763C231.662 91.7259 231.673 92.0986 231.584 92.4537C231.495 92.8087 231.31 93.1326 231.05 93.39L177.55 146.61C177.328 146.833 177.162 147.104 177.064 147.403C176.967 147.702 176.942 148.019 176.99 148.33L188.37 223.33C188.438 223.699 188.4 224.08 188.262 224.429C188.123 224.778 187.889 225.081 187.587 225.303C187.284 225.525 186.925 225.658 186.551 225.685C186.177 225.713 185.802 225.635 185.47 225.46ZM27.81 101.46L68.46 142.08C68.6784 142.304 68.841 142.577 68.9348 142.876C69.0286 143.174 69.0509 143.491 69 143.8L60.74 199.36C60.6954 199.725 60.7521 200.094 60.9039 200.429C61.0557 200.763 61.2966 201.05 61.6003 201.256C61.904 201.463 62.2587 201.582 62.6256 201.6C62.9924 201.618 63.3572 201.535 63.68 201.36L115.23 173C115.526 172.837 115.858 172.752 116.195 172.752C116.532 172.752 116.864 172.837 117.16 173L168.65 201.33C168.973 201.505 169.338 201.588 169.704 201.57C170.071 201.552 170.426 201.433 170.73 201.226C171.033 201.02 171.274 200.733 171.426 200.399C171.578 200.064 171.635 199.695 171.59 199.33L163.17 143.8C163.123 143.491 163.15 143.175 163.247 142.878C163.344 142.582 163.51 142.311 163.73 142.09L204.33 101.69C204.587 101.436 204.77 101.116 204.86 100.766C204.95 100.416 204.944 100.048 204.841 99.7008C204.739 99.354 204.544 99.0415 204.278 98.7966C204.012 98.5517 203.684 98.3835 203.33 98.31L147.53 88C147.237 87.948 146.959 87.8312 146.717 87.6582C146.475 87.4852 146.274 87.2604 146.13 87L117.81 34C117.638 33.685 117.384 33.4221 117.075 33.2389C116.766 33.0558 116.414 32.9592 116.055 32.9592C115.696 32.9592 115.344 33.0558 115.035 33.2389C114.726 33.4221 114.472 33.685 114.3 34L85.3 86C85.161 86.2546 84.9682 86.476 84.7351 86.6486C84.502 86.8213 84.2341 86.9412 83.95 87L28.83 98.1C28.4763 98.1719 28.1486 98.3382 27.8817 98.5813C27.6148 98.8243 27.4187 99.1351 27.3141 99.4806C27.2095 99.826 27.2004 100.193 27.2877 100.544C27.375 100.894 27.5555 101.214 27.81 101.47V101.46Z" fill="white"/>
</mask>
<g mask="url(#mask2_4_179)">
<path d="M116.64 -19.26H115.89V264.45H116.64V-19.26Z" fill="#C89E3F"/>
<path d="M109.212 -19.0881L108.463 -19.0488L123.311 264.272L124.06 264.233L109.212 -19.0881Z" fill="#C89E3F"/>
<path d="M101.808 -18.5267L101.062 -18.4483L130.718 263.708L131.464 263.629L101.808 -18.5267Z" fill="#C89E3F"/>
<path d="M94.441 -17.5694L93.7003 -17.4521L138.082 262.765L138.823 262.648L94.441 -17.5694Z" fill="#C89E3F"/>
<path d="M87.1367 -16.2399L86.4031 -16.084L145.39 261.426L146.123 261.27L87.1367 -16.2399Z" fill="#C89E3F"/>
<path d="M79.9107 -14.5224L79.1863 -14.3283L152.616 259.715L153.34 259.52L79.9107 -14.5224Z" fill="#C89E3F"/>
<path d="M72.7896 -12.4311L72.0763 -12.1993L159.748 257.625L160.461 257.393L72.7896 -12.4311Z" fill="#C89E3F"/>
<path d="M65.7806 -9.97083L65.0804 -9.70205L166.753 255.164L167.453 254.895L65.7806 -9.97083Z" fill="#C89E3F"/>
<path d="M58.9122 -7.14667L58.2271 -6.84161L173.622 252.34L174.307 252.035L58.9122 -7.14667Z" fill="#C89E3F"/>
<path d="M52.1932 -3.96423L51.5249 -3.62373L180.327 249.164L180.995 248.823L52.1932 -3.96423Z" fill="#C89E3F"/>
<path d="M46.1267 -0.516174L45.4742 -0.141174L187.329 246.687L187.982 246.312L46.1267 -0.516174Z" fill="#C89E3F"/>
<path d="M39.3228 3.42053L38.6938 3.829L193.213 241.768L193.842 241.36L39.3228 3.42053Z" fill="#C89E3F"/>
<path d="M33.183 7.60907L32.5762 8.04991L199.337 237.576L199.944 237.135L33.183 7.60907Z" fill="#C89E3F"/>
<path d="M27.2856 12.1183L26.7027 12.5902L205.247 233.074L205.83 232.602L27.2856 12.1183Z" fill="#C89E3F"/>
<path d="M21.623 16.9296L21.0656 17.4315L210.905 228.269L211.462 227.767L21.623 16.9296Z" fill="#C89E3F"/>
<path d="M16.2181 22.0242L15.6877 22.5545L216.301 223.168L216.831 222.637L16.2181 22.0242Z" fill="#C89E3F"/>
<path d="M11.0944 27.4021L10.5926 27.9595L221.43 217.799L221.932 217.241L11.0944 27.4021Z" fill="#C89E3F"/>
<path d="M6.25611 33.033L5.78412 33.6159L226.268 212.16L226.74 211.577L6.25611 33.033Z" fill="#C89E3F"/>
<path d="M1.71757 38.9155L1.27673 39.5223L230.803 206.283L231.244 205.676L1.71757 38.9155Z" fill="#C89E3F"/>
<path d="M-2.50613 45.0277L-2.91461 45.6567L235.025 200.176L235.433 199.547L-2.50613 45.0277Z" fill="#C89E3F"/>
<path d="M-6.39966 51.3468L-6.77466 51.9963L238.925 193.851L239.3 193.202L-6.39966 51.3468Z" fill="#C89E3F"/>
<path d="M-9.95738 57.8591L-10.2979 58.5274L242.49 187.329L242.83 186.661L-9.95738 57.8591Z" fill="#C89E3F"/>
<path d="M-13.1731 64.5603L-13.4782 65.2455L245.704 180.641L246.009 179.956L-13.1731 64.5603Z" fill="#C89E3F"/>
<path d="M-16.0307 71.415L-16.2995 72.1152L248.567 173.788L248.835 173.088L-16.0307 71.415Z" fill="#C89E3F"/>
<path d="M251.06 166.79L-18.76 79.12L-18.53 78.41L251.3 166.08L251.06 166.79Z" fill="#C89E3F"/>
<path d="M253.19 159.68L-20.85 86.25L-20.66 85.52L253.39 158.95L253.19 159.68Z" fill="#C89E3F"/>
<path d="M-22.4183 92.7345L-22.5742 93.4681L254.936 152.455L255.092 151.721L-22.4183 92.7345Z" fill="#C89E3F"/>
<path d="M-23.7864 100.033L-23.9037 100.774L256.313 145.156L256.431 144.415L-23.7864 100.033Z" fill="#C89E3F"/>
<path d="M-24.7723 107.396L-24.8507 108.142L257.305 137.797L257.384 137.052L-24.7723 107.396Z" fill="#C89E3F"/>
<path d="M-25.3792 114.802L-25.4185 115.551L257.903 130.399L257.942 129.65L-25.3792 114.802Z" fill="#C89E3F"/>
<path d="M258.12 122.22H-25.59V122.97H258.12V122.22Z" fill="#C89E3F"/>
<path d="M257.914 114.81L-25.41 129.608L-25.3708 130.357L257.953 115.559L257.914 114.81Z" fill="#C89E3F"/>
<path d="M257.308 107.444L-24.8577 137.001L-24.7796 137.747L257.387 108.19L257.308 107.444Z" fill="#C89E3F"/>
<path d="M256.313 100.092L-23.9191 144.376L-23.802 145.117L256.431 100.833L256.313 100.092Z" fill="#C89E3F"/>
<path d="M254.935 92.6575L-22.5444 151.789L-22.3881 152.523L255.091 93.3911L254.935 92.6575Z" fill="#C89E3F"/>
<path d="M-20.66 159.68L-20.85 158.95L253.19 85.52L253.39 86.25L-20.66 159.68Z" fill="#C89E3F"/>
<path d="M-18.53 166.79L-18.76 166.08L251.06 78.41L251.3 79.12L-18.53 166.79Z" fill="#C89E3F"/>
<path d="M248.514 71.3017L-16.263 173.205L-15.9936 173.905L248.784 72.0017L248.514 71.3017Z" fill="#C89E3F"/>
<path d="M245.741 64.656L-13.5215 179.87L-13.2169 180.556L246.046 65.3414L245.741 64.656Z" fill="#C89E3F"/>
<path d="M242.528 57.9143L-10.3272 186.584L-9.98711 187.252L242.868 58.5827L242.528 57.9143Z" fill="#C89E3F"/>
<path d="M238.918 51.3556L-6.78162 193.211L-6.40662 193.86L239.293 52.0052L238.918 51.3556Z" fill="#C89E3F"/>
<path d="M235.05 45.0295L-2.91614 199.508L-2.50777 200.137L235.458 45.6586L235.05 45.0295Z" fill="#C89E3F"/>
<path d="M230.736 38.814L1.35571 205.775L1.79708 206.381L231.178 39.4204L230.736 38.814Z" fill="#C89E3F"/>
<path d="M226.217 32.9873L5.82654 211.647L6.29883 212.23L226.689 33.5699L226.217 32.9873Z" fill="#C89E3F"/>
<path d="M221.446 27.4289L10.5752 217.231L11.077 217.789L221.948 27.9864L221.446 27.4289Z" fill="#C89E3F"/>
<path d="M216.217 21.9495L15.7789 222.738L16.3097 223.268L216.748 22.4794L216.217 21.9495Z" fill="#C89E3F"/>
<path d="M210.98 16.9846L20.9937 227.69L21.5507 228.192L211.537 17.4869L210.98 16.9846Z" fill="#C89E3F"/>
<path d="M205.286 12.1485L26.6647 232.57L27.2474 233.042L205.869 12.6207L205.286 12.1485Z" fill="#C89E3F"/>
<path d="M199.238 7.55707L32.6774 237.229L33.2845 237.669L199.845 7.99738L199.238 7.55707Z" fill="#C89E3F"/>
<path d="M193.188 3.42572L38.7104 241.392L39.3395 241.8L193.817 3.83409L193.188 3.42572Z" fill="#C89E3F"/>
<path d="M186.801 -0.471436L45.0742 245.303L45.7239 245.678L187.45 -0.0967753L186.801 -0.471436Z" fill="#C89E3F"/>
<path d="M180.394 -3.94147L51.4602 248.779L52.1283 249.119L181.062 -3.60063L180.394 -3.94147Z" fill="#C89E3F"/>
<path d="M173.53 -7.19421L58.316 252.068L59.0014 252.373L174.216 -6.88964L173.53 -7.19421Z" fill="#C89E3F"/>
<path d="M166.695 -9.99817L65.1152 254.903L65.8155 255.172L167.396 -9.72964L166.695 -9.99817Z" fill="#C89E3F"/>
<path d="M159.725 -12.4228L72.1012 257.417L72.8146 257.648L160.439 -12.1912L159.725 -12.4228Z" fill="#C89E3F"/>
<path d="M152.64 -14.5196L79.1624 259.51L79.8869 259.705L153.364 -14.3254L152.64 -14.5196Z" fill="#C89E3F"/>
<path d="M145.415 -16.2282L86.3799 261.272L87.1135 261.428L146.149 -16.0722L145.415 -16.2282Z" fill="#C89E3F"/>
<path d="M139.297 -17.7236L93.9034 263.149L94.6459 263.269L140.04 -17.6036L139.297 -17.7236Z" fill="#C89E3F"/>
<path d="M130.676 -18.5223L101.119 263.644L101.865 263.722L131.422 -18.4442L130.676 -18.5223Z" fill="#C89E3F"/>
<path d="M123.288 -19.0834L108.489 264.24L109.238 264.279L124.037 -19.0443L123.288 -19.0834Z" fill="#C89E3F"/>
</g>
<path d="M116.3 6.76998C116.481 6.77047 116.658 6.82001 116.813 6.91335C116.968 7.00668 117.095 7.1403 117.18 7.29998L153.76 75.78C153.972 76.178 154.271 76.5231 154.634 76.7897C154.998 77.0564 155.417 77.2376 155.86 77.32L229.86 91.03C230.038 91.0631 230.203 91.1438 230.339 91.2636C230.475 91.3833 230.575 91.5376 230.63 91.71C230.683 91.8837 230.688 92.0685 230.644 92.2447C230.6 92.4209 230.509 92.5817 230.38 92.71L176.89 145.93C176.555 146.263 176.304 146.67 176.156 147.118C176.009 147.567 175.969 148.043 176.04 148.51L187.42 223.51C187.443 223.651 187.435 223.796 187.397 223.934C187.359 224.072 187.292 224.2 187.2 224.31C187.105 224.421 186.987 224.51 186.854 224.57C186.721 224.631 186.576 224.661 186.43 224.66C186.263 224.658 186.098 224.617 185.95 224.54L117.66 187C117.217 186.757 116.72 186.629 116.215 186.629C115.71 186.629 115.213 186.757 114.77 187L46.51 224.57C46.3605 224.655 46.1918 224.699 46.02 224.7C45.8748 224.699 45.7316 224.666 45.6003 224.604C45.4691 224.542 45.3529 224.452 45.26 224.34C45.1678 224.232 45.0996 224.106 45.06 223.97C45.0203 223.834 45.0101 223.69 45.03 223.55L56.19 148.55C56.258 148.087 56.2166 147.614 56.069 147.169C55.9213 146.725 55.6717 146.321 55.34 145.99L2.18997 92.83C2.0597 92.7028 1.96663 92.5424 1.92081 92.3662C1.87499 92.1899 1.87816 92.0046 1.92997 91.83C1.98092 91.6552 2.07863 91.4976 2.21256 91.3742C2.34649 91.2509 2.51157 91.1664 2.68997 91.13L75.69 76.36C76.1098 76.2707 76.5056 76.0924 76.8507 75.8371C77.1957 75.5818 77.4819 75.2554 77.69 74.88L115.43 7.27998C115.517 7.12552 115.643 6.9969 115.796 6.90728C115.949 6.81767 116.123 6.77029 116.3 6.76998ZM62.74 202.66C63.2468 202.661 63.7457 202.534 64.19 202.29L115.73 173.93C115.882 173.842 116.054 173.796 116.23 173.796C116.406 173.796 116.578 173.842 116.73 173.93L168.22 202.26C168.661 202.502 169.157 202.629 169.66 202.63C170.089 202.636 170.515 202.55 170.909 202.378C171.302 202.205 171.654 201.95 171.94 201.63C172.221 201.303 172.428 200.919 172.547 200.505C172.666 200.091 172.694 199.656 172.63 199.23L164.2 143.7C164.177 143.544 164.191 143.385 164.242 143.235C164.292 143.086 164.377 142.95 164.49 142.84L205.08 102.45C205.466 102.064 205.74 101.579 205.871 101.049C206.002 100.519 205.986 99.9632 205.824 99.4414C205.663 98.9197 205.362 98.452 204.954 98.0887C204.546 97.7255 204.047 97.4804 203.51 97.38L147.71 87C147.562 86.9718 147.422 86.9104 147.3 86.8203C147.179 86.7303 147.08 86.6139 147.01 86.48L118.7 33.48C118.444 32.9995 118.062 32.5976 117.595 32.3175C117.129 32.0374 116.594 31.8896 116.05 31.89C115.516 31.8901 114.991 32.0329 114.531 32.3037C114.07 32.5744 113.69 32.9633 113.43 33.43L84.38 85.43C84.3099 85.5549 84.2138 85.6633 84.0982 85.7478C83.9827 85.8323 83.8503 85.8911 83.71 85.92L28.63 97.12C28.0984 97.2273 27.6058 97.4766 27.2046 97.8416C26.8035 98.2065 26.5087 98.6733 26.3518 99.1924C26.1948 99.7115 26.1815 100.263 26.3133 100.79C26.445 101.316 26.7169 101.796 27.1 102.18L67.75 142.8C67.8595 142.91 67.9418 143.044 67.9904 143.192C68.039 143.339 68.0526 143.496 68.03 143.65L59.77 199.22C59.7074 199.645 59.7366 200.078 59.8556 200.49C59.9746 200.902 60.1807 201.284 60.46 201.61C60.7463 201.93 61.098 202.185 61.4914 202.358C61.8847 202.53 62.3105 202.616 62.74 202.61M116.3 5.76998C115.946 5.76681 115.597 5.85772 115.29 6.03342C114.982 6.20911 114.727 6.46329 114.55 6.76998L76.82 74.4C76.681 74.6546 76.4882 74.8759 76.2551 75.0486C76.022 75.2213 75.7541 75.3412 75.47 75.4L2.46997 90.17C2.11586 90.2435 1.78832 90.4117 1.5222 90.6566C1.25609 90.9015 1.06137 91.214 0.958762 91.5608C0.856158 91.9076 0.849512 92.2758 0.939533 92.626C1.02955 92.9763 1.21287 93.2956 1.46997 93.55L54.63 146.66C54.8504 146.881 55.0159 147.152 55.1132 147.448C55.2104 147.745 55.2367 148.061 55.19 148.37L44 223.4C43.9565 223.687 43.9758 223.979 44.0567 224.258C44.1375 224.536 44.2779 224.794 44.4681 225.012C44.6584 225.231 44.8939 225.406 45.1584 225.525C45.4229 225.643 45.7101 225.703 46 225.7C46.3491 225.703 46.6932 225.617 47 225.45L115.26 187.89C115.556 187.727 115.888 187.642 116.225 187.642C116.562 187.642 116.894 187.727 117.19 187.89L185.48 225.46C185.784 225.633 186.13 225.72 186.48 225.71C186.77 225.713 187.057 225.654 187.322 225.535C187.586 225.416 187.822 225.241 188.012 225.022C188.202 224.804 188.343 224.546 188.423 224.268C188.504 223.989 188.524 223.697 188.48 223.41L177.1 148.41C177.052 148.099 177.077 147.782 177.174 147.483C177.272 147.184 177.438 146.913 177.66 146.69L231.16 93.47C231.447 93.209 231.651 92.8704 231.749 92.4953C231.847 92.1202 231.833 91.7248 231.71 91.3572C231.587 90.9896 231.36 90.6656 231.057 90.4246C230.753 90.1837 230.386 90.0362 230 90L156 76.3C155.707 76.248 155.429 76.1312 155.187 75.9582C154.945 75.7852 154.744 75.5604 154.6 75.3L118.07 6.82998C117.899 6.50913 117.644 6.2409 117.332 6.05414C117.02 5.86737 116.664 5.76914 116.3 5.76998ZM62.74 201.66C62.4501 201.663 62.1629 201.604 61.8984 201.485C61.6339 201.366 61.3984 201.191 61.2081 200.972C61.0179 200.754 60.8775 200.496 60.7967 200.218C60.7158 199.939 60.6965 199.647 60.74 199.36L69 143.8C69.0467 143.491 69.0204 143.175 68.9232 142.878C68.8259 142.582 68.6604 142.311 68.44 142.09L27.81 101.47C27.5556 101.215 27.3746 100.897 27.2862 100.548C27.1978 100.199 27.2052 99.8326 27.3076 99.4875C27.4099 99.1424 27.6036 98.8314 27.868 98.5872C28.1324 98.343 28.4579 98.1747 28.81 98.1L83.9 86.94C84.1841 86.8812 84.452 86.7613 84.6851 86.5886C84.9182 86.4159 85.111 86.1946 85.25 85.94L114.3 33.94C114.472 33.625 114.726 33.3621 115.035 33.1789C115.344 32.9958 115.696 32.8991 116.055 32.8991C116.414 32.8991 116.766 32.9958 117.075 33.1789C117.384 33.3621 117.638 33.625 117.81 33.94L146.13 86.94C146.274 87.2003 146.475 87.4252 146.717 87.5982C146.959 87.7712 147.237 87.888 147.53 87.94L203.3 98.31C203.654 98.3835 203.982 98.5517 204.248 98.7966C204.514 99.0415 204.709 99.354 204.811 99.7008C204.914 100.048 204.92 100.416 204.83 100.766C204.74 101.116 204.557 101.436 204.3 101.69L163.7 142.09C163.48 142.311 163.314 142.582 163.217 142.878C163.12 143.175 163.093 143.491 163.14 143.8L171.56 199.33C171.605 199.695 171.548 200.064 171.396 200.399C171.244 200.733 171.003 201.02 170.7 201.226C170.396 201.433 170.041 201.552 169.674 201.57C169.308 201.588 168.943 201.505 168.62 201.33L117.13 173C116.834 172.837 116.502 172.752 116.165 172.752C115.828 172.752 115.496 172.837 115.2 173L63.7 201.41C63.3942 201.579 63.0495 201.665 62.7 201.66H62.74Z" fill="url(#paint3_linear_4_179)"/>
<path d="M116.21 165.99C118.844 165.99 120.98 163.854 120.98 161.22C120.98 158.586 118.844 156.45 116.21 156.45C113.576 156.45 111.44 158.586 111.44 161.22C111.44 163.854 113.576 165.99 116.21 165.99Z" fill="black" stroke="url(#paint4_linear_4_179)" stroke-miterlimit="10"/>
<path d="M116.34 86.27C118.974 86.27 121.11 84.1344 121.11 81.5C121.11 78.8656 118.974 76.73 116.34 76.73C113.706 76.73 111.57 78.8656 111.57 81.5C111.57 84.1344 113.706 86.27 116.34 86.27Z" fill="black" stroke="url(#paint5_linear_4_179)" stroke-miterlimit="10"/>
<path d="M132.07 143.34C130.903 143.329 129.787 142.858 128.967 142.028C128.146 141.198 127.687 140.077 127.69 138.91V107.41C127.687 106.243 128.146 105.122 128.967 104.292C129.787 103.462 130.903 102.991 132.07 102.98H137.76C138.927 102.991 140.043 103.462 140.863 104.292C141.684 105.122 142.143 106.243 142.14 107.41V107.76L143.62 105.19C143.999 104.522 144.546 103.965 145.208 103.576C145.87 103.186 146.622 102.977 147.39 102.97H154C155.17 102.975 156.29 103.443 157.116 104.271C157.942 105.099 158.407 106.22 158.41 107.39C158.407 108.238 158.168 109.069 157.72 109.79L150.22 121.73L159.35 136.56C159.949 137.547 160.146 138.726 159.901 139.854C159.655 140.982 158.985 141.972 158.03 142.62C157.325 143.09 156.497 143.34 155.65 143.34H149.01C148.249 143.339 147.502 143.14 146.841 142.763C146.18 142.387 145.628 141.844 145.24 141.19L142.14 135.98V138.91C142.143 140.077 141.684 141.198 140.863 142.028C140.043 142.858 138.927 143.329 137.76 143.34H132.07Z" fill="url(#paint6_linear_4_179)"/>
<path d="M154 105.94C154.373 105.948 154.728 106.102 154.988 106.37C155.248 106.638 155.393 106.997 155.39 107.37C155.39 107.65 155.31 107.924 155.16 108.16L146.68 121.66L146.74 121.78C146.763 121.832 146.789 121.882 146.82 121.93L156.82 138.11C157.023 138.433 157.093 138.822 157.014 139.195C156.936 139.568 156.716 139.896 156.4 140.11C156.179 140.252 155.922 140.328 155.66 140.33H149.02C148.783 140.329 148.55 140.265 148.344 140.146C148.139 140.027 147.969 139.856 147.85 139.65L140 126.47L139.55 125.73C139.3 126.003 139.161 126.36 139.16 126.73V138.91C139.165 139.282 139.023 139.642 138.765 139.909C138.506 140.177 138.152 140.332 137.78 140.34H132.09C131.718 140.332 131.364 140.177 131.105 139.909C130.847 139.642 130.705 139.282 130.71 138.91V107.41C130.705 107.038 130.847 106.678 131.105 106.411C131.364 106.143 131.718 105.988 132.09 105.98H137.78C138.152 105.988 138.506 106.143 138.765 106.411C139.023 106.678 139.165 107.038 139.16 107.41V116.1C139.159 116.187 139.174 116.273 139.206 116.353C139.238 116.434 139.286 116.507 139.346 116.57C139.407 116.632 139.479 116.682 139.558 116.716C139.638 116.75 139.723 116.769 139.81 116.77C140.013 116.772 140.214 116.72 140.39 116.618C140.566 116.515 140.711 116.368 140.81 116.19L146.26 106.68C146.378 106.469 146.549 106.293 146.756 106.169C146.963 106.044 147.199 105.976 147.44 105.97H154.06M154.06 99.97H154H147.41C145.646 99.9807 143.946 100.627 142.62 101.79C141.287 100.621 139.573 99.977 137.8 99.98H132.11C130.146 99.9879 128.266 100.775 126.883 102.168C125.499 103.561 124.725 105.446 124.73 107.41V138.91C124.725 140.874 125.499 142.759 126.883 144.152C128.266 145.545 130.146 146.332 132.11 146.34H137.8C138.869 146.34 139.925 146.107 140.894 145.656C141.863 145.205 142.722 144.548 143.41 143.73C144.104 144.543 144.966 145.198 145.935 145.648C146.905 146.098 147.961 146.334 149.03 146.34H155.7C157.124 146.332 158.514 145.908 159.7 145.12C161.313 144.053 162.447 142.398 162.859 140.509C163.272 138.619 162.931 136.643 161.91 135L153.75 121.75L160.26 111.39C160.979 110.266 161.383 108.97 161.429 107.636C161.475 106.303 161.161 104.982 160.521 103.811C159.881 102.64 158.938 101.663 157.791 100.982C156.644 100.301 155.334 99.9412 154 99.94L154.06 99.97Z" fill="black"/>
<path d="M112.89 143.38C110.847 143.405 108.815 143.066 106.89 142.38C105.191 141.758 103.606 140.859 102.2 139.72C100.845 138.612 99.7144 137.254 98.87 135.72C98.4242 134.895 98.0624 134.027 97.79 133.13C97.6122 132.581 97.5446 132.003 97.5909 131.428C97.6372 130.853 97.7967 130.293 98.06 129.78C98.4179 129.072 98.9647 128.477 99.64 128.06C99.1679 127.65 98.7896 127.143 98.5308 126.573C98.272 126.004 98.1387 125.385 98.14 124.76C98.1301 124.614 98.1301 124.466 98.14 124.32L100.05 106.6C100.162 105.522 100.669 104.525 101.475 103.8C102.281 103.076 103.327 102.677 104.41 102.68H122C123.163 102.683 124.279 103.146 125.101 103.969C125.924 104.791 126.387 105.907 126.39 107.07V112C126.389 113.057 126.007 114.078 125.315 114.877C124.623 115.676 123.666 116.199 122.62 116.35C123.301 116.824 123.94 117.356 124.53 117.94C125.886 119.286 126.97 120.882 127.72 122.64C128.488 124.463 128.879 126.422 128.87 128.4C128.883 130.436 128.482 132.454 127.69 134.33C126.917 136.144 125.776 137.778 124.34 139.13C122.864 140.495 121.139 141.564 119.26 142.28C117.223 143.038 115.063 143.411 112.89 143.38ZM110.25 128.18C110.659 128.55 110.997 128.99 111.25 129.48C111.29 129.57 111.337 129.657 111.39 129.74C111.564 129.899 111.759 130.034 111.97 130.14C112.361 130.289 112.785 130.329 113.196 130.257C113.608 130.185 113.993 130.003 114.31 129.73C114.653 129.36 114.844 128.874 114.844 128.37C114.844 127.866 114.653 127.38 114.31 127.01C114.126 126.822 113.905 126.676 113.66 126.581C113.415 126.486 113.152 126.445 112.89 126.46C112.571 126.434 112.25 126.478 111.95 126.59C111.708 126.7 111.48 126.837 111.27 127C111.192 127.087 111.122 127.181 111.06 127.28C110.833 127.616 110.561 127.919 110.25 128.18Z" fill="url(#paint7_linear_4_179)"/>
<path d="M122 105.72C122.369 105.72 122.722 105.866 122.983 106.127C123.244 106.388 123.39 106.741 123.39 107.11V112C123.39 112.369 123.244 112.722 122.983 112.983C122.722 113.244 122.369 113.39 122 113.39H111.12C110.784 113.392 110.46 113.516 110.208 113.738C109.956 113.961 109.794 114.267 109.75 114.6L109.3 118C109.718 117.742 110.16 117.524 110.62 117.35C111.095 117.141 111.587 116.974 112.09 116.85C112.713 116.704 113.351 116.634 113.99 116.64C115.578 116.627 117.152 116.933 118.62 117.54C121.464 118.715 123.733 120.959 124.94 123.79C125.555 125.238 125.865 126.797 125.85 128.37C125.868 130.001 125.548 131.619 124.91 133.12C124.3 134.557 123.398 135.851 122.26 136.92C121.067 138.021 119.671 138.881 118.15 139.45C116.47 140.085 114.686 140.4 112.89 140.38C111.217 140.404 109.554 140.127 107.98 139.56C106.589 139.063 105.291 138.336 104.14 137.41C103.082 136.544 102.194 135.489 101.52 134.3C101.177 133.644 100.895 132.958 100.68 132.25C100.57 131.899 100.602 131.518 100.771 131.19C100.939 130.863 101.23 130.615 101.58 130.5C101.688 130.47 101.798 130.45 101.91 130.44L107.24 130.08H107.33C107.587 130.08 107.838 130.151 108.057 130.285C108.276 130.419 108.454 130.611 108.57 130.84C108.708 131.132 108.879 131.407 109.08 131.66C109.484 132.118 109.969 132.497 110.51 132.78C111.248 133.147 112.066 133.326 112.89 133.3C113.544 133.312 114.193 133.193 114.799 132.949C115.406 132.705 115.957 132.341 116.42 131.88C117.336 130.945 117.849 129.689 117.849 128.38C117.849 127.071 117.336 125.815 116.42 124.88C115.958 124.417 115.408 124.052 114.801 123.808C114.194 123.564 113.544 123.445 112.89 123.46C112.11 123.433 111.334 123.584 110.62 123.9C110.107 124.147 109.627 124.456 109.19 124.82C108.966 125.053 108.765 125.308 108.59 125.58C108.462 125.767 108.291 125.921 108.09 126.027C107.89 126.133 107.667 126.189 107.44 126.19H102.57C102.201 126.19 101.848 126.044 101.587 125.783C101.326 125.522 101.18 125.169 101.18 124.8C101.18 124.8 101.18 124.7 101.18 124.65L103.1 107C103.137 106.66 103.298 106.345 103.553 106.116C103.808 105.887 104.138 105.76 104.48 105.76H122M122 99.76H104.5C102.677 99.7569 100.918 100.428 99.561 101.645C98.2039 102.862 97.3451 104.538 97.15 106.35L95.23 124C95.2151 124.263 95.2151 124.527 95.23 124.79C95.2298 125.823 95.4443 126.844 95.86 127.79C95.73 128 95.6 128.22 95.48 128.45C95.0358 129.312 94.7665 130.253 94.6876 131.219C94.6086 132.185 94.7216 133.158 95.02 134.08C95.3555 135.171 95.7976 136.226 96.34 137.23C97.3594 139.07 98.7164 140.702 100.34 142.04C102.008 143.389 103.886 144.453 105.9 145.19C108.144 145.999 110.515 146.402 112.9 146.38C115.437 146.397 117.956 145.947 120.33 145.05C122.575 144.198 124.634 142.918 126.39 141.28C128.109 139.647 129.472 137.676 130.39 135.49C131.349 133.24 131.836 130.816 131.82 128.37C131.831 125.986 131.358 123.626 130.43 121.43C129.71 119.748 128.735 118.186 127.54 116.8C128.703 115.46 129.342 113.744 129.34 111.97V107.11C129.337 105.159 128.565 103.289 127.19 101.905C125.816 100.521 123.95 99.7358 122 99.72V99.76Z" fill="black"/>
<path d="M85.29 142.6C84.2989 142.597 83.3491 142.202 82.6483 141.502C81.9475 140.801 81.5526 139.851 81.55 138.86V135.59H70.87C69.8781 135.59 68.9268 135.196 68.2254 134.495C67.524 133.793 67.13 132.842 67.13 131.85V126.05C67.1277 125.263 67.3765 124.496 67.84 123.86L81.62 104.73C81.9646 104.256 82.4153 103.868 82.9362 103.599C83.4571 103.33 84.0337 103.187 84.62 103.18H91.25C91.7415 103.177 92.2287 103.272 92.6835 103.458C93.1384 103.644 93.552 103.919 93.9004 104.265C94.2489 104.612 94.5255 105.024 94.7142 105.478C94.9029 105.932 95 106.418 95 106.91V122.77H96.16C97.1511 122.773 98.1008 123.168 98.8017 123.868C99.5025 124.569 99.8974 125.519 99.9 126.51V131.85C99.9 132.842 99.506 133.793 98.8046 134.495C98.1032 135.196 97.1519 135.59 96.16 135.59H95V138.86C95 139.85 94.6073 140.8 93.9081 141.501C93.2089 142.202 92.2602 142.597 91.27 142.6H85.29Z" fill="url(#paint8_linear_4_179)"/>
<path d="M91.28 106.18C91.4736 106.18 91.6593 106.257 91.7962 106.394C91.9331 106.531 92.01 106.716 92.01 106.91V125.77H96.17C96.3663 125.77 96.5545 125.848 96.6933 125.987C96.8321 126.126 96.91 126.314 96.91 126.51V131.85C96.91 132.046 96.8321 132.234 96.6933 132.373C96.5545 132.512 96.3663 132.59 96.17 132.59H92V138.86C92 139.055 91.9234 139.241 91.7868 139.38C91.6502 139.518 91.4645 139.597 91.27 139.6H85.27C85.0738 139.6 84.8855 139.522 84.7468 139.383C84.608 139.244 84.53 139.056 84.53 138.86V132.59H70.87C70.6738 132.59 70.4855 132.512 70.3468 132.373C70.208 132.234 70.13 132.046 70.13 131.85V126.05C70.132 125.896 70.1808 125.746 70.27 125.62L84.05 106.48C84.1199 106.387 84.2105 106.311 84.3146 106.259C84.4187 106.207 84.5336 106.18 84.65 106.18H91.28ZM78.42 125.77H84.55V117.21L78.42 125.77ZM91.28 100.18H84.65C83.583 100.18 82.5312 100.434 81.5818 100.92C80.6323 101.407 79.8125 102.113 79.19 102.98L65.4 122.12C64.5722 123.263 64.1276 124.639 64.13 126.05V131.85C64.13 133.638 64.8401 135.352 66.1041 136.616C67.3681 137.88 69.0825 138.59 70.87 138.59H78.55V138.86C78.5527 140.647 79.2636 142.36 80.527 143.623C81.7905 144.886 83.5033 145.597 85.29 145.6H91.29C93.0716 145.589 94.7767 144.875 96.0336 143.612C97.2906 142.35 97.9974 140.642 98 138.86V138.34C99.4103 137.936 100.651 137.085 101.535 135.914C102.419 134.743 102.898 133.317 102.9 131.85V126.51C102.902 125.04 102.425 123.609 101.541 122.434C100.657 121.259 99.4136 120.405 98 120V106.91C97.9974 105.126 97.2875 103.416 96.0259 102.154C94.7644 100.893 93.0541 100.183 91.27 100.18H91.28Z" fill="black"/>
<path d="M154 105.92C154.185 105.923 154.368 105.962 154.538 106.035C154.708 106.108 154.862 106.214 154.991 106.347C155.12 106.48 155.222 106.637 155.29 106.809C155.359 106.981 155.393 107.165 155.39 107.35C155.39 107.63 155.31 107.904 155.16 108.14L146.68 121.63L146.74 121.76C146.763 121.812 146.789 121.862 146.82 121.91L156.82 138.08C157.023 138.403 157.093 138.792 157.014 139.165C156.936 139.538 156.716 139.866 156.4 140.08C156.182 140.229 155.924 140.309 155.66 140.31H149.02C148.78 140.308 148.545 140.244 148.338 140.123C148.131 140.002 147.959 139.828 147.84 139.62L140 126.45L139.55 125.7C139.302 125.974 139.163 126.33 139.16 126.7V138.88C139.165 139.252 139.023 139.612 138.765 139.879C138.506 140.147 138.152 140.302 137.78 140.31H132.09C131.718 140.302 131.364 140.147 131.105 139.879C130.847 139.612 130.705 139.252 130.71 138.88V107.38C130.705 107.007 130.846 106.646 131.105 106.377C131.363 106.107 131.717 105.95 132.09 105.94H137.78C138.153 105.95 138.507 106.107 138.765 106.377C139.024 106.646 139.165 107.007 139.16 107.38V116.06C139.157 116.148 139.172 116.235 139.203 116.316C139.235 116.398 139.282 116.473 139.343 116.536C139.403 116.599 139.476 116.65 139.556 116.685C139.636 116.72 139.722 116.739 139.81 116.74C140.013 116.742 140.214 116.69 140.39 116.588C140.566 116.485 140.711 116.338 140.81 116.16L146.26 106.64C146.379 106.431 146.55 106.256 146.757 106.133C146.964 106.01 147.199 105.944 147.44 105.94L154 105.92Z" fill="url(#paint9_linear_4_179)"/>
<path d="M154 105.92V106.67C154.174 106.678 154.338 106.753 154.458 106.88C154.577 107.007 154.643 107.176 154.64 107.35C154.639 107.487 154.601 107.622 154.53 107.74L146.05 121.23L145.83 121.58L146 121.95L146.06 122.07L146.18 122.3L156.18 138.48C156.234 138.558 156.272 138.647 156.291 138.74C156.31 138.833 156.31 138.929 156.292 139.022C156.273 139.116 156.236 139.204 156.182 139.283C156.129 139.361 156.06 139.428 155.98 139.48C155.885 139.543 155.774 139.578 155.66 139.58H149.01C148.902 139.577 148.796 139.546 148.703 139.49C148.61 139.434 148.533 139.354 148.48 139.26L140.64 126.07L140.2 125.33L139.69 124.48L139.01 125.2C138.621 125.61 138.406 126.155 138.41 126.72V138.9C138.415 139.073 138.352 139.242 138.234 139.369C138.117 139.496 137.953 139.572 137.78 139.58H132.09C131.917 139.572 131.753 139.496 131.636 139.369C131.518 139.242 131.455 139.073 131.46 138.9V107.4C131.456 107.313 131.469 107.227 131.499 107.145C131.528 107.063 131.573 106.988 131.632 106.924C131.69 106.86 131.761 106.808 131.84 106.772C131.918 106.735 132.003 106.714 132.09 106.71H137.78C137.867 106.714 137.952 106.735 138.03 106.772C138.109 106.808 138.18 106.86 138.238 106.924C138.297 106.988 138.342 107.063 138.371 107.145C138.401 107.227 138.414 107.313 138.41 107.4V116.08C138.407 116.455 138.553 116.816 138.815 117.084C139.078 117.351 139.435 117.505 139.81 117.51C140.146 117.504 140.475 117.409 140.762 117.233C141.048 117.057 141.283 116.807 141.44 116.51L146.89 106.99C146.943 106.896 147.02 106.816 147.113 106.76C147.206 106.704 147.312 106.673 147.42 106.67H154.04V105.92M154.04 105.92H147.42C147.179 105.924 146.944 105.99 146.737 106.113C146.53 106.236 146.359 106.411 146.24 106.62L140.79 116.14C140.691 116.318 140.546 116.465 140.37 116.568C140.194 116.67 139.993 116.722 139.79 116.72C139.702 116.719 139.616 116.7 139.536 116.665C139.456 116.63 139.383 116.579 139.323 116.516C139.262 116.453 139.215 116.378 139.183 116.296C139.152 116.215 139.137 116.128 139.14 116.04V107.36C139.145 106.987 139.004 106.626 138.745 106.357C138.487 106.087 138.133 105.93 137.76 105.92H132.07C131.697 105.93 131.343 106.087 131.085 106.357C130.826 106.626 130.685 106.987 130.69 107.36V138.86C130.685 139.232 130.827 139.592 131.085 139.859C131.344 140.127 131.698 140.282 132.07 140.29H137.76C138.132 140.282 138.486 140.127 138.745 139.859C139.003 139.592 139.145 139.232 139.14 138.86V126.71C139.143 126.34 139.282 125.984 139.53 125.71L139.98 126.46L147.82 139.64C147.937 139.848 148.106 140.022 148.312 140.143C148.517 140.264 148.751 140.329 148.99 140.33H155.63C155.894 140.329 156.152 140.249 156.37 140.1C156.686 139.886 156.906 139.558 156.984 139.185C157.063 138.812 156.993 138.423 156.79 138.1L146.79 121.93C146.759 121.882 146.733 121.832 146.71 121.78L146.65 121.65L155.13 108.16C155.28 107.924 155.36 107.65 155.36 107.37C155.363 106.997 155.218 106.638 154.958 106.37C154.698 106.102 154.343 105.948 153.97 105.94L154.04 105.92Z" fill="url(#paint10_linear_4_179)"/>
<path d="M114 116.61C115.588 116.597 117.162 116.903 118.63 117.51C121.474 118.685 123.743 120.929 124.95 123.76C125.565 125.211 125.874 126.774 125.86 128.35C125.877 129.981 125.557 131.598 124.92 133.1C124.31 134.534 123.408 135.825 122.27 136.89C121.08 137.998 119.683 138.861 118.16 139.43C116.48 140.065 114.696 140.38 112.9 140.36C111.227 140.384 109.564 140.107 107.99 139.54C106.598 139.039 105.3 138.309 104.15 137.38C103.09 136.516 102.201 135.461 101.53 134.27C101.185 133.615 100.904 132.929 100.69 132.22C100.634 132.047 100.613 131.864 100.628 131.683C100.643 131.501 100.694 131.324 100.778 131.163C100.861 131.001 100.976 130.857 101.116 130.74C101.255 130.623 101.416 130.535 101.59 130.48C101.696 130.442 101.807 130.421 101.92 130.42L107.25 130.05C107.522 130.031 107.793 130.093 108.03 130.229C108.267 130.364 108.458 130.566 108.58 130.81C108.718 131.099 108.889 131.371 109.09 131.62C109.49 132.082 109.975 132.463 110.52 132.74C111.482 133.201 112.56 133.361 113.614 133.201C114.668 133.04 115.649 132.566 116.43 131.84C117.346 130.905 117.859 129.649 117.859 128.34C117.859 127.031 117.346 125.775 116.43 124.84C115.968 124.377 115.418 124.012 114.811 123.768C114.204 123.524 113.554 123.405 112.9 123.42C112.121 123.39 111.344 123.537 110.63 123.85C110.115 124.096 109.634 124.409 109.2 124.78C108.974 125.011 108.772 125.266 108.6 125.54C108.472 125.727 108.301 125.881 108.1 125.987C107.9 126.093 107.677 126.149 107.45 126.15H102.58C102.211 126.15 101.858 126.004 101.597 125.743C101.336 125.482 101.19 125.129 101.19 124.76C101.19 124.76 101.19 124.66 101.19 124.61L103.1 106.91C103.137 106.571 103.299 106.257 103.554 106.03C103.809 105.803 104.139 105.678 104.48 105.68H122C122.182 105.679 122.363 105.713 122.531 105.782C122.7 105.851 122.853 105.952 122.982 106.081C123.111 106.209 123.214 106.361 123.284 106.53C123.354 106.698 123.39 106.878 123.39 107.06V112C123.39 112.369 123.244 112.722 122.983 112.983C122.722 113.244 122.369 113.39 122 113.39H111.12C110.785 113.39 110.461 113.511 110.209 113.732C109.957 113.953 109.794 114.258 109.75 114.59L109.3 118C109.716 117.735 110.158 117.513 110.62 117.34C111.097 117.139 111.588 116.975 112.09 116.85C112.715 116.693 113.356 116.612 114 116.61Z" fill="url(#paint11_linear_4_179)"/>
<path d="M122 106.45C122.168 106.45 122.329 106.516 122.449 106.634C122.569 106.752 122.637 106.912 122.64 107.08V112C122.64 112.17 122.573 112.333 122.453 112.453C122.333 112.573 122.17 112.64 122 112.64H111.12C110.602 112.641 110.103 112.83 109.714 113.172C109.326 113.514 109.076 113.987 109.01 114.5L108.56 117.93L108.35 119.51L109.7 118.66C110.091 118.423 110.502 118.222 110.93 118.06C111.362 117.869 111.811 117.719 112.27 117.61C112.833 117.472 113.411 117.405 113.99 117.41C116.172 117.383 118.312 118.006 120.139 119.199C121.966 120.392 123.397 122.102 124.25 124.11C124.82 125.468 125.109 126.927 125.1 128.4C125.113 129.928 124.813 131.442 124.22 132.85C123.652 134.192 122.811 135.401 121.75 136.4C120.626 137.437 119.312 138.245 117.88 138.78C116.282 139.38 114.587 139.678 112.88 139.66C111.297 139.681 109.722 139.42 108.23 138.89C106.92 138.43 105.697 137.754 104.61 136.89C103.62 136.091 102.792 135.11 102.17 134C101.847 133.387 101.586 132.744 101.39 132.08C101.358 132.004 101.342 131.922 101.342 131.84C101.342 131.758 101.358 131.676 101.39 131.6C101.47 131.452 101.602 131.338 101.76 131.28H101.91L107.28 130.92C107.398 130.919 107.514 130.951 107.615 131.013C107.716 131.075 107.797 131.164 107.85 131.27C108.013 131.609 108.214 131.927 108.45 132.22C108.916 132.75 109.475 133.191 110.1 133.52C111.201 134.058 112.438 134.25 113.65 134.072C114.862 133.893 115.991 133.352 116.89 132.52C117.954 131.449 118.551 130 118.551 128.49C118.551 126.98 117.954 125.531 116.89 124.46C116.365 123.936 115.741 123.521 115.054 123.241C114.368 122.962 113.632 122.822 112.89 122.83C111.996 122.8 111.107 122.974 110.29 123.34C109.702 123.623 109.154 123.983 108.66 124.41C108.401 124.676 108.17 124.967 107.97 125.28C107.91 125.365 107.831 125.435 107.739 125.484C107.646 125.532 107.544 125.558 107.44 125.56H102.57C102.4 125.56 102.237 125.493 102.117 125.373C101.997 125.253 101.93 125.09 101.93 124.92C101.93 124.92 101.93 124.92 101.93 124.85L103.83 107.15C103.85 106.994 103.926 106.852 104.044 106.748C104.161 106.645 104.313 106.589 104.47 106.59H122M122 105.84H104.5C104.159 105.84 103.83 105.966 103.576 106.192C103.321 106.419 103.159 106.731 103.12 107.07L101.21 124.77C101.21 124.82 101.21 124.87 101.21 124.92C101.21 125.289 101.356 125.642 101.617 125.903C101.878 126.164 102.231 126.31 102.6 126.31H107.47C107.697 126.309 107.92 126.253 108.12 126.147C108.321 126.041 108.492 125.887 108.62 125.7C108.792 125.426 108.994 125.171 109.22 124.94C109.654 124.569 110.135 124.256 110.65 124.01C111.364 123.697 112.141 123.55 112.92 123.58C113.574 123.565 114.224 123.684 114.831 123.928C115.437 124.172 115.988 124.537 116.45 125C117.366 125.935 117.879 127.191 117.879 128.5C117.879 129.809 117.366 131.065 116.45 132C115.669 132.726 114.688 133.2 113.634 133.361C112.58 133.521 111.502 133.361 110.54 132.9C109.995 132.623 109.51 132.242 109.11 131.78C108.909 131.531 108.738 131.259 108.6 130.97C108.484 130.741 108.306 130.549 108.087 130.415C107.868 130.281 107.617 130.21 107.36 130.21H107.27L101.94 130.58C101.827 130.581 101.716 130.602 101.61 130.64C101.436 130.695 101.275 130.783 101.136 130.9C100.996 131.017 100.881 131.161 100.798 131.323C100.714 131.484 100.663 131.661 100.648 131.843C100.633 132.024 100.654 132.207 100.71 132.38C100.924 133.089 101.205 133.775 101.55 134.43C102.221 135.621 103.11 136.676 104.17 137.54C105.32 138.469 106.618 139.199 108.01 139.7C109.584 140.267 111.247 140.544 112.92 140.52C114.716 140.54 116.5 140.225 118.18 139.59C119.703 139.021 121.1 138.158 122.29 137.05C123.428 135.985 124.33 134.694 124.94 133.26C125.577 131.758 125.897 130.141 125.88 128.51C125.894 126.934 125.585 125.371 124.97 123.92C123.763 121.089 121.494 118.845 118.65 117.67C117.182 117.063 115.608 116.757 114.02 116.77C113.38 116.766 112.742 116.84 112.12 116.99C111.618 117.115 111.127 117.279 110.65 117.48C110.188 117.653 109.746 117.875 109.33 118.14L109.78 114.7C109.824 114.368 109.987 114.063 110.239 113.842C110.491 113.621 110.815 113.5 111.15 113.5H122C122.369 113.5 122.722 113.354 122.983 113.093C123.244 112.832 123.39 112.479 123.39 112.11V107.24C123.413 107.045 123.394 106.847 123.334 106.66C123.274 106.473 123.175 106.301 123.044 106.155C122.912 106.009 122.751 105.893 122.571 105.815C122.391 105.736 122.196 105.697 122 105.7V105.84Z" fill="url(#paint12_linear_4_179)"/>
<path d="M84.5499 132.57H70.8699C70.7727 132.57 70.6765 132.551 70.5867 132.514C70.4969 132.476 70.4154 132.422 70.3466 132.353C70.2779 132.285 70.2234 132.203 70.1862 132.113C70.1491 132.023 70.1299 131.927 70.1299 131.83V126C70.1319 125.846 70.1807 125.696 70.2699 125.57L84.0499 106.43C84.1193 106.336 84.2095 106.258 84.3136 106.205C84.4177 106.151 84.5328 106.122 84.6499 106.12H91.2799C91.4744 106.123 91.6601 106.202 91.7967 106.34C91.9333 106.479 92.0099 106.665 92.0099 106.86V125.72H96.1699C96.3644 125.72 96.5512 125.797 96.6897 125.933C96.8282 126.07 96.9074 126.255 96.91 126.45V131.8C96.91 131.996 96.8319 132.184 96.6932 132.323C96.5544 132.462 96.3662 132.54 96.1699 132.54H91.9999V138.81C91.9999 139.004 91.923 139.189 91.7861 139.326C91.6492 139.463 91.4635 139.54 91.2699 139.54H85.2699C85.0754 139.54 84.8886 139.463 84.7502 139.327C84.6117 139.19 84.5325 139.005 84.5299 138.81L84.5499 132.57ZM84.5499 125.75V117.19L78.4199 125.75H84.5499Z" fill="url(#paint13_linear_4_179)"/>
<path d="M91.2799 106.15C91.4744 106.153 91.6601 106.232 91.7967 106.37C91.9333 106.509 92.0099 106.695 92.0099 106.89V125.75H96.1699C96.3644 125.75 96.5512 125.827 96.6897 125.963C96.8282 126.1 96.9074 126.285 96.91 126.48V131.83C96.91 132.026 96.8319 132.214 96.6932 132.353C96.5544 132.492 96.3662 132.57 96.1699 132.57H91.9999V138.84C91.9999 138.936 91.981 139.031 91.9443 139.119C91.9077 139.208 91.8539 139.288 91.7861 139.356C91.7183 139.424 91.6378 139.478 91.5493 139.514C91.4607 139.551 91.3658 139.57 91.2699 139.57H85.2699C85.0754 139.57 84.8886 139.493 84.7502 139.357C84.6117 139.22 84.5325 139.035 84.5299 138.84V132.57H70.8699C70.6737 132.57 70.4854 132.492 70.3466 132.353C70.2079 132.214 70.1299 132.026 70.1299 131.83V126C70.1319 125.846 70.1807 125.696 70.2699 125.57L84.0499 106.43C84.1193 106.336 84.2095 106.258 84.3136 106.205C84.4177 106.151 84.5328 106.122 84.6499 106.12H91.2799M78.4199 125.72H84.5499V117.16L78.4199 125.72ZM91.2799 105.4H84.6499C84.4149 105.4 84.1833 105.456 83.9745 105.564C83.7657 105.672 83.5858 105.828 83.4499 106.02L69.66 125.16C69.4802 125.415 69.3824 125.718 69.3799 126.03V131.83C69.3799 132.225 69.5369 132.604 69.8163 132.884C70.0958 133.163 70.4747 133.32 70.8699 133.32H83.7999V138.84C83.8026 139.233 83.9607 139.61 84.2398 139.887C84.519 140.164 84.8965 140.32 85.2899 140.32H91.2899C91.6824 140.32 92.0589 140.164 92.3364 139.887C92.614 139.609 92.7699 139.233 92.7699 138.84V133.32H96.1799C96.5751 133.32 96.9541 133.163 97.2335 132.884C97.5129 132.604 97.6699 132.225 97.6699 131.83V126.48C97.6686 126.284 97.6288 126.091 97.5527 125.911C97.4767 125.73 97.3657 125.567 97.2264 125.429C97.0871 125.292 96.9222 125.183 96.7409 125.11C96.5596 125.036 96.3656 124.999 96.1699 125H92.7599V106.89C92.7599 106.497 92.6043 106.119 92.327 105.84C92.0498 105.561 91.6733 105.403 91.2799 105.4ZM79.8799 125L83.7999 119.52V125H79.8799Z" fill="url(#paint14_linear_4_179)"/>
</g>
<defs>
<linearGradient id="paint0_linear_4_179" x1="140.71" y1="-16.2" x2="91.83" y2="261.03" gradientUnits="userSpaceOnUse">
<stop offset="0.25" stop-color="#F6E594"/>
<stop offset="0.38" stop-color="#F5E492"/>
<stop offset="0.43" stop-color="#F2DE8B"/>
<stop offset="0.47" stop-color="#ECD580"/>
<stop offset="0.49" stop-color="#E4C86F"/>
<stop offset="0.5" stop-color="#E2C46A"/>
<stop offset="0.61" stop-color="#C89E3F"/>
<stop offset="0.72" stop-color="#E8D17E"/>
<stop offset="0.76" stop-color="#E5CE7C"/>
<stop offset="0.79" stop-color="#DCC574"/>
<stop offset="0.81" stop-color="#CDB568"/>
<stop offset="0.83" stop-color="#B79F57"/>
<stop offset="0.86" stop-color="#9B8240"/>
<stop offset="0.88" stop-color="#684E18"/>
</linearGradient>
<linearGradient id="paint1_linear_4_179" x1="140.67" y1="-15.98" x2="91.86" y2="260.81" gradientUnits="userSpaceOnUse">
<stop offset="0.25" stop-color="#F6E594"/>
<stop offset="0.38" stop-color="#F5E492"/>
<stop offset="0.43" stop-color="#F2DE8B"/>
<stop offset="0.47" stop-color="#ECD580"/>
<stop offset="0.49" stop-color="#E4C86F"/>
<stop offset="0.5" stop-color="#E2C46A"/>
<stop offset="0.61" stop-color="#C89E3F"/>
<stop offset="0.72" stop-color="#E8D17E"/>
<stop offset="0.76" stop-color="#E5CE7C"/>
<stop offset="0.79" stop-color="#DCC574"/>
<stop offset="0.81" stop-color="#CDB568"/>
<stop offset="0.83" stop-color="#B79F57"/>
<stop offset="0.86" stop-color="#9B8240"/>
<stop offset="0.88" stop-color="#684E18"/>
</linearGradient>
<linearGradient id="paint2_linear_4_179" x1="146.14" y1="16.5" x2="67.15" y2="233.51" gradientUnits="userSpaceOnUse">
<stop stop-color="#F6E594"/>
<stop offset="0.33" stop-color="#F6E492"/>
<stop offset="0.45" stop-color="#F4DF8B"/>
<stop offset="0.53" stop-color="#F2D880"/>
<stop offset="0.6" stop-color="#EFCD6F"/>
<stop offset="0.65" stop-color="#EBC15C"/>
<stop offset="0.7" stop-color="#C89D47"/>
<stop offset="0.82" stop-color="#7A4D18"/>
<stop offset="0.97" stop-color="#C1914C"/>
</linearGradient>
<linearGradient id="paint3_linear_4_179" x1="166.09" y1="34.2" x2="53.02" y2="230.04" gradientUnits="userSpaceOnUse">
<stop stop-color="#FFFFAD"/>
<stop offset="0.26" stop-color="#F6E594"/>
<stop offset="0.34" stop-color="#F5E492"/>
<stop offset="0.37" stop-color="#F2DE8B"/>
<stop offset="0.39" stop-color="#ECD580"/>
<stop offset="0.41" stop-color="#E2C46A"/>
<stop offset="0.51" stop-color="#A68C46"/>
<stop offset="0.66" stop-color="#564217"/>
<stop offset="0.68" stop-color="#75612D"/>
<stop offset="0.73" stop-color="#C7B167"/>
<stop offset="0.75" stop-color="#E8D17E"/>
<stop offset="0.78" stop-color="#E5CE7C"/>
<stop offset="0.81" stop-color="#DDC574"/>
<stop offset="0.83" stop-color="#CFB568"/>
<stop offset="0.85" stop-color="#BB9F56"/>
<stop offset="0.86" stop-color="#A2823F"/>
<stop offset="0.88" stop-color="#825E23"/>
<stop offset="0.9" stop-color="#5B3200"/>
</linearGradient>
<linearGradient id="paint4_linear_4_179" x1="116.21" y1="155.95" x2="116.21" y2="166.49" gradientUnits="userSpaceOnUse">
<stop stop-color="#F6E594"/>
<stop offset="0.21" stop-color="#F5E492"/>
<stop offset="0.29" stop-color="#F2DE8B"/>
<stop offset="0.34" stop-color="#ECD580"/>
<stop offset="0.39" stop-color="#E4C86F"/>
<stop offset="0.4" stop-color="#E2C46A"/>
<stop offset="0.49" stop-color="#BA9D4E"/>
<stop offset="0.69" stop-color="#6A4E17"/>
<stop offset="0.72" stop-color="#6F531B"/>
<stop offset="0.75" stop-color="#7D6227"/>
<stop offset="0.79" stop-color="#957B3A"/>
<stop offset="0.83" stop-color="#B69D55"/>
<stop offset="0.86" stop-color="#E0C977"/>
<stop offset="0.87" stop-color="#E8D17E"/>
<stop offset="0.9" stop-color="#E5CE7C"/>
<stop offset="0.92" stop-color="#DCC574"/>
<stop offset="0.94" stop-color="#CDB568"/>
<stop offset="0.96" stop-color="#B79F57"/>
<stop offset="0.98" stop-color="#9B8240"/>
<stop offset="0.99" stop-color="#785F25"/>
<stop offset="1" stop-color="#684E18"/>
</linearGradient>
<linearGradient id="paint5_linear_4_179" x1="116.34" y1="76.23" x2="116.34" y2="86.77" gradientUnits="userSpaceOnUse">
<stop stop-color="#F6E594"/>
<stop offset="0.21" stop-color="#F5E492"/>
<stop offset="0.29" stop-color="#F2DE8B"/>
<stop offset="0.34" stop-color="#ECD580"/>
<stop offset="0.39" stop-color="#E4C86F"/>
<stop offset="0.4" stop-color="#E2C46A"/>
<stop offset="0.49" stop-color="#BA9D4E"/>
<stop offset="0.69" stop-color="#6A4E17"/>
<stop offset="0.72" stop-color="#6F531B"/>
<stop offset="0.75" stop-color="#7D6227"/>
<stop offset="0.79" stop-color="#957B3A"/>
<stop offset="0.83" stop-color="#B69D55"/>
<stop offset="0.86" stop-color="#E0C977"/>
<stop offset="0.87" stop-color="#E8D17E"/>
<stop offset="0.9" stop-color="#E5CE7C"/>
<stop offset="0.92" stop-color="#DCC574"/>
<stop offset="0.94" stop-color="#CDB568"/>
<stop offset="0.96" stop-color="#B79F57"/>
<stop offset="0.98" stop-color="#9B8240"/>
<stop offset="0.99" stop-color="#785F25"/>
<stop offset="1" stop-color="#684E18"/>
</linearGradient>
<linearGradient id="paint6_linear_4_179" x1="143.85" y1="102.94" x2="143.85" y2="149.34" gradientUnits="userSpaceOnUse">
<stop stop-color="#F6E594"/>
<stop offset="0.36" stop-color="#F6E492"/>
<stop offset="0.5" stop-color="#F4DF8B"/>
<stop offset="0.59" stop-color="#F2D880"/>
<stop offset="0.66" stop-color="#EFCD6F"/>
<stop offset="0.72" stop-color="#EBC15C"/>
<stop offset="0.77" stop-color="#C89D47"/>
<stop offset="0.88" stop-color="#7A4D18"/>
<stop offset="0.95" stop-color="#C1914C"/>
<stop offset="0.96" stop-color="#BE8F4A"/>
<stop offset="0.97" stop-color="#B58742"/>
<stop offset="0.98" stop-color="#A57B36"/>
<stop offset="0.99" stop-color="#8F6924"/>
<stop offset="1" stop-color="#624600"/>
</linearGradient>
<linearGradient id="paint7_linear_4_179" x1="113.23" y1="102.72" x2="113.23" y2="149.41" gradientUnits="userSpaceOnUse">
<stop stop-color="#F6E594"/>
<stop offset="0.36" stop-color="#F6E492"/>
<stop offset="0.5" stop-color="#F4DF8B"/>
<stop offset="0.59" stop-color="#F2D880"/>
<stop offset="0.66" stop-color="#EFCD6F"/>
<stop offset="0.72" stop-color="#EBC15C"/>
<stop offset="0.77" stop-color="#C89D47"/>
<stop offset="0.88" stop-color="#7A4D18"/>
<stop offset="0.95" stop-color="#C1914C"/>
<stop offset="0.96" stop-color="#BE8F4A"/>
<stop offset="0.97" stop-color="#B58742"/>
<stop offset="0.98" stop-color="#A57B36"/>
<stop offset="0.99" stop-color="#8F6924"/>
<stop offset="1" stop-color="#624600"/>
</linearGradient>
<linearGradient id="paint8_linear_4_179" x1="83.52" y1="103.18" x2="83.52" y2="148.44" gradientUnits="userSpaceOnUse">
<stop stop-color="#F6E594"/>
<stop offset="0.36" stop-color="#F6E492"/>
<stop offset="0.5" stop-color="#F4DF8B"/>
<stop offset="0.59" stop-color="#F2D880"/>
<stop offset="0.66" stop-color="#EFCD6F"/>
<stop offset="0.72" stop-color="#EBC15C"/>
<stop offset="0.77" stop-color="#C89D47"/>
<stop offset="0.88" stop-color="#7A4D18"/>
<stop offset="0.95" stop-color="#C1914C"/>
<stop offset="0.96" stop-color="#BE8F4A"/>
<stop offset="0.97" stop-color="#B58742"/>
<stop offset="0.98" stop-color="#A57B36"/>
<stop offset="0.99" stop-color="#8F6924"/>
<stop offset="1" stop-color="#624600"/>
</linearGradient>
<linearGradient id="paint9_linear_4_179" x1="143.85" y1="157.53" x2="143.85" y2="110.72" gradientUnits="userSpaceOnUse">
<stop stop-color="#F6E594"/>
<stop offset="0.17" stop-color="#F6E492"/>
<stop offset="0.24" stop-color="#F4DF8B"/>
<stop offset="0.28" stop-color="#F2D880"/>
<stop offset="0.32" stop-color="#EFCD6F"/>
<stop offset="0.35" stop-color="#EBC15C"/>
<stop offset="0.4" stop-color="#C89D47"/>
<stop offset="0.54" stop-color="#7A4D18"/>
<stop offset="0.66" stop-color="#B68644"/>
<stop offset="0.88" stop-color="#F5E08C"/>
</linearGradient>
<linearGradient id="paint10_linear_4_179" x1="143.85" y1="105.92" x2="143.85" y2="140.32" gradientUnits="userSpaceOnUse">
<stop stop-color="#FFF7AB"/>
<stop offset="0.41" stop-color="#F6E594"/>
<stop offset="0.57" stop-color="#F6E492"/>
<stop offset="0.62" stop-color="#F4DF8B"/>
<stop offset="0.66" stop-color="#F2D880"/>
<stop offset="0.7" stop-color="#EFCD6F"/>
<stop offset="0.72" stop-color="#EBC15C"/>
<stop offset="0.77" stop-color="#C89D47"/>
<stop offset="0.88" stop-color="#7A4D18"/>
<stop offset="0.91" stop-color="#C1914C"/>
<stop offset="0.92" stop-color="#BE8E4A"/>
<stop offset="0.94" stop-color="#B58643"/>
<stop offset="0.95" stop-color="#A57838"/>
<stop offset="0.96" stop-color="#724A14"/>
<stop offset="0.97" stop-color="#553000"/>
</linearGradient>
<linearGradient id="paint11_linear_4_179" x1="113.23" y1="157.7" x2="113.23" y2="110.53" gradientUnits="userSpaceOnUse">
<stop stop-color="#F6E594"/>
<stop offset="0.17" stop-color="#F6E492"/>
<stop offset="0.24" stop-color="#F4DF8B"/>
<stop offset="0.28" stop-color="#F2D880"/>
<stop offset="0.32" stop-color="#EFCD6F"/>
<stop offset="0.35" stop-color="#EBC15C"/>
<stop offset="0.4" stop-color="#C89D47"/>
<stop offset="0.54" stop-color="#7A4D18"/>
<stop offset="0.66" stop-color="#B68644"/>
<stop offset="0.88" stop-color="#F5E08C"/>
</linearGradient>
<linearGradient id="paint12_linear_4_179" x1="113.23" y1="105.7" x2="113.23" y2="140.36" gradientUnits="userSpaceOnUse">
<stop stop-color="#FFF7AB"/>
<stop offset="0.41" stop-color="#F6E594"/>
<stop offset="0.57" stop-color="#F6E492"/>
<stop offset="0.62" stop-color="#F4DF8B"/>
<stop offset="0.66" stop-color="#F2D880"/>
<stop offset="0.7" stop-color="#EFCD6F"/>
<stop offset="0.72" stop-color="#EBC15C"/>
<stop offset="0.77" stop-color="#C89D47"/>
<stop offset="0.88" stop-color="#7A4D18"/>
<stop offset="0.91" stop-color="#C1914C"/>
<stop offset="0.92" stop-color="#BE8E4A"/>
<stop offset="0.94" stop-color="#B58643"/>
<stop offset="0.95" stop-color="#A57838"/>
<stop offset="0.96" stop-color="#724A14"/>
<stop offset="0.97" stop-color="#553000"/>
</linearGradient>
<linearGradient id="paint13_linear_4_179" x1="83.5199" y1="106.15" x2="83.5199" y2="144.53" gradientUnits="userSpaceOnUse">
<stop stop-color="#F6E594"/>
<stop offset="0.17" stop-color="#F6E492"/>
<stop offset="0.24" stop-color="#F4DF8B"/>
<stop offset="0.28" stop-color="#F2D880"/>
<stop offset="0.32" stop-color="#EFCD6F"/>
<stop offset="0.35" stop-color="#EBC15C"/>
<stop offset="0.4" stop-color="#C89D47"/>
<stop offset="0.54" stop-color="#7A4D18"/>
<stop offset="0.66" stop-color="#B68644"/>
<stop offset="0.77" stop-color="#C1914C"/>
<stop offset="0.8" stop-color="#C3944E"/>
<stop offset="0.82" stop-color="#C99D56"/>
<stop offset="0.84" stop-color="#D3AD63"/>
<stop offset="0.86" stop-color="#E2C375"/>
<stop offset="0.88" stop-color="#F5E08C"/>
</linearGradient>
<linearGradient id="paint14_linear_4_179" x1="83.5199" y1="105.4" x2="83.5199" y2="140.32" gradientUnits="userSpaceOnUse">
<stop stop-color="#FFF7AB"/>
<stop offset="0.41" stop-color="#F6E594"/>
<stop offset="0.57" stop-color="#F6E492"/>
<stop offset="0.62" stop-color="#F4DF8B"/>
<stop offset="0.66" stop-color="#F2D880"/>
<stop offset="0.7" stop-color="#EFCD6F"/>
<stop offset="0.72" stop-color="#EBC15C"/>
<stop offset="0.77" stop-color="#C89D47"/>
<stop offset="0.88" stop-color="#7A4D18"/>
<stop offset="0.91" stop-color="#C1914C"/>
<stop offset="0.92" stop-color="#BE8E4A"/>
<stop offset="0.94" stop-color="#B58643"/>
<stop offset="0.95" stop-color="#A57838"/>
<stop offset="0.96" stop-color="#724A14"/>
<stop offset="0.97" stop-color="#553000"/>
</linearGradient>
</defs>
</svg>
