<svg width="233" height="232" viewBox="0 0 233 232" fill="none" xmlns="http://www.w3.org/2000/svg">
<mask id="mask0_4_904" style="mask-type:luminance" maskUnits="userSpaceOnUse" x="0" y="0" width="233" height="232">
<path d="M232.57 0H0V231.49H232.57V0Z" fill="white"/>
</mask>
<g mask="url(#mask0_4_904)">
<path d="M115.37 24.78L145.65 86.13L213.35 95.97L164.36 143.72L175.92 211.15L115.37 179.31L54.82 211.15L66.38 143.72L17.39 95.97L85.09 86.13L115.37 24.78Z" fill="black"/>
<mask id="mask1_4_904" style="mask-type:luminance" maskUnits="userSpaceOnUse" x="18" y="24" width="197" height="188">
<path d="M116.37 24.78L146.65 86.13L214.35 95.97L165.36 143.72L176.92 211.15L116.37 179.31L55.82 211.15L67.38 143.72L18.39 95.97L86.09 86.13L116.37 24.78Z" fill="white"/>
</mask>
<g mask="url(#mask1_4_904)">
<path d="M115.69 264.47V126.05L72.92 257.7L71.82 257.34L114.6 125.69L33.23 237.68L32.3 237L113.67 125.02L1.68004 206.38L1.00004 205.45L112.99 124.08L-18.66 166.86L-19.02 165.77L112.64 122.99H-25.79V121.84H112.64L-19.02 79.06L-18.66 77.97L112.99 120.75L1.00004 39.38L1.68004 38.45L113.67 119.82L32.3 7.82996L33.23 7.14997L114.6 119.14L71.82 -12.51L72.92 -12.86L115.69 118.79V-19.64H116.84V118.79L159.62 -12.86L160.71 -12.51L117.94 119.14L199.3 7.14997L200.23 7.82996L118.87 119.82L230.85 38.45L231.53 39.38L119.54 120.75L251.19 77.97L251.55 79.06L119.9 121.84H258.32V122.99H119.9L251.55 165.77L251.19 166.86L119.54 124.08L231.53 205.45L230.85 206.38L118.87 125.02L200.23 237L199.3 237.68L117.94 125.69L160.71 257.34L159.62 257.7L116.84 126.05V264.47H115.69Z" fill="url(#paint0_linear_4_904)"/>
<path d="M258.12 122.04H118.63L251.3 78.9399L251.06 78.2199L118.4 121.33L231.25 39.3399L230.81 38.7299L117.96 120.72L199.95 7.86994L199.34 7.42994L117.36 120.28L160.46 -12.3801L159.75 -12.6101L116.64 120.05V-19.4401H115.89V120.05L72.79 -12.6101L72.07 -12.3801L115.18 120.28L33.19 7.42994L32.58 7.86994L114.57 120.72L1.72005 38.7299L1.28005 39.3399L114.13 121.33L-18.53 78.2199L-18.76 78.9399L113.9 122.04H-25.59V122.79H113.9L-18.76 165.9L-18.53 166.61L114.13 123.5L1.28005 205.49L1.72005 206.1L114.57 124.11L32.58 236.96L33.19 237.4L115.18 124.55L72.07 257.21L72.79 257.44L115.89 124.78V264.27H116.64V124.78L159.75 257.44L160.46 257.21L117.36 124.55L199.34 237.4L199.95 236.96L117.96 124.11L230.81 206.1L231.25 205.49L118.4 123.5L251.06 166.61L251.3 165.9L118.63 122.79H258.12V122.04Z" fill="url(#paint1_linear_4_904)"/>
</g>
<path d="M185.47 225.46L117.18 187.89C116.884 187.727 116.552 187.642 116.215 187.642C115.878 187.642 115.546 187.727 115.25 187.89L47 225.45C46.6758 225.642 46.304 225.739 45.9273 225.729C45.5507 225.719 45.1845 225.603 44.871 225.394C44.5575 225.184 44.3094 224.891 44.1553 224.547C44.0012 224.203 43.9474 223.823 44 223.45L55.16 148.45C55.2051 148.143 55.178 147.829 55.0808 147.534C54.9836 147.239 54.819 146.97 54.6 146.75L1.47998 93.5401C1.22288 93.2857 1.03956 92.9664 0.949542 92.6161C0.859522 92.2659 0.866168 91.8977 0.968772 91.5509C1.07137 91.2041 1.26609 90.8916 1.53221 90.6467C1.79832 90.4018 2.12587 90.2336 2.47998 90.1601L75.48 75.3901C75.7641 75.3313 76.032 75.2114 76.2651 75.0387C76.4982 74.866 76.691 74.6447 76.83 74.3901L114.55 6.80005C114.721 6.48255 114.975 6.21732 115.285 6.03246C115.595 5.8476 115.949 5.75 116.31 5.75C116.671 5.75 117.025 5.8476 117.335 6.03246C117.645 6.21732 117.899 6.48255 118.07 6.80005L154.65 75.2801C154.794 75.5404 154.995 75.7653 155.237 75.9383C155.479 76.1113 155.757 76.2281 156.05 76.2801L230 90.0001C230.36 90.0653 230.696 90.2281 230.97 90.4708C231.244 90.7135 231.446 91.0267 231.554 91.3764C231.662 91.726 231.673 92.0987 231.584 92.4537C231.495 92.8088 231.31 93.1327 231.05 93.3901L177.55 146.61C177.328 146.833 177.162 147.104 177.064 147.403C176.967 147.702 176.942 148.019 176.99 148.33L188.37 223.33C188.438 223.699 188.4 224.08 188.262 224.429C188.123 224.778 187.889 225.081 187.587 225.303C187.284 225.525 186.925 225.658 186.551 225.685C186.177 225.713 185.802 225.635 185.47 225.46ZM27.81 101.46L68.46 142.08C68.6784 142.304 68.841 142.577 68.9348 142.876C69.0286 143.174 69.0509 143.491 69 143.8L60.74 199.36C60.6954 199.725 60.7521 200.094 60.9039 200.429C61.0557 200.763 61.2966 201.05 61.6003 201.256C61.904 201.463 62.2587 201.582 62.6256 201.6C62.9924 201.618 63.3572 201.535 63.68 201.36L115.23 173C115.526 172.837 115.858 172.752 116.195 172.752C116.532 172.752 116.864 172.837 117.16 173L168.65 201.33C168.973 201.505 169.338 201.588 169.704 201.57C170.071 201.552 170.426 201.433 170.73 201.226C171.033 201.02 171.274 200.733 171.426 200.399C171.578 200.064 171.635 199.695 171.59 199.33L163.17 143.8C163.123 143.491 163.15 143.175 163.247 142.878C163.344 142.581 163.51 142.311 163.73 142.09L204.33 101.69C204.587 101.436 204.77 101.116 204.86 100.766C204.95 100.416 204.944 100.048 204.841 99.7009C204.739 99.3541 204.544 99.0416 204.278 98.7967C204.012 98.5518 203.684 98.3836 203.33 98.3101L147.53 88.0001C147.237 87.9481 146.959 87.8313 146.717 87.6583C146.475 87.4853 146.274 87.2604 146.13 87.0001L117.81 34.0001C117.638 33.6851 117.384 33.4222 117.075 33.239C116.766 33.0559 116.414 32.9592 116.055 32.9592C115.696 32.9592 115.344 33.0559 115.035 33.239C114.726 33.4222 114.472 33.6851 114.3 34.0001L85.3 86.0001C85.161 86.2547 84.9682 86.476 84.7351 86.6487C84.502 86.8214 84.2341 86.9413 83.95 87.0001L28.83 98.1001C28.4763 98.172 28.1486 98.3383 27.8817 98.5813C27.6148 98.8244 27.4187 99.1351 27.3141 99.4806C27.2095 99.8261 27.2004 100.193 27.2877 100.544C27.375 100.894 27.5555 101.214 27.81 101.47V101.46Z" fill="url(#paint2_linear_4_904)"/>
<mask id="mask2_4_904" style="mask-type:luminance" maskUnits="userSpaceOnUse" x="0" y="5" width="232" height="221">
<path d="M185.47 225.46L117.18 187.89C116.884 187.727 116.552 187.642 116.215 187.642C115.878 187.642 115.546 187.727 115.25 187.89L47 225.45C46.6758 225.642 46.304 225.739 45.9273 225.729C45.5507 225.719 45.1845 225.603 44.871 225.394C44.5575 225.184 44.3094 224.891 44.1553 224.547C44.0012 224.203 43.9474 223.823 44 223.45L55.16 148.45C55.2051 148.143 55.178 147.829 55.0808 147.534C54.9836 147.239 54.819 146.97 54.6 146.75L1.47998 93.5401C1.22288 93.2857 1.03956 92.9664 0.949542 92.6161C0.859522 92.2659 0.866168 91.8977 0.968772 91.5509C1.07137 91.2041 1.26609 90.8916 1.53221 90.6467C1.79832 90.4018 2.12587 90.2336 2.47998 90.1601L75.48 75.3901C75.7641 75.3313 76.032 75.2114 76.2651 75.0387C76.4982 74.866 76.691 74.6447 76.83 74.3901L114.55 6.80005C114.721 6.48255 114.975 6.21732 115.285 6.03246C115.595 5.8476 115.949 5.75 116.31 5.75C116.671 5.75 117.025 5.8476 117.335 6.03246C117.645 6.21732 117.899 6.48255 118.07 6.80005L154.65 75.2801C154.794 75.5404 154.995 75.7653 155.237 75.9383C155.479 76.1113 155.757 76.2281 156.05 76.2801L230 90.0001C230.36 90.0653 230.696 90.2281 230.97 90.4708C231.244 90.7135 231.446 91.0267 231.554 91.3764C231.662 91.726 231.673 92.0987 231.584 92.4537C231.495 92.8088 231.31 93.1327 231.05 93.3901L177.55 146.61C177.328 146.833 177.162 147.104 177.064 147.403C176.967 147.702 176.942 148.019 176.99 148.33L188.37 223.33C188.438 223.699 188.4 224.08 188.262 224.429C188.123 224.778 187.889 225.081 187.587 225.303C187.284 225.525 186.925 225.658 186.551 225.685C186.177 225.713 185.802 225.635 185.47 225.46ZM27.81 101.46L68.46 142.08C68.6784 142.304 68.841 142.577 68.9348 142.876C69.0286 143.174 69.0509 143.491 69 143.8L60.74 199.36C60.6954 199.725 60.7521 200.094 60.9039 200.429C61.0557 200.763 61.2966 201.05 61.6003 201.256C61.904 201.463 62.2587 201.582 62.6256 201.6C62.9924 201.618 63.3572 201.535 63.68 201.36L115.23 173C115.526 172.837 115.858 172.752 116.195 172.752C116.532 172.752 116.864 172.837 117.16 173L168.65 201.33C168.973 201.505 169.338 201.588 169.704 201.57C170.071 201.552 170.426 201.433 170.73 201.226C171.033 201.02 171.274 200.733 171.426 200.399C171.578 200.064 171.635 199.695 171.59 199.33L163.17 143.8C163.123 143.491 163.15 143.175 163.247 142.878C163.344 142.581 163.51 142.311 163.73 142.09L204.33 101.69C204.587 101.436 204.77 101.116 204.86 100.766C204.95 100.416 204.944 100.048 204.841 99.7009C204.739 99.3541 204.544 99.0416 204.278 98.7967C204.012 98.5518 203.684 98.3836 203.33 98.3101L147.53 88.0001C147.237 87.9481 146.959 87.8313 146.717 87.6583C146.475 87.4853 146.274 87.2604 146.13 87.0001L117.81 34.0001C117.638 33.6851 117.384 33.4222 117.075 33.239C116.766 33.0559 116.414 32.9592 116.055 32.9592C115.696 32.9592 115.344 33.0559 115.035 33.239C114.726 33.4222 114.472 33.6851 114.3 34.0001L85.3 86.0001C85.161 86.2547 84.9682 86.476 84.7351 86.6487C84.502 86.8214 84.2341 86.9413 83.95 87.0001L28.83 98.1001C28.4763 98.172 28.1486 98.3383 27.8817 98.5813C27.6148 98.8244 27.4187 99.1351 27.3141 99.4806C27.2095 99.8261 27.2004 100.193 27.2877 100.544C27.375 100.894 27.5555 101.214 27.81 101.47V101.46Z" fill="white"/>
</mask>
<g mask="url(#mask2_4_904)">
<path d="M116.64 -19.2599H115.89V264.45H116.64V-19.2599Z" fill="#C89E3F"/>
<path d="M109.212 -19.088L108.463 -19.0487L123.311 264.272L124.06 264.233L109.212 -19.088Z" fill="#C89E3F"/>
<path d="M101.808 -18.5266L101.062 -18.4482L130.718 263.708L131.464 263.629L101.808 -18.5266Z" fill="#C89E3F"/>
<path d="M94.441 -17.5693L93.7003 -17.452L138.082 262.765L138.823 262.648L94.441 -17.5693Z" fill="#C89E3F"/>
<path d="M87.3126 -16.519L86.5776 -16.3615L146.157 261.674L146.892 261.517L87.3126 -16.519Z" fill="#C89E3F"/>
<path d="M79.9107 -14.5223L79.1863 -14.3282L152.616 259.715L153.34 259.52L79.9107 -14.5223Z" fill="#C89E3F"/>
<path d="M72.7896 -12.431L72.0763 -12.1992L159.748 257.625L160.461 257.393L72.7896 -12.431Z" fill="#C89E3F"/>
<path d="M65.7806 -9.9707L65.0804 -9.70193L166.753 255.164L167.453 254.895L65.7806 -9.9707Z" fill="#C89E3F"/>
<path d="M58.9122 -7.14661L58.2271 -6.84155L173.622 252.34L174.307 252.035L58.9122 -7.14661Z" fill="#C89E3F"/>
<path d="M52.1932 -3.96411L51.5249 -3.62362L180.327 249.164L180.995 248.823L52.1932 -3.96411Z" fill="#C89E3F"/>
<path d="M45.6632 -0.439575L45.0137 -0.0645749L186.869 245.635L187.518 245.26L45.6632 -0.439575Z" fill="#C89E3F"/>
<path d="M39.3228 3.42065L38.6938 3.82913L193.213 241.768L193.842 241.36L39.3228 3.42065Z" fill="#C89E3F"/>
<path d="M33.183 7.60913L32.5762 8.04997L199.337 237.576L199.944 237.135L33.183 7.60913Z" fill="#C89E3F"/>
<path d="M27.2856 12.1183L26.7027 12.5903L205.247 233.074L205.83 232.602L27.2856 12.1183Z" fill="#C89E3F"/>
<path d="M21.623 16.9297L21.0656 17.4316L210.905 228.269L211.462 227.767L21.623 16.9297Z" fill="#C89E3F"/>
<path d="M16.2181 22.0243L15.6877 22.5546L216.301 223.168L216.831 222.637L16.2181 22.0243Z" fill="#C89E3F"/>
<path d="M11.0944 27.4022L10.5926 27.9596L221.43 217.799L221.932 217.241L11.0944 27.4022Z" fill="#C89E3F"/>
<path d="M6.25611 33.0331L5.78412 33.6159L226.268 212.16L226.74 211.577L6.25611 33.0331Z" fill="#C89E3F"/>
<path d="M1.71757 38.9156L1.27673 39.5224L230.803 206.283L231.244 205.676L1.71757 38.9156Z" fill="#C89E3F"/>
<path d="M-2.50613 45.0278L-2.91461 45.6568L235.025 200.176L235.433 199.547L-2.50613 45.0278Z" fill="#C89E3F"/>
<path d="M-6.39966 51.3469L-6.77466 51.9964L238.925 193.851L239.3 193.202L-6.39966 51.3469Z" fill="#C89E3F"/>
<path d="M-9.95738 57.8593L-10.2979 58.5276L242.49 187.329L242.83 186.661L-9.95738 57.8593Z" fill="#C89E3F"/>
<path d="M-13.1731 64.5604L-13.4782 65.2456L245.704 180.641L246.009 179.956L-13.1731 64.5604Z" fill="#C89E3F"/>
<path d="M-16.0307 71.4152L-16.2995 72.1154L248.567 173.788L248.835 173.088L-16.0307 71.4152Z" fill="#C89E3F"/>
<path d="M251.06 166.79L-18.76 79.1202L-18.53 78.4102L251.3 166.08L251.06 166.79Z" fill="#C89E3F"/>
<path d="M253.19 159.68L-20.85 86.2501L-20.66 85.5201L253.39 158.95L253.19 159.68Z" fill="#C89E3F"/>
<path d="M-22.4183 92.7346L-22.5742 93.4682L254.936 152.455L255.092 151.721L-22.4183 92.7346Z" fill="#C89E3F"/>
<path d="M-23.7864 100.033L-23.9037 100.774L256.313 145.156L256.431 144.415L-23.7864 100.033Z" fill="#C89E3F"/>
<path d="M-24.7723 107.396L-24.8507 108.142L257.305 137.797L257.384 137.052L-24.7723 107.396Z" fill="#C89E3F"/>
<path d="M-25.3792 114.802L-25.4185 115.551L257.903 130.399L257.942 129.65L-25.3792 114.802Z" fill="#C89E3F"/>
<path d="M258.12 122.22H-25.59V122.97H258.12V122.22Z" fill="#C89E3F"/>
<path d="M257.914 114.81L-25.41 129.608L-25.3708 130.357L257.953 115.559L257.914 114.81Z" fill="#C89E3F"/>
<path d="M257.308 107.444L-24.8577 137.001L-24.7796 137.747L257.387 108.19L257.308 107.444Z" fill="#C89E3F"/>
<path d="M256.313 100.092L-23.9191 144.376L-23.802 145.117L256.431 100.833L256.313 100.092Z" fill="#C89E3F"/>
<path d="M254.935 92.6576L-22.5444 151.789L-22.3881 152.523L255.091 93.3911L254.935 92.6576Z" fill="#C89E3F"/>
<path d="M-20.66 159.68L-20.85 158.95L253.19 85.5201L253.39 86.2501L-20.66 159.68Z" fill="#C89E3F"/>
<path d="M-18.53 166.79L-18.76 166.08L251.06 78.4102L251.3 79.1202L-18.53 166.79Z" fill="#C89E3F"/>
<path d="M248.514 71.3018L-16.263 173.205L-15.9936 173.905L248.784 72.0018L248.514 71.3018Z" fill="#C89E3F"/>
<path d="M245.741 64.6561L-13.5215 179.87L-13.2169 180.556L246.046 65.3414L245.741 64.6561Z" fill="#C89E3F"/>
<path d="M242.528 57.9143L-10.3272 186.583L-9.98711 187.252L242.868 58.5828L242.528 57.9143Z" fill="#C89E3F"/>
<path d="M238.918 51.3557L-6.78162 193.211L-6.40662 193.86L239.293 52.0053L238.918 51.3557Z" fill="#C89E3F"/>
<path d="M235.05 45.0297L-2.91614 199.508L-2.50777 200.137L235.458 45.6588L235.05 45.0297Z" fill="#C89E3F"/>
<path d="M230.736 38.8141L1.35571 205.775L1.79708 206.381L231.178 39.4205L230.736 38.8141Z" fill="#C89E3F"/>
<path d="M226.217 32.9874L5.82654 211.647L6.29883 212.23L226.689 33.57L226.217 32.9874Z" fill="#C89E3F"/>
<path d="M221.446 27.429L10.5752 217.231L11.077 217.789L221.948 27.9865L221.446 27.429Z" fill="#C89E3F"/>
<path d="M216.217 21.9496L15.7789 222.738L16.3097 223.268L216.748 22.4795L216.217 21.9496Z" fill="#C89E3F"/>
<path d="M210.98 16.9847L20.9937 227.69L21.5507 228.192L211.537 17.4869L210.98 16.9847Z" fill="#C89E3F"/>
<path d="M205.286 12.1486L26.6647 232.57L27.2474 233.042L205.869 12.6208L205.286 12.1486Z" fill="#C89E3F"/>
<path d="M199.238 7.55713L32.6774 237.229L33.2845 237.669L199.845 7.99744L199.238 7.55713Z" fill="#C89E3F"/>
<path d="M193.188 3.42578L38.7104 241.392L39.3395 241.8L193.817 3.83415L193.188 3.42578Z" fill="#C89E3F"/>
<path d="M186.801 -0.471313L45.0742 245.303L45.7239 245.678L187.45 -0.0966534L186.801 -0.471313Z" fill="#C89E3F"/>
<path d="M180.394 -3.94141L51.4602 248.779L52.1283 249.119L181.062 -3.60057L180.394 -3.94141Z" fill="#C89E3F"/>
<path d="M173.53 -7.19409L58.316 252.068L59.0014 252.373L174.216 -6.88952L173.53 -7.19409Z" fill="#C89E3F"/>
<path d="M166.695 -9.99805L65.1152 254.903L65.8155 255.172L167.396 -9.72952L166.695 -9.99805Z" fill="#C89E3F"/>
<path d="M159.725 -12.4227L72.1012 257.417L72.8146 257.648L160.439 -12.1911L159.725 -12.4227Z" fill="#C89E3F"/>
<path d="M152.64 -14.5195L79.1624 259.51L79.8869 259.705L153.364 -14.3253L152.64 -14.5195Z" fill="#C89E3F"/>
<path d="M145.415 -16.228L86.3799 261.272L87.1135 261.428L146.149 -16.072L145.415 -16.228Z" fill="#C89E3F"/>
<path d="M139.297 -17.7235L93.9034 263.149L94.6459 263.269L140.04 -17.6035L139.297 -17.7235Z" fill="#C89E3F"/>
<path d="M130.676 -18.5222L101.119 263.644L101.865 263.722L131.422 -18.4441L130.676 -18.5222Z" fill="#C89E3F"/>
<path d="M123.288 -19.0833L108.489 264.24L109.238 264.279L124.037 -19.0442L123.288 -19.0833Z" fill="#C89E3F"/>
</g>
<path d="M116.3 6.77004C116.481 6.77053 116.658 6.82007 116.813 6.91341C116.968 7.00674 117.095 7.14037 117.18 7.30004L153.76 75.78C153.972 76.178 154.271 76.5231 154.634 76.7897C154.998 77.0564 155.417 77.2376 155.86 77.32L229.86 91.03C230.039 91.064 230.205 91.146 230.34 91.2673C230.476 91.3886 230.576 91.5445 230.629 91.7184C230.683 91.8922 230.688 92.0773 230.644 92.2538C230.6 92.4303 230.509 92.5915 230.38 92.72L176.89 145.94C176.555 146.273 176.304 146.68 176.156 147.128C176.009 147.577 175.969 148.053 176.04 148.52L187.42 223.52C187.443 223.661 187.435 223.806 187.397 223.944C187.359 224.082 187.292 224.21 187.2 224.32C187.105 224.431 186.987 224.52 186.854 224.58C186.721 224.641 186.576 224.671 186.43 224.67C186.263 224.668 186.098 224.627 185.95 224.55L117.66 187C117.217 186.757 116.72 186.629 116.215 186.629C115.71 186.629 115.213 186.757 114.77 187L46.51 224.57C46.3605 224.655 46.1918 224.699 46.02 224.7C45.8748 224.699 45.7316 224.666 45.6003 224.604C45.4691 224.542 45.3529 224.452 45.26 224.34C45.1678 224.232 45.0996 224.106 45.06 223.97C45.0203 223.834 45.0101 223.69 45.03 223.55L56.19 148.55C56.258 148.087 56.2166 147.614 56.069 147.169C55.9213 146.725 55.6717 146.321 55.34 145.99L2.18 92.83C2.05146 92.7017 1.96027 92.5409 1.91623 92.3647C1.87218 92.1885 1.87695 92.0037 1.93 91.83C1.98094 91.6552 2.07865 91.4976 2.21259 91.3742C2.34652 91.2509 2.51159 91.1664 2.69 91.13L75.69 76.36C76.1098 76.2707 76.5056 76.0924 76.8507 75.8371C77.1957 75.5818 77.4819 75.2554 77.69 74.88L115.43 7.28004C115.517 7.12558 115.643 6.99696 115.796 6.90735C115.949 6.81773 116.123 6.77035 116.3 6.77004ZM62.74 202.66C63.2468 202.661 63.7457 202.534 64.19 202.29L115.73 173.93C115.882 173.842 116.054 173.796 116.23 173.796C116.406 173.796 116.578 173.842 116.73 173.93L168.22 202.26C168.661 202.502 169.157 202.629 169.66 202.63C170.089 202.636 170.515 202.55 170.909 202.378C171.302 202.205 171.654 201.95 171.94 201.63C172.221 201.303 172.428 200.919 172.547 200.505C172.666 200.091 172.694 199.656 172.63 199.23L164.2 143.7C164.177 143.544 164.191 143.385 164.242 143.235C164.292 143.086 164.377 142.95 164.49 142.84L205.08 102.45C205.466 102.064 205.74 101.579 205.871 101.049C206.002 100.519 205.986 99.9632 205.824 99.4415C205.663 98.9197 205.362 98.452 204.954 98.0887C204.546 97.7255 204.047 97.4804 203.51 97.38L147.71 87C147.562 86.9718 147.422 86.9104 147.3 86.8203C147.179 86.7303 147.08 86.6139 147.01 86.48L118.7 33.48C118.444 32.9995 118.062 32.5976 117.595 32.3175C117.129 32.0374 116.594 31.8896 116.05 31.89C115.516 31.8901 114.991 32.033 114.531 32.3037C114.07 32.5744 113.69 32.9633 113.43 33.43L84.38 85.43C84.3099 85.5549 84.2138 85.6633 84.0982 85.7478C83.9827 85.8323 83.8503 85.8911 83.71 85.92L28.63 97.12C28.0984 97.2273 27.6058 97.4766 27.2046 97.8416C26.8035 98.2065 26.5087 98.6733 26.3518 99.1925C26.1948 99.7116 26.1815 100.264 26.3133 100.79C26.445 101.316 26.7169 101.796 27.1 102.18L67.75 142.8C67.8595 142.91 67.9418 143.044 67.9904 143.192C68.039 143.339 68.0526 143.496 68.03 143.65L59.77 199.22C59.7074 199.645 59.7366 200.078 59.8556 200.49C59.9746 200.902 60.1807 201.284 60.46 201.61C60.7463 201.93 61.098 202.185 61.4914 202.358C61.8847 202.53 62.3105 202.616 62.74 202.61M116.3 5.77004C115.948 5.76865 115.601 5.86039 115.295 6.036C114.99 6.21161 114.736 6.46484 114.56 6.77004L76.82 74.4C76.681 74.6546 76.4882 74.876 76.2551 75.0486C76.022 75.2213 75.7541 75.3412 75.47 75.4L2.5 90.16C2.14589 90.2335 1.81835 90.4017 1.55223 90.6466C1.28612 90.8915 1.0914 91.204 0.988791 91.5508C0.886187 91.8976 0.879541 92.2658 0.969562 92.6161C1.05958 92.9663 1.2429 93.2856 1.5 93.54L54.66 146.66C54.879 146.88 55.0436 147.149 55.1408 147.444C55.238 147.739 55.2651 148.053 55.22 148.36L44 223.4C43.9565 223.687 43.9758 223.979 44.0567 224.258C44.1375 224.536 44.2779 224.794 44.4681 225.012C44.6584 225.231 44.8939 225.406 45.1584 225.525C45.4229 225.643 45.7101 225.703 46 225.7C46.3491 225.703 46.6932 225.617 47 225.45L115.26 187.89C115.556 187.727 115.888 187.642 116.225 187.642C116.562 187.642 116.894 187.727 117.19 187.89L185.48 225.46C185.784 225.633 186.13 225.72 186.48 225.71C186.77 225.713 187.057 225.654 187.322 225.535C187.586 225.416 187.822 225.241 188.012 225.022C188.202 224.804 188.343 224.546 188.423 224.268C188.504 223.989 188.524 223.697 188.48 223.41L177.1 148.41C177.052 148.099 177.077 147.782 177.174 147.483C177.272 147.184 177.438 146.913 177.66 146.69L231.16 93.47C231.447 93.209 231.651 92.8704 231.749 92.4953C231.847 92.1202 231.833 91.7248 231.71 91.3572C231.587 90.9896 231.36 90.6656 231.057 90.4247C230.753 90.1837 230.386 90.0362 230 90L156 76.3C155.707 76.248 155.429 76.1312 155.187 75.9582C154.945 75.7852 154.744 75.5604 154.6 75.3L118.07 6.83004C117.899 6.50919 117.644 6.24096 117.332 6.0542C117.02 5.86744 116.664 5.7692 116.3 5.77004ZM62.74 201.66C62.4501 201.663 62.1629 201.604 61.8984 201.485C61.6339 201.366 61.3984 201.191 61.2081 200.972C61.0179 200.754 60.8775 200.496 60.7967 200.218C60.7158 199.939 60.6965 199.647 60.74 199.36L69 143.8C69.0467 143.491 69.0204 143.175 68.9232 142.878C68.8259 142.582 68.6604 142.311 68.44 142.09L27.81 101.47C27.5556 101.215 27.3746 100.897 27.2862 100.548C27.1978 100.199 27.2052 99.8326 27.3075 99.4875C27.4099 99.1425 27.6036 98.8314 27.868 98.5872C28.1324 98.343 28.4579 98.1747 28.81 98.1L83.9 86.94C84.1841 86.8812 84.452 86.7613 84.6851 86.5886C84.9182 86.416 85.111 86.1946 85.25 85.94L114.3 33.94C114.472 33.625 114.726 33.3621 115.035 33.1789C115.344 32.9958 115.696 32.8992 116.055 32.8992C116.414 32.8992 116.766 32.9958 117.075 33.1789C117.384 33.3621 117.638 33.625 117.81 33.94L146.13 86.94C146.274 87.2004 146.475 87.4252 146.717 87.5982C146.959 87.7712 147.237 87.888 147.53 87.94L203.3 98.31C203.654 98.3835 203.982 98.5517 204.248 98.7966C204.514 99.0415 204.709 99.354 204.811 99.7008C204.914 100.048 204.92 100.416 204.83 100.766C204.74 101.116 204.557 101.436 204.3 101.69L163.7 142.09C163.48 142.311 163.314 142.582 163.217 142.878C163.12 143.175 163.093 143.491 163.14 143.8L171.56 199.33C171.605 199.695 171.548 200.064 171.396 200.399C171.244 200.733 171.003 201.02 170.7 201.226C170.396 201.433 170.041 201.552 169.674 201.57C169.308 201.588 168.943 201.505 168.62 201.33L117.13 173C116.834 172.837 116.502 172.752 116.165 172.752C115.828 172.752 115.496 172.837 115.2 173L63.7 201.41C63.3942 201.579 63.0495 201.665 62.7 201.66H62.74Z" fill="url(#paint3_linear_4_904)"/>
<path d="M116.21 165.99C118.844 165.99 120.98 163.854 120.98 161.22C120.98 158.586 118.844 156.45 116.21 156.45C113.576 156.45 111.44 158.586 111.44 161.22C111.44 163.854 113.576 165.99 116.21 165.99Z" fill="black" stroke="url(#paint4_linear_4_904)" stroke-miterlimit="10"/>
<path d="M116.34 86.2701C118.974 86.2701 121.11 84.1345 121.11 81.5001C121.11 78.8657 118.974 76.7301 116.34 76.7301C113.706 76.7301 111.57 78.8657 111.57 81.5001C111.57 84.1345 113.706 86.2701 116.34 86.2701Z" fill="black" stroke="url(#paint5_linear_4_904)" stroke-miterlimit="10"/>
<path d="M101.77 104.66H97.14V125.09H101.77V104.66Z" fill="url(#paint6_linear_4_904)" stroke="black" stroke-width="6" stroke-miterlimit="10"/>
<path d="M150.42 139.45C149.921 139.449 149.427 139.349 148.967 139.157C148.506 138.965 148.088 138.684 147.736 138.33C147.384 137.976 147.105 137.557 146.915 137.095C146.726 136.633 146.629 136.139 146.63 135.64V129.13C146.276 129.509 145.849 129.811 145.375 130.02C144.9 130.228 144.388 130.337 143.87 130.34C143.291 130.343 142.72 130.213 142.2 129.96C141.679 129.707 141.224 129.337 140.87 128.88V135.64C140.871 136.139 140.774 136.633 140.585 137.095C140.395 137.557 140.116 137.976 139.764 138.33C139.412 138.684 138.994 138.965 138.533 139.157C138.073 139.349 137.579 139.449 137.08 139.45H130.66C130.161 139.449 129.667 139.349 129.207 139.157C128.746 138.965 128.328 138.684 127.976 138.33C127.624 137.976 127.345 137.557 127.155 137.095C126.966 136.633 126.869 136.139 126.87 135.64V108C126.87 106.994 127.269 106.029 127.979 105.317C128.69 104.604 129.654 104.203 130.66 104.2H137C137.6 104.199 138.191 104.342 138.724 104.615C139.258 104.888 139.719 105.284 140.07 105.77L143.81 110.94L147.33 105.83C147.68 105.327 148.147 104.916 148.69 104.632C149.233 104.348 149.837 104.2 150.45 104.2H156.8C157.806 104.203 158.77 104.604 159.481 105.317C160.191 106.029 160.59 106.994 160.59 108V135.65C160.591 136.149 160.494 136.643 160.305 137.105C160.115 137.567 159.836 137.986 159.484 138.34C159.132 138.694 158.714 138.975 158.253 139.167C157.793 139.359 157.299 139.459 156.8 139.46L150.42 139.45Z" fill="url(#paint7_linear_4_904)"/>
<path d="M156.84 107.19C156.945 107.19 157.048 107.211 157.145 107.251C157.241 107.291 157.329 107.35 157.402 107.425C157.476 107.499 157.534 107.588 157.573 107.685C157.612 107.782 157.631 107.885 157.63 107.99V135.64C157.631 135.745 157.612 135.848 157.573 135.945C157.534 136.042 157.476 136.131 157.402 136.205C157.329 136.28 157.241 136.339 157.145 136.379C157.048 136.419 156.945 136.44 156.84 136.44H150.42C150.315 136.44 150.212 136.419 150.115 136.379C150.019 136.339 149.931 136.28 149.858 136.205C149.784 136.131 149.726 136.042 149.687 135.945C149.648 135.848 149.629 135.745 149.63 135.64V122.49C149.631 122.385 149.612 122.28 149.572 122.182C149.532 122.085 149.473 121.996 149.399 121.921C149.324 121.847 149.235 121.788 149.138 121.748C149.04 121.708 148.935 121.689 148.83 121.69C148.709 121.691 148.589 121.72 148.482 121.776C148.374 121.831 148.281 121.912 148.21 122.01L144.5 127.01C144.426 127.107 144.331 127.186 144.222 127.241C144.113 127.295 143.992 127.323 143.87 127.323C143.748 127.323 143.628 127.295 143.518 127.241C143.409 127.186 143.314 127.107 143.24 127.01L139.24 121.9C139.171 121.803 139.079 121.724 138.973 121.67C138.867 121.616 138.749 121.589 138.63 121.59C138.525 121.59 138.421 121.611 138.324 121.651C138.227 121.691 138.139 121.75 138.064 121.824C137.99 121.899 137.931 121.987 137.891 122.084C137.851 122.181 137.83 122.285 137.83 122.39V135.62C137.831 135.725 137.812 135.828 137.773 135.925C137.734 136.022 137.676 136.111 137.602 136.185C137.529 136.26 137.441 136.319 137.345 136.359C137.248 136.399 137.145 136.42 137.04 136.42H130.62C130.515 136.42 130.412 136.399 130.315 136.359C130.219 136.319 130.131 136.26 130.058 136.185C129.984 136.111 129.926 136.022 129.887 135.925C129.848 135.828 129.829 135.725 129.83 135.62V108C129.83 107.79 129.913 107.588 130.061 107.438C130.209 107.288 130.41 107.203 130.62 107.2H137C137.123 107.199 137.244 107.228 137.354 107.283C137.463 107.339 137.558 107.42 137.63 107.52L143.21 115.23C143.283 115.332 143.379 115.415 143.49 115.472C143.602 115.53 143.725 115.56 143.85 115.56C143.978 115.559 144.103 115.528 144.216 115.469C144.329 115.41 144.427 115.324 144.5 115.22L149.8 107.54C149.872 107.434 149.969 107.348 150.083 107.289C150.196 107.23 150.322 107.199 150.45 107.2H156.8M156.8 101.2H150.45C149.351 101.199 148.268 101.466 147.294 101.976C146.32 102.486 145.485 103.226 144.86 104.13L143.75 105.74L142.54 104C141.909 103.132 141.082 102.425 140.126 101.937C139.171 101.448 138.113 101.193 137.04 101.19H130.67C128.868 101.193 127.141 101.91 125.868 103.185C124.595 104.46 123.88 106.188 123.88 107.99V135.64C123.88 137.442 124.595 139.17 125.868 140.445C127.141 141.72 128.868 142.437 130.67 142.44H137.09C138.666 142.439 140.192 141.892 141.409 140.89C142.625 139.889 143.456 138.496 143.76 136.95C144.061 138.495 144.891 139.888 146.105 140.889C147.32 141.891 148.846 142.439 150.42 142.44H156.84C158.642 142.437 160.369 141.72 161.642 140.445C162.915 139.17 163.63 137.442 163.63 135.64V108C163.63 106.198 162.915 104.47 161.642 103.195C160.369 101.92 158.642 101.203 156.84 101.2H156.8Z" fill="black"/>
<path d="M115.46 139.51C113.671 139.527 111.893 139.226 110.21 138.62C108.708 138.079 107.308 137.287 106.07 136.28C104.876 135.304 103.876 134.114 103.12 132.77C102.711 132.039 102.376 131.268 102.12 130.47C101.862 129.669 101.851 128.808 102.088 128C102.325 127.193 102.8 126.475 103.45 125.94C102.791 125.169 102.435 124.184 102.45 123.17C102.44 123.013 102.44 122.857 102.45 122.7L104.08 107.58C104.187 106.552 104.671 105.6 105.44 104.909C106.208 104.218 107.206 103.837 108.24 103.84H123.24C124.35 103.843 125.413 104.285 126.196 105.071C126.98 105.856 127.42 106.92 127.42 108.03V112.19C127.422 113.036 127.166 113.863 126.688 114.562C126.209 115.26 125.53 115.796 124.74 116.1C125.07 116.38 125.4 116.67 125.74 116.97C127.591 118.84 128.845 121.217 129.341 123.801C129.838 126.384 129.556 129.057 128.53 131.48C127.836 133.09 126.814 134.537 125.53 135.73C124.224 136.941 122.696 137.888 121.03 138.52C119.25 139.19 117.362 139.525 115.46 139.51ZM114.88 127.37C115.068 127.428 115.264 127.452 115.46 127.44C115.628 127.453 115.797 127.429 115.955 127.368C116.112 127.308 116.254 127.213 116.37 127.09C116.588 126.857 116.709 126.549 116.709 126.23C116.709 125.911 116.588 125.603 116.37 125.37C116.253 125.249 116.111 125.156 115.953 125.097C115.796 125.038 115.627 125.015 115.46 125.03C115.255 125.02 115.049 125.04 114.85 125.09C114.682 125.168 114.521 125.262 114.37 125.37L114.26 125.53C114.133 125.725 113.985 125.906 113.82 126.07C114.066 126.348 114.275 126.657 114.44 126.99L114.53 127.15C114.64 127.236 114.757 127.313 114.88 127.38V127.37Z" fill="url(#paint8_linear_4_904)"/>
<path d="M123.25 106.84C123.406 106.84 123.56 106.871 123.704 106.931C123.848 106.991 123.978 107.079 124.088 107.189C124.198 107.3 124.284 107.431 124.343 107.575C124.402 107.72 124.431 107.874 124.43 108.03V112.19C124.431 112.346 124.402 112.5 124.343 112.645C124.284 112.789 124.198 112.92 124.088 113.031C123.978 113.141 123.848 113.229 123.704 113.289C123.56 113.349 123.406 113.38 123.25 113.38H114C113.718 113.379 113.444 113.479 113.23 113.663C113.015 113.846 112.873 114.101 112.83 114.38L112.44 117.32C112.799 117.1 113.177 116.912 113.57 116.76C113.979 116.59 114.4 116.45 114.83 116.34C115.364 116.211 115.911 116.147 116.46 116.15C119.15 116.14 121.737 117.189 123.66 119.07C124.586 119.988 125.323 121.079 125.83 122.28C126.356 123.519 126.621 124.854 126.61 126.2C126.622 127.597 126.35 128.982 125.81 130.27C125.283 131.494 124.511 132.597 123.54 133.51C122.519 134.458 121.324 135.199 120.02 135.69C118.579 136.231 117.049 136.499 115.51 136.48C114.079 136.5 112.657 136.263 111.31 135.78C110.115 135.377 108.996 134.775 108 134C106.554 132.888 105.503 131.343 105 129.59C104.95 129.442 104.93 129.285 104.942 129.129C104.953 128.973 104.995 128.82 105.066 128.681C105.137 128.541 105.234 128.417 105.354 128.316C105.473 128.214 105.611 128.138 105.76 128.09C105.855 128.063 105.952 128.046 106.05 128.04L110.61 127.73H110.69C110.909 127.731 111.124 127.792 111.311 127.907C111.498 128.022 111.65 128.185 111.75 128.38C111.865 128.627 112.009 128.858 112.18 129.07C112.522 129.479 112.94 129.818 113.41 130.07C114.225 130.456 115.137 130.589 116.028 130.452C116.919 130.315 117.749 129.914 118.41 129.3C119.204 128.503 119.65 127.425 119.65 126.3C119.65 125.175 119.204 124.097 118.41 123.3C118.017 122.906 117.549 122.596 117.034 122.388C116.518 122.18 115.966 122.079 115.41 122.09C114.744 122.064 114.08 122.191 113.47 122.46C113.03 122.668 112.62 122.934 112.25 123.25C112.057 123.45 111.883 123.668 111.73 123.9C111.621 124.064 111.472 124.197 111.297 124.288C111.122 124.379 110.927 124.425 110.73 124.42H106.56C106.404 124.421 106.25 124.392 106.105 124.333C105.961 124.274 105.83 124.188 105.719 124.078C105.609 123.968 105.521 123.838 105.461 123.694C105.401 123.55 105.37 123.396 105.37 123.24C105.37 123.19 105.37 123.15 105.37 123.11L107 107.96C107.034 107.67 107.173 107.402 107.39 107.207C107.607 107.012 107.888 106.903 108.18 106.9H123.18M123.18 100.9H108.18C106.407 100.898 104.695 101.553 103.377 102.738C102.058 103.924 101.226 105.556 101.04 107.32L99.48 122.4C99.48 122.68 99.48 122.93 99.48 123.18C99.4821 124.026 99.631 124.865 99.92 125.66C99.92 125.74 99.84 125.82 99.79 125.9C98.921 127.595 98.759 129.566 99.3399 131.38C99.6443 132.367 100.046 133.322 100.54 134.23C101.479 135.904 102.724 137.386 104.21 138.6C105.708 139.816 107.398 140.776 109.21 141.44C111.227 142.166 113.357 142.529 115.5 142.51C117.782 142.528 120.047 142.121 122.18 141.31C124.204 140.543 126.059 139.388 127.64 137.91C129.216 136.435 130.466 134.647 131.31 132.66C132.172 130.627 132.611 128.439 132.6 126.23C132.588 124.087 132.146 121.969 131.3 120C130.742 118.697 130.016 117.474 129.14 116.36C129.98 115.15 130.43 113.713 130.43 112.24V108C130.43 106.095 129.674 104.268 128.328 102.919C126.981 101.571 125.155 100.813 123.25 100.81L123.18 100.9Z" fill="black"/>
<path d="M83.53 138.84C82.5681 138.837 81.6463 138.454 80.9661 137.774C80.2859 137.094 79.9026 136.172 79.9 135.21V132.84H71.19C70.2273 132.84 69.304 132.458 68.6232 131.777C67.9424 131.096 67.56 130.173 67.56 129.21V124.21C67.5535 123.441 67.7955 122.69 68.25 122.07L80 105.74C80.3426 105.266 80.794 104.882 81.316 104.619C81.8381 104.357 82.4156 104.223 83 104.23H88.67C89.6319 104.233 90.5537 104.616 91.2339 105.296C91.9141 105.976 92.2974 106.898 92.3 107.86V121H92.86C93.8219 121.003 94.7437 121.386 95.4239 122.066C96.1041 122.746 96.4874 123.668 96.49 124.63V129.21C96.4874 130.172 96.1041 131.094 95.4239 131.774C94.7437 132.454 93.8219 132.837 92.86 132.84H92.3V135.21C92.2974 136.172 91.9141 137.094 91.2339 137.774C90.5537 138.454 89.6319 138.837 88.67 138.84H83.53Z" fill="url(#paint9_linear_4_904)"/>
<path d="M88.66 107.23C88.8271 107.23 88.9873 107.296 89.1055 107.415C89.2236 107.533 89.29 107.693 89.29 107.86V124H92.85C93.0171 124 93.1773 124.066 93.2955 124.185C93.4136 124.303 93.48 124.463 93.48 124.63V129.21C93.48 129.377 93.4136 129.537 93.2955 129.655C93.1773 129.774 93.0171 129.84 92.85 129.84H89.29V135.21C89.29 135.377 89.2236 135.537 89.1055 135.655C88.9873 135.774 88.8271 135.84 88.66 135.84H83.53C83.3629 135.84 83.2027 135.774 83.0845 135.655C82.9664 135.537 82.9 135.377 82.9 135.21V129.84H71.19C71.0229 129.84 70.8627 129.774 70.7445 129.655C70.6264 129.537 70.56 129.377 70.56 129.21V124.21C70.5596 124.079 70.5978 123.95 70.67 123.84L82.48 107.45C82.5385 107.369 82.6151 107.304 82.7038 107.259C82.7924 107.214 82.8905 107.19 82.99 107.19H88.66M77.65 124H82.9V116.67L77.65 124ZM88.65 101.23H83C81.9464 101.232 80.9083 101.484 79.9711 101.965C79.034 102.447 78.2248 103.144 77.61 104L65.81 120.39C64.9944 121.519 64.5568 122.877 64.56 124.27V129.27C64.56 131.028 65.2585 132.715 66.5019 133.958C67.7453 135.201 69.4316 135.9 71.19 135.9H76.93C77.0889 137.541 77.8526 139.064 79.0726 140.173C80.2925 141.282 81.8813 141.898 83.53 141.9H88.66C90.3886 141.898 92.0482 141.222 93.2863 140.016C94.5243 138.809 95.2432 137.168 95.29 135.44C96.5259 134.949 97.5861 134.099 98.3331 132.999C99.0802 131.899 99.4797 130.6 99.48 129.27V124.69C99.4777 123.362 99.0772 122.065 98.3303 120.967C97.5834 119.869 96.5244 119.02 95.29 118.53V107.86C95.2874 106.102 94.588 104.418 93.3452 103.175C92.1024 101.932 90.4176 101.233 88.66 101.23H88.65Z" fill="black"/>
<path d="M99.06 139C98.1611 139.027 97.2662 138.87 96.4304 138.538C95.5945 138.206 94.8355 137.706 94.2 137.07C93.5849 136.432 93.1028 135.679 92.7817 134.853C92.4607 134.027 92.3071 133.146 92.33 132.26C92.3097 131.371 92.4653 130.486 92.7879 129.657C93.1106 128.828 93.5938 128.072 94.21 127.43C94.9949 126.61 95.9715 125.999 97.0517 125.651C98.1319 125.302 99.2818 125.228 100.398 125.435C101.514 125.642 102.56 126.124 103.444 126.836C104.327 127.549 105.02 128.47 105.459 129.516C105.897 130.563 106.069 131.702 105.957 132.832C105.846 133.961 105.455 135.045 104.82 135.986C104.186 136.927 103.327 137.695 102.321 138.221C101.316 138.747 100.195 139.015 99.06 139Z" fill="url(#paint10_linear_4_904)"/>
<path d="M99.06 128.5C99.5597 128.478 100.059 128.56 100.525 128.741C100.991 128.922 101.415 129.197 101.77 129.55C102.111 129.915 102.376 130.344 102.548 130.813C102.72 131.282 102.795 131.781 102.77 132.28C102.796 132.787 102.719 133.294 102.543 133.77C102.367 134.245 102.096 134.681 101.747 135.049C101.398 135.417 100.977 135.71 100.511 135.91C100.045 136.11 99.5424 136.213 99.035 136.213C98.5276 136.213 98.0255 136.11 97.5592 135.91C97.093 135.71 96.6723 135.417 96.3229 135.049C95.9735 134.681 95.7026 134.245 95.5268 133.77C95.3509 133.294 95.2738 132.787 95.3 132.28C95.2749 131.781 95.3504 131.282 95.5222 130.813C95.6941 130.344 95.9586 129.915 96.3 129.55C96.6531 129.198 97.0754 128.923 97.54 128.742C98.0047 128.562 98.5018 128.479 99 128.5M99 122.5C97.7006 122.473 96.4094 122.712 95.2057 123.202C94.002 123.692 92.9111 124.423 92 125.35C90.2402 127.224 89.2606 129.699 89.2606 132.27C89.2606 134.841 90.2402 137.316 92 139.19C93.3591 140.588 95.1061 141.546 97.0154 141.941C98.9247 142.336 100.909 142.15 102.711 141.406C104.513 140.662 106.051 139.395 107.126 137.768C108.2 136.141 108.763 134.23 108.74 132.28C108.771 130.991 108.541 129.708 108.063 128.51C107.585 127.312 106.87 126.223 105.96 125.309C105.049 124.395 103.963 123.675 102.767 123.192C101.571 122.709 100.29 122.474 99 122.5Z" fill="black"/>
<path d="M137 107.19C137.123 107.189 137.244 107.218 137.354 107.273C137.463 107.329 137.558 107.41 137.63 107.51L143.21 115.22C143.283 115.323 143.38 115.407 143.492 115.465C143.604 115.524 143.729 115.554 143.855 115.554C143.981 115.554 144.106 115.524 144.218 115.465C144.33 115.407 144.427 115.323 144.5 115.22L149.8 107.54C149.872 107.434 149.969 107.348 150.083 107.289C150.196 107.23 150.322 107.199 150.45 107.2H156.8C156.905 107.2 157.008 107.221 157.105 107.261C157.201 107.301 157.289 107.361 157.362 107.435C157.436 107.509 157.494 107.598 157.533 107.695C157.572 107.792 157.591 107.895 157.59 108V135.65C157.591 135.755 157.572 135.858 157.533 135.955C157.494 136.052 157.436 136.141 157.362 136.215C157.289 136.29 157.201 136.349 157.105 136.389C157.008 136.429 156.905 136.45 156.8 136.45H150.38C150.275 136.45 150.172 136.429 150.075 136.389C149.979 136.349 149.891 136.29 149.818 136.215C149.744 136.141 149.686 136.052 149.647 135.955C149.608 135.858 149.589 135.755 149.59 135.65V122.49C149.591 122.324 149.539 122.162 149.443 122.027C149.346 121.893 149.21 121.791 149.053 121.738C148.896 121.685 148.726 121.683 148.568 121.732C148.409 121.78 148.27 121.878 148.17 122.01L144.46 127.01C144.386 127.107 144.291 127.186 144.182 127.241C144.072 127.295 143.952 127.323 143.83 127.323C143.708 127.323 143.587 127.295 143.478 127.241C143.369 127.186 143.274 127.107 143.2 127.01L139.2 121.9C139.098 121.771 138.959 121.677 138.801 121.631C138.644 121.585 138.476 121.589 138.321 121.643C138.166 121.697 138.031 121.798 137.936 121.932C137.841 122.066 137.79 122.226 137.79 122.39V135.62C137.791 135.725 137.772 135.828 137.733 135.925C137.694 136.022 137.636 136.111 137.562 136.185C137.489 136.26 137.401 136.319 137.305 136.359C137.208 136.399 137.105 136.42 137 136.42H130.58C130.475 136.42 130.372 136.399 130.275 136.359C130.179 136.319 130.091 136.26 130.018 136.185C129.944 136.111 129.886 136.022 129.847 135.925C129.808 135.828 129.789 135.725 129.79 135.62V108C129.79 107.79 129.873 107.588 130.021 107.438C130.169 107.288 130.37 107.203 130.58 107.2L137 107.19Z" fill="url(#paint11_linear_4_904)"/>
<path d="M156.84 107.94V135.59V135.64H150.42V135.59V122.49C150.423 122.286 150.384 122.083 150.307 121.894C150.231 121.704 150.116 121.532 149.972 121.388C149.828 121.244 149.656 121.129 149.466 121.053C149.277 120.976 149.074 120.937 148.87 120.94C148.632 120.938 148.397 120.994 148.185 121.102C147.972 121.21 147.789 121.367 147.65 121.56L143.93 126.56L139.93 121.45C139.8 121.279 139.635 121.138 139.446 121.035C139.257 120.933 139.049 120.871 138.835 120.854C138.621 120.837 138.406 120.865 138.203 120.937C138.001 121.008 137.816 121.122 137.66 121.27C137.503 121.413 137.378 121.588 137.294 121.782C137.209 121.977 137.167 122.188 137.17 122.4V135.63V135.68H130.75C130.75 135.68 130.75 135.68 130.75 135.63V108H137.15L142.73 115.71C142.87 115.912 143.057 116.077 143.274 116.191C143.492 116.306 143.734 116.365 143.98 116.365C144.226 116.365 144.468 116.306 144.686 116.191C144.903 116.077 145.09 115.912 145.23 115.71L150.57 108.02H156.92M156.92 107.27H150.57C150.442 107.269 150.316 107.3 150.203 107.359C150.089 107.418 149.992 107.504 149.92 107.61L144.62 115.29C144.547 115.394 144.449 115.48 144.336 115.539C144.223 115.598 144.098 115.629 143.97 115.63C143.845 115.63 143.721 115.6 143.61 115.542C143.499 115.485 143.403 115.402 143.33 115.3L137.75 107.59C137.678 107.49 137.583 107.409 137.474 107.353C137.364 107.298 137.243 107.269 137.12 107.27H130.75C130.646 107.271 130.544 107.293 130.448 107.334C130.353 107.375 130.267 107.434 130.194 107.508C130.122 107.583 130.065 107.671 130.026 107.767C129.988 107.863 129.969 107.966 129.97 108.07V135.72C129.969 135.824 129.988 135.927 130.026 136.023C130.065 136.119 130.122 136.207 130.194 136.282C130.267 136.356 130.353 136.415 130.448 136.456C130.544 136.497 130.646 136.519 130.75 136.52H137.17C137.275 136.52 137.378 136.499 137.475 136.459C137.571 136.419 137.659 136.36 137.732 136.285C137.806 136.211 137.864 136.122 137.903 136.025C137.942 135.928 137.961 135.825 137.96 135.72V122.41C137.96 122.198 138.044 121.994 138.194 121.844C138.344 121.694 138.548 121.61 138.76 121.61C138.879 121.609 138.997 121.636 139.103 121.69C139.209 121.744 139.301 121.823 139.37 121.92L143.37 127.03C143.444 127.127 143.539 127.206 143.648 127.261C143.758 127.315 143.878 127.343 144 127.343C144.122 127.343 144.243 127.315 144.352 127.261C144.461 127.206 144.556 127.127 144.63 127.03L148.34 122.03C148.411 121.932 148.504 121.851 148.612 121.796C148.719 121.74 148.839 121.711 148.96 121.71C149.065 121.709 149.17 121.728 149.268 121.768C149.365 121.808 149.454 121.867 149.529 121.941C149.603 122.016 149.662 122.105 149.702 122.202C149.742 122.3 149.761 122.405 149.76 122.51V135.66C149.759 135.765 149.778 135.868 149.817 135.965C149.856 136.062 149.914 136.151 149.988 136.225C150.061 136.3 150.149 136.359 150.245 136.399C150.342 136.439 150.445 136.46 150.55 136.46H156.97C157.075 136.46 157.178 136.439 157.275 136.399C157.371 136.359 157.459 136.3 157.532 136.225C157.606 136.151 157.664 136.062 157.703 135.965C157.742 135.868 157.761 135.765 157.76 135.66V108C157.761 107.895 157.742 107.792 157.703 107.695C157.664 107.598 157.606 107.509 157.532 107.435C157.459 107.361 157.371 107.301 157.275 107.261C157.178 107.221 157.075 107.2 156.97 107.2L156.92 107.27Z" fill="url(#paint12_linear_4_904)"/>
<path d="M116.41 116.18C119.1 116.17 121.687 117.219 123.61 119.1C124.536 120.018 125.273 121.109 125.78 122.31C126.306 123.549 126.571 124.884 126.56 126.23C126.572 127.627 126.3 129.012 125.76 130.3C125.233 131.524 124.461 132.627 123.49 133.54C122.469 134.488 121.274 135.229 119.97 135.72C118.529 136.261 116.999 136.529 115.46 136.51C114.029 136.53 112.607 136.293 111.26 135.81C110.08 135.393 108.978 134.781 108 134C106.554 132.888 105.503 131.343 105 129.59C104.902 129.29 104.927 128.964 105.07 128.683C105.212 128.402 105.46 128.188 105.76 128.09C105.855 128.063 105.952 128.046 106.05 128.04L110.61 127.73C110.843 127.715 111.075 127.768 111.278 127.884C111.48 127.999 111.645 128.172 111.75 128.38C111.865 128.627 112.009 128.858 112.18 129.07C112.522 129.479 112.94 129.818 113.41 130.07C114.225 130.456 115.137 130.589 116.028 130.452C116.919 130.315 117.749 129.914 118.41 129.3C119.204 128.503 119.65 127.425 119.65 126.3C119.65 125.175 119.204 124.097 118.41 123.3C118.017 122.906 117.549 122.596 117.034 122.388C116.518 122.18 115.966 122.079 115.41 122.09C114.747 122.063 114.086 122.19 113.48 122.46C113.036 122.666 112.622 122.932 112.25 123.25C112.057 123.45 111.883 123.668 111.73 123.9C111.621 124.064 111.472 124.197 111.297 124.288C111.122 124.379 110.927 124.425 110.73 124.42H106.56C106.404 124.421 106.25 124.392 106.105 124.333C105.961 124.274 105.83 124.188 105.719 124.078C105.609 123.968 105.521 123.838 105.461 123.694C105.401 123.55 105.37 123.396 105.37 123.24C105.37 123.19 105.37 123.15 105.37 123.11L107 107.96C107.034 107.67 107.173 107.402 107.39 107.207C107.607 107.012 107.888 106.903 108.18 106.9H123.18C123.336 106.9 123.49 106.931 123.634 106.991C123.778 107.051 123.908 107.139 124.018 107.249C124.128 107.36 124.214 107.491 124.273 107.635C124.332 107.78 124.361 107.934 124.36 108.09V112.25C124.361 112.406 124.332 112.56 124.273 112.705C124.214 112.849 124.128 112.98 124.018 113.091C123.908 113.201 123.778 113.289 123.634 113.349C123.49 113.409 123.336 113.44 123.18 113.44H114C113.718 113.439 113.444 113.539 113.23 113.723C113.015 113.906 112.873 114.161 112.83 114.44L112.44 117.38C112.801 117.158 113.183 116.97 113.58 116.82C113.985 116.648 114.403 116.508 114.83 116.4C115.346 116.264 115.876 116.191 116.41 116.18Z" fill="url(#paint13_linear_4_904)"/>
<path d="M123.25 106.84C123.406 106.84 123.56 106.871 123.704 106.931C123.848 106.991 123.978 107.079 124.088 107.189C124.198 107.3 124.284 107.431 124.343 107.575C124.402 107.72 124.431 107.874 124.43 108.03V112.19C124.431 112.346 124.402 112.5 124.343 112.645C124.284 112.789 124.198 112.92 124.088 113.031C123.978 113.141 123.848 113.229 123.704 113.289C123.56 113.349 123.406 113.38 123.25 113.38H114C113.718 113.379 113.444 113.479 113.23 113.663C113.015 113.846 112.873 114.101 112.83 114.38L112.44 117.32C112.799 117.1 113.177 116.912 113.57 116.76C113.979 116.59 114.4 116.45 114.83 116.34C115.364 116.211 115.911 116.147 116.46 116.15C119.15 116.14 121.737 117.189 123.66 119.07C124.586 119.988 125.323 121.079 125.83 122.28C126.356 123.519 126.621 124.854 126.61 126.2C126.622 127.597 126.35 128.982 125.81 130.27C125.283 131.494 124.511 132.597 123.54 133.51C122.519 134.458 121.324 135.199 120.02 135.69C118.579 136.231 117.049 136.499 115.51 136.48C114.079 136.5 112.657 136.263 111.31 135.78C110.115 135.377 108.996 134.775 108 134C106.554 132.888 105.503 131.343 105 129.59C104.95 129.442 104.93 129.285 104.942 129.129C104.953 128.973 104.995 128.82 105.066 128.681C105.137 128.541 105.234 128.417 105.354 128.316C105.473 128.214 105.611 128.138 105.76 128.09C105.855 128.063 105.952 128.046 106.05 128.04L110.61 127.73H110.69C110.909 127.731 111.124 127.792 111.311 127.907C111.498 128.022 111.65 128.185 111.75 128.38C111.865 128.627 112.009 128.858 112.18 129.07C112.522 129.479 112.94 129.818 113.41 130.07C114.225 130.456 115.137 130.589 116.028 130.452C116.919 130.315 117.749 129.914 118.41 129.3C119.204 128.503 119.65 127.425 119.65 126.3C119.65 125.175 119.204 124.097 118.41 123.3C118.017 122.906 117.549 122.596 117.034 122.388C116.518 122.18 115.966 122.079 115.41 122.09C114.744 122.064 114.08 122.191 113.47 122.46C113.03 122.668 112.62 122.934 112.25 123.25C112.057 123.45 111.883 123.668 111.73 123.9C111.621 124.064 111.472 124.197 111.297 124.288C111.122 124.379 110.927 124.425 110.73 124.42H106.56C106.404 124.421 106.25 124.392 106.105 124.333C105.961 124.274 105.83 124.188 105.719 124.078C105.609 123.968 105.521 123.838 105.461 123.694C105.401 123.55 105.37 123.396 105.37 123.24C105.37 123.19 105.37 123.15 105.37 123.11L107 107.96C107.034 107.67 107.173 107.402 107.39 107.207C107.607 107.012 107.888 106.903 108.18 106.9H123.18M123.18 106.15H108.18C107.702 106.148 107.24 106.324 106.885 106.644C106.53 106.964 106.307 107.404 106.26 107.88L104.7 123C104.7 123.07 104.7 123.14 104.7 123.21C104.703 123.723 104.908 124.214 105.272 124.575C105.635 124.937 106.127 125.14 106.64 125.14H110.81C111.126 125.142 111.438 125.065 111.717 124.917C111.996 124.768 112.235 124.553 112.41 124.29C112.537 124.101 112.681 123.923 112.84 123.76C113.144 123.498 113.48 123.277 113.84 123.1C114.345 122.887 114.892 122.787 115.44 122.81C115.903 122.797 116.364 122.879 116.794 123.051C117.224 123.223 117.614 123.481 117.94 123.81C118.58 124.469 118.938 125.351 118.938 126.27C118.938 127.189 118.58 128.071 117.94 128.73C117.613 129.058 117.223 129.316 116.793 129.488C116.363 129.66 115.903 129.742 115.44 129.73C114.937 129.756 114.435 129.668 113.971 129.472C113.506 129.276 113.093 128.978 112.76 128.6C112.622 128.428 112.504 128.24 112.41 128.04C112.251 127.72 112.006 127.451 111.702 127.264C111.398 127.077 111.047 126.978 110.69 126.98H110.56L106 127.29C105.84 127.3 105.682 127.33 105.53 127.38C105.041 127.538 104.635 127.884 104.4 128.341C104.166 128.799 104.123 129.331 104.28 129.82C104.48 130.473 104.741 131.106 105.06 131.71C105.676 132.812 106.498 133.786 107.48 134.58C108.525 135.441 109.708 136.117 110.98 136.58C112.41 137.095 113.92 137.349 115.44 137.33C117.072 137.347 118.692 137.062 120.22 136.49C121.612 135.963 122.888 135.172 123.98 134.16C125.028 133.176 125.859 131.984 126.42 130.66C127.008 129.282 127.304 127.798 127.29 126.3C127.301 124.851 127.016 123.414 126.45 122.08C125.902 120.791 125.107 119.623 124.11 118.64C123.094 117.633 121.889 116.837 120.564 116.298C119.239 115.76 117.82 115.488 116.39 115.5C115.777 115.499 115.166 115.57 114.57 115.71C114.138 115.823 113.714 115.963 113.3 116.13L113.5 114.58C113.512 114.475 113.563 114.378 113.642 114.308C113.722 114.238 113.824 114.199 113.93 114.2H123.23C123.743 114.197 124.234 113.992 124.595 113.628C124.957 113.265 125.16 112.773 125.16 112.26V108C125.16 107.487 124.957 106.995 124.595 106.632C124.234 106.268 123.743 106.063 123.23 106.06L123.18 106.15Z" fill="url(#paint14_linear_4_904)"/>
<path d="M82.9 129.84H71.19C71.0229 129.84 70.8627 129.774 70.7445 129.655C70.6264 129.537 70.56 129.377 70.56 129.21V124.21C70.5596 124.079 70.5978 123.95 70.67 123.84L82.48 107.45C82.5379 107.369 82.6144 107.303 82.7032 107.258C82.792 107.212 82.8904 107.189 82.99 107.19H88.66C88.8271 107.19 88.9873 107.256 89.1055 107.375C89.2236 107.493 89.29 107.653 89.29 107.82V124H92.85C93.0171 124 93.1773 124.066 93.2955 124.185C93.4136 124.303 93.48 124.463 93.48 124.63V129.21C93.48 129.377 93.4136 129.537 93.2955 129.655C93.1773 129.774 93.0171 129.84 92.85 129.84H89.29V135.21C89.29 135.377 89.2236 135.537 89.1055 135.655C88.9873 135.774 88.8271 135.84 88.66 135.84H83.53C83.3629 135.84 83.2027 135.774 83.0845 135.655C82.9664 135.537 82.9 135.377 82.9 135.21V129.84ZM82.9 124V116.68L77.65 124H82.9Z" fill="url(#paint15_linear_4_904)"/>
<path d="M88.66 107.23C88.8271 107.23 88.9873 107.296 89.1055 107.415C89.2236 107.533 89.29 107.693 89.29 107.86V124H92.85C93.0171 124 93.1773 124.066 93.2955 124.185C93.4136 124.303 93.48 124.463 93.48 124.63V129.21C93.48 129.377 93.4136 129.537 93.2955 129.655C93.1773 129.774 93.0171 129.84 92.85 129.84H89.29V135.21C89.29 135.377 89.2236 135.537 89.1055 135.655C88.9873 135.774 88.8271 135.84 88.66 135.84H83.53C83.3629 135.84 83.2027 135.774 83.0845 135.655C82.9664 135.537 82.9 135.377 82.9 135.21V129.84H71.19C71.0229 129.84 70.8627 129.774 70.7445 129.655C70.6264 129.537 70.56 129.377 70.56 129.21V124.21C70.5596 124.079 70.5978 123.95 70.67 123.84L82.48 107.45C82.5384 107.369 82.6151 107.304 82.7038 107.259C82.7924 107.214 82.8905 107.19 82.99 107.19H88.66M77.65 124H82.9V116.68L77.65 124ZM88.65 106.48H83C82.7815 106.48 82.5661 106.531 82.3714 106.63C82.1766 106.729 82.0082 106.873 81.88 107.05L70.08 123.44C69.9108 123.676 69.8199 123.959 69.82 124.25V129.25C69.82 129.616 69.9654 129.967 70.2242 130.226C70.483 130.485 70.834 130.63 71.2 130.63H82.2V135.25C82.2 135.616 82.3454 135.967 82.6042 136.226C82.863 136.485 83.214 136.63 83.58 136.63H88.71C89.0672 136.607 89.4014 136.446 89.6421 136.181C89.8828 135.916 90.0111 135.568 90 135.21V130.59H92.81C93.176 130.59 93.527 130.445 93.7858 130.186C94.0446 129.927 94.19 129.576 94.19 129.21V124.63C94.19 124.264 94.0446 123.913 93.7858 123.654C93.527 123.395 93.176 123.25 92.81 123.25H90V107.86C90 107.494 89.8546 107.143 89.5958 106.884C89.337 106.625 88.986 106.48 88.62 106.48H88.65ZM79.1 123.25L82.1 119.01V123.25H79.1Z" fill="url(#paint16_linear_4_904)"/>
<path d="M95.33 132.28C95.3049 131.781 95.3805 131.282 95.5523 130.813C95.7241 130.344 95.9886 129.915 96.33 129.55C97.068 128.873 98.0333 128.497 99.035 128.497C100.037 128.497 101.002 128.873 101.74 129.55C102.081 129.915 102.346 130.344 102.518 130.813C102.69 131.282 102.765 131.781 102.74 132.28C102.766 132.787 102.689 133.294 102.513 133.77C102.337 134.245 102.066 134.681 101.717 135.049C101.368 135.417 100.947 135.71 100.481 135.91C100.015 136.11 99.5124 136.213 99.005 136.213C98.4976 136.213 97.9955 136.11 97.5292 135.91C97.063 135.71 96.6424 135.417 96.2929 135.049C95.9435 134.681 95.6727 134.245 95.4968 133.77C95.3209 133.294 95.2438 132.787 95.27 132.28H95.33Z" fill="url(#paint17_linear_4_904)"/>
<path d="M99.06 128.5C99.5598 128.478 100.059 128.56 100.525 128.741C100.991 128.922 101.415 129.197 101.77 129.55C102.111 129.915 102.376 130.344 102.548 130.813C102.72 131.282 102.795 131.781 102.77 132.28C102.796 132.787 102.719 133.294 102.543 133.769C102.367 134.245 102.096 134.681 101.747 135.049C101.398 135.417 100.977 135.71 100.511 135.91C100.045 136.11 99.5424 136.213 99.035 136.213C98.5276 136.213 98.0255 136.11 97.5592 135.91C97.093 135.71 96.6724 135.417 96.3229 135.049C95.9735 134.681 95.7027 134.245 95.5268 133.769C95.351 133.294 95.2738 132.787 95.3 132.28C95.2749 131.781 95.3505 131.282 95.5223 130.813C95.6941 130.344 95.9586 129.915 96.3 129.55C96.6532 129.198 97.0754 128.923 97.5401 128.742C98.0048 128.562 98.5019 128.479 99 128.5M99 127.75C98.413 127.733 97.8287 127.835 97.2821 128.05C96.7356 128.265 96.2383 128.588 95.82 129C95.0271 129.893 94.5892 131.046 94.5892 132.24C94.5892 133.434 95.0271 134.587 95.82 135.48C96.4482 136.137 97.2604 136.588 98.1497 136.774C99.0391 136.96 99.964 136.872 100.803 136.523C101.641 136.173 102.355 135.578 102.849 134.815C103.343 134.053 103.594 133.158 103.57 132.25C103.591 131.653 103.492 131.058 103.279 130.499C103.066 129.941 102.743 129.431 102.33 129C101.906 128.574 101.399 128.24 100.839 128.019C100.28 127.799 99.6808 127.697 99.08 127.72L99 127.75Z" fill="url(#paint18_linear_4_904)"/>
</g>
<defs>
<linearGradient id="paint0_linear_4_904" x1="140.71" y1="-16.2" x2="91.83" y2="261.03" gradientUnits="userSpaceOnUse">
<stop offset="0.25" stop-color="#F6E594"/>
<stop offset="0.38" stop-color="#F5E492"/>
<stop offset="0.43" stop-color="#F2DE8B"/>
<stop offset="0.47" stop-color="#ECD580"/>
<stop offset="0.49" stop-color="#E4C86F"/>
<stop offset="0.5" stop-color="#E2C46A"/>
<stop offset="0.61" stop-color="#C89E3F"/>
<stop offset="0.72" stop-color="#E8D17E"/>
<stop offset="0.76" stop-color="#E5CE7C"/>
<stop offset="0.79" stop-color="#DCC574"/>
<stop offset="0.81" stop-color="#CDB568"/>
<stop offset="0.83" stop-color="#B79F57"/>
<stop offset="0.86" stop-color="#9B8240"/>
<stop offset="0.88" stop-color="#684E18"/>
</linearGradient>
<linearGradient id="paint1_linear_4_904" x1="140.67" y1="-15.9801" x2="91.86" y2="260.81" gradientUnits="userSpaceOnUse">
<stop offset="0.25" stop-color="#F6E594"/>
<stop offset="0.38" stop-color="#F5E492"/>
<stop offset="0.43" stop-color="#F2DE8B"/>
<stop offset="0.47" stop-color="#ECD580"/>
<stop offset="0.49" stop-color="#E4C86F"/>
<stop offset="0.5" stop-color="#E2C46A"/>
<stop offset="0.61" stop-color="#C89E3F"/>
<stop offset="0.72" stop-color="#E8D17E"/>
<stop offset="0.76" stop-color="#E5CE7C"/>
<stop offset="0.79" stop-color="#DCC574"/>
<stop offset="0.81" stop-color="#CDB568"/>
<stop offset="0.83" stop-color="#B79F57"/>
<stop offset="0.86" stop-color="#9B8240"/>
<stop offset="0.88" stop-color="#684E18"/>
</linearGradient>
<linearGradient id="paint2_linear_4_904" x1="146.14" y1="16.5001" x2="67.15" y2="233.51" gradientUnits="userSpaceOnUse">
<stop stop-color="#F6E594"/>
<stop offset="0.33" stop-color="#F6E492"/>
<stop offset="0.45" stop-color="#F4DF8B"/>
<stop offset="0.53" stop-color="#F2D880"/>
<stop offset="0.6" stop-color="#EFCD6F"/>
<stop offset="0.65" stop-color="#EBC15C"/>
<stop offset="0.7" stop-color="#C89D47"/>
<stop offset="0.82" stop-color="#7A4D18"/>
<stop offset="0.97" stop-color="#C1914C"/>
</linearGradient>
<linearGradient id="paint3_linear_4_904" x1="166.09" y1="34.2" x2="53.02" y2="230.04" gradientUnits="userSpaceOnUse">
<stop stop-color="#FFFFAD"/>
<stop offset="0.26" stop-color="#F6E594"/>
<stop offset="0.34" stop-color="#F5E492"/>
<stop offset="0.37" stop-color="#F2DE8B"/>
<stop offset="0.39" stop-color="#ECD580"/>
<stop offset="0.41" stop-color="#E2C46A"/>
<stop offset="0.51" stop-color="#A68C46"/>
<stop offset="0.66" stop-color="#564217"/>
<stop offset="0.68" stop-color="#75612D"/>
<stop offset="0.73" stop-color="#C7B167"/>
<stop offset="0.75" stop-color="#E8D17E"/>
<stop offset="0.78" stop-color="#E5CE7C"/>
<stop offset="0.81" stop-color="#DDC574"/>
<stop offset="0.83" stop-color="#CFB568"/>
<stop offset="0.85" stop-color="#BB9F56"/>
<stop offset="0.86" stop-color="#A2823F"/>
<stop offset="0.88" stop-color="#825E23"/>
<stop offset="0.9" stop-color="#5B3200"/>
</linearGradient>
<linearGradient id="paint4_linear_4_904" x1="116.21" y1="155.95" x2="116.21" y2="166.49" gradientUnits="userSpaceOnUse">
<stop stop-color="#F6E594"/>
<stop offset="0.21" stop-color="#F5E492"/>
<stop offset="0.29" stop-color="#F2DE8B"/>
<stop offset="0.34" stop-color="#ECD580"/>
<stop offset="0.39" stop-color="#E4C86F"/>
<stop offset="0.4" stop-color="#E2C46A"/>
<stop offset="0.49" stop-color="#BA9D4E"/>
<stop offset="0.69" stop-color="#6A4E17"/>
<stop offset="0.72" stop-color="#6F531B"/>
<stop offset="0.75" stop-color="#7D6227"/>
<stop offset="0.79" stop-color="#957B3A"/>
<stop offset="0.83" stop-color="#B69D55"/>
<stop offset="0.86" stop-color="#E0C977"/>
<stop offset="0.87" stop-color="#E8D17E"/>
<stop offset="0.9" stop-color="#E5CE7C"/>
<stop offset="0.92" stop-color="#DCC574"/>
<stop offset="0.94" stop-color="#CDB568"/>
<stop offset="0.96" stop-color="#B79F57"/>
<stop offset="0.98" stop-color="#9B8240"/>
<stop offset="0.99" stop-color="#785F25"/>
<stop offset="1" stop-color="#684E18"/>
</linearGradient>
<linearGradient id="paint5_linear_4_904" x1="116.34" y1="76.2301" x2="116.34" y2="86.7701" gradientUnits="userSpaceOnUse">
<stop stop-color="#F6E594"/>
<stop offset="0.21" stop-color="#F5E492"/>
<stop offset="0.29" stop-color="#F2DE8B"/>
<stop offset="0.34" stop-color="#ECD580"/>
<stop offset="0.39" stop-color="#E4C86F"/>
<stop offset="0.4" stop-color="#E2C46A"/>
<stop offset="0.49" stop-color="#BA9D4E"/>
<stop offset="0.69" stop-color="#6A4E17"/>
<stop offset="0.72" stop-color="#6F531B"/>
<stop offset="0.75" stop-color="#7D6227"/>
<stop offset="0.79" stop-color="#957B3A"/>
<stop offset="0.83" stop-color="#B69D55"/>
<stop offset="0.86" stop-color="#E0C977"/>
<stop offset="0.87" stop-color="#E8D17E"/>
<stop offset="0.9" stop-color="#E5CE7C"/>
<stop offset="0.92" stop-color="#DCC574"/>
<stop offset="0.94" stop-color="#CDB568"/>
<stop offset="0.96" stop-color="#B79F57"/>
<stop offset="0.98" stop-color="#9B8240"/>
<stop offset="0.99" stop-color="#785F25"/>
<stop offset="1" stop-color="#684E18"/>
</linearGradient>
<linearGradient id="paint6_linear_4_904" x1="104.46" y1="106.21" x2="94.45" y2="123.54" gradientUnits="userSpaceOnUse">
<stop stop-color="#F6E594"/>
<stop offset="0.36" stop-color="#F6E492"/>
<stop offset="0.5" stop-color="#F4DF8B"/>
<stop offset="0.59" stop-color="#F2D880"/>
<stop offset="0.66" stop-color="#EFCD6F"/>
<stop offset="0.72" stop-color="#EBC15C"/>
<stop offset="0.77" stop-color="#C89D47"/>
<stop offset="0.88" stop-color="#7A4D18"/>
<stop offset="0.95" stop-color="#C1914C"/>
<stop offset="0.96" stop-color="#BE8F4A"/>
<stop offset="0.97" stop-color="#B58742"/>
<stop offset="0.98" stop-color="#A57B36"/>
<stop offset="0.99" stop-color="#8F6924"/>
<stop offset="1" stop-color="#624600"/>
</linearGradient>
<linearGradient id="paint7_linear_4_904" x1="143.76" y1="95.0601" x2="143.76" y2="169.17" gradientUnits="userSpaceOnUse">
<stop stop-color="#F6E594"/>
<stop offset="0.36" stop-color="#F6E492"/>
<stop offset="0.5" stop-color="#F4DF8B"/>
<stop offset="0.59" stop-color="#F2D880"/>
<stop offset="0.66" stop-color="#EFCD6F"/>
<stop offset="0.72" stop-color="#EBC15C"/>
<stop offset="0.77" stop-color="#C89D47"/>
<stop offset="0.88" stop-color="#7A4D18"/>
<stop offset="0.95" stop-color="#C1914C"/>
<stop offset="0.96" stop-color="#BE8F4A"/>
<stop offset="0.97" stop-color="#B58742"/>
<stop offset="0.98" stop-color="#A57B36"/>
<stop offset="0.99" stop-color="#8F6924"/>
<stop offset="1" stop-color="#624600"/>
</linearGradient>
<linearGradient id="paint8_linear_4_904" x1="115.76" y1="94.6001" x2="115.76" y2="169.58" gradientUnits="userSpaceOnUse">
<stop stop-color="#F6E594"/>
<stop offset="0.36" stop-color="#F6E492"/>
<stop offset="0.5" stop-color="#F4DF8B"/>
<stop offset="0.59" stop-color="#F2D880"/>
<stop offset="0.66" stop-color="#EFCD6F"/>
<stop offset="0.72" stop-color="#EBC15C"/>
<stop offset="0.77" stop-color="#C89D47"/>
<stop offset="0.88" stop-color="#7A4D18"/>
<stop offset="0.95" stop-color="#C1914C"/>
<stop offset="0.96" stop-color="#BE8F4A"/>
<stop offset="0.97" stop-color="#B58742"/>
<stop offset="0.98" stop-color="#A57B36"/>
<stop offset="0.99" stop-color="#8F6924"/>
<stop offset="1" stop-color="#624600"/>
</linearGradient>
<linearGradient id="paint9_linear_4_904" x1="82.02" y1="95.2701" x2="82.02" y2="168.01" gradientUnits="userSpaceOnUse">
<stop stop-color="#F6E594"/>
<stop offset="0.36" stop-color="#F6E492"/>
<stop offset="0.5" stop-color="#F4DF8B"/>
<stop offset="0.59" stop-color="#F2D880"/>
<stop offset="0.66" stop-color="#EFCD6F"/>
<stop offset="0.72" stop-color="#EBC15C"/>
<stop offset="0.77" stop-color="#C89D47"/>
<stop offset="0.88" stop-color="#7A4D18"/>
<stop offset="0.95" stop-color="#C1914C"/>
<stop offset="0.96" stop-color="#BE8F4A"/>
<stop offset="0.97" stop-color="#B58742"/>
<stop offset="0.98" stop-color="#A57B36"/>
<stop offset="0.99" stop-color="#8F6924"/>
<stop offset="1" stop-color="#624600"/>
</linearGradient>
<linearGradient id="paint10_linear_4_904" x1="99.06" y1="122" x2="99.06" y2="150.41" gradientUnits="userSpaceOnUse">
<stop stop-color="#F6E594"/>
<stop offset="0.36" stop-color="#F6E492"/>
<stop offset="0.5" stop-color="#F4DF8B"/>
<stop offset="0.59" stop-color="#F2D880"/>
<stop offset="0.66" stop-color="#EFCD6F"/>
<stop offset="0.72" stop-color="#EBC15C"/>
<stop offset="0.77" stop-color="#C89D47"/>
<stop offset="0.88" stop-color="#7A4D18"/>
<stop offset="0.95" stop-color="#C1914C"/>
<stop offset="0.96" stop-color="#BE8F4A"/>
<stop offset="0.97" stop-color="#B58742"/>
<stop offset="0.98" stop-color="#A57B36"/>
<stop offset="0.99" stop-color="#8F6924"/>
<stop offset="1" stop-color="#624600"/>
</linearGradient>
<linearGradient id="paint11_linear_4_904" x1="143.73" y1="102.08" x2="143.8" y2="150.72" gradientUnits="userSpaceOnUse">
<stop stop-color="#F6E594"/>
<stop offset="0.17" stop-color="#F6E492"/>
<stop offset="0.24" stop-color="#F4DF8B"/>
<stop offset="0.28" stop-color="#F2D880"/>
<stop offset="0.32" stop-color="#EFCD6F"/>
<stop offset="0.35" stop-color="#EBC15C"/>
<stop offset="0.4" stop-color="#C89D47"/>
<stop offset="0.54" stop-color="#7A4D18"/>
<stop offset="0.66" stop-color="#B68644"/>
<stop offset="0.77" stop-color="#C1914C"/>
<stop offset="0.8" stop-color="#C3944E"/>
<stop offset="0.82" stop-color="#C99D56"/>
<stop offset="0.84" stop-color="#D3AD63"/>
<stop offset="0.86" stop-color="#E2C375"/>
<stop offset="0.88" stop-color="#F5E08C"/>
</linearGradient>
<linearGradient id="paint12_linear_4_904" x1="143.76" y1="107.19" x2="143.76" y2="136.44" gradientUnits="userSpaceOnUse">
<stop stop-color="#FFF7AB"/>
<stop offset="0.41" stop-color="#F6E594"/>
<stop offset="0.57" stop-color="#F6E492"/>
<stop offset="0.62" stop-color="#F4DF8B"/>
<stop offset="0.66" stop-color="#F2D880"/>
<stop offset="0.7" stop-color="#EFCD6F"/>
<stop offset="0.72" stop-color="#EBC15C"/>
<stop offset="0.77" stop-color="#C89D47"/>
<stop offset="0.88" stop-color="#7A4D18"/>
<stop offset="0.91" stop-color="#C1914C"/>
<stop offset="0.92" stop-color="#BE8E4A"/>
<stop offset="0.94" stop-color="#B58643"/>
<stop offset="0.95" stop-color="#A57838"/>
<stop offset="0.96" stop-color="#724A14"/>
<stop offset="0.97" stop-color="#553000"/>
</linearGradient>
<linearGradient id="paint13_linear_4_904" x1="115.76" y1="151.35" x2="115.76" y2="110.98" gradientUnits="userSpaceOnUse">
<stop stop-color="#F6E594"/>
<stop offset="0.17" stop-color="#F6E492"/>
<stop offset="0.24" stop-color="#F4DF8B"/>
<stop offset="0.28" stop-color="#F2D880"/>
<stop offset="0.32" stop-color="#EFCD6F"/>
<stop offset="0.35" stop-color="#EBC15C"/>
<stop offset="0.4" stop-color="#C89D47"/>
<stop offset="0.54" stop-color="#7A4D18"/>
<stop offset="0.66" stop-color="#B68644"/>
<stop offset="0.88" stop-color="#F5E08C"/>
</linearGradient>
<linearGradient id="paint14_linear_4_904" x1="115.76" y1="106.09" x2="115.76" y2="137.26" gradientUnits="userSpaceOnUse">
<stop stop-color="#FFF7AB"/>
<stop offset="0.41" stop-color="#F6E594"/>
<stop offset="0.57" stop-color="#F6E492"/>
<stop offset="0.62" stop-color="#F4DF8B"/>
<stop offset="0.66" stop-color="#F2D880"/>
<stop offset="0.7" stop-color="#EFCD6F"/>
<stop offset="0.72" stop-color="#EBC15C"/>
<stop offset="0.77" stop-color="#C89D47"/>
<stop offset="0.88" stop-color="#7A4D18"/>
<stop offset="0.91" stop-color="#C1914C"/>
<stop offset="0.92" stop-color="#BE8E4A"/>
<stop offset="0.94" stop-color="#B58643"/>
<stop offset="0.95" stop-color="#A57838"/>
<stop offset="0.96" stop-color="#724A14"/>
<stop offset="0.97" stop-color="#553000"/>
</linearGradient>
<linearGradient id="paint15_linear_4_904" x1="82.02" y1="107.23" x2="82.02" y2="140.08" gradientUnits="userSpaceOnUse">
<stop stop-color="#F6E594"/>
<stop offset="0.17" stop-color="#F6E492"/>
<stop offset="0.24" stop-color="#F4DF8B"/>
<stop offset="0.28" stop-color="#F2D880"/>
<stop offset="0.32" stop-color="#EFCD6F"/>
<stop offset="0.35" stop-color="#EBC15C"/>
<stop offset="0.4" stop-color="#C89D47"/>
<stop offset="0.54" stop-color="#7A4D18"/>
<stop offset="0.66" stop-color="#B68644"/>
<stop offset="0.77" stop-color="#C1914C"/>
<stop offset="0.8" stop-color="#C3944E"/>
<stop offset="0.82" stop-color="#C99D56"/>
<stop offset="0.84" stop-color="#D3AD63"/>
<stop offset="0.86" stop-color="#E2C375"/>
<stop offset="0.88" stop-color="#F5E08C"/>
</linearGradient>
<linearGradient id="paint16_linear_4_904" x1="82.02" y1="106.48" x2="82.02" y2="136.59" gradientUnits="userSpaceOnUse">
<stop stop-color="#FFF7AB"/>
<stop offset="0.41" stop-color="#F6E594"/>
<stop offset="0.57" stop-color="#F6E492"/>
<stop offset="0.62" stop-color="#F4DF8B"/>
<stop offset="0.66" stop-color="#F2D880"/>
<stop offset="0.7" stop-color="#EFCD6F"/>
<stop offset="0.72" stop-color="#EBC15C"/>
<stop offset="0.77" stop-color="#C89D47"/>
<stop offset="0.88" stop-color="#7A4D18"/>
<stop offset="0.91" stop-color="#C1914C"/>
<stop offset="0.92" stop-color="#BE8E4A"/>
<stop offset="0.94" stop-color="#B58643"/>
<stop offset="0.95" stop-color="#A57838"/>
<stop offset="0.96" stop-color="#724A14"/>
<stop offset="0.97" stop-color="#553000"/>
</linearGradient>
<linearGradient id="paint17_linear_4_904" x1="99.06" y1="126.56" x2="99.06" y2="142.35" gradientUnits="userSpaceOnUse">
<stop stop-color="#F6E594"/>
<stop offset="0.17" stop-color="#F6E492"/>
<stop offset="0.24" stop-color="#F4DF8B"/>
<stop offset="0.28" stop-color="#F2D880"/>
<stop offset="0.32" stop-color="#EFCD6F"/>
<stop offset="0.35" stop-color="#EBC15C"/>
<stop offset="0.4" stop-color="#C89D47"/>
<stop offset="0.54" stop-color="#7A4D18"/>
<stop offset="0.66" stop-color="#B68644"/>
<stop offset="0.77" stop-color="#C1914C"/>
<stop offset="0.8" stop-color="#C3944E"/>
<stop offset="0.82" stop-color="#C99D56"/>
<stop offset="0.84" stop-color="#D3AD63"/>
<stop offset="0.86" stop-color="#E2C375"/>
<stop offset="0.88" stop-color="#F5E08C"/>
</linearGradient>
<linearGradient id="paint18_linear_4_904" x1="99.06" y1="127.75" x2="99.06" y2="136.77" gradientUnits="userSpaceOnUse">
<stop stop-color="#FFF7AB"/>
<stop offset="0.41" stop-color="#F6E594"/>
<stop offset="0.57" stop-color="#F6E492"/>
<stop offset="0.62" stop-color="#F4DF8B"/>
<stop offset="0.66" stop-color="#F2D880"/>
<stop offset="0.7" stop-color="#EFCD6F"/>
<stop offset="0.72" stop-color="#EBC15C"/>
<stop offset="0.77" stop-color="#C89D47"/>
<stop offset="0.88" stop-color="#7A4D18"/>
<stop offset="0.91" stop-color="#C1914C"/>
<stop offset="0.92" stop-color="#BE8E4A"/>
<stop offset="0.94" stop-color="#B58643"/>
<stop offset="0.95" stop-color="#A57838"/>
<stop offset="0.96" stop-color="#724A14"/>
<stop offset="0.97" stop-color="#553000"/>
</linearGradient>
</defs>
</svg>
