<svg width="233" height="232" viewBox="0 0 233 232" fill="none" xmlns="http://www.w3.org/2000/svg">
<mask id="mask0_4_547" style="mask-type:luminance" maskUnits="userSpaceOnUse" x="0" y="0" width="233" height="232">
<path d="M232.57 0H0V231.49H232.57V0Z" fill="white"/>
</mask>
<g mask="url(#mask0_4_547)">
<path d="M115.37 24.78L145.65 86.13L213.35 95.97L164.36 143.72L175.92 211.15L115.37 179.31L54.82 211.15L66.38 143.72L17.39 95.97L85.09 86.13L115.37 24.78Z" fill="black"/>
<mask id="mask1_4_547" style="mask-type:luminance" maskUnits="userSpaceOnUse" x="18" y="24" width="197" height="188">
<path d="M116.37 24.78L146.65 86.13L214.35 95.97L165.36 143.72L176.92 211.15L116.37 179.31L55.82 211.15L67.38 143.72L18.39 95.97L86.09 86.13L116.37 24.78Z" fill="white"/>
</mask>
<g mask="url(#mask1_4_547)">
<path d="M115.69 264.47V126.05L72.92 257.7L71.82 257.34L114.6 125.69L33.23 237.68L32.3 237L113.67 125.02L1.68004 206.38L1.00004 205.45L112.99 124.08L-18.66 166.86L-19.02 165.77L112.64 122.99H-25.79V121.84H112.64L-19.02 79.06L-18.66 77.97L112.99 120.75L1.00004 39.38L1.68004 38.45L113.67 119.82L32.3 7.82998L33.23 7.14998L114.6 119.14L71.82 -12.51L72.92 -12.86L115.69 118.79V-19.64H116.84V118.79L159.62 -12.86L160.71 -12.51L117.94 119.14L199.3 7.14998L200.23 7.82998L118.87 119.82L230.85 38.45L231.53 39.38L119.54 120.75L251.19 77.97L251.55 79.06L119.9 121.84H258.32V122.99H119.9L251.55 165.77L251.19 166.86L119.54 124.08L231.53 205.45L230.85 206.38L118.87 125.02L200.23 237L199.3 237.68L117.94 125.69L160.71 257.34L159.62 257.7L116.84 126.05V264.47H115.69Z" fill="url(#paint0_linear_4_547)"/>
<path d="M258.12 122.04H118.63L251.3 78.94L251.06 78.22L118.4 121.33L231.25 39.34L230.81 38.73L117.96 120.72L199.95 7.87L199.34 7.43L117.36 120.28L160.46 -12.38L159.75 -12.61L116.64 120.05V-19.44H115.89V120.05L72.79 -12.61L72.07 -12.38L115.18 120.28L33.19 7.43L32.58 7.87L114.57 120.72L1.72005 38.73L1.28005 39.34L114.13 121.33L-18.53 78.22L-18.76 78.94L113.9 122.04H-25.59V122.79H113.9L-18.76 165.9L-18.53 166.61L114.13 123.5L1.28005 205.49L1.72005 206.1L114.57 124.11L32.58 236.96L33.19 237.4L115.18 124.55L72.07 257.21L72.79 257.44L115.89 124.78V264.27H116.64V124.78L159.75 257.44L160.46 257.21L117.36 124.55L199.34 237.4L199.95 236.96L117.96 124.11L230.81 206.1L231.25 205.49L118.4 123.5L251.06 166.61L251.3 165.9L118.63 122.79H258.12V122.04Z" fill="url(#paint1_linear_4_547)"/>
</g>
<path d="M185.47 225.46L117.18 187.89C116.884 187.727 116.552 187.642 116.215 187.642C115.878 187.642 115.546 187.727 115.25 187.89L47 225.45C46.6758 225.642 46.304 225.739 45.9273 225.729C45.5507 225.719 45.1845 225.603 44.871 225.394C44.5575 225.185 44.3094 224.891 44.1553 224.547C44.0012 224.203 43.9474 223.823 44 223.45L55.16 148.45C55.2051 148.143 55.178 147.829 55.0808 147.534C54.9836 147.239 54.819 146.97 54.6 146.75L1.47998 93.54C1.22288 93.2856 1.03956 92.9663 0.949542 92.616C0.859522 92.2658 0.866168 91.8976 0.968772 91.5508C1.07137 91.204 1.26609 90.8915 1.53221 90.6466C1.79832 90.4017 2.12587 90.2335 2.47998 90.16L75.48 75.39C75.7641 75.3312 76.032 75.2113 76.2651 75.0386C76.4982 74.8659 76.691 74.6446 76.83 74.39L114.55 6.79999C114.721 6.48249 114.975 6.21725 115.285 6.0324C115.595 5.84754 115.949 5.74994 116.31 5.74994C116.671 5.74994 117.025 5.84754 117.335 6.0324C117.645 6.21725 117.899 6.48249 118.07 6.79999L154.65 75.28C154.794 75.5404 154.995 75.7652 155.237 75.9382C155.479 76.1112 155.757 76.228 156.05 76.28L230 90C230.36 90.0652 230.696 90.228 230.97 90.4707C231.244 90.7134 231.446 91.0266 231.554 91.3763C231.662 91.7259 231.673 92.0986 231.584 92.4537C231.495 92.8087 231.31 93.1326 231.05 93.39L177.55 146.61C177.328 146.833 177.162 147.104 177.064 147.403C176.967 147.702 176.942 148.019 176.99 148.33L188.37 223.33C188.438 223.699 188.4 224.08 188.262 224.429C188.123 224.778 187.889 225.081 187.587 225.303C187.284 225.525 186.925 225.658 186.551 225.685C186.177 225.713 185.802 225.635 185.47 225.46ZM27.81 101.46L68.46 142.08C68.6784 142.304 68.841 142.577 68.9348 142.876C69.0286 143.174 69.0509 143.491 69 143.8L60.74 199.36C60.6954 199.725 60.7521 200.094 60.9039 200.429C61.0557 200.763 61.2966 201.05 61.6003 201.256C61.904 201.463 62.2587 201.582 62.6256 201.6C62.9924 201.618 63.3572 201.535 63.68 201.36L115.23 173C115.526 172.837 115.858 172.752 116.195 172.752C116.532 172.752 116.864 172.837 117.16 173L168.65 201.33C168.973 201.505 169.338 201.588 169.704 201.57C170.071 201.552 170.426 201.433 170.73 201.226C171.033 201.02 171.274 200.733 171.426 200.399C171.578 200.064 171.635 199.695 171.59 199.33L163.17 143.8C163.123 143.491 163.15 143.175 163.247 142.878C163.344 142.581 163.51 142.311 163.73 142.09L204.33 101.69C204.587 101.436 204.77 101.116 204.86 100.766C204.95 100.416 204.944 100.048 204.841 99.7008C204.739 99.354 204.544 99.0415 204.278 98.7966C204.012 98.5517 203.684 98.3835 203.33 98.31L147.53 88C147.237 87.948 146.959 87.8312 146.717 87.6582C146.475 87.4852 146.274 87.2604 146.13 87L117.81 34C117.638 33.685 117.384 33.4221 117.075 33.2389C116.766 33.0558 116.414 32.9592 116.055 32.9592C115.696 32.9592 115.344 33.0558 115.035 33.2389C114.726 33.4221 114.472 33.685 114.3 34L85.3 86C85.161 86.2546 84.9682 86.4759 84.7351 86.6486C84.502 86.8213 84.2341 86.9412 83.95 87L28.83 98.1C28.4763 98.1719 28.1486 98.3382 27.8817 98.5812C27.6148 98.8243 27.4187 99.135 27.3141 99.4805C27.2095 99.826 27.2004 100.193 27.2877 100.544C27.375 100.894 27.5555 101.214 27.81 101.47V101.46Z" fill="url(#paint2_linear_4_547)"/>
<mask id="mask2_4_547" style="mask-type:luminance" maskUnits="userSpaceOnUse" x="0" y="5" width="232" height="221">
<path d="M185.47 225.46L117.18 187.89C116.884 187.727 116.552 187.642 116.215 187.642C115.878 187.642 115.546 187.727 115.25 187.89L47 225.45C46.6758 225.642 46.304 225.739 45.9273 225.729C45.5507 225.719 45.1845 225.603 44.871 225.394C44.5575 225.185 44.3094 224.891 44.1553 224.547C44.0012 224.203 43.9474 223.823 44 223.45L55.16 148.45C55.2051 148.143 55.178 147.829 55.0808 147.534C54.9836 147.239 54.819 146.97 54.6 146.75L1.47998 93.54C1.22288 93.2856 1.03956 92.9663 0.949542 92.616C0.859522 92.2658 0.866168 91.8976 0.968772 91.5508C1.07137 91.204 1.26609 90.8915 1.53221 90.6466C1.79832 90.4017 2.12587 90.2335 2.47998 90.16L75.48 75.39C75.7641 75.3312 76.032 75.2113 76.2651 75.0386C76.4982 74.8659 76.691 74.6446 76.83 74.39L114.55 6.79999C114.721 6.48249 114.975 6.21725 115.285 6.0324C115.595 5.84754 115.949 5.74994 116.31 5.74994C116.671 5.74994 117.025 5.84754 117.335 6.0324C117.645 6.21725 117.899 6.48249 118.07 6.79999L154.65 75.28C154.794 75.5404 154.995 75.7652 155.237 75.9382C155.479 76.1112 155.757 76.228 156.05 76.28L230 90C230.36 90.0652 230.696 90.228 230.97 90.4707C231.244 90.7134 231.446 91.0266 231.554 91.3763C231.662 91.7259 231.673 92.0986 231.584 92.4537C231.495 92.8087 231.31 93.1326 231.05 93.39L177.55 146.61C177.328 146.833 177.162 147.104 177.064 147.403C176.967 147.702 176.942 148.019 176.99 148.33L188.37 223.33C188.438 223.699 188.4 224.08 188.262 224.429C188.123 224.778 187.889 225.081 187.587 225.303C187.284 225.525 186.925 225.658 186.551 225.685C186.177 225.713 185.802 225.635 185.47 225.46ZM27.81 101.46L68.46 142.08C68.6784 142.304 68.841 142.577 68.9348 142.876C69.0286 143.174 69.0509 143.491 69 143.8L60.74 199.36C60.6954 199.725 60.7521 200.094 60.9039 200.429C61.0557 200.763 61.2966 201.05 61.6003 201.256C61.904 201.463 62.2587 201.582 62.6256 201.6C62.9924 201.618 63.3572 201.535 63.68 201.36L115.23 173C115.526 172.837 115.858 172.752 116.195 172.752C116.532 172.752 116.864 172.837 117.16 173L168.65 201.33C168.973 201.505 169.338 201.588 169.704 201.57C170.071 201.552 170.426 201.433 170.73 201.226C171.033 201.02 171.274 200.733 171.426 200.399C171.578 200.064 171.635 199.695 171.59 199.33L163.17 143.8C163.123 143.491 163.15 143.175 163.247 142.878C163.344 142.581 163.51 142.311 163.73 142.09L204.33 101.69C204.587 101.436 204.77 101.116 204.86 100.766C204.95 100.416 204.944 100.048 204.841 99.7008C204.739 99.354 204.544 99.0415 204.278 98.7966C204.012 98.5517 203.684 98.3835 203.33 98.31L147.53 88C147.237 87.948 146.959 87.8312 146.717 87.6582C146.475 87.4852 146.274 87.2604 146.13 87L117.81 34C117.638 33.685 117.384 33.4221 117.075 33.2389C116.766 33.0558 116.414 32.9592 116.055 32.9592C115.696 32.9592 115.344 33.0558 115.035 33.2389C114.726 33.4221 114.472 33.685 114.3 34L85.3 86C85.161 86.2546 84.9682 86.4759 84.7351 86.6486C84.502 86.8213 84.2341 86.9412 83.95 87L28.83 98.1C28.4763 98.1719 28.1486 98.3382 27.8817 98.5812C27.6148 98.8243 27.4187 99.135 27.3141 99.4805C27.2095 99.826 27.2004 100.193 27.2877 100.544C27.375 100.894 27.5555 101.214 27.81 101.47V101.46Z" fill="white"/>
</mask>
<g mask="url(#mask2_4_547)">
<path d="M116.64 -19.26H115.89V264.45H116.64V-19.26Z" fill="#C89E3F"/>
<path d="M109.212 -19.0881L108.463 -19.0488L123.311 264.272L124.06 264.233L109.212 -19.0881Z" fill="#C89E3F"/>
<path d="M101.808 -18.5267L101.062 -18.4483L130.718 263.708L131.464 263.629L101.808 -18.5267Z" fill="#C89E3F"/>
<path d="M94.441 -17.5694L93.7003 -17.4521L138.082 262.765L138.823 262.648L94.441 -17.5694Z" fill="#C89E3F"/>
<path d="M87.1367 -16.2399L86.4031 -16.084L145.39 261.426L146.123 261.27L87.1367 -16.2399Z" fill="#C89E3F"/>
<path d="M79.9107 -14.5224L79.1863 -14.3283L152.616 259.715L153.34 259.52L79.9107 -14.5224Z" fill="#C89E3F"/>
<path d="M72.7896 -12.4311L72.0763 -12.1993L159.748 257.625L160.461 257.393L72.7896 -12.4311Z" fill="#C89E3F"/>
<path d="M65.7806 -9.97083L65.0804 -9.70205L166.753 255.164L167.453 254.895L65.7806 -9.97083Z" fill="#C89E3F"/>
<path d="M58.9122 -7.14667L58.2271 -6.84162L173.622 252.34L174.307 252.035L58.9122 -7.14667Z" fill="#C89E3F"/>
<path d="M52.1932 -3.96423L51.5249 -3.62374L180.327 249.164L180.995 248.823L52.1932 -3.96423Z" fill="#C89E3F"/>
<path d="M46.1267 -0.516235L45.4742 -0.141235L187.329 246.687L187.982 246.312L46.1267 -0.516235Z" fill="#C89E3F"/>
<path d="M39.3228 3.42047L38.6938 3.82895L193.213 241.768L193.842 241.36L39.3228 3.42047Z" fill="#C89E3F"/>
<path d="M33.183 7.60907L32.5762 8.04991L199.337 237.576L199.944 237.135L33.183 7.60907Z" fill="#C89E3F"/>
<path d="M27.2856 12.1182L26.7027 12.5902L205.247 233.074L205.83 232.602L27.2856 12.1182Z" fill="#C89E3F"/>
<path d="M21.623 16.9296L21.0656 17.4315L210.905 228.269L211.462 227.767L21.623 16.9296Z" fill="#C89E3F"/>
<path d="M16.2181 22.0242L15.6877 22.5545L216.301 223.168L216.831 222.637L16.2181 22.0242Z" fill="#C89E3F"/>
<path d="M11.0944 27.4021L10.5926 27.9595L221.43 217.799L221.932 217.241L11.0944 27.4021Z" fill="#C89E3F"/>
<path d="M6.25611 33.033L5.78412 33.6158L226.268 212.16L226.74 211.577L6.25611 33.033Z" fill="#C89E3F"/>
<path d="M1.71757 38.9155L1.27673 39.5223L230.803 206.283L231.244 205.676L1.71757 38.9155Z" fill="#C89E3F"/>
<path d="M-2.50613 45.0277L-2.91461 45.6567L235.025 200.176L235.433 199.547L-2.50613 45.0277Z" fill="#C89E3F"/>
<path d="M-6.39966 51.3468L-6.77466 51.9963L238.925 193.851L239.3 193.202L-6.39966 51.3468Z" fill="#C89E3F"/>
<path d="M-9.95738 57.8591L-10.2979 58.5274L242.49 187.329L242.83 186.661L-9.95738 57.8591Z" fill="#C89E3F"/>
<path d="M-13.1731 64.5603L-13.4782 65.2455L245.704 180.641L246.009 179.956L-13.1731 64.5603Z" fill="#C89E3F"/>
<path d="M-16.0307 71.415L-16.2995 72.1152L248.567 173.788L248.835 173.088L-16.0307 71.415Z" fill="#C89E3F"/>
<path d="M251.06 166.79L-18.76 79.12L-18.53 78.41L251.3 166.08L251.06 166.79Z" fill="#C89E3F"/>
<path d="M253.19 159.68L-20.85 86.25L-20.66 85.52L253.39 158.95L253.19 159.68Z" fill="#C89E3F"/>
<path d="M-22.4183 92.7345L-22.5742 93.4681L254.936 152.455L255.092 151.721L-22.4183 92.7345Z" fill="#C89E3F"/>
<path d="M-23.7864 100.033L-23.9037 100.774L256.313 145.156L256.431 144.415L-23.7864 100.033Z" fill="#C89E3F"/>
<path d="M-24.7723 107.396L-24.8507 108.142L257.305 137.797L257.384 137.052L-24.7723 107.396Z" fill="#C89E3F"/>
<path d="M-25.3792 114.802L-25.4185 115.551L257.903 130.399L257.942 129.65L-25.3792 114.802Z" fill="#C89E3F"/>
<path d="M258.12 122.22H-25.59V122.97H258.12V122.22Z" fill="#C89E3F"/>
<path d="M257.914 114.81L-25.41 129.608L-25.3708 130.357L257.953 115.559L257.914 114.81Z" fill="#C89E3F"/>
<path d="M257.308 107.444L-24.8577 137.001L-24.7796 137.747L257.387 108.19L257.308 107.444Z" fill="#C89E3F"/>
<path d="M256.313 100.092L-23.9191 144.376L-23.802 145.117L256.431 100.833L256.313 100.092Z" fill="#C89E3F"/>
<path d="M254.935 92.6575L-22.5444 151.789L-22.3881 152.523L255.091 93.391L254.935 92.6575Z" fill="#C89E3F"/>
<path d="M-20.66 159.68L-20.85 158.95L253.19 85.52L253.39 86.25L-20.66 159.68Z" fill="#C89E3F"/>
<path d="M-18.53 166.79L-18.76 166.08L251.06 78.41L251.3 79.12L-18.53 166.79Z" fill="#C89E3F"/>
<path d="M248.514 71.3016L-16.263 173.205L-15.9936 173.905L248.784 72.0016L248.514 71.3016Z" fill="#C89E3F"/>
<path d="M245.741 64.656L-13.5215 179.87L-13.2169 180.556L246.046 65.3414L245.741 64.656Z" fill="#C89E3F"/>
<path d="M242.528 57.9143L-10.3272 186.584L-9.98711 187.252L242.868 58.5827L242.528 57.9143Z" fill="#C89E3F"/>
<path d="M238.918 51.3556L-6.78162 193.211L-6.40662 193.86L239.293 52.0052L238.918 51.3556Z" fill="#C89E3F"/>
<path d="M235.05 45.0295L-2.91614 199.508L-2.50777 200.137L235.458 45.6586L235.05 45.0295Z" fill="#C89E3F"/>
<path d="M230.736 38.814L1.35571 205.775L1.79708 206.381L231.178 39.4204L230.736 38.814Z" fill="#C89E3F"/>
<path d="M226.217 32.9873L5.82654 211.647L6.29883 212.23L226.689 33.5699L226.217 32.9873Z" fill="#C89E3F"/>
<path d="M221.446 27.4289L10.5752 217.231L11.077 217.789L221.948 27.9864L221.446 27.4289Z" fill="#C89E3F"/>
<path d="M216.217 21.9495L15.7789 222.738L16.3097 223.268L216.748 22.4794L216.217 21.9495Z" fill="#C89E3F"/>
<path d="M210.98 16.9846L20.9937 227.69L21.5507 228.192L211.537 17.4868L210.98 16.9846Z" fill="#C89E3F"/>
<path d="M205.286 12.1485L26.6647 232.57L27.2474 233.042L205.869 12.6207L205.286 12.1485Z" fill="#C89E3F"/>
<path d="M199.238 7.55701L32.6774 237.229L33.2845 237.669L199.845 7.99732L199.238 7.55701Z" fill="#C89E3F"/>
<path d="M193.188 3.42572L38.7104 241.392L39.3395 241.8L193.817 3.83409L193.188 3.42572Z" fill="#C89E3F"/>
<path d="M186.801 -0.471436L45.0742 245.303L45.7239 245.678L187.45 -0.0967754L186.801 -0.471436Z" fill="#C89E3F"/>
<path d="M180.394 -3.94147L51.4602 248.779L52.1283 249.119L181.062 -3.60063L180.394 -3.94147Z" fill="#C89E3F"/>
<path d="M173.53 -7.19421L58.316 252.068L59.0014 252.373L174.216 -6.88963L173.53 -7.19421Z" fill="#C89E3F"/>
<path d="M166.695 -9.99817L65.1152 254.903L65.8155 255.172L167.396 -9.72964L166.695 -9.99817Z" fill="#C89E3F"/>
<path d="M159.725 -12.4228L72.1012 257.417L72.8146 257.648L160.439 -12.1912L159.725 -12.4228Z" fill="#C89E3F"/>
<path d="M152.64 -14.5196L79.1624 259.51L79.8869 259.705L153.364 -14.3254L152.64 -14.5196Z" fill="#C89E3F"/>
<path d="M145.415 -16.2283L86.3799 261.272L87.1135 261.428L146.149 -16.0722L145.415 -16.2283Z" fill="#C89E3F"/>
<path d="M139.297 -17.7236L93.9034 263.149L94.6459 263.269L140.04 -17.6036L139.297 -17.7236Z" fill="#C89E3F"/>
<path d="M130.676 -18.5223L101.119 263.644L101.865 263.722L131.422 -18.4442L130.676 -18.5223Z" fill="#C89E3F"/>
<path d="M123.288 -19.0834L108.489 264.24L109.238 264.279L124.037 -19.0443L123.288 -19.0834Z" fill="#C89E3F"/>
</g>
<path d="M116.3 6.76997C116.481 6.77045 116.658 6.82 116.813 6.91333C116.968 7.00666 117.095 7.14029 117.18 7.29997L153.76 75.78C153.972 76.178 154.271 76.5231 154.634 76.7897C154.998 77.0564 155.417 77.2376 155.86 77.32L229.86 91.03C230.038 91.0631 230.203 91.1438 230.339 91.2636C230.475 91.3833 230.575 91.5376 230.63 91.71C230.683 91.8837 230.688 92.0685 230.644 92.2447C230.6 92.4209 230.509 92.5817 230.38 92.71L176.89 145.93C176.555 146.263 176.304 146.67 176.156 147.118C176.009 147.567 175.969 148.043 176.04 148.51L187.42 223.51C187.443 223.651 187.435 223.796 187.397 223.934C187.359 224.072 187.292 224.2 187.2 224.31C187.105 224.421 186.987 224.51 186.854 224.57C186.721 224.631 186.576 224.661 186.43 224.66C186.263 224.658 186.098 224.617 185.95 224.54L117.66 187C117.217 186.757 116.72 186.629 116.215 186.629C115.71 186.629 115.213 186.757 114.77 187L46.51 224.57C46.3605 224.655 46.1918 224.699 46.02 224.7C45.8748 224.699 45.7316 224.666 45.6003 224.604C45.4691 224.542 45.3529 224.452 45.26 224.34C45.1678 224.232 45.0996 224.106 45.06 223.97C45.0203 223.834 45.0101 223.69 45.03 223.55L56.19 148.55C56.258 148.087 56.2166 147.614 56.069 147.169C55.9213 146.725 55.6717 146.321 55.34 145.99L2.19 92.83C2.05973 92.7028 1.96666 92.5424 1.92084 92.3662C1.87502 92.19 1.87819 92.0046 1.93 91.83C1.98094 91.6552 2.07865 91.4976 2.21259 91.3742C2.34652 91.2509 2.51159 91.1664 2.69 91.13L75.69 76.36C76.1098 76.2707 76.5056 76.0924 76.8507 75.8371C77.1957 75.5818 77.4819 75.2554 77.69 74.88L115.43 7.27997C115.517 7.1255 115.643 6.99688 115.796 6.90727C115.949 6.81766 116.123 6.77027 116.3 6.76997ZM62.74 202.66C63.2468 202.661 63.7457 202.534 64.19 202.29L115.73 173.93C115.882 173.842 116.054 173.796 116.23 173.796C116.406 173.796 116.578 173.842 116.73 173.93L168.22 202.26C168.661 202.502 169.157 202.629 169.66 202.63C170.089 202.636 170.515 202.55 170.909 202.378C171.302 202.205 171.654 201.95 171.94 201.63C172.221 201.303 172.428 200.919 172.547 200.505C172.666 200.091 172.694 199.656 172.63 199.23L164.2 143.7C164.177 143.544 164.191 143.385 164.242 143.235C164.292 143.086 164.377 142.95 164.49 142.84L205.08 102.45C205.466 102.064 205.74 101.579 205.871 101.049C206.002 100.519 205.986 99.9632 205.824 99.4415C205.663 98.9197 205.362 98.452 204.954 98.0887C204.546 97.7255 204.047 97.4804 203.51 97.38L147.71 87C147.562 86.9718 147.422 86.9104 147.3 86.8203C147.179 86.7303 147.08 86.6139 147.01 86.48L118.7 33.48C118.444 32.9995 118.062 32.5976 117.595 32.3175C117.129 32.0374 116.594 31.8896 116.05 31.89C115.516 31.8901 114.991 32.0329 114.531 32.3037C114.07 32.5744 113.69 32.9633 113.43 33.43L84.38 85.43C84.3099 85.5549 84.2138 85.6633 84.0982 85.7478C83.9827 85.8323 83.8503 85.8911 83.71 85.92L28.63 97.12C28.0984 97.2273 27.6058 97.4766 27.2046 97.8416C26.8035 98.2065 26.5087 98.6733 26.3518 99.1924C26.1948 99.7115 26.1815 100.263 26.3133 100.79C26.445 101.316 26.7169 101.796 27.1 102.18L67.75 142.8C67.8595 142.91 67.9418 143.044 67.9904 143.192C68.039 143.339 68.0526 143.496 68.03 143.65L59.77 199.22C59.7074 199.645 59.7366 200.078 59.8556 200.49C59.9746 200.902 60.1807 201.284 60.46 201.61C60.7463 201.93 61.098 202.185 61.4914 202.358C61.8847 202.53 62.3105 202.616 62.74 202.61M116.3 5.76997C115.948 5.76857 115.601 5.86032 115.295 6.03592C114.99 6.21153 114.736 6.46476 114.56 6.76997L76.82 74.4C76.681 74.6546 76.4882 74.8759 76.2551 75.0486C76.022 75.2213 75.7541 75.3412 75.47 75.4L2.5 90.16C2.14589 90.2335 1.81835 90.4017 1.55223 90.6466C1.28612 90.8915 1.0914 91.204 0.988791 91.5508C0.886187 91.8976 0.879541 92.2658 0.969562 92.616C1.05958 92.9663 1.2429 93.2856 1.5 93.54L54.66 146.65C54.8804 146.871 55.0459 147.141 55.1432 147.438C55.2404 147.735 55.2667 148.051 55.22 148.36L44 223.4C43.9565 223.687 43.9758 223.979 44.0567 224.258C44.1375 224.536 44.2779 224.794 44.4681 225.012C44.6584 225.231 44.8939 225.406 45.1584 225.525C45.4229 225.643 45.7101 225.703 46 225.7C46.3491 225.703 46.6932 225.617 47 225.45L115.26 187.89C115.556 187.727 115.888 187.642 116.225 187.642C116.562 187.642 116.894 187.727 117.19 187.89L185.48 225.46C185.784 225.633 186.13 225.72 186.48 225.71C186.77 225.713 187.057 225.653 187.322 225.535C187.586 225.416 187.822 225.241 188.012 225.022C188.202 224.804 188.343 224.546 188.423 224.268C188.504 223.989 188.524 223.697 188.48 223.41L177.1 148.41C177.052 148.099 177.077 147.782 177.174 147.483C177.272 147.184 177.438 146.913 177.66 146.69L231.16 93.47C231.447 93.209 231.651 92.8704 231.749 92.4953C231.847 92.1202 231.833 91.7248 231.71 91.3572C231.587 90.9896 231.36 90.6656 231.057 90.4246C230.753 90.1837 230.386 90.0362 230 90L156 76.3C155.707 76.248 155.429 76.1312 155.187 75.9582C154.945 75.7852 154.744 75.5604 154.6 75.3L118.07 6.82997C117.899 6.50911 117.644 6.24088 117.332 6.05412C117.02 5.86736 116.664 5.76912 116.3 5.76997ZM62.74 201.66C62.4501 201.663 62.1629 201.603 61.8984 201.485C61.6339 201.366 61.3984 201.191 61.2081 200.972C61.0179 200.754 60.8775 200.496 60.7967 200.218C60.7158 199.939 60.6965 199.647 60.74 199.36L69 143.8C69.0467 143.491 69.0204 143.175 68.9232 142.878C68.8259 142.581 68.6604 142.311 68.44 142.09L27.81 101.47C27.5556 101.215 27.3746 100.897 27.2862 100.548C27.1978 100.199 27.2052 99.8326 27.3075 99.4875C27.4099 99.1425 27.6036 98.8314 27.868 98.5872C28.1324 98.343 28.4579 98.1747 28.81 98.1L83.9 86.94C84.1841 86.8812 84.452 86.7613 84.6851 86.5886C84.9182 86.4159 85.111 86.1946 85.25 85.94L114.3 33.94C114.472 33.625 114.726 33.3621 115.035 33.1789C115.344 32.9958 115.696 32.8992 116.055 32.8992C116.414 32.8992 116.766 32.9958 117.075 33.1789C117.384 33.3621 117.638 33.625 117.81 33.94L146.13 86.94C146.274 87.2004 146.475 87.4252 146.717 87.5982C146.959 87.7712 147.237 87.888 147.53 87.94L203.3 98.31C203.654 98.3835 203.982 98.5517 204.248 98.7966C204.514 99.0415 204.709 99.354 204.811 99.7008C204.914 100.048 204.92 100.416 204.83 100.766C204.74 101.116 204.557 101.436 204.3 101.69L163.7 142.09C163.48 142.311 163.314 142.581 163.217 142.878C163.12 143.175 163.093 143.491 163.14 143.8L171.56 199.33C171.605 199.695 171.548 200.064 171.396 200.399C171.244 200.733 171.003 201.02 170.7 201.226C170.396 201.433 170.041 201.552 169.674 201.57C169.308 201.588 168.943 201.505 168.62 201.33L117.13 173C116.834 172.837 116.502 172.752 116.165 172.752C115.828 172.752 115.496 172.837 115.2 173L63.7 201.41C63.3942 201.579 63.0495 201.665 62.7 201.66H62.74Z" fill="url(#paint3_linear_4_547)"/>
<path d="M116.21 165.99C118.844 165.99 120.98 163.854 120.98 161.22C120.98 158.586 118.844 156.45 116.21 156.45C113.576 156.45 111.44 158.586 111.44 161.22C111.44 163.854 113.576 165.99 116.21 165.99Z" fill="black" stroke="url(#paint4_linear_4_547)" stroke-miterlimit="10"/>
<path d="M116.34 86.27C118.974 86.27 121.11 84.1344 121.11 81.5C121.11 78.8656 118.974 76.73 116.34 76.73C113.706 76.73 111.57 78.8656 111.57 81.5C111.57 84.1344 113.706 86.27 116.34 86.27Z" fill="black" stroke="url(#paint5_linear_4_547)" stroke-miterlimit="10"/>
<path d="M125 140.18C122.611 140.178 120.265 139.535 118.209 138.318C116.153 137.101 114.461 135.354 113.31 133.26C112.672 134.458 111.845 135.546 110.86 136.48C109.583 137.662 108.088 138.586 106.46 139.2C104.715 139.871 102.86 140.21 100.99 140.2C99.2417 140.219 97.5042 139.925 95.86 139.33C94.3686 138.79 92.979 138.003 91.75 137C90.8617 136.263 90.0778 135.408 89.42 134.46C88.9251 135.187 88.3516 135.858 87.71 136.46C86.4356 137.648 84.9408 138.576 83.31 139.19C81.5649 139.861 79.7097 140.2 77.84 140.19C76.0918 140.208 74.3544 139.914 72.71 139.32C71.2593 138.783 69.9077 138.009 68.71 137.03C66.8759 135.571 65.5381 133.58 64.88 131.33C64.6306 130.55 64.6161 129.715 64.8384 128.927C65.0607 128.139 65.5099 127.434 66.13 126.9C65.4904 126.149 65.1363 125.196 65.13 124.21C65.1201 124.053 65.1201 123.897 65.13 123.74L66.71 109C66.8165 107.98 67.298 107.036 68.061 106.35C68.824 105.665 69.8142 105.287 70.84 105.29H85.42C85.965 105.29 86.5046 105.397 87.0082 105.606C87.5117 105.814 87.9691 106.12 88.3545 106.506C88.7399 106.891 89.0456 107.348 89.2541 107.852C89.4627 108.355 89.57 108.895 89.57 109.44V111.16L89.81 109C89.9165 107.98 90.398 107.036 91.161 106.35C91.924 105.665 92.9143 105.287 93.94 105.29H108.52C109.621 105.29 110.676 105.727 111.455 106.506C112.233 107.284 112.67 108.339 112.67 109.44V113.44C113.592 111.277 115.07 109.397 116.954 107.99C118.837 106.582 121.059 105.698 123.395 105.427C125.73 105.156 128.096 105.507 130.252 106.446C132.408 107.384 134.277 108.876 135.67 110.77V109.54C135.667 108.991 135.773 108.447 135.981 107.939C136.188 107.431 136.494 106.968 136.88 106.578C137.266 106.188 137.726 105.878 138.232 105.666C138.738 105.453 139.281 105.343 139.83 105.34H144.58C145.481 105.341 146.358 105.633 147.08 106.174C147.801 106.715 148.327 107.475 148.58 108.34L149.07 107.47C149.433 106.839 149.954 106.314 150.582 105.946C151.209 105.577 151.922 105.379 152.65 105.37H158.18C158.928 105.377 159.66 105.584 160.302 105.968C160.944 106.352 161.472 106.9 161.831 107.556C162.191 108.212 162.369 108.952 162.348 109.7C162.326 110.447 162.106 111.176 161.71 111.81L155.6 121.53L163.07 133.67C163.649 134.599 163.843 135.717 163.611 136.786C163.38 137.856 162.741 138.793 161.83 139.4C161.157 139.845 160.367 140.081 159.56 140.08H154.01C153.292 140.082 152.585 139.899 151.958 139.549C151.331 139.199 150.805 138.693 150.43 138.08L148.76 135.27V135.92C148.765 137.027 148.331 138.091 147.553 138.878C146.775 139.665 145.717 140.112 144.61 140.12H139.86C139.311 140.117 138.768 140.007 138.262 139.794C137.756 139.582 137.296 139.272 136.91 138.882C136.524 138.492 136.218 138.029 136.011 137.521C135.803 137.013 135.697 136.469 135.7 135.92V134.7C134.473 136.39 132.864 137.767 131.005 138.719C129.146 139.671 127.089 140.172 125 140.18ZM100.47 128.18C100.639 128.229 100.815 128.249 100.99 128.24C101.144 128.254 101.299 128.233 101.443 128.177C101.587 128.122 101.716 128.034 101.82 127.92C102.02 127.711 102.131 127.434 102.131 127.145C102.131 126.856 102.02 126.579 101.82 126.37C101.716 126.256 101.587 126.168 101.443 126.113C101.299 126.057 101.144 126.036 100.99 126.05C100.798 126.04 100.606 126.06 100.42 126.11C100.21 126.22 100.07 126.31 99.99 126.36C99.91 126.41 99.93 126.46 99.88 126.52C99.7704 126.687 99.6466 126.844 99.51 126.99C99.7321 127.248 99.9203 127.534 100.07 127.84C100.09 127.89 100.117 127.937 100.15 127.98C100.15 127.98 100.26 128.06 100.47 128.18ZM77.37 128.18C77.5388 128.229 77.7145 128.249 77.89 128.24C78.0437 128.254 78.1986 128.233 78.3426 128.177C78.4866 128.122 78.6157 128.034 78.72 127.92C78.8284 127.825 78.9129 127.706 78.9668 127.572C79.0206 127.438 79.0423 127.294 79.03 127.15C79.0392 127.006 79.0172 126.862 78.9654 126.727C78.9136 126.593 78.8333 126.471 78.73 126.37C78.6247 126.255 78.4939 126.166 78.348 126.11C78.2021 126.055 78.0453 126.034 77.89 126.05C77.7014 126.04 77.5124 126.061 77.33 126.11C77.1819 126.185 77.0383 126.268 76.9 126.36L76.79 126.52C76.677 126.687 76.5499 126.844 76.41 126.99C76.6317 127.251 76.8229 127.536 76.98 127.84C76.98 127.9 76.98 127.95 77.05 127.98C77.05 127.98 77.16 128.06 77.37 128.18ZM125 118.38C124.946 118.38 124.894 118.401 124.855 118.438C124.816 118.475 124.793 118.526 124.79 118.58V126.84C124.793 126.894 124.816 126.945 124.855 126.982C124.894 127.019 124.946 127.04 125 127.04C125.053 127.04 125.104 127.019 125.141 126.981C125.179 126.944 125.2 126.893 125.2 126.84V118.58C125.193 118.532 125.169 118.489 125.132 118.458C125.095 118.426 125.048 118.409 125 118.41V118.38ZM87 117.35C87.29 117.59 87.57 117.84 87.84 118.11C88.11 118.38 88.42 118.71 88.69 119.03L89.08 115.41C88.6288 116.275 87.8947 116.96 87 117.35ZM110.09 117.35C110.38 117.59 110.67 117.84 110.94 118.11C111.21 118.38 111.38 118.56 111.58 118.8V118.61C111.583 117.71 111.674 116.813 111.85 115.93C111.414 116.549 110.82 117.039 110.13 117.35H110.09Z" fill="url(#paint6_linear_4_547)"/>
<path d="M125 108.31C126.354 108.309 127.695 108.574 128.946 109.091C130.198 109.608 131.335 110.366 132.293 111.323C133.252 112.279 134.012 113.415 134.531 114.665C135.051 115.916 135.319 117.256 135.32 118.61V126.87C135.237 129.553 134.112 132.098 132.185 133.966C130.258 135.834 127.679 136.879 124.995 136.879C122.311 136.879 119.732 135.834 117.805 133.966C115.878 132.098 114.754 129.553 114.67 126.87V118.61C114.675 115.875 115.766 113.253 117.703 111.322C119.64 109.391 122.265 108.307 125 108.31ZM125 130.07C125.849 130.07 126.663 129.733 127.263 129.133C127.863 128.533 128.2 127.719 128.2 126.87V118.61C128.154 117.791 127.797 117.02 127.201 116.457C126.605 115.893 125.815 115.579 124.995 115.579C124.175 115.579 123.385 115.893 122.789 116.457C122.193 117.02 121.836 117.791 121.79 118.61V126.87C121.793 127.72 122.132 128.534 122.734 129.133C123.335 129.733 124.15 130.07 125 130.07ZM108.56 108.31C108.712 108.309 108.862 108.337 109.003 108.395C109.144 108.452 109.272 108.536 109.38 108.643C109.487 108.75 109.573 108.877 109.632 109.018C109.69 109.158 109.72 109.308 109.72 109.46V113.52C109.72 113.672 109.69 113.822 109.632 113.962C109.573 114.103 109.487 114.23 109.38 114.337C109.272 114.444 109.144 114.528 109.003 114.585C108.862 114.643 108.712 114.671 108.56 114.67H99.56C99.281 114.67 99.0116 114.771 98.8018 114.955C98.5921 115.139 98.4564 115.393 98.42 115.67L98 118.54C98.3491 118.317 98.7212 118.133 99.11 117.99C99.5007 117.819 99.9056 117.681 100.32 117.58C100.841 117.455 101.375 117.395 101.91 117.4C103.234 117.39 104.546 117.645 105.77 118.15C106.943 118.64 108.012 119.349 108.92 120.24C109.818 121.134 110.534 122.194 111.03 123.36C111.54 124.569 111.798 125.868 111.79 127.18C111.803 128.536 111.538 129.881 111.01 131.13C110.501 132.325 109.748 133.402 108.8 134.29C107.808 135.209 106.646 135.926 105.38 136.4C103.978 136.932 102.489 137.197 100.99 137.18C99.5973 137.196 98.2126 136.966 96.9 136.5C95.7453 136.079 94.6676 135.471 93.71 134.7C92.826 133.982 92.0863 133.103 91.53 132.11C91.2397 131.565 91.0052 130.992 90.83 130.4C90.7832 130.256 90.7653 130.105 90.7772 129.954C90.7891 129.803 90.8306 129.656 90.8993 129.522C90.968 129.387 91.0626 129.267 91.1777 129.169C91.2928 129.071 91.4261 128.996 91.57 128.95C91.6628 128.936 91.7572 128.936 91.85 128.95L96.29 128.64H96.36C96.5683 128.644 96.7717 128.704 96.948 128.815C97.1243 128.926 97.2668 129.084 97.36 129.27C97.4757 129.513 97.62 129.741 97.79 129.95C98.1246 130.335 98.5282 130.654 98.98 130.89C99.6006 131.197 100.288 131.345 100.98 131.32C101.525 131.333 102.067 131.233 102.573 131.029C103.079 130.824 103.537 130.518 103.92 130.13C104.688 129.358 105.118 128.314 105.118 127.225C105.118 126.136 104.688 125.092 103.92 124.32C103.537 123.932 103.079 123.626 102.573 123.421C102.067 123.217 101.525 123.117 100.98 123.13C100.333 123.103 99.6888 123.23 99.1 123.5C98.6685 123.704 98.2651 123.963 97.9 124.27C97.717 124.467 97.5499 124.677 97.4 124.9C97.2908 125.063 97.1415 125.196 96.9665 125.285C96.7914 125.375 96.5964 125.418 96.4 125.41H92.35C92.0424 125.41 91.7473 125.288 91.5298 125.07C91.3122 124.853 91.19 124.558 91.19 124.25C91.19 124.25 91.19 124.17 91.19 124.13L92.78 109.39C92.8166 109.112 92.9537 108.856 93.1656 108.672C93.3774 108.488 93.6493 108.388 93.93 108.39H108.5M85.41 108.39C85.5614 108.389 85.7115 108.417 85.8517 108.475C85.9918 108.532 86.1191 108.617 86.2261 108.724C86.3332 108.831 86.4179 108.958 86.4752 109.098C86.5325 109.238 86.5613 109.389 86.56 109.54V113.6C86.5613 113.751 86.5325 113.902 86.4752 114.042C86.4179 114.182 86.3332 114.309 86.2261 114.416C86.1191 114.523 85.9918 114.608 85.8517 114.665C85.7115 114.722 85.5614 114.751 85.41 114.75H76.41C76.1299 114.75 75.8591 114.851 75.6477 115.035C75.4364 115.218 75.2986 115.473 75.26 115.75L74.89 118.61C75.236 118.366 75.6083 118.161 76 118C76.3942 117.829 76.8024 117.692 77.22 117.59C77.7372 117.465 78.2679 117.404 78.8 117.41C80.0963 117.399 81.3819 117.645 82.5831 118.132C83.7843 118.62 84.8775 119.339 85.8 120.25C86.701 121.142 87.418 122.202 87.91 123.37C88.4242 124.577 88.6829 125.878 88.67 127.19C88.683 128.546 88.4176 129.891 87.89 131.14C87.3809 132.335 86.6282 133.412 85.68 134.3C84.6899 135.221 83.5277 135.939 82.26 136.41C80.8582 136.942 79.3692 137.207 77.87 137.19C76.4804 137.207 75.0989 136.977 73.79 136.51C72.6321 136.089 71.5511 135.481 70.59 134.71C69.7081 133.99 68.9687 133.112 68.41 132.12C68.1239 131.573 67.8896 131.001 67.71 130.41C67.6634 130.266 67.6459 130.113 67.6585 129.962C67.671 129.811 67.7134 129.664 67.7831 129.529C67.8528 129.394 67.9485 129.274 68.0647 129.177C68.1809 129.079 68.3152 129.005 68.46 128.96C68.5494 128.946 68.6406 128.946 68.73 128.96L73.17 128.65H73.25C73.4579 128.656 73.6603 128.717 73.8363 128.828C74.0122 128.939 74.1551 129.095 74.25 129.28C74.3628 129.522 74.5038 129.751 74.67 129.96C75.0625 130.411 75.551 130.768 76.0995 131.005C76.6481 131.242 77.2428 131.353 77.84 131.33C78.3953 131.351 78.9488 131.256 79.4654 131.051C79.9819 130.846 80.45 130.536 80.84 130.14C81.6028 129.365 82.0303 128.322 82.0303 127.235C82.0303 126.148 81.6028 125.105 80.84 124.33C80.45 123.934 79.9819 123.624 79.4654 123.419C78.9488 123.214 78.3953 123.119 77.84 123.14C77.193 123.115 76.5491 123.241 75.96 123.51C75.5301 123.711 75.1297 123.97 74.77 124.28C74.5804 124.473 74.4096 124.684 74.26 124.91C74.1515 125.074 74.0024 125.207 73.8271 125.297C73.6519 125.386 73.4565 125.428 73.26 125.42H69.25C68.9441 125.417 68.6516 125.294 68.4362 125.077C68.2208 124.859 68.1 124.566 68.1 124.26V124.14L69.69 109.4C69.7286 109.123 69.8664 108.868 70.0777 108.685C70.2891 108.501 70.5599 108.4 70.84 108.4H85.42M158.21 108.4C158.364 108.403 158.515 108.435 158.656 108.497C158.797 108.558 158.925 108.646 159.032 108.757C159.138 108.867 159.222 108.998 159.279 109.141C159.335 109.284 159.363 109.436 159.36 109.59C159.365 109.823 159.303 110.052 159.18 110.25L152.09 121.53V121.63C152.107 121.676 152.131 121.72 152.16 121.76L160.48 135.27C160.6 135.45 160.669 135.659 160.679 135.875C160.689 136.091 160.64 136.306 160.537 136.496C160.434 136.686 160.281 136.845 160.095 136.955C159.909 137.065 159.696 137.122 159.48 137.12H153.93C153.728 137.121 153.529 137.069 153.354 136.969C153.178 136.869 153.032 136.724 152.93 136.55L146.38 125.55L146.01 124.93C145.8 125.16 145.683 125.459 145.68 125.77V135.94C145.684 136.094 145.657 136.248 145.602 136.392C145.546 136.536 145.462 136.668 145.355 136.78C145.248 136.891 145.12 136.981 144.979 137.042C144.837 137.104 144.685 137.137 144.53 137.14H139.78C139.625 137.137 139.472 137.104 139.33 137.043C139.188 136.981 139.059 136.892 138.951 136.78C138.844 136.669 138.759 136.537 138.702 136.393C138.645 136.249 138.617 136.095 138.62 135.94V109.55C138.617 109.395 138.645 109.241 138.702 109.097C138.759 108.953 138.844 108.821 138.951 108.71C139.059 108.598 139.188 108.509 139.33 108.447C139.472 108.386 139.625 108.353 139.78 108.35H144.53C144.685 108.353 144.837 108.386 144.979 108.448C145.12 108.509 145.248 108.599 145.355 108.71C145.462 108.822 145.546 108.954 145.602 109.098C145.657 109.242 145.684 109.396 145.68 109.55V116.8C145.679 116.874 145.692 116.947 145.719 117.015C145.746 117.084 145.786 117.146 145.837 117.199C145.888 117.252 145.949 117.294 146.016 117.324C146.084 117.353 146.156 117.369 146.23 117.37C146.397 117.363 146.559 117.315 146.702 117.229C146.846 117.144 146.965 117.024 147.05 116.88L151.6 108.93C151.701 108.753 151.846 108.606 152.022 108.502C152.197 108.399 152.396 108.343 152.6 108.34H158.12M124.86 102.34C121.139 102.336 117.528 103.606 114.63 105.94C114.004 104.846 113.1 103.936 112.009 103.304C110.919 102.672 109.681 102.339 108.42 102.34H93.94C92.4039 102.34 90.9079 102.83 89.67 103.74C88.4406 102.829 86.9503 102.338 85.42 102.34H70.84C69.0755 102.335 67.3719 102.985 66.0586 104.163C64.7453 105.342 63.9156 106.965 63.73 108.72L62.14 123.47C62.1251 123.723 62.1251 123.977 62.14 124.23C62.1371 125.048 62.2758 125.86 62.55 126.63L62.46 126.81C62.025 127.644 61.7611 128.557 61.6838 129.495C61.6065 130.432 61.7174 131.376 62.01 132.27C62.3052 133.242 62.7006 134.18 63.19 135.07C64.1087 136.714 65.3301 138.17 66.79 139.36C68.2608 140.561 69.9243 141.504 71.71 142.15C73.6875 142.867 75.7767 143.225 77.88 143.21C80.1092 143.21 82.3194 142.8 84.4 142C86.2334 141.309 87.9272 140.292 89.4 139C89.5362 139.128 89.6798 139.248 89.83 139.36C91.2985 140.559 92.9584 141.502 94.74 142.15C96.7207 142.867 98.8134 143.226 100.92 143.21C103.158 143.225 105.378 142.825 107.47 142.03C109.46 141.276 111.284 140.141 112.84 138.69L113.25 138.29C115.947 141.056 119.537 142.776 123.383 143.142C127.229 143.508 131.08 142.498 134.25 140.29C134.915 141.154 135.769 141.853 136.747 142.335C137.725 142.817 138.8 143.069 139.89 143.07H144.64C146.367 143.071 148.034 142.441 149.33 141.3C150.633 142.436 152.302 143.064 154.03 143.07H159.6C160.879 143.06 162.132 142.71 163.231 142.055C164.329 141.4 165.234 140.465 165.851 139.344C166.468 138.224 166.776 136.96 166.742 135.681C166.709 134.403 166.335 133.156 165.66 132.07L159.16 121.52L164.28 113.38C164.949 112.297 165.32 111.057 165.355 109.785C165.389 108.512 165.086 107.254 164.477 106.136C163.867 105.019 162.973 104.083 161.885 103.423C160.796 102.763 159.553 102.403 158.28 102.38H158.21H152.72C151.291 102.39 149.897 102.829 148.72 103.64C147.543 102.83 146.149 102.395 144.72 102.39H139.97C138.869 102.391 137.783 102.647 136.798 103.138C135.812 103.629 134.954 104.342 134.29 105.22C131.573 103.347 128.35 102.346 125.05 102.35L124.86 102.34Z" fill="black"/>
<path d="M125 108.31C126.354 108.309 127.695 108.574 128.946 109.091C130.198 109.608 131.335 110.366 132.293 111.323C133.251 112.279 134.012 113.415 134.531 114.665C135.051 115.916 135.319 117.256 135.32 118.61V126.87C135.236 129.553 134.112 132.098 132.185 133.966C130.258 135.834 127.679 136.879 124.995 136.879C122.311 136.879 119.732 135.834 117.805 133.966C115.878 132.098 114.753 129.553 114.67 126.87V118.61C114.675 115.875 115.766 113.253 117.703 111.322C119.64 109.391 122.265 108.307 125 108.31ZM125 115.41C124.15 115.41 123.335 115.747 122.734 116.347C122.132 116.946 121.793 117.76 121.79 118.61V126.87C121.836 127.689 122.193 128.46 122.789 129.023C123.385 129.587 124.175 129.901 124.995 129.901C125.815 129.901 126.605 129.587 127.201 129.023C127.797 128.46 128.154 127.689 128.2 126.87V118.61C128.2 117.761 127.863 116.947 127.263 116.347C126.663 115.747 125.849 115.41 125 115.41ZM158.25 108.32C158.404 108.321 158.557 108.353 158.699 108.414C158.841 108.474 158.97 108.563 159.078 108.673C159.186 108.784 159.271 108.915 159.328 109.058C159.385 109.202 159.413 109.356 159.41 109.51C159.415 109.743 159.353 109.972 159.23 110.17L152.14 121.45V121.55C152.157 121.596 152.181 121.64 152.21 121.68L160.53 135.19C160.65 135.37 160.719 135.579 160.729 135.795C160.739 136.011 160.689 136.226 160.587 136.416C160.484 136.606 160.331 136.765 160.145 136.875C159.959 136.985 159.746 137.042 159.53 137.04H153.98C153.778 137.039 153.58 136.986 153.405 136.886C153.23 136.787 153.083 136.643 152.98 136.47L146.43 125.47L146.06 124.85C145.85 125.08 145.732 125.379 145.73 125.69V135.86C145.734 136.014 145.707 136.168 145.652 136.312C145.596 136.456 145.512 136.588 145.405 136.7C145.298 136.811 145.17 136.901 145.029 136.962C144.887 137.024 144.735 137.057 144.58 137.06H139.83C139.675 137.057 139.522 137.024 139.38 136.963C139.238 136.901 139.109 136.812 139.001 136.7C138.894 136.589 138.809 136.457 138.752 136.313C138.695 136.169 138.667 136.015 138.67 135.86V109.55C138.667 109.395 138.695 109.241 138.752 109.097C138.809 108.953 138.894 108.821 139.001 108.71C139.109 108.598 139.238 108.509 139.38 108.447C139.522 108.386 139.675 108.353 139.83 108.35H144.58C144.735 108.353 144.887 108.386 145.029 108.448C145.17 108.509 145.298 108.599 145.405 108.71C145.512 108.822 145.596 108.954 145.652 109.098C145.707 109.242 145.734 109.396 145.73 109.55V116.8C145.729 116.874 145.742 116.947 145.769 117.015C145.796 117.084 145.836 117.146 145.887 117.199C145.938 117.252 145.999 117.294 146.066 117.324C146.134 117.353 146.206 117.369 146.28 117.37C146.447 117.363 146.609 117.315 146.752 117.229C146.896 117.144 147.015 117.024 147.1 116.88L151.65 108.93C151.751 108.753 151.896 108.606 152.072 108.502C152.247 108.399 152.446 108.343 152.65 108.34L158.25 108.32ZM78.76 117.4C80.0563 117.389 81.3419 117.635 82.5431 118.122C83.7443 118.61 84.8375 119.329 85.76 120.24C86.661 121.132 87.378 122.192 87.87 123.36C88.3842 124.567 88.6429 125.868 88.63 127.18C88.643 128.536 88.3775 129.881 87.85 131.13C87.3409 132.325 86.5882 133.402 85.64 134.29C84.6499 135.211 83.4877 135.929 82.22 136.4C80.8182 136.932 79.3292 137.197 77.83 137.18C76.4404 137.197 75.0589 136.967 73.75 136.5C72.5921 136.079 71.5111 135.471 70.55 134.7C69.6681 133.98 68.9287 133.102 68.37 132.11C68.0839 131.563 67.8496 130.991 67.67 130.4C67.6234 130.256 67.6059 130.103 67.6185 129.952C67.631 129.801 67.6734 129.654 67.7431 129.519C67.8128 129.384 67.9085 129.264 68.0247 129.167C68.1409 129.069 68.2752 128.995 68.42 128.95C68.5094 128.936 68.6006 128.936 68.69 128.95L73.13 128.64C73.3561 128.626 73.5814 128.678 73.7785 128.79C73.9755 128.902 74.1358 129.069 74.24 129.27C74.3528 129.512 74.4937 129.741 74.66 129.95C75.0525 130.401 75.541 130.758 76.0895 130.995C76.6381 131.232 77.2328 131.343 77.83 131.32C78.3753 131.333 78.9174 131.234 79.423 131.029C79.9286 130.824 80.387 130.518 80.77 130.13C81.5376 129.358 81.9685 128.314 81.9685 127.225C81.9685 126.136 81.5376 125.092 80.77 124.32C80.387 123.932 79.9286 123.626 79.423 123.421C78.9174 123.217 78.3753 123.117 77.83 123.13C77.183 123.105 76.5391 123.231 75.95 123.5C75.5201 123.701 75.1197 123.96 74.76 124.27C74.5704 124.463 74.3996 124.674 74.25 124.9C74.1415 125.064 73.9923 125.197 73.8171 125.287C73.6419 125.376 73.4465 125.418 73.25 125.41H69.25C68.9441 125.407 68.6516 125.284 68.4362 125.067C68.2208 124.849 68.1 124.556 68.1 124.25V124.13L69.69 109.39C69.7286 109.113 69.8664 108.858 70.0777 108.675C70.2891 108.491 70.5599 108.39 70.84 108.39H85.42C85.5714 108.389 85.7215 108.418 85.8616 108.475C86.0018 108.532 86.1291 108.617 86.2361 108.724C86.3432 108.831 86.4278 108.958 86.4852 109.098C86.5425 109.238 86.5713 109.389 86.57 109.54V113.6C86.5713 113.751 86.5425 113.902 86.4852 114.042C86.4278 114.182 86.3432 114.309 86.2361 114.416C86.1291 114.523 86.0018 114.608 85.8616 114.665C85.7215 114.723 85.5714 114.751 85.42 114.75H76.42C76.1399 114.75 75.8691 114.851 75.6577 115.035C75.4464 115.218 75.3086 115.473 75.27 115.75L74.9 118.61C75.2428 118.366 75.6118 118.162 76 118C76.3942 117.829 76.8024 117.692 77.22 117.59C77.7237 117.465 78.2409 117.401 78.76 117.4ZM101.86 117.4C103.184 117.39 104.496 117.645 105.72 118.15C106.893 118.64 107.962 119.349 108.87 120.24C109.768 121.134 110.484 122.194 110.98 123.36C111.49 124.569 111.748 125.868 111.74 127.18C111.753 128.536 111.488 129.881 110.96 131.13C110.451 132.325 109.698 133.402 108.75 134.29C107.758 135.209 106.596 135.926 105.33 136.4C103.928 136.932 102.439 137.197 100.94 137.18C99.5472 137.196 98.1626 136.966 96.85 136.5C95.6952 136.079 94.6176 135.471 93.66 134.7C92.776 133.982 92.0363 133.103 91.48 132.11C91.1897 131.565 90.9552 130.992 90.78 130.4C90.7332 130.256 90.7153 130.105 90.7272 129.954C90.739 129.803 90.7805 129.656 90.8493 129.522C90.918 129.387 91.0126 129.267 91.1277 129.169C91.2428 129.071 91.3761 128.996 91.52 128.95C91.6128 128.936 91.7072 128.936 91.8 128.95L96.24 128.64C96.4651 128.624 96.6898 128.676 96.8856 128.788C97.0814 128.9 97.2396 129.068 97.34 129.27C97.4557 129.513 97.6 129.741 97.77 129.95C98.1046 130.335 98.5082 130.654 98.96 130.89C99.5806 131.197 100.268 131.345 100.96 131.32C101.505 131.333 102.047 131.234 102.553 131.029C103.059 130.824 103.517 130.518 103.9 130.13C104.668 129.358 105.098 128.314 105.098 127.225C105.098 126.136 104.668 125.092 103.9 124.32C103.517 123.932 103.059 123.626 102.553 123.421C102.047 123.217 101.505 123.117 100.96 123.13C100.313 123.103 99.6688 123.23 99.08 123.5C98.6484 123.704 98.2451 123.963 97.88 124.27C97.697 124.467 97.5298 124.677 97.38 124.9C97.2708 125.063 97.1215 125.196 96.9464 125.285C96.7714 125.375 96.5764 125.418 96.38 125.41H92.35C92.0423 125.41 91.7473 125.288 91.5297 125.07C91.3122 124.853 91.19 124.558 91.19 124.25C91.19 124.25 91.19 124.17 91.19 124.13L92.78 109.39C92.8166 109.112 92.9537 108.856 93.1656 108.672C93.3774 108.488 93.6493 108.388 93.93 108.39H108.5C108.652 108.389 108.802 108.417 108.943 108.475C109.084 108.532 109.212 108.616 109.32 108.723C109.427 108.83 109.513 108.957 109.572 109.098C109.63 109.238 109.66 109.388 109.66 109.54V113.6C109.66 113.752 109.63 113.902 109.572 114.042C109.513 114.183 109.427 114.31 109.32 114.417C109.212 114.524 109.084 114.608 108.943 114.665C108.802 114.723 108.652 114.751 108.5 114.75H99.5C99.221 114.75 98.9515 114.852 98.7418 115.035C98.5321 115.219 98.3964 115.473 98.36 115.75L98 118.54C98.3491 118.317 98.7212 118.133 99.11 117.99C99.5007 117.819 99.9056 117.681 100.32 117.58C100.824 117.459 101.341 117.399 101.86 117.4Z" fill="url(#paint7_linear_4_547)"/>
<path d="M158.21 108.32V109.07C158.265 109.073 158.319 109.086 158.369 109.11C158.419 109.133 158.464 109.166 158.501 109.207C158.538 109.248 158.567 109.296 158.586 109.348C158.604 109.4 158.613 109.455 158.61 109.51C158.614 109.602 158.59 109.693 158.54 109.77L151.46 121.05L151.24 121.39L151.41 121.76L151.46 121.86C151.488 121.934 151.525 122.005 151.57 122.07L159.89 135.59C159.952 135.692 159.974 135.814 159.95 135.931C159.926 136.048 159.858 136.151 159.76 136.22C159.699 136.258 159.631 136.282 159.56 136.29H154.01C153.941 136.289 153.873 136.27 153.814 136.235C153.754 136.2 153.705 136.15 153.67 136.09L147.12 125.09L146.75 124.47L146.24 123.62L145.56 124.34C145.215 124.709 145.022 125.195 145.02 125.7V135.87C145.025 135.982 144.987 136.093 144.912 136.177C144.837 136.261 144.732 136.312 144.62 136.32H139.87C139.813 136.317 139.758 136.304 139.707 136.28C139.656 136.256 139.61 136.222 139.572 136.18C139.534 136.138 139.504 136.089 139.485 136.036C139.466 135.983 139.457 135.926 139.46 135.87V109.55C139.457 109.494 139.466 109.437 139.485 109.384C139.504 109.331 139.534 109.282 139.572 109.24C139.61 109.198 139.656 109.164 139.707 109.14C139.758 109.116 139.813 109.103 139.87 109.1H144.62C144.732 109.108 144.837 109.159 144.912 109.243C144.987 109.327 145.025 109.438 145.02 109.55V116.8C145.019 116.972 145.051 117.143 145.116 117.302C145.18 117.462 145.276 117.607 145.397 117.729C145.517 117.852 145.661 117.949 145.819 118.016C145.978 118.084 146.148 118.119 146.32 118.12C146.619 118.118 146.912 118.037 147.17 117.886C147.428 117.735 147.641 117.519 147.79 117.26L152.34 109.26C152.374 109.199 152.423 109.148 152.483 109.111C152.542 109.074 152.61 109.053 152.68 109.05H158.21V108.3M124.95 109.04C127.485 109.04 129.916 110.046 131.71 111.836C133.504 113.626 134.515 116.055 134.52 118.59V126.85C134.44 129.336 133.396 131.693 131.609 133.423C129.822 135.153 127.432 136.121 124.945 136.121C122.458 136.121 120.068 135.153 118.281 133.423C116.494 131.693 115.45 129.336 115.37 126.85V118.59C115.375 116.054 116.387 113.623 118.184 111.832C119.98 110.042 122.414 109.037 124.95 109.04ZM124.95 130.8C126.002 130.8 127.012 130.386 127.761 129.646C128.51 128.907 128.937 127.902 128.95 126.85V118.59C128.807 117.644 128.329 116.78 127.603 116.156C126.878 115.532 125.952 115.188 124.995 115.188C124.038 115.188 123.112 115.532 122.387 116.156C121.661 116.78 121.183 117.644 121.04 118.59V126.85C121.053 127.902 121.48 128.907 122.229 129.646C122.978 130.386 123.988 130.8 125.04 130.8M108.6 109.04C108.653 109.039 108.706 109.048 108.756 109.068C108.806 109.087 108.851 109.116 108.889 109.154C108.928 109.191 108.958 109.235 108.979 109.285C108.999 109.334 109.01 109.387 109.01 109.44V113.5C109.01 113.553 108.999 113.606 108.979 113.655C108.958 113.705 108.928 113.749 108.889 113.786C108.851 113.824 108.806 113.853 108.756 113.872C108.706 113.892 108.653 113.901 108.6 113.9H99.6C99.1379 113.903 98.6924 114.072 98.3453 114.377C97.9981 114.682 97.7726 115.102 97.71 115.56L97.34 118.42L97 120L98.35 119.15C98.6683 118.958 99.0029 118.794 99.35 118.66C99.7047 118.504 100.073 118.38 100.45 118.29C100.908 118.176 101.378 118.122 101.85 118.13C103.074 118.12 104.288 118.355 105.42 118.82C107.074 119.495 108.488 120.651 109.479 122.138C110.47 123.624 110.993 125.373 110.98 127.16C110.988 128.413 110.743 129.654 110.26 130.81C109.804 131.909 109.122 132.9 108.26 133.72C107.342 134.59 106.262 135.27 105.08 135.72C103.764 136.216 102.367 136.463 100.96 136.45C99.6556 136.464 98.359 136.247 97.13 135.81C96.0431 135.426 95.0289 134.862 94.13 134.14C93.3212 133.478 92.643 132.671 92.13 131.76C91.8682 131.258 91.6539 130.732 91.49 130.19C91.4505 130.09 91.4505 129.98 91.49 129.88C91.5411 129.789 91.6224 129.718 91.72 129.68H91.82L96.28 129.38C96.3558 129.38 96.4302 129.4 96.4953 129.439C96.5605 129.478 96.6139 129.533 96.65 129.6C96.7843 129.894 96.9557 130.17 97.16 130.42C97.5592 130.872 98.0369 131.248 98.57 131.53C99.512 131.993 100.573 132.158 101.611 132.003C102.649 131.847 103.615 131.379 104.38 130.66C105.289 129.744 105.8 128.506 105.8 127.215C105.8 125.924 105.289 124.686 104.38 123.77C103.926 123.315 103.384 122.956 102.788 122.716C102.192 122.475 101.553 122.357 100.91 122.37C100.146 122.348 99.3875 122.498 98.69 122.81C98.1895 123.057 97.7225 123.366 97.3 123.73C97.0816 123.959 96.8841 124.206 96.71 124.47C96.6733 124.524 96.6242 124.569 96.5668 124.6C96.5094 124.631 96.4454 124.648 96.38 124.65H92.35C92.2935 124.649 92.2378 124.636 92.1864 124.612C92.1351 124.589 92.0892 124.555 92.0516 124.512C92.014 124.47 91.9856 124.421 91.9681 124.367C91.9506 124.313 91.9445 124.256 91.95 124.2L93.53 109.46C93.5423 109.36 93.5908 109.268 93.6664 109.202C93.742 109.136 93.8394 109.099 93.94 109.1H108.51M85.42 109.1C85.5261 109.1 85.6278 109.142 85.7028 109.217C85.7778 109.292 85.82 109.394 85.82 109.5V113.56C85.82 113.666 85.7778 113.768 85.7028 113.843C85.6278 113.918 85.5261 113.96 85.42 113.96H76.42C75.9573 113.961 75.5107 114.13 75.1631 114.435C74.8155 114.74 74.5905 115.161 74.53 115.62L74.15 118.48L73.95 120.06L75.3 119.21C75.9616 118.837 76.667 118.548 77.4 118.35C77.858 118.237 78.3284 118.184 78.8 118.19C80.0242 118.178 81.2384 118.413 82.37 118.88C83.4575 119.33 84.4462 119.989 85.28 120.82C86.1284 121.654 86.8003 122.651 87.2556 123.751C87.7108 124.85 87.9402 126.03 87.93 127.22C87.9428 128.473 87.6977 129.716 87.21 130.87C86.7536 131.969 86.0723 132.96 85.21 133.78C84.2957 134.654 83.214 135.335 82.03 135.78C80.7138 136.277 79.3167 136.524 77.91 136.51C76.6088 136.524 75.3154 136.308 74.09 135.87C73.0021 135.488 71.9875 134.924 71.09 134.2C70.2817 133.537 69.6035 132.73 69.09 131.82C68.8322 131.317 68.6213 130.792 68.46 130.25C68.4376 130.201 68.426 130.149 68.426 130.095C68.426 130.041 68.4376 129.989 68.46 129.94C68.5128 129.846 68.5982 129.775 68.7 129.74H68.8L73.26 129.44C73.3341 129.442 73.4064 129.463 73.4696 129.502C73.5328 129.54 73.5847 129.595 73.62 129.66C73.7573 129.955 73.932 130.23 74.14 130.48C74.6639 131.127 75.3437 131.63 76.1154 131.942C76.8871 132.254 77.7255 132.364 78.5517 132.263C79.3779 132.162 80.1648 131.852 80.8385 131.364C81.5123 130.875 82.0507 130.223 82.4032 129.469C82.7557 128.715 82.9108 127.884 82.8538 127.053C82.7967 126.223 82.5296 125.42 82.0773 124.722C81.625 124.023 81.0026 123.451 80.2683 123.058C79.5341 122.666 78.7123 122.467 77.88 122.48C77.1194 122.457 76.3636 122.607 75.67 122.92C75.1667 123.162 74.699 123.471 74.28 123.84C74.058 124.068 73.8572 124.316 73.68 124.58C73.6439 124.635 73.595 124.68 73.5375 124.711C73.4799 124.743 73.4155 124.759 73.35 124.76H69.25C69.1935 124.759 69.1378 124.746 69.0864 124.722C69.0351 124.699 68.9892 124.665 68.9516 124.622C68.914 124.58 68.8856 124.531 68.8681 124.477C68.8506 124.423 68.8445 124.366 68.85 124.31L70.44 109.57C70.4477 109.47 70.4935 109.377 70.568 109.31C70.6424 109.243 70.7398 109.207 70.84 109.21H85.42M124.95 108.46C122.215 108.457 119.59 109.541 117.653 111.472C115.716 113.403 114.625 116.025 114.62 118.76V127.02C114.703 129.703 115.828 132.248 117.755 134.116C119.682 135.984 122.261 137.029 124.945 137.029C127.629 137.029 130.208 135.984 132.135 134.116C134.062 132.248 135.186 129.703 135.27 127.02V118.76C135.289 117.398 135.037 116.045 134.529 114.781C134.022 113.516 133.269 112.365 132.314 111.393C131.359 110.422 130.221 109.649 128.966 109.12C127.71 108.59 126.362 108.315 125 108.31L124.95 108.46ZM124.95 130.22C124.1 130.22 123.285 129.883 122.684 129.283C122.082 128.684 121.743 127.87 121.74 127.02V118.76C121.786 117.941 122.143 117.17 122.739 116.607C123.335 116.043 124.125 115.729 124.945 115.729C125.765 115.729 126.555 116.043 127.151 116.607C127.747 117.17 128.104 117.941 128.15 118.76V127.02C128.15 127.869 127.813 128.683 127.213 129.283C126.613 129.883 125.799 130.22 124.95 130.22ZM108.51 108.46H93.94C93.6593 108.458 93.3874 108.558 93.1756 108.742C92.9637 108.926 92.8266 109.182 92.79 109.46L91.2 124.08C91.2 124.08 91.2 124.16 91.2 124.2C91.2 124.508 91.3222 124.803 91.5397 125.02C91.7573 125.238 92.0523 125.36 92.36 125.36H96.42C96.6164 125.368 96.8114 125.325 96.9864 125.235C97.1615 125.146 97.3108 125.013 97.42 124.85C97.5698 124.627 97.737 124.417 97.92 124.22C98.2851 123.913 98.6884 123.654 99.12 123.45C99.7088 123.18 100.353 123.054 101 123.08C101.545 123.067 102.087 123.167 102.593 123.371C103.099 123.576 103.557 123.882 103.94 124.27C104.708 125.042 105.138 126.086 105.138 127.175C105.138 128.264 104.708 129.308 103.94 130.08C103.557 130.468 103.099 130.774 102.593 130.979C102.087 131.184 101.545 131.283 101 131.27C100.308 131.295 99.6206 131.147 99 130.84C98.5482 130.604 98.1446 130.285 97.81 129.9C97.64 129.691 97.4957 129.463 97.38 129.22C97.2868 129.034 97.1443 128.876 96.968 128.765C96.7917 128.654 96.5883 128.594 96.38 128.59H96.31L91.87 128.9C91.7772 128.886 91.6828 128.886 91.59 128.9C91.4461 128.946 91.3128 129.021 91.1977 129.119C91.0826 129.217 90.988 129.337 90.9193 129.472C90.8505 129.606 90.809 129.753 90.7972 129.904C90.7853 130.055 90.8032 130.206 90.85 130.35C91.0252 130.942 91.2597 131.515 91.55 132.06C92.1063 133.053 92.846 133.932 93.73 134.65C94.6876 135.421 95.7652 136.029 96.92 136.45C98.2326 136.916 99.6172 137.146 101.01 137.13C102.509 137.147 103.998 136.882 105.4 136.35C106.666 135.876 107.828 135.159 108.82 134.24C109.768 133.352 110.521 132.275 111.03 131.08C111.558 129.831 111.823 128.486 111.81 127.13C111.818 125.818 111.56 124.519 111.05 123.31C110.554 122.144 109.838 121.084 108.94 120.19C108.032 119.299 106.963 118.59 105.79 118.1C104.566 117.595 103.254 117.34 101.93 117.35C101.395 117.345 100.861 117.405 100.34 117.53C99.9256 117.631 99.5207 117.769 99.13 117.94C98.7412 118.083 98.3691 118.267 98.02 118.49L98.4 115.63C98.4364 115.353 98.5721 115.099 98.7818 114.915C98.9915 114.732 99.261 114.63 99.54 114.63H108.54C108.692 114.631 108.842 114.603 108.983 114.545C109.124 114.488 109.252 114.404 109.36 114.297C109.467 114.19 109.553 114.063 109.612 113.922C109.67 113.782 109.7 113.632 109.7 113.48V109.42C109.7 109.268 109.67 109.118 109.612 108.978C109.553 108.837 109.467 108.71 109.36 108.603C109.252 108.496 109.124 108.412 108.983 108.355C108.842 108.297 108.692 108.269 108.54 108.27L108.51 108.46ZM85.42 108.46H70.84C70.5599 108.46 70.2891 108.561 70.0777 108.745C69.8664 108.928 69.7286 109.183 69.69 109.46L68.1 124.08V124.2C68.1 124.506 68.2208 124.799 68.4362 125.017C68.6516 125.234 68.9441 125.357 69.25 125.36H73.31C73.5065 125.368 73.7019 125.326 73.8771 125.237C74.0523 125.147 74.2015 125.014 74.31 124.85C74.4596 124.624 74.6304 124.413 74.82 124.22C75.1797 123.91 75.5801 123.651 76.01 123.45C76.5991 123.181 77.243 123.055 77.89 123.08C78.4453 123.059 78.9988 123.154 79.5153 123.359C80.0319 123.564 80.5 123.874 80.89 124.27C81.6528 125.045 82.0803 126.088 82.0803 127.175C82.0803 128.262 81.6528 129.306 80.89 130.08C80.5 130.476 80.0319 130.786 79.5153 130.991C78.9988 131.196 78.4453 131.291 77.89 131.27C77.2928 131.293 76.6981 131.182 76.1495 130.945C75.601 130.708 75.1125 130.351 74.72 129.9C74.5537 129.691 74.4128 129.462 74.3 129.22C74.2051 129.035 74.0622 128.879 73.8862 128.768C73.7103 128.657 73.5078 128.596 73.3 128.59H73.22L68.78 128.9C68.6906 128.886 68.5994 128.886 68.51 128.9C68.3652 128.945 68.2309 129.019 68.1147 129.117C67.9985 129.214 67.9028 129.334 67.8331 129.469C67.7634 129.604 67.721 129.751 67.7085 129.902C67.6959 130.053 67.7134 130.206 67.76 130.35C67.9396 130.941 68.1739 131.513 68.46 132.06C69.0187 133.052 69.7581 133.93 70.64 134.65C71.6011 135.421 72.6821 136.029 73.84 136.45C75.1489 136.917 76.5304 137.147 77.92 137.13C79.4192 137.147 80.9082 136.882 82.31 136.35C83.5777 135.879 84.7399 135.161 85.73 134.24C86.6782 133.352 87.4309 132.275 87.94 131.08C88.4675 129.831 88.733 128.486 88.72 127.13C88.7329 125.818 88.4742 124.517 87.96 123.31C87.468 122.142 86.751 121.082 85.85 120.19C84.9275 119.279 83.8343 118.56 82.6331 118.072C81.4319 117.585 80.1463 117.339 78.85 117.35C78.3179 117.344 77.7871 117.405 77.27 117.53C76.8334 117.648 76.4084 117.806 76 118C75.6144 118.143 75.2456 118.327 74.9 118.55L75.27 115.69C75.3086 115.413 75.4464 115.158 75.6577 114.975C75.8691 114.791 76.1399 114.69 76.42 114.69H85.42C85.5714 114.691 85.7215 114.663 85.8616 114.605C86.0018 114.548 86.1291 114.463 86.2361 114.356C86.3432 114.249 86.4278 114.122 86.4852 113.982C86.5425 113.842 86.5713 113.691 86.57 113.54V109.48C86.5713 109.329 86.5425 109.178 86.4852 109.038C86.4278 108.898 86.3432 108.771 86.2361 108.664C86.1291 108.557 86.0018 108.472 85.8616 108.415C85.7215 108.358 85.5714 108.329 85.42 108.33V108.46ZM158.21 108.46H152.69C152.486 108.463 152.287 108.519 152.112 108.622C151.936 108.726 151.791 108.873 151.69 109.05L147.14 117C147.055 117.144 146.936 117.264 146.792 117.349C146.649 117.435 146.487 117.483 146.32 117.49C146.246 117.489 146.174 117.473 146.106 117.444C146.039 117.414 145.978 117.372 145.927 117.319C145.876 117.266 145.836 117.204 145.809 117.135C145.782 117.067 145.769 116.994 145.77 116.92V109.67C145.774 109.516 145.747 109.362 145.692 109.218C145.636 109.074 145.552 108.942 145.445 108.83C145.338 108.719 145.21 108.629 145.069 108.568C144.927 108.506 144.775 108.473 144.62 108.47H139.87C139.715 108.473 139.562 108.506 139.42 108.567C139.278 108.629 139.149 108.718 139.041 108.83C138.934 108.941 138.849 109.073 138.792 109.217C138.735 109.361 138.707 109.515 138.71 109.67V135.98C138.707 136.135 138.735 136.289 138.792 136.433C138.849 136.577 138.934 136.709 139.041 136.82C139.149 136.932 139.278 137.021 139.42 137.083C139.562 137.144 139.715 137.177 139.87 137.18H144.62C144.775 137.177 144.927 137.144 145.069 137.082C145.21 137.021 145.338 136.931 145.445 136.82C145.552 136.708 145.636 136.576 145.692 136.432C145.747 136.288 145.774 136.134 145.77 135.98V125.69C145.773 125.379 145.89 125.08 146.1 124.85L146.47 125.47L153.02 136.47C153.122 136.644 153.268 136.789 153.444 136.889C153.619 136.989 153.818 137.041 154.02 137.04H159.57C159.786 137.042 159.999 136.985 160.185 136.875C160.371 136.765 160.524 136.606 160.627 136.416C160.729 136.226 160.779 136.011 160.769 135.795C160.759 135.579 160.69 135.37 160.57 135.19L152.25 121.68C152.221 121.64 152.197 121.596 152.18 121.55V121.45L159.27 110.17C159.393 109.972 159.455 109.743 159.45 109.51C159.453 109.356 159.425 109.204 159.369 109.061C159.312 108.918 159.228 108.787 159.121 108.677C159.015 108.566 158.887 108.478 158.746 108.417C158.605 108.355 158.454 108.323 158.3 108.32L158.21 108.46Z" fill="url(#paint8_linear_4_547)"/>
</g>
<defs>
<linearGradient id="paint0_linear_4_547" x1="140.71" y1="-16.2" x2="91.83" y2="261.03" gradientUnits="userSpaceOnUse">
<stop offset="0.25" stop-color="#F6E594"/>
<stop offset="0.38" stop-color="#F5E492"/>
<stop offset="0.43" stop-color="#F2DE8B"/>
<stop offset="0.47" stop-color="#ECD580"/>
<stop offset="0.49" stop-color="#E4C86F"/>
<stop offset="0.5" stop-color="#E2C46A"/>
<stop offset="0.61" stop-color="#C89E3F"/>
<stop offset="0.72" stop-color="#E8D17E"/>
<stop offset="0.76" stop-color="#E5CE7C"/>
<stop offset="0.79" stop-color="#DCC574"/>
<stop offset="0.81" stop-color="#CDB568"/>
<stop offset="0.83" stop-color="#B79F57"/>
<stop offset="0.86" stop-color="#9B8240"/>
<stop offset="0.88" stop-color="#684E18"/>
</linearGradient>
<linearGradient id="paint1_linear_4_547" x1="140.67" y1="-15.98" x2="91.86" y2="260.81" gradientUnits="userSpaceOnUse">
<stop offset="0.25" stop-color="#F6E594"/>
<stop offset="0.38" stop-color="#F5E492"/>
<stop offset="0.43" stop-color="#F2DE8B"/>
<stop offset="0.47" stop-color="#ECD580"/>
<stop offset="0.49" stop-color="#E4C86F"/>
<stop offset="0.5" stop-color="#E2C46A"/>
<stop offset="0.61" stop-color="#C89E3F"/>
<stop offset="0.72" stop-color="#E8D17E"/>
<stop offset="0.76" stop-color="#E5CE7C"/>
<stop offset="0.79" stop-color="#DCC574"/>
<stop offset="0.81" stop-color="#CDB568"/>
<stop offset="0.83" stop-color="#B79F57"/>
<stop offset="0.86" stop-color="#9B8240"/>
<stop offset="0.88" stop-color="#684E18"/>
</linearGradient>
<linearGradient id="paint2_linear_4_547" x1="146.14" y1="16.5" x2="67.15" y2="233.51" gradientUnits="userSpaceOnUse">
<stop stop-color="#F6E594"/>
<stop offset="0.33" stop-color="#F6E492"/>
<stop offset="0.45" stop-color="#F4DF8B"/>
<stop offset="0.53" stop-color="#F2D880"/>
<stop offset="0.6" stop-color="#EFCD6F"/>
<stop offset="0.65" stop-color="#EBC15C"/>
<stop offset="0.7" stop-color="#C89D47"/>
<stop offset="0.82" stop-color="#7A4D18"/>
<stop offset="0.97" stop-color="#C1914C"/>
</linearGradient>
<linearGradient id="paint3_linear_4_547" x1="166.09" y1="34.2" x2="53.02" y2="230.04" gradientUnits="userSpaceOnUse">
<stop stop-color="#FFFFAD"/>
<stop offset="0.26" stop-color="#F6E594"/>
<stop offset="0.34" stop-color="#F5E492"/>
<stop offset="0.37" stop-color="#F2DE8B"/>
<stop offset="0.39" stop-color="#ECD580"/>
<stop offset="0.41" stop-color="#E2C46A"/>
<stop offset="0.51" stop-color="#A68C46"/>
<stop offset="0.66" stop-color="#564217"/>
<stop offset="0.68" stop-color="#75612D"/>
<stop offset="0.73" stop-color="#C7B167"/>
<stop offset="0.75" stop-color="#E8D17E"/>
<stop offset="0.78" stop-color="#E5CE7C"/>
<stop offset="0.81" stop-color="#DDC574"/>
<stop offset="0.83" stop-color="#CFB568"/>
<stop offset="0.85" stop-color="#BB9F56"/>
<stop offset="0.86" stop-color="#A2823F"/>
<stop offset="0.88" stop-color="#825E23"/>
<stop offset="0.9" stop-color="#5B3200"/>
</linearGradient>
<linearGradient id="paint4_linear_4_547" x1="116.21" y1="155.95" x2="116.21" y2="166.49" gradientUnits="userSpaceOnUse">
<stop stop-color="#F6E594"/>
<stop offset="0.21" stop-color="#F5E492"/>
<stop offset="0.29" stop-color="#F2DE8B"/>
<stop offset="0.34" stop-color="#ECD580"/>
<stop offset="0.39" stop-color="#E4C86F"/>
<stop offset="0.4" stop-color="#E2C46A"/>
<stop offset="0.49" stop-color="#BA9D4E"/>
<stop offset="0.69" stop-color="#6A4E17"/>
<stop offset="0.72" stop-color="#6F531B"/>
<stop offset="0.75" stop-color="#7D6227"/>
<stop offset="0.79" stop-color="#957B3A"/>
<stop offset="0.83" stop-color="#B69D55"/>
<stop offset="0.86" stop-color="#E0C977"/>
<stop offset="0.87" stop-color="#E8D17E"/>
<stop offset="0.9" stop-color="#E5CE7C"/>
<stop offset="0.92" stop-color="#DCC574"/>
<stop offset="0.94" stop-color="#CDB568"/>
<stop offset="0.96" stop-color="#B79F57"/>
<stop offset="0.98" stop-color="#9B8240"/>
<stop offset="0.99" stop-color="#785F25"/>
<stop offset="1" stop-color="#684E18"/>
</linearGradient>
<linearGradient id="paint5_linear_4_547" x1="116.34" y1="76.23" x2="116.34" y2="86.77" gradientUnits="userSpaceOnUse">
<stop stop-color="#F6E594"/>
<stop offset="0.21" stop-color="#F5E492"/>
<stop offset="0.29" stop-color="#F2DE8B"/>
<stop offset="0.34" stop-color="#ECD580"/>
<stop offset="0.39" stop-color="#E4C86F"/>
<stop offset="0.4" stop-color="#E2C46A"/>
<stop offset="0.49" stop-color="#BA9D4E"/>
<stop offset="0.69" stop-color="#6A4E17"/>
<stop offset="0.72" stop-color="#6F531B"/>
<stop offset="0.75" stop-color="#7D6227"/>
<stop offset="0.79" stop-color="#957B3A"/>
<stop offset="0.83" stop-color="#B69D55"/>
<stop offset="0.86" stop-color="#E0C977"/>
<stop offset="0.87" stop-color="#E8D17E"/>
<stop offset="0.9" stop-color="#E5CE7C"/>
<stop offset="0.92" stop-color="#DCC574"/>
<stop offset="0.94" stop-color="#CDB568"/>
<stop offset="0.96" stop-color="#B79F57"/>
<stop offset="0.98" stop-color="#9B8240"/>
<stop offset="0.99" stop-color="#785F25"/>
<stop offset="1" stop-color="#684E18"/>
</linearGradient>
<linearGradient id="paint6_linear_4_547" x1="133.74" y1="90.5601" x2="97.26" y2="153.73" gradientUnits="userSpaceOnUse">
<stop stop-color="#F6E594"/>
<stop offset="0.36" stop-color="#F6E492"/>
<stop offset="0.5" stop-color="#F4DF8B"/>
<stop offset="0.59" stop-color="#F2D880"/>
<stop offset="0.66" stop-color="#EFCD6F"/>
<stop offset="0.72" stop-color="#EBC15C"/>
<stop offset="0.77" stop-color="#C89D47"/>
<stop offset="0.88" stop-color="#7A4D18"/>
<stop offset="0.95" stop-color="#C1914C"/>
<stop offset="0.96" stop-color="#BE8F4A"/>
<stop offset="0.97" stop-color="#B58742"/>
<stop offset="0.98" stop-color="#A57B36"/>
<stop offset="0.99" stop-color="#8F6924"/>
<stop offset="1" stop-color="#624600"/>
</linearGradient>
<linearGradient id="paint7_linear_4_547" x1="114.17" y1="151.62" x2="114.17" y2="112.33" gradientUnits="userSpaceOnUse">
<stop stop-color="#F6E594"/>
<stop offset="0.17" stop-color="#F6E492"/>
<stop offset="0.24" stop-color="#F4DF8B"/>
<stop offset="0.28" stop-color="#F2D880"/>
<stop offset="0.32" stop-color="#EFCD6F"/>
<stop offset="0.35" stop-color="#EBC15C"/>
<stop offset="0.4" stop-color="#C89D47"/>
<stop offset="0.54" stop-color="#7A4D18"/>
<stop offset="0.66" stop-color="#B68644"/>
<stop offset="0.88" stop-color="#F5E08C"/>
</linearGradient>
<linearGradient id="paint8_linear_4_547" x1="114.17" y1="108.31" x2="114.17" y2="137.18" gradientUnits="userSpaceOnUse">
<stop stop-color="#FFF7AB"/>
<stop offset="0.41" stop-color="#F6E594"/>
<stop offset="0.57" stop-color="#F6E492"/>
<stop offset="0.62" stop-color="#F4DF8B"/>
<stop offset="0.66" stop-color="#F2D880"/>
<stop offset="0.7" stop-color="#EFCD6F"/>
<stop offset="0.72" stop-color="#EBC15C"/>
<stop offset="0.77" stop-color="#C89D47"/>
<stop offset="0.88" stop-color="#7A4D18"/>
<stop offset="0.91" stop-color="#C1914C"/>
<stop offset="0.92" stop-color="#BE8E4A"/>
<stop offset="0.94" stop-color="#B58643"/>
<stop offset="0.95" stop-color="#A57838"/>
<stop offset="0.96" stop-color="#724A14"/>
<stop offset="0.97" stop-color="#553000"/>
</linearGradient>
</defs>
</svg>
