<svg width="233" height="232" viewBox="0 0 233 232" fill="none" xmlns="http://www.w3.org/2000/svg">
<mask id="mask0_4_1001" style="mask-type:luminance" maskUnits="userSpaceOnUse" x="0" y="0" width="233" height="232">
<path d="M232.57 0H0V231.49H232.57V0Z" fill="white"/>
</mask>
<g mask="url(#mask0_4_1001)">
<path d="M115.37 24.78L145.65 86.13L213.35 95.97L164.36 143.72L175.92 211.15L115.37 179.31L54.82 211.15L66.38 143.72L17.39 95.97L85.09 86.13L115.37 24.78Z" fill="black"/>
<mask id="mask1_4_1001" style="mask-type:luminance" maskUnits="userSpaceOnUse" x="18" y="24" width="197" height="188">
<path d="M116.37 24.78L146.65 86.13L214.35 95.97L165.36 143.72L176.92 211.15L116.37 179.31L55.82 211.15L67.38 143.72L18.39 95.97L86.09 86.13L116.37 24.78Z" fill="white"/>
</mask>
<g mask="url(#mask1_4_1001)">
<path d="M115.69 264.47V126.05L72.92 257.7L71.82 257.34L114.6 125.69L33.23 237.68L32.3 237L113.67 125.02L1.68004 206.38L1.00004 205.45L112.99 124.08L-18.66 166.86L-19.02 165.77L112.64 122.99H-25.79V121.84H112.64L-19.02 79.06L-18.66 77.97L112.99 120.75L1.00004 39.38L1.68004 38.45L113.67 119.82L32.3 7.82996L33.23 7.14997L114.6 119.14L71.82 -12.51L72.92 -12.86L115.69 118.79V-19.64H116.84V118.79L159.62 -12.86L160.71 -12.51L117.94 119.14L199.3 7.14997L200.23 7.82996L118.87 119.82L230.85 38.45L231.53 39.38L119.54 120.75L251.19 77.97L251.55 79.06L119.9 121.84H258.32V122.99H119.9L251.55 165.77L251.19 166.86L119.54 124.08L231.53 205.45L230.85 206.38L118.87 125.02L200.23 237L199.3 237.68L117.94 125.69L160.71 257.34L159.62 257.7L116.84 126.05V264.47H115.69Z" fill="url(#paint0_linear_4_1001)"/>
<path d="M258.12 122.04H118.63L251.3 78.9399L251.06 78.2199L118.4 121.33L231.25 39.3399L230.81 38.7299L117.96 120.72L199.95 7.86994L199.34 7.42994L117.36 120.28L160.46 -12.3801L159.75 -12.6101L116.64 120.05V-19.4401H115.89V120.05L72.79 -12.6101L72.07 -12.3801L115.18 120.28L33.19 7.42994L32.58 7.86994L114.57 120.72L1.72006 38.7299L1.28008 39.3399L114.13 121.33L-18.53 78.2199L-18.76 78.9399L113.9 122.04H-25.59V122.79H113.9L-18.76 165.9L-18.53 166.61L114.13 123.5L1.28008 205.49L1.72006 206.1L114.57 124.11L32.58 236.96L33.19 237.4L115.18 124.55L72.07 257.21L72.79 257.44L115.89 124.78V264.27H116.64V124.78L159.75 257.44L160.46 257.21L117.36 124.55L199.34 237.4L199.95 236.96L117.96 124.11L230.81 206.1L231.25 205.49L118.4 123.5L251.06 166.61L251.3 165.9L118.63 122.79H258.12V122.04Z" fill="url(#paint1_linear_4_1001)"/>
</g>
<path d="M185.47 225.46L117.18 187.89C116.884 187.727 116.552 187.642 116.215 187.642C115.878 187.642 115.546 187.727 115.25 187.89L47 225.45C46.6758 225.642 46.304 225.739 45.9273 225.729C45.5507 225.719 45.1845 225.603 44.871 225.394C44.5574 225.184 44.3094 224.891 44.1553 224.547C44.0012 224.203 43.9473 223.823 44 223.45L55.16 148.45C55.2051 148.143 55.178 147.829 55.0808 147.534C54.9836 147.239 54.8189 146.97 54.6 146.75L1.47998 93.5401C1.22288 93.2857 1.03956 92.9664 0.949542 92.6161C0.859522 92.2659 0.866167 91.8977 0.968772 91.5509C1.07138 91.2041 1.2661 90.8916 1.53221 90.6467C1.79833 90.4018 2.12587 90.2336 2.47998 90.1601L75.48 75.3901C75.7641 75.3313 76.032 75.2114 76.2651 75.0387C76.4982 74.866 76.6909 74.6447 76.83 74.3901L114.55 6.80005C114.721 6.48255 114.975 6.21732 115.285 6.03246C115.595 5.8476 115.949 5.75 116.31 5.75C116.671 5.75 117.025 5.8476 117.335 6.03246C117.645 6.21732 117.899 6.48255 118.07 6.80005L154.65 75.2801C154.794 75.5404 154.995 75.7653 155.237 75.9383C155.479 76.1113 155.757 76.2281 156.05 76.2801L230 90.0001C230.36 90.0653 230.696 90.2281 230.97 90.4708C231.244 90.7135 231.446 91.0267 231.554 91.3764C231.662 91.726 231.673 92.0987 231.584 92.4537C231.495 92.8088 231.31 93.1327 231.05 93.3901L177.55 146.61C177.328 146.833 177.162 147.104 177.064 147.403C176.967 147.702 176.942 148.019 176.99 148.33L188.37 223.33C188.438 223.699 188.4 224.08 188.262 224.429C188.123 224.778 187.889 225.081 187.587 225.303C187.284 225.525 186.925 225.658 186.551 225.685C186.177 225.713 185.802 225.635 185.47 225.46ZM27.81 101.46L68.46 142.08C68.6783 142.304 68.841 142.577 68.9348 142.876C69.0286 143.174 69.0509 143.491 69 143.8L60.74 199.36C60.6954 199.725 60.7521 200.094 60.9039 200.429C61.0556 200.763 61.2966 201.05 61.6003 201.256C61.904 201.463 62.2587 201.582 62.6256 201.6C62.9924 201.618 63.3572 201.535 63.68 201.36L115.23 173C115.526 172.837 115.858 172.752 116.195 172.752C116.532 172.752 116.864 172.837 117.16 173L168.65 201.33C168.973 201.505 169.338 201.588 169.704 201.57C170.071 201.552 170.426 201.433 170.73 201.226C171.033 201.02 171.274 200.733 171.426 200.399C171.578 200.064 171.635 199.695 171.59 199.33L163.17 143.8C163.123 143.491 163.15 143.175 163.247 142.878C163.344 142.581 163.51 142.311 163.73 142.09L204.33 101.69C204.587 101.436 204.77 101.116 204.86 100.766C204.95 100.416 204.944 100.048 204.841 99.7009C204.739 99.3541 204.544 99.0416 204.278 98.7967C204.012 98.5518 203.684 98.3836 203.33 98.3101L147.53 88.0001C147.237 87.9481 146.959 87.8313 146.717 87.6583C146.475 87.4853 146.274 87.2604 146.13 87.0001L117.81 34.0001C117.638 33.6851 117.384 33.4222 117.075 33.239C116.766 33.0559 116.414 32.9592 116.055 32.9592C115.696 32.9592 115.344 33.0559 115.035 33.239C114.726 33.4222 114.472 33.6851 114.3 34.0001L85.3 86.0001C85.1609 86.2547 84.9682 86.476 84.7351 86.6487C84.502 86.8214 84.2341 86.9413 83.95 87.0001L28.83 98.1001C28.4762 98.172 28.1486 98.3383 27.8817 98.5813C27.6148 98.8244 27.4187 99.1351 27.3141 99.4806C27.2095 99.8261 27.2004 100.193 27.2877 100.544C27.375 100.894 27.5555 101.214 27.81 101.47V101.46Z" fill="url(#paint2_linear_4_1001)"/>
<mask id="mask2_4_1001" style="mask-type:luminance" maskUnits="userSpaceOnUse" x="0" y="5" width="232" height="221">
<path d="M185.47 225.46L117.18 187.89C116.884 187.727 116.552 187.642 116.215 187.642C115.878 187.642 115.546 187.727 115.25 187.89L47 225.45C46.6758 225.642 46.304 225.739 45.9273 225.729C45.5507 225.719 45.1845 225.603 44.871 225.394C44.5574 225.184 44.3094 224.891 44.1553 224.547C44.0012 224.203 43.9473 223.823 44 223.45L55.16 148.45C55.2051 148.143 55.178 147.829 55.0808 147.534C54.9836 147.239 54.8189 146.97 54.6 146.75L1.47998 93.5401C1.22288 93.2857 1.03956 92.9664 0.949542 92.6161C0.859522 92.2659 0.866167 91.8977 0.968772 91.5509C1.07138 91.2041 1.2661 90.8916 1.53221 90.6467C1.79833 90.4018 2.12587 90.2336 2.47998 90.1601L75.48 75.3901C75.7641 75.3313 76.032 75.2114 76.2651 75.0387C76.4982 74.866 76.6909 74.6447 76.83 74.3901L114.55 6.80005C114.721 6.48255 114.975 6.21732 115.285 6.03246C115.595 5.8476 115.949 5.75 116.31 5.75C116.671 5.75 117.025 5.8476 117.335 6.03246C117.645 6.21732 117.899 6.48255 118.07 6.80005L154.65 75.2801C154.794 75.5404 154.995 75.7653 155.237 75.9383C155.479 76.1113 155.757 76.2281 156.05 76.2801L230 90.0001C230.36 90.0653 230.696 90.2281 230.97 90.4708C231.244 90.7135 231.446 91.0267 231.554 91.3764C231.662 91.726 231.673 92.0987 231.584 92.4537C231.495 92.8088 231.31 93.1327 231.05 93.3901L177.55 146.61C177.328 146.833 177.162 147.104 177.064 147.403C176.967 147.702 176.942 148.019 176.99 148.33L188.37 223.33C188.438 223.699 188.4 224.08 188.262 224.429C188.123 224.778 187.889 225.081 187.587 225.303C187.284 225.525 186.925 225.658 186.551 225.685C186.177 225.713 185.802 225.635 185.47 225.46ZM27.81 101.46L68.46 142.08C68.6783 142.304 68.841 142.577 68.9348 142.876C69.0286 143.174 69.0509 143.491 69 143.8L60.74 199.36C60.6954 199.725 60.7521 200.094 60.9039 200.429C61.0556 200.763 61.2966 201.05 61.6003 201.256C61.904 201.463 62.2587 201.582 62.6256 201.6C62.9924 201.618 63.3572 201.535 63.68 201.36L115.23 173C115.526 172.837 115.858 172.752 116.195 172.752C116.532 172.752 116.864 172.837 117.16 173L168.65 201.33C168.973 201.505 169.338 201.588 169.704 201.57C170.071 201.552 170.426 201.433 170.73 201.226C171.033 201.02 171.274 200.733 171.426 200.399C171.578 200.064 171.635 199.695 171.59 199.33L163.17 143.8C163.123 143.491 163.15 143.175 163.247 142.878C163.344 142.581 163.51 142.311 163.73 142.09L204.33 101.69C204.587 101.436 204.77 101.116 204.86 100.766C204.95 100.416 204.944 100.048 204.841 99.7009C204.739 99.3541 204.544 99.0416 204.278 98.7967C204.012 98.5518 203.684 98.3836 203.33 98.3101L147.53 88.0001C147.237 87.9481 146.959 87.8313 146.717 87.6583C146.475 87.4853 146.274 87.2604 146.13 87.0001L117.81 34.0001C117.638 33.6851 117.384 33.4222 117.075 33.239C116.766 33.0559 116.414 32.9592 116.055 32.9592C115.696 32.9592 115.344 33.0559 115.035 33.239C114.726 33.4222 114.472 33.6851 114.3 34.0001L85.3 86.0001C85.1609 86.2547 84.9682 86.476 84.7351 86.6487C84.502 86.8214 84.2341 86.9413 83.95 87.0001L28.83 98.1001C28.4762 98.172 28.1486 98.3383 27.8817 98.5813C27.6148 98.8244 27.4187 99.1351 27.3141 99.4806C27.2095 99.8261 27.2004 100.193 27.2877 100.544C27.375 100.894 27.5555 101.214 27.81 101.47V101.46Z" fill="white"/>
</mask>
<g mask="url(#mask2_4_1001)">
<path d="M116.64 -19.2599H115.89V264.45H116.64V-19.2599Z" fill="#C89E3F"/>
<path d="M109.212 -19.088L108.463 -19.0487L123.311 264.272L124.06 264.233L109.212 -19.088Z" fill="#C89E3F"/>
<path d="M101.808 -18.5266L101.062 -18.4482L130.718 263.708L131.464 263.629L101.808 -18.5266Z" fill="#C89E3F"/>
<path d="M94.441 -17.5693L93.7003 -17.452L138.082 262.765L138.823 262.648L94.441 -17.5693Z" fill="#C89E3F"/>
<path d="M87.1367 -16.2397L86.4031 -16.0838L145.39 261.426L146.123 261.27L87.1367 -16.2397Z" fill="#C89E3F"/>
<path d="M79.9107 -14.5223L79.1863 -14.3282L152.616 259.715L153.34 259.52L79.9107 -14.5223Z" fill="#C89E3F"/>
<path d="M72.7895 -12.431L72.0762 -12.1992L159.747 257.625L160.461 257.393L72.7895 -12.431Z" fill="#C89E3F"/>
<path d="M65.7806 -9.9707L65.0804 -9.70193L166.753 255.164L167.453 254.895L65.7806 -9.9707Z" fill="#C89E3F"/>
<path d="M58.9121 -7.14661L58.227 -6.84155L173.622 252.34L174.307 252.035L58.9121 -7.14661Z" fill="#C89E3F"/>
<path d="M52.1931 -3.96411L51.5248 -3.62362L180.326 249.164L180.995 248.823L52.1931 -3.96411Z" fill="#C89E3F"/>
<path d="M46.1267 -0.516113L45.4742 -0.141113L187.329 246.687L187.982 246.312L46.1267 -0.516113Z" fill="#C89E3F"/>
<path d="M39.3227 3.42065L38.6937 3.82913L193.213 241.768L193.842 241.36L39.3227 3.42065Z" fill="#C89E3F"/>
<path d="M33.183 7.60913L32.5762 8.04997L199.337 237.576L199.944 237.135L33.183 7.60913Z" fill="#C89E3F"/>
<path d="M27.2856 12.1183L26.7027 12.5903L205.247 233.074L205.83 232.602L27.2856 12.1183Z" fill="#C89E3F"/>
<path d="M21.6229 16.9297L21.0656 17.4316L210.905 228.269L211.462 227.767L21.6229 16.9297Z" fill="#C89E3F"/>
<path d="M16.218 22.0243L15.6877 22.5546L216.301 223.168L216.831 222.637L16.218 22.0243Z" fill="#C89E3F"/>
<path d="M11.0944 27.4022L10.5925 27.9596L221.43 217.799L221.932 217.241L11.0944 27.4022Z" fill="#C89E3F"/>
<path d="M6.25605 33.0331L5.78406 33.6159L226.268 212.16L226.74 211.577L6.25605 33.0331Z" fill="#C89E3F"/>
<path d="M1.71757 38.9156L1.27673 39.5224L230.803 206.283L231.244 205.676L1.71757 38.9156Z" fill="#C89E3F"/>
<path d="M-2.50613 45.0278L-2.91461 45.6568L235.025 200.176L235.433 199.547L-2.50613 45.0278Z" fill="#C89E3F"/>
<path d="M-6.39966 51.3469L-6.77466 51.9964L238.925 193.851L239.3 193.202L-6.39966 51.3469Z" fill="#C89E3F"/>
<path d="M-9.95737 57.8593L-10.2979 58.5276L242.49 187.329L242.83 186.661L-9.95737 57.8593Z" fill="#C89E3F"/>
<path d="M-13.1732 64.5604L-13.4782 65.2456L245.704 180.641L246.009 179.956L-13.1732 64.5604Z" fill="#C89E3F"/>
<path d="M-16.0308 71.4152L-16.2995 72.1154L248.567 173.788L248.835 173.088L-16.0308 71.4152Z" fill="#C89E3F"/>
<path d="M251.06 166.79L-18.76 79.1202L-18.53 78.4102L251.3 166.08L251.06 166.79Z" fill="#C89E3F"/>
<path d="M253.19 159.68L-20.85 86.2501L-20.66 85.5201L253.39 158.95L253.19 159.68Z" fill="#C89E3F"/>
<path d="M-22.4183 92.7346L-22.5743 93.4682L254.936 152.455L255.092 151.721L-22.4183 92.7346Z" fill="#C89E3F"/>
<path d="M-23.7864 100.033L-23.9037 100.774L256.313 145.156L256.431 144.415L-23.7864 100.033Z" fill="#C89E3F"/>
<path d="M-24.7723 107.396L-24.8507 108.142L257.305 137.797L257.384 137.052L-24.7723 107.396Z" fill="#C89E3F"/>
<path d="M-25.3793 114.802L-25.4185 115.551L257.903 130.399L257.942 129.65L-25.3793 114.802Z" fill="#C89E3F"/>
<path d="M258.12 122.22H-25.59V122.97H258.12V122.22Z" fill="#C89E3F"/>
<path d="M257.914 114.81L-25.41 129.608L-25.3709 130.357L257.953 115.559L257.914 114.81Z" fill="#C89E3F"/>
<path d="M257.308 107.444L-24.8577 137.001L-24.7796 137.747L257.387 108.19L257.308 107.444Z" fill="#C89E3F"/>
<path d="M256.313 100.092L-23.9191 144.376L-23.802 145.117L256.43 100.833L256.313 100.092Z" fill="#C89E3F"/>
<path d="M254.935 92.6576L-22.5446 151.789L-22.3882 152.523L255.091 93.3911L254.935 92.6576Z" fill="#C89E3F"/>
<path d="M-20.66 159.68L-20.85 158.95L253.19 85.5201L253.39 86.2501L-20.66 159.68Z" fill="#C89E3F"/>
<path d="M-18.53 166.79L-18.76 166.08L251.06 78.4102L251.3 79.1202L-18.53 166.79Z" fill="#C89E3F"/>
<path d="M248.514 71.3018L-16.2631 173.205L-15.9937 173.905L248.784 72.0018L248.514 71.3018Z" fill="#C89E3F"/>
<path d="M245.741 64.6561L-13.5215 179.87L-13.2169 180.556L246.046 65.3414L245.741 64.6561Z" fill="#C89E3F"/>
<path d="M242.528 57.9143L-10.3273 186.583L-9.98716 187.252L242.868 58.5828L242.528 57.9143Z" fill="#C89E3F"/>
<path d="M238.918 51.3557L-6.78162 193.211L-6.40662 193.86L239.293 52.0053L238.918 51.3557Z" fill="#C89E3F"/>
<path d="M235.05 45.0297L-2.91614 199.508L-2.50777 200.137L235.458 45.6588L235.05 45.0297Z" fill="#C89E3F"/>
<path d="M230.736 38.8141L1.35571 205.775L1.79708 206.381L231.178 39.4205L230.736 38.8141Z" fill="#C89E3F"/>
<path d="M226.217 32.9874L5.82648 211.647L6.29877 212.23L226.689 33.57L226.217 32.9874Z" fill="#C89E3F"/>
<path d="M221.446 27.429L10.5752 217.231L11.0769 217.789L221.948 27.9865L221.446 27.429Z" fill="#C89E3F"/>
<path d="M216.217 21.9496L15.7789 222.738L16.3097 223.268L216.748 22.4795L216.217 21.9496Z" fill="#C89E3F"/>
<path d="M210.98 16.9847L20.9937 227.69L21.5507 228.192L211.537 17.4869L210.98 16.9847Z" fill="#C89E3F"/>
<path d="M205.286 12.1486L26.6647 232.57L27.2474 233.042L205.869 12.6208L205.286 12.1486Z" fill="#C89E3F"/>
<path d="M199.237 7.55713L32.6772 237.229L33.2844 237.669L199.845 7.99744L199.237 7.55713Z" fill="#C89E3F"/>
<path d="M193.188 3.42578L38.7103 241.392L39.3394 241.8L193.817 3.83415L193.188 3.42578Z" fill="#C89E3F"/>
<path d="M186.801 -0.471313L45.0742 245.303L45.7239 245.678L187.45 -0.0966534L186.801 -0.471313Z" fill="#C89E3F"/>
<path d="M180.394 -3.94141L51.4602 248.779L52.1283 249.119L181.062 -3.60057L180.394 -3.94141Z" fill="#C89E3F"/>
<path d="M173.53 -7.19409L58.316 252.068L59.0014 252.373L174.216 -6.88952L173.53 -7.19409Z" fill="#C89E3F"/>
<path d="M166.695 -9.99805L65.1152 254.903L65.8155 255.172L167.396 -9.72952L166.695 -9.99805Z" fill="#C89E3F"/>
<path d="M159.725 -12.4227L72.1012 257.417L72.8145 257.648L160.439 -12.1911L159.725 -12.4227Z" fill="#C89E3F"/>
<path d="M152.64 -14.5195L79.1624 259.51L79.8868 259.705L153.364 -14.3253L152.64 -14.5195Z" fill="#C89E3F"/>
<path d="M145.415 -16.228L86.3799 261.272L87.1135 261.428L146.149 -16.072L145.415 -16.228Z" fill="#C89E3F"/>
<path d="M139.297 -17.7235L93.9034 263.149L94.6459 263.269L140.039 -17.6035L139.297 -17.7235Z" fill="#C89E3F"/>
<path d="M130.676 -18.5222L101.119 263.644L101.865 263.722L131.422 -18.4441L130.676 -18.5222Z" fill="#C89E3F"/>
<path d="M123.288 -19.0833L108.489 264.24L109.238 264.279L124.037 -19.0442L123.288 -19.0833Z" fill="#C89E3F"/>
</g>
<path d="M116.3 6.7701C116.481 6.77058 116.658 6.82013 116.813 6.91346C116.968 7.0068 117.095 7.14042 117.18 7.3001L153.76 75.7801C153.972 76.1781 154.271 76.5232 154.634 76.7898C154.998 77.0565 155.417 77.2377 155.86 77.3201L229.86 91.0301C230.038 91.0632 230.203 91.1439 230.339 91.2637C230.475 91.3834 230.575 91.5377 230.63 91.7101C230.683 91.8838 230.688 92.0686 230.644 92.2448C230.6 92.421 230.509 92.5818 230.38 92.7101L176.89 145.93C176.555 146.263 176.304 146.67 176.156 147.118C176.009 147.567 175.969 148.043 176.04 148.51L187.42 223.51C187.445 223.65 187.439 223.793 187.401 223.93C187.363 224.067 187.294 224.194 187.2 224.3C187.106 224.413 186.988 224.504 186.855 224.566C186.722 224.628 186.577 224.66 186.43 224.66C186.263 224.658 186.098 224.617 185.95 224.54L117.66 187C117.217 186.757 116.72 186.629 116.215 186.629C115.71 186.629 115.213 186.757 114.77 187L46.51 224.57C46.3605 224.655 46.1918 224.699 46.02 224.7C45.8747 224.699 45.7315 224.666 45.6003 224.604C45.469 224.542 45.3529 224.452 45.26 224.34C45.1678 224.232 45.0996 224.106 45.06 223.97C45.0203 223.834 45.0101 223.69 45.03 223.55L56.19 148.55C56.258 148.087 56.2165 147.614 56.0689 147.169C55.9213 146.725 55.6717 146.321 55.34 145.99L2.17997 92.8301C2.05143 92.7018 1.96024 92.541 1.9162 92.3648C1.87215 92.1886 1.87692 92.0038 1.92997 91.8301C1.98092 91.6553 2.07863 91.4977 2.21256 91.3743C2.34649 91.251 2.51156 91.1665 2.68997 91.1301L75.69 76.3601C76.1098 76.2708 76.5056 76.0925 76.8506 75.8372C77.1957 75.5819 77.4819 75.2555 77.69 74.8801L115.43 7.2801C115.517 7.12563 115.643 6.99701 115.796 6.9074C115.949 6.81779 116.123 6.7704 116.3 6.7701ZM62.74 202.66C63.2468 202.661 63.7457 202.534 64.19 202.29L115.73 173.93C115.882 173.842 116.054 173.796 116.23 173.796C116.406 173.796 116.578 173.842 116.73 173.93L168.22 202.26C168.661 202.502 169.157 202.629 169.66 202.63C170.089 202.636 170.515 202.55 170.909 202.378C171.302 202.205 171.654 201.95 171.94 201.63C172.221 201.303 172.427 200.919 172.547 200.505C172.666 200.091 172.694 199.656 172.63 199.23L164.2 143.7C164.177 143.544 164.191 143.385 164.242 143.235C164.292 143.086 164.377 142.95 164.49 142.84L205.08 102.45C205.466 102.064 205.74 101.579 205.871 101.049C206.002 100.519 205.986 99.9633 205.824 99.4416C205.663 98.9198 205.362 98.4521 204.954 98.0888C204.546 97.7256 204.047 97.4805 203.51 97.3801L147.71 87.0001C147.562 86.9719 147.422 86.9105 147.3 86.8204C147.179 86.7304 147.08 86.614 147.01 86.4801L118.7 33.4801C118.444 32.9996 118.062 32.5977 117.595 32.3176C117.129 32.0375 116.594 31.8897 116.05 31.8901C115.516 31.8902 114.991 32.0331 114.531 32.3038C114.07 32.5745 113.69 32.9634 113.43 33.4301L84.38 85.4301C84.3099 85.555 84.2138 85.6634 84.0982 85.7479C83.9826 85.8324 83.8502 85.8912 83.71 85.9201L28.63 97.1201C28.0984 97.2274 27.6058 97.4767 27.2046 97.8417C26.8035 98.2066 26.5087 98.6734 26.3517 99.1926C26.1948 99.7117 26.1815 100.264 26.3132 100.79C26.445 101.316 26.7169 101.796 27.1 102.18L67.75 142.8C67.8595 142.91 67.9418 143.044 67.9904 143.192C68.039 143.339 68.0525 143.496 68.03 143.65L59.77 199.22C59.7073 199.645 59.7365 200.078 59.8556 200.49C59.9746 200.902 60.1807 201.284 60.46 201.61C60.7463 201.93 61.098 202.185 61.4913 202.358C61.8847 202.53 62.3105 202.616 62.74 202.61M116.3 5.7701C115.946 5.76693 115.597 5.85784 115.29 6.03353C114.982 6.20923 114.727 6.46341 114.55 6.7701L76.82 74.4001C76.6809 74.6547 76.4882 74.8761 76.2551 75.0487C76.0219 75.2214 75.7541 75.3413 75.47 75.4001L2.46997 90.1701C2.11586 90.2436 1.78832 90.4118 1.5222 90.6567C1.25609 90.9016 1.06137 91.2141 0.958762 91.5609C0.856157 91.9077 0.849512 92.2759 0.939532 92.6262C1.02955 92.9764 1.21287 93.2958 1.46997 93.5501L54.63 146.67C54.8489 146.89 55.0135 147.159 55.1108 147.454C55.208 147.749 55.2351 148.063 55.19 148.37L44 223.4C43.9565 223.687 43.9758 223.979 44.0566 224.258C44.1375 224.536 44.2779 224.794 44.4681 225.012C44.6584 225.231 44.8939 225.406 45.1584 225.525C45.4229 225.644 45.7101 225.703 46 225.7C46.3491 225.703 46.6932 225.617 47 225.45L115.26 187.89C115.556 187.727 115.888 187.642 116.225 187.642C116.562 187.642 116.894 187.727 117.19 187.89L185.48 225.46C185.784 225.633 186.13 225.72 186.48 225.71C186.77 225.713 187.057 225.654 187.322 225.535C187.586 225.416 187.822 225.241 188.012 225.023C188.202 224.804 188.342 224.546 188.423 224.268C188.504 223.989 188.523 223.697 188.48 223.41L177.1 148.41C177.052 148.099 177.077 147.782 177.174 147.483C177.272 147.184 177.438 146.913 177.66 146.69L231.16 93.4701C231.447 93.2091 231.651 92.8705 231.749 92.4954C231.846 92.1203 231.833 91.7249 231.71 91.3573C231.587 90.9897 231.36 90.6657 231.057 90.4248C230.753 90.1838 230.386 90.0363 230 90.0001L156 76.3001C155.707 76.2481 155.429 76.1313 155.187 75.9583C154.945 75.7853 154.744 75.5605 154.6 75.3001L118.07 6.8301C117.899 6.50924 117.644 6.24102 117.332 6.05425C117.02 5.86749 116.663 5.76925 116.3 5.7701ZM62.74 201.66C62.4501 201.663 62.1629 201.604 61.8984 201.485C61.6339 201.366 61.3984 201.191 61.2081 200.973C61.0179 200.754 60.8775 200.496 60.7966 200.218C60.7158 199.939 60.6965 199.647 60.74 199.36L69 143.8C69.0467 143.491 69.0204 143.175 68.9231 142.878C68.8259 142.582 68.6604 142.311 68.44 142.09L27.81 101.47C27.5556 101.215 27.3746 100.897 27.2862 100.548C27.1978 100.199 27.2051 99.8327 27.3075 99.4876C27.4099 99.1426 27.6035 98.8315 27.868 98.5873C28.1324 98.3431 28.4579 98.1748 28.81 98.1001L83.9 86.9401C84.1841 86.8813 84.4519 86.7614 84.6851 86.5887C84.9182 86.4161 85.1109 86.1947 85.25 85.9401L114.3 33.9401C114.472 33.6251 114.726 33.3622 115.035 33.179C115.344 32.9959 115.696 32.8993 116.055 32.8993C116.414 32.8993 116.766 32.9959 117.075 33.179C117.384 33.3622 117.638 33.6251 117.81 33.9401L146.13 86.9401C146.274 87.2005 146.475 87.4253 146.717 87.5983C146.959 87.7713 147.237 87.8881 147.53 87.9401L203.3 98.3101C203.654 98.3836 203.982 98.5518 204.248 98.7967C204.514 99.0416 204.709 99.3541 204.811 99.7009C204.914 100.048 204.92 100.416 204.83 100.766C204.74 101.116 204.557 101.436 204.3 101.69L163.7 142.09C163.48 142.311 163.314 142.582 163.217 142.878C163.12 143.175 163.093 143.491 163.14 143.8L171.56 199.33C171.605 199.695 171.548 200.064 171.396 200.399C171.244 200.733 171.003 201.02 170.7 201.226C170.396 201.433 170.041 201.552 169.674 201.57C169.308 201.588 168.943 201.505 168.62 201.33L117.13 173C116.834 172.837 116.502 172.752 116.165 172.752C115.828 172.752 115.496 172.837 115.2 173L63.7 201.41C63.3942 201.579 63.0494 201.665 62.7 201.66H62.74Z" fill="url(#paint3_linear_4_1001)"/>
<path d="M116.21 165.99C118.844 165.99 120.98 163.854 120.98 161.22C120.98 158.586 118.844 156.45 116.21 156.45C113.576 156.45 111.44 158.586 111.44 161.22C111.44 163.854 113.576 165.99 116.21 165.99Z" fill="black" stroke="url(#paint4_linear_4_1001)" stroke-miterlimit="10"/>
<path d="M116.34 86.2701C118.974 86.2701 121.11 84.1345 121.11 81.5001C121.11 78.8657 118.974 76.7301 116.34 76.7301C113.706 76.7301 111.57 78.8657 111.57 81.5001C111.57 84.1345 113.706 86.2701 116.34 86.2701Z" fill="black" stroke="url(#paint5_linear_4_1001)" stroke-miterlimit="10"/>
<path d="M103.2 108.75H97.2V132.91H103.2V108.75Z" fill="url(#paint6_linear_4_1001)"/>
<path d="M106.2 105.75H94.2V135.91H106.2V105.75Z" fill="black"/>
<path d="M150 141.69C148.997 141.687 148.035 141.287 147.327 140.576C146.618 139.866 146.22 138.903 146.22 137.9V131.59C145.507 132.304 144.539 132.707 143.53 132.71C142.976 132.712 142.429 132.591 141.927 132.356C141.426 132.121 140.983 131.777 140.63 131.35V137.9C140.631 138.396 140.535 138.888 140.346 139.347C140.157 139.806 139.88 140.224 139.53 140.576C139.18 140.928 138.764 141.207 138.306 141.398C137.848 141.59 137.356 141.689 136.86 141.69H130.53C129.527 141.687 128.565 141.287 127.857 140.576C127.148 139.866 126.75 138.903 126.75 137.9V110.64C126.75 109.637 127.148 108.674 127.857 107.964C128.565 107.253 129.527 106.853 130.53 106.85H136.8C137.397 106.85 137.986 106.991 138.517 107.262C139.049 107.534 139.509 107.927 139.86 108.41L143.51 113.41L146.95 108.41C147.298 107.908 147.763 107.497 148.305 107.213C148.846 106.929 149.449 106.781 150.06 106.78H156.32C157.323 106.783 158.285 107.183 158.993 107.894C159.702 108.604 160.1 109.567 160.1 110.57V137.9C160.1 138.903 159.702 139.866 158.993 140.576C158.285 141.287 157.323 141.687 156.32 141.69H150Z" fill="url(#paint7_linear_4_1001)"/>
<path d="M156.33 109.85C156.433 109.85 156.536 109.871 156.631 109.91C156.726 109.95 156.813 110.008 156.885 110.082C156.958 110.155 157.015 110.243 157.054 110.338C157.092 110.434 157.111 110.537 157.11 110.64V137.9C157.111 138.003 157.092 138.106 157.054 138.202C157.015 138.297 156.958 138.385 156.885 138.458C156.813 138.532 156.726 138.59 156.631 138.63C156.536 138.67 156.433 138.69 156.33 138.69H150C149.897 138.69 149.794 138.67 149.699 138.63C149.604 138.59 149.517 138.532 149.445 138.458C149.372 138.385 149.315 138.297 149.276 138.202C149.238 138.106 149.219 138.003 149.22 137.9V124.9C149.221 124.796 149.202 124.693 149.163 124.596C149.123 124.5 149.065 124.412 148.992 124.338C148.918 124.265 148.83 124.207 148.734 124.167C148.637 124.128 148.534 124.109 148.43 124.11C148.31 124.111 148.192 124.14 148.086 124.196C147.98 124.252 147.889 124.332 147.82 124.43L144.16 129.37C144.087 129.467 143.991 129.546 143.882 129.6C143.772 129.654 143.652 129.681 143.53 129.68C143.412 129.679 143.297 129.651 143.191 129.599C143.086 129.547 142.993 129.472 142.92 129.38L139.03 124.38C138.958 124.287 138.866 124.211 138.76 124.159C138.654 124.107 138.538 124.08 138.42 124.08C138.316 124.079 138.213 124.098 138.116 124.137C138.02 124.177 137.932 124.235 137.858 124.308C137.785 124.382 137.727 124.47 137.687 124.566C137.648 124.663 137.629 124.766 137.63 124.87V137.87C137.633 137.973 137.615 138.075 137.577 138.171C137.54 138.267 137.483 138.354 137.412 138.427C137.34 138.501 137.254 138.56 137.159 138.6C137.065 138.639 136.963 138.66 136.86 138.66H130.53C130.427 138.66 130.324 138.64 130.229 138.6C130.134 138.56 130.047 138.502 129.975 138.428C129.902 138.355 129.845 138.267 129.806 138.172C129.768 138.076 129.749 137.973 129.75 137.87V110.64C129.749 110.537 129.768 110.434 129.806 110.338C129.845 110.243 129.902 110.155 129.975 110.082C130.047 110.008 130.134 109.95 130.229 109.91C130.324 109.871 130.427 109.85 130.53 109.85H136.8C136.923 109.851 137.043 109.88 137.153 109.936C137.262 109.991 137.357 110.071 137.43 110.17L142.93 117.77C143.003 117.869 143.098 117.949 143.207 118.004C143.317 118.06 143.437 118.089 143.56 118.09C143.686 118.09 143.811 118.059 143.923 118C144.034 117.941 144.129 117.855 144.2 117.75L149.42 110.18C149.493 110.078 149.589 109.995 149.7 109.938C149.812 109.88 149.935 109.85 150.06 109.85H156.32M156.32 103.85H150.06C148.962 103.849 147.88 104.116 146.908 104.626C145.936 105.137 145.103 105.876 144.48 106.78L143.48 108.26L142.31 106.65C141.681 105.783 140.856 105.077 139.902 104.59C138.947 104.103 137.891 103.85 136.82 103.85H130.55C128.751 103.853 127.026 104.569 125.755 105.842C124.484 107.115 123.77 108.841 123.77 110.64V137.9C123.77 139.699 124.484 141.425 125.755 142.698C127.026 143.971 128.751 144.687 130.55 144.69H136.88C138.386 144.686 139.849 144.182 141.038 143.258C142.227 142.333 143.076 141.039 143.45 139.58C143.823 141.04 144.671 142.335 145.86 143.26C147.05 144.185 148.513 144.688 150.02 144.69H156.34C158.139 144.687 159.864 143.971 161.135 142.698C162.406 141.425 163.12 139.699 163.12 137.9V110.64C163.12 108.841 162.406 107.115 161.135 105.842C159.864 104.569 158.139 103.853 156.34 103.85H156.32Z" fill="black"/>
<path d="M82.51 141.58C80.5622 141.651 78.6239 141.275 76.8438 140.481C75.0636 139.687 73.4888 138.497 72.24 137C71.6411 136.305 71.1244 135.543 70.7 134.73C70.2434 133.861 69.8813 132.946 69.62 132C69.33 130.952 69.126 129.881 69.01 128.8C68.8745 127.535 68.811 126.263 68.82 124.99C68.7972 122.452 69.1959 119.928 70 117.52C70.7172 115.346 71.8977 113.353 73.46 111.68C74.9965 110.066 76.8762 108.819 78.96 108.03C81.1606 107.212 83.4926 106.806 85.84 106.83C87.1402 106.823 88.4385 106.93 89.72 107.15C90.5793 107.294 91.4254 107.509 92.25 107.79C92.7096 107.948 93.1318 108.199 93.4905 108.526C93.8493 108.854 94.1369 109.252 94.3357 109.695C94.5344 110.139 94.64 110.618 94.6459 111.104C94.6518 111.59 94.5579 112.072 94.37 112.52L92.3 117.42C92.1117 117.864 91.8363 118.265 91.49 118.6C93.1704 119.909 94.4462 121.667 95.17 123.67C95.75 125.272 96.0347 126.966 96.01 128.67C96.0376 130.45 95.6972 132.217 95.01 133.86C94.3489 135.423 93.3679 136.83 92.13 137.99C90.8912 139.156 89.4376 140.069 87.85 140.68C86.142 141.312 84.3307 141.617 82.51 141.58ZM82.51 127.71C82.3798 127.699 82.2487 127.716 82.126 127.761C82.0033 127.806 81.892 127.877 81.8 127.97C81.73 128.04 81.6 128.16 81.6 128.65C81.5965 128.776 81.6169 128.902 81.66 129.02C81.7025 129.112 81.76 129.197 81.83 129.27C81.9128 129.352 82.0115 129.417 82.12 129.46C82.2455 129.503 82.3775 129.523 82.51 129.52C83.01 129.52 83.15 129.38 83.24 129.29C83.33 129.2 83.46 129.08 83.46 128.62C83.46 128.16 83.33 128 83.26 127.94C83.19 127.88 83 127.71 82.51 127.71Z" fill="url(#paint8_linear_4_1001)"/>
<path d="M85.8 109.83C86.9257 109.821 88.0501 109.912 89.16 110.1C89.8664 110.221 90.5619 110.398 91.24 110.63C91.3106 110.653 91.3757 110.691 91.4311 110.74C91.4866 110.79 91.5312 110.85 91.5622 110.918C91.5931 110.986 91.6098 111.059 91.6112 111.133C91.6125 111.208 91.5985 111.281 91.57 111.35L89.5 116.25C89.4592 116.347 89.3911 116.429 89.3041 116.488C89.2171 116.547 89.1149 116.579 89.01 116.58C88.9504 116.59 88.8896 116.59 88.83 116.58C88.4177 116.443 87.9968 116.332 87.57 116.25C86.7856 116.101 85.9883 116.031 85.19 116.04C83.5753 115.976 81.9874 116.467 80.69 117.43C80.0094 117.975 79.4507 118.656 79.05 119.43C79.0078 119.515 78.9877 119.608 78.9915 119.703C78.9953 119.797 79.023 119.889 79.0719 119.97C79.1208 120.051 79.1894 120.118 79.2712 120.165C79.3531 120.212 79.4455 120.238 79.54 120.24C79.6161 120.253 79.6939 120.253 79.77 120.24L80.54 119.88C81.5964 119.423 82.7394 119.201 83.89 119.23C85.155 119.212 86.4115 119.44 87.59 119.9C88.6717 120.33 89.6499 120.984 90.46 121.82C91.2862 122.676 91.9203 123.699 92.32 124.82C92.7664 126.071 92.9865 127.392 92.97 128.72C92.9873 130.093 92.7218 131.454 92.19 132.72C91.6679 133.868 90.9236 134.901 90 135.76C89.0434 136.661 87.9186 137.364 86.69 137.83C85.3561 138.34 83.938 138.594 82.51 138.58C80.9944 138.65 79.4831 138.368 78.0949 137.756C76.7068 137.143 75.4797 136.217 74.51 135.05C74.0471 134.518 73.6478 133.934 73.32 133.31C72.9683 132.63 72.6869 131.917 72.48 131.18C72.2285 130.297 72.0545 129.393 71.96 128.48C71.8359 127.328 71.7792 126.169 71.79 125.01C71.7613 122.8 72.0992 120.6 72.79 118.5C73.3717 116.731 74.3265 115.108 75.59 113.74C76.8255 112.454 78.3321 111.46 80 110.83C81.8555 110.143 83.8217 109.804 85.8 109.83ZM82.51 132.52C83.0309 132.539 83.5504 132.453 84.0368 132.265C84.5233 132.078 84.9666 131.794 85.34 131.43C86.06 130.666 86.461 129.655 86.461 128.605C86.461 127.555 86.06 126.544 85.34 125.78C84.5716 125.092 83.5764 124.712 82.545 124.712C81.5136 124.712 80.5184 125.092 79.75 125.78C79.3637 126.148 79.0611 126.595 78.8627 127.09C78.6643 127.585 78.5747 128.117 78.6 128.65C78.5924 129.186 78.6981 129.718 78.91 130.21C79.1024 130.671 79.3885 131.086 79.75 131.43C80.1081 131.781 80.5332 132.057 81 132.24C81.4805 132.43 81.9933 132.525 82.51 132.52ZM85.8 103.83C83.0696 103.796 80.3567 104.271 77.8 105.23C75.3021 106.182 73.0475 107.678 71.2 109.61C69.3452 111.598 67.9401 113.961 67.08 116.54C66.1812 119.272 65.7419 122.134 65.78 125.01C65.7726 126.396 65.8427 127.782 65.99 129.16C66.1238 130.411 66.3613 131.648 66.7 132.86C67.0278 133.991 67.4666 135.086 68.01 136.13C68.5393 137.132 69.18 138.072 69.92 138.93C71.4512 140.756 73.3752 142.213 75.5484 143.191C77.7215 144.17 80.0876 144.644 82.47 144.58C84.6407 144.595 86.7948 144.202 88.82 143.42C90.7745 142.679 92.5624 141.557 94.08 140.12C95.6258 138.683 96.8552 136.939 97.69 135C98.5595 132.986 99.0054 130.814 99 128.62C99.0314 126.576 98.6926 124.543 98 122.62C97.3863 120.948 96.4712 119.402 95.3 118.06L97.15 113.67C97.4989 112.844 97.6742 111.955 97.665 111.058C97.6559 110.162 97.4624 109.276 97.0966 108.458C96.7309 107.639 96.2006 106.904 95.5389 106.299C94.8772 105.694 94.0981 105.231 93.25 104.94C92.2706 104.614 91.2676 104.363 90.25 104.19C88.7935 103.939 87.3179 103.815 85.84 103.82L85.8 103.83Z" fill="black"/>
<path d="M98.66 141.56C97.7633 141.589 96.8702 141.433 96.036 141.103C95.2017 140.773 94.4441 140.275 93.81 139.64C92.8533 138.692 92.2018 137.479 91.9391 136.157C91.6765 134.836 91.8146 133.466 92.3358 132.224C92.857 130.982 93.7375 129.924 94.8643 129.185C95.9912 128.447 97.3129 128.062 98.66 128.08C99.5547 128.056 100.445 128.213 101.277 128.543C102.109 128.873 102.865 129.369 103.5 130C104.119 130.638 104.604 131.393 104.929 132.22C105.253 133.048 105.41 133.931 105.39 134.82C105.418 135.711 105.263 136.598 104.934 137.427C104.606 138.255 104.111 139.007 103.48 139.637C102.849 140.267 102.096 140.761 101.267 141.088C100.438 141.415 99.5508 141.569 98.66 141.54V141.56Z" fill="url(#paint9_linear_4_1001)"/>
<path d="M98.66 131.08C99.1545 131.053 99.6493 131.128 100.114 131.3C100.578 131.472 101.002 131.738 101.36 132.08C101.701 132.443 101.965 132.871 102.137 133.338C102.308 133.806 102.384 134.303 102.36 134.8C102.336 135.535 102.102 136.248 101.685 136.854C101.267 137.46 100.685 137.933 100.007 138.217C99.3284 138.502 98.5826 138.585 97.8582 138.458C97.1337 138.331 96.461 137.998 95.92 137.5C95.2625 136.75 94.9 135.787 94.9 134.79C94.9 133.793 95.2625 132.83 95.92 132.08C96.2765 131.739 96.6991 131.474 97.1617 131.302C97.6243 131.13 98.1172 131.055 98.61 131.08M98.61 125.08C97.3111 125.05 96.0199 125.287 94.8159 125.775C93.612 126.264 92.5209 126.994 91.61 127.92C89.8493 129.79 88.8688 132.262 88.8688 134.83C88.8688 137.398 89.8493 139.87 91.61 141.74C92.9677 143.135 94.7125 144.092 96.619 144.486C98.5256 144.88 100.507 144.694 102.306 143.951C104.106 143.208 105.642 141.943 106.715 140.319C107.789 138.695 108.351 136.787 108.33 134.84C108.353 133.562 108.122 132.292 107.65 131.104C107.178 129.916 106.474 128.834 105.58 127.92C104.668 126.995 103.577 126.265 102.373 125.777C101.17 125.288 99.8788 125.051 98.58 125.08H98.61Z" fill="black"/>
<path d="M115.29 141.53C111.23 141.53 107.97 140.53 105.57 138.47C104.3 137.369 103.296 135.994 102.632 134.449C101.969 132.904 101.664 131.229 101.74 129.55C101.715 127.807 102.135 126.086 102.96 124.55C103.248 123.996 103.582 123.467 103.96 122.97C103.83 122.75 103.71 122.52 103.6 122.29C102.968 121.006 102.646 119.591 102.66 118.16C102.646 116.526 102.988 114.909 103.66 113.42C104.315 112.013 105.271 110.767 106.46 109.77C107.661 108.78 109.038 108.026 110.52 107.55C112.08 107.062 113.706 106.819 115.34 106.83C116.946 106.819 118.543 107.065 120.07 107.56C121.536 108.04 122.895 108.8 124.07 109.8C125.231 110.799 126.162 112.038 126.8 113.43C127.473 114.915 127.815 116.529 127.8 118.16C127.811 119.531 127.549 120.891 127.03 122.16C126.91 122.45 126.77 122.74 126.62 123.02C126.994 123.52 127.328 124.048 127.62 124.6C128.363 126.125 128.74 127.803 128.72 129.5C128.731 131.217 128.391 132.919 127.72 134.5C127.084 136.019 126.097 137.366 124.84 138.43C123.567 139.483 122.099 140.275 120.52 140.76C118.825 141.278 117.062 141.537 115.29 141.53ZM115.36 129.3C114.953 129.258 114.541 129.327 114.17 129.5V129.62C114.535 129.778 114.934 129.84 115.33 129.8C115.715 129.826 116.1 129.768 116.46 129.63V129.48C116.114 129.331 115.736 129.269 115.36 129.3Z" fill="url(#paint10_linear_4_1001)"/>
<path d="M115.36 109.87C116.647 109.854 117.927 110.05 119.15 110.45C120.251 110.798 121.27 111.362 122.15 112.11C123.001 112.826 123.683 113.721 124.15 114.73C124.638 115.821 124.881 117.005 124.86 118.2C124.872 119.176 124.692 120.144 124.33 121.05C123.975 121.891 123.47 122.66 122.84 123.32C123.703 124.062 124.405 124.975 124.9 126C125.434 127.106 125.701 128.322 125.68 129.55C125.702 130.852 125.461 132.144 124.97 133.35C124.514 134.436 123.808 135.398 122.91 136.16C121.94 136.958 120.822 137.557 119.62 137.92C118.216 138.341 116.756 138.546 115.29 138.53C111.95 138.53 109.36 137.74 107.51 136.18C106.578 135.355 105.845 134.331 105.365 133.182C104.886 132.034 104.672 130.792 104.74 129.55C104.724 128.32 105.02 127.105 105.6 126.02C106.185 124.954 106.985 124.021 107.95 123.28C107.289 122.617 106.742 121.85 106.33 121.01C105.905 120.135 105.689 119.173 105.7 118.2C105.676 117.006 105.915 115.821 106.4 114.73C106.864 113.719 107.547 112.824 108.4 112.11C109.302 111.363 110.342 110.799 111.46 110.45C112.717 110.049 114.031 109.853 115.35 109.87M115.28 121.11C116.246 121.185 117.208 120.912 117.99 120.34C118.285 120.078 118.517 119.754 118.669 119.39C118.821 119.027 118.89 118.634 118.87 118.24C118.878 117.858 118.807 117.478 118.663 117.123C118.518 116.769 118.303 116.448 118.03 116.18C117.661 115.87 117.234 115.637 116.774 115.493C116.314 115.349 115.83 115.297 115.35 115.34C114.361 115.269 113.381 115.569 112.6 116.18C112.308 116.437 112.076 116.755 111.919 117.11C111.762 117.466 111.684 117.851 111.69 118.24C111.684 118.612 111.753 118.98 111.894 119.324C112.035 119.668 112.245 119.98 112.51 120.24C113.288 120.87 114.283 121.168 115.28 121.07M115.28 132.76C116.404 132.849 117.521 132.514 118.41 131.82C118.734 131.53 118.991 131.174 119.164 130.775C119.337 130.376 119.421 129.944 119.41 129.51C119.421 129.076 119.337 128.644 119.164 128.245C118.991 127.846 118.734 127.49 118.41 127.2C117.54 126.507 116.439 126.171 115.33 126.26C114.194 126.176 113.067 126.511 112.16 127.2C111.823 127.483 111.553 127.837 111.368 128.236C111.183 128.635 111.088 129.07 111.09 129.51C111.079 129.944 111.163 130.376 111.336 130.775C111.509 131.174 111.766 131.53 112.09 131.82C112.987 132.52 114.116 132.856 115.25 132.76M115.32 103.83C113.37 103.818 111.429 104.111 109.57 104.7C107.721 105.289 106.003 106.23 104.51 107.47C102.977 108.749 101.75 110.355 100.92 112.17C100.064 114.053 99.6339 116.102 99.66 118.17C99.6499 119.73 99.9384 121.278 100.51 122.73C100.43 122.86 100.36 122.99 100.29 123.12C99.2328 125.087 98.6861 127.287 98.7 129.52C98.6212 131.634 99.0199 133.739 99.8665 135.678C100.713 137.617 101.986 139.341 103.59 140.72C106.59 143.23 110.47 144.5 115.25 144.5C117.33 144.519 119.401 144.219 121.39 143.61C123.348 143.008 125.167 142.022 126.74 140.71C128.351 139.356 129.621 137.644 130.45 135.71C131.259 133.762 131.664 131.669 131.64 129.56C131.66 127.398 131.174 125.261 130.22 123.32C130.14 123.16 130.06 123 129.97 122.84C130.501 121.354 130.768 119.788 130.76 118.21C130.785 116.142 130.355 114.093 129.5 112.21C128.683 110.431 127.492 108.849 126.01 107.57C124.544 106.311 122.845 105.353 121.01 104.75C119.172 104.155 117.251 103.858 115.32 103.87V103.83Z" fill="black"/>
<path d="M136.81 109.85C136.933 109.851 137.053 109.88 137.163 109.936C137.272 109.991 137.367 110.071 137.44 110.17L142.94 117.77C143.012 117.871 143.107 117.954 143.218 118.01C143.328 118.067 143.451 118.097 143.575 118.097C143.699 118.097 143.822 118.067 143.932 118.01C144.043 117.954 144.138 117.871 144.21 117.77L149.43 110.2C149.503 110.098 149.599 110.015 149.71 109.958C149.821 109.9 149.945 109.87 150.07 109.87H156.33C156.433 109.87 156.536 109.89 156.631 109.93C156.726 109.97 156.813 110.028 156.885 110.102C156.958 110.175 157.015 110.263 157.054 110.358C157.092 110.454 157.111 110.557 157.11 110.66V137.9C157.111 138.003 157.092 138.106 157.054 138.202C157.015 138.297 156.958 138.385 156.885 138.458C156.813 138.532 156.726 138.59 156.631 138.63C156.536 138.67 156.433 138.69 156.33 138.69H150C149.897 138.69 149.794 138.67 149.699 138.63C149.604 138.59 149.517 138.532 149.445 138.458C149.372 138.385 149.315 138.297 149.276 138.202C149.238 138.106 149.219 138.003 149.22 137.9V124.9C149.226 124.734 149.178 124.57 149.084 124.434C148.989 124.297 148.853 124.195 148.696 124.142C148.538 124.089 148.368 124.089 148.21 124.141C148.052 124.192 147.915 124.294 147.82 124.43L144.16 129.37C144.087 129.465 143.993 129.543 143.886 129.596C143.778 129.649 143.66 129.677 143.54 129.677C143.42 129.677 143.302 129.649 143.194 129.596C143.087 129.543 142.993 129.465 142.92 129.37L139.03 124.37C138.93 124.239 138.791 124.143 138.634 124.096C138.476 124.049 138.308 124.052 138.152 124.107C137.997 124.161 137.863 124.263 137.769 124.399C137.675 124.534 137.626 124.695 137.63 124.86V137.86C137.633 137.963 137.615 138.065 137.577 138.161C137.54 138.257 137.483 138.344 137.412 138.417C137.34 138.491 137.254 138.55 137.159 138.59C137.065 138.629 136.963 138.65 136.86 138.65H130.53C130.427 138.65 130.324 138.63 130.229 138.59C130.134 138.55 130.047 138.492 129.975 138.418C129.902 138.345 129.845 138.257 129.806 138.162C129.768 138.066 129.749 137.963 129.75 137.86V110.64C129.749 110.537 129.768 110.434 129.806 110.338C129.845 110.243 129.902 110.155 129.975 110.082C130.047 110.008 130.134 109.95 130.229 109.91C130.324 109.871 130.427 109.85 130.53 109.85H136.81Z" fill="url(#paint11_linear_4_1001)"/>
<path d="M156.33 110.6V137.9H149.98V124.9C149.982 124.577 149.882 124.262 149.694 123.999C149.506 123.737 149.24 123.541 148.934 123.438C148.628 123.336 148.297 123.334 147.989 123.431C147.681 123.528 147.412 123.72 147.22 123.98L143.52 128.92L139.63 123.92C139.489 123.736 139.308 123.586 139.099 123.484C138.891 123.382 138.662 123.329 138.43 123.33C138.227 123.327 138.026 123.365 137.837 123.442C137.649 123.518 137.479 123.632 137.335 123.775C137.192 123.919 137.078 124.089 137.002 124.278C136.925 124.466 136.887 124.667 136.89 124.87V137.95H130.53V110.65H136.82L142.32 118.25C142.463 118.444 142.65 118.603 142.865 118.712C143.081 118.821 143.319 118.879 143.56 118.88C143.806 118.879 144.049 118.819 144.266 118.704C144.484 118.589 144.671 118.423 144.81 118.22L150.06 110.64H156.32M156.32 109.89H150.06C149.935 109.89 149.811 109.92 149.7 109.978C149.589 110.035 149.493 110.118 149.42 110.22L144.2 117.79C144.129 117.895 144.034 117.981 143.923 118.04C143.811 118.099 143.686 118.13 143.56 118.13C143.437 118.129 143.317 118.1 143.207 118.044C143.098 117.989 143.003 117.909 142.93 117.81L137.43 110.21C137.357 110.111 137.262 110.031 137.153 109.976C137.043 109.92 136.923 109.891 136.8 109.89H130.53C130.427 109.89 130.324 109.911 130.229 109.95C130.134 109.99 130.047 110.048 129.975 110.122C129.902 110.195 129.845 110.283 129.806 110.378C129.768 110.474 129.749 110.577 129.75 110.68V137.9C129.749 138.003 129.768 138.106 129.806 138.202C129.845 138.297 129.902 138.385 129.975 138.458C130.047 138.532 130.134 138.59 130.229 138.63C130.324 138.67 130.427 138.69 130.53 138.69H136.86C136.963 138.69 137.065 138.669 137.159 138.63C137.254 138.59 137.34 138.531 137.412 138.457C137.483 138.384 137.54 138.297 137.577 138.201C137.615 138.105 137.633 138.003 137.63 137.9V124.9C137.629 124.796 137.648 124.693 137.687 124.596C137.727 124.5 137.785 124.412 137.858 124.338C137.932 124.265 138.02 124.207 138.116 124.167C138.213 124.128 138.316 124.109 138.42 124.11C138.538 124.11 138.654 124.137 138.76 124.189C138.866 124.241 138.958 124.317 139.03 124.41L142.92 129.41C142.993 129.502 143.086 129.577 143.191 129.629C143.297 129.681 143.412 129.709 143.53 129.71C143.652 129.711 143.772 129.684 143.882 129.63C143.991 129.576 144.087 129.497 144.16 129.4L147.82 124.46C147.889 124.362 147.98 124.282 148.086 124.226C148.192 124.17 148.31 124.141 148.43 124.14C148.534 124.139 148.637 124.158 148.734 124.197C148.83 124.237 148.918 124.295 148.992 124.368C149.065 124.442 149.123 124.53 149.163 124.626C149.202 124.723 149.221 124.826 149.22 124.93V137.93C149.219 138.033 149.238 138.136 149.276 138.232C149.315 138.327 149.372 138.415 149.445 138.488C149.517 138.562 149.604 138.62 149.699 138.66C149.794 138.7 149.897 138.72 150 138.72H156.32C156.423 138.72 156.526 138.7 156.621 138.66C156.716 138.62 156.803 138.562 156.875 138.488C156.948 138.415 157.005 138.327 157.044 138.232C157.082 138.136 157.101 138.033 157.1 137.93V110.64C157.101 110.537 157.082 110.434 157.044 110.338C157.005 110.243 156.948 110.155 156.875 110.082C156.803 110.008 156.716 109.95 156.621 109.91C156.526 109.871 156.423 109.85 156.32 109.85V109.89Z" fill="url(#paint12_linear_4_1001)"/>
<path d="M82.51 138.58C80.9944 138.65 79.4831 138.368 78.095 137.756C76.7068 137.143 75.4797 136.217 74.51 135.05C74.0471 134.518 73.6478 133.934 73.32 133.31C72.9684 132.63 72.6869 131.917 72.48 131.18C72.2285 130.297 72.0545 129.393 71.96 128.48C71.8359 127.328 71.7792 126.169 71.79 125.01C71.7613 122.8 72.0992 120.6 72.79 118.5C73.3717 116.731 74.3266 115.108 75.59 113.74C76.8256 112.454 78.3321 111.46 80 110.83C81.8555 110.143 83.8217 109.804 85.8 109.83C86.9258 109.821 88.0501 109.912 89.16 110.1C89.8664 110.221 90.562 110.398 91.24 110.63C91.3106 110.653 91.3757 110.691 91.4312 110.74C91.4866 110.79 91.5312 110.85 91.5622 110.918C91.5932 110.986 91.6098 111.059 91.6112 111.133C91.6125 111.208 91.5985 111.281 91.57 111.35L89.5 116.25C89.4487 116.377 89.3502 116.479 89.2254 116.535C89.1005 116.591 88.9588 116.596 88.83 116.55C88.4177 116.413 87.9968 116.302 87.57 116.22C86.7856 116.071 85.9884 116.001 85.19 116.01C83.5753 115.946 81.9874 116.437 80.69 117.4C80.0095 117.945 79.4508 118.626 79.05 119.4C78.9942 119.502 78.9722 119.619 78.9871 119.735C79.0021 119.85 79.0533 119.958 79.1333 120.042C79.2133 120.127 79.3181 120.184 79.4325 120.205C79.5469 120.226 79.6651 120.21 79.77 120.16L80.54 119.8C81.5964 119.343 82.7394 119.121 83.89 119.15C85.1551 119.132 86.4116 119.36 87.59 119.82C88.6717 120.25 89.6499 120.904 90.46 121.74C91.2862 122.596 91.9203 123.619 92.32 124.74C92.7665 125.991 92.9866 127.312 92.97 128.64C92.9873 130.013 92.7218 131.374 92.19 132.64C91.6771 133.817 90.9323 134.878 90 135.76C89.0434 136.661 87.9186 137.364 86.69 137.83C85.3561 138.34 83.9381 138.594 82.51 138.58ZM82.51 132.52C83.031 132.539 83.5504 132.453 84.0369 132.265C84.5233 132.078 84.9667 131.794 85.34 131.43C86.0601 130.666 86.4611 129.655 86.4611 128.605C86.4611 127.555 86.0601 126.544 85.34 125.78C84.5716 125.092 83.5764 124.712 82.545 124.712C81.5136 124.712 80.5184 125.092 79.75 125.78C79.3638 126.148 79.0611 126.595 78.8627 127.09C78.6643 127.585 78.5747 128.117 78.6 128.65C78.5925 129.186 78.6981 129.718 78.91 130.21C79.1024 130.67 79.3885 131.086 79.75 131.43C80.1082 131.781 80.5333 132.057 81 132.24C81.4805 132.43 81.9933 132.525 82.51 132.52Z" fill="url(#paint13_linear_4_1001)"/>
<path d="M85.8 109.83C86.9257 109.821 88.0501 109.912 89.16 110.1C89.8664 110.221 90.562 110.398 91.24 110.63C91.3106 110.653 91.3757 110.691 91.4311 110.74C91.4866 110.79 91.5312 110.85 91.5622 110.918C91.5931 110.986 91.6098 111.059 91.6112 111.133C91.6125 111.207 91.5985 111.281 91.57 111.35L89.5 116.25C89.4592 116.347 89.3911 116.429 89.3041 116.488C89.2171 116.547 89.1149 116.579 89.01 116.58C88.9504 116.59 88.8896 116.59 88.83 116.58C88.4177 116.443 87.9968 116.332 87.57 116.25C86.7856 116.101 85.9883 116.031 85.19 116.04C83.5753 115.976 81.9874 116.467 80.69 117.43C80.0094 117.975 79.4507 118.656 79.05 119.43C79.0078 119.515 78.9877 119.608 78.9915 119.703C78.9953 119.797 79.023 119.889 79.0719 119.97C79.1208 120.051 79.1894 120.118 79.2712 120.165C79.3531 120.212 79.4455 120.238 79.54 120.24C79.6161 120.253 79.6939 120.253 79.77 120.24L80.54 119.88C81.5964 119.423 82.7394 119.201 83.89 119.23C85.155 119.212 86.4115 119.44 87.59 119.9C88.6717 120.33 89.6499 120.984 90.46 121.82C91.2862 122.676 91.9203 123.699 92.32 124.82C92.7664 126.071 92.9865 127.392 92.97 128.72C92.9873 130.093 92.7218 131.454 92.19 132.72C91.6679 133.868 90.9236 134.901 90 135.76C89.0434 136.661 87.9186 137.364 86.69 137.83C85.3561 138.34 83.9381 138.594 82.51 138.58C80.9944 138.65 79.4831 138.368 78.0949 137.756C76.7068 137.143 75.4797 136.217 74.51 135.05C74.0471 134.518 73.6478 133.934 73.32 133.31C72.9641 132.632 72.6825 131.918 72.48 131.18C72.2285 130.297 72.0545 129.393 71.96 128.48C71.8359 127.328 71.7792 126.169 71.79 125.01C71.7613 122.8 72.0992 120.6 72.79 118.5C73.3717 116.731 74.3265 115.108 75.59 113.74C76.8255 112.454 78.3321 111.46 80 110.83C81.8555 110.143 83.8217 109.804 85.8 109.83ZM82.51 132.52C83.0309 132.539 83.5504 132.453 84.0368 132.265C84.5233 132.078 84.9666 131.794 85.34 131.43C86.06 130.666 86.461 129.655 86.461 128.605C86.461 127.555 86.06 126.544 85.34 125.78C84.5716 125.092 83.5764 124.712 82.545 124.712C81.5136 124.712 80.5184 125.092 79.75 125.78C79.3637 126.148 79.0611 126.595 78.8627 127.09C78.6643 127.585 78.5747 128.117 78.6 128.65C78.5924 129.186 78.6981 129.718 78.91 130.21C79.1024 130.67 79.3885 131.086 79.75 131.43C80.1081 131.781 80.5332 132.057 81 132.24C81.4805 132.43 81.9933 132.525 82.51 132.52ZM85.8 109.08C83.7327 109.041 81.6757 109.38 79.73 110.08C77.9577 110.75 76.3584 111.809 75.05 113.18C73.7025 114.612 72.6793 116.317 72.05 118.18C71.3498 120.364 71.012 122.647 71.05 124.94C71.0446 126.129 71.1014 127.317 71.22 128.5C71.3204 129.454 71.5045 130.398 71.77 131.32C71.9863 132.107 72.2881 132.868 72.67 133.59C73.0341 134.291 73.4806 134.945 74 135.54C75.0393 136.782 76.3495 137.77 77.8299 138.427C79.3103 139.084 80.9216 139.393 82.54 139.33C84.0602 139.342 85.5693 139.071 86.99 138.53C88.3081 138.025 89.5168 137.272 90.55 136.31C91.5556 135.349 92.3581 134.197 92.91 132.92C93.4795 131.559 93.7653 130.096 93.75 128.62C93.7695 127.202 93.5324 125.793 93.05 124.46C92.6126 123.251 91.9319 122.145 91.05 121.21C90.1618 120.305 89.0962 119.594 87.92 119.12C86.645 118.626 85.2871 118.382 83.92 118.4C82.6588 118.369 81.4061 118.615 80.25 119.12L80.07 119.2C80.37 118.75 80.7338 118.346 81.15 118C82.305 117.148 83.7157 116.714 85.15 116.77C85.8978 116.76 86.6447 116.824 87.38 116.96C87.7755 117.041 88.1661 117.145 88.55 117.27C88.6845 117.319 88.8269 117.343 88.97 117.34C89.2224 117.338 89.4687 117.262 89.6785 117.122C89.8882 116.982 90.0522 116.783 90.15 116.55L92.22 111.65C92.2898 111.487 92.3249 111.311 92.3229 111.133C92.321 110.955 92.2821 110.78 92.2088 110.618C92.1354 110.456 92.0291 110.312 91.8968 110.193C91.7644 110.075 91.6089 109.985 91.44 109.93C90.7257 109.687 89.9934 109.5 89.25 109.37C88.0966 109.179 86.9291 109.085 85.76 109.09L85.8 109.08ZM82.51 131.77C82.0887 131.777 81.6703 131.699 81.28 131.54C80.9065 131.392 80.5665 131.171 80.28 130.89C79.9895 130.605 79.7584 130.265 79.6 129.89C79.4363 129.49 79.3547 129.062 79.36 128.63C79.3366 128.201 79.4057 127.771 79.5627 127.371C79.7197 126.971 79.9609 126.609 80.27 126.31C80.899 125.753 81.71 125.446 82.55 125.446C83.39 125.446 84.201 125.753 84.83 126.31C85.1329 126.608 85.3688 126.968 85.5223 127.364C85.6757 127.761 85.7431 128.185 85.72 128.61C85.7402 129.031 85.6714 129.452 85.5181 129.845C85.3647 130.238 85.1303 130.594 84.83 130.89C84.524 131.184 84.1615 131.413 83.7644 131.562C83.3673 131.712 82.9439 131.779 82.52 131.76L82.51 131.77Z" fill="url(#paint14_linear_4_1001)"/>
<path d="M94.94 134.84C94.9156 134.343 94.9916 133.846 95.1634 133.378C95.3352 132.911 95.5993 132.483 95.94 132.12C96.6768 131.448 97.6379 131.076 98.635 131.076C99.6321 131.076 100.593 131.448 101.33 132.12C101.671 132.483 101.935 132.911 102.107 133.378C102.278 133.846 102.354 134.343 102.33 134.84C102.306 135.575 102.072 136.288 101.655 136.894C101.237 137.5 100.655 137.973 99.9767 138.257C99.2984 138.542 98.5526 138.625 97.8281 138.498C97.1037 138.371 96.4309 138.038 95.89 137.54C95.5603 137.176 95.3064 136.749 95.1433 136.286C94.9802 135.822 94.9111 135.331 94.94 134.84Z" fill="url(#paint15_linear_4_1001)"/>
<path d="M98.66 131.08C99.1545 131.053 99.6493 131.128 100.114 131.3C100.578 131.472 101.002 131.737 101.36 132.08C101.701 132.443 101.965 132.871 102.137 133.338C102.308 133.806 102.384 134.303 102.36 134.8C102.336 135.535 102.102 136.248 101.685 136.854C101.268 137.46 100.685 137.933 100.007 138.217C99.3284 138.502 98.5827 138.585 97.8582 138.458C97.1337 138.331 96.461 137.998 95.92 137.5C95.2625 136.75 94.9 135.787 94.9 134.79C94.9 133.793 95.2625 132.83 95.92 132.08C96.2766 131.739 96.6991 131.474 97.1617 131.302C97.6243 131.13 98.1172 131.055 98.61 131.08M98.61 130.33C98.0134 130.31 97.4191 130.412 96.8635 130.631C96.308 130.849 95.8031 131.179 95.38 131.6C94.9679 132.03 94.6458 132.538 94.4329 133.095C94.2199 133.651 94.1204 134.245 94.14 134.84C94.1067 135.436 94.1995 136.032 94.4124 136.589C94.6253 137.147 94.9534 137.653 95.3753 138.075C95.7972 138.497 96.3034 138.825 96.8608 139.038C97.4182 139.25 98.0143 139.343 98.61 139.31C99.2054 139.34 99.8005 139.245 100.357 139.031C100.913 138.817 101.419 138.489 101.841 138.068C102.263 137.647 102.592 137.142 102.807 136.586C103.022 136.03 103.119 135.435 103.09 134.84C103.11 134.245 103.01 133.651 102.797 133.095C102.584 132.538 102.262 132.03 101.85 131.6C101.425 131.178 100.919 130.848 100.362 130.629C99.8043 130.411 99.2082 130.309 98.61 130.33Z" fill="url(#paint16_linear_4_1001)"/>
<path d="M115.29 138.53C111.95 138.53 109.36 137.74 107.51 136.18C106.576 135.357 105.842 134.332 105.362 133.184C104.882 132.035 104.67 130.793 104.74 129.55C104.724 128.32 105.02 127.105 105.6 126.02C106.185 124.954 106.985 124.021 107.95 123.28C107.289 122.617 106.742 121.85 106.33 121.01C105.905 120.135 105.689 119.173 105.7 118.2C105.676 117.006 105.915 115.821 106.4 114.73C106.864 113.719 107.547 112.824 108.4 112.11C109.302 111.363 110.342 110.799 111.46 110.45C112.717 110.049 114.031 109.853 115.35 109.87C116.637 109.854 117.917 110.05 119.14 110.45C120.241 110.798 121.26 111.362 122.14 112.11C122.991 112.826 123.673 113.721 124.14 114.73C124.628 115.821 124.871 117.005 124.85 118.2C124.862 119.176 124.682 120.144 124.32 121.05C123.965 121.891 123.46 122.66 122.83 123.32C123.697 124.061 124.402 124.974 124.9 126C125.434 127.106 125.701 128.322 125.68 129.55C125.702 130.852 125.461 132.144 124.97 133.35C124.514 134.436 123.808 135.398 122.91 136.16C121.939 136.956 120.821 137.554 119.62 137.92C118.216 138.341 116.756 138.546 115.29 138.53ZM115.29 132.8C116.414 132.889 117.531 132.554 118.42 131.86C118.744 131.57 119.001 131.214 119.174 130.815C119.347 130.416 119.431 129.985 119.42 129.55C119.431 129.116 119.347 128.684 119.174 128.285C119.001 127.886 118.744 127.53 118.42 127.24C117.55 126.547 116.449 126.211 115.34 126.3C114.204 126.216 113.077 126.551 112.17 127.24C111.833 127.523 111.563 127.877 111.378 128.276C111.193 128.675 111.098 129.11 111.1 129.55C111.089 129.985 111.173 130.416 111.346 130.815C111.519 131.214 111.776 131.57 112.1 131.86C113.003 132.571 114.145 132.908 115.29 132.8ZM115.29 121.11C116.256 121.185 117.218 120.912 118 120.34C118.295 120.078 118.527 119.754 118.679 119.39C118.831 119.027 118.9 118.634 118.88 118.24C118.888 117.858 118.817 117.478 118.673 117.123C118.528 116.769 118.313 116.448 118.04 116.18C117.671 115.87 117.244 115.637 116.784 115.493C116.324 115.349 115.84 115.297 115.36 115.34C114.371 115.269 113.391 115.569 112.61 116.18C112.318 116.437 112.086 116.755 111.929 117.11C111.772 117.466 111.694 117.851 111.7 118.24C111.694 118.612 111.763 118.98 111.904 119.324C112.045 119.668 112.255 119.98 112.52 120.24C113.292 120.884 114.288 121.197 115.29 121.11Z" fill="url(#paint17_linear_4_1001)"/>
<path d="M115.36 109.87C116.647 109.854 117.927 110.05 119.15 110.45C120.251 110.798 121.271 111.362 122.15 112.11C123.001 112.826 123.683 113.721 124.15 114.73C124.638 115.821 124.881 117.005 124.86 118.2C124.872 119.176 124.692 120.144 124.33 121.05C123.975 121.891 123.47 122.66 122.84 123.32C123.703 124.062 124.405 124.975 124.9 126C125.434 127.106 125.701 128.322 125.68 129.55C125.702 130.852 125.461 132.144 124.97 133.35C124.514 134.436 123.808 135.398 122.91 136.16C121.94 136.958 120.822 137.557 119.62 137.92C118.216 138.341 116.756 138.546 115.29 138.53C111.95 138.53 109.36 137.74 107.51 136.18C106.578 135.355 105.845 134.331 105.365 133.182C104.886 132.034 104.672 130.792 104.74 129.55C104.724 128.32 105.02 127.105 105.6 126.02C106.185 124.954 106.985 124.021 107.95 123.28C107.289 122.617 106.742 121.85 106.33 121.01C105.905 120.135 105.689 119.173 105.7 118.2C105.676 117.006 105.915 115.821 106.4 114.73C106.864 113.719 107.547 112.824 108.4 112.11C109.302 111.363 110.342 110.799 111.46 110.45C112.717 110.049 114.031 109.853 115.35 109.87M115.28 121.11C116.246 121.185 117.208 120.912 117.99 120.34C118.285 120.078 118.517 119.754 118.669 119.39C118.821 119.027 118.89 118.634 118.87 118.24C118.878 117.858 118.807 117.478 118.663 117.123C118.518 116.769 118.303 116.448 118.03 116.18C117.661 115.87 117.234 115.637 116.774 115.493C116.314 115.349 115.83 115.297 115.35 115.34C114.361 115.269 113.381 115.569 112.6 116.18C112.308 116.437 112.076 116.755 111.919 117.11C111.762 117.466 111.684 117.851 111.69 118.24C111.684 118.612 111.754 118.98 111.894 119.324C112.035 119.668 112.245 119.98 112.51 120.24C113.288 120.87 114.284 121.168 115.28 121.07M115.28 132.76C116.404 132.849 117.521 132.514 118.41 131.82C118.734 131.53 118.991 131.174 119.164 130.775C119.337 130.376 119.421 129.945 119.41 129.51C119.421 129.076 119.337 128.644 119.164 128.245C118.991 127.846 118.734 127.49 118.41 127.2C117.54 126.507 116.439 126.171 115.33 126.26C114.194 126.176 113.067 126.511 112.16 127.2C111.823 127.483 111.553 127.837 111.368 128.236C111.183 128.635 111.088 129.07 111.09 129.51C111.079 129.945 111.163 130.376 111.336 130.775C111.509 131.174 111.766 131.53 112.09 131.82C112.987 132.52 114.116 132.856 115.25 132.76M115.32 109.08C113.92 109.068 112.527 109.274 111.19 109.69C109.985 110.072 108.864 110.684 107.89 111.49C106.95 112.275 106.195 113.259 105.68 114.37C105.152 115.563 104.889 116.856 104.91 118.16C104.902 119.246 105.142 120.32 105.61 121.3C105.941 121.97 106.351 122.597 106.83 123.17C106.054 123.873 105.401 124.701 104.9 125.62C104.244 126.812 103.9 128.15 103.9 129.51C103.828 130.858 104.06 132.206 104.58 133.452C105.099 134.698 105.892 135.812 106.9 136.71C108.9 138.39 111.65 139.24 115.16 139.24C116.704 139.258 118.242 139.039 119.72 138.59C121.016 138.203 122.221 137.556 123.26 136.69C124.253 135.856 125.031 134.796 125.53 133.6C126.061 132.303 126.323 130.911 126.3 129.51C126.32 128.164 126.025 126.832 125.44 125.62C124.994 124.729 124.402 123.918 123.69 123.22C124.159 122.637 124.543 121.991 124.83 121.3C125.231 120.302 125.432 119.235 125.42 118.16C125.441 116.855 125.175 115.561 124.64 114.37C124.136 113.271 123.403 112.292 122.49 111.5C121.538 110.691 120.438 110.076 119.25 109.69C117.957 109.277 116.607 109.071 115.25 109.08H115.32ZM115.25 120.32C114.453 120.406 113.653 120.188 113.01 119.71C112.81 119.514 112.653 119.279 112.55 119.019C112.446 118.759 112.399 118.48 112.41 118.2C112.402 117.914 112.458 117.631 112.574 117.369C112.69 117.108 112.863 116.876 113.08 116.69C113.722 116.208 114.52 115.98 115.32 116.05C116.09 115.972 116.86 116.194 117.47 116.67C117.671 116.87 117.83 117.109 117.937 117.372C118.043 117.634 118.095 117.916 118.09 118.2C118.103 118.486 118.054 118.772 117.947 119.037C117.84 119.303 117.678 119.543 117.47 119.74C116.819 120.183 116.035 120.388 115.25 120.32ZM115.25 132.01C114.306 132.096 113.363 131.833 112.6 131.27C112.353 131.049 112.157 130.777 112.024 130.473C111.891 130.17 111.825 129.841 111.83 129.51C111.826 129.175 111.898 128.844 112.04 128.541C112.182 128.238 112.39 127.971 112.65 127.76C113.422 127.2 114.369 126.934 115.32 127.01C116.239 126.93 117.155 127.193 117.89 127.75C118.134 127.974 118.328 128.246 118.461 128.549C118.594 128.852 118.663 129.179 118.663 129.51C118.663 129.841 118.594 130.168 118.461 130.471C118.328 130.774 118.134 131.046 117.89 131.27C117.131 131.826 116.197 132.089 115.26 132.01H115.25Z" fill="url(#paint18_linear_4_1001)"/>
</g>
<defs>
<linearGradient id="paint0_linear_4_1001" x1="140.71" y1="-16.2" x2="91.83" y2="261.03" gradientUnits="userSpaceOnUse">
<stop offset="0.25" stop-color="#F6E594"/>
<stop offset="0.38" stop-color="#F5E492"/>
<stop offset="0.43" stop-color="#F2DE8B"/>
<stop offset="0.47" stop-color="#ECD580"/>
<stop offset="0.49" stop-color="#E4C86F"/>
<stop offset="0.5" stop-color="#E2C46A"/>
<stop offset="0.61" stop-color="#C89E3F"/>
<stop offset="0.72" stop-color="#E8D17E"/>
<stop offset="0.76" stop-color="#E5CE7C"/>
<stop offset="0.79" stop-color="#DCC574"/>
<stop offset="0.81" stop-color="#CDB568"/>
<stop offset="0.83" stop-color="#B79F57"/>
<stop offset="0.86" stop-color="#9B8240"/>
<stop offset="0.88" stop-color="#684E18"/>
</linearGradient>
<linearGradient id="paint1_linear_4_1001" x1="140.67" y1="-15.9801" x2="91.86" y2="260.81" gradientUnits="userSpaceOnUse">
<stop offset="0.25" stop-color="#F6E594"/>
<stop offset="0.38" stop-color="#F5E492"/>
<stop offset="0.43" stop-color="#F2DE8B"/>
<stop offset="0.47" stop-color="#ECD580"/>
<stop offset="0.49" stop-color="#E4C86F"/>
<stop offset="0.5" stop-color="#E2C46A"/>
<stop offset="0.61" stop-color="#C89E3F"/>
<stop offset="0.72" stop-color="#E8D17E"/>
<stop offset="0.76" stop-color="#E5CE7C"/>
<stop offset="0.79" stop-color="#DCC574"/>
<stop offset="0.81" stop-color="#CDB568"/>
<stop offset="0.83" stop-color="#B79F57"/>
<stop offset="0.86" stop-color="#9B8240"/>
<stop offset="0.88" stop-color="#684E18"/>
</linearGradient>
<linearGradient id="paint2_linear_4_1001" x1="146.14" y1="16.5001" x2="67.15" y2="233.51" gradientUnits="userSpaceOnUse">
<stop stop-color="#F6E594"/>
<stop offset="0.33" stop-color="#F6E492"/>
<stop offset="0.45" stop-color="#F4DF8B"/>
<stop offset="0.53" stop-color="#F2D880"/>
<stop offset="0.6" stop-color="#EFCD6F"/>
<stop offset="0.65" stop-color="#EBC15C"/>
<stop offset="0.7" stop-color="#C89D47"/>
<stop offset="0.82" stop-color="#7A4D18"/>
<stop offset="0.97" stop-color="#C1914C"/>
</linearGradient>
<linearGradient id="paint3_linear_4_1001" x1="166.09" y1="34.2001" x2="53.02" y2="230.04" gradientUnits="userSpaceOnUse">
<stop stop-color="#FFFFAD"/>
<stop offset="0.26" stop-color="#F6E594"/>
<stop offset="0.34" stop-color="#F5E492"/>
<stop offset="0.37" stop-color="#F2DE8B"/>
<stop offset="0.39" stop-color="#ECD580"/>
<stop offset="0.41" stop-color="#E2C46A"/>
<stop offset="0.51" stop-color="#A68C46"/>
<stop offset="0.66" stop-color="#564217"/>
<stop offset="0.68" stop-color="#75612D"/>
<stop offset="0.73" stop-color="#C7B167"/>
<stop offset="0.75" stop-color="#E8D17E"/>
<stop offset="0.78" stop-color="#E5CE7C"/>
<stop offset="0.81" stop-color="#DDC574"/>
<stop offset="0.83" stop-color="#CFB568"/>
<stop offset="0.85" stop-color="#BB9F56"/>
<stop offset="0.86" stop-color="#A2823F"/>
<stop offset="0.88" stop-color="#825E23"/>
<stop offset="0.9" stop-color="#5B3200"/>
</linearGradient>
<linearGradient id="paint4_linear_4_1001" x1="116.21" y1="155.95" x2="116.21" y2="166.49" gradientUnits="userSpaceOnUse">
<stop stop-color="#F6E594"/>
<stop offset="0.21" stop-color="#F5E492"/>
<stop offset="0.29" stop-color="#F2DE8B"/>
<stop offset="0.34" stop-color="#ECD580"/>
<stop offset="0.39" stop-color="#E4C86F"/>
<stop offset="0.4" stop-color="#E2C46A"/>
<stop offset="0.49" stop-color="#BA9D4E"/>
<stop offset="0.69" stop-color="#6A4E17"/>
<stop offset="0.72" stop-color="#6F531B"/>
<stop offset="0.75" stop-color="#7D6227"/>
<stop offset="0.79" stop-color="#957B3A"/>
<stop offset="0.83" stop-color="#B69D55"/>
<stop offset="0.86" stop-color="#E0C977"/>
<stop offset="0.87" stop-color="#E8D17E"/>
<stop offset="0.9" stop-color="#E5CE7C"/>
<stop offset="0.92" stop-color="#DCC574"/>
<stop offset="0.94" stop-color="#CDB568"/>
<stop offset="0.96" stop-color="#B79F57"/>
<stop offset="0.98" stop-color="#9B8240"/>
<stop offset="0.99" stop-color="#785F25"/>
<stop offset="1" stop-color="#684E18"/>
</linearGradient>
<linearGradient id="paint5_linear_4_1001" x1="116.34" y1="76.2301" x2="116.34" y2="86.7701" gradientUnits="userSpaceOnUse">
<stop stop-color="#F6E594"/>
<stop offset="0.21" stop-color="#F5E492"/>
<stop offset="0.29" stop-color="#F2DE8B"/>
<stop offset="0.34" stop-color="#ECD580"/>
<stop offset="0.39" stop-color="#E4C86F"/>
<stop offset="0.4" stop-color="#E2C46A"/>
<stop offset="0.49" stop-color="#BA9D4E"/>
<stop offset="0.69" stop-color="#6A4E17"/>
<stop offset="0.72" stop-color="#6F531B"/>
<stop offset="0.75" stop-color="#7D6227"/>
<stop offset="0.79" stop-color="#957B3A"/>
<stop offset="0.83" stop-color="#B69D55"/>
<stop offset="0.86" stop-color="#E0C977"/>
<stop offset="0.87" stop-color="#E8D17E"/>
<stop offset="0.9" stop-color="#E5CE7C"/>
<stop offset="0.92" stop-color="#DCC574"/>
<stop offset="0.94" stop-color="#CDB568"/>
<stop offset="0.96" stop-color="#B79F57"/>
<stop offset="0.98" stop-color="#9B8240"/>
<stop offset="0.99" stop-color="#785F25"/>
<stop offset="1" stop-color="#684E18"/>
</linearGradient>
<linearGradient id="paint6_linear_4_1001" x1="-2334.84" y1="108.75" x2="-2334.84" y2="141.85" gradientUnits="userSpaceOnUse">
<stop stop-color="#F6E594"/>
<stop offset="0.36" stop-color="#F6E492"/>
<stop offset="0.5" stop-color="#F4DF8B"/>
<stop offset="0.59" stop-color="#F2D880"/>
<stop offset="0.66" stop-color="#EFCD6F"/>
<stop offset="0.72" stop-color="#EBC15C"/>
<stop offset="0.77" stop-color="#C89D47"/>
<stop offset="0.88" stop-color="#7A4D18"/>
<stop offset="0.95" stop-color="#C1914C"/>
<stop offset="0.96" stop-color="#BE8F4A"/>
<stop offset="0.97" stop-color="#B58742"/>
<stop offset="0.98" stop-color="#A57B36"/>
<stop offset="0.99" stop-color="#8F6924"/>
<stop offset="1" stop-color="#624600"/>
</linearGradient>
<linearGradient id="paint7_linear_4_1001" x1="143.44" y1="106.85" x2="143.44" y2="154.58" gradientUnits="userSpaceOnUse">
<stop stop-color="#F6E594"/>
<stop offset="0.36" stop-color="#F6E492"/>
<stop offset="0.5" stop-color="#F4DF8B"/>
<stop offset="0.59" stop-color="#F2D880"/>
<stop offset="0.66" stop-color="#EFCD6F"/>
<stop offset="0.72" stop-color="#EBC15C"/>
<stop offset="0.77" stop-color="#C89D47"/>
<stop offset="0.88" stop-color="#7A4D18"/>
<stop offset="0.95" stop-color="#C1914C"/>
<stop offset="0.96" stop-color="#BE8F4A"/>
<stop offset="0.97" stop-color="#B58742"/>
<stop offset="0.98" stop-color="#A57B36"/>
<stop offset="0.99" stop-color="#8F6924"/>
<stop offset="1" stop-color="#624600"/>
</linearGradient>
<linearGradient id="paint8_linear_4_1001" x1="82.39" y1="106.83" x2="82.39" y2="154.43" gradientUnits="userSpaceOnUse">
<stop stop-color="#F6E594"/>
<stop offset="0.36" stop-color="#F6E492"/>
<stop offset="0.5" stop-color="#F4DF8B"/>
<stop offset="0.59" stop-color="#F2D880"/>
<stop offset="0.66" stop-color="#EFCD6F"/>
<stop offset="0.72" stop-color="#EBC15C"/>
<stop offset="0.77" stop-color="#C89D47"/>
<stop offset="0.88" stop-color="#7A4D18"/>
<stop offset="0.95" stop-color="#C1914C"/>
<stop offset="0.96" stop-color="#BE8F4A"/>
<stop offset="0.97" stop-color="#B58742"/>
<stop offset="0.98" stop-color="#A57B36"/>
<stop offset="0.99" stop-color="#8F6924"/>
<stop offset="1" stop-color="#624600"/>
</linearGradient>
<linearGradient id="paint9_linear_4_1001" x1="98.66" y1="128.08" x2="98.66" y2="146.55" gradientUnits="userSpaceOnUse">
<stop stop-color="#F6E594"/>
<stop offset="0.36" stop-color="#F6E492"/>
<stop offset="0.5" stop-color="#F4DF8B"/>
<stop offset="0.59" stop-color="#F2D880"/>
<stop offset="0.66" stop-color="#EFCD6F"/>
<stop offset="0.72" stop-color="#EBC15C"/>
<stop offset="0.77" stop-color="#C89D47"/>
<stop offset="0.88" stop-color="#7A4D18"/>
<stop offset="0.95" stop-color="#C1914C"/>
<stop offset="0.96" stop-color="#BE8F4A"/>
<stop offset="0.97" stop-color="#B58742"/>
<stop offset="0.98" stop-color="#A57B36"/>
<stop offset="0.99" stop-color="#8F6924"/>
<stop offset="1" stop-color="#624600"/>
</linearGradient>
<linearGradient id="paint10_linear_4_1001" x1="115.21" y1="106.87" x2="115.21" y2="154.34" gradientUnits="userSpaceOnUse">
<stop stop-color="#F6E594"/>
<stop offset="0.36" stop-color="#F6E492"/>
<stop offset="0.5" stop-color="#F4DF8B"/>
<stop offset="0.59" stop-color="#F2D880"/>
<stop offset="0.66" stop-color="#EFCD6F"/>
<stop offset="0.72" stop-color="#EBC15C"/>
<stop offset="0.77" stop-color="#C89D47"/>
<stop offset="0.88" stop-color="#7A4D18"/>
<stop offset="0.95" stop-color="#C1914C"/>
<stop offset="0.96" stop-color="#BE8F4A"/>
<stop offset="0.97" stop-color="#B58742"/>
<stop offset="0.98" stop-color="#A57B36"/>
<stop offset="0.99" stop-color="#8F6924"/>
<stop offset="1" stop-color="#624600"/>
</linearGradient>
<linearGradient id="paint11_linear_4_1001" x1="143.41" y1="104.82" x2="143.48" y2="152.77" gradientUnits="userSpaceOnUse">
<stop stop-color="#F6E594"/>
<stop offset="0.17" stop-color="#F6E492"/>
<stop offset="0.24" stop-color="#F4DF8B"/>
<stop offset="0.28" stop-color="#F2D880"/>
<stop offset="0.32" stop-color="#EFCD6F"/>
<stop offset="0.35" stop-color="#EBC15C"/>
<stop offset="0.4" stop-color="#C89D47"/>
<stop offset="0.54" stop-color="#7A4D18"/>
<stop offset="0.66" stop-color="#B68644"/>
<stop offset="0.77" stop-color="#C1914C"/>
<stop offset="0.8" stop-color="#C3944E"/>
<stop offset="0.82" stop-color="#C99D56"/>
<stop offset="0.84" stop-color="#D3AD63"/>
<stop offset="0.86" stop-color="#E2C375"/>
<stop offset="0.88" stop-color="#F5E08C"/>
</linearGradient>
<linearGradient id="paint12_linear_4_1001" x1="143.44" y1="109.85" x2="143.44" y2="138.69" gradientUnits="userSpaceOnUse">
<stop stop-color="#FFF7AB"/>
<stop offset="0.41" stop-color="#F6E594"/>
<stop offset="0.57" stop-color="#F6E492"/>
<stop offset="0.62" stop-color="#F4DF8B"/>
<stop offset="0.66" stop-color="#F2D880"/>
<stop offset="0.7" stop-color="#EFCD6F"/>
<stop offset="0.72" stop-color="#EBC15C"/>
<stop offset="0.77" stop-color="#C89D47"/>
<stop offset="0.88" stop-color="#7A4D18"/>
<stop offset="0.91" stop-color="#C1914C"/>
<stop offset="0.92" stop-color="#BE8E4A"/>
<stop offset="0.94" stop-color="#B58643"/>
<stop offset="0.95" stop-color="#A57838"/>
<stop offset="0.96" stop-color="#724A14"/>
<stop offset="0.97" stop-color="#553000"/>
</linearGradient>
<linearGradient id="paint13_linear_4_1001" x1="82.39" y1="109.83" x2="82.39" y2="149.86" gradientUnits="userSpaceOnUse">
<stop stop-color="#F6E594"/>
<stop offset="0.17" stop-color="#F6E492"/>
<stop offset="0.24" stop-color="#F4DF8B"/>
<stop offset="0.28" stop-color="#F2D880"/>
<stop offset="0.32" stop-color="#EFCD6F"/>
<stop offset="0.35" stop-color="#EBC15C"/>
<stop offset="0.4" stop-color="#C89D47"/>
<stop offset="0.54" stop-color="#7A4D18"/>
<stop offset="0.66" stop-color="#B68644"/>
<stop offset="0.77" stop-color="#C1914C"/>
<stop offset="0.8" stop-color="#C3944E"/>
<stop offset="0.82" stop-color="#C99D56"/>
<stop offset="0.84" stop-color="#D3AD63"/>
<stop offset="0.86" stop-color="#E2C375"/>
<stop offset="0.88" stop-color="#F5E08C"/>
</linearGradient>
<linearGradient id="paint14_linear_4_1001" x1="82.39" y1="109.08" x2="82.39" y2="139.33" gradientUnits="userSpaceOnUse">
<stop stop-color="#FFF7AB"/>
<stop offset="0.41" stop-color="#F6E594"/>
<stop offset="0.57" stop-color="#F6E492"/>
<stop offset="0.62" stop-color="#F4DF8B"/>
<stop offset="0.66" stop-color="#F2D880"/>
<stop offset="0.7" stop-color="#EFCD6F"/>
<stop offset="0.72" stop-color="#EBC15C"/>
<stop offset="0.77" stop-color="#C89D47"/>
<stop offset="0.88" stop-color="#7A4D18"/>
<stop offset="0.91" stop-color="#C1914C"/>
<stop offset="0.92" stop-color="#BE8E4A"/>
<stop offset="0.94" stop-color="#B58643"/>
<stop offset="0.95" stop-color="#A57838"/>
<stop offset="0.96" stop-color="#724A14"/>
<stop offset="0.97" stop-color="#553000"/>
</linearGradient>
<linearGradient id="paint15_linear_4_1001" x1="98.66" y1="129.14" x2="98.66" y2="144.87" gradientUnits="userSpaceOnUse">
<stop stop-color="#F6E594"/>
<stop offset="0.17" stop-color="#F6E492"/>
<stop offset="0.24" stop-color="#F4DF8B"/>
<stop offset="0.28" stop-color="#F2D880"/>
<stop offset="0.32" stop-color="#EFCD6F"/>
<stop offset="0.35" stop-color="#EBC15C"/>
<stop offset="0.4" stop-color="#C89D47"/>
<stop offset="0.54" stop-color="#7A4D18"/>
<stop offset="0.66" stop-color="#B68644"/>
<stop offset="0.77" stop-color="#C1914C"/>
<stop offset="0.8" stop-color="#C3944E"/>
<stop offset="0.82" stop-color="#C99D56"/>
<stop offset="0.84" stop-color="#D3AD63"/>
<stop offset="0.86" stop-color="#E2C375"/>
<stop offset="0.88" stop-color="#F5E08C"/>
</linearGradient>
<linearGradient id="paint16_linear_4_1001" x1="98.66" y1="130.33" x2="98.66" y2="139.31" gradientUnits="userSpaceOnUse">
<stop stop-color="#FFF7AB"/>
<stop offset="0.41" stop-color="#F6E594"/>
<stop offset="0.57" stop-color="#F6E492"/>
<stop offset="0.62" stop-color="#F4DF8B"/>
<stop offset="0.66" stop-color="#F2D880"/>
<stop offset="0.7" stop-color="#EFCD6F"/>
<stop offset="0.72" stop-color="#EBC15C"/>
<stop offset="0.77" stop-color="#C89D47"/>
<stop offset="0.88" stop-color="#7A4D18"/>
<stop offset="0.91" stop-color="#C1914C"/>
<stop offset="0.92" stop-color="#BE8E4A"/>
<stop offset="0.94" stop-color="#B58643"/>
<stop offset="0.95" stop-color="#A57838"/>
<stop offset="0.96" stop-color="#724A14"/>
<stop offset="0.97" stop-color="#553000"/>
</linearGradient>
<linearGradient id="paint17_linear_4_1001" x1="115.21" y1="109.87" x2="115.21" y2="149.12" gradientUnits="userSpaceOnUse">
<stop stop-color="#F6E594"/>
<stop offset="0.17" stop-color="#F6E492"/>
<stop offset="0.24" stop-color="#F4DF8B"/>
<stop offset="0.28" stop-color="#F2D880"/>
<stop offset="0.32" stop-color="#EFCD6F"/>
<stop offset="0.35" stop-color="#EBC15C"/>
<stop offset="0.4" stop-color="#C89D47"/>
<stop offset="0.54" stop-color="#7A4D18"/>
<stop offset="0.66" stop-color="#B68644"/>
<stop offset="0.77" stop-color="#C1914C"/>
<stop offset="0.8" stop-color="#C3944E"/>
<stop offset="0.82" stop-color="#C99D56"/>
<stop offset="0.84" stop-color="#D3AD63"/>
<stop offset="0.86" stop-color="#E2C375"/>
<stop offset="0.88" stop-color="#F5E08C"/>
</linearGradient>
<linearGradient id="paint18_linear_4_1001" x1="115.21" y1="109.12" x2="115.21" y2="139.28" gradientUnits="userSpaceOnUse">
<stop stop-color="#FFF7AB"/>
<stop offset="0.41" stop-color="#F6E594"/>
<stop offset="0.57" stop-color="#F6E492"/>
<stop offset="0.62" stop-color="#F4DF8B"/>
<stop offset="0.66" stop-color="#F2D880"/>
<stop offset="0.7" stop-color="#EFCD6F"/>
<stop offset="0.72" stop-color="#EBC15C"/>
<stop offset="0.77" stop-color="#C89D47"/>
<stop offset="0.88" stop-color="#7A4D18"/>
<stop offset="0.91" stop-color="#C1914C"/>
<stop offset="0.92" stop-color="#BE8E4A"/>
<stop offset="0.94" stop-color="#B58643"/>
<stop offset="0.95" stop-color="#A57838"/>
<stop offset="0.96" stop-color="#724A14"/>
<stop offset="0.97" stop-color="#553000"/>
</linearGradient>
</defs>
</svg>
